<svg xmlns="http://www.w3.org/2000/svg" viewBox="0 0 1280 960"><path d="m690.1 481.5-14.5-9.8c7.5-5.9 14.1-12 19.7-18.5s10-13.4 13.3-20.6l6.8 3.1q-4.05 12.75-10.5 24.3c-4.2 7.5-9.2 14.8-14.8 21.5m95.3-44.1-6.6 2.2c4.4 6.4 7.9 12.8 10.7 19.3 2.7 6.4 4.6 13.2 5.7 20.3l16.4-4.7c-2.7-6.8-6.3-13.2-10.8-19.3-4.3-6-9.5-11.9-15.4-17.8m-41.6 0-7 2c2.6 6.4 4.7 12.8 6.2 19.3 1.5 6.4 2.5 13.2 3.1 20.3l16.4-4.3c-1.6-6.8-4-13.2-7.1-19.3s-6.9-12-11.6-18m-324.5-26.8 4.3 14.5c18.9-5 36.9-11.9 54.3-20.5l-1.4-5.9c-15.1 4.8-31 8.4-47.8 10.7 10.4-7.8 19.7-16.3 27.9-25.4 8.9-9.9 16.8-20.7 23.8-32.5l-11.1-11.1q-2.7 6-5.7 11.7l-35.7 4.8c8.2-7.3 15.6-15.1 22.3-23.4 7.3-9.1 13.8-18.8 19.4-29.2l-13.3-10c-4.2 12.3-9.4 23.7-15.5 34.1s-13.2 20.2-21.4 29.4l3.9 13.9 36.7-12.9c-3.7 6.5-7.6 12.8-11.9 18.9-8.1 11.9-17.7 22.8-28.8 32.9M722.7 320l-5.3 3.1c4.4 4.6 8.1 9.6 11.3 14.8s5.6 10.9 7.4 17.2l12.1-7.2c-6.9-11.4-15.4-20.6-25.5-27.9m135.4 110.8H676.2v-6.6H760v-27h-72.7v-5.9H760v-23.6h-68.6v-64.5H843v64.5h-68.6v23.6h72.7v5.9h-72.7v27h83.8v6.6zM829.3 362v-52.4h-54.9V362zm-69.3 0v-52.4h-54.7V362zm84.8 119 15.2-6.8c-6.7-13.4-17.2-26-31.5-37.9l-6.6 2.7c10.6 13.7 18.3 27.7 22.9 42m-27.4-156.1-11.7-5.9c-3.8 12.8-10.5 23.8-19.9 33l4.7 3.5c11.9-8.9 20.9-19.1 26.9-30.6M585.1 475.5h-86.7V410h86.7zm-71.3-59v52.2h55.9v-52.2zm-30.3 21.9-2.5-6.2c-9.7 5.3-19.7 10.1-29.9 14.3s-20.8 7.9-31.5 11.1l6.6 16.4c10.5-4.8 20.5-10.1 29.9-16.1 9.3-5.9 18.5-12.4 27.4-19.5M604.1 387l-5.5 16.2c-18.4-7-35.4-16.3-51-28-1.5-1.1-2.9-2.2-4.3-3.3-16.2 12-35.2 21.8-57 29.5l-2.2-6.2c19.3-8 36.2-18.1 50.6-30.5-9.4-8.3-18.1-17.6-26-27.7-5.6 6.5-11.9 12.3-19.1 17.5l-3.7-5.1c6.7-7.5 12.4-15.8 17.1-25s8.4-18.8 11-28.9l16 3.3c-1.8 5.7-4.1 11.2-6.8 16.6h65v5.9c-9.1 16.5-21.1 31-35.8 43.5 15.7 9.3 33 16.8 51.7 22.2M542 358c11-10.7 20-23 27.1-36.8H520c-1.6 2.8-3.4 5.5-5.3 8.2-.7.9-1.4 1.8-2 2.7 8.8 9.9 18.6 18.5 29.3 25.9M272.9 574.9H268v76.8h43.3v-2.9h-38.4zm87.3 65.1v-40h-4.7v40.7q-1.95 2.85-4.5 4.8c-1.7 1.3-3.4 2.3-5.3 3-1.8.7-3.7 1-5.6 1q-5.7 0-8.4-3.6c-1.8-2.4-2.8-6.3-2.8-11.5V600h-4.7v35.8q0 8.1 3.9 12.3c2.6 2.8 6.3 4.2 11.2 4.2 3.5 0 6.8-.8 9.7-2.5 2.5-1.4 4.7-3.5 6.7-6.1.2 1.3.7 2.4 1.4 3.6 1.1 1.7 2.6 3.2 4.6 4.7l1.7-1.6c-1-1.4-1.8-3-2.4-4.6-.5-1.7-.8-3.7-.8-5.8m53-33.7q5.7 7.05 5.7 19.5c0 12.45-1.9 14.8-5.7 19.5s-9.1 7-15.9 7-12-2.3-15.9-7q-5.7-7.05-5.7-19.5c0-12.45 1.9-14.8 5.7-19.5s9.1-7 15.9-7 12.1 2.3 15.9 7m.8 19.5c0-7.6-1.4-13.4-4.3-17.5s-6.9-6.2-12.2-6.2-9.4 2-12.3 6.2c-2.9 4.1-4.4 9.9-4.4 17.5s1.5 13.4 4.4 17.5 7 6.1 12.3 6.1 9.3-2 12.2-6.1c2.8-4.1 4.3-9.9 4.3-17.5m68.2-15.1h-41.6V575h-5.5v76.8h5.5V614h41.6v37.8h5.5V575h-5.5zm26.9 12.7c0 .8-.1 1.5-.1 2.4 0 7.7 1.5 13.1 4.5 17 3 4 7.3 6 13 6 4 0 7.4-1.1 10.3-3.3s5.1-5.3 6.7-9.4l3 .8c-1.8 5-4.5 8.8-8 11.5s-7.8 4-12.8 4c-6.8 0-12.2-2.3-16.1-7-3.9-4.6-5.8-11.2-5.8-19.7s1.9-15 5.6-19.6 9-6.9 15.8-6.9c4.4 0 8.3 1 11.6 3.1s5.8 4.9 7.5 8.5 2.6 7.8 2.6 12.6zm.2-2.7h32c-.4-5.6-1.9-10-4.5-13.4-2.8-3.5-6.6-5.3-11.4-5.3-5.3 0-9.3 2-12.1 6.1-2.2 3.2-3.5 7.4-4 12.6m59.7-44.9c-.6.6-.9 1.4-.9 2.5s.3 1.9.9 2.5 1.4.9 2.5.9 1.9-.3 2.6-.9c.6-.6.9-1.4.9-2.5s-.3-1.9-.9-2.5-1.5-.9-2.6-.9c-1 0-1.8.3-2.5.9m5.4 23.9h-13.7v3.4h8.2v45.3h-11v3.4h27.5v-3.4h-11zm75.1 44.1-23.9-68.9H619l27.5 76.8h4.6l27.5-76.8H674zm73.7 1.4c.5 1.7 1.4 3.2 2.5 4.6l-2.6 2.2c-2.2-1.5-3.8-3.1-4.9-4.8-.6-1-1-2-1.3-3.2-1.5 2.5-3.3 4.5-5.6 5.8-2.8 1.7-6.2 2.5-10.2 2.5-4.3 0-8-1-11.1-3.1s-5.5-5.1-7.1-9.1-2.5-8.8-2.5-14.4.8-10.5 2.5-14.5 4.1-7 7.2-9.1 6.8-3.1 11-3.1 7.8.9 10.6 2.7c2 1.3 3.7 2.8 4.9 4.6v-6.6h5.8v39.6c0 2.2.2 4.2.8 5.9m-6.7-5.2v-29.1c-1.2-2.2-3-4.1-5.5-5.7-2.5-1.5-5.5-2.3-8.9-2.3-5.1 0-9.1 1.9-11.8 5.8-2.8 3.9-4.2 9.5-4.2 17s1.4 13.1 4.2 17 6.7 5.8 11.8 5.8c3.2 0 6-.7 8.5-2.2 2.6-1.4 4.5-3.5 5.9-6.3m51.2-38.6c-2.2-1.6-4.9-2.5-8-2.5s-6 .8-8.6 2.6c-2.2 1.4-4.1 3.4-5.8 6-.3-1.3-.8-2.4-1.4-3.5-1.1-1.7-2.8-3.3-5-4.8l-2.7 2.4c1.2 1.3 2 2.8 2.6 4.5s.9 3.7.9 6.1v39.5h6v-40.3c1.7-2.7 3.7-4.8 6-6.2s4.8-2.2 7.4-2.2c2 0 3.7.7 5.2 2s2.7 3.3 3.7 6l4.8-2.4q-1.65-4.65-5.1-7.2m27.8-20.2c.6-.7 1-1.6 1-2.8s-.3-2.2-1-2.8-1.6-1-2.7-1c-1.2 0-2.2.3-2.8 1s-1 1.6-1 2.8.3 2.1 1 2.8 1.6 1 2.8 1c1.1 0 2-.4 2.7-1m.4 18.3h-14.4v4h8.2v44.3h-10.9v4h28v-4h-10.9zM861 645c.6 1.7 1.4 3.3 2.5 4.6l-2.9 2.5c-2.3-1.5-4-3.1-5.2-4.9-.6-.9-1-1.9-1.3-2.9-1.4 2.4-3.2 4.3-5.5 5.6-2.8 1.7-6.3 2.5-10.3 2.5-4.3 0-8-1-11.1-3.1-3.1-2-5.5-5.1-7.2-9.1s-2.5-8.9-2.5-14.5.8-10.5 2.6-14.5 4.1-7.1 7.3-9.1 6.8-3.1 11-3.1 7.8.9 10.6 2.7c1.9 1.2 3.5 2.8 4.8 4.5v-6.6h6.3V639c0 2.2.3 4.3.9 6m-7.2-5.5V611c-1.2-2.2-3-4.1-5.4-5.6-2.5-1.5-5.3-2.2-8.5-2.2-5.2 0-9.1 1.9-11.8 5.7s-4 9.4-4 16.8 1.3 13 4 16.8 6.6 5.7 11.8 5.7c3 0 5.7-.7 8.1-2.2s4.3-3.7 5.8-6.5m63.7-28.4c1.7 4 2.5 8.9 2.5 14.5s-.8 10.5-2.5 14.5-4.1 7.1-7.2 9.1-6.8 3.1-11.1 3.1-7.5-.8-10.3-2.5c-2-1.2-3.7-2.9-5.1-4.9v6.8h-6.6v-82h6.6V606q1.8-2.7 4.8-4.5c2.8-1.8 6.3-2.7 10.6-2.7s7.9 1 11.1 3.1 5.6 5.1 7.2 9.2m-4 14.5c0-7.3-1.3-12.9-3.9-16.6q-3.9-5.7-11.7-5.7c-3.1 0-5.9.7-8.4 2.2s-4.3 3.4-5.5 5.7v28.3q2.1 4.2 5.7 6.3c2.4 1.4 5.2 2.1 8.2 2.1 5.2 0 9.1-1.9 11.7-5.6 2.6-3.9 3.9-9.4 3.9-16.7m34.8-55.8h-14.8v4.4h8.1v73.1h-10.8v4.4h28.3v-4.4h-10.8zm28.2 54.3v1.4c0 7.4 1.4 12.5 4.3 16.3s7 5.6 12.4 5.6q5.55 0 9.6-3c4.05-3 4.8-4.8 6.4-8.6l4.4 1.3c-2 4.9-4.8 8.7-8.3 11.3-3.6 2.6-7.9 3.9-13.1 3.9-7 0-12.5-2.3-16.5-7q-6-7.05-6-19.8c0-12.75 1.9-15.3 5.7-19.9s9.2-6.9 16.1-6.9c4.6 0 8.7 1 12.1 3.1s6 5 7.7 8.9 2.5 8.3 2.4 13.4zm.3-3.9h30.1c-.4-5.3-1.7-9.5-4.1-12.5-2.6-3.3-6.2-5-10.8-5-5 0-8.8 2-11.5 5.9-2 2.9-3.2 6.8-3.7 11.6" style="fill:#fbfbfb"/></svg>