<svg xmlns="http://www.w3.org/2000/svg" viewBox="0 0 1280 960"><path d="M0 0h1280v960H0z" style="fill:#031723"/><path d="M133.7 208.7c.4-1.4.8-2.8 1.2-4.3h-30.1v-.9h30.3c1.8-7.9 2.7-17.3 2.8-28.3h-35.8v-.9h72.2v.9h-33.9c0 10.9-1 20.3-2.9 28.3h34.1v.9h-30.8c1.8 6.6 4.3 12.3 7.4 17.2 3.2 5 7.1 9.4 11.8 13.1 4.6 3.7 10.2 7.2 16.6 10.4l-1.5 2.6c-6.5-3.5-12-7.3-16.6-11.2-4.6-4-8.4-8.6-11.5-13.8s-5.4-11.2-7.1-18.2h-2.7c-.4 1.6-.8 3.1-1.3 4.5-2.9 9.1-7.3 16.6-13.1 22.5s-13.3 11.2-22.7 15.9l-.4-.6c8.9-4.7 16.1-10 21.6-15.8 5.6-6 9.7-13.3 12.4-22.3m-31.3 87.7-.5.6q3.15 3.3 6 7.8c1.9 3 3.3 6.1 4.3 9.2l2.2-1.6c-1.3-3-3.1-5.9-5.2-8.7s-4.3-5.2-6.8-7.3M98 372l2 1.5c1.2-2.6 2.8-5.1 4.9-7.6 2-2.4 3.9-4.4 5.8-6.1 2.6 4.3 5.9 7.5 9.9 9.7q6.15 3.3 14.4 3.3h42.4l.5-2.3h-43.3q-8.1 0-13.8-3c-3.6-1.9-6.7-4.7-9-8.3h.2v-33.9H98.5v.9h11.2v32.6c-2.1 1.7-4.2 3.7-6.2 6-2.2 2.4-4 4.8-5.5 7.2m78.4-48.8h-26v-17.7h20.5v-.9h-20.5V293h-2.5v11.6h-15c1.5-3.6 2.6-7.1 3.3-10.6l-2.4-.6c-.6 4.3-1.7 8.5-3.4 12.7-1.6 4.2-3.7 7.8-6.2 10.9l.6.5c2.9-3 5.3-6.6 7.2-10.9.2-.4.3-.7.5-1.1h15.3v17.7H121v.9h55.3v-.9zm-47.3 33.5v-20.2h40v20.2zm37.7-1v-18.3h-35.3v18.3zm-40 344.2h-17.7v-8.3h17.7zm-15.8-7.4v6.5h13.9v-6.5zm-1.1 46.3h56.7V752h-56.7zm54.2 12.3v-11.4h-51.8v11.4zm-65.9-54.2c2.3-1.9 4.4-4.2 6.2-6.9q1.2-1.8 2.1-3.6H137v10.9c0 2.7-.5 4.5-1.5 5.6-1 1-2.7 1.6-5.1 1.6h-7.7l.2.9h8.3c2.7 0 4.8-.6 6.1-1.9 1.3-1.2 2-3.3 2-6.2v-11.8h-32.4c.6-1.3 1.1-2.6 1.5-4l-2.2-.5q-1.05 4.35-3.3 8.4t-5.1 6.9zm77 10.3c-5.4-2.4-10.6-5.9-15.6-10.6-.5-.5-1.1-1-1.6-1.5-1.3 1.3-2.6 2.6-4.1 3.8-3.3 2.7-6.9 5-10.6 6.7l-.4-.8c5.1-2.5 9.7-6.1 13.9-10.8-3.5-3.6-6.3-7.3-8.4-11-1.6 2.8-3.4 5.2-5.5 7.2l-.6-.5c2.1-2.4 3.8-5.2 5.2-8.5s2.4-6.9 2.9-10.6l2.6.4c-.5 2.4-1.1 4.6-2 6.8h24.6v.9H168c-1.2 3.8-2.9 7.4-5.3 10.9q-1.65 2.4-3.6 4.5c.5.4.9.8 1.4 1.3 5 4.3 10.3 7.6 15.9 9.8zM149 682.1c2.3 3.6 5.2 7.2 8.9 10.6 3.6-4.3 6.1-9.1 7.6-14.2h-14.8c-.4 1-.9 2-1.4 3zm15.2 27.8h-52v.9h52zm-52 22.6h52v-.9h-52zm-.3-55.9h-11.8v.9h11.8v5h2.1v-5h14.5v5h2.2v-5h10.1v-.9h-10.1v-5.2h-2.2v5.2H114v-5.2h-2.1zM96.7 718h83v-.9h-83zm67.5 6.3h-52v.9h52zm8-230.2v-24.4h-21.4c-.5 4-1.4 7.9-2.4 11.6-2.2 7.4-5.5 14.2-10.2 20.5l-.7-.5c4.1-5.9 7.2-12.5 9.1-19.7s2.9-15.2 2.9-24v-35.8h25.1V494c0 2.4-.6 4.2-1.7 5.3q-1.8 1.8-5.1 1.8H160l-.2-.9h6.8c2 0 3.5-.5 4.4-1.5.7-.9 1.2-2.5 1.2-4.6m0-71.4h-20.6v21.9h20.6zm0 46.1v-23.3h-20.6v11.7c0 4-.2 7.9-.7 11.6zm-74.8 15.8v-.9h23v-11.9h-16.7v-30.7h16.7v-11.3H98.7v-.9h21.6v-10.7h2.4v10.7h21.5v.9h-21.5v11.3h16.6v30.7h-16.6v11.9h19.8v.9h-19.8v17.6h-2.4v-17.6zm39.6-42.5h-31v13.7h31zm-31 14.6v14.2h31v-14.2zm48 108.1c1.6-2.1 2.8-4.2 3.8-6.3l-2.6-.8c-.8 2.2-1.8 4.3-3 6.4q-1.8 3.15-3.9 5.4h-19.9c-1-2.2-2.3-4.3-3.7-6.2-1.5-2-3.2-3.8-4.9-5.3l-.5.6c2.6 2.7 4.7 6.3 6.4 10.9H98.3v.9h79.9v-.9h-28.5c1.5-1.3 2.9-2.9 4.3-4.7m-37 42.6v9.9c0 2.9.8 5.1 2.3 6.6s3.7 2.3 6.7 2.3h23.7c2.3 0 4.2-.5 5.8-1.6s2.6-2.6 3.1-4.7l2-7.8-.8-.5-1.7 6.9c-.4 1.8-1.3 3.1-2.6 4s-3 1.4-5 1.4h-23.7c-2.4 0-4.3-.6-5.5-1.8q-1.8-1.8-1.8-5.7v-9.1H117zm28.5 8.9c-3.2-4.8-6.8-8.7-10.8-11.8l-.5.6c3.4 3.2 6.4 7.4 9.1 12.4zm21.4-9.2-.7.5c2.1 2.8 4 5.7 5.7 8.8 1.7 3 3.1 6.1 4.1 9l2.4-1.2c-2.8-5.9-6.6-11.7-11.5-17.1m-3.6-6.2h-50.2v-22.3h50.2zm-2.4-11.6v-9.9h-45.2v9.9zm-45.3 1v9.8h45.2v-9.8zM103 615.9c-1.3 2.9-2.7 5.6-4.3 8.2l2.3 1.2c1.3-2.7 2.5-5.5 3.6-8.6 1-3.1 1.9-6.2 2.5-9.4l-.8-.1q-1.35 4.35-3.3 8.7m34-62.7h-30.7v.9h64v-.9h-30.8v-7.5H137zm74.8-323c-5.4 5.7-12.6 11-21.5 15.6l.7 1.6c9.5-4.6 17.2-9.9 23.2-16 6-6 10.5-13.6 13.6-22.7.4-1.3.8-2.7 1.2-4.1h1.9c1.8 6.8 4.1 12.8 7.1 17.9 3.1 5.3 6.9 9.9 11.4 14s10 7.9 16.5 11.5l2.6-4.5c-6.4-3-11.9-6.4-16.4-9.9q-6.9-5.4-11.7-12.6c-3.1-4.7-5.7-10.1-7.7-16.4H263V203h-33.7c1.9-7.8 2.9-17 3-27.5h33.5V174h-73v1.6h35.3c0 10.6-1 19.8-2.8 27.5h-29.8v1.6h29.4c-.3 1.2-.7 2.4-1 3.6-2.5 8.9-6.6 16.2-12.1 21.9m8.4 126.5V336h40.7v20.7zm36.7-1.5v-17.6H224v17.6zm-62.6 9.2c-2.2 2.3-4 4.8-5.4 7.3l3.2 2.6q1.95-4.05 4.8-7.8c1.8-2.3 3.5-4.3 5.3-6 2.7 4.1 6.1 7.3 10 9.4q6.15 3.3 14.4 3.3h41.9l.9-3.7H226c-5.2 0-9.7-.9-13.5-2.8-3.3-1.7-6.2-4.1-8.5-7.2h.2V325h-14.7v1.7h10.9v31.9c-2 1.6-4.1 3.5-6.1 5.8m73.6-41.7h-25.5v-16.8h20v-1.6h-20V293h-3.9v11.4h-13.7c1.5-3.4 2.6-6.8 3.2-10l-3.6-1.1c-.7 4.2-1.8 8.4-3.4 12.5s-3.7 7.8-6.2 11l1.3.9c3-3 5.6-6.7 7.7-10.9.1-.3.2-.5.4-.8h14.4v16.8h-26v1.6H268v-1.7zm-74.3-26.3-.9 1.1c2.1 2.3 4.1 5 6 8s3.4 6.2 4.6 9.4l3.4-2.9c-1.5-3-3.4-5.8-5.7-8.5-2.3-2.8-4.8-5.1-7.4-7.1m8.8 379.9h-11.2v1.4h11.2v4.8h3.5v-4.8h13.4v4.8h3.5v-4.8h9.5v-1.4h-9.5v-5h-3.5v5h-13.4v-5h-3.5zm.5 56.2H256v-1.2h-53.1zm-2.5 6h58.2v13.7h-58.2zm54 12.4v-11h-49.8v11zm-64.9-53.2c2.4-2 4.5-4.4 6.4-7.3.8-1.3 1.5-2.5 2.2-3.8h29V697c0 2.6-.5 4.4-1.4 5.4s-2.5 1.5-4.7 1.5h-7.1l.4 1.4h8.4c2.8 0 4.9-.6 6.2-1.9 1.3-1.2 2-3.3 2-6.1v-12h-32.1c.6-1.3 1-2.5 1.4-3.8l-3.5-.6c-.7 3-1.8 5.9-3.2 8.7q-2.1 4.05-4.8 7.2zm-1.5 20.5h83v-1.3h-83zm68 6h-53.1v1.2H256zm-37.9-24.1h-18.2v-8.5h18.2zm-15.4-7.4v6.2h12.5v-6.2zm63.5 14.7c-5.4-2.3-10.5-5.7-15.4-10.3l-1.4-1.4c-1.3 1.2-2.6 2.4-3.9 3.5-3.5 2.7-7.3 4.9-11.3 6.6l-.5-1.3c5.2-2.4 9.8-5.9 14-10.6-3.1-3.3-5.7-6.7-7.6-10.1-1.7 2.6-3.7 4.9-5.9 6.7l-.9-.9c2-2.4 3.7-5.2 5.2-8.6 1.4-3.4 2.4-6.9 2.8-10.6l4 .5q-.6 3.45-1.8 6.6h23.6v1.4h-6.7c-1.2 3.8-3 7.5-5.6 10.9-1.1 1.5-2.3 2.8-3.5 4.2.3.3.6.5.9.8 5.1 4 10.4 7.1 15.9 9.1zm-17-15.2c3.3-4.1 5.6-8.5 7-13.4h-13.3c-.5 1.1-1 2.1-1.6 3.1-.1.2-.3.5-.4.7 2.1 3.3 4.9 6.5 8.3 9.6m6.8 17.5h-53.1v1.3H256zm-45.2-224.8h-22.3v-1.6h22.3V472h-16.4v-31.1h16.4V430h-21v-1.6h21v-10.3h3.7v10.3h20.9v1.6h-20.9v10.9h16.4V472h-16.4v11.3h19.1v1.6h-19.1v17.4h-3.7zm16.3-42.5h-29v13h29zm-29 14.5v13.6h29v-13.6zm64.5 36.8V470h-19.8c-.6 4.2-1.4 8.2-2.6 12-2.3 7.3-5.9 14-10.7 20.3l-1.4-1.1c4.2-5.7 7.3-12.1 9.2-19.2s2.9-15 2.9-23.7v-36.7h26v72.5c0 2.4-.6 4.2-1.7 5.3q-1.65 1.8-5.1 1.8h-8.7l-.4-1.6h6.8c1.9 0 3.3-.5 4.2-1.4.9-1 1.3-2.5 1.3-4.5m0-70.5h-19v21.2h19zm0 45.2V446h-19v12c0 3.6-.2 7-.6 10.3h19.6zm-16.8 96.5c1.6-1.9 3-3.9 4.2-5.9l-4.3-1.3c-.7 2.1-1.7 4.2-2.9 6.2s-2.4 3.8-3.8 5.3h-18.7c-1-2.2-2.3-4.2-4-6.2s-3.5-3.7-5.3-5.2l-1.2.9c2.5 2.7 4.6 6.2 6.2 10.5h-26.7v1.5h80.3v-1.5h-28.3c1.6-1.2 3.1-2.7 4.5-4.3m-51.7 50.7c-1.4 3-3 5.8-4.7 8.4l3.6 1.9c1.4-2.9 2.6-5.9 3.7-9.2s1.9-6.6 2.6-10.1l-1.6-.2c-1 3.2-2.2 6.2-3.6 9.2m64-9.1-1.3.7c2.1 2.9 3.9 5.9 5.6 9.1 1.6 3.2 3 6.4 4 9.7l3.7-2.2c-2.8-6.1-6.8-11.9-12-17.3m-30.7-53.6h-30.2v1.6h64.6v-1.6h-30.2v-7.3h-4.2zm-1.4 51-1.2 1c3.5 3.4 6.5 7.6 9 12.7l3.6-1.9c-3.2-4.9-7-8.9-11.4-11.8m29.4-3.1h-51.8v-22.5h51.8zm-3.9-11.9v-9.2h-44v9.2zm-44 1.4v9.2h44v-9.2zm9.7 36.3h24.2c2.3 0 4.1-.5 5.6-1.6 1.5-1 2.5-2.6 3-4.7l2.1-8.4-1.5-.9-1.7 6.7q-.6 2.55-2.4 3.9c-1.2.9-2.8 1.3-4.7 1.3h-23.1c-2.4 0-4.1-.6-5.2-1.7-1.1-1.2-1.6-2.9-1.6-5.2v-9H208v10.4c0 2.9.8 5.2 2.3 6.8q2.4 2.4 6.9 2.4m908.3-396.8c-5.5 5.5-12.9 10.5-22.1 15l1.1 2.8c9-4.7 16.3-9.9 21.8-15.8 5.5-5.8 9.7-13.3 12.5-22.3.4-1.4.8-2.8 1.2-4.3h2.7c1.8 6.8 4.3 12.8 7.5 17.9 3.3 5.2 7.4 9.8 12.3 13.6s10.6 7.5 17.3 10.8l.4-.6c-6.4-3.4-11.8-7.1-16.3-11s-8.3-8.5-11.3-13.6c-2.9-4.9-5.1-10.6-6.7-17.1h28.9v-2.4h-34.2c1.6-7.6 2.5-16.5 2.5-26.7h34.4v-2.4H1106v2.4h36.2q0 15.45-2.7 26.7h-30.8v2.4h30.2c-.3 1.1-.6 2.2-1 3.3-2.7 8.7-6.8 15.8-12.4 21.3M1153 325v11.7h19.2V358h-39.4v-21.3h19.2V325h-27.6v-2.3h27.6v-16.3h-16.2c-1.6 4.5-3.7 8.3-6.1 11.4l-2.2-1.6c2.7-2.9 5-6.4 6.8-10.5 1.9-4.1 3.2-8.3 4-12.5l.8.2c-.5 3.5-1.4 7.1-2.6 10.8h15.5v-11.3h.9v11.3h21.3v2.2H1153v16.3h26.7v2.3zm-19.3 13.9v17h37.6v-17zm-25.4-43.3-1.6 2c2.5 1.6 4.8 3.3 6.8 5.2 2.1 1.9 4 3.9 5.8 6.2l.6-.5c-1.6-2.6-3.4-4.9-5.4-7-1.8-2.1-3.9-4.1-6.2-5.9m-1.2 68.9c-2.3 2.8-4 5.6-5.4 8.4l.6.3c1.4-2.3 3.2-4.6 5.5-7 2.1-2.2 4.1-4 6.1-5.5 2.5 3.8 5.7 6.7 9.7 8.7 4.2 2.1 9 3.1 14.6 3.1h43l.2-.9h-43.1c-5.5 0-10.2-1.2-14.2-3.6-4-2.3-7.2-5.8-9.6-10.4V334h-12.4v2.4h11.5v21.2c-2.1 1.9-4.3 4.2-6.5 6.9m3.1-45.6c2.3 1.7 4.5 3.6 6.5 5.7l.6-.5c-1.8-2.3-3.9-4.5-6.1-6.5s-4.7-3.8-7.4-5.5l-1.3 2c2.9 1.5 5.4 3.1 7.7 4.8m21.3 359h12.5v-1.7h-12.5v-4.8h-.9v11.2h.9zm-23.4 12.2c.6-1.1 1.1-2.1 1.6-3.2h31.9v9.8c0 2.6-.5 4.3-1.5 5.3s-2.6 1.5-4.9 1.5h-8l.5 1.7h7.5c2.5 0 4.3-.6 5.6-1.9 1.2-1.3 1.8-3.3 1.8-6.2v-11.9h-32.2c.5-1.3.9-2.5 1.2-3.8l-.8-.2c-.9 2.7-2.1 5.4-3.8 7.9s-3.6 4.6-5.7 6.2l1.6 1.6c1.8-1.8 3.6-4.1 5.2-6.8m10.8-7.6v-11.2h-.9v4.8h-14v1.7h14v4.7zm48.6 26.9H1116v1.6h51.4v-1.6zm-67.2 7.2v1.8h83v-1.8zm30.1-16.2H1113v-8.8h17.3v8.8zm-16.5-7.3v5.9h15.5v-5.9zm53.6 31.1H1116v1.6h51.4v-1.6zm12-17.3c-5.7-2.3-11.1-5.6-16.3-10.2-.7-.6-1.3-1.1-1.9-1.7-1.3 1.4-2.6 2.7-4 3.9-3.1 2.6-6.5 4.7-10 6.4l-.7-2c5-2.2 9.6-5.3 13.7-9.3-3.6-3.4-6.5-6.9-8.8-10.5-1.3 2.6-2.8 4.9-4.6 6.8l-1.5-1.6c2.4-2.3 4.4-5 6-8.2s2.8-6.7 3.4-10.4l.8.2c-.4 2.4-.9 4.7-1.6 6.9h25v1.9h-8.1c-1.2 3.7-2.9 7.2-5.2 10.5-1 1.5-2.1 2.8-3.2 4.2.6.6 1.3 1.2 1.9 1.8 5 4.6 10.2 8 15.6 10.4zm-18.2-14c4-4.2 6.9-8.7 8.6-13.7h-16.6c-.3.8-.6 1.5-.9 2.2 2.3 3.9 5.3 7.8 8.9 11.5m-47.6 45.9h56.2v13.5h-56.2zm55.3 11.7v-10h-54.4v10zm-53-17.4h51.4v-1.6H1116zm55-281.3.6-.5c-3.1-4.6-6.8-8.5-11-12l-1.2 1.9c4.4 3 8.3 6.6 11.6 10.6m-46.3 33.3h-23.5v-2.2h23.5V472h-16.9v-31.6h16.9v-10.3h-22.2V428h22.2v-9.9h.9v9.9h22.3v2.2h-22.3v10.3h16.9v31.6h-16.9V483h20.3v2.2h-20.3v17.2h-.9zm-16-28V470h32.8v-12.9zm32.9-2.1v-12.4h-32.8V455zm29.1 46.4c2.3 0 4-.6 5.1-1.9 1.2-1.2 1.7-3.1 1.7-5.5v-72.6h-24.1v36.1c0 8.5-1 16.3-3.1 23.4s-5.3 13.5-9.6 19.1l2.2 1.8c4-6.1 6.8-12.8 8.7-19.9q2.7-10.65 2.7-23.4v-35h22.3v69.1c0 2.2-.5 3.8-1.4 4.7-.9 1-2.4 1.5-4.4 1.5h-7.8l.6 2.5h7.1zm.3-25.5.6-.5c-3.1-4.6-6.8-8.5-11-12l-1.2 2c4.4 3 8.3 6.5 11.6 10.5m-48 147.9c1.4 1.5 3.5 2.2 6.2 2.2h24.6q3.45 0 5.7-1.5c1.5-1 2.5-2.6 3-4.7l1.7-6.6-2.2-1.3-1.9 7.7q-.75 2.85-2.7 4.2c-1.3.9-3.1 1.3-5.2 1.3h-23q-7.5 0-7.5-7.8v-7.6h-.9v7.7c.1 2.8.8 5 2.2 6.4m58.8 1.1q-3.45-8.7-9.3-15.9l-2.1 1.2c2.2 2.3 4.2 4.7 6 7.3s3.3 5.1 4.6 7.7zm-45.1-16.9c3.8 2.8 7 6.3 9.8 10.5l.6-.5c-2.4-4.4-5.2-8.1-8.4-11.3zm29.8-4.1H1117v-22.7h49.4v22.7zm-.9-12.3V583H1118v8.7h47.6zm-47.6 1.8v8.7h47.6v-8.7zm-7.2 16.5-2.5-.5c-.7 2.9-1.6 5.5-2.6 8.1-1 2.5-2.1 4.9-3.4 7.3l.6.5c1.6-2.4 3.1-4.8 4.4-7.3 1.5-2.7 2.6-5.3 3.5-8.1m43.5-38.6h27.1v2H1102v-2h28.5c-1.9-4.2-4.5-8-7.7-11.2h-14.6v-1.9h67v1.9h-14.8c-1.6 4-3.6 7.7-6.1 11.2m-22.7 0h20.1c3-3.3 5.5-7 7.6-11.2h-33.7c1.2 1.6 2.3 3.3 3.2 5.1 1.1 2 2 4 2.8 6.1m-12.2-21h44.7v-1.8h-44.7zm-86.1-322.5c-5.7 5.2-13.1 9.8-22.4 13.8l2.6 6.7c9.1-4.6 16.4-9.8 22.1-15.8s9.9-13.5 12.9-22.6c.3-1 .6-2.1.9-3.1h1.3c1.9 6.4 4.6 12.1 8 17 3.6 5.1 7.8 9.7 12.8 13.6 5 4 10.9 7.6 17.7 11l1.3-2.3c-6-3.3-11.1-7-15.5-10.9s-8-8.3-10.9-13.3c-2.6-4.6-4.7-9.7-6.3-15.2h26.3v-5.2h-33.4c1.4-6.9 2.1-14.8 2.2-23.6h34v-5.4h-72.2v5.4h35.7c-.1 9-.9 16.9-2.5 23.6h-30.5v5.2h29.1l-.3.9c-3 8.3-7.3 15-12.9 20.2m-15.9 139.7c1.8-1.8 3.6-3.3 5.4-4.6 2.8 3.1 6 5.5 9.8 7.2 4.2 1.8 9 2.7 14.6 2.7h42.5l.5-2.3h-42.9c-5.4 0-10-1.2-13.9-3.7-3.7-2.3-6.7-5.7-9.2-10.2v-23.1h-13.5v5.2h11.1v17.2c-2.2 2.1-4.3 4.6-6.5 7.5q-3.45 4.65-5.7 9.6l1.8 1.3c1.8-2.4 3.8-4.7 6-6.8m1.7-47c2.6 1.7 4.8 3.6 6.8 5.6l1.4-1.7q-2.4-3.6-6-6.9c-2.3-2.2-4.9-4.2-7.5-6l-3 4.5c2.9 1.3 5.7 2.8 8.3 4.5m9.4-10.5 1.3-1.6q-2.4-4.05-5.4-7.5c-2-2.3-4.2-4.5-6.6-6.5l-3.4 4.6c2.8 1.5 5.4 3.1 7.7 4.9 2.4 1.8 4.5 3.9 6.4 6.1m34.2 16.5v9.6h18.8v23.5h-40V336h18.8v-9.6h-26.8v-4.9h26.8v-13.3H1045c-1.5 4-3.2 7.4-5.3 10.3l-4.9-3.3c2.8-2.9 5.2-6.4 7.3-10.3q3.15-6 4.5-12l2.2.5c-.4 3.2-1.1 6.6-2.2 10h13.6v-10.7h2.5v10.7h20.5v4.7h-20.5v13.3h26v4.9h-26zm-18.9 14.3v14h35.3v-14zm44.7 366.4c-5.8-2.1-11.4-5.2-16.6-9.4-.6-.5-1.2-.9-1.7-1.4q-1.65 1.65-3.6 3c-3.3 2.5-6.9 4.5-10.8 6.1l-1.6-4.3c5-1.6 9.5-4 13.4-7.1q-4.35-4.05-7.5-8.4c-1.2 2.1-2.6 4-4.1 5.8l-2.9-3.5c2.6-2.1 4.7-4.8 6.5-7.9s3-6.5 3.6-10.1l2.3.4c-.4 2.1-.8 4.1-1.4 6.1h23.9v3.9h-7.3c-1.2 3.6-3 7.1-5.3 10.3-.9 1.2-1.8 2.3-2.8 3.4.4.4.9.8 1.3 1.2 4.8 4.3 10 7.6 15.6 10zm-18.2-15.4c3.7-3.4 6.4-7.3 8.1-11.5h-15.7c-.1.4-.3.7-.4 1.1 2.1 3.7 4.8 7.1 8 10.4m-41.8-9.3V671h-2.1v4.2h-14v3.4h14v3.9zm12.2-3.9h12.4v-3.4h-12.4V671h-2.1v11.5h2.1zm36.3 29.8h-52.9v3h52.9zm-55.5 30h58v14.5h-58zm55.6 10.8v-7.8H1024v7.8zm-53-15.3h52.9v-2.7h-52.9zm52.9-10.1h-52.9v2.7h52.9zm-68-4.5h83v-3.5h-83zm8.7-28.3c.5-1 .9-2 1.3-3h30.3v8.1c0 2.1-.4 3.5-1.2 4.4s-2.2 1.3-4.1 1.3h-7.1l1 3.3h6.6c2.4 0 4.2-.6 5.3-1.8s1.8-3.2 1.8-5.8v-12.6h-31.5c.3-1.1.6-2.2.8-3.3l-2-.5c-.9 2.8-2.2 5.5-4 8-1.7 2.5-3.6 4.6-5.6 6.3l3.5 3.3c1.8-2.2 3.5-4.7 4.9-7.7m21.4 10.6H1021v-9.8h18.1zm-16.1-7.2v4.7h14.2v-4.7zm56.9-192.6c2.2 0 3.9-.7 5.1-2s1.8-3.2 1.8-5.6v-73.8h-25.1v38c0 8.1-1.1 15.5-3.2 22.1-2.1 6.7-5.5 12.6-10 17.7l4.7 4.3c3.6-5.7 6.3-12 8.1-18.8 1.7-6.8 2.6-14.3 2.6-22.5v-36h20.6v65.5c0 1.9-.4 3.4-1.2 4.2-.8.9-2.1 1.3-3.9 1.3h-8.6l1.5 5.5h7.6zm-47.3-15.5h-23v-4.8h23v-8.8H1016v-33.4h16.7V431H1011v-4.7h21.6V418h2.4v8.3h21.5v4.7H1035v8.4h16.6v33.4H1035v8.8h19.4v4.8H1035v16.2h-2.4zm-14.3-28.3v10.2h30.9V458zm31-4.4v-9.9h-30.9v9.9zm30.2 22.5 1.3-1.8c-2.9-4.7-6.5-8.7-10.8-12.1l-2.3 4.3c4.6 2.6 8.6 5.8 11.8 9.6m0-23.2 1.3-1.8c-2.9-4.7-6.4-8.7-10.8-12l-2.3 4.1c4.6 2.7 8.6 5.9 11.8 9.7m-51.7 98.3h45.4v-3.6h-45.4zm48.7 53.7h-52v-24.3h52zm-2.4-13.9v-6.8H1027v6.8zm-47.1 3.3v6.8h47.1v-6.8zm-17 30.9 2.1.9c2-2.5 3.8-5.1 5.5-7.9 1.6-2.8 3-5.6 4.1-8.5l-5.4-1c-.7 3-1.6 5.9-2.6 8.6-1.1 2.8-2.3 5.4-3.7 7.9m28.1 1.1h25.9c2.3 0 4.1-.5 5.4-1.4s2.2-2.4 2.8-4.5l1.7-6.3-4.9-2.7-2 7.8q-.75 2.7-2.4 3.9c-1.65 1.2-2.7 1.3-4.6 1.3h-21.3c-4.4 0-6.7-2.4-6.7-7.1v-7.6h-2.3v8.2q0 4.05 2.1 6.3 2.1 2.1 6.3 2.1m16.4-6.8 2-1c-2.3-4.7-5-8.7-8.3-12l-4.9 2.4c4.5 2.9 8.3 6.4 11.2 10.6m10.3-49.1h25.7v4.3h-79.9v-4.3h28.2q-2.85-5.1-8.1-9h-13.9v-4h67.7v4h-14.6q-2.1 4.8-5.1 9m-23.5 0h17.8c3.1-2.5 5.7-5.5 7.9-9h-30.7c1 1.2 1.8 2.5 2.6 3.9 1 1.6 1.7 3.3 2.4 5.1m50.3 54.3c-2.2-6.2-5.2-11.9-8.9-17l-4.8 2.5c2.4 2.3 4.5 4.8 6.5 7.4s3.7 5.4 5.2 8.2zM941.1 225.8c-5.7 5-13.2 9.3-22.7 12.9l4.2 10.2c8.9-4.4 16.2-9.7 22-15.9 5.8-6.1 10.2-13.8 13.1-22.9.2-.6.3-1.1.5-1.7 2.2 5.8 4.9 11.1 8.3 15.8q5.4 7.65 13.2 13.8c5.2 4.1 11.3 7.8 18.3 11.2l2.2-3.9c-5.7-3.2-10.7-6.8-14.9-10.7s-7.7-8.2-10.5-13c-2.4-4-4.2-8.4-5.7-13.2h23.8v-8h-32.8c1.2-6.2 1.8-13 1.9-20.6h33.6v-8.3h-73v8.3H958c-.2 7.8-.9 14.7-2.3 20.6h-30.1v8h27.6c-2.8 7-6.8 12.8-12.1 17.4m31.2 102v7.5h18.4v25.5H950v-25.5h18.3v-7.5h-26.1v-7.5h26.1V310h-14.1c-1.2 3.4-2.6 6.4-4.2 9.1l-7.8-5c2.9-2.7 5.4-6 7.5-9.8 2.2-3.8 3.8-7.7 5-11.7l3.3.8c-.3 3-.8 6-1.6 9.1h11.9v-9.9h3.9v9.9h20v7.4h-20v10.3h25.5v7.5h-25.4zm-18.5 14.7v11.1h32.9v-11.1zm-30-31.6-4.8 6.8c3.2 1.2 6.1 2.7 8.8 4.3 2.7 1.7 5.1 3.5 7.1 5.3l2.2-2.8c-1.7-2.6-3.7-5-6-7.4-2.2-2.3-4.7-4.4-7.3-6.2m15.5-2.9c-1.5-2.6-3.2-5.1-5.3-7.7s-4.3-4.8-6.6-6.8l-5.1 6.8c2.9 1.4 5.7 3 8.3 4.7 2.6 1.8 4.8 3.7 6.7 5.7zm-12.2 60.6c1.7-1.5 3.3-2.7 4.9-3.8 2.7 2.5 5.8 4.5 9.2 5.9 4.2 1.7 9.2 2.6 14.9 2.6h42.2l.9-3.7h-42.9c-5.1 0-9.6-1.3-13.4-3.8-3.5-2.3-6.4-5.7-8.9-10.2v-22.4h-14.5v8h10.8v13.5c-2.1 2.2-4.2 4.8-6.4 7.9-2.4 3.4-4.3 6.9-5.9 10.4l3.1 2.4c1.7-2.6 3.7-4.8 6-6.8m19.7 302.3v11.7h3.3v-3.1h12v-5.2h-12v-3.4zm-14.6 40.9h54.2v-4.4h-54.2zm5.6-29.3v-11.7h-3.4v3.4H921v5.2h13.4v3.1zm-14.9 17.2-5.5-4.7c2.1-1.7 4-3.8 5.7-6.2s3.1-4.9 4.1-7.5l2.9.4-.6 2.7h31v12.9c0 2.7-.6 4.7-1.7 5.9-1.2 1.3-2.9 1.9-5.2 1.9H948l-.7-2.4h-17.9V692h18.5v8.1h4.7c1.6 0 2.7-.3 3.3-1s1-1.9 1-3.6v-6.4h-28.8l-.9 2.4c-1.2 3.3-2.7 6-4.3 8.2m22.2-4.1h-12.9v3.6h12.9zm39.8-4.3c-.7.9-1.5 1.8-2.3 2.7.3.2.5.5.8.7 4.7 4 9.8 7.1 15.4 9.4l-1.5 3c-5.9-1.9-11.5-4.7-16.8-8.5-.5-.4-1.1-.8-1.6-1.2-1 .8-2 1.6-3.1 2.4-3.5 2.4-7.2 4.3-11.2 5.7l-2.5-6.5c4.6-1.2 8.8-2.9 12.5-5.2-2.2-2-4.2-4.1-5.9-6.2q-1.65 2.55-3.6 4.8l-4.2-5.3c2.7-2.1 5-4.7 6.8-7.8 1.9-3 3.2-6.3 3.9-9.7l3.4.4c-.3 1.9-.7 3.7-1.2 5.5h22.9v5.8h-6.5c-1 3.7-2.9 7-5.3 10m1.9-9.8h-14.6c1.9 3.3 4.3 6.4 7.1 9.3q4.95-4.2 7.5-9.3m-54.6 53.2h54.2v-4.1h-54.2zm-2.8 3.2h59.8v15.6h-59.8zM985 748v-5.5h-51.4v5.5zm1.4-24.6h-54.2v4.1h54.2zm-68.6-3.2h83V715h-83zM990 451.1c-2.8-4.9-6.3-9-10.5-12.4l-3.6 6.5c4.7 2.3 8.7 5.2 12.1 8.8zm-2 25.2 1.9-2.7c-2.7-4.9-6.2-9.1-10.5-12.5l-3.6 6.5c4.9 2.2 8.9 5.1 12.2 8.7m-47.4 3.7v-6.8h-16.4v-35.1h16.4v-6.6h-21v-7.1h21v-6.8h3.7v6.8h20.9v7.1h-20.9v6.6h16.4v35.1h-16.4v6.8H963v7.5h-18.6v15.2h-3.7v-15.2h-22.3V480zm-12.7-21.2v7.7h29v-7.7zm29-6.6v-7.5h-29v7.5zm37.2 47.9c1.2-1.5 1.9-3.5 1.9-6.1v-74.5h-26v39.8c0 7.7-1.1 14.7-3.3 20.9q-3.3 9.3-10.5 16.5l7.3 6.5c3.5-5.2 6-11.2 7.6-17.8s2.4-13.9 2.4-21.8V427h19v61.8c0 1.7-.4 2.9-1.1 3.7s-1.9 1.2-3.5 1.2h-9.3l2.4 8.7h7.9c2.2 0 4-.8 5.2-2.3m-66.4 118.5c1.9-2.9 3.4-5.9 4.6-8.8l-8.3-1.6c-.7 3.1-1.5 6.1-2.5 9s-2.2 5.7-3.6 8.3l3.5 1.4c2.3-2.6 4.5-5.4 6.3-8.3m8.5-66.5h46.2v-5.3h-46.2zm49.2 58.3c2.4 2.2 4.7 4.7 6.8 7.4 2.1 2.8 4 5.5 5.7 8.3l3.4-1.6c-2.1-6.6-4.8-12.5-8.2-17.8zm-11.5 8.3c-.5 1.6-1.2 2.8-2.2 3.6s-2.3 1.1-4 1.1h-19.4c-4.1 0-6.1-2.2-6.1-6.7v-7.5h-3.7v8.8c0 2.7.7 4.8 2.2 6.3s3.6 2.2 6.3 2.2h27c2.3 0 4-.5 5.2-1.4s2.2-2.4 2.8-4.4l1.5-5.7-7.6-4.3zm-8.1.1c-2-4.8-4.5-8.9-7.6-12.4l-7.8 3.5c4.9 2.8 8.8 6.2 12 10.2zm33.6-43h-80.3v-6.4h27.5c-1.8-2.6-4.4-4.9-7.5-6.9H925v-6h68.4v6H979q-1.5 3.75-3.6 6.9h23.9v6.4zm-48.7-6.3H967c2.9-1.9 5.4-4.2 7.7-6.9h-27.3c.6.9 1.1 1.7 1.6 2.7.8 1.2 1.3 2.7 1.7 4.2m35.6 36.4h-54v-25.7h54zm-3.9-15.3v-5h-46.2v5zm-46.2 4.9v5h46.2v-5zM848.8 223c-5.7 4.5-13.3 8.4-22.8 11.5l6.6 15.3q13.2-6.75 21.9-16.2c5.2-5.7 9.3-12.7 12.3-20.9 2 4.4 4.4 8.4 7.2 12.1 3.8 5 8.4 9.6 13.9 13.7s12 7.8 19.4 11.2l2.9-5.8c-5.4-3.1-10.1-6.6-14.2-10.5-4-3.9-7.4-8.1-10-12.7-1.8-3.2-3.3-6.5-4.4-10h20.6v-12.3h-31.8c.8-4.9 1.4-10.3 1.6-16h33v-12.8h-73.9v12.8h34.3c-.3 5.9-.9 11.3-2 16h-29.6v12.3h25c-2.5 4.9-5.9 9-10 12.3m18.8 70.8q-.15 3.75-.9 7.8h9.4v-9h6.1v9h19v11.2h-19v5.8h24.4V330h-24.4v4.4H900v28.4h-41.6v-28.4h17.7V330h-25v-11.4h8.5l-9.9-5.7c2.9-2.6 5.4-5.6 7.6-9q3.3-5.25 5.1-11.1zm-3.1 51.4v6.6H894v-6.6zm11.7-32.4h-11.9c-.6 2.1-1.2 4-1.9 5.8h13.8zm-39.8 11.5c2.9 1.4 5.5 2.9 7.8 4.7l3.1-4.3c-1.6-2.7-3.5-5.3-5.8-7.8-2.3-2.6-4.6-4.8-7-6.7l-7.3 10.4c3.2 1 6.3 2.3 9.2 3.7m-5.3 51.9c1.9-2.3 4-4.4 6.2-6.2 1.3-1.1 2.6-2 3.9-2.8 2.4 1.8 5 3.2 7.7 4.2 4.2 1.6 9.2 2.4 14.8 2.4h42.8l1.4-5.7H865c-4.8 0-9-1.3-12.6-4-3.2-2.4-6-5.8-8.3-10.3v-21.3H828v12.3h10.3v7.9c-2 2.3-4.1 5.1-6.2 8.3-2.4 3.7-4.5 7.5-6.2 11.5zm14.9-64.3 3.1-4.3c-1.4-2.7-3.1-5.4-5.2-8.1s-4.3-5.1-6.5-7.1l-7.6 10.3c3.1 1.2 6.1 2.6 8.8 4.2 2.8 1.5 5.3 3.2 7.4 5m-11.9 388.6-8.6-6.5q2.85-2.4 5.4-5.7c1.6-2.2 3-4.4 4-6.8l4.6.5c-.1.6-.2 1.3-.3 1.9h30.6v1c2.4-1.7 4.5-3.7 6.2-6.2 2-2.8 3.4-5.9 4.2-9.1l5 .5c-.2 1.5-.5 3-.8 4.4H906v8.8h-5.8c-1.3 3.2-3.1 6.2-5.5 9-.4.5-.9 1-1.4 1.5 4.4 3.7 9.3 6.6 14.8 8.8l-1.9 4.4q-9.3-2.4-17.4-7.5c-.4-.3-.8-.5-1.2-.8-.7.5-1.5 1-2.2 1.5-3.6 2.3-7.5 4-11.6 5.3l-3.8-9.9c3.8-.6 7.2-1.4 10.3-2.5q-1.5-1.35-2.7-2.7c-.8 1.1-1.6 2.2-2.5 3.3l-5.2-6.7v10.2c0 2.7-.6 4.7-1.8 5.9-1.2 1.3-2.9 1.9-5.2 1.9h-3.6l-2.3-7.4h4.3q1.5 0 2.1-.6t.6-2.1v-4h-26.4c-.1.3-.2.7-.2 1 0 .1-.1.2-.1.4h19.3v12.2h-19.4v-11.9c-.8 3-1.9 5.6-3.1 7.9m18.3-1.2v-1.8h-10.8v1.8zm42.3-16h-10.6c1.3 2.1 2.9 4 4.5 5.8 2.6-1.7 4.6-3.7 6.1-5.8m1.3 39.6h-55.8v5.9H896zm0-17h-55.8v6.5H896zm-69.4 15.6h83v-7.8h-83zm69.4 14.6v-5.9h-55.8v5.9zm-58.8 1.3h61.7v16.9h-61.7zm55.2 8.7v-1.8h-48.7v1.8zm-37.8-75.6v12h5.1v-2h11.5v-7.7h-11.5v-2.4h-5.1zm-7.1 12v-12h-5.1v2.4h-13v7.7h13v2h5.1zm48.8-206 2.8-4c-2.5-5-5.7-9.2-9.6-12.7l-5.6 9.9c4.8 1.5 8.9 3.8 12.4 6.8m-48.2 12.7h-21.4v-11.4h21.4v-3.6H832v-37.9h16.1v-3.6H828v-10.9h20.1v-4.4h5.9v4.4h19.8v10.9H854v3.6h16.1v37.9H854v3.6h17.6v7.6c1.2-1.9 2.2-3.9 3.1-6.1 2.2-5.6 3.3-12 3.3-19v-42.1h27.4v75.1c0 3-.7 5.4-2.2 7.2s-3.5 2.6-6 2.6h-7.3l-3.6-13.2h9.6c1.4 0 2.4-.3 3.1-1 .6-.7 1-1.8 1-3.3v-55.9h-16.5v36.6c0 7.6-.7 14.6-2.1 20.9-1.4 6.4-3.5 12-6.2 16.8l-10.9-9.9c1.8-1.5 3.3-3.1 4.8-4.8H854v13.9h-5.9zM838 460.1v3.6h26.2v-3.6zm26.1-10.1v-3.6H838v3.6zm35.1 1q-3.75-7.5-9.6-12.6l-5.6 9.9c4.6 1.5 8.7 3.8 12.3 6.8zm-6.3 159.9c2.5 2.2 4.8 4.6 7 7.3s4.1 5.5 5.8 8.4l5.3-2q-2.4-10.05-6.6-18.9zm15.7-33.2h-81v-9.8h25.6q-2.1-2.1-5.1-3.6h-14.6v-8.9h69.3v8.9h-14.1c-.3 1.3-.7 2.5-1.1 3.6h21zm-48.4-9.8h15.4c1.9-1 3.6-2.3 5.3-3.6h-21.5c.1.3.2.6.2.9.3.8.5 1.8.6 2.7m-15.7-14.4h47.1v-7.9h-47.1zm44.8 72.2q1.95-1.35 3-4.5l1.2-4.5-11.6-6.5-2.1 7.8c-.4 1.5-1 2.6-1.8 3.2s-1.8 1-3.2 1H858c-3.5 0-5.3-1.9-5.3-5.8v-6.9H847v9.2c0 2.7.8 4.7 2.3 6.2 1.6 1.5 3.7 2.2 6.5 2.2h27.4c2.7-.1 4.8-.5 6.1-1.4m-51.1-6.7c2.1-3 3.7-5.9 4.9-8.8l-12.8-2.5c-.4 3.2-1 6.3-1.8 9.4s-1.7 6-2.8 8.9l5.7 1.4c2.5-2.7 4.8-5.4 6.8-8.4m58.1-11.5h-26.1c2 3.4 3.6 7.3 4.7 11.5l-5.7 1.5c-3-3.6-6.9-6.6-11.8-9.1l10.1-3.8h-27.9v-27.9h56.6v27.8zm-6.1-17.6v-2.3h-44.3v2.3zm-44.3 7.1v2.3h44.3V597zm-90.6-373.5c-5.2 5-12.1 9.5-20.9 13.5l6.8 13c9.7-4.7 17.8-10.4 24.1-17 4.9-5.1 8.8-11.1 11.9-18.1 1.3 3.1 2.8 5.9 4.3 8.6 3.1 5.2 7.1 10 12.1 14.3s11.3 8.4 18.9 12.2l6.8-13c-5.8-2.6-10.9-5.4-15.2-8.7-4.3-3.2-7.9-6.9-10.9-10.9-1.5-2.1-2.8-4.3-3.9-6.7h23.4v-12.3h-30.3c1-4.9 1.7-10.2 2-16h31v-12.8h-77v12.8h32.3c-.4 6-1.1 11.3-2.1 16h-27.4v12.3h23.2c-2.5 5-5.5 9.3-9.1 12.8m-5.2 146.7c.6-.8 1.1-1.5 1.7-2.1 1.7 1.6 3.4 2.9 5.3 4 4 2.3 8.7 3.4 14.1 3.4h43.1l2.7-12h-44.2c-3.8 0-7.1-.7-10-2.2-2.1-1-3.9-2.5-5.5-4.3v-23.4h-21.6v12.3h9.3v9.4c-1.7 1.6-3.4 3.4-5 5.4-2.3 2.7-4.3 5.5-6 8.3l11.5 8.5c1.3-2.6 2.8-5 4.6-7.3m44.9-40.7v3.1h15.9V360h-44.5v-27.5h15.9v-3.1h-21.4V318h7.9l-9.2-4c1.8-2.8 3.3-5.9 4.6-9.2 1.2-3.3 2.2-6.9 2.9-10.8l11.5 2.3c-.2 1.7-.5 3.4-.9 5.2h4.7v-9H795v9h16v11.2h-16v5.3h21.4v11.4H795zm-15.9 13.7v5.8h19v-5.8zm3.1-25.1v-5.3h-7.9c-.7 1.9-1.5 3.7-2.3 5.3zm-29.4-20.6c-2.6-1.9-5.2-3.5-7.7-4.9l-7.2 9.8c2.8 1.4 5.5 3 8 4.8s4.9 3.7 7 5.7l6.8-9.6c-2-2-4.3-3.9-6.9-5.8m-10 12.4-7.2 9.8c2.9 1.5 5.6 3.3 8.2 5.2s5 4 7.1 6.2l6.9-9.6c-2.1-2.2-4.4-4.3-7.1-6.4-2.6-2-5.3-3.8-7.9-5.2M806 736.1v-5.9h-58.4v5.9zm0-30.2h-58.4v6.5H806zm-44.7-35.4v12h10.5v-2h9.1v-7.7h-9.1v-2.4h-10.5zm44.7 52.4h-58.4v5.9H806zm-63.1-24.2-8.8-4.4c1.3-2.1 2.4-4.3 3.3-6.4.9-2.2 1.5-4.3 2-6.4l8.2.6v-1.5h-10.5v-7.7h10.5v-2.4h10.5v12h-8.7c-.1.5-.2.9-.3 1.4h30.7v.7c1.5-1.5 2.8-3.3 3.9-5.6 1.4-2.8 2.3-5.7 2.8-8.8l11.2.8c-.2 1.2-.5 2.3-.9 3.5h19v8.8h-4c-1.2 2.9-3 5.8-5.5 8.5l-.7.7c3.5 1.9 7.3 3.5 11.4 4.7l-4.4 9.9c-5.6-1.6-10.8-4.2-15.6-7.7-.4.3-.9.6-1.3.8-4.2 2.4-8.6 4.2-13.2 5.3l-2.8-7.2c-.3 2.1-1 3.7-2.2 4.7-1.5 1.3-3.8 2-6.9 2h-3.3l-1.8-5.9v5.5h-20.9V696c-.6.8-1.1 1.8-1.7 2.7m57.2-15.4h-5.5c.8 1.2 1.8 2.3 2.9 3.4 1-1.1 1.9-2.2 2.6-3.4m-20.3 3.8v8.4c3.4-.7 6.6-1.8 9.5-3.1-.6-.7-1.2-1.4-1.7-2.1q-1.5 1.65-3 3zm-26.6 12.2h3.6v-1.8h-3.6zm14.7-3.5v-4.9h-21c-.2.5-.4.9-.6 1.4h19.1v5.3h.8c.5 0 1-.1 1.2-.4.4-.3.5-.7.5-1.4m-32.6 25.7h83v-7.8h-83zm9.2 15.9h64.8v16.9h-64.8zm51 8.7v-1.8h-37.4v1.8zm-42.4-268.3v-3.6H738v-37.9h15.1v-3.6h-17.3v-10.9h17.3v-4.4h12.3v4.4h16.8v10.9h-16.8v3.6h15v37.9h-15v3.6h15.4v5.4c.4-1.1.8-2.1 1.1-3.2 1.7-5.6 2.5-12 2.5-19.2v-42.6H816v73.1c0 3.6-.9 6.5-2.8 8.7-1.9 2.1-4.5 3.2-7.8 3.2h-6.9l-3.6-13.2h6c1.3 0 2.3-.3 2.9-1s.9-1.7.9-3.1V473l-3.1 4.5c-2.1-2.4-4.3-4.5-6.5-6.2-.5 5-1.3 9.8-2.6 14.2-2 6.9-5.1 13.1-9.4 18.4l-9.9-8.8c1.7-1.8 3.2-3.8 4.5-5.8h-12.3v13.9h-12.3v-13.9h-18.7v-11.4h18.7zm51.6-48.2h-9.2v14.2l3.3-5.1c2.1 1.3 4 2.9 5.9 4.7zm0 35.7v-14.2l-3.1 4.5c-2-2.3-4.1-4.2-6.1-5.8v16l3.3-5.1c2 1.2 4 2.8 5.9 4.6m-54.3-5.2v3.6h17.7v-3.6zm17.7-10.1v-3.6h-17.7v3.6zm38.6 156.5h-24c1.6 2.6 2.9 5.3 3.9 7.8l-12.7 3.2c-1.3-3.4-2.7-6.3-4.2-8.6l9.4-2.5H747v-27.1h59.7zm-12.8-17.1v-2.3h-34.1v2.3zm-34.1 6.9v2.3h34.1v-2.3zm58.5-19.2h-83v-9.6h21.6c-.3-1.3-.7-2.5-1.1-3.6h-15.2v-8.7H813v8.7h-13.8c-.5 1.3-.9 2.5-1.4 3.6h20.4v9.6zm-48.6-9.6h15.2q1.05-1.65 1.8-3.6h-18c0 .1 0 .1.1.2.4 1.2.7 2.3.9 3.4m-17.9-14H802v-7.9h-50.2zM737 616.2c-.8 2.9-1.6 5.7-2.6 8.4l12.9 3c.9-2.9 1.7-5.9 2.5-9.1q1.05-4.65 1.8-9.3l-12.6-2c-.6 3.1-1.2 6-2 9m64.9-5.8c1.3 2.6 2.6 5.4 3.7 8.3 1.2 2.9 2.1 5.8 2.9 8.7l11.7-4.3c-1.6-5-4.2-10.7-7.6-17.2zm-4.9 16.5c1.9-1 3.2-2.7 3.9-5.2l1.4-5-11.6-6.5-1.5 5.5c-.2 1-.6 1.8-1.2 2.2q-.75.6-2.4.6h-15.1c-3 0-4.6-1.6-4.6-4.7v-5.6H754v10.6c0 3 1 5.3 3 7s4.8 2.5 8.3 2.5h23.1c3.8.1 6.6-.4 8.6-1.4M643.4 242.6l3.1 5.8c10.4-4.6 19-10.2 25.9-16.7 6.4-6.1 11.4-13.5 14.9-22.2 1.6 4.7 3.4 9.1 5.6 13.1q4.2 7.95 10.8 14.7c4.3 4.5 9.7 8.7 16.1 12.7l8.4-14.3c-5.9-2.2-11.2-4.8-15.8-7.8s-8.7-6.5-12.1-10.4c-2.7-3.1-5-6.5-7-10.2h28.1v-5.9h-31.3c1.9-6.8 2.9-14.5 3.2-22.9h30.8v-6.1h-77v6.1h32.5c-.2 8.7-1.1 16.3-2.7 22.9h-27.1v5.9h25.4c-2.7 8.1-6.6 14.9-11.5 20.2-5.1 5.5-11.9 10.5-20.3 15.1m4.9 67.5-3.3 4.5c2.7 2.1 5.3 4.7 7.6 7.6q3.45 4.35 6 9l7.5-10.9q-3.45-3-8.1-5.7c-3.2-1.8-6.4-3.3-9.7-4.5m12.4-12.5c-2.9-1.6-6-2.9-9.4-4.1l-3.3 4.3c2.7 2.1 5.2 4.4 7.5 7.1 2.3 2.6 4.3 5.4 5.9 8.2l6.9-10.3c-2.2-1.9-4.7-3.6-7.6-5.2m-3 71.5q1.35-2.55 2.7-4.5c2.7 3.2 5.5 5.6 8.3 7.3 3.9 2.3 8.5 3.5 14 3.5h40.4l2.7-12.1H682c-4.2 0-7.8-.5-10.7-1.5q-2.7-.9-5.1-2.4V334h-21.6v5.9h9.3v18.4c-1.6 1.1-3.1 2.3-4.6 3.7-2.3 2.1-4.4 4.3-6.4 6.8l11.2 8.6c.9-2.8 2.1-5.5 3.6-8.3m46.1-43.1v7.5h15.9v23.3h-44.5v-23.3H691V326h-21.4v-5.6H691v-11.8h-9c-2.3 3.6-5.1 6.9-8.3 9.8l-5.3-2.4c1.9-3.4 3.5-7 4.7-10.9 1.2-3.8 2.1-7.8 2.6-12l11.9 3.4c-.6 2.2-1.5 4.4-2.6 6.7h6v-10.5h12.8v10.5h16v5.4h-16v11.8h21.4v5.6zm-15.9 12.6v12.9h19v-12.9zm27.3 352.3-1.8 1.8c4 1.8 8.2 3.2 12.8 4.3l-5.7 11c-5.1-1.9-9.9-4.9-14.2-9l-.2-.2c-.7.5-1.5 1-2.2 1.5-4.5 2.7-9.3 4.8-14.3 6.2l-1.7-4.3q7.65-2.85 13.5-8.7c-1.5-1.9-2.8-3.8-3.8-5.8-1.9 1.8-3.9 3.5-6.1 5l-2.6-3.5c1.6-2.3 2.9-5.1 4-8.5s1.7-6.8 2-10.1l12.5 1.1c-.4 1.5-.9 3-1.6 4.5h19v4.4h-3.2c-1.4 3.6-3.5 7-6.4 10.3m-14.4-6.8c1.2 1.5 2.8 2.9 4.7 4.2 1.5-2.4 2.7-5 3.4-7.7h-5.6c-.6.9-1.2 1.8-1.9 2.7-.2.3-.4.6-.6.8m-44.4 27.7h58.4v-3.4h-58.4zm13.7-40.8v11.5h10.5v-3.7h9.1V675h-9.1v-4zm-16.9 66.4H718V753h-64.8zm51.1 11.5v-8h-37.4v8zm-47.9-15.3h58.4v-3.1h-58.4zm-.1-51.8v-3h-10.5V675h10.5v-4h10.5v11.5h-8.5c-.2.7-.5 1.5-.8 2.2h31v12.5c0 2.9-.8 4.9-2.4 6.1q-2.4 1.8-7.2 1.8h-7.5l-1-3.3h-17.2v-9.2c-1.8 2.7-3.8 5.2-6 7.4l-4-2c1.2-2.7 2.2-5.5 3-8.5s1.3-6 1.6-8.9zm5.8 17.3h3.5v-4.6h-3.5zm-6.2-10.8c-.6 1.1-1.1 2.1-1.8 3.2-.1.1-.2.2-.2.4h20.4v9.5c.8-.1 1.4-.4 1.7-.9.5-.6.7-1.7.7-3.3v-8.8h-20.8zm-11.8 31.4h83v-3.9h-83zm70.7 3.8h-58.4v3.1h58.4zm-52.9-242.4v-8.3h-15.1V439h15.1v-7.9h-17.3v-5.4h17.3v-7.8h12.3v7.8H691v5.4h-16.8v7.9h15v33.8h-14.9v8.3h15.3v5.4l1.2-3.9c1.6-6.4 2.5-13.7 2.5-21.8v-40.6h31.6v73.1c0 2.7-.7 4.9-2.1 6.4-1.4 1.6-3.4 2.3-5.8 2.3h-10.9l-1.7-6.3h5.1c1.4 0 2.4-.4 3.1-1.1.6-.7 1-1.9 1-3.4v-20.1l-4.1 6.6c-1.4-3.9-3.2-7.3-5.5-10.3-.6 6-1.8 11.6-3.8 16.9-2.8 7.3-7.2 13.8-13.1 19.5l-4.5-3.9q4.65-6 7.2-13.2h-15.3v16h-12.4v-16h-18.7v-5.5h18.5zm42.3-40.9 1.1-1.6c3 1.1 5.7 2.5 8.1 4v-16.8h-9.2zm9.2 25.4v-17.3l-4.1 6.6c-1.3-3.7-3.1-7-5.1-9.9v15.1c0 1.1 0 2.1-.1 3.1l1.2-1.7c3 1.2 5.7 2.5 8.1 4.1M676.9 444h-17.7v9.2h17.7zm-17.7 14.1v9.6h17.7v-9.6zM702.7 615q-.6 1.95-1.5 2.7c-.6.5-1.6.8-3 .8h-18.9c-3 0-4.6-1.6-4.6-4.7v-6.6h-11.9v11c0 3.3.9 5.8 2.8 7.5s4.6 2.6 8.2 2.6h23.6c2.7 0 4.9-.5 6.4-1.5 1.6-1 2.6-2.6 3.2-4.7l2.2-8.7-5.6-3.2zm24.4-40.3h-83V570h22.7c-.4-3-1.1-5.9-2.1-8.5h-15.2v-4.3h72.4v4.3h-13.5c-2.1 3.2-4.5 6-7.4 8.5h26.2v4.7zm-47.7-4.8h13.9c1.1-2.6 1.9-5.5 2.5-8.5h-23.4c1 .9 1.9 1.9 2.9 2.9 1.5 1.8 2.9 3.7 4.1 5.6m-21.6 48.4c.6-3.7 1.1-7.4 1.4-11l-5.7-1c-1.5 3.3-3.1 6.5-4.9 9.4q-2.7 4.35-5.7 7.8l12.7 5.3c.8-3.3 1.5-6.8 2.2-10.5m58.4-11.7-4.9 2c1.3 3 2.4 6.1 3.3 9.4s1.6 6.6 2.2 10l12.3-5.9c-3.2-5.1-7.5-10.3-12.9-15.5m-55.7-55.1h50.2v-4h-50.2zm54.9 51.9h-59.7v-23.7h59.7zm-12.7-13.7v-6.1h-34.1v6.1zm-34.1 3.6v6.1h34.1v-6.1zm16.7 10.5-5.7 1.6c2.3 3.6 4.1 7.7 5.4 12.1l12.1-5c-3.4-3.5-7.3-6.4-11.8-8.7M574.4 228.7c-5.4 5.6-12.4 10.7-21 15.2l1.8 3.9c10-4.5 18.3-9.9 24.8-16.2s11.4-14.1 14.7-23.3c.3-.8.5-1.6.8-2.4h.1q2.7 9.3 6.9 16.8c3 5.2 6.7 10 11.2 14.3 4.4 4.3 9.8 8.4 16.1 12.1l5.7-9.5c-6-2.7-11.3-5.7-15.9-8.9-4.6-3.3-8.5-7.1-11.9-11.4-3-3.9-5.5-8.4-7.6-13.4h29v-3.8h-32.5c1.9-7.4 3-15.8 3.1-25.2h32.1V173h-75v3.9h33.9q-.15 14.4-2.7 25.2h-28.4v3.8H587c-.1.4-.2.9-.4 1.3-2.7 8.8-6.8 15.9-12.2 21.5m-18.1 82.2-2 2.8c2.8 2 5.4 4.3 7.7 6.9s4.3 5.4 5.9 8.2l5.1-7.2q-3.15-3.15-7.5-6c-2.9-1.7-5.9-3.3-9.2-4.7m12.3-11.8c-2.6-1.8-5.5-3.4-8.6-4.8l-2.1 2.8c2.6 1.9 5 4.2 7.3 6.7 2.2 2.5 4.2 5.1 5.9 7.8l4.6-6.8c-2.1-2-4.4-3.9-7.1-5.7m41.4 26.1v9.6h17V357h-42.6v-22.2h17.1v-9.6h-23.7v-3.6h23.7v-14.3h-11.6c0 .1-.1.2-.1.2-2.3 4-5.1 7.6-8.5 10.6l-3.3-1.8c2.3-3.3 4.1-6.9 5.7-10.9 1.5-4 2.6-8.1 3.3-12.4l7.8 2.4c-.7 2.8-1.8 5.7-3.1 8.5h9.9V293h8.4v10.9h17.9v3.5H610v14.3h23.4v3.6H610zm-17.2 13v15.3h25.9v-15.3zM564 368.1c1.4-2.1 2.7-3.9 4-5.5q4.5 5.55 9.6 8.4c3.9 2.2 8.7 3.3 14.3 3.3h40.7l1.8-7.9h-43.5c-4.7 0-8.7-.7-12.1-2.2-2.5-1.1-4.7-2.6-6.8-4.4V334h-18v3.8h10v20.7c-1.8 1.4-3.5 2.9-5.3 4.7-2.3 2.3-4.3 4.7-6.2 7.3l7.2 5.6c1.2-2.7 2.6-5.4 4.3-8m-2.2 323.1c.8-1.2 1.5-2.5 2.1-3.7h24.8v9.6c0 2.1-.3 3.5-1 4.4s-1.9 1.3-3.6 1.3h-5.2l.7 2.5h8.1q4.5 0 6.6-1.8c1.4-1.2 2.1-3.1 2.1-5.9V685H565c.4-1.1.9-2.1 1.2-3.2l-6.9-1.1c-.5 3-1.4 6-2.6 8.9-1.2 3-2.5 5.7-4.1 8.1l2.5 1.6c2.5-2.3 4.7-5 6.7-8.1m12.3-8.7v-11.4h-6.9v4.6h-11.9v2.6h11.9v4.3h6.9zM552.9 719h83v-2.6h-83zm13.5 14.1h56v-2.2h-56zm56-9.2h-56v2.2h56zM583 701h-19.6v-9.4H583zm-13.9-7.3v5.4h8.1v-5.4zm-5.6 44.2h61.7v14.7h-61.7zm8.9 12h44v-9.6h-44zm50-40.8h-56v2.4h56zm-3.3-15.5c4.7 3 9.8 5.2 15.3 6.8l-4.2 7.5c-5.2-2.1-10.1-5.2-14.7-9.5l-.8-.8c-1 .8-2.1 1.6-3.2 2.3-4.1 2.7-8.4 4.9-13 6.5l-1.1-2.8c5.2-2.1 9.8-5.3 13.8-9.5-2.2-2.6-4.1-5.2-5.6-7.9-1.8 2.2-3.8 4.2-6 5.9l-1.9-2.4c1.9-2.4 3.5-5.3 4.7-8.7s2.1-6.9 2.5-10.5l8.4.9c-.5 1.8-1.1 3.6-1.9 5.4h21.3v2.9h-4.8c-1.2 3.8-3.1 7.3-5.9 10.7-.9 1.1-1.9 2.2-2.9 3.2m-4.8-3.3c2.4-3.3 4.1-6.8 5.2-10.6H610c-.6 1-1.1 2-1.8 3-.2.3-.4.5-.6.8 1.7 2.4 3.9 4.6 6.7 6.8m-33.9-19.2v11.4h6.9v-4.3h10.5v-2.6h-10.5V671h-6.9zm50.1-171.5c1.2-1.3 1.9-3.2 1.9-5.6v-73.2h-28.8v38.8c0 8.4-.9 16-2.6 22.7-1.8 6.8-4.8 12.8-9 18.2l2.9 2.6c5.6-5.8 9.7-12.4 12.2-19.7s3.8-15.2 3.8-23.9v-35H625v68.2c0 1.7-.4 2.9-1.1 3.7-.8.8-1.9 1.2-3.5 1.2H614l1.1 4h10.3c2.1.1 3.8-.6 5.1-2m-6-53q-4.8-4.5-11.1-7.8l-1.7 2.6c3.5 3.5 6.3 7.5 8.5 12.2zm-4.4 30.5 4.4-7.1q-4.8-4.5-11.1-7.8l-1.7 2.7c3.4 3.5 6.3 7.6 8.4 12.2m-47 5.1v-9.8h-15.7V440h15.7v-9.4H554v-3.5h19.2V418h8.1v9.1H600v3.5h-18.8v9.4h15.6v32.5h-15.6v9.8h17.2v3.6h-17.2v16.7h-8.1v-16.7h-20.5v-3.6h20.5zm15.7-39h-23.4v11.1h23.4zm-23.3 14.3v11.6h23.4v-11.6zm26.4 147.1-3.4 1.3c3.1 3.6 5.7 7.7 7.7 12.2l7.8-3.6c-3.4-4.1-7.5-7.4-12.1-9.9m32.4 2.8-3.3 1.5c1.6 2.8 3 5.7 4.3 8.8s2.4 6.3 3.2 9.5l8.1-4.3c-3.1-5.5-7.2-10.6-12.3-15.5m-60.2 10.7c.9-3.4 1.7-6.8 2.2-10.3l-3.6-.7c-1.4 3.2-2.9 6.2-4.7 9-1.7 2.9-3.6 5.4-5.6 7.7l8.2 3.9c1.5-3 2.6-6.2 3.5-9.6m6.2-67.3h48.2v-2.6h-48.2zm42.2 65.8c-.4 1.5-1.1 2.6-2 3.3s-2.1 1-3.8 1h-21c-3.7 0-5.6-1.9-5.6-5.7V608h-7.8v10c0 3.1.8 5.5 2.5 7.1 1.6 1.6 4.1 2.4 7.4 2.4h24.4q3.6 0 5.7-1.5c1.4-1 2.4-2.5 3-4.6l2-8.6-3.6-2.1zm10-13.5h-56.2v-22.8h56.2zm-8.4-12.7V583h-39.4v7.5h39.4zm-39.4 2.5v7.5h39.4v-7.5zm60.5-19.1h-81.7v-3.1h25c-.9-3.7-2.4-7.1-4.4-10.1h-14.9v-2.9h70.4v2.9h-13.8c-2.3 3.8-5.2 7.2-8.8 10.1h28.2zm-48.1-3.1h15.5c1.9-3 3.5-6.4 4.8-10.1h-28.6c1.4 1.3 2.8 2.6 4.1 4.1q2.4 2.85 4.2 6" style="fill:#44bbc7"/><path d="M314.6 208.1c.3-.9.6-1.9.8-2.9h-28.8v-2.4H316c1.8-7.5 2.7-16.4 2.8-26.7H284v-2.4h73.5v2.4h-33q-.15 15.15-3 26.7h33.3v2.4h-29.9c2 5.8 4.6 10.9 7.7 15.3 3.3 4.7 7.2 8.8 11.9 12.3q6.9 5.25 16.2 9.6l-3.7 6c-6.3-3.6-11.7-7.5-16.2-11.6q-6.75-6.3-11.4-14.1c-3-5.1-5.4-10.9-7.1-17.5h-1.4c-.3 1.2-.7 2.4-1.1 3.5-3.1 9.2-7.8 16.8-14 22.9S291.7 243 282 247.7l-1-2.5c8.8-4.6 15.9-9.8 21.3-15.5q8.1-8.55 12.3-21.6M285.3 364c-2.2 2.3-4 4.7-5.5 7.2l4.5 3.4c1.2-2.7 2.8-5.3 4.6-7.8 1.6-2.2 3.3-4.1 4.9-5.6 2.9 4 6.3 7 10 9.1 4 2.2 8.8 3.2 14.2 3.2h41.5l1.1-5.1h-43.3c-5 0-9.4-.9-13-2.6-3-1.4-5.5-3.5-7.8-6.1v-34.9h-15.9v2.4h10.7v31.3c-2 1.5-4 3.4-6 5.5m25.9-7.1v-21.3h41.3v21.3zm36-2.2v-16.9h-30.7v16.9zm-62.3-58.4-1.5 1.6c2.3 2.3 4.3 5 6.2 8.1s3.4 6.2 4.5 9.5l4.6-3.9q-2.4-4.5-6-8.4-3.6-4.05-7.8-6.9m74.4 26.1h-24.7v-16h19.2v-2.2h-19.2v-11.3h-5.4v11.3h-12.5c1.4-3.2 2.5-6.4 3.2-9.5l-5-1.6c-.7 4.2-1.8 8.3-3.4 12.4s-3.6 7.8-6.1 11l2 1.3c3.2-3 5.8-6.7 7.9-10.9l.3-.6h13.6v16h-25.4v2.3h55.5zM293 676.1h-10.9v1.7H293v4.7h4.7v-4.7H310v4.7h4.7v-4.7h9v-1.7h-9v-4.8H310v4.8h-12.3v-4.8H293zm-12 22.3c2.4-2.1 4.6-4.7 6.5-7.7.8-1.3 1.5-2.6 2.2-3.9h27.6V697c0 2.4-.4 4-1.3 5q-1.35 1.5-4.2 1.5h-6.6l.5 1.7h8.3c2.8 0 4.9-.6 6.2-1.9q2.1-1.8 2.1-6v-12.2h-31.9c.5-1.2.9-2.4 1.3-3.6l-4.7-.9c-.5 3.1-1.5 6.1-2.9 8.9-1.4 2.9-2.9 5.4-4.6 7.5zm28.3 2h-18.7v-8.8h18.7zm-14.9-7.3v5.9h11v-5.9zm53.3 16.5h-54v1.6h54zM291 738.4h59.5v14H291zm53.7 12.1V740h-48v10.5zm3-26.5h-54v1.6h54zm-54 8.8h54v-1.6h-54zm63.5-25.2c-5.4-2.2-10.4-5.5-15.2-10l-1.2-1.2c-1.2 1.1-2.4 2.1-3.7 3-3.7 2.7-7.7 4.9-12 6.5l-.7-1.7c5.3-2.3 9.9-5.7 14-10.2-2.8-3.1-5.1-6.2-6.9-9.4-1.7 2.5-3.7 4.6-5.9 6.5l-1.3-1.5c2-2.4 3.7-5.3 5-8.7s2.3-6.9 2.7-10.6l5.5.6c-.5 2.1-1.1 4.2-2 6.2h22.9v1.9h-6.1c-1.2 3.8-3.1 7.4-5.7 10.9-1 1.3-2.1 2.6-3.3 3.8.1.1.3.2.4.3 5 3.7 10.3 6.6 15.9 8.5zm-16.6-16.1c2.9-3.8 5.1-7.9 6.4-12.3h-12.3c-.5 1-1 2-1.6 3-.1.2-.3.5-.5.7 2.1 2.9 4.7 5.8 8 8.6m-61.4 27h83v-1.8h-83zm73.7-225.2v-23.1h-18.1c-.6 4.3-1.5 8.4-2.8 12.3-2.4 7.3-6.1 14-11.1 20l-1.9-1.6c4.1-5.5 7.1-11.8 9-18.8s2.8-14.8 2.8-23.4v-37.4h26.9v72.9c0 2.3-.6 4.1-1.7 5.3q-1.65 1.8-5.1 1.8h-9.2l-.6-2.5h6.7c1.8 0 3.1-.4 3.9-1.3q1.2-1.2 1.2-4.2m0-69.7h-17.3v20.5h17.3zm0 44.4v-21.6h-17.3v12.2c0 3.2-.2 6.4-.5 9.4zm-51.7 17.1h-21.8v-2.2h21.8V472H285v-31.6h16.2v-10.3h-20.4V428h20.4v-9.9h5.2v9.9h20.2v2.2h-20.2v10.3h16.1v31.6h-16.1V483h18.4v2.2h-18.4v17.2h-5.2zm16.1-42.5h-27.2V455h27.2zm-27.2 14.5V470h27.2v-12.9zm9 149.6v10.9c0 3 .8 5.3 2.4 6.8 1.6 1.6 3.9 2.4 7 2.4h24.4c2.3 0 4.1-.5 5.6-1.6 1.5-1 2.4-2.6 2.9-4.7l2.3-8.8-2.2-1.3-1.6 6.5c-.4 1.6-1.1 2.8-2.3 3.6s-2.6 1.2-4.3 1.2h-22.7c-2.1 0-3.6-.5-4.7-1.6s-1.6-2.7-1.6-5v-8.6h-5.2zm-14 8.7c-1.6 3.1-3.3 5.9-5.1 8.5l5.1 2.6c1.4-2.9 2.6-6.1 3.7-9.6s1.9-7 2.5-10.7l-2.2-.4c-1.1 3.3-2.4 6.5-4 9.6m64.5-9.6-1.9 1.1c1.9 2.9 3.7 6.1 5.2 9.4 1.6 3.3 2.8 6.7 3.9 10l5.1-2.8q-4.5-9.45-12.3-17.7m-32.2-2.5-1.8 1.2c3.5 3.5 6.4 7.8 8.8 12.9l5.1-2.5c-3.4-4.8-7.4-8.6-12.1-11.6m30-2.5H294V578h53.5v22.8zm-5.4-12.3v-8.7h-42.7v8.7zm-42.7 1.8v8.7H342v-8.7zm38.3-25.3c1.8-1.9 3.3-3.8 4.4-5.8l-5.8-1.6c-.7 2.1-1.7 4.2-2.8 6.2-1.1 1.9-2.2 3.6-3.5 5.1h-17.7c-1.1-2.1-2.5-4-4.2-5.9-1.8-2-3.7-3.7-5.7-5.2l-1.9 1c2.4 2.7 4.4 6.1 6 10h-26.1v2.2h80.8v-2.2h-27.8c1.5-1.1 2.9-2.4 4.3-3.8m-19.7-12.3h-29.7v2.1h65.1v-2.1h-29.7v-7.1h-5.7zm166.9-323c-5.4 5.7-12.5 10.8-21.3 15.5l1 2.5c9.7-4.6 17.6-10 23.8-16.1s10.8-13.7 14-22.9c.4-1.1.8-2.3 1.1-3.5h1.4c1.7 6.5 4 12.4 7.1 17.5q4.65 7.95 11.4 14.1c6.75 6.15 9.9 8 16.2 11.6l3.7-6q-9.3-4.35-16.2-9.6c-4.6-3.5-8.6-7.6-11.9-12.3-3.1-4.4-5.7-9.6-7.7-15.3h29.9v-2.4H504q2.85-11.55 3-26.7h33v-2.4h-73.5v2.4h34.8c-.1 10.3-1 19.2-2.8 26.7h-29.3v2.4H498c-.3 1-.5 1.9-.8 2.9-3 8.7-7 15.9-12.4 21.6m32.2 94.9v11h18v21.3h-41.3v-21.3h18v-11h-25.4v-2.3h25.4v-16h-13.6l-.3.6c-2.1 4.2-4.8 7.8-7.9 10.9l-2-1.3c2.4-3.3 4.5-7 6.1-11.1s2.8-8.2 3.4-12.4l5 1.6c-.7 3.1-1.8 6.3-3.2 9.5h12.5v-11.3h5.4v11.3h19.2v2.2H517v16h24.7v2.3zm-18 13.3v16.9h30.7v-16.9zm-31.1 26c-2.3 2.4-4.2 4.9-5.8 7.5l4.6 3.5c1.2-2.6 2.7-5.1 4.6-7.7 1.7-2.2 3.3-4.2 4.9-5.9 2.9 4 6.3 7 10 9 4 2.2 8.8 3.2 14.2 3.2h41.5l1.1-5.1h-43.3c-5 0-9.4-.9-13-2.6-3-1.4-5.5-3.5-7.8-6.1v-25.6H463v2.4h10.7v22.2c-2 1.5-3.9 3.2-5.8 5.2m5.6-47.4c-2.7-1.9-5.6-3.6-8.7-5l-1.2 1.8c2.7 1.8 5.2 3.8 7.5 6.2s4.3 4.9 6.1 7.5l3.3-4.6c-2-2-4.3-4-7-5.9m3.2-16.4q-3.6-2.7-7.8-5.1l-1.5 1.8c2.6 1.9 5 4 7.1 6.3s4 4.8 5.6 7.5l3-4.4c-1.9-2.2-4-4.3-6.4-6.1m-.5 432.7h54v-1.6h-54zm-2.8 5.6h59.5v14h-59.5zm53.7 12.1V740h-48v10.5zm12.5-42.9c-5.4-2.2-10.4-5.5-15.2-10l-1.2-1.2c-1.2 1.1-2.4 2.1-3.7 3-3.7 2.7-7.7 4.9-12 6.5l-.7-1.7c5.3-2.3 9.9-5.7 14-10.2-2.8-3.1-5.1-6.2-6.9-9.4-1.7 2.5-3.7 4.6-5.9 6.5l-1.3-1.5c2-2.4 3.7-5.3 5-8.7s2.3-6.9 2.7-10.6l5.5.6c-.5 2.1-1.1 4.2-2 6.2H541v1.9h-6.1c-1.2 3.8-3.1 7.4-5.7 10.9-1 1.3-2.1 2.6-3.3 3.8.1.1.3.2.4.3 5 3.7 10.3 6.6 15.9 8.5zM523 691.5c2.9-3.8 5.1-7.9 6.4-12.3h-12.3c-.5 1-1 2-1.6 3-.1.2-.3.5-.5.7 2.2 2.9 4.8 5.8 8 8.6m7.2 18.1h-54v1.6h54zm-68.5 7v1.8h83v-1.8zm28.7-45.3v11.2h4.5v-4.7h11.3v-1.7h-11.3v-4.8zm1.4 29.1h-18.7v-8.8h18.7zm-14.9-7.3v5.9h11v-5.9zm53.3 30.9h-54v1.6h54zm-66.7-25.6c2.4-2.1 4.6-4.7 6.5-7.7.8-1.3 1.5-2.6 2.2-3.9h27.6V697c0 2.4-.4 4-1.3 5q-1.35 1.5-4.2 1.5h-6.6l.5 1.7h8.3c2.8 0 4.9-.6 6.2-1.9q2.1-1.8 2.1-6v-12.2h-31.9c.5-1.2.9-2.4 1.3-3.6l-4.7-.9c-.5 3.1-1.5 6.1-2.9 8.9-1.4 2.9-2.9 5.4-4.6 7.5zm1.1-20.5h12.8v4.7h4.5v-11.2h-4.5v4.8h-12.8zm65.6-201.2 2.9-4.7c-3.2-3.5-6.9-6.6-11.2-9.1l-1.1 1.7c3.7 3.5 6.9 7.5 9.4 12.1m2.9-28.6c-3.1-3.4-6.8-6.4-11.2-9l-1.1 1.6c3.8 3.5 6.9 7.6 9.4 12.1zm.3 53.3c2.3 0 3.9-.6 5.1-1.8 1.1-1.2 1.7-3 1.7-5.3v-72.9h-26.9v37.4c0 8.6-.9 16.4-2.8 23.4s-4.9 13.3-9 18.8l1.9 1.6c5-6 8.8-12.7 11.1-20s3.6-15.3 3.6-24v-35h17.3v69.8c0 1.9-.4 3.4-1.2 4.2-.8.9-2.1 1.3-3.9 1.3h-6.7l.6 2.5zm-49.8-16.3h-21.8v-2.2h21.8V472h-16.2v-31.6h16.2v-10.3h-20.4V428h20.4v-9.9h5.2v9.9H509v2.2h-20.2v10.3H505v31.6h-16.1V483h18.4v2.2h-18.4v17.2h-5.2v-17.3zm16.2-42.5h-27.2V455h27.2zm-27.2 14.5V470h27.2v-12.9zm48.3 168.3c1.4-1 2.3-2.6 2.8-4.7l2.2-8.1-2.2-1.3-1.6 6.4c-.4 1.7-1.2 2.9-2.3 3.7q-1.65 1.2-4.5 1.2H493c-4.3 0-6.4-2.2-6.4-6.6v-7.4h-5v9q0 4.5 2.4 6.9c1.6 1.6 3.9 2.3 7 2.3h24.4c2.2.1 4.1-.4 5.5-1.4m-41.1-75.1h46.7v-1.8h-46.7zm52.8 57.8-1.8 1.1c1.8 2.6 3.5 5.4 4.9 8.3s2.6 5.9 3.6 8.8l5.1-2.7c-2.9-5.5-6.8-10.7-11.8-15.5m-32.7-3-1.8 1.1c3.3 3.4 6.1 7.4 8.3 12l4.8-2.6c-3.2-4.3-7-7.7-11.3-10.5m14.9-33.8h28.7v2h-80.8v-2h26.4c-1.2-4.1-3.1-7.8-5.6-11.2h-14.8v-1.9h69v1.9h-14.1c-2.4 4.1-5.3 7.9-8.8 11.2m-20 0h17.4c2.3-3.3 4.2-7.1 5.7-11.2h-31.6q2.4 2.1 4.5 4.8c1.5 2 2.9 4.2 4 6.4m-27.4 45.4c-1.5 2.7-3.2 5.1-4.9 7.4l5.1 2.6c1.3-2.8 2.5-5.7 3.6-8.8s1.9-6.2 2.5-9.5l-2.2-.4c-1.2 3.1-2.6 6-4.1 8.7m62.5-13.7h-53.5v-22.4h53.5zm-5.4-12.1v-8.5h-42.7v8.5zm-42.7 1.7v8.6h42.7v-8.6z" style="fill:#fbfbfb"/><path d="M384.5 733.9h2.3v8.4c0 1.1-.2 2.1-.6 2.9s-1 1.4-1.7 1.9c-.7.4-1.6.7-2.7.7-1 0-1.9-.2-2.7-.7-.8-.4-1.3-1.1-1.7-1.9s-.6-1.8-.6-2.9v-8.4h2.3v8.4c0 1.1.2 1.9.7 2.5q.75.9 2.1.9c1.35 0 1.6-.3 2.1-.9s.7-1.4.7-2.5v-8.4zm10.9 2.5h-2v3.6h-3.7v2h3.7v3.8h2V742h3.6v-2h-3.6zm15.7 5.2c.4.5.7 1.3.7 2.2q0 1.2-.6 2.1c-.4.6-1 1-1.8 1.4-.8.3-1.7.5-2.8.5v.1c-1.1 0-2.1-.2-2.8-.5-.8-.3-1.4-.8-1.8-1.4q-.6-.9-.6-2.1c0-.8.2-1.5.6-2s.9-1 1.5-1.2c.2-.1.4-.2.7-.3-.6-.3-1-.7-1.4-1.2-.3-.5-.5-1.1-.5-1.8 0-.6.2-1.2.5-1.8q.45-.75 1.5-1.2c.7-.3 1.5-.5 2.4-.5s1.7.2 2.4.5q1.05.45 1.5 1.2c.3.5.5 1.1.5 1.8 0 .9-.3 1.7-.9 2.2-.3.2-.6.5-1 .7.2.1.3.1.5.2.4.1 1 .6 1.4 1.1m-7-4.5c0 .4.1.7.4 1 .2.3.6.5 1 .7.3.2.7.3 1.2.5.1 0 .2-.1.4-.1.2-.1.5-.2.7-.3.4-.2.8-.5 1-.7s.3-.6.3-.9c0-.5-.2-.9-.7-1.2-.4-.3-1-.5-1.8-.5s-1.4.2-1.8.4-.7.6-.7 1.1m5.5 6.6c0-.5-.1-.8-.4-1.2-.3-.3-.6-.6-1-.8s-1-.4-1.6-.6h-.1c-.2.1-.3.1-.5.2l-.9.3c-.3.2-.7.3-.9.5l-.6.6c-.1.2-.2.5-.2.8 0 .7.3 1.3.8 1.7s1.3.6 2.3.6v-.1c.9 0 1.7-.2 2.2-.6.7-.2.9-.8.9-1.4m13.6-.2c0 1.3-.4 2.3-1.3 3s-2.1 1.1-3.6 1.1h-4.1v-13.7h4.1c1.4 0 2.6.3 3.4 1s1.2 1.6 1.2 2.8c0 1-.4 1.8-1.1 2.4-.2.1-.3.2-.5.3.3.1.5.3.8.5.7.7 1.1 1.5 1.1 2.6m-5-7.6h-1.9v3.8h1.9c.8 0 1.4-.2 1.7-.5.4-.3.6-.8.6-1.4s-.2-1.1-.6-1.4c-.3-.4-.9-.5-1.7-.5m2.7 7.6c0-.7-.2-1.2-.7-1.6-.5-.3-1.1-.5-2-.5h-1.9v4.1h1.9c.9 0 1.6-.2 2-.5.5-.3.7-.8.7-1.5m13.5-2.7c.3.6.5 1.4.5 2.3s-.2 1.8-.6 2.5-.9 1.2-1.7 1.6c-.7.4-1.6.6-2.6.6-1.5 0-2.7-.5-3.5-1.3-.8-.9-1.3-2.2-1.3-3.9 0-1.5.3-2.8.8-4s1.3-2.2 2.3-3q1.5-1.2 3.6-1.8l.7 1.7c-1.2.4-2.3.9-3.1 1.5s-1.4 1.4-1.8 2.3c-.1.2-.1.4-.2.5.2-.2.5-.3.7-.4.6-.3 1.3-.5 2.1-.5.9 0 1.6.2 2.3.5.9.3 1.4.8 1.8 1.4m-1.5 2.3c0-.7-.2-1.3-.7-1.7s-1.1-.6-1.9-.6c-1.1 0-2 .3-2.9.9 0 .3-.1.6-.1.9 0 1.1.2 1.9.7 2.5s1.2.8 2 .8c.9 0 1.6-.2 2.1-.7.6-.6.8-1.3.8-2.1m13.7-2.3c.3.6.5 1.4.5 2.3s-.2 1.8-.6 2.5-.9 1.2-1.7 1.6c-.7.4-1.6.6-2.6.6-1.5 0-2.7-.5-3.5-1.3-.8-.9-1.3-2.2-1.3-3.9 0-1.5.3-2.8.8-4s1.3-2.2 2.3-3q1.5-1.2 3.6-1.8l.7 1.7c-1.2.4-2.3.9-3.1 1.5s-1.4 1.4-1.8 2.3c-.1.2-.1.4-.2.5.2-.2.5-.3.7-.4.6-.3 1.3-.5 2.1-.5.9 0 1.6.2 2.3.5 1 .3 1.5.8 1.8 1.4m-1.4 2.3c0-.7-.2-1.3-.7-1.7s-1.1-.6-1.9-.6c-1.1 0-2 .3-2.9.9 0 .3-.1.6-.1.9 0 1.1.2 1.9.7 2.5s1.2.8 2 .8c.9 0 1.6-.2 2.1-.7.5-.6.8-1.3.8-2.1M385 616.2c0 1.1-.2 1.9-.7 2.5s-1.2.9-2.1.9q-1.35 0-2.1-.9c-.75-.9-.7-1.4-.7-2.5v-8.4h-2.3v8.4c0 1.1.2 2.1.6 2.9s1 1.4 1.7 1.9c.7.4 1.7.7 2.7.7s1.9-.2 2.7-.7c.7-.4 1.3-1.1 1.7-1.9s.6-1.8.6-2.9v-8.4H385zm10.9-5.9h-2v3.6h-3.7v2h3.7v3.8h2v-3.8h3.6v-2h-3.6zm15.5 4.4c.3.6.5 1.4.5 2.3s-.2 1.8-.6 2.5-.9 1.2-1.7 1.6c-.7.4-1.6.6-2.6.6-1.5 0-2.7-.5-3.5-1.3-.8-.9-1.3-2.2-1.3-3.9 0-1.5.3-2.8.8-4s1.3-2.2 2.3-3q1.5-1.2 3.6-1.8l.7 1.7c-1.2.4-2.3.9-3.1 1.5s-1.4 1.4-1.8 2.3c-.1.2-.1.4-.2.5.2-.2.5-.3.7-.4.6-.3 1.3-.5 2.1-.5.9 0 1.6.2 2.3.5.9.3 1.4.7 1.8 1.4m-1.5 2.3c0-.7-.2-1.3-.7-1.7s-1.1-.6-1.9-.6c-1.1 0-2 .3-2.9.9 0 .3-.1.6-.1.9 0 1.1.2 1.9.7 2.5s1.2.8 2 .8c.9 0 1.6-.2 2.1-.7.6-.6.8-1.3.8-2.1m11-9.2h-2.1c-.3.9-.8 1.6-1.4 2.3s-1.3 1.2-2.2 1.7l.8 1.7c1.1-.6 2-1.3 2.8-2.3v8.5H415v1.8h8.7v-1.8h-2.9v-11.9zm15.3 3.1c.4 1 .6 2.3.6 3.8s-.2 2.7-.6 3.8c-.4 1-1 1.9-1.8 2.4-.8.6-1.7.8-2.8.8s-2-.3-2.8-.8q-1.2-.9-1.8-2.4c-.4-1-.6-2.3-.6-3.8s.2-2.7.6-3.8c.4-1 1-1.9 1.8-2.4.8-.6 1.7-.8 2.8-.8s2 .3 2.8.8q1.2.75 1.8 2.4m-1.6 3.7c0-1.6-.2-2.8-.7-3.7-.5-.8-1.2-1.2-2.2-1.2s-1.7.4-2.2 1.2-.7 2.1-.7 3.7.2 2.8.7 3.7c.5.8 1.2 1.2 2.2 1.2s1.7-.4 2.2-1.2.7-2.1.7-3.7m4.6 6.9h2.3v-5.7h5.2v-1.9h-5.2V610h5.9v-2.1h-8.2zm-61-126.6c.8.4 1.7.7 2.7.7s1.9-.2 2.7-.7c.7-.4 1.3-1.1 1.7-1.9s.6-1.8.6-2.9v-8.4h-2.3v8.4c0 1.1-.2 1.9-.7 2.5q-.75.9-2.1.9t-2.1-.9c-.5-.6-.7-1.4-.7-2.5v-8.4h-2.3v8.4c0 1.1.2 2.1.6 2.9s1.1 1.4 1.9 1.9m14.3-1.4h2v-3.8h3.6v-2h-3.6v-3.6h-2v3.6h-3.7v2h3.7zm9.6.7c-.8-.9-1.3-2.2-1.3-3.9 0-1.5.3-2.8.8-4s1.3-2.2 2.3-3q1.5-1.2 3.6-1.8l.7 1.7c-1.2.4-2.3.9-3.1 1.5s-1.4 1.4-1.8 2.3c-.1.2-.1.4-.2.5.2-.2.5-.3.7-.4.6-.3 1.3-.5 2.1-.5.9 0 1.6.2 2.3.5q.9.45 1.5 1.5c.3.6.5 1.4.5 2.3s-.2 1.8-.6 2.5-.9 1.2-1.7 1.6c-.7.4-1.6.6-2.6.6-1.2-.1-2.3-.5-3.2-1.4m.9-4.8c0 .3-.1.6-.1.9 0 1.1.2 1.9.7 2.5s1.2.8 2 .8c.9 0 1.6-.2 2.1-.7s.7-1.2.7-2c0-.7-.2-1.3-.7-1.7s-1.1-.6-1.9-.6c-1-.1-2 .2-2.8.8m14.3-.6c-.8 2-1.3 4.2-1.6 6.6h2.1c.2-2.3.7-4.4 1.5-6.4s1.9-3.7 3.3-5.4v-2h-9.2v2h6.8c-1.2 1.6-2.2 3.3-2.9 5.2m17.3 4.7h-2.9v-11.9h-2.1c-.3.9-.8 1.6-1.4 2.3s-1.3 1.2-2.2 1.7l.8 1.7c1.1-.6 2-1.3 2.8-2.3v8.5h-3.7v1.8h8.7zm13.1-8.7c.5 1 .8 2.3.8 3.7s-.3 2.6-.8 3.7c-.5 1-1.3 1.8-2.3 2.4-1 .5-2.2.8-3.6.8h-4v-13.7h4c1.4 0 2.6.3 3.6.8s1.8 1.3 2.3 2.3m-1.4 3.7c0-1.6-.4-2.8-1.1-3.5-.8-.8-1.9-1.2-3.4-1.2H440v9.5h1.8c1.5 0 2.6-.4 3.4-1.2.7-.8 1.1-2 1.1-3.6m-67.7-119.7c.8.4 1.7.7 2.7.7s1.9-.2 2.7-.7c.7-.4 1.3-1.1 1.7-1.9s.6-1.8.6-2.9v-8.4H384v8.4c0 1.1-.2 1.9-.7 2.5s-1.2.9-2.1.9q-1.35 0-2.1-.9c-.75-.9-.7-1.4-.7-2.5v-8.4h-2.3v8.4c0 1.1.2 2.1.6 2.9.5.8 1.1 1.4 1.9 1.9m14.3-1.4h2v-3.8h3.6v-2h-3.6V358h-2v3.6h-3.7v2h3.7zm8.9-5.1c-.3-.6-.5-1.4-.5-2.3s.2-1.8.6-2.5.9-1.2 1.7-1.6c.7-.4 1.6-.6 2.6-.6 1.5 0 2.7.5 3.5 1.4s1.3 2.2 1.3 3.9c0 1.5-.3 2.8-.8 4s-1.3 2.2-2.3 3q-1.5 1.2-3.6 1.8l-.7-1.7c1.2-.4 2.3-.9 3.1-1.5s1.4-1.4 1.8-2.3c.1-.2.1-.4.2-.5-.2.2-.5.3-.7.4-.6.3-1.3.5-2.1.5-.9 0-1.6-.2-2.3-.5-.9-.4-1.4-.8-1.8-1.5m1.4-2.3c0 .7.2 1.3.7 1.7s1.1.6 1.9.6c1.1 0 2-.3 2.9-.9 0-.3.1-.6.1-.9 0-1.1-.2-1.9-.7-2.5s-1.2-.8-2-.8c-.9 0-1.6.2-2.1.7-.5.6-.8 1.3-.8 2.1m10.6 6.2c-.4-1-.6-2.3-.6-3.8s.2-2.7.6-3.8c.4-1 1-1.9 1.8-2.4.8-.6 1.7-.8 2.8-.8s2 .3 2.8.8q1.2.9 1.8 2.4c.4 1 .6 2.3.6 3.8s-.2 2.7-.6 3.8c-.4 1-1 1.9-1.8 2.4-.8.6-1.7.8-2.8.8s-2-.3-2.8-.8q-1.2-.9-1.8-2.4m1.6-3.8c0 1.6.2 2.8.7 3.7.5.8 1.2 1.2 2.2 1.2s1.7-.4 2.2-1.2.7-2.1.7-3.7-.2-2.8-.7-3.7c-.5-.8-1.2-1.2-2.2-1.2s-1.7.4-2.2 1.2c-.5.9-.7 2.1-.7 3.7m13.4-4.4c.5-.4 1-.6 1.7-.6s1.2.2 1.6.5.6.8.6 1.4c0 .5-.1 1-.4 1.4-.3.5-.7.9-1.1 1.4-.4.4-1 1-1.7 1.6-.5.4-1 .8-1.4 1.2s-.8.7-1.1 1.2c-.4.4-.7.8-.9 1.3v2h9.1v-2h-6.8c.3-.3.5-.7.8-1 .5-.5 1.2-1.1 2-1.9.8-.7 1.5-1.3 1.9-1.8.5-.5.9-1 1.2-1.6s.5-1.2.5-1.9-.2-1.4-.5-2-.8-1-1.4-1.3-1.3-.5-2.2-.5q-1.8 0-3 .9c-.8.6-1.4 1.5-1.8 2.6l1.7.9q.45-1.2 1.2-1.8m9.5 8.2c-.4-1-.6-2.3-.6-3.8s.2-2.7.6-3.8c.4-1 1-1.9 1.8-2.4.8-.6 1.7-.8 2.8-.8s2 .3 2.8.8q1.2.9 1.8 2.4c.4 1 .6 2.3.6 3.8s-.2 2.7-.6 3.8c-.4 1-1 1.9-1.8 2.4-.8.6-1.7.8-2.8.8s-2-.3-2.8-.8c-.8-.6-1.3-1.4-1.8-2.4m1.6-3.8c0 1.6.2 2.8.7 3.7.5.8 1.2 1.2 2.2 1.2s1.7-.4 2.2-1.2.7-2.1.7-3.7-.2-2.8-.7-3.7c-.5-.8-1.2-1.2-2.2-1.2s-1.7.4-2.2 1.2c-.4.9-.7 2.1-.7 3.7m-61.3-119.8c.8.4 1.7.7 2.7.7s1.9-.2 2.7-.7c.7-.4 1.3-1.1 1.7-1.9s.6-1.8.6-2.9v-8.4H384v8.4c0 1.1-.2 1.9-.7 2.5s-1.2.9-2.1.9q-1.35 0-2.1-.9c-.75-.9-.7-1.4-.7-2.5v-8.4h-2.3v8.4c0 1.1.2 2.1.6 2.9.5.9 1.1 1.5 1.9 1.9m14.3-1.3h2v-3.8h3.6v-2h-3.6V232h-2v3.6h-3.7v2h3.7zm13.2 0c-.7 0-1.3-.2-1.8-.5-.5-.4-.9-.9-1.2-1.7l-1.8.9c.5 1.1 1.2 1.9 1.9 2.5.8.5 1.7.8 2.8.8 1 0 1.9-.2 2.6-.6s1.2-.9 1.6-1.7q.6-1.05.6-2.7c0-.9-.2-1.6-.5-2.2s-.8-1.1-1.4-1.4-1.4-.5-2.2-.5q-.9 0-1.8.3c-.3.1-.6.2-.8.4l.3-3.6h5.4v-2h-7.2l-.6 7.4h1.9c.3-.3.7-.6 1.1-.7.4-.2.8-.2 1.2-.2.8 0 1.4.2 1.9.7.4.5.7 1.1.7 2s-.2 1.6-.7 2.1-1.2.7-2 .7m8-5.1c-.3-.6-.5-1.4-.5-2.3s.2-1.8.6-2.5.9-1.2 1.7-1.6c.7-.4 1.6-.6 2.6-.6 1.5 0 2.7.5 3.5 1.4s1.3 2.2 1.3 3.9c0 1.5-.3 2.8-.8 4s-1.3 2.2-2.3 3q-1.5 1.2-3.6 1.8l-.7-1.7c1.2-.4 2.3-.9 3.1-1.5s1.4-1.4 1.8-2.3c.1-.2.1-.4.2-.5-.2.2-.5.3-.7.4-.6.3-1.3.5-2.1.5-.9 0-1.6-.2-2.3-.5-1-.4-1.5-.8-1.8-1.5m1.4-2.3c0 .7.2 1.3.7 1.7s1.1.6 1.9.6c1.1 0 2-.3 2.9-.9 0-.3.1-.6.1-.9 0-1.1-.2-1.9-.7-2.5s-1.2-.8-2-.8c-.9 0-1.6.2-2.1.7-.5.6-.8 1.3-.8 2.1m13.3-2c.5-.4 1-.6 1.7-.6s1.2.2 1.6.5.6.8.6 1.4c0 .5-.1 1-.4 1.4-.3.5-.7.9-1.1 1.4-.4.4-1 1-1.7 1.6-.5.4-1 .8-1.4 1.2s-.8.7-1.1 1.2c-.4.4-.7.8-.9 1.3v2h9.1v-2h-6.8c.3-.3.5-.7.8-1 .5-.5 1.2-1.1 2-1.9.8-.7 1.5-1.3 1.9-1.8.5-.5.9-1 1.2-1.6s.5-1.2.5-1.9-.2-1.4-.5-2-.8-1-1.4-1.3-1.3-.5-2.2-.5q-1.8 0-3 .9c-.8.6-1.4 1.5-1.8 2.6l1.7.9q.45-1.2 1.2-1.8m9.8 4.3c-.3-.6-.5-1.4-.5-2.3s.2-1.8.6-2.5.9-1.2 1.7-1.6c.7-.4 1.6-.6 2.6-.6 1.5 0 2.7.5 3.5 1.4s1.3 2.2 1.3 3.9c0 1.5-.3 2.8-.8 4s-1.3 2.2-2.3 3q-1.5 1.2-3.6 1.8l-.7-1.7c1.2-.4 2.3-.9 3.1-1.5s1.4-1.4 1.8-2.3c.1-.2.1-.4.2-.5-.2.2-.5.3-.7.4-.6.3-1.3.5-2.1.5-.9 0-1.6-.2-2.3-.5-.9-.4-1.4-.8-1.8-1.5m1.5-2.3c0 .7.2 1.3.7 1.7s1.1.6 1.9.6c1.1 0 2-.3 2.9-.9 0-.3.1-.6.1-.9 0-1.1-.2-1.9-.7-2.5s-1.2-.8-2-.8c-.9 0-1.6.2-2.1.7-.6.6-.8 1.3-.8 2.1m-154.4-89c-.3-.7-.5-1.6-.5-2.7s.2-2 .5-2.7.8-1.3 1.4-1.7 1.3-.6 2-.6 1.4.2 2 .5c.2.1.4.3.6.5v-5.8h2.1v11.7c0 .4 0 .9.2 1.3.1.4.2.8.4 1.1l-1.7.6c-.3-.3-.5-.7-.7-1.1 0-.1 0-.1-.1-.2-.3.3-.5.6-.8.8-.6.4-1.2.6-2 .6s-1.5-.2-2.1-.6-1-.9-1.3-1.7m1.6-2.7c0 1 .2 1.8.5 2.3.4.5.9.7 1.7.7q.75 0 1.2-.3.6-.3.9-.9v-3.8c-.3-.3-.6-.6-.9-.8q-.6-.3-1.2-.3c-.8 0-1.3.2-1.7.7-.3.6-.5 1.4-.5 2.4m9.5 3.7c-.7-.9-1.1-2.2-1.1-3.7 0-1.6.4-2.8 1.1-3.7s1.7-1.3 3-1.3c.9 0 1.8.2 2.4.6q1.05.6 1.5 1.8c.3.8.5 1.8.3 2.9h-6.3q0 1.35.6 2.1c.4.5 1 .8 1.7.8.5 0 .9-.1 1.2-.4.3-.2.6-.6.8-1.1l1.9.6c-.4.9-.9 1.5-1.6 2-.7.4-1.5.7-2.5.7-1.1.1-2.2-.4-3-1.3m1.5-6.2c-.2.4-.4.9-.5 1.5h4.2c-.1-.7-.2-1.2-.5-1.6-.4-.5-.9-.7-1.5-.7-.7-.1-1.3.2-1.7.8m14-.5v-1.8h-2.8V136c0-.6.1-1 .3-1.4.2-.3.5-.4 1-.4.3 0 .6.1.9.2.3.2.5.4.7.7l1-1.6c-.4-.4-.8-.8-1.2-1q-.6-.3-1.5-.3-1.65 0-2.4.9c-.5.6-.8 1.5-.8 2.8v1.4h-1.7v1.8h1.7v7.8h2.1v-7.8h2.7zm9.5 6.3c.1.4.2.8.4 1.1l-1.7.6c-.3-.3-.5-.7-.7-1.1v-.2c-.3.3-.5.6-.8.8-.6.4-1.2.6-2 .6q-1.2 0-2.1-.6c-.6-.4-1-1-1.3-1.7s-.5-1.6-.5-2.7.2-2 .5-2.7.8-1.3 1.4-1.7 1.3-.6 2-.6c.8 0 1.4.2 2 .5.2.1.4.3.6.5v-.9h2.1v6.8c-.1.4 0 .8.1 1.3m-2.3-1.5v-3.8c-.3-.3-.6-.6-.9-.8q-.6-.3-1.2-.3c-.8 0-1.3.2-1.7.7s-.5 1.2-.5 2.3.2 1.8.5 2.3c.4.5.9.7 1.7.7q.75 0 1.2-.3c.4-.1.7-.4.9-.8m12.1.2v-6.8h-2.1v6.6c-.2.3-.3.5-.5.7s-.4.3-.7.4c-.2.1-.5.1-.8.1-.5 0-.9-.2-1.1-.5s-.3-.9-.3-1.6v-5.7H324v6.6c0 1 .3 1.8.8 2.4s1.3.9 2.2.9c.8 0 1.4-.2 1.9-.6.3-.2.6-.5.8-.8 0 .1 0 .1.1.2.2.4.4.8.7 1.1l1.7-.6c-.2-.3-.3-.7-.4-1.1-.1-.5-.2-.9-.2-1.3m5.7-11.7h-3.5v1.8h1.4v10.9h-1.7v1.8h5.6v-1.8h-1.8zm8.6 12.3c-.3.1-.6.2-.8.2-.3 0-.6-.1-.7-.3s-.2-.5-.2-.9v-4.6h2.8v-1.8h-2.8v-3.2h-2.1v3.2h-1.7v1.8h1.7v4.6c0 1.1.2 1.9.7 2.5.4.5 1.1.8 2 .8.5 0 .9-.1 1.4-.2s.9-.4 1.3-.8l-.7-1.8c-.3.2-.6.4-.9.5m770.2 649h-6.8c.3-.3.5-.7.8-1 .5-.5 1.2-1.1 2-1.9.8-.7 1.5-1.3 1.9-1.8.5-.5.9-1 1.2-1.6s.5-1.2.5-1.9-.2-1.4-.5-2-.8-1-1.4-1.3-1.3-.5-2.2-.5q-1.8 0-3 .9c-.8.6-1.4 1.5-1.8 2.6l1.7.9c.3-.8.6-1.4 1.1-1.8s1-.6 1.7-.6 1.2.2 1.6.5.6.8.6 1.4c0 .5-.1 1-.4 1.4-.3.5-.7.9-1.1 1.4-.4.4-1 1-1.7 1.6-.5.4-1 .8-1.4 1.2s-.8.7-1.1 1.2c-.4.4-.7.8-.9 1.3v2h9.1v-2zm12.4-8.7c.4 1 .6 2.3.6 3.8s-.2 2.7-.6 3.8c-.4 1-1 1.9-1.8 2.4-.8.6-1.7.8-2.8.8s-2-.3-2.8-.8q-1.2-.9-1.8-2.4c-.4-1-.6-2.3-.6-3.8s.2-2.7.6-3.8c.4-1 1-1.9 1.8-2.4.8-.6 1.7-.8 2.8-.8s2 .3 2.8.8q1.2.9 1.8 2.4m-1.6 3.8c0-1.6-.2-2.8-.7-3.7-.5-.8-1.2-1.2-2.2-1.2s-1.7.4-2.2 1.2-.7 2.1-.7 3.7.2 2.8.7 3.7c.5.8 1.2 1.2 2.2 1.2s1.7-.4 2.2-1.2c.4-.8.7-2.1.7-3.7m13.9-3.8c.4 1 .6 2.3.6 3.8s-.2 2.7-.6 3.8c-.4 1-1 1.9-1.8 2.4-.8.6-1.7.8-2.8.8s-2-.3-2.8-.8q-1.2-.9-1.8-2.4c-.4-1-.6-2.3-.6-3.8s.2-2.7.6-3.8c.4-1 1-1.9 1.8-2.4.8-.6 1.7-.8 2.8-.8s2 .3 2.8.8q1.05.9 1.8 2.4m-1.7 3.8c0-1.6-.2-2.8-.7-3.7-.5-.8-1.2-1.2-2.2-1.2s-1.7.4-2.2 1.2-.7 2.1-.7 3.7.2 2.8.7 3.7c.5.8 1.2 1.2 2.2 1.2s1.7-.4 2.2-1.2.7-2.1.7-3.7m5.7 4.3q0 1.2-.3 2.1c-.2.6-.5 1.1-.9 1.4l1.4 1.2c.6-.6 1-1.2 1.3-2 .3-.7.4-1.7.4-2.7zm-31.7 10.8h-2.1c-.3.9-.8 1.6-1.4 2.3s-1.3 1.2-2.2 1.7l.8 1.7c1.1-.6 2-1.3 2.8-2.3v8.5h-3.7v1.8h8.7v-1.8h-2.9zm15.4 3c.4 1 .6 2.3.6 3.8s-.2 2.7-.6 3.8c-.4 1-1 1.9-1.8 2.4-.8.6-1.7.8-2.8.8s-2-.3-2.8-.8q-1.2-.9-1.8-2.4c-.4-1-.6-2.3-.6-3.8s.2-2.7.6-3.8c.4-1 1-1.9 1.8-2.4.8-.6 1.7-.8 2.8-.8s2 .3 2.8.8q1.2.9 1.8 2.4m-1.6 3.8c0-1.6-.2-2.8-.7-3.7s-1.2-1.2-2.2-1.2-1.7.4-2.2 1.2-.7 2.1-.7 3.7.2 2.8.7 3.7c.5.8 1.2 1.2 2.2 1.2s1.7-.4 2.2-1.2c.4-.9.7-2.1.7-3.7m13.9-3.8c.4 1 .6 2.3.6 3.8s-.2 2.7-.6 3.8c-.4 1-1 1.9-1.8 2.4-.8.6-1.7.8-2.8.8s-2-.3-2.8-.8q-1.2-.9-1.8-2.4c-.4-1-.6-2.3-.6-3.8s.2-2.7.6-3.8c.4-1 1-1.9 1.8-2.4.8-.6 1.7-.8 2.8-.8s2 .3 2.8.8q1.05.9 1.8 2.4m-1.7 3.8c0-1.6-.2-2.8-.7-3.7s-1.2-1.2-2.2-1.2-1.7.4-2.2 1.2-.7 2.1-.7 3.7.2 2.8.7 3.7c.5.8 1.2 1.2 2.2 1.2s1.7-.4 2.2-1.2c.5-.9.7-2.1.7-3.7M1024 791.3h1.7v2h-1.7v2.5h-2v-2.5h-6.8v-2c1.4-1.4 2.6-2.9 3.7-4.4q1.65-2.4 3-4.8h2v9.2zm-1.9 0v-5.8c-.5.9-1 1.7-1.6 2.5-.8 1.1-1.6 2.2-2.5 3.2h4.1zm15.2-6.2c.4 1 .6 2.3.6 3.8s-.2 2.7-.6 3.8c-.4 1-1 1.9-1.8 2.4-.8.6-1.7.8-2.8.8s-2-.3-2.8-.8q-1.2-.9-1.8-2.4c-.4-1-.6-2.3-.6-3.8s.2-2.7.6-3.8c.4-1 1-1.9 1.8-2.4.8-.6 1.7-.8 2.8-.8s2 .3 2.8.8q1.05.9 1.8 2.4m-1.7 3.8c0-1.6-.2-2.8-.7-3.7-.5-.8-1.2-1.2-2.2-1.2s-1.7.4-2.2 1.2-.7 2.1-.7 3.7.2 2.8.7 3.7c.5.8 1.2 1.2 2.2 1.2s1.7-.4 2.2-1.2.7-2.1.7-3.7m13.9-3.8c.4 1 .6 2.3.6 3.8s-.2 2.7-.6 3.8c-.4 1-1 1.9-1.8 2.4-.8.6-1.7.8-2.8.8s-2-.3-2.8-.8q-1.2-.9-1.8-2.4c-.4-1-.6-2.3-.6-3.8s.2-2.7.6-3.8c.4-1 1-1.9 1.8-2.4.8-.6 1.7-.8 2.8-.8s2 .3 2.8.8q1.2.9 1.8 2.4m-1.6 3.8c0-1.6-.2-2.8-.7-3.7-.5-.8-1.2-1.2-2.2-1.2s-1.7.4-2.2 1.2-.7 2.1-.7 3.7.2 2.8.7 3.7c.5.8 1.2 1.2 2.2 1.2s1.7-.4 2.2-1.2c.4-.8.7-2.1.7-3.7m5.3 6.4c-.2.6-.5 1-.9 1.4l1.4 1.2c.6-.6 1-1.2 1.3-2 .3-.7.4-1.7.4-2.7h-1.9q.15 1.2-.3 2.1m-28.3 20.4h-6.8c.3-.3.5-.7.8-1 .5-.5 1.2-1.1 2-1.9.8-.7 1.5-1.3 1.9-1.8.5-.5.9-1 1.2-1.6s.5-1.2.5-1.9-.2-1.4-.5-2-.8-1-1.4-1.3-1.3-.5-2.2-.5q-1.8 0-3 .9c-.8.6-1.4 1.5-1.8 2.6l1.7.9c.3-.8.6-1.4 1.1-1.8s1-.6 1.7-.6 1.2.2 1.6.5.6.8.6 1.4c0 .5-.1 1-.4 1.4-.3.5-.7.9-1.1 1.4-.4.4-1 1-1.7 1.6-.5.4-1 .8-1.4 1.2s-.8.7-1.1 1.2c-.4.4-.7.8-.9 1.3v2h9.1v-2zm12.4-8.7c.4 1 .6 2.3.6 3.8s-.2 2.7-.6 3.8c-.4 1-1 1.9-1.8 2.4-.8.6-1.7.8-2.8.8s-2-.3-2.8-.8q-1.2-.9-1.8-2.4c-.4-1-.6-2.3-.6-3.8s.2-2.7.6-3.8c.4-1 1-1.9 1.8-2.4.8-.6 1.7-.8 2.8-.8s2 .3 2.8.8q1.05.9 1.8 2.4m-1.7 3.8c0-1.6-.2-2.8-.7-3.7-.5-.8-1.2-1.2-2.2-1.2s-1.7.4-2.2 1.2-.7 2.1-.7 3.7.2 2.8.7 3.7c.5.8 1.2 1.2 2.2 1.2s1.7-.4 2.2-1.2c.5-.9.7-2.1.7-3.7m13.9-3.8c.4 1 .6 2.3.6 3.8s-.2 2.7-.6 3.8c-.4 1-1 1.9-1.8 2.4-.8.6-1.7.8-2.8.8s-2-.3-2.8-.8q-1.2-.9-1.8-2.4c-.4-1-.6-2.3-.6-3.8s.2-2.7.6-3.8c.4-1 1-1.9 1.8-2.4.8-.6 1.7-.8 2.8-.8s2 .3 2.8.8q1.2.9 1.8 2.4m-1.6 3.8c0-1.6-.2-2.8-.7-3.7-.5-.8-1.2-1.2-2.2-1.2s-1.7.4-2.2 1.2-.7 2.1-.7 3.7.2 2.8.7 3.7c.5.8 1.2 1.2 2.2 1.2s1.7-.4 2.2-1.2c.4-.9.7-2.1.7-3.7M933.4 789c.3.6.5 1.4.5 2.3s-.2 1.8-.6 2.5-.9 1.2-1.7 1.6c-.7.4-1.6.6-2.6.6-1.5 0-2.7-.5-3.5-1.3-.8-.9-1.3-2.2-1.3-3.9 0-1.5.3-2.8.8-4s1.3-2.2 2.3-3q1.5-1.2 3.6-1.8l.7 1.7c-1.2.4-2.3.9-3.1 1.5s-1.4 1.4-1.8 2.3c-.1.2-.1.4-.2.5.2-.2.5-.3.7-.4.6-.3 1.3-.5 2.1-.5.9 0 1.6.2 2.3.5 1 .2 1.5.7 1.8 1.4m-1.4 2.3c0-.7-.2-1.3-.7-1.7s-1.1-.6-1.9-.6c-1.1 0-2 .3-2.9.9 0 .3-.1.6-.1.9 0 1.1.2 1.9.7 2.5s1.2.8 2 .8c.9 0 1.6-.2 2.1-.7s.8-1.3.8-2.1m14-6.2c.4 1 .6 2.3.6 3.8s-.2 2.7-.6 3.8c-.4 1-1 1.9-1.8 2.4-.8.6-1.7.8-2.8.8s-2-.3-2.8-.8q-1.2-.9-1.8-2.4c-.4-1-.6-2.3-.6-3.8s.2-2.7.6-3.8c.4-1 1-1.9 1.8-2.4.8-.6 1.7-.8 2.8-.8s2 .3 2.8.8q1.2.9 1.8 2.4m-1.6 3.8c0-1.6-.2-2.8-.7-3.7-.5-.8-1.2-1.2-2.2-1.2s-1.7.4-2.2 1.2-.7 2.1-.7 3.7.2 2.8.7 3.7c.5.8 1.2 1.2 2.2 1.2s1.7-.4 2.2-1.2c.4-.8.7-2.1.7-3.7m13.9-3.8c.4 1 .6 2.3.6 3.8s-.2 2.7-.6 3.8c-.4 1-1 1.9-1.8 2.4-.8.6-1.7.8-2.8.8s-2-.3-2.8-.8q-1.2-.9-1.8-2.4c-.4-1-.6-2.3-.6-3.8s.2-2.7.6-3.8c.4-1 1-1.9 1.8-2.4.8-.6 1.7-.8 2.8-.8s2 .3 2.8.8q1.2.9 1.8 2.4m-1.6 3.8c0-1.6-.2-2.8-.7-3.7-.5-.8-1.2-1.2-2.2-1.2s-1.7.4-2.2 1.2-.7 2.1-.7 3.7.2 2.8.7 3.7c.5.8 1.2 1.2 2.2 1.2s1.7-.4 2.2-1.2c.4-.8.7-2.1.7-3.7m5.3 6.4c-.2.6-.5 1-.9 1.4l1.4 1.2c.6-.6 1-1.2 1.3-2 .3-.7.4-1.7.4-2.7h-1.9q0 1.2-.3 2.1M931.5 810c-.5-.3-1.2-.5-1.9-.7.6-.4 1.1-.8 1.6-1.2.8-.7 1.5-1.4 2.2-2.2v-2h-8.1v2h5.5c-.4.5-.9 1-1.4 1.4-.6.5-1.3 1-2 1.5v1.8c1.4.2 2.5.5 3.3 1s1.2 1.1 1.2 2c0 .7-.2 1.2-.7 1.6s-1.1.6-2 .6c-.5 0-1-.1-1.3-.3-.4-.2-.7-.4-.9-.8q-.45-.45-.6-1.2l-2 .8c.4 1.1 1 2 1.8 2.6s1.8.9 3.1.9c1 0 1.9-.2 2.6-.5s1.3-.8 1.7-1.5.6-1.4.6-2.3q0-1.2-.6-2.1c-.6-.9-1.3-1-2.1-1.4m14.5-3c.4 1 .6 2.3.6 3.8s-.2 2.7-.6 3.8c-.4 1-1 1.9-1.8 2.4-.8.6-1.7.8-2.8.8s-2-.3-2.8-.8q-1.2-.9-1.8-2.4c-.4-1-.6-2.3-.6-3.8s.2-2.7.6-3.8c.4-1 1-1.9 1.8-2.4.8-.6 1.7-.8 2.8-.8s2 .3 2.8.8q1.2.9 1.8 2.4m-1.6 3.8c0-1.6-.2-2.8-.7-3.7s-1.2-1.2-2.2-1.2-1.7.4-2.2 1.2-.7 2.1-.7 3.7.2 2.8.7 3.7c.5.8 1.2 1.2 2.2 1.2s1.7-.4 2.2-1.2c.4-.9.7-2.1.7-3.7m13.9-3.8c.4 1 .6 2.3.6 3.8s-.2 2.7-.6 3.8c-.4 1-1 1.9-1.8 2.4-.8.6-1.7.8-2.8.8s-2-.3-2.8-.8q-1.2-.9-1.8-2.4c-.4-1-.6-2.3-.6-3.8s.2-2.7.6-3.8c.4-1 1-1.9 1.8-2.4.8-.6 1.7-.8 2.8-.8s2 .3 2.8.8q1.2.9 1.8 2.4m-1.6 3.8c0-1.6-.2-2.8-.7-3.7s-1.2-1.2-2.2-1.2-1.7.4-2.2 1.2-.7 2.1-.7 3.7.2 2.8.7 3.7c.5.8 1.2 1.2 2.2 1.2s1.7-.4 2.2-1.2c.4-.9.7-2.1.7-3.7m-123-22c-.3-.6-.5-1.4-.5-2.3s.2-1.8.6-2.5.9-1.2 1.7-1.6c.7-.4 1.6-.6 2.6-.6 1.5 0 2.7.5 3.5 1.4s1.3 2.2 1.3 3.9c0 1.5-.3 2.8-.8 4s-1.3 2.2-2.3 3q-1.5 1.2-3.6 1.8l-.7-1.7c1.2-.4 2.3-.9 3.1-1.5s1.4-1.4 1.8-2.3c.1-.2.1-.4.2-.5-.2.2-.5.3-.7.4-.6.3-1.3.5-2.1.5-.9 0-1.6-.2-2.3-.5-1-.4-1.5-.8-1.8-1.5m1.4-2.2c0 .7.2 1.3.7 1.7s1.1.6 1.9.6c1.1 0 2-.3 2.9-.9 0-.3.1-.6.1-.9 0-1.1-.2-1.9-.7-2.5s-1.2-.8-2-.8c-.9 0-1.6.2-2.1.7s-.8 1.2-.8 2.1m19.7-1.5c.4 1 .6 2.3.6 3.8s-.2 2.7-.6 3.8c-.4 1-1 1.9-1.8 2.4-.8.6-1.7.8-2.8.8s-2-.3-2.8-.8q-1.2-.9-1.8-2.4c-.4-1-.6-2.3-.6-3.8s.2-2.7.6-3.8c.4-1 1-1.9 1.8-2.4.8-.6 1.7-.8 2.8-.8s2 .3 2.8.8q1.2.9 1.8 2.4m-1.6 3.8c0-1.6-.2-2.8-.7-3.7-.5-.8-1.2-1.2-2.2-1.2s-1.7.4-2.2 1.2-.7 2.1-.7 3.7.2 2.8.7 3.7c.5.8 1.2 1.2 2.2 1.2s1.7-.4 2.2-1.2c.4-.8.7-2.1.7-3.7m13.9-3.8c.4 1 .6 2.3.6 3.8s-.2 2.7-.6 3.8c-.4 1-1 1.9-1.8 2.4-.8.6-1.7.8-2.8.8s-2-.3-2.8-.8q-1.2-.9-1.8-2.4c-.4-1-.6-2.3-.6-3.8s.2-2.7.6-3.8c.4-1 1-1.9 1.8-2.4.8-.6 1.7-.8 2.8-.8s2 .3 2.8.8q1.05.9 1.8 2.4m-1.6 3.8c0-1.6-.2-2.8-.7-3.7-.5-.8-1.2-1.2-2.2-1.2s-1.7.4-2.2 1.2-.7 2.1-.7 3.7.2 2.8.7 3.7c.5.8 1.2 1.2 2.2 1.2s1.7-.4 2.2-1.2c.4-.8.7-2.1.7-3.7m5.3 6.4c-.2.6-.5 1-.9 1.4l1.4 1.2c.6-.6 1-1.2 1.3-2 .3-.7.4-1.7.4-2.7h-1.9q0 1.2-.3 2.1m-29.2 17.9h1.7v2h-1.7v2.5h-2v-2.5h-6.8v-2c1.4-1.4 2.6-2.9 3.7-4.4q1.65-2.4 3-4.8h2v9.2zm-2 0v-5.8c-.5.9-1 1.7-1.6 2.5-.8 1.1-1.6 2.2-2.5 3.2h4.1zm13.4-3.9c-.6-.3-1.4-.5-2.2-.5q-.9 0-1.8.3c-.3.1-.6.2-.8.4l.3-3.6h5.4v-2h-7.2l-.6 7.4h1.9c.3-.3.7-.6 1.1-.7.4-.2.8-.2 1.2-.2.8 0 1.4.2 1.9.7.4.5.7 1.1.7 2s-.2 1.6-.7 2.1-1.2.7-2.1.7c-.7 0-1.3-.2-1.8-.5-.5-.4-.9-.9-1.2-1.7l-1.8.9c.5 1.1 1.2 1.9 1.9 2.5.8.5 1.7.8 2.8.8 1 0 1.9-.2 2.6-.6s1.2-.9 1.6-1.7q.6-1.05.6-2.7c0-.9-.2-1.6-.5-2.2-.2-.7-.6-1.1-1.3-1.4m14.1-2.3c.4 1 .6 2.3.6 3.8s-.2 2.7-.6 3.8c-.4 1-1 1.9-1.8 2.4-.8.6-1.7.8-2.8.8s-2-.3-2.8-.8q-1.2-.9-1.8-2.4c-.4-1-.6-2.3-.6-3.8s.2-2.7.6-3.8c.4-1 1-1.9 1.8-2.4.8-.6 1.7-.8 2.8-.8s2 .3 2.8.8q1.05.9 1.8 2.4m-1.6 3.8c0-1.6-.2-2.8-.7-3.7s-1.2-1.2-2.2-1.2-1.7.4-2.2 1.2-.7 2.1-.7 3.7.2 2.8.7 3.7c.5.8 1.2 1.2 2.2 1.2s1.7-.4 2.2-1.2c.4-.9.7-2.1.7-3.7m-115.3-27.5c.8.9 1.3 2.2 1.3 3.9 0 1.5-.3 2.8-.8 4s-1.3 2.2-2.3 3q-1.5 1.2-3.6 1.8l-.7-1.7c1.2-.4 2.3-.9 3.1-1.5s1.4-1.4 1.8-2.3c.1-.2.1-.4.2-.5-.2.2-.5.3-.7.4-.6.3-1.3.5-2.1.5-.9 0-1.6-.2-2.3-.5q-.9-.45-1.5-1.5c-.3-.6-.5-1.4-.5-2.3s.2-1.8.6-2.5.9-1.2 1.7-1.6c.7-.4 1.6-.6 2.6-.6 1.2 0 2.4.5 3.2 1.4m-.8 4.7c0-.3.1-.6.1-.9 0-1.1-.2-1.9-.7-2.5s-1.2-.8-2-.8c-.9 0-1.6.2-2.1.7s-.7 1.2-.7 2c0 .7.2 1.3.7 1.7s1.1.6 1.9.6c1 .1 1.9-.2 2.8-.8m14.2-2.9c.4 1 .6 2.3.6 3.8s-.2 2.7-.6 3.8c-.4 1-1 1.9-1.8 2.4-.8.6-1.7.8-2.8.8s-2-.3-2.8-.8q-1.2-.9-1.8-2.4c-.4-1-.6-2.3-.6-3.8s.2-2.7.6-3.8c.4-1 1-1.9 1.8-2.4.8-.6 1.7-.8 2.8-.8s2 .3 2.8.8q1.05.9 1.8 2.4m-1.7 3.8c0-1.6-.2-2.8-.7-3.7-.5-.8-1.2-1.2-2.2-1.2s-1.7.4-2.2 1.2-.7 2.1-.7 3.7.2 2.8.7 3.7c.5.8 1.2 1.2 2.2 1.2s1.7-.4 2.2-1.2.7-2.1.7-3.7m13.9-3.8c.4 1 .6 2.3.6 3.8s-.2 2.7-.6 3.8c-.4 1-1 1.9-1.8 2.4-.8.6-1.7.8-2.8.8s-2-.3-2.8-.8q-1.2-.9-1.8-2.4c-.4-1-.6-2.3-.6-3.8s.2-2.7.6-3.8c.4-1 1-1.9 1.8-2.4.8-.6 1.7-.8 2.8-.8s2 .3 2.8.8q1.2.9 1.8 2.4m-1.6 3.8c0-1.6-.2-2.8-.7-3.7-.5-.8-1.2-1.2-2.2-1.2s-1.7.4-2.2 1.2-.7 2.1-.7 3.7.2 2.8.7 3.7c.5.8 1.2 1.2 2.2 1.2s1.7-.4 2.2-1.2.7-2.1.7-3.7m5.3 6.4c-.2.6-.5 1-.9 1.4l1.4 1.2c.6-.6 1-1.2 1.3-2 .3-.7.4-1.7.4-2.7h-1.9q.15 1.2-.3 2.1m-29.3 9.9c.8.9 1.3 2.2 1.3 3.9 0 1.5-.3 2.8-.8 4s-1.3 2.2-2.3 3q-1.5 1.2-3.6 1.8l-.7-1.7c1.2-.4 2.3-.9 3.1-1.5s1.4-1.4 1.8-2.3c.1-.2.1-.4.2-.5-.2.2-.5.3-.7.4-.6.3-1.3.5-2.1.5-.9 0-1.6-.2-2.3-.5q-.9-.45-1.5-1.5c-.3-.6-.5-1.4-.5-2.3s.2-1.8.6-2.5.9-1.2 1.7-1.6c.7-.4 1.6-.6 2.6-.6 1.2 0 2.4.5 3.2 1.4m-.8 4.7c0-.3.1-.6.1-.9 0-1.1-.2-1.9-.7-2.5s-1.2-.8-2-.8c-.9 0-1.6.2-2.1.7s-.7 1.2-.7 2c0 .7.2 1.3.7 1.7s1.1.6 1.9.6c1 .1 1.9-.2 2.8-.8m14.2-2.9c.4 1 .6 2.3.6 3.8s-.2 2.7-.6 3.8c-.4 1-1 1.9-1.8 2.4-.8.6-1.7.8-2.8.8s-2-.3-2.8-.8q-1.2-.9-1.8-2.4c-.4-1-.6-2.3-.6-3.8s.2-2.7.6-3.8c.4-1 1-1.9 1.8-2.4.8-.6 1.7-.8 2.8-.8s2 .3 2.8.8q1.05.9 1.8 2.4m-1.7 3.8c0-1.6-.2-2.8-.7-3.7-.5-.8-1.2-1.2-2.2-1.2s-1.7.4-2.2 1.2-.7 2.1-.7 3.7.2 2.8.7 3.7c.5.8 1.2 1.2 2.2 1.2s1.7-.4 2.2-1.2c.5-.9.7-2.1.7-3.7m13.9-3.8c.4 1 .6 2.3.6 3.8s-.2 2.7-.6 3.8c-.4 1-1 1.9-1.8 2.4-.8.6-1.7.8-2.8.8s-2-.3-2.8-.8q-1.2-.9-1.8-2.4c-.4-1-.6-2.3-.6-3.8s.2-2.7.6-3.8c.4-1 1-1.9 1.8-2.4.8-.6 1.7-.8 2.8-.8s2 .3 2.8.8q1.2.9 1.8 2.4m-1.6 3.8c0-1.6-.2-2.8-.7-3.7s-1.2-1.2-2.2-1.2-1.7.4-2.2 1.2-.7 2.1-.7 3.7.2 2.8.7 3.7c.5.8 1.2 1.2 2.2 1.2s1.7-.4 2.2-1.2c.5-.9.7-2.1.7-3.7m-115.1-19.5h1.7v2h-1.7v2.5h-2v-2.5h-6.8v-2c1.4-1.4 2.6-2.9 3.7-4.4q1.65-2.4 3-4.8h2v9.2zm-2 0v-5.8c-.5.9-1 1.7-1.6 2.5-.8 1.1-1.6 2.2-2.5 3.2h4.1zm10.7 2.6c-.7 0-1.3-.2-1.8-.5s-.9-.9-1.2-1.7l-1.8.9c.5 1.1 1.2 1.9 1.9 2.5.8.5 1.7.8 2.8.8 1 0 1.9-.2 2.6-.6s1.2-.9 1.6-1.7q.6-1.05.6-2.7c0-.9-.2-1.6-.5-2.2s-.8-1.1-1.4-1.4-1.4-.5-2.2-.5q-.9 0-1.8.3c-.3.1-.6.2-.8.4l.3-3.6h5.4v-2h-7.2l-.6 7.4h1.9c.3-.3.7-.6 1.1-.7s.8-.2 1.2-.2c.8 0 1.4.2 1.9.7.4.5.7 1.1.7 2s-.2 1.6-.7 2.1-1.2.7-2 .7m16.8-8.8c.4 1 .6 2.3.6 3.8s-.2 2.7-.6 3.8c-.4 1-1 1.9-1.8 2.4-.8.6-1.7.8-2.8.8s-2-.3-2.8-.8q-1.2-.9-1.8-2.4c-.4-1-.6-2.3-.6-3.8s.2-2.7.6-3.8c.4-1 1-1.9 1.8-2.4.8-.6 1.7-.8 2.8-.8s2 .3 2.8.8q1.2.9 1.8 2.4m-1.6 3.8c0-1.6-.2-2.8-.7-3.7-.5-.8-1.2-1.2-2.2-1.2s-1.7.4-2.2 1.2-.7 2.1-.7 3.7.2 2.8.7 3.7c.5.8 1.2 1.2 2.2 1.2s1.7-.4 2.2-1.2c.4-.8.7-2.1.7-3.7m5.3 6.4c-.2.6-.5 1-.9 1.4l1.4 1.2c.6-.6 1-1.2 1.3-2 .3-.7.4-1.7.4-2.7h-1.9c.1.8-.1 1.5-.3 2.1m-29.3 9.9c.8.9 1.3 2.2 1.3 3.9 0 1.5-.3 2.8-.8 4s-1.3 2.2-2.3 3q-1.5 1.2-3.6 1.8l-.7-1.7c1.2-.4 2.3-.9 3.1-1.5s1.4-1.4 1.8-2.3c.1-.2.1-.4.2-.5-.2.2-.5.3-.7.4-.6.3-1.3.5-2.1.5-.9 0-1.6-.2-2.3-.5q-.9-.45-1.5-1.5c-.3-.6-.5-1.4-.5-2.3s.2-1.8.6-2.5.9-1.2 1.7-1.6c.7-.4 1.6-.6 2.6-.6 1.2 0 2.4.5 3.2 1.4m-.8 4.7c0-.3.1-.6.1-.9 0-1.1-.2-1.9-.7-2.5s-1.2-.8-2-.8c-.9 0-1.6.2-2.1.7s-.7 1.2-.7 2c0 .7.2 1.3.7 1.7s1.1.6 1.9.6c1 .1 1.9-.2 2.8-.8m14.1-2.9c.4 1 .6 2.3.6 3.8s-.2 2.7-.6 3.8c-.4 1-1 1.9-1.8 2.4-.8.6-1.7.8-2.8.8s-2-.3-2.8-.8q-1.2-.9-1.8-2.4c-.4-1-.6-2.3-.6-3.8s.2-2.7.6-3.8c.4-1 1-1.9 1.8-2.4.8-.6 1.7-.8 2.8-.8s2 .3 2.8.8q1.2.9 1.8 2.4m-1.6 3.8c0-1.6-.2-2.8-.7-3.7-.5-.8-1.2-1.2-2.2-1.2s-1.7.4-2.2 1.2-.7 2.1-.7 3.7.2 2.8.7 3.7c.5.8 1.2 1.2 2.2 1.2s1.7-.4 2.2-1.2c.4-.9.7-2.1.7-3.7m13.9-3.8c.4 1 .6 2.3.6 3.8s-.2 2.7-.6 3.8c-.4 1-1 1.9-1.8 2.4-.8.6-1.7.8-2.8.8s-2-.3-2.8-.8q-1.2-.9-1.8-2.4c-.4-1-.6-2.3-.6-3.8s.2-2.7.6-3.8c.4-1 1-1.9 1.8-2.4.8-.6 1.7-.8 2.8-.8s2 .3 2.8.8q1.2.9 1.8 2.4m-1.6 3.8c0-1.6-.2-2.8-.7-3.7-.5-.8-1.2-1.2-2.2-1.2s-1.7.4-2.2 1.2-.7 2.1-.7 3.7.2 2.8.7 3.7c.5.8 1.2 1.2 2.2 1.2s1.7-.4 2.2-1.2c.4-.9.7-2.1.7-3.7m-118.8-16.9c-.5 0-1-.1-1.3-.3-.4-.2-.7-.4-.9-.8q-.45-.45-.6-1.2l-2 .8c.4 1.1 1 2 1.8 2.6s1.8.9 3.1.9c1 0 1.9-.2 2.6-.5s1.3-.9 1.7-1.5c.4-.7.6-1.4.6-2.3q0-1.2-.6-2.1c-.4-.6-1-1.1-1.8-1.4-.5-.3-1.2-.5-1.9-.7.6-.4 1.1-.8 1.6-1.2.8-.7 1.5-1.4 2.2-2.2v-2h-8.1v2h5.5c-.4.5-.9 1-1.4 1.4-.6.5-1.3 1-2 1.5v1.8c1.4.2 2.5.5 3.3 1s1.2 1.1 1.2 2c0 .7-.2 1.2-.7 1.6-.7.4-1.4.6-2.3.6m7.8-1.2c-.4-1-.6-2.3-.6-3.8s.2-2.7.6-3.8c.4-1 1-1.9 1.8-2.4.8-.6 1.7-.8 2.8-.8s2 .3 2.8.8q1.2.9 1.8 2.4c.4 1 .6 2.3.6 3.8s-.2 2.7-.6 3.8c-.4 1-1 1.9-1.8 2.4-.8.6-1.7.8-2.8.8s-2-.3-2.8-.8q-1.2-.9-1.8-2.4m1.6-3.8c0 1.6.2 2.8.7 3.7.5.8 1.2 1.2 2.2 1.2s1.7-.4 2.2-1.2.7-2.1.7-3.7-.2-2.8-.7-3.7c-.5-.8-1.2-1.2-2.2-1.2s-1.7.4-2.2 1.2c-.5.9-.7 2.1-.7 3.7m10.6 3.8c-.4-1-.6-2.3-.6-3.8s.2-2.7.6-3.8c.4-1 1-1.9 1.8-2.4.8-.6 1.7-.8 2.8-.8s2 .3 2.8.8q1.2.9 1.8 2.4c.4 1 .6 2.3.6 3.8s-.2 2.7-.6 3.8c-.4 1-1 1.9-1.8 2.4-.8.6-1.7.8-2.8.8s-2-.3-2.8-.8c-.8-.6-1.3-1.4-1.8-2.4m1.7-3.8c0 1.6.2 2.8.7 3.7.5.8 1.2 1.2 2.2 1.2s1.7-.4 2.2-1.2.7-2.1.7-3.7-.2-2.8-.7-3.7c-.5-.8-1.2-1.2-2.2-1.2s-1.7.4-2.2 1.2c-.5.9-.7 2.1-.7 3.7m13.5 4.3h-1.9q0 1.2-.3 2.1c-.2.6-.5 1.1-.9 1.4l1.4 1.2c.6-.6 1-1.2 1.3-2 .2-.8.4-1.7.4-2.7m-30.9 17.7c.3.6.5 1.4.5 2.3s-.2 1.8-.6 2.5-.9 1.2-1.7 1.6c-.7.4-1.6.6-2.6.6-1.5 0-2.7-.5-3.5-1.3-.8-.9-1.3-2.2-1.3-3.9 0-1.5.3-2.8.8-4s1.3-2.2 2.3-3q1.5-1.2 3.6-1.8l.7 1.7c-1.2.4-2.3.9-3.1 1.5s-1.4 1.4-1.8 2.3c-.1.2-.1.4-.2.5.2-.2.5-.3.7-.4.6-.3 1.3-.5 2.1-.5.9 0 1.6.2 2.3.5 1 .2 1.5.7 1.8 1.4m-1.4 2.2c0-.7-.2-1.3-.7-1.7s-1.1-.6-1.9-.6c-1.1 0-2 .3-2.9.9 0 .3-.1.6-.1.9 0 1.1.2 1.9.7 2.5s1.2.8 2 .8c.9 0 1.6-.2 2.1-.7s.8-1.2.8-2.1m14 1.4c-.4 1-1 1.9-1.8 2.4-.8.6-1.7.8-2.8.8s-2-.3-2.8-.8q-1.2-.9-1.8-2.4c-.4-1-.6-2.3-.6-3.8s.2-2.7.6-3.8c.4-1 1-1.9 1.8-2.4.8-.6 1.7-.8 2.8-.8s2 .3 2.8.8q1.2.9 1.8 2.4c.4 1 .6 2.3.6 3.8s-.2 2.8-.6 3.8m-1.6-3.7c0-1.6-.2-2.8-.7-3.7-.5-.8-1.2-1.2-2.2-1.2s-1.7.4-2.2 1.2-.7 2.1-.7 3.7.2 2.8.7 3.7c.5.8 1.2 1.2 2.2 1.2s1.7-.4 2.2-1.2c.4-.9.7-2.1.7-3.7m4.7 3.7c-.4-1-.6-2.3-.6-3.8s.2-2.7.6-3.8c.4-1 1-1.9 1.8-2.4.8-.6 1.7-.8 2.8-.8s2 .3 2.8.8q1.2.9 1.8 2.4c.4 1 .6 2.3.6 3.8s-.2 2.7-.6 3.8c-.4 1-1 1.9-1.8 2.4-.8.6-1.7.8-2.8.8s-2-.3-2.8-.8-1.3-1.3-1.8-2.4m1.7-3.7c0 1.6.2 2.8.7 3.7.5.8 1.2 1.2 2.2 1.2s1.7-.4 2.2-1.2.7-2.1.7-3.7-.2-2.8-.7-3.7c-.5-.8-1.2-1.2-2.2-1.2s-1.7.4-2.2 1.2-.7 2.1-.7 3.7m-473.5-16.9h-2.9V782h-2.1c-.3.9-.8 1.6-1.4 2.3s-1.3 1.2-2.2 1.7l.8 1.7c1.1-.6 2-1.3 2.8-2.3v8.5h-3.7v1.8h8.7zm12.6-8.8c.4 1 .6 2.3.6 3.8s-.2 2.7-.6 3.8c-.4 1-1 1.9-1.8 2.4-.8.6-1.7.8-2.8.8s-2-.3-2.8-.8q-1.2-.9-1.8-2.4c-.4-1-.6-2.3-.6-3.8s.2-2.7.6-3.8c.4-1 1-1.9 1.8-2.4.8-.6 1.7-.8 2.8-.8s2 .3 2.8.8q1.05.9 1.8 2.4m-1.7 3.8c0-1.6-.2-2.8-.7-3.7-.5-.8-1.2-1.2-2.2-1.2s-1.7.4-2.2 1.2-.7 2.1-.7 3.7.2 2.8.7 3.7c.5.8 1.2 1.2 2.2 1.2s1.7-.4 2.2-1.2.7-2.1.7-3.7m13.9-3.8c.4 1 .6 2.3.6 3.8s-.2 2.7-.6 3.8c-.4 1-1 1.9-1.8 2.4-.8.6-1.7.8-2.8.8s-2-.3-2.8-.8q-1.2-.9-1.8-2.4c-.4-1-.6-2.3-.6-3.8s.2-2.7.6-3.8c.4-1 1-1.9 1.8-2.4.8-.6 1.7-.8 2.8-.8s2 .3 2.8.8q1.2.9 1.8 2.4m-1.6 3.8c0-1.6-.2-2.8-.7-3.7-.5-.8-1.2-1.2-2.2-1.2s-1.7.4-2.2 1.2-.7 2.1-.7 3.7.2 2.8.7 3.7c.5.8 1.2 1.2 2.2 1.2s1.7-.4 2.2-1.2.7-2.1.7-3.7m5.4 6.4c-.2.6-.5 1-.9 1.4l1.4 1.2c.6-.6 1-1.2 1.3-2 .3-.7.4-1.7.4-2.7h-1.9q0 1.2-.3 2.1m-28.4 20.4h-6.8c.3-.3.5-.7.8-1 .5-.5 1.2-1.1 2-1.9.8-.7 1.5-1.3 1.9-1.8s.9-1 1.2-1.6.5-1.2.5-1.9-.2-1.4-.5-2-.8-1-1.4-1.3-1.3-.5-2.2-.5q-1.8 0-3 .9c-.8.6-1.4 1.5-1.8 2.6l1.7.9c.3-.8.6-1.4 1.1-1.8s1.1-.6 1.7-.6c.7 0 1.2.2 1.6.5s.6.8.6 1.4c0 .5-.1 1-.4 1.4-.3.5-.7.9-1.1 1.4-.4.4-1 1-1.7 1.6-.5.4-1 .8-1.4 1.2s-.8.7-1.1 1.2c-.4.4-.7.8-.9 1.3v2h9.1v-2zM125 807c.4 1 .6 2.3.6 3.8s-.2 2.7-.6 3.8c-.4 1-1 1.9-1.8 2.4-.8.6-1.7.8-2.8.8s-2-.3-2.8-.8q-1.2-.9-1.8-2.4c-.4-1-.6-2.3-.6-3.8s.2-2.7.6-3.8c.4-1 1-1.9 1.8-2.4.8-.6 1.7-.8 2.8-.8s2 .3 2.8.8q1.05.9 1.8 2.4m-1.7 3.8c0-1.6-.2-2.8-.7-3.7-.5-.8-1.2-1.2-2.2-1.2s-1.7.4-2.2 1.2-.7 2.1-.7 3.7.2 2.8.7 3.7c.5.8 1.2 1.2 2.2 1.2s1.7-.4 2.2-1.2c.5-.9.7-2.1.7-3.7m13.9-3.8c.4 1 .6 2.3.6 3.8s-.2 2.7-.6 3.8c-.4 1-1 1.9-1.8 2.4-.8.6-1.7.8-2.8.8s-2-.3-2.8-.8q-1.2-.9-1.8-2.4c-.4-1-.6-2.3-.6-3.8s.2-2.7.6-3.8c.4-1 1-1.9 1.8-2.4.8-.6 1.7-.8 2.8-.8s2 .3 2.8.8q1.2.9 1.8 2.4m-1.6 3.8c0-1.6-.2-2.8-.7-3.7-.5-.8-1.2-1.2-2.2-1.2s-1.7.4-2.2 1.2-.7 2.1-.7 3.7.2 2.8.7 3.7c.5.8 1.2 1.2 2.2 1.2s1.7-.4 2.2-1.2c.5-.9.7-2.1.7-3.7m68.1-16.9h-2.9V782h-2.1c-.3.9-.8 1.6-1.4 2.3s-1.3 1.2-2.2 1.7l.8 1.7c1.1-.6 2-1.3 2.8-2.3v8.5H195v1.8h8.7zm7.9 0c-.7 0-1.3-.2-1.8-.5-.5-.4-.9-.9-1.2-1.7l-1.8.9c.5 1.1 1.2 1.9 1.9 2.5.8.5 1.7.8 2.8.8 1 0 1.9-.2 2.6-.6s1.2-.9 1.6-1.7q.6-1.05.6-2.7c0-.9-.2-1.6-.5-2.2s-.8-1.1-1.4-1.4-1.4-.5-2.2-.5q-.9 0-1.8.3c-.3.1-.6.2-.8.4l.3-3.6h5.4v-2h-7.2l-.6 7.4h1.9c.3-.3.7-.6 1.1-.7.4-.2.8-.2 1.2-.2.8 0 1.4.2 1.9.7.4.5.7 1.1.7 2s-.2 1.6-.7 2.1c-.4.5-1.1.7-2 .7m16.9-8.8c.4 1 .6 2.3.6 3.8s-.2 2.7-.6 3.8c-.4 1-1 1.9-1.8 2.4-.8.6-1.7.8-2.8.8s-2-.3-2.8-.8q-1.2-.9-1.8-2.4c-.4-1-.6-2.3-.6-3.8s.2-2.7.6-3.8c.4-1 1-1.9 1.8-2.4.8-.6 1.7-.8 2.8-.8s2 .3 2.8.8c.8.6 1.3 1.4 1.8 2.4m-1.7 3.8c0-1.6-.2-2.8-.7-3.7-.5-.8-1.2-1.2-2.2-1.2s-1.7.4-2.2 1.2-.7 2.1-.7 3.7.2 2.8.7 3.7c.5.8 1.2 1.2 2.2 1.2s1.7-.4 2.2-1.2.7-2.1.7-3.7m5.4 6.4c-.2.6-.5 1-.9 1.4l1.4 1.2c.6-.6 1-1.2 1.3-2 .3-.7.4-1.7.4-2.7h-1.9q0 1.2-.3 2.1M201.7 810c-.5-.3-1.2-.5-1.9-.7.6-.4 1.1-.8 1.6-1.2.8-.7 1.5-1.4 2.2-2.2v-2h-8.1v2h5.5c-.4.5-.9 1-1.4 1.4-.6.5-1.3 1-2 1.5v1.8c1.4.2 2.5.5 3.3 1s1.2 1.1 1.2 2c0 .7-.2 1.2-.7 1.6s-1.1.6-2 .6c-.5 0-1-.1-1.3-.3-.4-.2-.7-.4-.9-.8q-.45-.45-.6-1.2l-2 .8c.4 1.1 1 2 1.8 2.6s1.8.9 3.1.9c1 0 1.9-.2 2.6-.5s1.3-.8 1.7-1.5.6-1.4.6-2.3q0-1.2-.6-2.1c-.7-.5-1.3-1-2.1-1.4m14.5-3c.4 1 .6 2.3.6 3.8s-.2 2.7-.6 3.8c-.4 1-1 1.9-1.8 2.4-.8.6-1.7.8-2.8.8s-2-.3-2.8-.8q-1.2-.9-1.8-2.4c-.4-1-.6-2.3-.6-3.8s.2-2.7.6-3.8c.4-1 1-1.9 1.8-2.4.8-.6 1.7-.8 2.8-.8s2 .3 2.8.8q1.2.9 1.8 2.4m-1.6 3.8c0-1.6-.2-2.8-.7-3.7s-1.2-1.2-2.2-1.2-1.7.4-2.2 1.2-.7 2.1-.7 3.7.2 2.8.7 3.7c.5.8 1.2 1.2 2.2 1.2s1.7-.4 2.2-1.2c.4-.9.7-2.1.7-3.7m13.9-3.8c.4 1 .6 2.3.6 3.8s-.2 2.7-.6 3.8c-.4 1-1 1.9-1.8 2.4-.8.6-1.7.8-2.8.8s-2-.3-2.8-.8q-1.2-.9-1.8-2.4c-.4-1-.6-2.3-.6-3.8s.2-2.7.6-3.8c.4-1 1-1.9 1.8-2.4.8-.6 1.7-.8 2.8-.8s2 .3 2.8.8c.8.6 1.3 1.4 1.8 2.4m-1.7 3.8c0-1.6-.2-2.8-.7-3.7s-1.2-1.2-2.2-1.2-1.7.4-2.2 1.2-.7 2.1-.7 3.7.2 2.8.7 3.7c.5.8 1.2 1.2 2.2 1.2s1.7-.4 2.2-1.2c.5-.9.7-2.1.7-3.7m64.3-19.8c.8-.7 1.5-1.3 1.9-1.8.5-.5.9-1 1.2-1.6s.5-1.2.5-1.9-.2-1.4-.5-2-.8-1-1.4-1.3-1.3-.5-2.2-.5q-1.8 0-3 .9c-.8.6-1.4 1.5-1.8 2.6l1.7.9c.3-.8.6-1.4 1.1-1.8s1-.6 1.7-.6 1.2.2 1.6.5.6.8.6 1.4c0 .5-.1 1-.4 1.4-.3.5-.7.9-1.1 1.4-.4.4-1 1-1.7 1.6-.5.4-1 .8-1.4 1.2s-.8.7-1.1 1.2c-.4.4-.7.8-.9 1.3v2h9.1v-2h-6.8c.3-.3.5-.7.8-1 .6-.6 1.3-1.2 2.1-1.9m16.3-5.9c.4 1 .6 2.3.6 3.8s-.2 2.7-.6 3.8c-.4 1-1 1.9-1.8 2.4-.8.6-1.7.8-2.8.8s-2-.3-2.8-.8q-1.2-.9-1.8-2.4c-.4-1-.6-2.3-.6-3.8s.2-2.7.6-3.8c.4-1 1-1.9 1.8-2.4.8-.6 1.7-.8 2.8-.8s2 .3 2.8.8q1.2.9 1.8 2.4m-1.6 3.8c0-1.6-.2-2.8-.7-3.7-.5-.8-1.2-1.2-2.2-1.2s-1.7.4-2.2 1.2-.7 2.1-.7 3.7.2 2.8.7 3.7c.5.8 1.2 1.2 2.2 1.2s1.7-.4 2.2-1.2c.4-.8.7-2.1.7-3.7m13.9-3.8c.4 1 .6 2.3.6 3.8s-.2 2.7-.6 3.8c-.4 1-1 1.9-1.8 2.4-.8.6-1.7.8-2.8.8s-2-.3-2.8-.8q-1.2-.9-1.8-2.4c-.4-1-.6-2.3-.6-3.8s.2-2.7.6-3.8c.4-1 1-1.9 1.8-2.4.8-.6 1.7-.8 2.8-.8s2 .3 2.8.8q1.2.9 1.8 2.4m-1.6 3.8c0-1.6-.2-2.8-.7-3.7-.5-.8-1.2-1.2-2.2-1.2s-1.7.4-2.2 1.2-.7 2.1-.7 3.7.2 2.8.7 3.7c.5.8 1.2 1.2 2.2 1.2s1.7-.4 2.2-1.2c.4-.8.7-2.1.7-3.7m5.3 6.4c-.2.6-.5 1-.9 1.4l1.4 1.2c.6-.6 1-1.2 1.3-2 .3-.7.4-1.7.4-2.7h-1.9c.1.8-.1 1.5-.3 2.1m-29.2 17.9h1.7v2h-1.7v2.5h-2v-2.5h-6.8v-2c1.4-1.4 2.6-2.9 3.7-4.4q1.65-2.4 3-4.8h2v9.2zm-2 0v-5.8c-.5.9-1 1.7-1.6 2.5-.8 1.1-1.6 2.2-2.5 3.2h4.1zm15.2-6.2c.4 1 .6 2.3.6 3.8s-.2 2.7-.6 3.8c-.4 1-1 1.9-1.8 2.4-.8.6-1.7.8-2.8.8s-2-.3-2.8-.8q-1.2-.9-1.8-2.4c-.4-1-.6-2.3-.6-3.8s.2-2.7.6-3.8c.4-1 1-1.9 1.8-2.4.8-.6 1.7-.8 2.8-.8s2 .3 2.8.8q1.2.9 1.8 2.4m-1.6 3.8c0-1.6-.2-2.8-.7-3.7-.5-.8-1.2-1.2-2.2-1.2s-1.7.4-2.2 1.2-.7 2.1-.7 3.7.2 2.8.7 3.7c.5.8 1.2 1.2 2.2 1.2s1.7-.4 2.2-1.2c.4-.9.7-2.1.7-3.7m13.9-3.8c.4 1 .6 2.3.6 3.8s-.2 2.7-.6 3.8c-.4 1-1 1.9-1.8 2.4-.8.6-1.7.8-2.8.8s-2-.3-2.8-.8q-1.2-.9-1.8-2.4c-.4-1-.6-2.3-.6-3.8s.2-2.7.6-3.8c.4-1 1-1.9 1.8-2.4.8-.6 1.7-.8 2.8-.8s2 .3 2.8.8q1.2.9 1.8 2.4m-1.6 3.8c0-1.6-.2-2.8-.7-3.7s-1.2-1.2-2.2-1.2-1.7.4-2.2 1.2-.7 2.1-.7 3.7.2 2.8.7 3.7c.5.8 1.2 1.2 2.2 1.2s1.7-.4 2.2-1.2c.4-.9.7-2.1.7-3.7m152-28c-.8.6-1.4 1.5-1.8 2.6l1.7.9c.3-.8.6-1.4 1.1-1.8s1.1-.6 1.7-.6c.7 0 1.2.2 1.6.5s.6.8.6 1.4c0 .5-.1 1-.4 1.4-.3.5-.7.9-1.1 1.4-.4.4-1 1-1.7 1.6-.5.4-1 .8-1.4 1.2s-.8.7-1.1 1.2c-.4.4-.7.8-.9 1.3v2h9.1v-2h-6.8c.3-.3.5-.7.8-1 .5-.5 1.2-1.1 2-1.9.8-.7 1.5-1.3 1.9-1.8.5-.5.9-1 1.2-1.6s.5-1.2.5-1.9-.2-1.4-.5-2-.8-1-1.4-1.3-1.3-.5-2.2-.5c-1.1 0-2.1.3-2.9.9m12.4-.1c.8-.6 1.7-.8 2.8-.8s2 .3 2.8.8q1.2.9 1.8 2.4c.4 1 .6 2.3.6 3.8s-.2 2.7-.6 3.8c-.4 1-1 1.9-1.8 2.4-.8.6-1.7.8-2.8.8s-2-.3-2.8-.8q-1.2-.9-1.8-2.4c-.4-1-.6-2.3-.6-3.8s.2-2.7.6-3.8q.6-1.5 1.8-2.4m.6 2.5c-.5.8-.7 2.1-.7 3.7s.2 2.8.7 3.7c.5.8 1.2 1.2 2.2 1.2s1.7-.4 2.2-1.2.7-2.1.7-3.7-.2-2.8-.7-3.7c-.5-.8-1.2-1.2-2.2-1.2s-1.7.4-2.2 1.2m11.7-2.5c.8-.6 1.7-.8 2.8-.8s2 .3 2.8.8q1.2.9 1.8 2.4c.4 1 .6 2.3.6 3.8s-.2 2.7-.6 3.8c-.4 1-1 1.9-1.8 2.4-.8.6-1.7.8-2.8.8s-2-.3-2.8-.8q-1.2-.9-1.8-2.4c-.4-1-.6-2.3-.6-3.8s.2-2.7.6-3.8q.6-1.5 1.8-2.4m.6 2.5c-.5.8-.7 2.1-.7 3.7s.2 2.8.7 3.7c.5.8 1.2 1.2 2.2 1.2s1.7-.4 2.2-1.2.7-2.1.7-3.7-.2-2.8-.7-3.7c-.5-.8-1.2-1.2-2.2-1.2s-1.7.4-2.2 1.2m10.5 10.1c-.2.6-.5 1-.9 1.4l1.4 1.2c.6-.6 1-1.2 1.3-2 .3-.7.4-1.7.4-2.7h-1.9q0 1.2-.3 2.1m-29.2 17.9h1.7v2h-1.7v2.5h-2v-2.5h-6.8v-2c1.4-1.4 2.6-2.9 3.7-4.4q1.65-2.4 3-4.8h2v9.2zm-2 0v-5.8c-.5.9-1 1.7-1.6 2.5-.8 1.1-1.6 2.2-2.5 3.2h4.1zm13.4 3.8c-.8.6-1.7.8-2.8.8s-2-.3-2.8-.8q-1.2-.9-1.8-2.4c-.4-1-.6-2.3-.6-3.8s.2-2.7.6-3.8c.4-1 1-1.9 1.8-2.4.8-.6 1.7-.8 2.8-.8s2 .3 2.8.8q1.2.9 1.8 2.4c.4 1 .6 2.3.6 3.8s-.2 2.7-.6 3.8q-.6 1.5-1.8 2.4m.2-6.2c0-1.6-.2-2.8-.7-3.7-.5-.8-1.2-1.2-2.2-1.2s-1.7.4-2.2 1.2-.7 2.1-.7 3.7.2 2.8.7 3.7c.5.8 1.2 1.2 2.2 1.2s1.7-.4 2.2-1.2c.4-.9.7-2.1.7-3.7m12.1 6.2c-.8.6-1.7.8-2.8.8s-2-.3-2.8-.8q-1.2-.9-1.8-2.4c-.4-1-.6-2.3-.6-3.8s.2-2.7.6-3.8c.4-1 1-1.9 1.8-2.4.8-.6 1.7-.8 2.8-.8s2 .3 2.8.8q1.2.9 1.8 2.4c.4 1 .6 2.3.6 3.8s-.2 2.7-.6 3.8c-.5 1-1 1.8-1.8 2.4m-.6-2.5c.5-.8.7-2.1.7-3.7s-.2-2.8-.7-3.7c-.5-.8-1.2-1.2-2.2-1.2s-1.7.4-2.2 1.2-.7 2.1-.7 3.7.2 2.8.7 3.7c.5.8 1.2 1.2 2.2 1.2s1.7-.4 2.2-1.2m-29.3 33.3h-2.3v13.7h8.5v-2.1h-6.3v-11.6zm15.8 10.8v-6.8h-2.1v6.6c-.2.3-.3.5-.5.7s-.4.3-.7.4c-.2.1-.5.1-.8.1-.5 0-.9-.2-1.1-.5s-.3-.9-.3-1.6v-5.7h-2.1v6.6c0 1 .3 1.8.8 2.4s1.3.9 2.2.9c.8 0 1.4-.2 1.9-.6.3-.2.6-.5.8-.8 0 .1 0 .1.1.2.2.4.4.8.7 1.1l1.7-.6c-.2-.3-.3-.7-.4-1.1-.2-.5-.2-.9-.2-1.3m9.3-5.7c.7.9 1.1 2.1 1.1 3.7s-.4 2.8-1.1 3.7-1.8 1.3-3.1 1.3-2.4-.4-3.1-1.3-1.1-2.1-1.1-3.7.4-2.8 1.1-3.7 1.8-1.3 3.1-1.3 2.4.4 3.1 1.3m-.9 3.7c0-1-.2-1.8-.5-2.4-.4-.5-.9-.8-1.6-.8s-1.3.3-1.6.8c-.4.5-.5 1.3-.5 2.4s.2 1.8.5 2.4c.4.5.9.8 1.6.8s1.3-.3 1.6-.8c.3-.6.5-1.4.5-2.4m12.7-3.3h-6.2v-5.6h-2.3v13.7h2.3v-6h6.2v6h2.3v-13.7h-2.3zm12.8 3.7h-6.3q0 1.35.6 2.1c.4.5 1 .8 1.7.8.5 0 .9-.1 1.2-.4.3-.2.6-.6.8-1.1l1.9.6c-.4.9-.9 1.5-1.6 2-.7.4-1.5.7-2.5.7-1.4 0-2.4-.4-3.2-1.3s-1.2-2.1-1.2-3.7.4-2.8 1.1-3.7 1.7-1.3 3-1.3c.9 0 1.8.2 2.4.6q1.05.6 1.5 1.8c.6.8.7 1.8.6 2.9m-5.7-3c-.2.4-.4.9-.5 1.5h4.2c-.1-.7-.2-1.2-.5-1.6-.4-.5-.9-.7-1.5-.7-.8 0-1.4.3-1.7.8m11.1-2.2h-3.5v1.8h1.3v6h-1.8v1.8h5.7v-1.8h-1.7zm-1.1-2.2q.6 0 .9-.3c.2-.2.3-.5.3-.8s-.1-.7-.3-.9q-.3-.3-.9-.3c-.3 0-.6.1-.8.3q-.3.3-.3.9c0 .6.1.6.3.8s.4.3.8.3m17.9-1.8-3.5 10.8-3.4-10.8H533l4.7 13.7h2.5l4.7-13.7zm10.9 12c.1.4.2.8.4 1.1l-1.7.6c-.3-.3-.5-.7-.7-1.1v-.2c-.3.3-.5.6-.8.8-.6.4-1.2.6-2 .6s-1.5-.2-2.1-.6-1-1-1.3-1.7-.5-1.6-.5-2.7.2-2 .5-2.7.8-1.3 1.4-1.7 1.3-.6 2-.6 1.4.2 2 .5c.2.1.4.3.6.5v-.9h2.1v6.8c-.1.5-.1.9.1 1.3m-2.3-1.4v-3.8c-.3-.3-.6-.6-.9-.8q-.6-.3-1.2-.3c-.8 0-1.3.2-1.7.7s-.5 1.2-.5 2.3.2 1.8.5 2.3c.4.5.9.7 1.7.7q.75 0 1.2-.3c.4-.1.7-.4.9-.8m8.5-6.8c-.6 0-1.2.2-1.6.6-.2.2-.4.4-.6.7v-.1c-.2-.4-.4-.8-.7-1.1l-1.7.6c.2.3.3.7.4 1.1s.1.8.1 1.3v6.8h2.1v-6.7c.2-.4.4-.7.7-.9s.6-.3 1-.3.7.1 1 .3q.45.3.6.9l1.5-1.1c-.2-.7-.6-1.2-1.1-1.6-.5-.3-1.1-.5-1.7-.5m7.2-2.3c.2-.2.3-.5.3-.8s-.1-.7-.3-.9q-.3-.3-.9-.3c-.3 0-.6.1-.8.3q-.3.3-.3.9c0 .6.1.6.3.8s.5.3.8.3q.6 0 .9-.3m.3 2.5h-3.5v1.8h1.3v6H563v1.8h5.7v-1.8H567zm11.8 8c.1.4.2.8.4 1.1l-1.7.6c-.3-.3-.5-.7-.7-1.1v-.2c-.3.3-.5.6-.8.8-.6.4-1.2.6-2 .6q-1.2 0-2.1-.6c-.6-.4-1-1-1.3-1.7s-.5-1.6-.5-2.7.2-2 .5-2.7.8-1.3 1.4-1.7 1.3-.6 2-.6c.8 0 1.4.2 2 .5.2.1.4.3.6.5v-.9h2.1v6.8c0 .5 0 .9.1 1.3m-2.2-1.4v-3.8c-.3-.3-.6-.6-.9-.8q-.6-.3-1.2-.3c-.8 0-1.3.2-1.7.7s-.5 1.2-.5 2.3.2 1.8.5 2.3c.4.5.9.7 1.7.7q.75 0 1.2-.3c.3-.1.6-.4.9-.8m12.5-4.5c.3.7.5 1.6.5 2.7s-.2 2-.5 2.7-.8 1.3-1.3 1.7-1.3.6-2 .6c-.8 0-1.4-.2-2-.6-.2-.1-.4-.3-.6-.5v.9H581v-14.6h2.1v5.8c.2-.2.4-.4.6-.5.6-.4 1.2-.5 2-.5s1.5.2 2 .6 1.1.9 1.4 1.7m-1.6 2.7c0-1-.2-1.8-.5-2.3-.4-.5-.9-.7-1.7-.7q-.75 0-1.2.3c-.3.2-.6.4-.9.8v3.8q.3.6.9.9t1.2.3c.8 0 1.3-.2 1.7-.7.3-.6.5-1.4.5-2.4m7.4-9.8h-3.5v1.8h1.4v10.9H591v1.8h5.7v-1.8h-1.8zm11.6 10.2h-6.3q0 1.35.6 2.1c.4.5 1 .8 1.7.8.5 0 .9-.1 1.2-.4.3-.2.6-.6.8-1.1l1.9.6c-.4.9-.9 1.5-1.6 2-.7.4-1.5.7-2.5.7-1.4 0-2.4-.4-3.2-1.3s-1.2-2.1-1.2-3.7.4-2.8 1.1-3.7 1.7-1.3 3-1.3c.9 0 1.8.2 2.4.6q1.05.6 1.5 1.8c.6.8.7 1.8.6 2.9m-5.8-3c-.2.4-.4.9-.5 1.5h4.2c-.1-.7-.2-1.2-.5-1.6-.4-.5-.9-.7-1.5-.7-.8 0-1.3.3-1.7.8m-128-708.8c-.3.1-.7.2-1.2.2s-1-.1-1.5-.4q-.6-.45-1.2-1.2l-1.5 1.1c.4.7 1 1.3 1.7 1.7s1.6.6 2.6.6c.9 0 1.5-.1 2.1-.3q.75-.3 1.2-.9c.3-.4.4-.8.4-1.3s-.2-.9-.5-1.3-.7-.7-1.1-1-1-.6-1.7-.9c-.4-.2-.8-.4-1.1-.6s-.5-.3-.7-.5q-.3-.3-.3-.6c0-.2.1-.4.3-.5s.6-.2 1-.2.9.1 1.3.3.7.5 1 .9l1.4-1.2c-.3-.6-.8-1-1.5-1.4-.7-.3-1.4-.5-2.3-.5-.7 0-1.4.1-1.9.3q-.75.3-1.2.9c-.3.4-.4.8-.4 1.3s.2.9.5 1.3.7.7 1.1 1 1 .6 1.6.9q.75.3 1.2.6c.3.2.5.3.7.5q.3.3.3.6c0 .3 0 .5-.3.6m9.1 0c-.3.1-.7.2-1.2.2s-1-.1-1.5-.4q-.6-.45-1.2-1.2l-1.5 1.1c.4.7 1 1.3 1.7 1.7s1.6.6 2.6.6c.9 0 1.5-.1 2.1-.3q.75-.3 1.2-.9c.3-.4.4-.8.4-1.3s-.2-.9-.5-1.3-.7-.7-1.1-1-1-.6-1.7-.9c-.4-.2-.8-.4-1.1-.6s-.5-.3-.7-.5q-.3-.3-.3-.6c0-.2.1-.4.3-.5s.6-.2 1-.2.9.1 1.3.3.7.5 1 .9l1.4-1.2c-.3-.6-.8-1-1.5-1.4-.7-.3-1.4-.5-2.3-.5-.7 0-1.4.1-1.9.3q-.75.3-1.2.9c-.3.4-.4.8-.4 1.3s.2.9.5 1.3.7.7 1.1 1 1 .6 1.6.9q.75.3 1.2.6c.3.2.5.3.7.5q.3.3.3.6c0 .3 0 .5-.3.6m4.8-1.3c-.4-1-.6-2.3-.6-3.8s.2-2.7.6-3.8c.4-1 1-1.9 1.8-2.4.8-.6 1.7-.8 2.8-.8s2 .3 2.8.8q1.2.9 1.8 2.4c.4 1 .6 2.3.6 3.8s-.2 2.7-.6 3.8c-.4 1-1 1.9-1.8 2.4-.8.6-1.7.8-2.8.8s-2-.3-2.8-.8q-1.2-.75-1.8-2.4m1.6-3.7c0 1.6.2 2.8.7 3.7.5.8 1.2 1.2 2.2 1.2s1.7-.4 2.2-1.2.7-2.1.7-3.7-.2-2.8-.7-3.7c-.5-.8-1.2-1.2-2.2-1.2s-1.7.4-2.2 1.2c-.4.9-.7 2.1-.7 3.7m19.6 5h-2.9v-11.9h-2.1c-.3.9-.8 1.6-1.4 2.3s-1.3 1.2-2.2 1.7l.8 1.7c1.1-.6 2-1.3 2.8-2.3v8.5h-3.7v1.8h8.7z" style="opacity:.5;fill:#fbfbfb"/></svg>