<svg xmlns="http://www.w3.org/2000/svg" viewBox="0 0 1280 960"><path d="M0 0h1280v960H0z" style="fill:#031723"/><path d="M57.8 148.3 46.3 141c5.4-9.8 9.5-20.4 12.3-31.9l6.9 2.5c-1.6 13.5-4.2 25.7-7.7 36.7m2.1-41.5 6.8-9.3c-2.2-2-4.7-3.9-7.6-5.7-2.8-1.7-5.7-3.2-8.7-4.4l-3.6 6.1c2.6 1.7 4.9 3.6 7.1 5.8q3.45 3.45 6 7.5M48.3 75.5l3.6-6.4q4.35 1.95 8.7 5.1c2.1 1.5 4.1 3.2 5.9 4.9v-5.2h11.2v-6.3h11.1v6.3h9.7v6.6h-9.7v6.2h8.4v32.8h-8.4v6.2h10v4.3c0-.2.1-.4.2-.7 1.1-5.7 1.7-12.1 1.7-19.4V70.3H126v68.2c0 2.5-.7 4.5-2 5.9-1.4 1.4-3.3 2.2-5.7 2.2h-6.8l-2.2-8.1h4.4c.9 0 1.6-.3 2-.9s.6-1.5.6-2.8V118l-3.1 4.8c-1-2.4-2.1-4.5-3.4-6.4-.3 5.4-1.1 10.4-2.3 15.1-1.6 6.2-4.3 11.8-7.9 16.5l-6.6-3.7c2.3-3.5 3.9-7.4 5.1-11.7h-9.3v14.2H77.6v-14.2H66.1v-7h11.5v-6.2h-9.5V86.7h9.5v-6.2h-9.7l.4.4-6.8 8.8c-1.8-2.8-3.8-5.5-6.1-8s-4.6-4.5-7.1-6.2m61.6 13.6 1.2-1.8c1.9 1 3.6 2.2 5.2 3.6V77.3h-6.4zm6.3 22.9V96.9l-3.1 4.8c-1-2.3-2.1-4.3-3.2-6.2v14.7l1.2-1.8c1.8 1.1 3.6 2.3 5.1 3.6m-29.3 1v-7h-8.5v7.1h8.5zm0-20.2h-8.5v6.9h8.5zm66 45.9 1.9 7.2h14.5c2.7 0 4.8-.7 6.2-2.3q2.1-2.25 2.1-6.6v-35.8c2.3 5.2 4.9 10.2 7.9 14.8q7.35 11.7 17.1 21l9.5-11.6c-5.5-3.9-10.4-7.9-14.7-11.9-3.2-3-6.1-6.1-8.9-9.5 2.9-2 5.8-4.2 8.6-6.6 3.5-3 6.6-6.3 9.4-9.7l-10-8.2c-2.2 4.3-4.5 8.1-6.9 11.5-1.8 2.6-3.7 4.9-5.6 6.8-2.3-3.5-4.4-7.2-6.3-11.2V68.1h-11.9v66c0 1.5-.3 2.7-1 3.5-.6.8-1.7 1.2-3.1 1.2h-8.8zm-16.8-1.8c6.6-5.1 12.2-11.3 16.9-18.4 4.7-7.2 8.1-14.5 10.1-22.1v-7.5h-28v7.5h15.5c-1.2 6.2-3.3 12.1-6.4 17.8-3.4 6.2-7.6 11.7-12.7 16.4zm143.5-8.1c-3.9 4.1-8.3 7.5-13 10.3l2.4 7.6c5.8-2.3 11.1-5.2 16-8.8s9.2-7.9 12.9-12.8l-7.9-10.6c-3 5.4-6.4 10.2-10.4 14.3m9.1-37.2c-6.1 9.5-12.8 16.5-20.2 20.9l2.4 7.6c4.9-1.9 9.5-4.4 13.7-7.5q6.3-4.65 11.4-10.2zm5.7-12.4-7.5-10.7c-4.8 8.6-11.4 15.6-19.7 21l3 7.7c9.9-4.5 17.9-10.5 24.2-18m-66.1 29.9H218v-7.6h10.3V79.1H221v-7.2h45.3v7.2h-5.9v22.4h6.9v7.6h-6.9v36.7h-11.9v-36.7h-8.2c0 7.2-1.2 13.8-3.4 19.8-2.2 6.2-6.1 12-11.7 17.6l-5.8-5.9c3.3-4.4 5.7-9.1 7-14s2-10.6 2-16.9v-.6zm11.9-7.6h8.2V79.1h-8.2zm64.7-15.1c6-.3 11.6-1 17.1-2 4.4-.8 8.9-1.7 13.5-2.8.4 1.7.7 3.4 1 5.3l10.1-3.1q-2.85-7.65-8.1-13.5l-6.4 1.4c.6 1.3 1.2 2.8 1.7 4.3-4.3.3-8.6.6-12.8.8-1 0-2.1.1-3.1.1 1.9-1.8 3.6-4 5-6.4l-10-3.1c-1.2 3.8-2.5 7-3.9 9.7-1.7 0-3.3.1-5 .1zm52.3 45.6c-.3 1.1-.8 1.9-1.4 2.4-.7.5-1.6.8-2.8.8h-16.5c-1.4 0-2.5-.4-3.2-1.1s-1.1-1.8-1.1-3.2v-5.6h-11.1v10.3c0 3.4.9 6 2.8 7.8s4.5 2.7 8 2.7h21.7c2.9 0 5.1-.5 6.7-1.7 1.6-1.1 2.7-2.9 3.3-5.3l1.9-7.7-7.1-4zm-50.1-44.2h36.4v27.5c0 2.5-.6 4.3-1.9 5.5q-1.95 1.8-6.3 1.8h-9.1l-1.3-4.9h4.9c.9 0 1.6-.2 2-.6q.6-.6.6-2.1v-2.6h-14.2v10.1h-11.1zm25.2 19.9v-4.9h-14.2v4.9zm0-9.8V93h-14.2v4.9zm26.3 25.4h11.8q3.45 0 5.4-1.2c1.4-.8 2.4-2.2 3-4l2-5.1-5.9-3.9-1.2 2.9c-.3.9-.8 1.4-1.3 1.8-.5.3-1.2.5-2.1.5h-7.9q-1.5 0-2.1-.6t-.6-2.1v-1.9c7.4-.6 13.7-2.1 19-4.4l-5.4-8.3c-2.4 1.7-5 3.2-7.8 4.4-1.8.8-3.7 1.4-5.8 1.9v-6.6h-11.5v15.8c0 3.7.9 6.4 2.6 8.2 1.8 1.7 4.4 2.6 7.8 2.6m-40.8 3-7.4-1.2q-1.5 4.5-3.6 8.7c-1.4 2.8-2.8 5.4-4.3 7.8l11.9 4.1c1.6-6.1 2.7-12.5 3.4-19.4m40.8-30.8h11.8q3.45 0 5.4-1.2c1.4-.8 2.4-2.2 3-4l2-5.1-5.9-4-1.2 3c-.3.9-.8 1.4-1.3 1.8-.5.3-1.2.5-2.1.5h-7.9c-1 0-1.7-.2-2.1-.7-.4-.4-.6-1.1-.6-2V82c7.4-.6 13.7-2.1 19-4.4l-5.4-8.2c-2.4 1.7-5 3.2-7.8 4.4-1.8.8-3.7 1.4-5.8 1.9v-6h-11.5v15.1c0 3.6.9 6.4 2.6 8.2 1.8 1.6 4.4 2.5 7.8 2.5M337 124.4c1.5 2.8 2.8 6.1 3.7 10l12-4.1c-2.3-3-5.1-5.7-8.3-7.9zm29.8 2.9c1 2.8 1.9 5.8 2.7 8.9s1.4 6.3 1.7 9.5l11.6-4.5c-2.4-5.4-5.4-10.7-9.1-16zm59.8-56.6h-17.3V78h17.3zm-35 38.3c2-2.8 3.8-5.8 5.4-8.9v46.5h4V91.3c2.6-6.6 4.6-13.8 6-21.7l-3.7-1.3c-1.9 6.4-4.3 12.1-7 17.1-2.8 5-6 9.4-9.7 13.1zm17.6 8h17.6v28.1h-17.6zm14.2 20v-12.3h-10.9V137zm-17-46.5h22.8v-8.3h-22.8zm36.2 10.7h-12.7v-8.5h12.3v-7.1h-9.7v-8.3h9.7v-8.8h3.7v8.8h9.4v8.3h-9.4v7.1h5.2c4.6-5.5 8.7-11.7 12-18.7l2.8 2.3c-2.5 5.9-5.4 11.3-8.7 16.4h7.2v8.5h-13c2.5 1.9 4.7 4.1 6.7 6.7l-2.1 2.2c-1.3-1-2.7-1.8-4.2-2.6q-1.95-1.05-4.5-1.8c-1.5 1.7-3.2 3.4-4.9 5h17.7v34.5h-24.2v-28.8q-2.7 2.25-5.7 4.2l-3.6-9.1c6-2.9 11.3-6.3 16-10.3m-2.8 36h16.9v-5.7h-16.9zm16.9-18.6h-16.9v5.7h16.9zm-30.2-24h-17.2v7h17.2zm-17.2 18.2h17.2v-6.9h-17.2zM524 81.6h-23.6v-7.9H525c.2-1.7.3-3.5.4-5.3l4.3.3c-.1 1.7-.3 3.3-.5 5h19v7.9h-20c-.3 1.9-.6 3.7-1 5.4h16.9v43.8h-31.3V87.1h10.1c.4-1.8.7-3.6 1.1-5.5m16 24.4h-23v5.7h23zm-23 12v6h23v-6zm23-23.9h-23v5.6h23zm11.3 42.5h-47.5V90.8h-4.3v54.3h51.8zm-65.9-37.8v47.9h4.3V90.9c3-6.5 5.4-13.6 7.2-21.6l-4.2-1.1c-2.2 6.6-4.9 12.3-8.2 17.2s-7.3 9.2-11.9 12.9l5 10.9c3-3.2 5.5-6.7 7.8-10.4m76.6 14.8h24.4v-8.9H562zm24.4-20H562v8.9h24.4zm3.4 41.9c5.6-1.5 10.5-3.8 14.9-6.7-.9-1.1-1.8-2.2-2.6-3.4-2.6-3.7-4.7-7.8-6.4-12.2h-4.2v-11.5h37.9v11.5c-2.7 5.8-5.9 11-9.5 15.4.4.3.8.6 1.3.9 4.1 2.7 9.2 5.2 15.2 7.5l-3.8 9.9c-7.3-2.5-13.4-5.6-18.4-9.2-.6-.4-1.2-.9-1.8-1.4-5.6 4.7-11.9 8.3-19 10.8zm17.8-22.3q1.5 3.75 3.9 7.2l1.2 1.5c2.3-2.6 4.2-5.5 5.8-8.7zm-47.2 2.6H588v30h-27.6zm18.2 19.3v-9.5h-8.8v9.5zm7.7-65.7H562v9.4h24.3zm41.9 15.9c-.2 1.1-.5 1.9-.9 2.3s-.9.7-1.5.7h-1.4c-.9 0-1.5-.3-1.8-.8s-.5-1.6-.5-3V69.2h-26.7v8.5c0 3.2-.7 5.6-2 7.4-.9 1.2-2.2 2.1-3.7 2.7v-7h-30.9v10.6h29.4l2.3 9.3c4.9-1.8 8.5-4.5 11-8q3.3-4.8 3.6-12h7.1v6.9c0 4 .8 6.8 2.4 8.6 1.6 1.7 4.1 2.6 7.5 2.6h5c2.9 0 5.1-.7 6.5-2s2.5-3.5 3-6.4l1.4-7.5-8.8-3.8zm51.4 8.3v11.9H695v41.7h10.6v-41.7H721V93.6h-15.4V68.2H695v25.5h-15.4zm-3.5 0h-27.2v8.9h27.2zm0-24.2h-27.2v9.4h27.2zm4 11.5h-35.4v10.6h35.4zm-31.3 32.7H676v-8.9h-27.2zm-.7 2.2h28.6v30h-28.6zm19.6 19.3v-9.5h-10.6v9.5zm82.4-13.6c-2 3.3-4.4 6.4-7.2 9.2s-5.9 5.3-9.4 7.5l8.6 9.9c3.8-2.9 7.2-6.2 10.3-9.8 3-3.6 5.7-7.7 8.1-12.1zm-1.4-12.7V95.2h-14.3V83.7h14.3V68.2h10.6v15.5h17.5V68.2h10.6v15.5h14.3v11.5h-14.3v13.6h19.4v11.5h-77.5v-11.5zm10.5 0h17.5V95.2h-17.5zm31.9 39.4 10.3-5.2c-1.9-3.9-4.1-7.7-6.6-11.2-2.5-3.6-5.2-6.9-8.2-10.1l-11.1 5.8c3.2 3.4 6.2 6.8 8.8 10.3 2.7 3.4 4.9 6.9 6.8 10.4m31.3-64c2.7 1.7 5.2 3.5 7.3 5.6l5.2-8.7c-2.2-2.2-4.6-4.3-7.1-6.3s-5.2-3.7-8.1-5.3l-5.8 10.4c3 1.2 5.8 2.7 8.5 4.3m.2 63.8c2.8-5.5 5.2-11.1 7.1-16.7s3.6-11.3 4.8-17.2l-11.5-4.8c-1.1 5.9-2.6 11.6-4.3 17.1s-3.8 11.1-6.2 16.5zm-1.9-46.5c2.6 1.6 4.9 3.3 6.9 5.2l5.3-7.8c-1.9-2.3-4.2-4.4-6.7-6.4-2.6-2-5.2-3.6-7.8-5l-5.8 10c2.8 1.1 5.5 2.4 8.1 4m68.9-2.4c1 2.5 2.4 5 4 7.4l-6.7 3.7c-3.2-4.5-5.6-9.6-7.1-15.4-.6.1-1.3.2-2 .3v5.1c.7-.3 1.4-.6 2.1-1l3 7.8c-4.2 1.5-8.4 2.6-12.7 3.3l-1.2-7.6c.6-.1 1.3-.2 1.9-.3V91.3c-.2.4-.5.9-.7 1.2-.8 1.3-1.7 2.6-2.7 3.8v14.4h-8.3V95.5c-1-1.8-2.1-3.6-3.4-5.3v12c0 2.3-.5 4-1.6 5.2s-2.6 1.8-4.4 1.8H846l-1.5-8.1h1.9c1.4 0 2.1-.7 2.1-2.2v-3.3h-3.1c-.5 2.5-1.1 4.9-2 7.1-1.2 3-2.7 5.8-4.6 8.3l-7-5.4c2.7-2.9 4.7-6.2 5.9-10H835v-8.8h18.1c-.3-.3-.6-.7-.9-1l4.7-2.4h-19.6V73.3h21v-5.2h10.6v5.2h22v10.2H871l3.5 1.5-.9 1.8c5.9-.3 11.4-1.1 16.3-2.5l1.9 7.7c-1.3.4-2.5.8-3.8 1.2.2 1.9.8 3.9 1.6 5.9m-29-15.6c1.2 1.6 2.2 3.3 3 5 1.2-1.5 2.2-3.2 3.2-5zM832.2 142c2.9-3.4 5.1-7 6.6-10.7 1.4-3.7 2.1-7.6 2.1-11.6v-8.6h10.6v2.8h24.8v-2.8h10.6v36.2h-10.6V136h-27c-1.3 4.4-3.4 8.4-6.1 12.1zm44-18.3h-24.9c0 .9-.1 1.7-.2 2.6h25.1zm35.2-42.9q3.75 2.7 6.9 5.7l3.7-4.8c-1.8-2.7-3.8-5.1-6.1-7.2-2.2-2.2-4.6-4.1-7-5.7l-5.6 7.3c2.9 1.3 5.6 2.9 8.1 4.7M909.3 97c2.7 1.8 5.2 3.7 7.3 5.7l3.8-4.9c-2.1-2.6-4.3-5-6.9-7.1-2.5-2.1-5.2-4-7.9-5.7l-5.2 7.4c3.3 1.3 6.2 2.9 8.9 4.6m1.6 42.1c1.1-1 2.1-1.9 3.1-2.7q3 3.45 7.2 5.4 5.85 2.7 13.8 2.7h39.8l1.4-6.4h-39.8c-4.5 0-8.3-1-11.4-3.1-2.6-1.8-5-4.4-7-7.8v-20.9h-17.1v8.8h10.7v11c-2.2 2.2-4.3 4.5-6.4 7.1-2.3 2.8-4.4 5.9-6.3 9l5.4 3.9c2.1-2.5 4.3-4.8 6.6-7M947 89.6h-21.1v-8.8h13.5c-2.2-3-4.8-5.8-7.9-8.4l9.1-4c2.5 3.6 4.4 7.8 5.9 12.4h8.8c1.4-1.5 2.8-3.2 3.9-4.9 1.5-2.2 2.9-4.6 4.2-7.3l6 2c-1.2 3.7-2.7 7-4.5 10.1h10.7v8.8h-21.9v9.8c0 2.5-.1 4.9-.4 7.3h13V94.4h6v20.7h-20.5c-.6 2.2-1.3 4.2-2.2 6.1-2.7 5.9-7.3 11.1-13.7 15.4l-5.8-8.1c4-2 7.2-4.4 9.7-7 1.8-1.9 3.3-4.1 4.4-6.5h-15V94.4h6v12.3h11.5c.3-2.2.5-4.6.5-7.3v-9.8zm92.5 38.1h-32V98.2h32zm-25.9-21v12.4h19.6v-12.4zm-18-16.6h55.7v41.4c0 1.7-.3 2.9-1 3.6s-1.8 1-3.4 1h-9.8l2 9.2h11.5c2.5 0 4.3-.6 5.4-1.9s1.7-3.3 1.7-5.9V80.9h-38.2c2.6-3 4.5-6.8 5.8-11.4l-6.8-1.4c-1.8 4.9-5.2 9.1-10.1 12.9h-19.2v63.9h6.4zm77.5 17.3c-1.4.2-2.8.5-4.2.7l.6 6.1c5.3-.5 10.4-1.1 15.4-1.9v34.5h5.6v-35.5c2.5-.5 4.9-1 7.3-1.6.6 1.7 1.1 3.5 1.6 5.4l4.7-1.9c-.5-3.4-1.2-6.6-2-9.7-.8-3-1.8-5.9-2.9-8.6l-6.6 3.6c.6.9 1.2 1.9 1.7 2.8-2.8 1.2-5.7 2.2-8.8 3.1 4.9-6.2 9.5-13.8 14-22.8L1095 78q-3.9 7.35-8.4 13.8c-1.1-1.3-2.3-2.6-3.5-3.8 3.7-5.1 6.9-10.8 9.4-17.1l-4.9-3.2c-1.8 3.4-3.6 6.6-5.6 9.4-1.4 2.1-3 4.1-4.7 5.8-1-.8-2.1-1.6-3.1-2.4l-4.8 7.6c5 2.3 9.5 5.2 13.5 8.6-3.1 3.9-6.4 7.4-9.8 10.7m31 29c-1-6.8-2.7-13.4-4.9-19.9l-6.7 2.9c3 5.7 5.3 12 7 18.6zm-6.2-43.4c3.1-3.4 5.7-7.2 8-11.4s4.1-8.8 5.6-13.7l6 2.4c-1 4-2.2 7.7-3.5 11.2h10.3c3-3.9 5.5-8.4 7.3-13.5l6.1 1.4c-1.1 4.6-2.5 8.6-4.1 12h12.4v8.2h-14.2v10h12.8v7.9h-12.8V118h12.8v7.8h-12.8v10.8h15.5v8.6h-40.8V96.7l-2.7 4.2zm27.9 32.9h-13.3v10.8h13.3zm0-18.3h-13.3v10.5h13.3zm0-17.9h-13.3v10h13.3zm-43.9 28.7-4.3-1.1c-1.3 4.4-2.6 8.3-3.9 11.8-1.4 3.5-2.9 6.8-4.7 9.9l7.3 3.3c2.6-7.4 4.5-15.4 5.6-23.9m76.7-5.6h21.5v-6.9h-21.5zm53.7-31.3 1.7.4v-13h5.8v3.7h12.1v6.6h-12.1v3.1h-4.1l2.6.6c-.6 1.6-1.3 3-2 4.2h14.7v5.6h-14.8v3.7h13.4v5.3h-13.4v3.8h13.4v5.4h-13.4v3.6h16.1v5.7H1190V99.3c-1.4 1.9-3 3.6-4.7 5.3l-3.8-8.3c2.7-1.9 5-4.2 6.9-6.7 1.9-2.6 3.5-5.4 4.7-8.5l5.2 2c-.4 1.4-.9 2.7-1.4 4h10.9c1.8-1.6 3.3-3.4 4.5-5.6m-2.4 29.3H1196v3.6h13.9zm0-9.1H1196v3.8h13.9zm0-9H1196v3.7h13.9zm-51.7 24.3h22.5v28.1h-22.5zm17.1 20v-12.3h-11.7V137zm4.8-42.4h-21.5v7h21.5zm.1-23.9h-21.6V78h21.6zm19.8 11.6h5.8V68.9h-5.8v3.7h-15v6.6h15.1v3.1zm32.2 64.4c-8.3-1.5-15.6-3.5-21.9-6.1-6.9 2.6-15 4.6-24.5 6l-2-7.6c6.7-.5 12.7-1.3 18.1-2.5-4-2.2-7.4-4.7-10.2-7.3h-5.1v-6h42.4v6c-3.1 3.1-6.8 5.7-11.3 8 4.6 1.6 9.9 3 16 4.2zm-30-17.5c2.5 1.9 5.3 3.5 8.3 5 4.2-1.4 7.8-3.1 10.7-5zm-19.2-47h-27.6v8.3h27.6zM75 182.9c1.5-2.7 2.7-5.7 3.7-9l12.4 2.6c-.7 2-1.5 4-2.6 5.7-.2.3-.3.5-.5.8h27.6v69H58.2v-69H75zm28.2 38.4v-8.5H70.5v8.5zm-32.7 10.6v8.5h32.7v-8.5zm32.7-29.8V194H70.5v8.1zm95.8 14.5v-36h-59.9v12.3h47.6v12.2h-46.3v32.5c0 4.9 1.2 8.4 3.5 10.6 2.4 2.2 6.1 3.3 11.3 3.3h35.3c4.3 0 7.6-1 9.9-2.9s3.8-5.2 4.4-9.9l1.2-9.5-11.4-4.1-1.2 8.6c-.3 2-1 3.5-2 4.5-1 .9-2.5 1.4-4.5 1.4H159c-2.3 0-3.9-.5-4.9-1.7-1-1.1-1.4-2.9-1.4-5.5v-15.9H199zm87.3 10.5-5.1 2.6c1.8 3.2 3.5 6.6 5 10.2s2.8 7.3 3.8 11l6.7-3.3c-2.6-7.2-6-14-10.4-20.5m-31.7-5.9-4.9 2.4c3.5 4.5 6.4 9.8 8.6 15.9l6.4-2.8c-2.9-6.2-6.2-11.4-10.1-15.5m-8.7 30.3h23.7c2.4 0 4.2-.5 5.5-1.5s2.2-2.5 2.6-4.6l2-8.9-5.4-2.4-1.3 6.7c-.3 1.4-.8 2.4-1.7 3.1-.8.6-1.9.9-3.4.9h-19.2c-1.7 0-3.1-.5-4-1.4s-1.3-2.3-1.3-4.2v-10.5h-6.6v13.6c0 3 .7 5.3 2.3 6.8 1.5 1.6 3.8 2.4 6.8 2.4m-.8-57.8v5h24.2v-5zm-19.9 57.4c1.4-3.4 2.7-7.1 3.8-11s2-7.9 2.7-11.9l-5.5-1.3c-1 4-2.1 7.8-3.5 11.4s-2.9 7-4.5 10zm17.1-57.5q8.55-6 15.6-13.8c4.5 5.2 9.5 9.9 15 13.9 5.8 4.3 12.5 8.1 20.3 11.5l3.6-6.5c-6.9-2.4-13.5-5.7-19.7-9.9-6.2-4.1-11.5-8.7-15.9-13.5h-8.5c-4.2 5.4-9.3 10.2-15.2 14.6-5.9 4.3-12.5 7.8-19.8 10.3l2 5.4c8.4-3.3 16-7.4 22.6-12m-6.9 17.7h38.1l-9 13.3 5.4 3.1 10.7-16.4v-5.1h-45.2zm112.5-36.4h-11.2v9.4h-30.8v6.2h72.9v-6.2H348v-9.4zm-21.7 77.5v-42.3c2.5-4.2 4.8-8.9 6.9-14.2l-11.7-3.1c-1.7 6.4-4.1 12.2-7.1 17.5s-6.9 10.4-11.7 15.2l3.1 6.7c3.6-2.5 6.9-5.4 10-8.5v28.6h10.5zm.1-37.7 3.9-4.9c1.3 1.7 2.7 3.4 4.1 5q2.7-4.65 4.5-9.9c1.3-3.9 2.4-8.1 3.2-12.5l11.2 2.5c-.6 1.9-1.3 3.7-2 5.5h24.9v6c-1.8 5.9-4.2 11.5-7.1 16.7-2.3 4.2-5.2 8.2-8.5 12 6.5 3.2 13.7 5.6 21.5 7.3l-5.1 11.5c-11.2-3.1-21-8-29.4-14.6-8.4-6.7-15.5-14.8-21.2-24.6m12.8 5.2q6.3 6.15 13.5 10.8c.5.3 1.1.6 1.6 1 2.7-3.7 5-7.7 6.8-11.8 1.9-4.2 3.3-8.8 4.3-13.5h-16.7c-.5 1-1 2-1.6 2.9-2.2 3.8-4.9 7.3-7.9 10.6m11.3.1c1.5 1.8 2.8 3.7 3.7 5.7l6-9.3c-1.6-1.2-3.4-2.3-5.2-3.3s-3.8-1.9-5.9-2.8l-3.5 4.7c1.7 1.6 3.4 3.2 4.9 5m40.9-39.6h31.3v56.8h-31.3zm10.1 30.7V231h11.1v-19.8h-11.1zm11.1-5.8v-19.2h-11.1v19.2zm15.7-27.9h35.3v65c0 3.5-.8 6.1-2.3 7.8s-3.9 2.5-7.1 2.5h-9.8l-1.4-6.6h6.1c1.5 0 2.5-.4 3.1-1.2s.9-2.3.9-4.3v-13.9h-15.5c-.7 3.2-1.6 6.3-2.8 9.3-2.7 6.6-7 12.4-12.8 17.6l-4.3-6c3.9-4 6.7-8.7 8.3-14.1s2.4-11.6 2.4-18.8v-37.3zm24.8 43.4v-16.2h-14.2v9.6c0 2.3-.1 4.4-.3 6.6zm0-21.9v-15.7h-14.2v15.7zm43.1-15.2v20h49.7v2.1c-3.8 10-9.5 18.7-16.8 26.1 6.4 4 13.7 7.1 22.1 9.3l-6.6 11.8c-8.6-4.1-15.9-9.2-22.1-15.4-7.9 6.2-17.6 11-29.1 14.5l-.7-1.6c10.1-4.5 18.4-10.5 24.9-17.9l.2-.2c-6.3-7.7-11-16.5-14.1-26.6H496v6.6c0 8.5-1.7 16-5.1 22.7-3.4 6.6-8.3 12.4-14.8 17.2L475 251c3.3-4.6 5.6-9.7 7.1-15.3 1.4-5.6 2.1-12.4 2.1-20.3v-34.1h62.6v2.3h-50.7zm35.7 22.1h-26.1c4.5 8.6 9.9 15.7 16.4 21.1 4.2-6.1 7.4-13.1 9.7-21.1m28.1 42.9c6.5-4.9 12.2-10.3 17.1-16.4 4.8-5.9 8.8-12.2 12-19h44.8v-2h-30.2v-11h26.1v-1.9h-26.1v-10.5h27.8v-2h-22c2.1-.9 4-2 5.8-3 2.4-1.5 4.6-3.2 6.6-5.2l-13.5-3.7q-.45 6.75-2.7 12h-13.2c-3.4-4.5-8.3-8.4-14.5-11.8l-1.8.6c1.5 3.4 2.3 7.2 2.6 11.2H564v2h27.7v10.5h-26v1.9h26v11h-30.2v2H575c-1.2 6.1-3 11.9-5.6 17.4-2.8 5.9-6.3 11.4-10.5 16.6zm15.3-1.4v2.1h58.7v-2.1h-23v-19.1h18v-2h-44.1v2H599v19.1zm109.8-9.2v-15.6h32.4v15.6zm29-4.8v-6.1h-25.5v6.1zm-67-17.6h-3v-15.3h5.4V177h25.8v23.4h4.3V214h-3v-8.8H647zm25.3-15.3v-6.8h-8.9v6.8zm-19.7 0h8.2v-11.8h11.6v-6.1h-19.7v17.9zm68.9 11.9h-39.7v5.4h39.7zm-24.6-37.4v5.9h8.4v-5.9h3.2v5.9h10.2v26.4h-35.3v-26.4h10.2v-5.9zm10.8 10.6v6.6h8.3v-6.6zm-21.4 10.6v6.3h8.2v-6.3zm8.2-4v-6.6h-8.2v6.6zm2.4 10.3h8.4v-6.3h-8.4zm10.8 0h8.3v-6.3h-8.3zm-2.4-16.9h-8.4v6.6h8.4zm6.9 57.8c.6-1.3 1.2-2.6 1.7-3.9l-2.9-.8c-.8 1.5-1.7 2.9-2.7 4.1-.9 1.2-2 2.2-3.2 3.3H697c-.4-1.2-.8-2.4-1.5-3.6-.7-1.4-1.5-2.6-2.3-3.7l-5.3 1.6q3.9 2.85 5.7 5.7h-13.2v5.4h42V246h-11.8c.5-.8 1.1-1.7 1.6-2.7m-40.2-.1v-4.5h-19.2v13.9h-3.1v-41.8h25.5v34.7c0 2.4-.5 4.3-1.6 5.4-1 1.2-2.7 1.8-4.9 1.8H663l-1-4.9h5.4c1.6 0 2.8-.4 3.5-1.1s1.1-1.9 1.1-3.5m-19.2-21H672v-6.4h-19.2zm19.2 11.5v-6.6h-19.2v6.6zm128.2-6.6c1.3-.9 2.4-2.2 3.5-4s2-4.1 3-7l-5.1-2.8q-1.2 6.15-2.7 8.7c-.9 1.7-2.1 2.6-3.5 2.6-2.4 0-4.7-2.1-7.1-6.3.3-.7.7-1.4 1-2.2 2.8-6.2 5-13.1 6.6-20.6l-3.1-1.4c-1.8 7.2-4.2 13.5-7.1 18.9-1.4-3.5-2.5-7.7-3.6-12.5-.7-3.4-1.2-7.1-1.6-10.9h22.3v-5.5h-5.7c-.7-1.6-1.4-3.2-2.4-4.7-1-1.7-2.2-3.1-3.4-4.4l-5.5 2.1c1.8.9 3.5 2 4.9 3.4q1.8 1.65 3 3.6h-13.6c-.2-2.8-.3-5.6-.3-8.5h-3.3c0 2.9.1 5.7.3 8.5h-39.9v18c0 5-.6 9.5-1.9 13.5-1.2 4-3.1 7.4-5.6 10.3l4.9 4.8c2.1-3.6 3.6-7.7 4.6-12.2s1.4-10 1.4-16.5v-12.3h36.8c.5 4.4 1.1 8.6 2 12.6 1.2 5.5 2.7 10.3 4.5 14.2-2.8 4.4-6 8.1-9.5 11.1l5.3 4.1c2.6-2.8 4.9-6.1 7.1-9.9 2.9 4.6 6 6.9 9.2 6.9 1.7-.4 3.2-.8 4.5-1.6m-28.9-1.7h-23.1v-19.2h23.1zm-20.1-14.1v8.8h16.9v-8.8zm-17.9 30.1c-1 3-2.3 5.8-3.8 8.4l3.4 1.4c1.9-2.6 3.7-5.4 5.3-8.4s2.9-6.1 4-9.2l-6.5-1.3c-.6 3.1-1.4 6.1-2.4 9.1m26.5-9.3c4.5 2.9 8.3 6.6 11.5 11.2l3.4-1.4c-2.6-5-5.6-9.5-9.3-13.2zm-9.3 17s0-.1 0 0q0-.15 0 0m42.3-14.8c2.2 2.4 4.2 5 6.1 7.8s3.5 5.7 4.9 8.7l3.1-1.5c-2.1-6.5-4.8-12.4-8.2-17.7zm-11.9 16.9c2.2 0 3.8-.5 5.1-1.4 1.2-.9 2.1-2.4 2.6-4.3l1.6-6.5-5.8-3.3-2 7.5c-.4 1.6-1.1 2.8-2 3.5-1 .7-2.3 1.1-3.9 1.1h-18.7c-2 0-3.4-.5-4.4-1.6-.9-1-1.4-2.6-1.4-4.6v-8.3h-3.5v9.5c0 2.7.7 4.7 2.1 6.2 1.4 1.4 3.3 2.2 5.8 2.2zm-35.6-50.9h28.8v-5h-28.8zm115.3 30-4.6 1.2c3.1 6.6 5 13.6 5.5 20.9l11.2-3.5c-1.2-3.5-2.8-6.8-4.9-10-2-3.2-4.4-6.1-7.2-8.6m-18.6 22 11.4-3.4c-2.1-6.9-5.3-13-9.6-18.5l-4.6 1c.7 3.1 1.3 6.5 1.8 10 .5 3.6.8 7.2 1 10.9m44.8-13.8c-2.6-3.2-5.5-6.2-8.7-8.8l-4.5 1.8c4.2 6.7 7.1 13.9 8.8 21.6l10.7-4.9c-1.7-3.2-3.8-6.5-6.3-9.7m-57.4 4.3c1.2-3.9 2.2-7.9 2.9-12l-4.7-1.4c-1.6 3.1-3.6 6.2-6 9.2q-3.45 4.5-7.8 8.1l11.2 6.9c1.7-3.3 3.2-6.9 4.4-10.8m-12.5-42.9-3.7-3c4.4-6.4 7.6-14 9.6-23l10.6 3.7c-.8 1.8-1.6 3.5-2.5 5.1h59v4.9h-9.1v15.2h10.1v4.9h-10.1V223h11.7v4.9h-78.7V223h11.8v-15.3h-11v-4.9h11v-12c-2.6 3.3-5.5 6.4-8.7 9.1m19 2.9h4.8v-15.2h-4.8zm19.7 0v-15.2h-4.8v15.2zm-4.7 4.9V223h4.8v-15.3zm-15 15.3h4.8v-15.3h-4.8zm34.6-15.3h-4.8V223h4.8zm0-20.2h-4.8v15.2h4.8zm47.8 57.2c5.5-2.6 11-5.7 16.6-9.2l-1.4-4.4c-6 2.6-11.9 4.7-17.5 6.4-.3.1-.6.2-.9.2v-30.5h18v-4.8h-18v-24.6h-10.6v62.6c-2.1.5-4.2.9-6.3 1.3l2.8 10.2c6.1-2.1 11.9-4.5 17.3-7.2m52.1-8.8c-.3 1.9-1.1 3.3-2.2 4.3s-2.6 1.5-4.4 1.5h-9.7c-1.8 0-3.1-.5-3.9-1.4s-1.2-2.4-1.2-4.4V210c9.7-2 18.2-5.2 25.5-9.5l-5.7-10.5c-3.2 3.7-6.7 6.9-10.4 9.6-2.9 2.1-6 3.8-9.4 5.3v-28.2h-10.6v61.9c0 4.3.9 7.5 2.8 9.7s4.7 3.2 8.5 3.2H965c2.4 0 4.3-.6 5.8-1.9s2.4-3 2.8-5.2l2.7-15.6-4.5-1.7zm24.7-50.8h16q2.85-4.8 4.5-11.4l11.5 3.3c-1.7 2.2-3.5 4-5.4 5.6-1.1.9-2.2 1.7-3.4 2.5h33.6v65.5h-56.7v-65.5zm11 23.9v15.8h34.7V209zm34.7-4.5v-14.7h-34.7v14.7zm-34.7 24.8v16.4h34.7v-16.4zm105.4-46H1092c1.1-2.2 2.1-4.6 2.9-7l-11.2-2.3c-1.2 5.4-2.9 10.5-5.3 15.1-2.3 4.6-5.1 8.6-8.3 11.9l2.5 3.8c5.3-3.6 9.9-7.8 13.7-12.6q1.65-2.1 3-4.2h11.1c-.7 3.4-1.7 6.6-3 9.7-1-.6-2-1.3-3.2-1.8-1.9-.9-4-1.7-6.3-2.3l-2.4 3.3c2.1 1.5 3.9 3.2 5.3 5.1 1 1.3 1.7 2.6 2.4 4-.8 1.3-1.7 2.6-2.6 3.9-.2.2-.4.5-.5.7-1.2-1.2-2.5-2.4-4.1-3.4-2.1-1.4-4.4-2.5-6.8-3.4l-3.1 2.8c2.1 1.7 3.8 3.8 5.2 6.1q1.5 2.4 2.4 5.1c-4 3.9-8.6 7.3-13.7 10.3l1.9 4.6q15.45-7.05 25.8-18.6 10.2-11.7 13.8-26.1zm16.8 65.6c-1.2-3.4-2.9-6.6-5-9.7s-4.6-5.9-7.4-8.4l-4.7 1.3c3.3 6.3 5.2 13.1 5.8 20.3zm9.3-36.9c-2.6-2.9-4.8-6.2-6.6-9.6h15.5v-5h-19q2.4-9.9 2.4-22.2h-10.7c0 8.4-.6 15.8-1.9 22.2h-8.6v5h7.5c-.3 1.2-.6 2.3-1 3.4-2.6 8.1-7.1 15.1-13.4 21l3.7 3.7c5.6-4.1 10.2-8.9 13.8-14.2 2.7-4 4.9-8.3 6.5-13.1q1.65 7.05 4.8 13.5c2.4 4.8 5.2 9.3 8.6 13.5l9.5-8.8c-4.3-2.8-8-6-11.1-9.4m-4.6 18.5-4.3 1.7c4.3 6.5 7.3 13.4 9 20.9l10.7-4.9c-3.3-6.5-8.4-12.4-15.4-17.7m3.1-52.8-3.8 1.5c1.2 2.5 2.3 5.1 3.2 7.8s1.5 5.6 1.9 8.5l8.8-4.5c-1.1-2.4-2.6-4.8-4.3-7.1-1.8-2.3-3.7-4.4-5.8-6.2m-41.6 54.4c.7 3.1 1.3 6.3 1.8 9.7s.7 6.9.9 10.5l11.6-3.4c-2-6.6-5.3-12.6-9.7-18zm-9.1 10.3c1.7-4.1 3-8.3 4-12.6l-4.6-1.5c-1.6 3.3-3.7 6.5-6.4 9.6s-5.7 6-9.1 8.6l10.2 7.1c2.3-3.4 4.2-7.1 5.9-11.2m119.6-14.5c5.5 8.6 12.8 16.4 22 23.6l4.7-5.6c-9.7-6.5-17.5-14.1-23.5-22.8-5.7-8.2-9.8-17.5-12.5-27.8 1-5.8 1.5-11.8 1.5-18.2h-5.3q0 23.1-9 40.5c-6 11.6-14.8 21.5-26.5 29.6l2.4 3.7c12.6-8.7 22.2-19.2 28.7-31.4 2.7-5.1 4.8-10.6 6.4-16.4 2.7 9.2 6.4 17.4 11.1 24.8M97.4 297.7h-21v5.4h21zm0-15.7h-21v6.1h21zm20.2 17.2c.4.3.7.7 1 1.1-1.2.9-2.4 1.6-3.6 2.3 1.8-3.7 3.6-8.3 5.5-13.9l-1.1-.9c-2 3.3-4.2 6.3-6.6 9.1-.5-.8-1-1.6-1.5-2.3q3.15-5.7 5.7-13.5l-1.2-.8c-2.6 3.7-5.5 6.6-8.8 8.8-.7-.8-1.5-1.6-2.3-2.3l-4.3 5.7v-2.9H73.3v6.5h27.2v-2c4.3 1.1 8 2.4 11.2 4.1-2.9 3.2-6.1 6.1-9.5 8.7-.9.2-1.8.3-2.7.4l.1 1.4c4.4-.1 8.8-.3 13.1-.7v19.5h1.8V308c3-.3 6-.6 8.9-1.1.6 1.1 1.1 2.2 1.5 3.4l1.2-.2c-.4-5.2-1.3-10.3-2.6-15.4zm-41.9 12.6H98V326H75.7zm20.5 8.1v-2.1H77.6v2.1zm14.3-9.7-1.1-.2c-2.6 5-5.6 8.9-9.1 11.6l6.9 5c.8-2.6 1.4-5.2 1.9-7.8.4-2.4.9-5.3 1.4-8.6m-58.1-23.3-5.3 7.1c4.8 1.1 8.8 2.6 12.2 4.5q-4.35 4.8-9.6 8.7c-.8.1-1.7.3-2.6.4l.1 1.4c4.3-.1 8.5-.3 12.7-.7v19.4h1.8V308c3.1-.3 6.2-.7 9.3-1.1.6 1.1 1.1 2.3 1.6 3.4l1.1-.2c-.4-5.2-1.2-10.3-2.6-15.4l-5.9 4.5c.3.3.6.7 1 1q-1.8 1.35-3.6 2.4c1.8-3.7 3.7-8.3 5.5-13.9l-1.1-.9c-2 3.3-4.2 6.4-6.6 9.2l-1.5-2.4c2.2-3.8 4.1-8.3 5.6-13.5l-1.1-.8c-2.6 3.7-5.6 6.6-8.8 8.8-.7-.7-1.4-1.5-2.2-2.2m45 17.9h-21v5.4h21zm-50.1 4.1q0-.15 0 0m16.1 4.9c3.4 2.7 6.3 6.1 8.8 10.1l1.3-.3c-.6-4-1.9-8.8-3.7-14.3zm13.2 33c-4.7-2-9.2-4.3-13.7-7-2.7 2.6-5.6 4.7-8.7 6.4l-3.6-10.6c4.2-.9 8.1-2.2 11.8-4s6.7-4 9.1-6.5l1.8.5c-.6 1.1-1.1 2.1-1.8 3.1h47.1v8.4h-7.8c-4.6 4-9.8 7.6-15.4 10.6 7.8 3.2 17.9 6 30.2 8.4l-.4 1.7c-9.9-1.1-18.5-2.4-25.9-4-3.7-.8-7.3-1.7-10.8-2.8-.5.2-1 .4-1.5.7-9.6 3.9-21.4 6.7-35.5 8.4L48 348.8c10.8-.1 20.4-.8 28.6-2m31.2-9.5H77.7c3.2 2.7 6.7 5.2 10.7 7.3 7.2-1.8 13.7-4.2 19.4-7.3m-53.7-10.6c1.4-4.5 2.6-10 3.4-16.4l-1.2-.2c-2.5 4.9-5.6 8.7-9.2 11.4zm68.4-17.1-6.8 4.2q5.85 5.1 9.6 12.3l1.1-.3c-.8-5.2-2.1-10.5-3.9-16.2m32.6 45.4c1.2 1.3 2.9 2 5.1 2h27.2c2.1 0 3.5-.4 4.5-1.2q1.5-1.2 2.1-4.2l1.4-6-10.5-4.8-2 9.4c-.3 1.6-.9 2.8-1.7 3.5q-1.35 1.2-3.6 1.2h-16.9c-1.8 0-3.2-.5-4.1-1.5s-1.4-2.6-1.4-4.8v-10.1h-2.1v10.9c.1 2.4.7 4.3 2 5.6m-20.6 2.3c5.6-4.3 10.3-9.5 14.2-15.7l-11.5-3.3c-.2 3.2-.7 6.3-1.5 9.5-.8 3.1-1.7 6.1-2.9 8.9zm72.2-21.3-11.8 5.4c2.9 2 5.6 4.3 8.2 6.9q3.9 3.9 6.9 8.1l1.6-.5c-1.2-7.7-2.9-14.3-4.9-19.9m-66.4-35.8h29.6v31.6c0 1.8-.4 3.1-1.2 4s-1.9 1.3-3.5 1.3h-7.6l-1.4-6.9h8.7c1.1 0 1.9-.2 2.3-.6.5-.4.7-1.1.7-1.9v-.7h-25.5v10h-2.1zm27.6 20v-3h-25.5v3zm0-9.8v-3h-25.5v3zm9.5-.4v19.9c0 2.4.6 4.2 1.9 5.4s3.2 1.8 5.9 1.8h10.6c2.7 0 4.8-.4 6.3-1.3s2.7-2.3 3.5-4.3l.9-3-8.4-5.6-3.1 7.4c-.7 1.7-1.5 2.9-2.4 3.7s-1.9 1.2-3.1 1.2h-4c-2.1 0-3.6-.4-4.6-1.3-.9-.9-1.4-2.2-1.4-4v-2.7c8.4-2.5 15.8-6.9 22.1-13.1l-.8-1.3c-3.5 1.1-7 2.1-10.7 2.8-3.4.7-6.9 1.1-10.7 1.5V310zm-43.7-13.7v1.4c7.4-.2 14.1-.4 20.3-.7 5.6-.3 10.8-.7 15.8-1.2 1.3 1.5 2.4 3 3.5 4.5l1.4-.5c-1.3-6.6-3.2-12.5-5.8-17.9l-9.7 4.5c1 .7 1.9 1.4 2.9 2.1-3.5 1.6-7.1 2.9-11 4.1-.6.2-1.1.3-1.7.5.8-3.8 1.4-8 1.7-12.5l-1.4-.3c-2.9 5.9-6.9 11.1-11.9 15.4-1.3.2-2.7.4-4.1.6m61.3 5.8c-.7 1.6-1.5 2.9-2.4 3.7s-1.9 1.2-3.1 1.2h-4c-2.1 0-3.6-.4-4.6-1.3-.9-.9-1.4-2.2-1.4-4v-2.6c8.4-2.6 15.8-7 22.1-13.3l-.8-1.2c-3.5 1.1-7 2.1-10.7 2.8-3.4.6-6.9 1.1-10.7 1.3v-6.8h-2.2v19.8c0 2.4.6 4.2 1.9 5.4s3.2 1.8 5.9 1.8h10.6c2.7 0 4.8-.4 6.3-1.3s2.7-2.3 3.5-4.3l.9-3-8.4-5.6zm-19.9 49.7 1.8-.5c-1-5.2-2.5-10-4.5-14.5l-10.2 4.9c4.9 2.4 9.3 5.8 12.9 10.1m53.5-56.9h23v52.7H221v5.1h72.4v-5.1h-30.6v-52.7h23v-5h-57.2zm84.8 35.7v17.1c0 1.9-.3 3.3-.9 4.1s-1.6 1.2-2.9 1.2h-4.9l1 5.4h9.6c5.7 0 8.6-2.8 8.6-8.3v-26.7c2.2-1.7 4.3-3.4 6.3-5.2l-1.4-4.5c-1.6.8-3.3 1.5-4.9 2.2v-12.6h5.5V298H324v-16.4h-10.6V298h-10.1v5.4h10.1v16.4c-3.7 1.1-7.4 2.1-11.3 2.9l2.4 12.8c3.1-1.6 6.1-3.2 8.9-4.9m50.8 11.8q7.5 3.45 18.6 5.7l-3.6 11.2q-13.05-2.85-23.1-11.7c-2.1 1.5-4.3 2.8-6.5 4-6.3 3.3-13.1 5.5-20.5 6.6l-.9-4.9c6.9-1.5 12.8-3.8 17.6-6.9 1.8-1.2 3.5-2.5 5.1-4-5.6-6.4-9.9-14.2-13-23.5h-4.2v-4.7h16.5v-14.6h-18.7v-4.9h18.7v-12.1h11.2v12.1h19.5v4.9h-19.5v14.6h16.3v4.8q-4.05 11.25-11.4 19.5c-1.1 1.2-2.2 2.3-3.3 3.4.4.1.8.3 1.2.5m-21.4-23.6c2.1 5.6 4.9 10.3 8.2 14 1.4 1.6 3 3 4.7 4.3.7-.9 1.4-1.8 2.1-2.8 3-4.4 5.5-9.6 7.4-15.6h-22.4zm111.4 2.6q5.7-5.85 10.2-12.9l-2.2-3.2c-6.6 9.5-14.1 16.3-22.6 20.5l2.5 5.3c4.3-2.6 8.4-5.8 12.1-9.7m-51.9-5.7v-25.4h-9.4v-4.7h42.5v4.7h-8.2v25.4h9.8v4.9h-9.8v37.7h-3.7v-37.7H406v2c0 7-.8 13.5-2.3 19.5-1.6 6-4.3 11.5-8.1 16.7l-4.3-4.4c4-4.3 6.9-9 8.6-14s2.5-10.8 2.5-17.3v-2.4h-12.2v-4.9h12.1zm3.7 0h17.5v-25.4H406zm46.6 27.6c-4.4 4-9.5 7.4-15.1 10.1l2.3 5.6c5.7-2.9 10.8-6.6 15.2-11.1s8.3-9.8 11.5-15.9l-2.4-3c-3.3 5.6-7.1 10.3-11.5 14.3m10.1-57.4-2.4-3.1c-5.4 8.1-12.6 14.5-21.7 19.2l2.4 5.4c8.9-5.4 16.1-12.6 21.7-21.5m12.4 19.2h25.5c-1.6-3.2-3.9-6-6.7-8.4h-13.2V293h63.9v3.7h-13.4c-1.4 3.1-3.2 5.9-5.3 8.4H550v4h-74.9zm18.4-8.7q0-.15 0 0m10.9 8.7h16.2c2.6-2.4 4.8-5.3 6.7-8.4h-28c.9 1.1 1.8 2.3 2.6 3.6 1 1.5 1.8 3.2 2.5 4.8m-3.4 52.6h24.1c2.1 0 3.8-.5 5-1.4s2.1-2.3 2.6-4.3l1.7-6.2-4.6-2.6-1.7 6.8c-.5 1.6-1.2 2.8-2.2 3.5s-2.4 1.1-4.1 1.1h-19.6c-3.9 0-5.9-2.1-5.9-6.3v-7.1h-3.5v8.2c0 2.7.7 4.7 2 6.1 1.5 1.5 3.5 2.2 6.2 2.2M491 284v3.3h43.1V284zm51.3 56-4.5 2.1q3.15 3.3 5.7 7.2c1.7 2.6 3.2 5.2 4.4 7.9l3.3-1.7c-2.2-5.6-5.2-10.8-8.9-15.5m-23.3 9.2c-2.3-4.3-5.1-7.8-8.4-10.6l-4.5 2.1c3.9 2.7 7.1 6 9.7 10zm18.3-12.1h-49.4v-22.5h49.4zm-3.7-12.7V318h-42.1v6.4zm-42 2.9v6.4h42.1v-6.4zm-13.8 30.4c1.8-2.4 3.3-5 4.7-7.8 1.4-2.7 2.5-5.5 3.5-8.3l-5-.9c-.7 2.8-1.7 5.5-2.8 8.1s-2.4 5-3.8 7.3zm131-29.8V339h-22.1v-11.1zm-17.7 2.6v6h13.3v-6zm-15.3-10.4h43.9v27.2h-43.9zm38.3 23.6v-20.3h-32.7v20.3zm-51.3 13.8v-73.1h69.8v73.1zm62.8-5.1v-62.8h-55.7v62.8zm-3.5-40.7v3.8h-48.7v-3.8h20.8v-4.5h-16.9v-12.6h40.9v12.6h-16.9v4.5zm-10.1-7.5v-6.4h-28.6v6.4zm41.8 28.9h58.1v24.4h-58.1zm7.1 13.3v6.8h43.9v-6.8zm43.9-3.2v-6.6h-43.9v6.6zm-18.2-61.3v3.9h23.7v8.9h8.9v5h-8.9v8.7h-23.7v5.7h27.5v3.7h-27.5v5.9h32.6v4.3h-72.7v-4.3h32.6v-5.9h-27.5v-3.7h27.5v-5.7h-25v-3.5h25v-5.7h-32.6v-3.8h32.6v-5.7h-25v-3.8h25V282h7.5zm0 23h16.6v-5.7h-16.6zm0-15.3v5.7h16.6v-5.7zm52.3 51.3q2.1-10.65 2.1-25.2v-25.3h62.3v-4.3h-30.6v-4.7h-7.6v4.7h-31v29.6c0 8.2-.5 15.3-1.4 21.4q-1.5 9.15-4.5 16.5l4 6.2c3.1-5.5 5.3-11.8 6.7-18.9m2.8-29.6 2 4.9c1.5-1.6 2.9-3.4 4.2-5.2v23.3h5.4V301c1-2.5 1.9-5.1 2.5-7.9l-5.5-1.2c-1.4 7.5-4.3 14-8.6 19.4m56.6 25.9-4.6 1.9c3.4 5.6 6.1 11.8 7.9 18.6l5.9-3.3c-2.2-6-5.2-11.7-9.2-17.2m-16.3 8.3q-3.45-5.85-9-10.8l-4.7 2c3.2 3.5 5.8 7.4 7.9 11.8zM768.7 293c-.5 1.8-1.1 3.6-1.7 5.3h11.5c1.8-2 3.2-4.4 4.3-7.1l5.8 2.3c-1.3 1.8-3 3.4-5 4.8h17.8v4h-15.8v6.6h14.1v3.8h-14.1v6.7h14.1v3.8h-14.1v6.6h16.7v4.2h-41.6v-23.7c-1.4 2-3 3.8-4.8 5.6l-2-4.9c4.7-5.2 7.8-11.6 9.3-19.4zm10.7 30.3h-13.1v6.6h13.1zm0-10.5h-13.1v6.7h13.1zm0-10.5h-13.1v6.6h13.1zm7.5 45.4q-.6 2.1-1.8 3c-.8.7-1.9 1-3.3 1h-13c-1.7 0-3-.5-3.8-1.4-.9-.9-1.3-2.3-1.3-4.1V338h-6.4v11.1c0 2.9.7 5.1 2.3 6.7 1.5 1.6 3.6 2.3 6.4 2.3h16.9c2.2 0 4-.5 5.3-1.4s2.3-2.5 2.9-4.6l1.9-7.7-4.6-2.6zm-40.8 10.5c1.4-2.9 2.7-6.1 3.7-9.5q1.65-5.1 2.7-10.2l-5.1-1.1c-1 3.4-2.2 6.6-3.5 9.6-1.3 3.1-2.8 5.9-4.4 8.4zm144 .1v-75.4h-5.5v36.8c-.5-2-1-4-1.6-6-1-3.5-2.3-6.7-3.8-9.8l-2.5 1.6c1.2 2.9 2.3 6.2 3.1 9.7.9 3.5 1.5 7 1.8 10.6l2.9-1.2v33.8h5.6zm-43.4-.8 4.7 2.2c4-4.2 7.1-10.2 9.2-17.9s3.1-15.9 3.1-24.7v-34.2h-5.5v35c0 8-1 15.6-2.9 22.9-2 7.2-4.9 12.8-8.6 16.7M824.4 301v-10.2h-10v-5.3h37.2v5.3h-10.5V301h8.7v22.8c1-2.6 1.8-5.4 2.5-8.5.9-4 1.5-8.1 1.7-12.3l3 .6c-.2 4.4-.7 8.8-1.5 13.3q-1.2 6.6-3 12l-2.7-2.1v26H816V301zm14.8 5v8.9c0 1.7.3 2.9 1 3.7s1.6 1.2 2.9 1.2h1.6V306zm-3.9 10.5V306h-4.9v3.8q0 6.75-2.7 12.3c-1.7 3.4-3.9 6-6.6 7.9v4.3h23.6v-8.9h-1.8c-2.4 0-4.3-.8-5.7-2.3-1.2-1.6-1.9-3.8-1.9-6.6m-14.2 22.2v8.8h23.6v-8.8zm5.6-32.7h-5.5v18c1.5-1.3 2.7-2.9 3.7-4.9q1.8-3.75 1.8-8.7zm3.7-5h4.9v-10.2h-4.9zm46 55.2v-73.3h-5.3v35.6l-1.2-4.8c-1-3.4-2.2-6.5-3.5-9.5l-2.4 1.6c1.1 2.9 2.1 6.2 3 9.6.9 3.5 1.4 6.8 1.7 10.1l2.5-1.2v31.8h5.2zm63.1-28.3h25.4v-6.2h-25.4v-19.2h29.2v-6.2h-29.2v-14.6h-2.4v14.6h-21.4c.9-3.8 1.7-7.6 2.1-11.6l-2.3-.6c-.8 5.4-2.6 10.7-5.3 15.7-2.8 5-6.3 9.7-10.6 14l5.6 6.7c3.3-4.9 6.1-10.5 8.2-16.6.2-.5.3-1 .5-1.4h23.2v19.2h-23.6v6.2h23.6v21.5h-36.2v6.4h74.8v-6.4h-36.2zm118.2-40.8h-32.2v-5.7h-2.4v5.7h-33.9v5.5h68.4v-5.5zm-63.3 57.7c1.3-5.5 1.9-11.5 1.9-18v-10.9h62.9v-5.5H994v16.4c0 5.3-.8 10.2-2.4 14.6s-4.2 8.4-7.7 11.9l4.5 6.5q4.05-6.75 6-15m2.9-35.5q17.25-2.25 32.1-6.6c7.4 1.7 14.8 3.8 22.2 6.2l1.2-1.2c-6.3-2.4-12.8-4.6-19.3-6.5 5.4-1.7 11.2-3.9 17.4-6.5l-1.4-1c-6.4 2.5-13.3 4.5-20.5 6.1-8.4-2.2-17.2-4.2-26.4-5.9l-2.8 3.3c8.5 1.1 16.3 2.5 23.4 4-8.4 1.8-17.9 3.1-28.3 4.1zm34.5 34.4h21.2v-5.2h-21.2v-8.4h24.3v-5.4h-24.3v-6.1h-2.3v6.1H1010q.75-2.7 1.2-5.4l-1.8-.5c-1 3.6-2.5 6.9-4.5 10q-3 4.5-7.2 7.8l4.6 4.9c2.3-3.1 4.2-6.4 5.6-10.2.2-.4.3-.8.4-1.2h21.2v8.4h-20.8v5.2h20.8v8.4h-31.1v5.6h61.6v-5.6h-28.3v-8.4zm71.3 13.4h-28.4v-35h28.4zm-26.2-29.1v23.1h24.1V328zm37.1-5.9h28.4v35H1114zm26.3 29V328h-24.1v23.1zm-51.3-67.6h39.2v28.7H1089zm36.9 22.7v-16.8h-34.6v16.8zm64.4 21.2h33v29.8h-33zm30.8 23.9v-17.9h-28.6v17.9zm-62.7-10.6-4.2-6.3c3.9-4.1 7-8.8 9.4-13.9 2.3-4.9 4-10.1 5.1-15.8h-11.9v-6.4h15.3v-15.8h2v15.8h10.1v3.4c3.2-2.4 6-5.2 8.4-8.6 2.6-3.6 4.6-7.5 6.2-11.8l2.1.4c-.5 2.3-1.2 4.5-1.9 6.7h25.3v5c-4.1 6.9-9 13-14.6 18.2.5.4 1.1.9 1.6 1.3 6.2 4.8 13 8.6 20.6 11.4l-.7 2c-7.9-2.6-15.2-5.9-21.9-10.1-1-.6-1.8-1.2-2.8-1.9l-.1.1c-7.1 5.9-15 10.4-23.8 13.7l-1.7-6.8c1.3-.3 2.6-.7 3.8-1-3.5-2.3-7-4.2-10.7-5.6v44.5h-2v-54.5h-1.7c-.9 7-2.2 13.4-4 19.2-1.8 6-4.4 11.6-7.9 16.8m37.5-44.4c0 .1-.1.1-.1.2 3.4 4.8 7.1 9.1 11.3 12.9 5.8-4.3 10.7-9.6 14.8-15.8h-24.8q-.45 1.35-1.2 2.7m-21.7 8.4v3.8c4.7 2.8 8.7 6.3 12.2 10.3l-.9 1.3c6.5-2 12.4-4.7 17.8-8.2-3.9-3-7.6-6.4-10.9-10.1-1.6 2.2-3.4 4.4-5.4 6.4l-2.7-4.9v1.3h-10.1zM63 440.3h36.4l-14.1 22.4 7.8 4.2 16.6-26.6v-8.2H63zm8.6-26v7.8h30.5v-7.8zm1.5-2.2c5.3-4.9 9.9-10.1 13.8-15.5 4 5.8 8.9 11.4 14.7 16.6 6.3 5.8 13.3 10.8 20.9 15.1l4.8-8.1c-7.1-3.8-13.8-8.5-20.1-14.2s-11.5-11.6-15.7-17.8h-9.4c-4.1 6.6-9.3 12.6-15.4 18.1s-12.9 10.1-20.3 13.8l4.8 8.1c8-4.6 15.3-10 21.9-16.1m71.5-20.2h54.8v70.4h-54.8zm8.8 38.7v23.2h37.3v-23.2zm37.3-8.4v-21.9h-37.3v21.9zm36.6-20.3c2.6 2 4.8 4.2 6.8 6.6l4.4-7.1c-2.2-2.3-4.5-4.6-7.1-6.7s-5.3-4-8.2-5.5l-4.3 7.5c3 1.4 5.8 3.2 8.4 5.2m54.5 4.6v-4.4H295v-7.6h-13.1v-5.7h-8.4v5.7h-11.8v-5.7h-8.5v5.7h-13v7.6h13v4.4h8.5v-4.4h11.8v4.4zm12.2 60.1c-6.3-1.4-11.7-3.6-16.3-6.4-4.2-2.6-7.6-5.9-10.4-9.7H266c-2 3.5-4.6 6.4-7.8 8.8-4.6 3.3-10.7 5.8-18.4 7.5l-2.1-7.5c6.5-1.2 11.6-3.1 15.2-5.5 1.4-.9 2.6-2 3.7-3.3h-17.2v-6.6h21c.1-.2.2-.4.2-.6q.75-2.1 1.2-4.5h-20.5v-6.3h21.4c.1-1.6.2-3.3.3-5h-20.6v-18.6H292v18.6h-20.6c0 1.7-.1 3.4-.3 5h22v6.3h-22.9c-.3 1.8-.8 3.5-1.3 5.1H295v6.6h-17.5c1.7 1.6 3.6 3.1 5.6 4.3 3.5 2 8 3.5 13.4 4.7zm-22.7-45.5h12.3v-5.9h-12.3zm-8.4-5.9h-12.3v5.9h12.3zm-24.9 17-8.3-3.4c-2.8 12-7 23.1-12.4 33.5l8.2 4.7c5.3-10.5 9.4-22.1 12.5-34.8m-5.6-6.1 4.6-6.6q-3-3.6-7.2-6.9c-2.8-2.1-5.5-4-8.4-5.5l-4.2 7.2c2.9 1.4 5.7 3.1 8.3 5.1 2.6 2.1 4.9 4.3 6.9 6.7m114.9 2.5 14.6-10.6v-7.6h-39.1v7.6h26.5l-10.8 7.8v4.9h-32.9v8.4h32.9v12.3c0 2.1-.4 3.6-1.2 4.6-.8.9-2.2 1.4-4 1.4h-8.8l2.1 8.2h11c3.3 0 5.7-.9 7.4-2.6 1.6-1.8 2.4-4.4 2.4-7.9v-15.8H379v-8.4h-31.7zm-9.5-40.7v8.8h-30.4v18.9h8.5v-11.3h52.8v11.3h8.5v-18.9h-30.4v-8.8zm77.7 26.4H392v6.4h23.5zm-26.7-4.9h30v-7.6h-30zm3.4-12.3h23.2v-6.7h-23.2zm26.5 60.3q9.9-2.85 17.4-8.7c-1.3-1.5-2.5-3-3.5-4.5-2.7-4-5-8.5-6.8-13.3h-4.7v-8.2h37.5v8.2q-4.35 10.05-10.8 17.4c.7.6 1.5 1.1 2.3 1.7 4.2 2.8 9.4 5.4 15.6 7.6l-3.1 8.3c-7.1-2.6-13.2-5.7-18-9.4-.9-.7-1.8-1.4-2.7-2.2-6 5.1-12.7 8.9-20.4 11.5zm15.7-26.4c1.4 3.4 3.2 6.6 5.3 9.5.7 1 1.5 1.9 2.4 2.8 3.2-3.5 5.7-7.6 7.7-12.3zm25.8-31.2-1.2 6.6c-.2 1.2-.5 2.1-1 2.6s-1.2.8-2 .8h-2.1c-1.2 0-2.1-.3-2.6-1.1q-.9-1.05-.9-3.9v-15.2h-24.8v8.3c0 3.9-.7 7-2.2 9.5-1.5 2.4-3.7 4.3-6.7 5.6l2.2 8.4c4.9-2.3 8.6-5.3 11-9s3.6-8.4 3.6-14v-.6h9v9.5c0 3.9.8 6.7 2.4 8.3s4 2.5 7.1 2.5h4.4c2.7 0 4.7-.6 6-1.9 1.3-1.2 2.3-3.3 2.8-6.1l1.4-7.5zm-43.3 64.4h-26.3v-27.6h26.3zm-18.7-20.6v13h11.2v-13zm-6.2-11.7h23.5v-6.5H392zm86.3 4.8H506v27.6h-27.8v-27.6zm20.4 20v-13h-13.1v13zm6.7-42.4h-26.6v6.4h26.6zm-26.5 17.6h26.6v-6.5h-26.6zm30.6-30.1h-34.7v7.6h34.7zm-30.6-4.7h26.6v-6.7h-26.6zm55.2 68.7v-43.1h16.3v-8.4h-16.3v-26.1h-8.5v26.1h-16.3v8.4h16.3v43.1zm102.5-4.7-1.4 2.7c-5.4-2.9-10.3-6.7-14.4-11.2-1.3-1.4-2.5-3-3.7-4.5-5.5 6.9-12.4 12.2-20.8 15.9l-.9-2.8c8.1-3.8 14.8-9 19.9-15.6-1.8-2.6-3.5-5.4-4.9-8.4-2.7-5.6-4.8-11.6-6.4-18.1h-5.2v8.4c0 7.9-1 14.9-3 20.9-2 6.1-5.1 11.5-9.3 16.3l-1.7-2.5c3.7-4.1 6.6-9 8.4-14.7 1.9-5.7 2.8-12.2 2.8-19.6V394h37v2.9h-34.2v19.4h31.8v2.8c-2.1 9.7-5.9 18.5-11.6 26.4 4.7 6.6 10.6 11.8 17.6 15.6m-19.5-18.2c4.9-7 8.4-15 10.4-23.9h-20.6c2.1 8.9 5.5 16.8 10.2 23.9m-56.7 22c2.6-4.4 4.5-9.5 5.7-15.5 1-4.9 1.6-10.5 1.7-16.7H581v22.9h2.8V430h-15.9v-12.7h22.2v-2.6H583v-25h-2.8v25h-12.3v-21.9H565V429c0 7.2-.5 13.6-1.5 19-1 5.5-2.6 10.3-4.7 14.4zM687.8 447c-5.9 2.7-12.3 5-19.1 6.9V428H685v-2.8h-36.1v2.8h17v26.7c-6.6 1.7-13.6 3.2-21 4.2l.8 2.8c16.3-2.5 30.7-6.4 42.9-11.8zm31.6-40.3h-26c-.3-5.6-.5-11.6-.5-18h-3c0 6.4.2 12.4.5 18h-44.9v3h45.1c.5 7.6 1.3 14.4 2.3 20.6q3 17.25 7.8 25.8c3.2 5.7 6.5 8.6 9.9 8.6 1.8 0 3.3-.7 4.5-2s2.2-3.3 3-5.8c.9-2.6 1.7-6.1 2.5-10.4l-2.6-1.2c-1 6-2.1 10.1-3.1 12.6q-1.5 3.6-4.2 3.6c-2.7 0-5.5-2.7-8.2-8.1-2.8-5.4-5-13.6-6.9-24.6-.9-5.7-1.6-12.1-2.1-19.1h25.8v-3zm-15.8-18.5-2.5 1.8c2.6 1.8 5 3.8 7 6.2 2.1 2.4 3.8 4.8 5.2 7.3l2.6-1c-1.2-2.7-3-5.2-5.2-7.7-2.1-2.5-4.5-4.7-7.1-6.6M805 442.4l-3.5-1.2-1.5 9.8c-.3 2.6-1.1 4.4-2.3 5.5s-3.1 1.6-5.7 1.6h-7.3c-2.9 0-5-.7-6.4-2-1.4-1.4-2.1-3.6-2.1-6.7v-11.6c1.6-.9 3.2-1.9 4.8-2.9 6.9-4.5 13.3-10 19-16.4l-3.6-4.6c-5.2 6.5-11 12.1-17.5 16.6l-2.7 1.8v-21.7h-5v24.7c-4.5 2.5-9.4 4.8-14.7 6.7l1.6 3.7c4.6-1.5 8.9-3.3 13.1-5.3v11.1c0 4 1 7 3 8.8 2 1.9 5 2.8 9.1 2.8H794c3 0 5.1-.6 6.5-1.9s2.3-3.5 2.8-6.7zm-19-35v-8.1h17.6v-3.4H786v-7.2h-5v7.2h-10v3.4h10v8.1zM731.8 443c5.5-3.3 10.3-7.2 14.5-11.5v34.3h5.2v-40.3c3.2-4.2 6.2-9 8.8-14.2l-5.3-2c-2.7 6.3-6.1 11.9-10.2 16.7-4.1 4.9-9 9.3-14.9 13.3zm.6-43.7H750v8.1h5v-8.1h10v-3.4h-10v-7.2h-5v7.2h-17.6zm145.4 48.5c4.6-3.2 8.6-7.1 12.1-11.6l-3.5-2.6c-3.1 4.9-6.7 8.8-10.8 11.9-1.7-1.8-3.2-3.8-4.7-5.9v-6.8h-22.6v2.6H866v22.1c0 1.7-.3 2.9-.9 3.7-.6.7-1.6 1.1-3 1.1H857l.6 2.8h6.9q3.3 0 4.8-1.5t1.5-4.5v-14.8c2.4 3.6 5.1 6.9 8.1 9.8 3.5 3.4 7.3 6.4 11.7 9.2l2.6-4.1q-7.2-4.05-12.9-9c-.8-.7-1.7-1.5-2.5-2.4m12.8-29.3H869v-7.8h17.8v-2.8H869V400h19.4v-2.8h-12.9c1.1-1 2.1-2.1 2.9-3.2 1.1-1.5 2.1-3 3-4.7l-4.7-1.4c-.7 1.8-1.4 3.5-2.3 5.1-.8 1.4-1.7 2.9-2.8 4.3h-10.4c-1.9-3.2-4.3-6.1-7.1-8.9l-3.1 1.4q3.45 3.45 5.4 7.5h-11.7v2.8H864v7.8h-17.7v2.8H864v7.8h-21.6v2.9h48.2zm-23.8 10.1c4 1.2 7.9 2.6 11.7 4.3l1.4-4.1q-12-3.9-24.9-5.4l-.7 2.4c4.3.7 8.5 1.7 12.5 2.8M860 442h-17.7v2.6h13c-1.5 3.2-3.5 6.1-6.1 8.7-2.8 2.7-6.2 5-10.3 7l1.4 2.9q6.75-3.3 12-8.1 5.1-4.8 7.8-10.5V442zm-35.9-12.5c1.7-5.3 2.9-10.7 3.8-16.4v52.1h4.5v-43.9c3.4 4.1 6.1 8.4 8 12.9l3.1-3.7q-4.5-7.35-11.1-13.5v-7.1h9.1v-3.7h-9.1v-17.5H828v17.5h-12.4v3.7h9c-.8 6.1-2 11.9-3.7 17.6-1.9 6-4.2 11.6-7.1 16.6l2.1 3.2c3.4-5.4 6.2-11.3 8.2-17.8m144.5 16 7 2.5-1 8.6q-.3 3.45-2.1 5.1c-1.2 1.1-2.8 1.7-4.9 1.7h-16.9c-3 0-5.2-.7-6.6-2.2-1.4-1.4-2.1-3.8-2.1-6.9V449h-8c-2.4 4.6-6 8.3-10.8 10.9-4.9 2.7-11.4 4.5-19.7 5.6l-1.1-7.8c7.3-.3 13.1-1.2 17.6-2.8 4.1-1.4 7.3-3.4 9.8-5.9h-15.9v-35.3h48.8V449h-5.1c2.2 2.7 4 5.9 5.3 9.5l-3.1 1.1c-2.4-3-5.4-5.5-8.9-7.6l6.2-3.1h-11.6v4.1c0 2.5.5 4.3 1.5 5.3s2.7 1.6 5 1.6h9.9c1.8 0 3.1-.4 4.1-1.3s1.5-2.2 1.7-4zm-50.7-16.4v4.7h40.8v-4.7zm40.7-5v-4.8h-40.8v4.8zm-40.7 14.7v4.9h40.8v-4.9zm26.5-37.9v11.3h3.7v-2.9h17.6v-5.6h-17.6v-2.8zm-12.5 11.3v-11.3h-3.7v2.8h-17.4v5.6h17.4v2.9zm4.4-24.5v5.7h-31.7v14.4h3.9v-8.4H968v8.4h3.9v-14.4h-31.7v-5.7zm49.9 3.3h74.4v7.8h-31.3c-.4 1.9-.9 3.9-1.6 5.7-.7 1.9-1.6 3.5-2.6 4.9h30.5v54.5h-64.4v-54.5h25q3.3-2.25 5.7-5.1c1.5-1.8 2.7-3.7 3.5-5.5h-39.2zm47.8 40.7h-21.1v9.3h21.1zm-24.4-15h-14.7v39.8h14.7zm3.3 39.7h21.1v-9.7h-21.1zm24.4 0h14.7v-39.8h-14.7zm-3.3-39.7h-21.1v9.2h21.1zm37.6-4.6c4.3-3.1 8.2-6.4 11.9-10.2 3.7-3.7 6.9-7.6 9.7-11.8l-1.1-1.1c-2.8 4.2-6 8-9.6 11.7s-7.5 7-11.8 10zm22.2 39.8c3.7-3.3 6.9-7 9.5-10.9q3.9-5.85 5.7-12l1.4.3c-.6 2.2-1.4 4.3-2.4 6.4h30v1.4c-4 5.9-9.2 11.1-15.8 15.6.7.4 1.3.8 2 1.2 6.7 4 14 7.3 22 9.9l-.6 1.4c-8-2.6-15.3-5.9-22.1-10-.9-.5-1.7-1.1-2.6-1.6-.2.1-.4.3-.6.4-7.5 4.8-15.9 8.5-25.3 11.2l-.4-1.6c9.1-2.5 17.3-6 24.5-10.6.1-.1.3-.2.4-.3-5.1-3.3-10-7.1-14.6-11.3-.1.2-.2.3-.3.5-2.6 3.9-5.8 7.6-9.7 11zm13.6-14.8c-.5 1.1-1.1 2.1-1.7 3.2 4.8 4.3 9.9 8.2 15.3 11.6 6.3-4.2 11.4-9.2 15.3-14.8zm10.6-11.5c7.1-.8 14.1-1.7 21.2-2.7 1.1 2.1 2.1 4.3 2.9 6.6l1.4-.6c-2.3-6.5-5.6-12.3-9.8-17.5l-1.2.9c2 2.6 3.9 5.2 5.4 8.1.2.3.3.6.5.9-9.6 1.5-18.9 2.6-28 3.4q6-5.1 11.1-11.1c3.8-4.4 7.3-9.2 10.6-14.3l-1.3-1c-3.3 5.2-6.9 10.1-10.7 14.6-.4.5-.9 1-1.3 1.5-3.3-3-6.6-5.7-10.1-8.1 4.4-4.6 8.5-10.2 12.2-16.8l-1.3-.8c-1.9 3.3-3.8 6.4-5.8 9.2-1.9 2.7-4.1 5.1-6.5 7.5-2.4-1.6-4.9-3-7.5-4.3l-.8 1.4c6.5 3.1 12.7 7.4 18.7 13-3.1 3.4-6.4 6.5-9.8 9.5-3.9.3-7.8.6-11.6.8v1.5c7.1-.3 14.4-.8 21.7-1.7m-33.6-1.5c.5-.5 1-1 1.4-1.5v42.3h1.4V421q4.65-5.1 8.4-10.5l-1-1.1c-6.9 9.8-15.2 18.2-24.9 25.1l.9 1.4c5-3.6 9.6-7.5 13.8-11.8m71.2 13.1.5 1.6c4.7-2.1 9.3-4.5 13.6-7.1v24.8c0 2-.4 3.5-1.3 4.5-.9.9-2.3 1.4-4.2 1.4h-4.8l.3 1.6h5c4.4 0 6.6-2.2 6.6-6.7v-26.5c3-1.8 5.9-3.7 8.8-5.8l-.9-1.4c-2.6 1.8-5.2 3.5-7.9 5.2v-20.7h8.3v-1.6h-8.3v-18h-1.5v18H1156v1.6h13.7v21.6q-6.9 4.2-14.1 7.5m42.4-.9c-2.6 1.4-5.4 2.7-8.5 3.8-3.2 1.1-6.6 2.1-10.1 3l.4 1.5c7.3-1.7 13.3-3.9 18.1-6.6-.5 4.4-1.3 8.4-2.6 11.9-2 5.5-5.2 10.4-9.8 14.7l1 1.2c4.7-4.5 8-9.6 10.1-15.4s3.1-12.6 3.1-20.4v-41.5h-1.4v14.6h-14.9v1.5h14.9v16.3H1185v1.5h13.3v7.4c-.1 2.4-.2 4.5-.3 6.5m30.4-31.6v-1.5h-14.9v-14.6h-1.5v76h1.5v-21.5h17.5v-1.6h-17.5v-18.9h13.3v-1.5h-13.3v-16.3h14.9zm-1114 154.7v-31.7H90.8v-31.2h29.3v66.4c0 3.1-.7 5.5-2.1 7.1q-2.1 2.4-6.6 2.4h-7.1l-1.8-7.9h6.5c1.9 0 3.2-.4 4.1-1.3.8-.9 1.3-2.2 1.3-3.8m0-56.5H95.9v6.5h18.5zm0 18.9v-6.5H95.9v6.5zm-60.7-25.4H83v31.2H59.4v44.6h-5.7zm5.7 18.9v6.5h18.5v-6.5zm18.4-5.9v-6.5H59.4v6.5zm10.6 51.7c-.6.7-1.6 1.1-2.9 1.1h-7l1.7 6.9h7.7c2.3 0 4-.6 5.1-1.9 1.1-1.2 1.7-3.1 1.7-5.6v-9c3.7-1.6 7.3-3.3 10.8-5.3l-1.7-3.8c-2.9 1.3-6 2.5-9.1 3.6v-5.7h12.8v-6.1H94.6v-4.4h-5.4v4.4H66.4v6.1h22.9v7.4c-1.5.4-3 .9-4.5 1.3-6.7 1.8-13.9 3.1-21.6 4.1l1.5 7.2c7.8-1.5 15-3.4 21.6-5.6 1-.3 2-.7 2.9-1.1v3.2c.1 1.4-.2 2.5-.8 3.2m69.9 4c-1.9.8-4.5 1.5-7.8 2l2 5.4c5.6-1.2 9.6-3.2 12-5.8s3.6-6 3.6-10.1v-6.1h-4.6v5.8h-8.3v-5.5h-4.3v10.6h11.5c-.1.2-.1.3-.2.5-.7 1.3-2 2.4-3.9 3.2m14.7-15.9s-.1 0 0 0m17.1 23.1-1.4-5.9h5.7q2.85 0 4.2-1.2c.9-.8 1.3-2.1 1.3-3.8v-38h-15.8l3.3 1.5q-2.55 5.25-5.7 9c.9.9 1.8 1.8 2.6 2.8 1.7-2.2 3.2-4.5 4.6-7l3.5 1.8c-2.3 4.6-4.9 8.5-7.9 11.7 2.2-.5 4.3-1.2 6.5-1.9-.3-.7-.7-1.4-1-2.1l3.7-2c.2.5.3.9.5 1.4 1.2 3.5 2.1 6.9 2.6 10.2l-2.9.9c-.3-1.2-.6-2.4-1-3.6-6 1.3-12.6 2.4-19.8 3.1l-.5-4c1.3-.1 2.6-.3 3.9-.5 1.9-1.6 3.7-3.2 5.4-5-1.1-.9-2.3-1.8-3.5-2.6-1.7-1-3.6-2-5.7-2.9l3.2-4.9c.8.5 1.5 1 2.2 1.5 2.2-2.2 4.1-4.6 5.6-7.5h-8v-27.5h29.6v66.9c0 3.1-.7 5.5-2.1 7.1q-2.1 2.4-6.6 2.4h-6.5zm9.8-70.5h-19.1v5.2h19.1zm0 15.8v-5.2h-19.1v5.2zm-61.1-21.7h29.6v27.5h-10.3l3.3 1.5c-1.6 3.5-3.5 6.5-5.8 9.1.9.9 1.8 1.8 2.6 2.7 1.7-2.2 3.2-4.5 4.7-7l3.4 1.8c-2.3 4.6-4.9 8.5-7.9 11.7 2.2-.5 4.4-1.2 6.5-1.9-.4-.7-.7-1.4-1.1-2.1l3.8-2c.1.5.3.9.4 1.4q1.8 5.1 2.7 10.2l-3.1.9c-.3-1.3-.6-2.5-1-3.6-5.9 1.4-12.5 2.4-19.8 3.1l-.6-4c1.4-.1 2.8-.3 4.1-.5 1.9-1.5 3.7-3.2 5.3-4.9q-1.65-1.35-3.6-2.7c-1.7-1.1-3.5-2-5.6-2.9l3.1-4.9c.8.5 1.5 1 2.2 1.5q3.3-3.3 5.7-7.5h-13.5v48.9h-5.4v-76.3zm5.4 16.5v5.2h19.2v-5.2zm19.1-5.4v-5.2h-19.2v5.2zm12.6 43.5v21.3h4.6v-10.4H193v-10.6h-4.3v5.5h-8.3v-5.8zm92.8-39.4c4.9 5.8 8.7 12.6 11.3 20.3l4.3-2.6q-4.05-11.1-12-19.8zm-28.3-2.4q-1.95 6-4.8 11.4c-1.9 3.7-4 6.9-6.4 9.8l3.5 1.6c2.6-2.8 4.9-6.1 7-9.7s3.8-7.3 5.2-11zm53.3 28.6h-34.4v-34.7h29v-3.5H226v3.5h29v34.7h-34.4v3.5H255v30.9h4.3v-30.9h34.4zm46.4-40.5v12.3h-33.6v3.7H331q-.15 11.7-2.4 21c-1.6 6.5-4.2 12.4-7.7 17.9s-8 10.4-13.6 15l2.7 3.4c6.1-5.2 11-10.7 14.7-16.6 3.8-5.9 6.5-12.2 8.2-19 .2-.7.3-1.4.4-2.1h28.5l-1.1 27.2c0 2.1-.6 3.6-1.6 4.6-1 .9-2.6 1.4-4.6 1.4h-10.3l.9 3.7h11.8c2.6 0 4.6-.6 6-1.9 1.4-1.2 2.1-3.2 2.2-5.9l1.4-32.6H334c.9-5 1.3-10.4 1.4-16.1h42.8v-3.7h-33.5v-12.3zm91.3 72h-27.2V544h27.2zm-21.8-21.7v18.4H426v-18.4zm42.5-.5c4.5 7.6 9.9 14.6 16.2 20.9l-4.7 5.8c-5.4-6.5-10.1-13.8-14.1-21.6-4.5 8.1-10 15.3-16.6 21.6l-2-3.1c6.5-7.2 11.8-15.2 15.9-24.1-3.3-7.2-6-14.6-8-22.2q-3.15 7.2-7.2 12.9l-2.3-3c.1-.2.2-.4.4-.7H400v3.6c0 7.2-.8 13.7-2.4 19.6s-4.2 11.1-7.7 15.7l-2.5-3.1c2.3-4.3 3.9-8.9 5-14 1-5 1.6-10.7 1.6-17.1v-35.6c6.3-.5 12.4-1.3 18.2-2.5s11.6-2.9 17.1-5.1l2.7 5.8c-5.6 1.4-11.2 2.5-17 3.2-4.8.6-9.9 1-15.1 1.3v8.9h30v18.4c2.8-4.9 5-10.3 6.7-16.4 1.9-6.8 3.1-14.1 3.7-22l6.3 1.3c-.8 4.8-1.8 9.4-3 13.9h22.8v3.4h-4.2c-1.9 12.2-5.2 23.4-10 33.6.1.2 0 .4-.1.6M400 529.9h23.9v-12.7H400zm40.6-10.7c2.1 7.7 4.9 15 8.4 21.8 3.5-8.6 5.9-18.2 7.2-28.6h-13.3c-.6 1.9-1.2 3.9-1.9 5.7-.2.4-.3.7-.4 1.1m38.2 33.5h19.4l-.7 8.2c-.2 2.2-.7 3.8-1.6 4.8s-2.4 1.5-4.3 1.5h-8.4l.7 3.2H495q4.35 0 6.6-2.1c1.5-1.4 2.3-3.5 2.5-6.4l.9-12.4h-19.3l1.4-10.7h17.2v-16.6h-20c4.2-1.8 8-3.9 11.4-6.4 5.7-4.1 10.4-9.2 14.2-15.1v-3.1h-30.7v3.1h23.2c-2.2 3.9-5.1 7.4-8.6 10.5-3.1-2.5-6.6-4.7-10.3-6.4l-2.6 1.6c3.3 2.5 6 5.4 8.1 8.6-4.2 2.9-9.1 5.4-14.7 7.2l1 3.1c3-.9 5.8-1.8 8.4-2.9v3h14v10.1h-16.8zm72.6-32.4c-5.2-1.8-10-4-14.4-6.8q2.85-1.5 5.4-3.3c2.1-1.5 4-3.2 5.8-5l-4.7-3.3c-2.8 3.9-5.9 7.1-9.3 9.7-.5-.4-1.1-.7-1.7-1.1-1.9-1.4-3.7-3-5.5-4.7 3.8-2 7.4-4.6 10.6-7.8l-4.6-3.2c-2.4 3.5-5.2 6.4-8.2 8.8-2.5-2.6-5-5.4-7.3-8.4l-2.7 1.8c4.1 6.8 8.9 12.5 14.3 17.3s11.8 8.7 19.1 11.8zm-5.6 51c-7.1-1.6-13.3-4.4-18.5-8.3-5.6 3.8-12 6.5-19.1 7.9l-.9-3.2c6.3-1.8 11.8-4.3 16.5-7.7-3.8-3.6-6.9-7.8-9.2-12.5h-4.1v-3.1h31.8v3.1c-2.8 4.6-6.4 8.7-10.7 12.3 4.7 2.8 10.2 4.7 16.3 5.7zM527.4 557c3.1-2.8 5.7-6 7.6-9.5h-16.8c2.4 3.6 5.5 6.7 9.2 9.5m-12.9-35.1v4.7q0 4.65-1.8 7.8c-1.2 2.1-3.1 3.8-5.6 5.2l1.2 3.3c3.8-1.5 6.7-3.5 8.7-6.2s3-6 3-10.1v-1.2h8.4v7.5q0 3.75 1.8 5.4c1.2 1.1 3 1.7 5.5 1.7h4.4q2.85 0 4.2-1.2c.9-.8 1.6-2.1 2.1-4l1.4-4.9-2.8-1.4-.9 3.3c-.3 1-.6 1.7-1 2.1s-1.1.5-2 .5h-3.4c-1.3 0-2.3-.3-2.9-.9s-.9-1.7-.9-3.2v-8.6h-19.4zm48.3-26L561 499c2.5 1.6 4.8 3.7 6.8 6.1s3.8 5 5.3 7.9l3.7-5.5q-2.55-3.3-6.3-6.3c-2.5-2-5-3.7-7.7-5.3m49.5 64.4v-9.6h-16.2v-3.3h16.2V539h-14v-26.3h14v-7.8h-15.4v-3.1h15.4v-7.2h6.4v7.2h16v3.1h-16v7.8h13.8V539h-13.8v8.4h16.9v3.3h-16.9v9.6zm15.3-33.4h-9.4v9.1h9.4zm0-11.4h-9.4v8.8h9.4zm-15 0h-9.4v8.8h9.4zm-9.4 20.5h9.4v-9.1h-9.4zm-30.2-.3q-4.5 17.1-13.5 31.5l6.3 4.7c2.3-5.5 4.3-11.1 6.1-16.6 1.7-5.6 3.2-11.5 4.6-17.8zm26 25.7c-2.6-1.5-4.8-3.7-6.6-6.5v-22.1h-14.5v3.6h8.6v18.3c-1.9 1.6-3.9 3.4-6 5.5-2.3 2.3-4.2 4.7-5.8 7.2l5.4 3.9c1.4-2.7 3.1-5.3 5-7.9 1.4-1.8 2.7-3.5 4.1-4.9 1.8 3.6 4.2 6.4 7.1 8.3 3.3 2.2 7.3 3.4 11.8 3.4h27.3l1.4-6.4h-27.7c-4 0-7.4-.8-10.1-2.4m-9.6-33.4 3.7-5.2c-1.6-2-3.5-4-5.7-5.7q-3.15-2.7-7.2-4.8l-2 2.6c2.4 1.8 4.5 3.8 6.4 6.1 1.9 2.1 3.5 4.5 4.8 7m-18.3 3.5 3.4-6.2c-1.8-1.9-3.9-3.6-6.3-5.3s-5.1-3.1-8-4.4l-1.7 3.1c5.2 3.3 9.3 7.6 12.6 12.8m17.7-31.2c-2.1-1.8-4.5-3.5-7.1-5.1l-2 2.6c2.3 1.9 4.4 4 6.3 6.2s3.4 4.5 4.6 7l3.7-4.8c-1.6-2.1-3.4-4.1-5.5-5.9m67.4 31.2 3.4-6.2c-1.8-1.9-3.9-3.6-6.3-5.3s-5.1-3.1-8-4.4l-1.7 3.1c5.2 3.3 9.4 7.6 12.6 12.8m17.8-31.2c-2.1-1.8-4.5-3.5-7.1-5.1l-2 2.6c2.3 1.9 4.4 4 6.3 6.2s3.4 4.5 4.6 7l3.7-4.8c-1.6-2.1-3.4-4.1-5.5-5.9m23.4 60v-9.6h-16.2v-3.3h16.2V539h-14v-26.3h14v-7.8H682v-3.1h15.4v-7.2h6.4v7.2h16v3.1h-16v7.8h13.8V539h-13.8v8.4h16.9v3.3h-16.9v9.6zm15.4-33.4h-9.4v9.1h9.4zm0-11.4h-9.4v8.8h9.4zm-15 0h-9.4v8.8h9.4zm-9.5 20.5h9.4v-9.1h-9.4zm-30.2-.3q-4.5 17.1-13.5 31.5l6.3 4.7c2.3-5.5 4.3-11.1 6.1-16.6s3.2-11.5 4.6-17.8zM648 495.9l-1.8 3.1c2.5 1.6 4.8 3.7 6.8 6.1s3.8 5 5.3 7.9l3.7-5.5q-2.55-3.3-6.3-6.3c-2.5-2-5.1-3.7-7.7-5.3m36.1 65.5c-2.6-1.5-4.8-3.7-6.6-6.5v-22.1H663v3.6h8.6v18.3c-1.9 1.6-3.9 3.4-6 5.5-2.3 2.3-4.2 4.7-5.8 7.2l5.4 3.9c1.4-2.7 3.1-5.3 5-7.9 1.4-1.8 2.7-3.5 4.1-4.9 1.8 3.6 4.2 6.4 7.1 8.3 3.3 2.2 7.3 3.4 11.8 3.4h27.3l1.4-6.4h-27.7c-4 0-7.3-.8-10.1-2.4m-9.6-33.4 3.7-5.2c-1.6-2-3.5-4-5.7-5.7q-3.15-2.7-7.2-4.8l-2 2.6c2.4 1.8 4.5 3.8 6.4 6.1 1.9 2.1 3.5 4.5 4.8 7m118.6 43.4h-9.4l-.5-2.2h8.9c2 0 3.4-.5 4.3-1.4s1.4-2.4 1.4-4.5v-37.4h-24.4v-28.2H800V564c0 2.4-.6 4.3-1.7 5.5-1 1.2-2.8 1.9-5.2 1.9m4.8-71.7h-22.2v11.2h22.2zm0 24.2v-11.2h-22.2v11.2zm-38.1 33.2c-1.3 3.9-3.6 7.5-6.8 10.9l-1.4-1.3q4.35-4.65 6.3-10.2c.7-2 1.1-4.1 1.5-6.3h-12v-1.9h12.2c.1-1.3.2-2.7.2-4.1v-7.6h-9.3v-2h35.2v2h-9.2v11.7h12.4v1.9h-12.4v17h-2v-17h-13.1c-.4 2.4-.9 4.7-1.6 6.9m1.7-8.7h12.9v-11.7h-12.7v7.6c0 1.4-.1 2.7-.2 4.1m-25.6-50.7h26.6v28.2h-24.3v45.5H736v-73.7zm2.2 26.2h22.2v-11.2h-22.2zm22.3-13v-11.2h-22.2v11.2zm96.5 34.8q-1.8 4.8-5.1 9.3c-2.1 3-4.6 5.7-7.3 8.1l1.6 1.6c2.7-2.6 5.2-5.4 7.4-8.5s4-6.3 5.5-9.7zm-38.7 24.6c6.8-12 12-23.5 15.7-34.6l-2-1c-3.7 11.6-8.9 23-15.6 34.1zm61.1-24.6-1.8 1c2.2 2.4 4.2 5.2 6.2 8.4s3.6 6.4 4.9 9.8l2.1-.9a56 56 0 0 0-5.2-10c-2-3.2-4-6-6.2-8.3m-51.5-15.3 1.6-1.7c-1.7-2.3-3.8-4.6-6.2-6.8s-5-4.1-7.6-5.7l-1.2 2c2.6 1.5 5.1 3.3 7.4 5.4 2.4 2.2 4.3 4.4 6 6.8m-1.6-28.4c-2.4-2.3-4.9-4.2-7.6-5.8l-1.1 2c2.5 1.6 4.9 3.5 7.2 5.6q3.45 3.3 6 6.9l1.5-1.7c-1.6-2.3-3.6-4.7-6-7m13.6-3.7h48.5v2.1H871c-1.3 4-3.1 7.6-5.4 10.9h20.5v28h-15.3v24.8c0 2.1-.5 3.7-1.6 4.8-1 1.1-2.6 1.7-4.7 1.7h-7.2l-.3-2h6.3c1.9 0 3.2-.4 4-1.3s1.2-2.3 1.2-4.3v-23.7h-16.4v-28h11.2c2.3-3 4-6.7 5.3-10.9h-26.4v34.1c0 7.1-.7 13.8-2.2 19.9-1.4 6.1-3.7 11.9-6.7 17.3l-1.9-1.4c2.8-5.1 5-10.6 6.3-16.4 1.4-5.8 2.1-12.1 2.1-18.8zm44.1 26.1v-11.2h-29.6v11.2zm-29.6 1.8v11.1h29.6v-11.1zm47.2 30.2H937v4.9c0 2.2-.4 3.7-1.3 4.6s-2.3 1.4-4.3 1.4h-8.2l.9 3.9h9.3c2.4 0 4.3-.7 5.4-2 1.2-1.3 1.8-3.2 1.8-5.8v-7.1H975v-4.1h-34.4v-1.1l18.2-8.1v-3.7h-42.1v3.7h35.9l-15.8 6.3v2.8h-35.4v4.3zm27.4-28c3.8-1.8 7.2-3.9 10.3-6.5q4.2 2.7 7.8 6l1.4-2c-2.2-2.1-4.5-4.1-7.1-5.9 2.2-2 4.3-4.2 6.1-6.5l-2.1-1.5c-1.9 2.5-4 4.6-6.3 6.5-2.7-1.7-5.5-3.3-8.6-4.7l-1.7 2.7q4.05 1.8 7.8 3.9c-2.7 1.9-5.7 3.6-9.1 4.9zm0-17.1c3.8-1.7 7.2-3.8 10.3-6.4q4.2 2.7 7.8 6l1.4-2c-2.2-2.2-4.5-4.1-7-6 2.2-2.1 4.3-4.3 6.1-6.6l-2.1-1.4c-1.9 2.4-4 4.6-6.3 6.5-2.7-1.8-5.5-3.4-8.6-4.8l-1.7 2.9c2.7 1.1 5.3 2.4 7.8 3.8-2.7 1.9-5.7 3.6-9.1 4.9zm-26.1 18h5.5l-1.5-29.4c6.9-.9 13.2-2.6 18.8-5.2l1.3 2.7c-4.7 2.6-10.2 4.5-16.5 5.8l.3 5.6H925v3.4h-14.1l.3 6.8H925v3.4h-13.6l.3 6.8H965l.3-6.8h-13.8V519h14l.3-6.8h-14.3v-3.4H966l.3-6.8h-16.1v-3.7h19.7l-1.5 31h5.4v14.1h-3.7v-10.2h-63.7v10.2h-3.7zm45.7-20.4q0 .15 0 0m109.9 42.6-1.4 10.2c-.3 1.3-.7 2.3-1.3 2.9q-.9.9-2.7.9h-4.1c-1.8 0-3.1-.4-3.9-1.3s-1.2-2.4-1.2-4.6v-20.9h15.5V534H1013v4.7h14q-.15 9.15-4.8 16.2c-3.2 4.9-8 8.6-14.5 11.2l2 4.8c4.7-2.2 8.5-5 11.7-8.5 3.1-3.5 5.4-7.3 6.9-11.5 1.4-3.9 2.1-8 2.2-12.2h10.1v21.9q0 4.5 1.8 6.6c1.2 1.4 3.1 2 5.9 2h6.7c1.8 0 3.1-.5 4-1.4s1.6-2.3 1.8-4.2l1.5-10.1zm-24.3-56.7v9.1h-21.3v14.9h3.3v-10.4h39.9v10.4h3.3v-14.9h-21.6v-9.1zm16.7 28.8v-4.5h-30v4.5zm-41.1-26.5h-22.2v74.4h3.5v-69.4h14.9l-9.5 20.1q4.2 4.2 7.2 9.3t3 9.3c0 2.1-.5 3.6-1.5 4.6q-1.5 1.5-5.1 1.5h-5.3l.9 5h5.4c3.2 0 5.5-1 6.8-2.9s2-4.7 2-8.2c0-3.3-.9-6.9-2.6-10.6-1.4-3-3.2-5.8-5.3-8.4l7.8-19.8zm133.9 69.5h-26.2v-19.1h19.5v-2h-40.3v2h16.5v19.1h-26.5v2.1h57zm-71.2-.1c5.3-4.8 10-10 14-15.8 3.9-5.6 7.2-11.6 9.8-18.1h47.3v-2h-32.9v-11h27v-1.9h-27v-10.5h29.8v-2h-19.8c1.4-1.3 2.7-2.6 3.9-4.1 1.5-1.9 2.8-3.9 3.8-6l-4.6-1.4c-1.5 4.3-3.6 8.1-6.2 11.4h-17.9c-2.2-4.3-5.3-8.1-9.4-11.3l-2 1c2.9 3.1 5.1 6.6 6.4 10.3h-18.1v2h29.8v10.5h-27v1.9h27v11h-32.9v2h17.6c-2 6.1-4.6 11.7-7.8 16.9-3.4 5.5-7.4 10.4-12.1 15zm158.6 1.4h-42.4v-2.2h4.6v-65h-4.6v-2.2h40.7v2.2h-31.7v19.1h28.3V545h-28.3v20.8h33.4zm-33.4-46.1v21h24.3v-21zm-42.4 43.8c1.6-.2 3.1-.5 4.7-.7V535h3.8v29.3c2.5-.5 4.9-.9 7.3-1.5.1 0 .2 0 .3-.1v-39.3h-12v-24.9h25.2v24.9h-9.3V539h10.5v2.2h-10.5v20.5q5.25-1.35 10.2-3l.8 2c-8.6 3.7-18.6 6.8-30 9.2zm25.3-44.4v-20.7H1163v20.7zM73.9 669.4l4.2-2.6c-1.4-6.2-3.6-12.4-6.6-18.4l-2.2 1.1c2.1 6.6 3.7 13.2 4.6 19.9m-7.1 8.6v-37.3c1.9-.7 3.7-1.4 5.5-2.2.6 2.6 1.1 5.2 1.5 8l4.3-2.7c-1.6-6.5-3.7-12-6.2-16.6l-2.4 1.4c.7 2 1.4 4.2 2 6.4-4.4 1.3-9.2 2.4-14.4 3.2 6-6.1 11.8-13.7 17.3-23l-4.3-4c-2.1 4.6-4.4 9-6.8 13.1-2-1.9-4.1-3.7-6.4-5.3 4.2-4.7 7.8-9.8 10.6-15.3l-4.9-3.9c-1.3 3.6-2.7 7-4.2 10-1.3 2.6-2.7 5.1-4.2 7.4-1.2-.7-2.4-1.4-3.7-2.1l-1.8 2.8c4.6 3 8.5 6.8 11.7 11.2-2.4 3.6-4.8 6.8-7.5 9.6-1.6.2-3.2.4-4.9.6l.8 6.4c4.5-.9 8.8-2 12.8-3.2V678zm-19-5.6 2.4 1.3c1.7-3.2 3.3-6.7 4.6-10.3s2.4-7.5 3.4-11.5l-4.2-1.8c-1.5 8.7-3.6 16.1-6.2 22.3m67.1 4.9c2.5 0 4.4-.6 5.6-1.8s1.9-3 1.9-5.5v-65.6H79.7v72.9h5.8V608h31.1v60.5c0 1.9-.3 3.2-1 4.1s-1.9 1.3-3.5 1.3h-7.7l.8 3.5h9.7zm-2.7-20.2H94.5v-23.9h-4.3v27.2h22zm-24.4-29h26.5v-3.5h-7.8c2.3-2.8 4.2-6.1 5.6-9.9l-4.7-2.1c-1 4.3-2.5 8.3-4.2 12h-4.1c-1.4-4.1-3.6-8-6.6-11.8l-2.5 1.1c1.7 3.4 3 7 3.9 10.7h-6.1zm14.4 3.1c-1 7.3-3.1 13.6-6.2 18.9l1.7 1.8c2.5-3.2 4.6-6.9 6.1-11 2.2 3.8 3.9 7.4 5.1 10.9l3.5-3c-1.9-3.7-4.4-7.3-7.6-10.8.6-1.9 1.1-4 1.6-6.1zm86.9 1.9c-6.2 5.4-13.5 9.8-21.8 13.3l-.7-3.3-4.2 2.7a106 106 0 0 0-1.4-7.3c-2.1.8-4.2 1.6-6.4 2.3V678h-6.1v-35.5c-4.6 1.3-9.3 2.4-14.3 3.3l-1.1-6.4c1.9-.2 3.7-.4 5.5-.7 3-2.8 5.9-6 8.8-9.7-3.8-4.4-8.1-8.1-13.2-11.2l1.8-2.8c1.5.7 3 1.4 4.5 2.2 1.6-2.3 3.2-4.8 4.6-7.4 1.6-3.1 3.1-6.4 4.5-10l5.4 4c-3.1 5.5-7 10.5-11.6 15.1 2.8 1.6 5.3 3.3 7.7 5.2 2.7-3.9 5.2-8.2 7.7-12.8l4.9 4.3c-3.3 4.9-6.9 9.4-10.6 13.5-3 3.3-6.2 6.3-9.4 9.1 1.3-.2 2.5-.4 3.8-.6 4.2-.7 8.4-1.6 12.4-2.7-.7-2.2-1.4-4.4-2.3-6.4l2.6-1.4c3 4.5 5.4 9.7 7.1 15.5 6.9-3.3 12.9-7.5 18.2-12.7-3.6-3.4-6.9-7.1-9.9-11.2-2.1 3.2-4.4 6.2-6.9 8.9l-2.4-2.2c2.5-3.5 4.7-7.3 6.5-11.5s3.3-8.7 4.5-13.4l6.5 1.4c-.8 2.3-1.7 4.6-2.7 6.7h24.5v3c-3.3 6.8-7.6 12.9-12.9 18.1 5.8 3.9 12 7.1 18.8 9.5l-2.1 6.3a79.3 79.3 0 0 1-18.9-11.4c-.5-.3-1-.7-1.4-1m-.6-6.4c3.9-4.5 7.1-9.5 9.5-15h-18.4c-.7 1.4-1.4 2.8-2.2 4.1 3.3 4.1 7 7.8 11.1 10.9m15.6 49h-31.7v-28.1h31.7zm-25.9-24.8v21.5h20.1v-21.5zm-20.2-1.3c2.4 6.3 4.1 13 5.2 20.2l4.9-2.7c-1.6-6.1-4.2-12.3-7.6-18.6zm-12.8 2.4-5.3-2c-.9 4.1-1.9 8.1-3 11.9-1.2 3.8-2.5 7.3-4 10.7l2.8 1.3c4.1-6.9 7.2-14.1 9.5-21.9m115.9-46.7h-14.6V601h-1.4v13.5h1.4V611h14.6zm30.5 54.1 5.5 3.1-.8 6.4c-.3 2.2-1 3.8-2.1 5s-2.7 1.7-4.6 1.7h-4.4c-2 0-3.4-.6-4.3-1.7-.9-1.2-1.4-3-1.4-5.5v-15.6h-4.8c-.5 5.9-1.6 11-3.4 15.2-1.9 4.5-4.7 8.1-8.3 10.9l-2.7-7.9c3.7-1.8 6.8-4.2 9-7.3 2.1-2.9 3.5-6.5 4.3-10.8h-7.3v-49.4h24.8v49.4h-10v15.4c0 2.1.3 3.6 1.1 4.6.7.9 1.9 1.4 3.5 1.4h1.3q1.8 0 2.7-1.2t1.2-4.5zm-24-35.5v7.5h21.9v-7.5zm21.8-6.2v-7.6h-21.9v7.6zm-21.8 19.9v8.4h21.9v-8.4zm-47.2 18.6-3.7-8.9c4.3-3.2 7.7-7.6 10.1-13.2l1 .4c-.3 1.6-.6 3.2-1 4.7h13.8c3.3-1.5 5.8-3.2 7.4-5.1l1.1.3c-.5 1.6-1.2 3.2-2 4.8h11.6v5.5H243v5.4h15v5.2h-14.8v5.4H258v5.2h-14.8v5.3h16.3v6.2h-35v-30c-1.2 3-2.5 6-4.1 8.8m21.4 9.7H226v5.3h15.8zm0-10.6H226v5.4h15.8zm0-10.6H226v5.4h15.8zm-8.2-30.2h1.4V601h-1.4v4.3h-14.8v5.6h14.8zm3.6 18h-15.8v-16h15.8zm-14.4-11.2v6.3h13.1v-6.3zm25.3 12.8q.15 0 0 0m-5.4-17.6h15.8v16h-15.8zm14.5 11.1v-6.3H244v6.3zm105.5-6.3v13.5h13.8v42.1h-24.7v-42.1h9.4v-33.6h1.5v12.9h17.2v7.2zm-9.5 20.7v27.7h21.7V642zm-3.8 28.2c-.9-4.4-2.1-8.5-3.8-12.1l-4.8 1.6c3.3 3.2 5.9 6.8 7.8 10.9zm-8.7-58.8c-2.2 4.1-5 7.6-8.5 10.2l4.7 2.9c1.1-2 2.1-4 2.9-6.1s1.4-4.3 1.8-6.7zm8.5 43.5c-14.6 1.7-29.7 2.7-45.1 3.1v-1.1c7.7-.6 15.4-1.6 23.1-3.1v-9.5h-19.6v-5.9h19.6v-5.9h-18.7v-30.1h38.9v30.1h-18.7v5.9h18.8v5.9h-18.8v9.2c6.5-1.3 12.9-2.8 19.4-4.7zm-22-45.7h-17.5v17.4h17.5zm1.3 17.3H346v-17.4h-17.5zm-6.2-2.1.8-.3c-.8-4.2-2.3-8.4-4.4-12.7l-5.4 3.2c3.6 2.8 6.6 6 9 9.8M315 662l-5.7-2.3c-1.1 6.5-2.8 12.3-5.3 17.2l1 .4c2.3-2.4 4.3-4.8 6-7.4 1.6-2.4 3-5.1 4-7.9m10.9 14.2 1.2-.2c-.2-2.8-.4-5.4-.8-7.8s-.8-4.9-1.4-7.7l-5.8 1.7q2.55 3.3 4.2 6.6c1.1 2.2 2 4.6 2.6 7.4m13.2-2.8c-.6-5.2-1.7-9.9-3.3-14l-5.4 1.7q5.55 5.85 7.8 12.6zM439.9 629l-4.9 8.2c5.1 2.7 10 5.9 14.6 9.8s9 8.3 13.1 13.2l1-.9c-3-6-6.5-11.6-10.5-16.7s-8.5-9.6-13.3-13.6m-50.2 24.6 5.8 8q14.1-10.5 23.7-23.1c2.8-3.6 5.2-7.4 7.4-11.3v51.5h1.5v-54.4c1.9-3.6 3.5-7.4 4.8-11.2h29.6v-7.8H392v7.8h39.2c-3.6 8.1-8.7 15.4-15.2 21.8-7 7-15.8 13.3-26.3 18.7m114.8 9.5H479v-57.4h25.5zm-1.5-32.7v-17.6h-22.5v17.6zm-22.5 6.9v18.2H503v-18.2zm63.3 28.2v-12.8h-28c-.4 3.5-.9 6.7-1.6 9.8-1.5 6.2-3.9 11.9-7.2 17l-5-8c4.7-3.9 8-8.6 10-14s2.9-11.6 2.9-18.7v-36.2h30.5v67.9c0 2.8-.6 4.9-1.7 6.2s-2.9 2-5.3 2h-8l-1.6-8.1h9.5c2 0 3.5-.4 4.3-1.2s1.2-2.1 1.2-3.9m0-55.9h-27.4v14.3h27.4zm0 36.1v-14.8h-27.4v10.4c0 1.5-.1 3-.1 4.4zm82.4-29.6c2.2-1.5 4.2-3.1 6.1-4.9l-3.7-2.5c-3 4.3-6.2 7.9-9.6 10.9-.8-.5-1.6-1.1-2.4-1.6-2.3-1.6-4.5-3.5-6.6-5.4q6.6-3.3 11.7-8.1l-3.7-2.6c-2.5 3.9-5.3 7.3-8.5 10.1-2.9-2.8-5.7-5.9-8.3-9.4l-.5.3c4.1 6.9 8.7 12.7 14 17.4 5.2 4.7 11.4 8.6 18.6 11.6l2.8-4.6c-6-1.8-11.5-4.2-16.4-7.3 2.3-1.2 4.5-2.5 6.5-3.9m-26.1 13.6v4.3c0 3.3-.6 6.2-1.9 8.5-1.2 2.3-3.1 4.3-5.7 5.9l.3.6c3.8-1.4 6.6-3.4 8.6-6.1 2-2.6 3-5.8 3-9.7v-2.7h10.2v8.9c0 2.4.6 4.1 1.8 5.2s2.9 1.6 5.3 1.6h3.4c1.6 0 2.8-.3 3.6-1.1.8-.7 1.4-1.9 1.8-3.5l1.5-5.4-.9-.3-.9 3.7c-.3 1-.6 1.6-1.1 2-.4.3-1.2.5-2.2.5h-4.1c-1.4 0-2.4-.3-3.1-1s-1-1.8-1-3.5v-7.9zm-18.2 43.8c-1 1.1-2.6 1.7-4.9 1.7h-7.8l.2.9H580c2.8 0 5-.7 6.4-2s2.2-3.4 2.5-6.3l.9-10.8h-19.5l1.7-13h17v-14.2h-20v.9h15V643h-17.2l-2 14.7h19.6l-.8 10c-.1 2.7-.7 4.6-1.7 5.8m-17.2-67.7h23.9c-2.3 4.6-5.3 8.7-9.1 12.4q-5.25-4.2-12-7.2l-.3.4c3.4 3 6.3 6.3 8.6 10-4.5 3.6-9.7 6.5-15.7 8.9l.2.6c7.8-2.3 14.6-5.5 20.3-9.7 5.8-4.2 10.4-9.4 14-15.4v-.9h-30v.9zm27.9 69.9c6.6-2 12.2-5 17-9.1.2-.2.5-.4.7-.6q-6.15-5.85-9.6-13.5h-4.5v-.9h30.5v.9c-3.1 5-7 9.5-11.7 13.4 5.1 3.2 10.9 5.3 17.4 6.4l-1.7 4.5q-10.65-2.4-18.3-9c-5.7 4.2-12.3 7-19.6 8.5zm19.7-11.6c3.5-3.5 6.3-7.3 8.5-11.6h-19.4c2.8 4.5 6.4 8.4 10.9 11.6m56.2-57.4c6.2-1.3 12-3.1 17.1-5.4l2.1 4.2c-5.2 1.3-11 2.3-17.2 3.1v9.8h19.2v.9h-19.2v8.3h16.9v21.5h-16.9v9.9h17.1v.9h-17.1v10.7c6.2-.5 12.3-1.2 18.5-2.1l.1.6c-7.1 1.9-14.2 3.5-21.4 4.7s-14.7 2.1-22.4 2.7l-1-4.4c7.6-.2 14.9-.6 21.9-1.1v-11.1h-18.5v-.9h18.5v-9.9h-16.9v-21.5h16.9v-8.3h-20.9v-.9h20.9V609c-5.5.5-11.3.9-17.5 1.1v-.6c6.9-.6 13.5-1.5 19.8-2.8m-15.1 21.7v9.4h12.7v-9.4zm12.7 19.8v-9.5h-12.7v9.5zm4.4 0h12.7v-9.5h-12.7zm0-19.8v9.4h12.7v-9.4zm23.6 33.5c-2 6-4.5 11.1-7.6 15.5l.5.3c4-4.3 7.3-9.5 9.9-15.4 2.6-6 4.5-13.8 5.8-23.3.7-5.1 1.2-10.9 1.5-17.5h9.4v47.3c0 2.2-.4 3.7-1.3 4.7s-2.2 1.4-4.2 1.4h-5.2l.2.9h9.2c2.1 0 3.6-.6 4.5-1.7s1.4-2.9 1.4-5.2v-48.2h-14c.3-5.4.4-11.3.4-17.6h-4.7c0 6.4-.1 12.2-.3 17.6h-8.4v.9h8.4c-.2 6.4-.6 12.2-1.2 17.2-.8 9.4-2.3 17.1-4.3 23.1m57.4-35.5-2.7 2c1.1 2.2 2.2 4.7 3.1 7.5-4.4 1.8-9.2 3.2-14.3 4.4 5.2-7 10-16.1 14.5-27.5l-1.5-1.2c-2.3 5.6-4.8 10.7-7.4 15.3-1.7-2.2-3.5-4.2-5.4-6.1 3.6-6.2 6.5-12.7 8.6-19.4l-1.8-1.2c-1.3 3.6-2.7 7.1-4.3 10.3-1.5 2.9-3.1 5.6-4.9 8.2-1.1-.9-2.2-1.8-3.3-2.6L730 619c4.5 2.5 8.6 5.8 12.3 9.8-2.7 4.7-5.6 8.8-8.6 12.4-1.4.2-2.8.5-4.3.7l.3 2.1c4.6-.6 8.9-1.4 13.2-2.3V678h2v-37q4.2-.9 8.1-2.1c.6 2 1.1 4.1 1.6 6.4l1.5-.9c-1.3-7.3-2.8-13.3-4.6-18m16-4.7c.8-1.1 1.5-2.1 2.2-3.2-1.8-2.2-4.2-4.4-7.1-6.6-1.6 4.2-3.4 8.1-5.5 11.6l-2.7-1.8c4.4-6.1 7.7-13.3 9.9-21.5l1.7.6c-.7 2.9-1.5 5.7-2.3 8.3 2.9 2.5 5.2 5.1 7.1 7.9 1-1.7 1.9-3.4 2.7-5.2 1.6-3.5 3-7.4 4-11.5l1.8.6c-.7 2.9-1.4 5.7-2.3 8.3 4 4 7 8 9.2 11.9l-1 1.6q-3.45-5.4-9.3-10.2c-.1.1-.1.3-.1.4-1.4 3.8-3.3 7.4-5.4 10.8zm-35.3 51.5c1.2-3.4 2.4-7 3.5-10.9q1.5-5.7 2.7-12.3l-1.6-.6q-2.85 12.9-7.2 21.9zm57.5-47.7h17.9v3.3h-17.7c.2 5.5.5 10.5.8 15 .4 5 .8 9.3 1.4 13.1 3.9-6.4 7.4-13.4 10.2-21.3l1.8 1.3q-4.2 12.45-10.5 22.8c-.3.5-.6.9-.9 1.3q.75 4.2 1.5 7.2c1.4 5 3 7.6 4.6 7.6 1.2 0 2.2-1.3 3.1-4s1.8-7.2 2.6-13.5l2.6 1.6c-.7 4.5-1.4 8.1-2.2 10.8-.8 2.6-1.7 4.6-2.7 5.7-1 1.2-2.2 1.8-3.7 1.8-2.2 0-4.2-2.7-5.8-8-.6-1.9-1.1-4.1-1.6-6.7-3.6 5.4-7.7 10.4-12.2 15.1l-3.6-1.7c3.6-3.1 6.8-6.5 9.7-10.1-4.8 1.8-9.6 3.4-14.3 4.8-4.9 1.4-10.1 2.8-15.6 4l-.6-2c3.9-.9 7.7-1.9 11.3-3V660h-9.1v-2.9h9.1v-7.7h-7.7v-2.6h7.7V639H758v-2.7h7.8v-7.5h-11.5v-3.3h33.4c-.3-7.4-.4-15.7-.4-24.8h2c.1 9.2.2 17.4.4 24.8m-15.4 42v-38.7h-6.6v41c.8-.3 1.6-.5 2.4-.8 1.4-.5 2.8-.9 4.2-1.5m13.6-38.7h-11.8v7.5h8.2v2.7h-8.2v7.5h8v2.5h-8v7.6h9.2v2.6h-9.2v7.8c2.9-1.1 5.8-2.2 8.7-3.5l.7 2.7c1.7-2.1 3.4-4.3 4.9-6.6-.6-4.1-1.2-9-1.6-14.6q-.6-7.35-.9-16.2M748.4 650c2.6 6.4 4.6 12.5 5.9 18.6l1.4-.6c-.9-6.4-2.5-12.9-4.9-19.5zm54.4-28.4 1.6-.9q-1.05-4.2-3-8.4c-1.3-2.8-2.8-5.4-4.6-7.8l-2.8 2c3.7 4.4 6.7 9.5 8.8 15.1m23.5 28.6-1.7-.7c-1.3 4.1-2.8 8-4.4 11.6-1.6 3.7-3.5 7.1-5.4 10.2l3 2c3.7-7.2 6.6-14.9 8.5-23.1m12.6-.1c3.2 6.2 5.6 12.5 7.1 18.9l1.8-.9c-1.2-6.4-3.2-12.9-6.1-19.7zm-4.6-9.1c3.5-.6 6.9-1.4 10.1-2.1.6 2 1.1 4 1.6 6.2l.1.3 1.9-.9c-.7-3.5-1.4-6.8-2.3-9.9q-1.2-4.65-3-8.7l-2.9 2.1c1.3 2.3 2.4 4.8 3.4 7.3-4.2 1.4-8.5 2.7-13.1 3.7-1.6.4-3.3.7-5 1 6.1-6.9 11.9-16 17.7-27.3l-1.7-1.3c-3 5.7-6.1 10.8-9.2 15.5-2.3-2.3-4.7-4.5-7.3-6.5 4.1-6 7.5-12.4 10.2-19.1l-1.9-1.2c-1.5 3.6-3.3 7-5.2 10.2-1.7 2.9-3.6 5.7-5.7 8.3-1.4-1-2.8-1.9-4.3-2.8l-2.1 3q8.4 3.9 15 9.9c-3.3 4.6-6.8 8.7-10.3 12.2-1.8.3-3.7.6-5.6.8l.3 2.1c6.1-.6 11.8-1.4 17.3-2.4V678h2zm55.1 32.3h-38.1v-65.9h38.1zm-36-32v28.4h15.9v-28.4zm15.9-3.5v-26.7h-15.9v26.7zm2.1 31.9h15.9v-28.4h-15.9zm15.9-31.9v-26.7h-15.9v26.7zm54.2-37.3-2.1-.6c-1.6 6.6-3.9 12.7-6.8 18.3s-6.3 10.8-10.4 15.5l2.4 3.4c4-5.2 7.5-10.8 10.3-16.9l.9-2.1h7.6V678h2.3v-20.6h27.4v-3.5h-27.4v-16.5h24v-3.3h-24v-16h29.6l.3-3.4h-38.3c1.6-4.5 3.1-9.3 4.2-14.2m-40.7 38.7c4.1-4 7.7-8.3 11-12.9V678h2.2v-55c.3-.4.6-.9.9-1.3 3.9-6.4 7-13.1 9.3-20.2l-2.3-.9c-2.3 6.6-5.4 12.8-9.2 18.6-3.8 5.7-8.3 11.1-13.6 16zm150.7-36.6c-1.1 1.9-2.4 3.7-4 5.6s-3.4 3.5-5.2 5l3 2c1.7-1.6 3.3-3.5 4.7-5.4 1.4-2 2.6-4.1 3.7-6.3zm-48.7 63.6c4.8-2.4 9-5.2 12.6-8.3h-28.9v-3.1h35.9v-8.9h-29.6v-3h29.6V634h-32v-3.1h20.6c-.8-1.9-1.7-3.7-2.7-5.5-1.1-1.9-2.4-3.7-3.7-5.4h-16.8v-3.2h25.7v-15.1h2.1v15.1h15.8v-15.1h2.1v15.1h25.7v3.2h-17.4c-.6 2.1-1.3 4.1-2 6.1q-1.05 2.55-2.4 4.8h19.2v3.1h-32v8.9h29.5v3h-29.5v8.9h35.9v3.1H1034c3.4 3.4 7.2 6.3 11.6 8.9q7.05 4.2 16.2 7.2l-.9 2c-6.6-2.1-12.5-4.7-17.8-7.7-5.2-3-9.8-6.5-14-10.4h-4.5V678h-2.2v-20.2h-4.3c-3.9 4.1-8.4 7.6-13.6 10.6-5.3 3-11.3 5.6-18.2 7.6l-1.3-3.5c6.7-1.6 12.6-3.8 17.8-6.3m10.5-35.5h19.9c2.6-3.2 4.6-6.8 6.2-10.9h-30.7c2 3.2 3.5 6.8 4.6 10.9M994 604.8c3.5 2.5 6.4 5.8 8.7 9.8l1.9-.9c-2.1-4.3-4.6-7.9-7.4-10.8zm124.1 41.5c3.4 4.9 6 10.1 7.6 15.7l3.7-2.5c-.9-2.6-1.9-5.2-3.2-7.8-1.3-2.7-2.8-5.2-4.4-7.7zm-44.7-37.3h21.6v-4h-21.6zm30.8 54.3c1-4 1.9-8.1 2.6-12.4l-3.8-1.3c-1.3 8.3-3.4 16-6.2 23.1l3.7 2.1c1.4-3.7 2.6-7.6 3.7-11.5m14.5-34.1c3.7-5.7 6.3-12.2 8-19.3h10.9l-1.3 20.7c-.1 2.2-.6 3.7-1.5 4.7s-2.2 1.5-4 1.5h-7.6l.9 4.6h9c2.7 0 4.6-.7 5.8-2s1.9-3.4 2.1-6.3l1.7-27.9h-40.4v4.7h19.5c-1.3 6.4-3.6 12.2-7 17.4-3.5 5.4-8.4 10-14.7 14l3 3.9c6.6-4.7 11.8-10.1 15.6-16m-15.4 1.7q2.85-3.45 4.8-7.2c1.95-3.75 2.5-5.2 3.6-8.1l-3.8-1.7c-1.9 5.5-4.5 10.4-7.8 14.6zm-29.6 12.8h21.1v-3.9h-21.1zm45.7 33.4h8.9c2.2 0 3.8-.5 4.9-1.5q1.65-1.5 2.1-4.8l1.4-9.5-3.7-2-1.4 8.8c-.2 1.5-.7 2.6-1.5 3.4-.8.7-1.8 1.1-3.2 1.1h-6.2c-1.9 0-3.4-.5-4.3-1.7-.9-1.1-1.4-2.8-1.4-5v-17h-4.1v18.8c0 3 .7 5.3 2.2 7 1.6 1.6 3.6 2.4 6.3 2.4m24.4-2.5 4.2-1.8c-.9-4.5-1.9-8.8-3.2-12.6-1.3-3.9-2.8-7.8-4.6-11.7l-4.3 1.8c1.9 3.9 3.5 7.9 4.9 11.9 1.2 3.9 2.2 8 3 12.4m-70.4-23.5h21.8v25.4h-21.8zm17.6 20.7v-16.5h-13.4v16.5zm7.1-55.3h-27.7v4.5h27.7zm-3.3 11.9h-21.1v3.9h21.1zm75 34.9c.2-.4.3-.7.5-1.1 3.7 4.3 7.8 7.7 12.3 10 5.2 2.7 11.5 4 18.8 4h27.5l1-5h-27.5c-1.8 0-3.6-.1-5.3-.3V651h21.8v-4.9h-21.8V631h18.4v-4.9h-43.6v4.9h20v39c-2.7-.6-5.2-1.5-7.4-2.7-4.5-2.4-8.4-6-11.8-10.7 1.6-4.3 2.9-9 3.8-14.1l-5.5-1.5c-1.1 7-3 13.3-5.7 18.7q-4.05 8.1-10.5 13.8l2.6 5.1c5.2-4.2 9.3-9.3 12.4-15.3m57.7-35.7v-17.3h-31.2v-9.1h-5.3v9.1h-31.2v17.3h5v-12.5h57.5v12.5zM73.4 778.6l23.7-63.9h-2.7l-20 54.6-19.3-54.7h-8l23.5 63.9h2.8zm61.8-.8-1.4 1c-2.6-1-4.5-2.2-5.7-3.7-.8-.9-1.3-1.9-1.6-3-1.1 2.1-2.4 3.7-4.2 4.8-2.2 1.4-5 2.2-8.6 2.2-3.5 0-6.8-.8-9.4-2.5-2.6-1.6-4.6-4.1-6.1-7.4-1.4-3.3-2.2-7.4-2.2-12.1s.7-8.8 2.1-12.1 3.4-5.8 6.1-7.4c2.6-1.6 5.8-2.5 9.5-2.5s6.6.8 8.8 2.3q2.25 1.5 3.6 3.9v-5.6h6.9v33.1c0 2 .2 3.8.5 5.3.4 1.4.9 2.7 1.7 3.7m-9.1-8.4v-25c-.8-2-2.2-3.7-4.1-5-2-1.4-4.3-2-7-2-4 0-7 1.6-9 4.9s-3.1 8.2-3.1 14.8 1 11.6 3.1 14.9c2 3.3 5 4.9 9 4.9 2.6 0 4.8-.7 6.8-2 1.9-1.3 3.3-3.1 4.3-5.5m46.5 6.9v-3.6c-.9 1.6-2.1 3-3.7 4.1-2.2 1.6-5.1 2.4-8.8 2.4-3.6 0-6.8-.8-9.4-2.5-2.6-1.6-4.6-4.1-6.1-7.4-1.4-3.3-2.2-7.4-2.2-12.1s.7-8.8 2.1-12.1 3.4-5.8 6.1-7.4c2.6-1.6 5.8-2.5 9.5-2.5s6.4.7 8.6 2.2c1.6 1 2.8 2.5 3.9 4.3v-6h6.9v40.6c0 6.6-1.7 11.6-5 14.9s-8.2 5-14.6 5c-3.8 0-7.2-.7-10.2-2s-5.3-3.1-6.9-5.3l3.5-5.4c1.7 3.4 3.8 6 6.2 7.8q3.6 2.7 8.1 2.7c4 0 7-1.5 9-4.6 2-3 3-7.4 3-13.1m0-6.9v-24.6c-1-2.4-2.4-4.2-4.3-5.5-2-1.3-4.2-1.9-6.8-1.9-4 0-7 1.6-9 4.9s-3.1 8.2-3.1 14.8 1 11.6 3.1 14.9c2 3.3 5 4.9 9 4.9 2.7 0 5-.7 7-2.2 2-1.4 3.3-3.2 4.1-5.3m21.6 3.9c-3.3-3.9-5-9.3-5-16.2s1.7-12.2 5-16.1 8-5.8 14-5.8 10.5 1.9 13.9 5.8c3.3 3.9 5 9.3 5 16.1 0 6.9-1.7 12.3-5 16.2s-8 5.8-13.9 5.8c-6 0-10.7-1.9-14-5.8m1.8-16.2c0 6.4 1 11.4 3.1 14.8s5 5.1 8.9 5.1 6.8-1.7 8.9-5.1 3.2-8.3 3.2-14.8-1.1-11.3-3.2-14.7-5.1-5.1-8.9-5.1-6.8 1.7-8.9 5.1c-2 3.3-3.1 8.2-3.1 14.7m98.1 21.5v-63.9h-2.8l-25.4 45.6-25.5-45.6h-2.8v63.9h2.8v-58.5l24.9 44.6h1.2l24.9-44.8v58.6h2.7zm16.3-2.9c2.1 2.3 5.1 3.4 9 3.4 2.9 0 5.6-.7 8.1-2 2.2-1.2 4.2-2.9 6-5 .2 1 .5 1.9.9 2.8.7 1.4 1.6 2.7 2.9 4l1.7-1.8c-.9-1.2-1.6-2.4-2.1-3.7s-.8-2.9-.8-4.7v-33.2h-2.8v34c-1.3 1.5-2.6 2.8-4 3.8-1.5 1.1-3 1.9-4.6 2.4s-3.2.8-4.9.8c-3.3 0-5.7-1-7.3-2.9s-2.4-5-2.4-9.1v-29h-2.8v30.4c0 4.2 1.1 7.5 3.1 9.8m67.1 2.9v-30.3c0-4.4-1-7.7-3.1-9.9s-5.1-3.4-9-3.4c-2.8 0-5.5.7-8 2-2.2 1.2-4.2 2.9-6 5-.2-1-.5-1.9-1-2.8-.7-1.4-1.7-2.7-2.9-4.1l-1.7 1.9c1 1.1 1.7 2.4 2.2 3.7s.8 2.9.8 4.6v33.2h2.8v-34c1.2-1.5 2.5-2.8 3.9-3.8 1.5-1.1 3-1.9 4.6-2.4s3.2-.8 4.8-.8c3.3 0 5.8 1 7.4 2.9 1.6 2 2.4 5 2.4 9.2v28.8h2.8zm18.7-2.1c-2.6-1.7-4.5-4.3-5.9-7.6s-2-7.3-2-11.9.7-8.6 2.1-11.9 3.4-5.8 5.9-7.6c2.6-1.7 5.6-2.6 9-2.6 3.5 0 6.4.7 8.8 2.2 1.8 1.1 3.2 2.4 4.2 3.8v-30.5h2.8v58.2c0 1.8.2 3.4.7 4.7s1.2 2.6 2.2 3.7l-1.6 1.8c-1.3-1.3-2.3-2.7-3-4-.4-.8-.7-1.7-.9-2.6-1.3 2.1-2.9 3.8-4.9 4.9-2.4 1.3-5.2 2-8.3 2-3.5 0-6.5-.9-9.1-2.6m9.6-.1c2.7 0 5.2-.6 7.3-1.8s3.8-2.9 5.2-5.1V744c-1-1.7-2.6-3.2-4.7-4.4-2.2-1.3-4.8-1.9-7.8-1.9-4.8 0-8.4 1.7-10.9 5s-3.8 8.1-3.8 14.4c0 6.2 1.3 11 3.8 14.4 2.5 3.3 6.2 4.9 10.9 4.9m56.4-35.6c3.1 3.9 4.6 9.3 4.6 16.2s-1.5 12.3-4.6 16.2-7.3 5.8-12.9 5.8-9.8-1.9-12.9-5.8-4.6-9.3-4.6-16.2 1.5-12.3 4.6-16.2 7.3-5.8 12.9-5.8 9.8 1.9 12.9 5.8m1.8 16.3c0-6.2-1.3-11.1-3.8-14.5s-6.1-5.1-10.9-5.1q-7.05 0-10.8 5.1c-2.6 3.4-3.8 8.2-3.8 14.5s1.3 11.1 3.8 14.4q3.9 5.1 10.8 5.1c4.7 0 8.3-1.7 10.9-5.1 2.5-3.4 3.8-8.2 3.8-14.4m63.7-40.9c-4.3-2.3-8.8-4.2-13.6-5.9-4.8-1.6-9.8-3-15-4.1l-1.6 5.6c9.7 2.5 18.8 6.4 27.5 11.7zm3.9 40.7c-1.6-1.7-3.1-3.6-4.6-5.4 6.5-5.6 12.2-12.4 17.1-20.5l-6.2-4.9q-3.3 6.45-7.2 12c-2.3 3.3-4.7 6.1-7.1 8.5-2.1-3.2-4.1-6.6-5.8-10.2v-12.6h-29.5v5.3h22.4v44.1q0 2.85-1.2 4.2c-.8.9-2 1.4-3.6 1.4h-9.6l1.4 5.4h11.8c2.7 0 4.7-.7 6.1-2.1s2.1-3.4 2.1-5.9v-29.6c3.2 6.2 6.8 11.9 11 17.1 5.1 6.4 11 12.3 17.8 17.5l5.7-6.2c-8-5.8-14.9-11.8-20.6-18.1m-38.5 9c4.7-6 7.9-12.6 9.8-19.7V741h-25.4v5.1h18.1c-1.3 5.7-3.8 11.1-7.6 16.1-4 5.2-8.9 9.7-14.8 13.3l2.8 5.6c6.7-4.1 12.4-9.2 17.1-15.2m89.5 15.3c-7.4.9-15.1 1.6-22.9 2l-.9-6.2c7.6-.1 14.8-.5 21.6-1v-8.3h-18.3v-4.3h18.3V757h-16.9v-23.8h16.9v-5.5h-20.6v-5.1h20.6v-6.2c-5.3.6-11 .9-17 1.1l-.3-4.5c7.3-.5 14.2-1.2 20.6-2.3 6.4-1 12.4-2.5 18-4.2l2 5.7c-5.2 1.4-11 2.6-17.3 3.4v7h18.5v5.1h-18.5v5.5h16.7V757h-16.7v6.4h17v4.3h-17v7.7c5.9-.7 11.9-1.6 17.8-2.7l.2 1.9c1.5-2.6 2.7-5.4 3.8-8.4 1.9-5.6 3.3-12.9 4.2-22 .4-4.2.7-9 .9-14.5h-7V724h7.2c.1-4.8.2-10.1.2-15.8h6.6c0 5.7-.1 10.9-.2 15.8h13.7v50.4c0 2.9-.6 5.1-1.7 6.5s-2.9 2-5.2 2h-9.1l-1.2-5.5h5.7c1.8 0 3.1-.4 3.8-1.2s1.1-2.2 1.1-4.1v-42.3H620c-.3 5.8-.6 11-1.1 15.5-1 9.4-2.7 17.2-4.9 23.2-2.3 6.1-5.4 11.6-9.3 16.7l-4.3-4.4c.8-1 1.5-2 2.3-3.1-6.8 1.5-13.4 2.7-20.1 3.5m14.6-34.3h-10.8v6.3h10.8zm-10.8-9.9v6.5h10.8V737zm-6 0h-11v6.5h11zm0 16.2v-6.3h-11v6.3zm118.8-14.4 1 6c6.2-1.3 11.5-2.9 15.8-4.8.4 2.1.8 4.3 1 6.6l3.8-1.6c-.9-5.7-2.3-10.9-4.4-15.8l-2.9 1.6c.5 1.4 1 3 1.4 4.6-2.4.8-4.9 1.5-7.6 2.1 1.8-2.2 3.6-4.6 5.2-7.2 2-3.1 3.8-6.5 5.6-10.2l-4.2-2.9q-1.65 4.35-3.6 8.4c-1.3-1.2-2.6-2.3-4.1-3.3q4.2-5.7 6.9-12.6l-4.8-2.2c-1.5 4.8-3.4 8.9-5.8 12.5-.7-.4-1.4-.8-2.2-1.2l-2 4.2c3.6 2.2 6.5 5 8.8 8.2-1.6 2.6-3.3 5-5.1 7.3-.8.1-1.8.2-2.8.3m15.8 37.9c-1.1 1.6-2.4 2.5-3.7 2.5-2.1 0-4.1-1.9-6.1-5.8 4.3-3.5 8.1-7.5 11.4-11.8l-4.7-4.5c-2.5 4-5.5 7.6-8.9 10.9-1.1-3.3-2.1-7.6-2.9-12.7h19.6v-5.1h-5.1c-1.4-2.1-3-3.9-4.7-5.6l-4.9.9c1.5 1.5 2.7 3 3.5 4.7h-9.3c0-.3-.1-.6-.1-1-1.5-10.6-2.3-24.4-2.3-41.3H691c0 17.1.7 31.2 2.2 42.3h-19.8v9.5c0 4.4-.6 8.6-1.7 12.4s-2.9 7.3-5.4 10.3l4.3 3.2c3.1-3.5 5.5-7.5 7-12.1.9-2.6 1.5-5.2 1.9-8 3.3 2.4 6.3 5.2 8.8 8.4l4.1-5.4c-3.8-3.6-7.9-6.4-12.5-8.5v-4.7H694c1.1 6.8 2.5 12.4 4.1 16.8-4.2 3.1-8.9 5.8-14.2 8l2.8 4.5c4.9-2.1 9.5-4.6 13.7-7.4.2.3.3.7.5 1 3 5 6.3 7.5 10.1 7.5 2.6 0 4.8-1.1 6.6-3.2s3.3-5.8 4.5-10.9l-3.7-3.4c-1.1 4-2.2 6.9-3.4 8.5m-61.2-27.3c1-3.3 1.8-6.6 2.5-10.1v45.5h6.1v-41.7c2.2 2.8 4 5.6 5.2 8.5l3.6-5v-.1c5.7-1.3 10.8-2.9 15.1-5 .3 1.8.7 3.7.9 5.7l3.8-1.8c-.9-5.2-2.3-10.2-4.3-14.9l-3 1.6c.6 1.5 1 3 1.4 4.6-2.4.9-5 1.7-7.7 2.3 1.9-2.4 3.7-4.9 5.3-7.6 2-3.3 3.8-6.8 5.5-10.8l-4.1-2.8c-1.1 3-2.4 5.9-3.7 8.6-1.2-1.2-2.6-2.4-4-3.4-.1 0-.1-.1-.2-.1 2.9-4 5.2-8.3 7-13.1l-4.8-2.4c-1.4 4.9-3.3 9.2-5.7 13.2-.7-.5-1.5-.9-2.3-1.4l-2 4.4c3.4 2.4 6.4 5.3 8.9 8.7-1.5 2.7-3.2 5.2-5 7.6-1 .2-2 .3-3.1.5l.8 4.7c-2.1-3.1-4.7-6.1-7.8-8.8v-6.2h6.5v-5.7h-6.5V708h-6.1v16.4h-11.8v5.7h8.3c-.7 5.6-1.7 11-3.3 16.2-1.7 5.8-4 11-6.8 15.8l3.2 4.9c3.5-5.1 6.1-11 8.1-17.6m86.4 20.9q-2.1 8.7-6.6 15l-3-4.3c3.3-3.6 5.7-8 7.3-13.1s2.3-10.9 2.3-17.4v-18.7h35.5V756h-33.6c-.2 5.2-.9 10-1.9 14.3m2.1-19.9v2h31.5v-6.8h-31.5zm31.5-8.2v-6.7h-31.5v6.7zm-16.5-31.4c4.2 2.3 8.1 4.7 11.8 7.3 3.8 2.6 7.4 5.5 10.9 8.7l1.3-1.4c-6.5-6.9-13.5-13-21-18.5h-2.2c-4.2 4.6-8.6 8.6-13.5 12-4.8 3.4-10.3 6.5-16.4 9.3l2.3 4.9c6-3.4 11.4-7.2 16.2-11.3 3.7-3.2 7.3-6.9 10.6-11m42.1 62.4c0 1.9-.4 3.3-1.3 4.2s-2.2 1.3-4.1 1.3h-6.1l1 5.4h5.9c2.2 0 3.9-.6 5-1.8s1.7-3.1 1.7-5.6v-68.5h-2.2v65zm-51.6-47.5H771v-3.4h-23.2zm.1 37.1h29.9v20.1h-29.9zm27.9 16v-12.2h-26v12.2zm12.7-59.7h-2.1v44h2.1zm45.2 2.7c-1.5-2.5-3.1-4.8-5-7s-3.9-4.2-6.1-6.1l-3.1 4.3c2.6 1.4 5 2.9 7.2 4.6s4.2 3.6 5.9 5.7zm-3.5 16.5 1.3-1.6c-1.5-2.2-3.4-4.4-5.6-6.4-2.2-2.1-4.5-3.9-7-5.6l-2.8 4.2c2.8 1.2 5.4 2.7 7.8 4.3 2.3 1.5 4.4 3.3 6.3 5.1m34.3.3v9H882v22h-37.4v-22h17.5v-9h-25V734h25v-12.4H848c-1.4 3.7-3 7-4.9 9.6l-4.6-3.1c2.6-2.7 4.9-5.9 6.8-9.6s3.3-7.4 4.2-11.2l2 .5c-.4 3-1.1 6.1-2 9.4h12.7v-10h2.3v10h19.2v4.4h-19.2V734h24.3v4.6zM846.9 752v13.1h32.9V752zm-9.6 24.3c-3.4-2.2-6.2-5.4-8.5-9.5v-21.6h-12.6v4.9h10.4v16.1c-2 2-4 4.3-6.1 7-2.2 2.9-4 5.9-5.4 8.9l1.7 1.2q2.25-3.3 5.4-6.3c1.7-1.6 3.4-3.1 5.1-4.3 2.6 2.9 5.6 5.2 9.1 6.7 3.9 1.7 8.4 2.6 13.7 2.6h39.7l.5-2.1h-40c-5-.1-9.4-1.3-13-3.6m113.6-19.6c-1.8 4.1-4.2 8-6.9 11.7l.7.6c2.9-3.5 5.4-7.1 7.4-10.9 1.7-3.3 3.2-6.9 4.4-10.8.6 3.5 1.3 6.7 2 9.7 1.1 4.3 2.4 8.3 4.1 12l2.2-1.7c-1.9-3.5-3.6-7.3-4.9-11.4s-2.4-8.8-3.2-14.1h-9.5v1h8.5c-1.4 5.3-3 9.9-4.8 13.9m-49.4-42.5h35.4v14.2H905v54h2.8v-52.9h29.1v51.8h2.7v-51.8h29.8v45.7c0 2.2-.4 3.7-1.3 4.7s-2.2 1.4-4.1 1.4h-9.5l.3 1.1h10.5c2.3 0 4.1-.6 5.2-1.7 1.1-1.2 1.7-2.9 1.7-5.3v-47h-32.6v-14.2H975v-1.1h-73.6v1.1zm25.1 42.7c1.1 4.3 2.4 8.3 4 12l2.2-1.7c-1.9-3.5-3.6-7.3-4.9-11.4q-1.95-6.15-3.3-14.1h-9.5v1h8.5c-1.3 5.3-2.8 9.9-4.7 13.9-1.9 4.1-4.2 8-7 11.7l.8.6c2.9-3.5 5.3-7.1 7.4-10.9 1.7-3.3 3.2-6.9 4.4-10.8.7 3.5 1.4 6.7 2.1 9.7m95.7 25.1v-52.6c-1.9 3.4-4.1 6.7-6.5 9.8l-.9-.7q4.35-6.6 7.8-14.4c2.2-5.1 4.1-10.5 5.5-16.2l2.6 1.4c-1.6 5.2-3.5 10.2-5.8 14.9h16.2c2.7-4.7 4.8-10.1 6.2-16.3l2.8.9c-1.9 5.7-4.5 10.9-7.8 15.5h17.6v1.1h-16v16.8h14.6v1.1H1044V761h14.6v1.1H1044V781h17.7v1.1h-39.4zm19-20H1025v18.9h16.3zm0-18.8H1025v17.7h16.3zm0-17.9H1025v16.8h16.3zm-31.7 30.2c2.7 6.7 4.5 13.3 5.6 19.7l2.1-1.3c-1.4-6.1-3.7-12.3-6.8-18.8zm-7.7-8.4V784h2.5v-37.5c2.9-.7 5.6-1.4 8.2-2.2.5 2.3 1 4.7 1.4 7.3l2.1-1.3c-.7-3.3-1.6-6.4-2.5-9.3-.9-2.8-2.1-5.5-3.4-8.1l-1 .5c1.2 2.9 2.2 6.2 3.1 9.8-4 .8-8.2 1.5-12.6 2.2-2.3.3-4.6.6-7 1 6.9-6.6 13.6-15.3 20.3-26.3l-2.1-1.9c-2.9 5.4-5.8 10.3-8.8 14.7-3-2.4-6.1-4.6-9.5-6.5 4.8-5.9 8.7-11.9 11.6-17.9l-2.5-1.8c-1.3 3.5-2.8 6.9-4.6 10.2q-2.55 4.8-5.4 9c-1.7-.9-3.4-1.8-5.2-2.6l-.4.9c5.4 3 10.1 6.7 14.4 11-3.2 4.5-6.4 8.3-9.6 11.5-2 .2-4.1.5-6.2.7l.4 2.7c6.2-.9 11.7-1.9 16.8-3m-6.3 10.3-2.3-1.1c-1 4.1-2.3 8-3.7 11.8-1.4 3.7-3 7.3-4.8 10.6l.8.6c4.4-7 7.7-14.3 10-21.9m103.6 14.9c4.6 2 9.2 4.3 13.6 7l-1.9 2.3c-4.4-3.2-8.8-5.9-13.3-8.1-.7.5-1.4 1-2.2 1.5-6.8 4.4-15 7.8-24.6 10l-.3-1c6-1.6 11.4-3.6 16.3-6 3.2-1.6 6.2-3.4 8.8-5.4-4.3-2.1-8.8-3.7-13.4-4.9-1.3 1.8-2.6 3.5-4 5.2l-2.1-1.4c3.2-3.7 6-7.7 8.7-11.9h-14.5v-1h15.1c1.7-2.8 3.3-5.6 4.7-8.5h-15.8v-12.3h20.1v-7.1h-16.7v-8.5h-7.4v-1h7.4V713h16.7v-5.6h2.6v5.6h16.9v8.1h6.3v1h-6.3v8.5H1097v7.1h19.1V750h-23c-1.4 2.9-3 5.8-4.6 8.5h31.3v1h-8.9c-2.9 4.8-6.8 9-11.7 12.8m12.4-50.2h-14.5v7.5h14.5zm-14.5-8.1v7.1h14.5V714zm-16.9 7h14.2v-7h-14.2zm14.3 8.6v-7.5h-14.2v7.5zm2.6 9.1V749h16.3v-10.3zm-2.6 0H1077V749h17.5zm2.7 32.7c.8-.6 1.5-1.3 2.3-1.9 3.3-3 6-6.4 8.2-10h-19.8c-.4.7-.9 1.4-1.3 2.1-1.1 1.7-2.3 3.4-3.5 5.1 4.7 1.3 9.4 2.9 14.1 4.7m36.7-12.6c4.1 8.8 9 16.9 14.8 24.3l-2.1 2.4c-5.4-7.5-10-15.7-13.7-24.3-4.4 9-10 17.2-16.6 24.3l-.7-.8c6.7-7.7 12.1-16.4 16.3-26-3.4-8.4-6-17-7.7-25.8-1.6 4.1-3.4 7.8-5.4 11.3l-.7-.8c2.4-5.1 4.5-10.7 6.1-16.9s2.9-12.6 3.8-19.2l2.9.6c-.9 5.2-2 10.2-3.4 15.1h20v1.1h-3.5c-1.8 12.3-5 23.5-9.6 33.8-.2.2-.3.6-.5.9m-9.1-27.6c1.8 8.6 4.5 17 8 25.1 3.9-9.7 6.7-20.5 8.4-32.3h-14c-.3 1.1-.7 2.3-1 3.4-.5 1.3-1 2.6-1.4 3.8m49.6-23.5c-1.7 6.7-4.2 13.3-7.4 19.7s-7.1 12.5-11.8 18.3l.8.9c4.1-4.6 7.8-9.4 11-14.4v51.4h2.8v-56.1c3.4-6.2 6-12.5 7.7-18.9zm9.3 24.8h-2.6V782h51.3v-1h-48.7zm24.9-13.6c-.5 3.3-1.1 6.5-1.8 9.4h18v41.8h-30.7v-41.8h10c.9-3.7 1.5-7.5 2.1-11.3h-25v-1h25.1c.3-2.5.6-5.1.7-7.7l2.8.2c-.2 2.5-.4 5-.7 7.5h20.2v1H1209c-.2.6-.3 1.2-.4 1.9m13.5 36.1v-12.5h-25.3V755zm-25.3 1v13h25.3v-13zm25.3-14.5v-12.2h-25.3v12.2zM72.4 882.8c-3.1-2.5-5.8-6.3-8-11.3v-20.2H50.3v6.2h12.6V871q-4.2 3.75-7.8 8.1c-2.5 3-4.7 6.2-6.5 9.4l1 .9c2.2-2.3 4.7-4.5 7.6-6.5 1.9-1.4 3.7-2.5 5.5-3.6 2 2.7 4.6 4.8 7.7 6.3 3.7 1.8 8.1 2.6 13.1 2.6h39.8l.3-1.5H84.4q-7.05-.15-12-3.9M69 829.3c-1.6-3.1-3.3-5.8-5.2-8.1s-3.9-4.5-6-6.5l-4.3 5.4c2.7 1.4 5.3 2.9 7.8 4.6s4.7 3.5 6.8 5.6zm46.2-15.5q-2.25 4.35-5.1 7.8c-1.7 2.1-3.8 4.1-6.1 6H93.4c-1.5-5-3.6-9.6-6.2-13.8l-6.8 3.5c4.7 3 8.5 6.4 11.4 10.3h-17v6.2H98v11.1c0 3.3-.3 6.3-.8 9H80.7v-13.7h-1.5v19.7h16.2c-1.5 3.4-3.5 6.4-6.1 9-2.8 2.8-6.6 5.3-11.2 7.5l3.6 6.2c6.4-4 11-9 13.7-15.2 1-2.3 1.9-4.8 2.5-7.6h20.5v-19.7h-1.5v13.7H99c.4-2.8.5-5.8.5-9v-11.1H123v-6.2h-11.8c2.2-3.9 4-8.3 5.2-13.3zm-47.7 30.7c-1.9-2.8-4-5.4-6.2-7.6s-4.6-4.3-7.4-6.3l-3.7 5.5c3.1 1.2 6 2.6 8.7 4.1s5.2 3.3 7.5 5.2zm118 21.2c-2.3-4.2-4.1-8.8-5.4-13.9H203v-6.2h-31.3c1.1-6.1 1.7-13 1.8-20.6h32v-6.4h-67.1v6.4h33.5c-.1 7.8-.8 14.7-2.2 20.6H141v6.2h26.9c-2.6 7.3-6.6 13.2-11.9 17.8-5.4 4.7-12.5 8.7-21.4 12.1l3.1 8.3q12.3-6.3 20.1-14.7t11.7-21c.3-.9.5-1.7.8-2.6h1c1.9 5.8 4.5 11 7.9 15.6 3.5 4.8 7.7 9 12.6 12.7s10.5 7 16.9 10.1l.8-1.3c-5.5-3.2-10.2-6.7-14.2-10.5-3.9-3.7-7.2-7.9-9.8-12.6m94.2 10.9c-4-4.3-7.1-9.2-9.5-14.5-2.2-4.9-4-10.5-5.3-16.7h28.3v-6.8h-35.9c1-7 1.5-14.8 1.5-23.6h-1.5c0 9-.6 16.8-1.7 23.6h-34.4v6.8h32.9c-.2.8-.4 1.7-.7 2.5-2.6 8.5-6.5 15.4-11.8 20.6s-12.6 9.6-21.7 13.3l3.1 8.3c8.4-4.5 15.2-9.8 20.3-16 5.2-6.2 9-14 11.6-23.5.4-1.6.8-3.3 1.2-5 2.1 7 4.6 13 7.6 18.1 3 5.2 7 10 11.8 14.3s11 8.3 18.4 12.1l.7-1.3c-6-3.8-10.9-7.8-14.9-12.2m89.4-62.8h-1.4v10h-7.1v5.8h7.1v10.6h1.4v-10.6H380v-5.8h-10.9zm-21.9 26.4h1.4v-10.6h7.1v-5.8h-7.1v-10h-1.4v10h-10.3v5.8h10.3zm-17.4 34.2c1.7-4.1 2.9-8.5 3.9-13.4l-1-.3c-1.9 4.3-4.4 8.1-7.5 11.3zm9.9-31.4h36.9v46.1h-36.9zm35.5 19.6v-14.1h-16.3v14.1zm-16.4 5.4v15.4h16.3V868zm-1.3-19.4h-16.3v14.1h16.3zM341.1 868v15.4h16.3V868zM316 878.5q-2.25-8.7-6.6-16.5l-5 3.3c4.9 4.2 8.4 8.7 10.5 13.7zm-1.9-49.5c1.9-2.6 3.6-5.4 5.3-8.3 2.8 1.6 5.3 3.3 7.6 5.2 2.6 2.2 5.1 4.6 7.5 7.4l.9-.7c-3.9-6.7-8.2-12.5-13.1-17.3H321c-2.4 3.9-5.2 7.5-8.3 10.7s-6.7 6-10.6 8.5l2.1 6c3.7-3.7 7-7.5 9.9-11.5m20.6 47.4c-4.1 2-8.4 3.9-12.8 5.5v-24.7h12.6v-5.5h-12.6v-10.6h11v-5.5H310v5.5h10.5v10.6h-15v5.5h15v25.2c-5.2 1.9-10.7 3.6-16.4 5.1l.3 1.3c11.8-1.8 22.3-4 31.3-6.6zm125.5-39.1V824h-32v-9.8h-1.5v9.8h-32v13.4h1.6v-11.9h21.2v6.1c0 4.9-1.4 8.9-4.2 12.2q-4.2 4.8-13.2 7.8l.7 1.5c6.3-2.2 10.9-5.1 13.8-8.6s4.4-7.9 4.4-13v-6h16.9v19.2c0 2.4.5 4.1 1.4 5.3 1 1.1 2.6 1.7 4.8 1.7h7.7c1.8 0 3.1-.4 4-1.2s1.6-2.1 2-4l.8-4.3-1.4-.6-.8 4.3c-.3 1.6-.8 2.7-1.5 3.4s-1.8 1-3.4 1h-7.2c-1.8 0-3.1-.4-3.8-1.3s-1.1-2.3-1.1-4.4v-19.1h21.3v11.9h1.5zm-32 24.7h25.5v-1.5h-52.5v1.5h25.5v24.1h-32.3v1.6h66.1v-1.6h-32.3zm76.9-34.6h33.4v59.3h-51.8v-59.3h16.5c3-3.9 5.1-8.7 6.4-14.5l1.7.5c-.7 2.8-1.7 5.5-2.8 8-.9 2.2-2.1 4.2-3.4 6m31.8 27.8v-26.3h-48.7v26.3zm-48.7 1.6v28.4h48.7v-28.4zm145.9 8.6.3-1.4h-38.7c-4.5 0-8.5-.9-12-2.6-3.3-1.7-6.1-4.2-8.5-7.5v-13.2h-14.1v4.2h12.6v8.9c-2.5 1.7-4.9 3.5-7.3 5.7-2.5 2.3-4.7 4.6-6.6 7.1l.9.8c2.5-2 5-3.9 7.5-5.5 1.9-1.2 3.7-2.3 5.6-3.2 2.2 2 4.9 3.7 8.2 4.8 3.8 1.3 8 2 12.7 2h19.2v6.1h-52.8v4.5h52.8v5.6c0 1.8-.4 3-1.2 3.8s-2.3 1.2-4.3 1.2H598l.9 4.5h10c2.2 0 3.9-.5 4.9-1.5 1.1-1 1.6-2.6 1.6-4.8V876h18.5v-4.5h-18.5v-6.1zm-57.8 12-4 4.2c6 1.8 11.5 4.2 16.3 7.3l.9-1c-3.6-4.3-8-7.7-13.2-10.5m1.9-53.8c-1.5-1.7-3.2-3.4-5.2-5-2-1.7-4.2-3.1-6.4-4.3l-2.8 3.6c2.7.9 5.2 1.9 7.5 3.1 2.3 1.1 4.4 2.4 6.2 3.7zm32.8.3c-.4 1.7-.9 3.3-1.7 4.9H628v29.5h-39.9v-29.5h15.8c1.9-1.3 3.8-3 5.5-4.9h-26.7v-3.7h17.6c-2.4-2.2-5.4-4.1-9.1-5.8l5.2-1.8c1.1 1.1 2.2 2.3 3.3 3.7 1 1.3 1.7 2.6 2.3 3.9h12.3c1.7-1 3.2-2.1 4.6-3.3 1.5-1.3 2.8-2.8 4.1-4.3l1.2.5c-1.1 2.6-2.5 4.9-4.2 7.1h14v3.7zm-21.3 30.8h36.9v-5.6h-36.9zm36.8-8.5v-5.5h-36.9v5.5zm0-8.7v-5.4h-36.9v5.4zm-62.4-12.1-2.8 3.7c2.8.9 5.4 1.8 7.8 2.9s4.5 2.3 6.5 3.6l.8-.9c-1.5-1.7-3.3-3.3-5.4-4.9-2.1-1.5-4.4-3-6.9-4.4m104.5 19.4h28.6v26h-28.6zm27.1 21.2v-16.5h-25.5V866zm-13.6-51.7-1.5-.3q-3 7.95-11.4 13.8h-19.4v60.8h1.5v-55.8h63.2v46c0 1.8-.4 3.1-1.2 4-.8.8-2.1 1.2-4 1.2H699l.9 5h9.7c2.2 0 3.8-.5 4.8-1.6s1.5-2.7 1.5-5v-54.7h-40.6c3.3-3.6 5.5-8.1 6.8-13.4m106.4 65.3v-10.8h-2.2v9.8h-11V868H773v21.7h2.4v-10.1zm2.4-13.6 1.8-.6c-1.1-3.3-2.5-6.2-4.3-8.8-.3-.3-.5-.7-.8-1l-.7.6c.8 1.3 1.5 2.9 2.2 4.6-4.4.9-9.1 1.7-14 2.3 4.5-3.4 8.7-7.9 12.6-13.2l-2-1.1c-1.5 2.5-3.2 4.8-5 7.1-1.6-1.3-3.3-2.4-4.9-3.4-.5-.3-1-.6-1.5-.8 3.4-2.6 6.2-5.5 8.3-8.6l-2.2-1c-1.8 3.3-4.1 6.3-7 9.2-1.1-.6-2.2-1.1-3.4-1.6l-.4.9q3 1.5 5.4 3.3c1.4 1.1 2.9 2.3 4.4 3.8-1.9 2.2-3.9 4.1-6.1 5.9-1.4.2-2.8.3-4.2.5l.5 2.1c7.2-1 13.8-2.5 19.9-4.3.5 1.1 1 2.5 1.4 4.1m-17.5-48.7h26.9v66.2c0 2.3-.6 4.1-1.7 5.3-1.2 1.2-2.9 1.8-5.2 1.8h-7.1l-.2-1.1h6c2 0 3.4-.5 4.3-1.4.9-1 1.3-2.5 1.3-4.5v-43h-24.3zm24.3 22.1v-10.1H776v10.1zm0-11.1v-10H776v10zm-36.6 27.3-.8.6c.8 1.3 1.5 2.9 2.2 4.7-4.4.9-9 1.6-13.9 2.3 4.6-3.4 8.8-7.9 12.5-13.2l-2-1.1c-1.5 2.5-3.2 4.8-5 7.1-1.6-1.3-3.3-2.4-4.9-3.4-.5-.3-1-.5-1.5-.8 3.3-2.6 6.1-5.5 8.3-8.6l-2.3-1c-1.7 3.3-4 6.3-6.9 9.2-1.1-.6-2.2-1.1-3.4-1.6l-.4.9q2.85 1.5 5.4 3.3c1.5 1.1 2.9 2.3 4.4 3.8-1.9 2.2-3.9 4.1-6.1 5.9-1.4.2-2.8.3-4.3.5l.6 2.1c7.2-1 13.8-2.5 19.8-4.2.5 1.3.9 2.7 1.4 4.2l1.9-.6c-1.1-3.3-2.6-6.2-4.3-8.8-.2-.6-.5-1-.7-1.3m-.4 19.5c0 1.2-.1 2.4-.4 3.5h-10.6v-9.8h-2.2v10.8h12.6c-.2.6-.4 1.3-.7 1.8-.9 1.8-2.3 3.3-4.3 4.5s-4.5 2.2-7.7 2.9l.3.9c5.3-1 9.2-2.8 11.7-5.2 2.5-2.5 3.7-5.7 3.7-9.7v-6.7h-2.4zm-22.3-34.7v50.1h-2.6v-73.2h26.9v23.2h-24.3zm0-1h21.7v-10h-21.7zm21.7-11.1v-10.1h-21.7v10.1zm9.5 37.7q0-.15 0 0m69.2 17c-3.1-1.8-5.6-4.4-7.5-7.9v-22.7h-15v1.1h12.2V875c-2.2 1.4-4.4 3.2-6.7 5.3-2.4 2.3-4.5 4.5-6.1 6.7l2.3 1.9c1.5-2.4 3.3-4.8 5.5-7.2 2.1-2.2 4.1-4.1 6.1-5.8 2 4.1 4.6 7.2 8 9.3q5.25 3.3 12.3 3.3h39.3l.6-2.8h-39.6c-4.5 0-8.2-.9-11.4-2.7m23.6-14.7v-10.2h-18.3v-25.5h18.3v-9.5H840V822h22.5v-7.2h2.8v7.2h22.4v1.1h-22.4v9.5h18.1v25.5h-18.1v10.2h23.1v1.1h-23.1v11.3h-2.8v-11.3h-23.2v-1.1zm18.4-22.6h-15.6v11.4h15.6zm-15.5-12.1v11.1h15.6v-11.1zm-2.9 0h-15.8v11.1h15.8zm0 23.5v-11.4h-15.8v11.4zm-34.7-34.3c2 2.2 3.9 4.6 5.4 7.2l1.9-2.1q-2.4-3.45-6-6.6c-2.3-2.1-4.7-3.8-7.2-5.4l-.7.9q3.6 2.7 6.6 6m-10.1 9.4c2.6 1.6 5.1 3.5 7.3 5.7 2.3 2.2 4.3 4.5 6.1 6.9l2-2.2c-1.9-2.2-4.1-4.3-6.7-6.2s-5.3-3.6-8.2-5zm106.5-14h47.2v70.2h-47.2zm46.3 69.3V819h-45.5v68.5zm-22.3-51v15.8h10.4v21.6h-21.6v-21.6h10.4v-15.8h-15.5v-.9h15.5V823h.9v12.7h15.5v.9h-15.6zm-10.4 16.6V873h19.9v-19.9zm-28-18.4c-3.1 6.4-6.8 12.4-11.2 18.2l.7.5c4-5.2 7.4-10.7 10.4-16.4v52.7h.9v-54.4c0-.1.1-.2.1-.3 3.1-6.4 5.5-13 7.1-19.6l-.9-.2c-1.6 6.6-4 13.1-7.1 19.5m116.9 39.6v-11.5h28.9v11.5zm28.1-.9v-9.8h-27.3v9.8zm-18.8-59.5v7.6h10.2v-7.6h.9v7.6h10.6v23.8h-33.2v-23.8h10.6v-7.6zm11.1 8.4V833h9.8v-10.7zm-11 22.2h10.2v-10.6H1036zm-.9-10.6h-9.8v10.6h9.8zm11.9 10.6h9.8v-10.6h-9.8zm-.8-22.2H1036V833h10.2zm-11.1 0h-9.8V833h9.8zm-15.3 17.9v10.7h-.9V841h-33.1v11.6h-.9v-12.4h6.8v-23h22.5v23zm-17 0h10.6v-11.5h-10.6zm-10.2 0h9.4v-12.3h11.4v-9.8h-20.8zm69.2 13.7h-39.4v.9h39.4zm-70-3.4h22.5v33.1c0 2.3-.5 4-1.6 5.1s-2.7 1.7-4.9 1.7h-4.6l-.2-.9h4.8c2 0 3.4-.5 4.3-1.4s1.3-2.5 1.3-4.6v-8.8h-20.8V890h-.9v-39.5zm21.6 23.4v-11.1h-20.8v11.1zm0-11.9v-10.7h-20.8V862zm37.4 21.2c.9-1.7 1.6-3.5 2.3-5.3l-.9-.3c-.7 1.9-1.4 3.6-2.3 5.2-.8 1.6-1.7 3.1-2.7 4.6h-12.1c-.6-1.7-1.3-3.3-2.2-4.8q-1.35-2.55-3-4.8l-.7.5c2.1 2.9 3.7 6 4.9 9.1h-12.8v.9h41.1v-.9h-14.3c1.2-1.3 2-2.7 2.7-4.2" style="fill:#44bbc7"/><path d="M1103.4 861.7c1.5 6.7 2.7 13.4 3.4 20.2l-9.3 2c-.5-6.9-1.5-13.7-2.9-20.3zm-32.6 13.2c-.5 3.7-1 7.2-1.7 10.5l9.9 1.5c1.3-7.7 2.1-15.4 2.6-23.1l-9.5-1.2c-.4 4.6-.9 8.6-1.3 12.3m25-16.9c.1.8.2 1.7.3 2.6l9.2-2.2c-1-6.6-2.2-11.8-3.6-15.8l-8.3 2.2c.2.7.4 1.4.5 2.1l-4.5.6c1.3-1.3 2.5-2.6 3.7-3.9q5.55-6.3 10.8-14.1l-9.1-6.5c-2.1 3.4-4.5 6.7-7 9.9-.6-.5-1.2-1-1.8-1.4 3.2-4.2 6.2-8.9 9-13.9l-9.9-5.1c-1.8 3.4-3.6 6.6-5.4 9.5-.8 1.2-1.5 2.4-2.3 3.6l-3-1.8-5.8 9.8c3.9 2.1 7.8 4.7 11.8 7.9-2.3 2.5-4.8 5-7.4 7.5-1.4.1-2.9.2-4.3.3l.8 11.6c4.4-.3 8.7-.7 13-1.1v32.4h11.1v-33.8c.9-.1 1.5-.3 2.2-.4m37.5-16.2c4.8 2.6 9.9 4.6 15.4 6.2l-3 12c-1-.3-1.9-.7-2.8-1v32.1h-34.6v-32.6c-.4.2-.8.4-1.3.5l-2.7-11.3c3.9-1.2 7.7-2.9 11.2-5.1-1.2-1.1-2.3-2.1-3.5-3.3-.8 1.2-1.7 2.3-2.6 3.5l-8.5-6.2c2.7-3.6 5.1-7.4 7.1-11.4s3.6-8.2 4.9-12.6l10.9 2.6c-.4 1.3-.9 2.6-1.4 3.8h21.1v9.5c-2.8 4.8-6.3 9.3-10.2 13.3m-15.8-11.6c2.1 2.1 4.3 4 6.6 5.8 2.5-2.3 4.7-4.8 6.5-7.5h-12.3c-.3.5-.5 1.1-.8 1.6.1 0 .1 0 0 .1m1.5 50.2h13.3v-12H1119zm20.8-22.6c-4.7-1.9-9.2-4.2-13.4-7-.7-.4-1.3-.9-1.9-1.3-4.5 3.3-9.3 6.1-14.5 8.3zm37.2 17.7c-1.2 3.2-2.7 6.2-4.5 9.2-1.8 2.9-3.8 5.6-5.9 8l-12.8-6.9c2.4-2.3 4.6-4.7 6.6-7.3 1.6-2.1 3-4.3 4.1-6.6h-9.5v-10.5h32.7V859h-28.5v-9.5h28.5v-2.4h-26.8V814h65.6v33.2h-26.8v2.4h28.5v9.5h-28.5v2.3h32.7v10.5h-63.8zm38.9-37.3v-14h-16.2v14zm-28.1 0v-14h-16.2v14zm6.8 42c-.6-2.6-1.4-5.2-2.5-7.5l-13 2.4c.9 2.6 1.7 5.3 2.2 8s.9 5.5 1.1 8.3l13.7-2.6c-.4-3.1-.9-5.9-1.5-8.6m17.8.3c-1.1-2.8-2.3-5.4-3.7-7.9l-12.2 3.1c1.1 2.6 2.1 5.1 2.9 7.8.8 2.6 1.4 5.3 1.8 8l13.7-2.9c-.6-2.6-1.4-5.3-2.5-8.1m-30.3-55.7-9.5 3.9c1.1 1.4 2 2.8 2.9 4.3.8 1.5 1.5 3.1 2.1 4.7l9.5-3.7c-1.3-3.4-2.9-6.5-5-9.2m23.5-.2c-1.2 3.2-3 6.1-5.2 8.6l9 4.5c2.2-2.2 4.1-5 5.7-8.5zm20.2 48.1-12.2 3.8c2.7 4.8 4.9 10 6.5 15.6l13.6-3.8c-1.8-5.5-4.4-10.7-7.9-15.6" style="fill:#fbfbfb"/></svg>