<svg xmlns="http://www.w3.org/2000/svg" viewBox="0 0 1280 960"><path d="M0 0h1280v960H0z" style="fill:#031723"/><path d="M122 96.1c4.6 4.3 10.2 7.8 16.5 10.6l-5.8 10.7c-3-2.2-5.7-4.5-8.2-6.9v18.9H83.4V108c-3.5 2.9-7.4 5.6-11.7 8.2l-2-4.4c5.6-3.7 10.5-8.1 14.6-13.2 1.4-1.7 2.6-3.5 3.8-5.3h-16v-4.1h18.4q1.8-3.3 3.3-6.9H80.3v-3.9h15c.8-2.2 1.4-4.4 2-6.7H78.4v-3.9h19.7c.3-1.8.6-3.7.9-5.5l10.7.9c-.2 1.6-.5 3.1-.9 4.7h20.8v3.9h-21.7c-.6 2.3-1.4 4.6-2.2 6.7h22.1v3.9h-16.3c1.3 2.4 2.8 4.7 4.4 6.9H136v4.1h-16.7zm-7.3 16.7v-8H93.3v8zm-21.4 4v8.2h21.4v-8.2zm6.8-27.7h9.3c-1-2.2-2-4.5-2.8-6.9h-2.7l-1.5 3c-.7 1.4-1.5 2.6-2.3 3.9m-2.7 4.1c-1.9 2.6-3.9 5.1-6.1 7.4H116c-1.6-2.3-3.2-4.8-4.6-7.4zm52.4-3.5c2 2.3 3.6 4.7 5 7.4l5.8-9.9c-2.1-1.5-4.5-2.8-7.2-4s-5.3-2.3-8-3.1l-2.3 3.8c2.5 1.6 4.7 3.6 6.7 5.8m41.4-14.3h15v-5.2h-40.9v5.2h15v43.8h-18.6v5.2h47.4v-5.2h-17.9zm-32.8 5.5 5.4-9.6c-2.3-1.5-4.8-2.9-7.6-4.2q-4.2-1.95-8.7-3l-1.8 3.7c2.6 1.5 5 3.3 7 5.5 2.1 2.2 4 4.7 5.7 7.6m1.5 16.9c-4.2 9.6-9.6 17.7-16.3 24.2l9.3 8.2c2.5-4.7 4.6-9.5 6.5-14.5s3.4-10.3 4.7-16zm65.3 33.7c2.9-9.7 4.8-20.4 5.9-32l-4.2-1.5c-2.6 9.9-6.6 18.9-11.8 27zm1.4-35.4 6.1-8c-2-1.7-4.3-3.3-6.8-4.8-2.6-1.5-5.1-2.8-7.8-3.8l-2.3 3.8c2.1 1.6 4.1 3.4 5.9 5.6 1.9 2.2 3.5 4.6 4.9 7.2m35-31.2h21.8v58.5c0 2-.5 3.5-1.6 4.7-1.1 1.1-2.6 1.7-4.5 1.7h-6.8l-1.4-5h3.8c.7 0 1.3-.3 1.6-.8.3-.6.5-1.4.5-2.5v-16.2l-2.9 4.7c-.7-2.4-1.6-4.7-2.7-6.7-.3 4.8-1.1 9.3-2.3 13.5-1.6 5.6-4.1 10.5-7.6 14.7l-4.1-2.2q2.85-5.25 4.2-11.7h-8.4v12.8H242v-12.8h-9.9V113h9.9v-6.5h-8.1V79.4h8.1V73h-8.7c.3.3.6.5.9.8l-6.3 7.5c-1.4-2.7-3-5.2-4.8-7.6-1.9-2.4-3.8-4.4-5.8-6l2.2-3.9c2.6 1.1 5.2 2.5 7.8 4.3 2 1.3 3.8 2.8 5.4 4.3v-3.7h9.3v-6.3h9.5v6.3h8.3V73h-8.3v6.4h7.2v27.1h-7.2v6.5h8.8v2.2c.9-5.1 1.4-10.8 1.4-17.2V64.9zm-19 18.4v7.4h7.3v-7.4zm0 11.3v7.7h7.3v-7.7zm32.5-25.3h-5.5v10.4l.4-.6c1.8.9 3.5 1.9 5.1 3.1zm0 31.1V86.8l-2.9 4.7c-.7-2.4-1.5-4.5-2.5-6.4v13l.4-.6c1.8.8 3.5 1.8 5 2.9m23.9 2.3c-2.8 5.7-6.4 10.7-10.7 15.1l2.8 3.8c5.9-4.6 11-10 15.2-16.3q6.3-9.45 9-19.5v-4.7h-24v4.7h12.9c-.8 5.9-2.6 11.6-5.2 16.9m37.1-10.1c2.8-1.6 5.4-3.3 8-5.2 3.2-2.3 6-4.7 8.5-7.3l-8.7-7.7c-1.9 3.8-3.9 7.1-5.9 10.1-1.6 2.4-3.2 4.4-4.9 6.1-2.1-3-3.9-6.3-5.4-9.8V62.7h-10.2v57.7c0 1.3-.3 2.2-.8 2.9-.6.7-1.4 1-2.7 1h-7l1.2 4.5h13.2c2.1 0 3.7-.6 4.7-1.8 1.1-1.2 1.6-2.9 1.6-5.1v-33c2 5.2 4.2 10.1 6.9 14.6 3.9 6.8 8.5 12.9 13.7 18.5l9-10.4c-4.9-3.5-9.1-6.8-12.7-10.1-3.2-2.7-5.9-5.7-8.5-8.9M400 72.7h-15.8v-3.9H400v-5.2h10.2v5.2h15.7v3.9h-15.7V78h14.1v22.8h-14.1v5.8h16.4v4.5h-16.4v6.6H400v-6.6h-16.6v-4.5H400v-5.8h-14.6V78H400zm-5.7 14.9h5.7v-5.8h-5.7zm5.7 9.5v-6.2h-5.7v6.2zm10.2 0h5.2v-6.2h-5.2zm0-15.3v5.8h5.2v-5.8zM385.8 118c-1.9-.6-3.6-1.5-5.1-2.6V96.2h-17.6v4.7h7.4v14.3c-1.2.9-2.5 2.1-3.8 3.4-1.7 1.7-3.3 3.4-4.8 5.3l8.7 6.7c.8-2.4 1.9-4.8 3.1-7.2.6-1.1 1.2-2.2 1.8-3.2q2.55 3.75 6 6c3.3 2.1 7.1 3.1 11.6 3.1h32.3l2.2-10.2h-33.1c-3.5.1-6.4-.3-8.7-1.1m-13.5-45c1.8 2.3 3.4 4.5 4.6 6.8l6.5-7.8c-1.8-1.6-4-3.1-6.6-4.6s-5.3-2.8-8.2-4L366 67q3.6 2.55 6.3 6m-2.9 13.6c2 2.3 3.6 4.7 4.9 7.1l6.5-8.2c-1.9-1.6-4.1-3.2-6.8-4.8-2.6-1.5-5.5-2.9-8.5-4l-2.6 3.5c2.4 2 4.6 4.1 6.5 6.4m81.4 13-4.6-1.2c-2.7 10.5-6.6 19.4-11.8 26.6l10.4 6.2c3-9.1 5-19.6 6-31.6m-8.3-26.3c1.9 2.3 3.6 4.8 4.9 7.4l6.5-8.6c-2.2-1.8-4.7-3.4-7.3-4.9s-5.4-2.8-8.2-3.9l-2.1 3.8c2.2 1.9 4.3 3.9 6.2 6.2M498 96.8h4.5v4.5h-4.7l-.6 14.5h4.4v4.1H497l-.2 4.3c0 1.9-.7 3.3-1.8 4.2-1.2.9-2.7 1.4-4.6 1.4h-15.5l-1-3.9h11.2c.7 0 1.2-.2 1.6-.5s.6-.8.7-1.5l.2-4.1h-33.1v-4.1c1.4-4.6 2.6-9.4 3.6-14.5h-5.4v-4.5h6.3c1-5.6 1.7-11 2.2-16.3-1.9 2.4-4 4.6-6.4 6.7l-3.9-2.3c2.1-3.3 3.8-6.9 5-10.7 1.3-3.8 2.1-7.8 2.6-12.1l11.5 2c-.5 1.6-1.1 3.1-1.7 4.7h33V73h-35c-.6 1.2-1.3 2.3-2.1 3.5-.6.9-1.3 1.8-2 2.7h36.5zm-9-13.7h-5.4c-.2 4.8-.5 9.4-.8 13.7h5.7zm-20.6 13.7h5.8c.4-4.3.6-8.8.9-13.7h-4.8c-.5 4.5-1.1 9-1.9 13.7m-.8 4.5c-.9 5-2 9.9-3.2 14.5h7.3c.9-4.7 1.5-9.6 2-14.5zm20.7 0h-6c-.5 4.9-1.1 9.7-1.9 14.5h7.4zm-47.1-11.9c1.9 2.3 3.6 4.8 5 7.5l6.3-8.6c-2.2-1.8-4.7-3.4-7.3-4.9s-5.4-2.8-8.3-3.9l-2.3 3.7c2.5 1.8 4.7 3.9 6.6 6.2m109.6-12.1c3.2 5.2 5.5 11.1 7.1 17.7l9.9-6.4c-2.8-5-7.2-9.4-13.1-13.3zm-3.9-5.9H571v-4.5h-58.4v4.5h24.1v27.8H509v4.7h27.7v25.9h10.2v-25.9h27.7v-4.7h-27.7zM527.3 88c2.4-2.6 4.3-5.2 5.6-7.8l-10.4-5c-.8 3.3-1.9 6.5-3.2 9.6s-2.8 6-4.5 8.6l4.4 1.7c3.1-2.1 5.7-4.5 8.1-7.1m94.4-1h-13.9v12.3h4.5c-.1 1.1-.2 2.3-.4 3.5a15 15 0 0 1-1.1 3.6q-.75 1.8-1.8 3.3l3.3 1.8c3.4-3 5.8-6.4 7.3-10.1 1.4-3.6 2.2-8.4 2.1-14.4m48.1 12.6-4.6-1.2c-2.7 10.5-6.6 19.4-11.8 26.6l10.4 6.2c2.9-9.1 4.9-19.6 6-31.6m-9.7-10.2c1.9 2.3 3.6 4.8 5 7.5l6.3-8.6c-2.2-1.8-4.7-3.4-7.3-4.9s-5.4-2.8-8.3-3.9l-2.3 3.7c2.5 1.8 4.7 3.9 6.6 6.2m56.9 7.4h4.5v4.5h-4.7l-.6 14.5h4.4v4.1H716l-.2 4.3c0 1.9-.7 3.3-1.8 4.2-1.2.9-2.7 1.4-4.6 1.4H694l-1-3.9h11.2c.7 0 1.2-.2 1.6-.5s.6-.8.7-1.5l.2-4.1h-33.1v-4.1c1.4-4.6 2.6-9.4 3.6-14.5h-5.4v-4.5h6.3c1-5.6 1.7-11 2.2-16.3-1.9 2.4-4 4.6-6.4 6.7l-3.9-2.3c2.1-3.3 3.8-6.9 5-10.7 1.3-3.8 2.1-7.8 2.6-12.1l11.5 2c-.5 1.6-1.1 3.1-1.7 4.7h33V73h-35c-.6 1.2-1.3 2.3-2.1 3.5-.6.9-1.3 1.8-2 2.7h36.5zm-9-13.7h-5.4c-.2 4.8-.5 9.4-.8 13.7h5.7zm-20.7 13.7h5.8c.4-4.3.6-8.8.9-13.7h-4.8c-.5 4.5-1.1 9-1.9 13.7m-.7 4.5c-.9 5-2 9.9-3.2 14.5h7.3c.9-4.7 1.5-9.6 2-14.5zm20.7 0h-6c-.5 4.9-1.1 9.7-1.9 14.5h7.4zm-45.9-28c1.9 2.3 3.6 4.8 4.9 7.4l6.5-8.6c-2.2-1.8-4.7-3.4-7.3-4.9s-5.4-2.8-8.2-3.9l-2.1 3.8c2.2 1.9 4.3 3.9 6.2 6.2m101.7 18.4h22.3v-4.9h-22.3V63.3h-10.9v58.3h-24v5h65.2v-5h-30.3zm66.9 24.6h-27.7V67.9H830zm-9.8-26.8V72.3h-8v17.2zm-8 4.3v17.7h8V93.8zm52.9-28.4v55.5c0 3-.7 5.2-2 6.7-1.3 1.4-3.4 2.2-6.3 2.2H848l-1-5h4.6c1.2 0 2-.4 2.6-1.1.5-.7.8-2 .8-3.8v-12.6h-11.7c-.6 2.8-1.5 5.5-2.6 8-2.5 5.7-6.5 10.7-11.9 15.2l-3.3-4.4c3.2-3.5 5.5-7.6 6.8-12.2 1.3-4.7 1.9-10.1 1.9-16.4v-32h30.9zm-10.2 4.3h-10.5v14.2h10.5zm0 33V88.3h-10.5v8c0 2.2-.1 4.3-.4 6.4zm29.8-37.3h47.7v54.8c0 3.1-.6 5.4-1.9 6.9s-3.3 2.2-5.9 2.2h-12.3l-1.2-5h7.4c1.2 0 2-.4 2.6-1.2s.8-2.1.8-3.9v-12.4h-27.6q-.9 4.5-2.7 8.4c-2.5 5.6-6.4 10.6-11.8 15.1l-3.3-4.5c3.1-3.6 5.2-7.8 6.4-12.4 1.2-4.7 1.8-10.3 1.8-16.9zm37.2 36.5V88.2h-26.5v7.6c0 2.1-.1 4.2-.3 6.1zm0-18.4V70h-26.5v13.5zm87.1 41.4c-2.5-3.3-5.2-6.4-8-9.3-2.9-2.9-6-5.6-9.3-8l-4.2 2c2.4 3.5 4.6 6.9 6.4 10.5 1.8 3.5 3.4 7.2 4.6 11zm-34.5-12.6-10.9-4.7c-1.5 3.9-3.4 7.4-5.6 10.7q-3.3 4.8-8.1 9l3.4 3.6c4.6-2.5 8.6-5.2 11.9-8.2 3.4-3.1 6.5-6.5 9.3-10.4m22.4-11.9h16.2v4.7h-66.7v-4.7h16.2V83.8h-11.8v-4.7h11.8V63.6h10.2v15.6h13.9V63.6h10.2v15.6h11.8v4.7h-11.8zm-24.1 0h13.9V83.8h-13.9zm56.5-4.3 6.1-8c-2-1.7-4.3-3.3-6.8-4.8-2.6-1.5-5.1-2.8-7.8-3.8l-2.3 3.8c2.1 1.6 4.1 3.4 5.9 5.6 2 2.2 3.6 4.6 4.9 7.2m35.1-31.2h21.8v58.5c0 2-.5 3.5-1.6 4.7s-2.6 1.7-4.5 1.7h-6.8l-1.4-5h3.8c.7 0 1.3-.3 1.6-.8.3-.6.5-1.4.5-2.5v-16.2l-2.9 4.7c-.7-2.4-1.6-4.7-2.7-6.7-.3 4.8-1.1 9.3-2.3 13.5-1.6 5.6-4.1 10.5-7.6 14.7l-4.1-2.2q2.85-5.25 4.2-11.7h-8.4v12.8h-9.5v-12.8h-9.9V113h9.9v-6.5h-8.1V79.4h8.1V73h-8.7c.3.3.6.5.9.8l-6.3 7.5c-1.4-2.7-3-5.2-4.8-7.6-1.9-2.4-3.8-4.4-5.8-6l2.2-3.9c2.6 1.1 5.2 2.5 7.8 4.3 2 1.3 3.8 2.8 5.4 4.3v-3.7h9.3v-6.3h9.5v6.3h8.3V73h-8.3v6.4h7.2v27.1h-7.2v6.5h8.8v2.2c.9-5.1 1.4-10.8 1.4-17.2V64.9zm-19 18.4v7.4h7.3v-7.4zm0 11.3v7.7h7.3v-7.7zm32.5-25.3h-5.5v10.4l.4-.6c1.8.9 3.5 1.9 5.1 3.1zm0 31.1V86.8l-2.9 4.7c-.7-2.4-1.5-4.5-2.5-6.4v13l.4-.6c1.8.8 3.4 1.8 5 2.9m-49.9 31.1c2.9-9.7 4.8-20.4 5.9-32l-4.2-1.5c-2.6 9.9-6.6 18.9-11.8 27zm103.1-28.8h17.9V98h-17.9V81h21.5v-4.7h-21.5V63.5h-10.9v12.7h-9.8c1.1-2.6 2.1-5.4 2.9-8.4l-12.2-2.3c-.5 5.2-1.6 10.1-3.1 14.7-1.6 4.7-3.6 9.1-6.3 13.3l3.6 3.2c4.5-3.8 8.2-8.1 11.1-12.8.6-1 1.2-2 1.7-3.1h12v17H1104v4.7h16.1v19.1H1093v4.9h65.2v-4.9H1131v-18.9zm57.4-.2c-1-1.8-1.6-3.7-1.6-5.9 0-2.1.5-4.1 1.6-5.9 1-1.8 2.5-3.2 4.2-4.2 1.8-1 3.7-1.6 5.9-1.6 2.1 0 4.1.5 5.9 1.6s3.2 2.5 4.2 4.2c1 1.8 1.6 3.7 1.6 5.9 0 2.1-.5 4.1-1.6 5.9-1 1.8-2.5 3.2-4.2 4.2-1.8 1-3.7 1.6-5.9 1.6s-4.1-.5-5.9-1.6q-2.55-1.5-4.2-4.2m4.4-5.9c0 1.6.5 2.9 1.6 4s2.4 1.7 4 1.7 2.9-.5 4-1.6 1.7-2.4 1.7-4-.5-2.9-1.6-4-2.4-1.7-4-1.7-2.9.5-4 1.6-1.7 2.4-1.7 4M121.7 181.5c4.7 4.4 10.2 8.1 16.6 11l-5.2 9.5c-3.3-2.4-6.4-4.9-9.1-7.6v19.8H83.9v-22q-5.4 4.5-12 8.7l-2-3.8c5.6-3.7 10.5-8.2 14.6-13.3 1.5-1.8 2.8-3.8 4.1-5.8H72.2v-3.6h18.6c1.3-2.4 2.6-4.8 3.6-7.4h-14v-3.4h15.3c.8-2.3 1.6-4.7 2.2-7.2H78.7v-3.5h20q.6-2.85.9-5.7l9.4.7c-.3 1.7-.6 3.3-.9 5h21.1v3.5h-22c-.7 2.5-1.4 4.9-2.3 7.2h22.6v3.4H111c1.4 2.6 2.9 5.1 4.5 7.4h20.2v3.6h-17.3c1 1.3 2.1 2.4 3.3 3.5m-6.4 16.7v-8.6H92.7v8.6zm-22.6 3.5v8.8h22.6v-8.8zm6.8-27.2h10.1c-1.1-2.3-2.2-4.8-3.1-7.4h-3c-.5 1.1-1 2.1-1.6 3.2-.7 1.4-1.6 2.8-2.4 4.2m-2.4 3.6c-2 2.8-4.1 5.4-6.4 7.8h25.9c-1.8-2.4-3.5-5-5-7.8zm93.4-18h15.3v-4.6h-40.3v4.6h15.3v44.7h-19.2v4.5H209v-4.5h-18.4v-44.7zM160 182.9c-4.1 9.8-9.5 18.1-16.1 24.8l8.2 7.2c2.6-4.6 4.8-9.4 6.8-14.4 1.9-5 3.6-10.2 4.9-15.8zm-12.4-33.6-1.7 3.5c2.7 1.5 5 3.3 7.1 5.4s4 4.7 5.6 7.6l4.9-8.7c-2.2-1.7-4.7-3.1-7.5-4.5s-5.6-2.4-8.4-3.3m2.5 25.3c2 2.3 3.7 4.7 5.1 7.3l5.1-8.9c-2.1-1.6-4.5-3-7.1-4.3s-5.3-2.4-8-3.3l-1.9 3.4c2.6 1.7 4.8 3.6 6.8 5.8m75.5-5.8c-2.5-1.6-5.1-2.9-7.7-4l-2 3.4c2.1 1.5 4.1 3.3 6 5.5q2.85 3.3 4.8 7.2l5.6-7.1c-1.9-1.8-4.2-3.4-6.7-5m1.5-15.3c-2.5-1.8-5.1-3.3-7.7-4.6l-1.9 3.6c2 1.7 3.9 3.6 5.8 6 1.9 2.3 3.5 4.8 4.8 7.4l5.7-6.6c-2-2-4.2-4-6.7-5.8m4 31-3.7-1.3q-3.9 14.85-12 27.3l9 5.8c3.1-9.7 5.4-20.3 6.7-31.8m31-34.4h21.1v58.5q0 2.85-1.5 4.5c-1 1.1-2.5 1.6-4.3 1.6h-6.9l-1.2-4.4h4.1c.8 0 1.4-.3 1.8-.8.4-.6.5-1.4.5-2.7v-17l-3 4.9c-.9-2.9-2.2-5.5-3.6-7.9-.3 5.2-1 10.1-2.3 14.6-1.6 5.6-4.1 10.6-7.6 14.9l-3.4-2.2c2-3.5 3.4-7.5 4.4-11.9H251v13h-8.4v-13H232v-3.9h10.6v-6.9h-8.5v-26.7h8.5V158h-9.9v-3.8h9.9v-6.6h8.4v6.6h9v3.8h-9v6.8h7.6v26.7H251v6.9h9.4v2.9c.1-.3.1-.6.2-.9.9-5.1 1.4-11 1.4-17.6v-32.7zm-11.3 18.1H242v8h8.8zm-8.8 11.4v8.2h8.8v-8.2zm27.2-14 .9-1.3c2.1 1 3.9 2.3 5.6 3.9V154h-6.5zm6.5 21v-15.3l-3 4.9c-1-2.8-2.1-5.3-3.5-7.6V184l.9-1.4c2 1.2 3.9 2.5 5.6 4m30.6 3.7c4.3-6.4 7.3-12.9 8.9-19.7v-4.2h-23.6v4.2h13.7c-.9 6.1-2.8 11.9-5.6 17.4-3 5.7-6.7 10.8-11.2 15.1l2.3 3.6c6-4.6 11.2-10.1 15.5-16.4m29.2-12.4c2.8-1.6 5.6-3.4 8.3-5.4 3.1-2.3 6-4.9 8.5-7.7l-7.7-6.9c-1.9 3.7-4 7.1-6.2 10.1q-2.7 3.6-5.4 6.3c-2.2-3.2-4.1-6.8-5.8-10.5v-16h-9v57.9q0 1.95-.9 3c-.6.7-1.5 1-2.8 1h-7.1l1 4h12.8c1.9 0 3.4-.5 4.4-1.7 1-1.1 1.5-2.8 1.5-4.9v-34.7c2.2 5.8 4.8 11.1 7.8 16.1 4 6.7 8.7 12.8 14.2 18.3l8.1-9.3c-4.9-3.6-9.2-7-12.9-10.3-3.2-2.8-6.1-5.9-8.8-9.3m65.1 14.4V186h-14.8v-22.7h14.8v-5.7h-16.4v-3.5h16.4v-5.3h9v5.3h16.2v3.5h-16.2v5.7H424V186h-14.4v6.3h16.9v3.9h-16.9v7h-9v-7h-17.1v-3.9zm15.5-16.2h-6.5v6.6h6.5zm-6.5-9.4v6.4h6.5v-6.4zm-9 0h-6.9v6.4h6.9zm0 16v-6.6h-6.9v6.6zm-23.4-18 5.8-7.1c-1.7-1.7-3.9-3.3-6.4-4.9s-5.2-2.9-8-4.1l-2.3 3c2.3 1.9 4.3 3.9 6.2 6.1s3.4 4.5 4.7 7m-13.9.4c2.3 1.8 4.4 3.9 6.4 6.2s3.7 4.7 5.1 7.1l5.7-7.4c-1.8-1.7-4-3.3-6.6-4.9s-5.4-2.9-8.3-4.1zm22.3 38.7c-2-.8-3.8-1.8-5.4-3.2v-19.3h-16.9v4.2h7.9v14.8c-1.4 1-2.8 2.2-4.2 3.7-1.7 1.7-3.4 3.5-4.8 5.4l7.6 6c1-2.4 2.1-4.8 3.5-7.1.7-1.3 1.4-2.4 2.2-3.5 1.7 2.7 3.8 4.8 6.2 6.4 3.3 2.1 7.1 3.1 11.5 3.1h32.5l2-9h-33.1q-5.4-.15-9-1.5m112-21.7h4.7v4.1h-4.9l-.6 15.1h4.6v3.6h-4.8l-.2 4.8c0 1.7-.6 3.1-1.7 3.9-1.1.9-2.5 1.3-4.2 1.3h-15l-1-3.4h11.1q1.2 0 1.8-.6c.4-.4.6-.9.7-1.7l.2-4.3h-33.5l.1-3.6c1.4-4.8 2.7-9.8 3.8-15.1h-5.8v-4.1h6.6c1.1-6 1.9-11.9 2.4-17.5h36.5zm-7.9-14.1h-6.6q-.3 7.5-.9 14.1h7zm-22 14.1h7c.4-4.4.6-9.1.8-14.1h-5.9c-.5 4.6-1.1 9.3-1.9 14.1m-.8 4.1c-1 5.2-2.1 10.3-3.3 15.1h8.5c.9-5 1.6-10 2.1-15.1zm22.1 0h-7.2c-.5 5.1-1.1 10.1-2 15.1h8.6zm-38.2-1.4-4-1.2c-2.8 10.5-6.7 19.4-11.9 26.9l9.1 5.5c3.2-9 5.5-19.4 6.8-31.2m-12.2-36.2-1.9 3.6c2.3 1.7 4.4 3.6 6.4 6 1.9 2.3 3.6 4.8 4.9 7.5l5.9-7.6c-2.1-1.9-4.5-3.7-7.1-5.3s-5.5-3-8.2-4.2m2.9 25.7c1.9 2.3 3.7 4.8 5.2 7.4l5.5-7.7c-2.1-1.8-4.5-3.6-7.1-5.1-2.6-1.6-5.3-2.9-8.2-4.1l-2 3.4c2.4 1.8 4.6 3.8 6.6 6.1m9.8-4.5 3.4 2.3c3.6-3.2 6.7-6.8 9.2-10.6.8-1.2 1.5-2.4 2.1-3.7h34.9v-3.7h-33.1c.7-1.6 1.3-3.3 1.9-5l-10.2-1.7c-.6 4.2-1.6 8.2-2.8 11.9-1.4 3.7-3.1 7.2-5.4 10.5m81.3-5-9.3-4.5c-.8 3.4-1.9 6.6-3.3 9.8s-3 6-4.7 8.6l3.8 1.7c3-2.2 5.6-4.7 8-7.4 2.3-2.7 4.2-5.4 5.5-8.2m18.4-2.5c3.4 5.2 6 11.1 7.7 17.8l8.8-5.8c-2.9-5.2-7.3-9.9-13.1-13.9zm-4.6-6.2h24.2v-4h-57.5v4h24.2v28.4h-28v4.2h28v26.1h9v-26.1h28v-4.2h-28v-28.4zm62.2 16.2v11.9h4.3c-.1 1.2-.2 2.3-.5 3.4-.3 1.4-.7 2.7-1.3 3.9s-1.3 2.4-2.1 3.5l2.7 1.7c3.5-3 5.9-6.3 7.4-10s2.2-8.5 2.2-14.5h-12.7zm61.7-2.5 3.4 2.3c3.6-3.2 6.7-6.8 9.2-10.6.8-1.2 1.5-2.4 2.1-3.7h34.9v-3.7h-33.1c.7-1.6 1.3-3.3 1.9-5l-10.2-1.7c-.6 4.2-1.6 8.2-2.8 11.9q-2.1 5.55-5.4 10.5m46.2 12.3h4.7v4.1h-4.9l-.6 15.1h4.6v3.6h-4.8l-.2 4.8c0 1.7-.6 3.1-1.7 3.9-1.1.9-2.5 1.3-4.2 1.3h-15l-1-3.4h11.1q1.2 0 1.8-.6c.4-.4.6-.9.7-1.7l.2-4.3h-33.5l.1-3.6c1.4-4.8 2.7-9.8 3.8-15.1h-5.8v-4.1h6.6c1.1-6 1.9-11.9 2.4-17.5h36.5zm-7.9-14.1H702q-.3 7.5-.9 14.1h7zm-22 14.1h7c.4-4.4.6-9.1.8-14.1h-5.9c-.4 4.6-1.1 9.3-1.9 14.1m-.7 4.1c-1 5.2-2.1 10.3-3.3 15.1h8.5c.9-5 1.6-10 2.1-15.1zm22.1 0h-7.2c-.5 5.1-1.1 10.1-2 15.1h8.6zm-47.6-11.9c1.9 2.3 3.7 4.8 5.2 7.4l5.5-7.7c-2.1-1.8-4.5-3.6-7.1-5.1-2.6-1.6-5.3-2.9-8.2-4.1l-2 3.4c2.5 1.8 4.7 3.8 6.6 6.1m-2.9-25.7-1.9 3.6c2.3 1.7 4.4 3.6 6.4 6 1.9 2.3 3.6 4.8 4.9 7.5l5.9-7.6c-2.2-1.9-4.5-3.7-7.2-5.3q-3.9-2.4-8.1-4.2m12.2 36.2-4-1.2c-2.8 10.5-6.7 19.4-11.9 26.9l9.1 5.5c3.3-9 5.5-19.4 6.8-31.2m92.7-8.2h22.8v-4.3h-22.8v-23.9h-9.7v58.8h-24.3v4.4h64.7v-4.4h-30.7zm67.2 24.6h-26.8v-48h26.8zm-8.7-26.3v-17.8h-9.5v17.8zm-9.5 3.9v18.3h9.5v-18.3zm23-28.1h30.3v55.7c0 2.8-.6 4.8-1.9 6.2-1.2 1.3-3.2 2-5.9 2h-8.8l-.9-4.4h5q1.95 0 2.7-1.2c.5-.8.8-2.1.8-3.9v-13.2h-13.3c-.6 2.8-1.4 5.4-2.5 8-2.4 5.6-6.2 10.7-11.5 15.3l-2.8-3.9c3.3-3.6 5.5-7.8 6.9-12.6 1.3-4.8 2-10.4 2-16.9v-31.1zm21.3 37.5v-15h-12.2v8c0 2.4-.2 4.8-.5 7.1h12.7zm0-18.9v-14.7h-12.2v14.7zm76.2-18.6v55.1c0 2.9-.6 5.1-1.9 6.4-1.3 1.4-3.1 2-5.5 2h-11.9l-1-4.5h7.4q1.95 0 2.7-1.2c.6-.8.8-2.1.8-3.9v-13.1h-28.8c-.6 3.1-1.5 6-2.7 8.8q-3.6 8.25-11.4 15l-2.8-4c3.2-3.5 5.4-7.7 6.6-12.5s1.9-10.5 1.9-17.1v-30.9h46.6zm-9.4 4h-27.9v14.1h27.9zm0 32.6V173h-27.9v8.2c0 2.1-.1 4.1-.3 6.1zm42.4 20.1q5.1-4.65 9.3-10.5l-9.6-4.2c-1.6 3.9-3.6 7.5-5.9 10.7-2.3 3.3-5.2 6.3-8.6 9l2.8 3.4q6.9-3.75 12-8.4m34.5 8.5 9.3-5.5c-2.4-3.3-5.1-6.4-8-9.4s-6.1-5.7-9.6-8.4l-3.6 2c2.5 3.4 4.8 6.8 6.8 10.3 2.1 3.6 3.8 7.3 5.1 11m-3.1-30h16.6v4.2h-66.4v-4.2h16.6v-17.1h-12.3v-4.2h12.3v-15.8h9v15.8h15v-15.8h9v15.8h12.3v4.2h-12.3v17.1zm-24.1 0h15v-17.1h-15zm56.1-17.1c-2.5-1.6-5.1-2.9-7.7-4l-2 3.4c2.1 1.5 4.1 3.3 6 5.5q2.85 3.3 4.8 7.2l5.6-7.1c-1.9-1.8-4.1-3.4-6.7-5m5.6 15.7-3.7-1.3q-3.9 14.85-12 27.3l9 5.8c3.1-9.7 5.3-20.3 6.7-31.8m-4.1-31c-2.5-1.8-5.1-3.3-7.7-4.6l-1.9 3.6c2 1.7 3.9 3.6 5.8 6 1.9 2.3 3.5 4.8 4.8 7.4l5.7-6.6c-1.9-2-4.2-4-6.7-5.8m35-3.4h21.1v58.5q0 2.85-1.5 4.5c-1 1.1-2.5 1.6-4.3 1.6h-6.9l-1.2-4.4h4.1c.8 0 1.4-.3 1.8-.8.4-.6.5-1.4.5-2.7v-17l-3 4.9c-.9-2.9-2.2-5.5-3.6-7.9-.3 5.2-1 10.1-2.3 14.6-1.6 5.6-4.1 10.6-7.6 14.9l-3.4-2.2c2-3.5 3.4-7.5 4.4-11.9h-9.2v13h-8.4v-13h-10.6v-3.9h10.6v-6.9h-8.5v-26.7h8.5V158h-9.9v-3.8h9.9v-6.6h8.4v6.6h9v3.8h-9v6.8h7.6v26.7h-7.6v6.9h9.4v2.9c.1-.3.1-.6.2-.9.9-5.1 1.4-11 1.4-17.6v-32.7zm-11.2 18.1h-8.8v8h8.8zm-8.9 11.4v8.2h8.8v-8.2zm27.3-14 .9-1.3c2.1 1 3.9 2.3 5.6 3.9V154h-6.5zm6.5 21v-15.3l-3 4.9c-1-2.8-2.1-5.3-3.5-7.6V184l.9-1.4c2 1.2 3.9 2.5 5.6 4m52 .9h18.4v-4.2h-18.4v-17.5h22v-4.2h-22v-13h-9.6v13h-11.3c1.2-2.8 2.2-5.8 3.1-8.9l-10.9-2.2c-.5 5.2-1.6 10.2-3.3 14.9s-3.9 9.2-6.6 13.4l3.3 3.1c4.4-3.9 8-8.2 10.8-13 .6-1 1.1-2 1.7-3.1h13.3v17.5h-16.7v4.2h16.7v19.8h-27.7v4.3h65.1v-4.3h-27.7v-19.8zm78.1-11.4q1.5 2.55 1.5 5.7c0 2-.5 4.1-1.6 5.8-1 1.7-2.4 3.1-4.2 4.1q-2.55 1.5-5.7 1.5c-3.15 0-4.1-.5-5.8-1.6-1.7-1-3.1-2.4-4.1-4.2q-1.5-2.55-1.5-5.7c0-2 .5-4.1 1.6-5.8 1-1.7 2.4-3.1 4.2-4.1q2.55-1.5 5.7-1.5c3.15 0 4.1.5 5.8 1.6 1.7 1 3.1 2.4 4.1 4.2m-3.8 5.6c0-1.7-.6-3.1-1.7-4.3-1.2-1.2-2.6-1.8-4.4-1.8-1.7 0-3.1.6-4.3 1.7-1.2 1.2-1.8 2.6-1.8 4.4 0 1.7.6 3.1 1.7 4.3 1.2 1.2 2.6 1.8 4.4 1.8 1.7 0 3.1-.6 4.3-1.7s1.8-2.6 1.8-4.4M121.3 267c4.7 4.6 10.3 8.5 16.8 11.6l-4.5 8.3c-3.7-2.6-7.1-5.4-10.1-8.4v20.8h-39v-22.6q-5.55 4.8-12.6 9.3l-1.7-3.4c5.7-3.7 10.7-8.2 14.9-13.3q2.4-3 4.5-6.3H72.5v-3.1h19c1.4-2.4 2.6-4.9 3.7-7.5 0-.1.1-.2.1-.3H80.7v-2.9h15.6c.9-2.5 1.6-5 2.3-7.6H78.9v-3.1h20.3c.4-2 .8-3.9 1-6l8.2.8c-.3 1.8-.6 3.5-1 5.2H129v3.1h-22.2c-.7 2.6-1.5 5.2-2.5 7.6h22.9v2.9h-16.8c1.4 2.8 3 5.4 4.7 7.8h20.3v3.1h-17.9c1.3 1.4 2.5 2.7 3.8 4m-5.4 16.6v-9.1H92.1v9.1zm-23.8 3.1v9.3h23.8v-9.3zm6.9-26.9h11c-1.2-2.5-2.4-5.1-3.4-7.8h-3.4c-.5 1.1-1 2.2-1.5 3.2-1 1.6-1.8 3.1-2.7 4.6m-2.1 3.2c-2 3-4.3 5.7-6.7 8.3H117c-2-2.6-3.8-5.4-5.4-8.3zm50.8-28.4-1.5 3.1c2.7 1.5 5 3.3 7.1 5.4s4 4.6 5.7 7.6l4.3-7.7c-2.1-1.7-4.6-3.3-7.3-4.7-2.7-1.6-5.5-2.8-8.3-3.7m8 32.2 4.6-7.8c-2.1-1.7-4.5-3.2-7.1-4.6s-5.3-2.6-8-3.5l-1.6 3.1c2.4 1.6 4.7 3.4 6.8 5.7 2.1 2.1 3.8 4.5 5.3 7.1m34.2-22h15.7v-3.9h-39.8v3.9h15.7v45.7h-19.7v3.9h47.1v-3.9h-19zM160 268.2c-4 9.9-9.3 18.2-15.8 25.1l7.2 6.5c2.7-4.6 5.1-9.4 7-14.4s3.6-10.2 5-15.6zm71 1.4-3.3-1.2c-2.6 10-6.6 19.3-12 27.8l7.7 5c3.6-9.7 6.1-20.3 7.6-31.6m-4.2-30.7c-2.5-1.9-5-3.4-7.5-4.6l-1.7 3.1c2.1 1.6 4.1 3.6 5.9 5.8 1.9 2.3 3.5 4.7 4.9 7.4l5-5.8c-1.9-2-4.1-4-6.6-5.9m56-3.5v58.4c0 1.9-.5 3.4-1.5 4.4s-2.4 1.6-4.1 1.6h-6.8l-1-3.8h4.3c1 0 1.7-.3 2-.9s.6-1.6.6-2.8v-17.7l-3.1 5.1c-1.2-3.3-2.8-6.1-4.6-8.7-.2 5.6-.9 10.7-2.2 15.4-1.5 5.6-4 10.6-7.3 14.9l-3-1.9c2.3-4.1 4-8.8 5-14.1s1.5-11.2 1.5-17.8v-32h20.2zm-14.1 16 1.3-2c2.4 1.4 4.5 3 6.4 4.8v-15.6h-7.7zm7.6 21.5v-17.1l-3.1 5.1q-1.8-4.8-4.5-8.4v15.2c0 .8 0 1.6-.1 2.4l1.3-2c2.4 1.3 4.5 2.9 6.4 4.8m-58.5-22.7-1.7 3.1c2.1 1.5 4.1 3.3 5.9 5.5 1.8 2.1 3.5 4.5 4.9 6.9l5-6.1c-1.9-1.8-4.1-3.6-6.6-5.2q-3.75-2.55-7.5-4.2m32.8-17.5v6.9h9.6v3.3h-9.6v7.2h7.9v26.3h-7.9v7.3h9.9v3.4h-9.9v13.1h-7.3v-13.1H232v-3.4h11.3v-7.3h-8.7v-26.3h8.7V243h-10.5v-3.3h10.5v-6.9h7.3zm1.1 31.9h-10.4v8.7h10.4zm0-11.4h-10.4v8.5h10.4zm83.2 9.8c3-1.7 5.8-3.6 8.5-5.6 3.1-2.4 5.9-5 8.5-7.7l-6.7-6.1c-2.1 3.6-4.2 6.9-6.5 9.9-1.9 2.5-3.9 4.7-5.9 6.6-2.3-3.4-4.4-7-6.1-10.9V233h-7.9v58.2c0 1.4-.3 2.4-.9 3.1s-1.5 1-2.8 1h-7.4l.9 3.4h12.3c1.8 0 3.3-.5 4.2-1.6 1-1.1 1.5-2.6 1.5-4.7v-36.1c2.4 6.2 5.2 12 8.5 17.3 4.1 6.6 9 12.6 14.6 18l7.2-8.2c-4.9-3.6-9.2-7-12.9-10.5-3.3-2.9-6.3-6.3-9.1-9.9m-28.8 12.2c4.3-6.4 7.3-13 9-19.9v-3.6h-23.3v3.6h14.7c-1.1 6.4-3.1 12.4-6.1 17.9-3.1 5.8-7.1 10.8-11.8 15.1l2 3.2c6.1-4.5 11.2-9.9 15.5-16.3m79.2 14.4q-3.3-1.35-5.7-3.9v-19.3h-16.1v3.6h8.2v15.4q-2.25 1.65-4.5 3.9c-1.8 1.8-3.4 3.6-4.9 5.6l6.6 5.3c1-2.4 2.3-4.7 3.8-7.1.9-1.4 1.8-2.7 2.7-3.8 1.7 2.9 3.8 5.1 6.4 6.8 3.2 2.1 7 3.1 11.3 3.1h32.7l1.7-7.9h-33.2c-3.5-.1-6.5-.6-9-1.7M363.6 250c2.3 1.8 4.5 3.8 6.5 6.1s3.7 4.6 5.2 7l5-6.5c-1.7-1.8-3.9-3.5-6.5-5.1s-5.3-3.1-8.2-4.3zm37.5 28v-6.6h-15v-22.6h15v-6.1h-16.9v-3.1h16.9v-5.4h7.9v5.4h16.7v3.1H409v6.1h14.6v22.6H409v6.6h17.4v3.4H409v7.6h-7.9v-7.6h-17.6V278zm15.6-16.9H409v7.3h7.7zm-7.7-9.5v7h7.7v-7zm-7.9 0H393v7h8.1zm0 16.8v-7.3H393v7.3zm-28.3-25.8c1.9 2.2 3.4 4.5 4.7 6.8l5-6.1c-1.7-1.8-3.7-3.5-6.1-5.1s-5-3.1-7.7-4.5l-2 2.8c2.2 1.9 4.3 3.9 6.1 6.1m87.4-9.9c-.5 4.1-1.5 8-2.8 11.7-1.4 3.7-3.2 7.2-5.5 10.4l2.8 2.2c3.6-3.2 6.5-6.7 8.9-10.6.8-1.2 1.5-2.5 2.1-3.8h34.8v-3.3h-33.3c.7-1.7 1.4-3.5 1.9-5.3zm-9.5 37.4-3.5-1.2q-4.2 15.6-12 27l8 5c3.4-9.1 5.9-19.4 7.5-30.8M438.9 234l-1.7 3c2.3 1.7 4.5 3.8 6.4 6.1s3.6 4.8 5 7.4l5.2-6.6c-2.1-2-4.4-3.8-7-5.5-2.6-1.8-5.2-3.2-7.9-4.4m-2 16.3-1.7 2.8c2.4 1.8 4.6 3.8 6.6 6.1 2 2.2 3.7 4.7 5.1 7.3l5-6.7c-2.1-1.9-4.3-3.6-6.9-5.3q-3.75-2.4-8.1-4.2m60.2 17.2h5v3.5H497l-.6 15.8h4.9v3.1h-5l-.2 5c0 1.7-.5 3-1.5 3.8q-1.5 1.2-3.9 1.2H476l-.9-3H486c.9 0 1.6-.2 2-.6.5-.4.7-1.1.7-1.9l.2-4.5h-33.8l.1-3.1c1.5-5 2.8-10.2 3.9-15.8H453v-3.5h6.8c1.1-6.1 1.9-12 2.5-17.7h35.5zm-6.8-14.6h-7.6c-.2 5.2-.5 10-.8 14.7h7.9zM467 267.5h8.2q.6-6.9.9-14.7h-7c-.6 4.9-1.3 9.7-2.1 14.7m-.6 3.5c-1 5.5-2.2 10.8-3.6 15.8h9.9c.9-5.2 1.6-10.4 2.1-15.8zm23.2 0h-8.1c-.5 5.4-1.2 10.6-2.1 15.8h9.5zm37.2-13.1c2.3-2.8 4.2-5.6 5.5-8.5l-8-4q-1.5 4.95-3.6 9.9c-1.5 3.2-3.1 6.1-4.9 8.7l3.3 1.5c2.8-2.2 5.4-4.8 7.7-7.6m24.3-10.6q0-.15 0 0m-5.3-6.5h24.4v-3.4h-56.6v3.4H538V270h-28.4v3.6H538v26.3h7.9v-26.3h28.4V270h-28.4v-29.2zm5.3 6.5c3.6 5.2 6.4 11.2 8.2 18l7.6-5.1c-2.8-5.4-7.1-10.3-12.8-14.5zm58.3 21.6h4c-.1 1.2-.2 2.3-.5 3.3-.3 1.5-.9 2.9-1.5 4.3-.7 1.3-1.6 2.6-2.6 3.8l2.3 1.5c3.5-2.8 6-6.1 7.5-9.7 1.5-3.7 2.2-8.5 2.2-14.6h-11.4zm69.7-36.2c-.5 4.1-1.5 8-2.8 11.7-1.4 3.7-3.2 7.2-5.5 10.4l2.8 2.2c3.6-3.2 6.5-6.7 8.9-10.6.8-1.2 1.5-2.5 2.1-3.8h34.8v-3.3h-33.3c.7-1.7 1.4-3.5 1.9-5.3zm36.9 34.8h5v3.5h-5.2l-.6 15.8h4.9v3.1h-5l-.2 5c0 1.7-.5 3-1.5 3.8q-1.5 1.2-3.9 1.2h-14.7l-.9-3h10.9c.9 0 1.6-.2 2-.6.5-.4.7-1.1.7-1.9l.2-4.5H674l.1-3.1c1.5-5 2.8-10.2 3.9-15.8h-6.1v-3.5h6.8c1.1-6.1 1.9-12 2.5-17.7h35.5zm-6.8-14.6h-7.6c-.2 5.2-.5 10-.8 14.7h7.9zm-23.3 14.6h8.2q.6-6.9.9-14.7h-7c-.5 4.9-1.2 9.7-2.1 14.7m-.6 3.5c-1 5.5-2.2 10.8-3.6 15.8h9.9c.9-5.2 1.6-10.4 2.1-15.8zm23.2 0h-8.1c-.5 5.4-1.2 10.6-2.1 15.8h9.6zm-42.6-4.5 5-6.7c-2.1-1.9-4.3-3.6-6.9-5.3-2.6-1.6-5.3-3.1-8.1-4.2l-1.7 2.8c2.4 1.8 4.6 3.8 6.6 6.1s3.7 4.7 5.1 7.3m-8.1-32.5-1.7 3c2.3 1.7 4.5 3.8 6.4 6.1s3.6 4.8 5 7.4l5.2-6.6c-2.1-2-4.4-3.8-7-5.5-2.6-1.8-5.2-3.2-7.9-4.4m11.8 36.1-3.5-1.2q-4.2 15.6-12 27l8 5c3.5-9.1 6-19.4 7.5-30.8m92.1-8.6H785v-3.7h-23.3v-24.1h-8.4v59.2h-24.7v3.8h64.2v-3.8h-31.2v-31.4zm72.9-25.4h29.7V292c0 2.6-.6 4.6-1.7 5.8-1.2 1.3-3 1.9-5.6 1.9h-8.7l-.8-3.8h5.3c1.4 0 2.3-.4 2.9-1.2s.8-2.1.8-3.9v-13.7h-15c-.6 2.7-1.4 5.4-2.4 7.9-2.3 5.7-6 10.9-10.9 15.5l-2.3-3.3c3.2-3.8 5.5-8.1 6.9-13.1 1.4-4.9 2.1-10.7 2.1-17.3v-30.7zm21.8 37.6v-15.6h-13.9v7.8c0 2.7-.2 5.3-.5 7.8zm0-18.9v-15.3h-13.9v15.3zm-27.2 31.5H803v-47.8h26.1v47.8zm-7.6-26v-18.5h-10.9v18.5zm-11 3.4v19.1h10.9v-19.1zm75.2-27.6h45.5v55.2c0 2.7-.6 4.7-1.7 6-1.2 1.3-2.9 1.9-5.3 1.9h-11.4l-.9-3.8h7.4c1.3 0 2.2-.4 2.8-1.3s.9-2.2.9-4v-13.8h-30.2c-.6 3.3-1.5 6.3-2.7 9.2-2.3 5.5-6 10.4-11 14.7l-2.4-3.4c3.2-3.6 5.5-7.9 6.8-12.7s2-10.5 2-17.1v-30.9zm37.4 36.6v-14.9h-29.3v8.8c0 2.1-.1 4.1-.3 6.1zm0-18.4v-14.7h-29.3v14.7zm72.5 17h17v3.6h-66v-3.6h17v-17.7h-12.6V250h12.6v-16h7.9v16h16.2v-16h7.9v16h12.6v3.6h-12.6zm-24.1 0h16.2v-17.7h-16.2zm2.4 10.2-8.5-3.6c-1.7 3.9-3.7 7.5-6.2 10.8-2.5 3.2-5.5 6.3-9 9.2l2.3 2.9c4.6-2.6 8.7-5.4 12.1-8.5 3.5-3.3 6.6-6.8 9.3-10.8m26.3 19.4 8.2-4.9c-2.4-3.4-5.1-6.6-8.1-9.7s-6.2-5.9-9.7-8.5l-3.1 1.8c2.8 3.3 5.3 6.8 7.4 10.2 2 3.6 3.8 7.3 5.3 11.1m20.3-50.7-1.7 3.1c2.1 1.5 4.1 3.3 5.9 5.5 1.8 2.1 3.5 4.5 4.9 6.9l5-6.1c-1.9-1.8-4.1-3.6-6.6-5.2-2.6-1.7-5-3.1-7.5-4.2m13.2 19.4-3.3-1.2c-2.6 10-6.6 19.3-12 27.8l7.7 5c3.5-9.7 6-20.3 7.6-31.6m-4.2-30.7c-2.5-1.9-5-3.4-7.5-4.6l-1.7 3.1c2.1 1.6 4.1 3.5 5.9 5.8 1.9 2.3 3.5 4.7 4.9 7.4l5-5.8c-2-2-4.1-4-6.6-5.9m56-3.5v58.4c0 1.9-.5 3.4-1.5 4.4s-2.4 1.6-4.1 1.6h-6.8l-1-3.8h4.3c1 0 1.7-.3 2-.9s.6-1.6.6-2.8v-17.7l-3.1 5.1c-1.2-3.3-2.8-6.1-4.6-8.7-.2 5.6-.9 10.7-2.2 15.4-1.5 5.6-4 10.6-7.3 14.9l-3-1.9c2.3-4.1 4-8.8 5-14.1s1.5-11.2 1.5-17.8v-32h20.2zm-14.2 16 1.3-2c2.4 1.4 4.5 3 6.4 4.8v-15.6h-7.7zm7.7 21.5v-17.1l-3.1 5.1q-1.8-4.8-4.5-8.4v15.2c0 .8 0 1.6-.1 2.4l1.3-2c2.4 1.3 4.5 2.9 6.4 4.8m-25.8-40.2v6.9h9.6v3.3h-9.6v7.2h7.9v26.3h-7.9v7.3h9.9v3.4h-9.9v13.1h-7.3v-13.1h-11.2v-3.4h11.2v-7.3h-8.7v-26.3h8.7V243h-10.5v-3.3h10.5v-6.9h7.3zm1.1 31.9H1044v8.7h10.4zm0-11.4H1044v8.5h10.4zm75.5 19.2h18.8v-3.6h-18.8v-18.1h22.4v-3.6h-22.4V234h-8.5v13.1h-12.7c1.2-2.9 2.3-6 3.1-9.3l-9.6-2c-.5 5.2-1.7 10.1-3.4 14.8s-4 9.2-7 13.6l2.8 2.7c4.3-3.9 7.9-8.2 10.7-13 .6-1 1.2-2.1 1.7-3.2h14.3v18.1h-17.4v3.6h17.4v20.5h-28.1v3.7h64.7v-3.7h-28.1v-20.5zm78.5-11.2q1.5 2.55 1.5 5.7c0 2.1-.5 3.9-1.5 5.7-1 1.7-2.3 3.1-4 4.1q-2.55 1.5-5.7 1.5c-2.1 0-3.9-.5-5.7-1.5-1.7-1-3.1-2.3-4.1-4s-1.5-3.6-1.5-5.7.5-3.9 1.5-5.7c1-1.7 2.3-3.1 4-4.1q2.55-1.5 5.7-1.5c3.15 0 3.9.5 5.7 1.5 1.7 1 3.1 2.3 4.1 4m-3.1 5.7c0-1.9-.6-3.4-1.9-4.7s-2.8-1.9-4.7-1.9-3.4.6-4.7 1.9-1.9 2.8-1.9 4.7.6 3.4 1.9 4.7 2.8 1.9 4.7 1.9 3.4-.6 4.7-1.9 1.9-2.8 1.9-4.7M120.8 352.5c4.7 4.8 10.3 8.8 16.9 12.1l-4 7c-4-2.8-7.5-5.7-10.7-8.9v21.6H85v-23.2c-3.8 3.4-8.1 6.7-12.9 9.8l-1.5-2.8q8.7-5.7 15-13.5c1.7-2.2 3.3-4.4 4.8-6.8H72.6v-2.7h19.3c1.4-2.4 2.6-4.9 3.7-7.5.1-.2.2-.5.3-.8h-15v-2.6h15.9c.9-2.6 1.7-5.2 2.4-8h-20v-2.6h20.7c.4-2 .8-4 1.1-6.1l6.9.6c-.3 1.9-.6 3.7-1 5.5h21.8v2.6h-22.5c-.7 2.8-1.6 5.4-2.5 8H127v2.6h-17c1.4 2.9 3 5.7 4.8 8.2h20.6v2.7h-18.5q1.8 2.7 3.9 4.8m-22.4-7.3h11.9c-1.3-2.6-2.6-5.4-3.6-8.2h-4c-.5 1.1-1 2.2-1.5 3.2-.9 1.7-1.8 3.3-2.8 5m-1.8 2.7q-3.15 4.65-6.9 8.7h27.8c-.1-.1-.2-.2-.2-.3-2-2.6-3.8-5.4-5.5-8.4zm19.9 21.1v-9.7h-25v9.7zm-25 2.6v9.9h25v-9.9zm64.5-48c-2.7-1.5-5.4-2.8-8.3-3.8l-1.1 2.7c2.6 1.5 5 3.2 7.1 5.3s4 4.5 5.6 7.3l3.7-6.6c-2-1.8-4.3-3.4-7-4.9m4.2 29.7c-3.9 10-9.1 18.5-15.5 25.6l6.2 5.5c2.8-4.7 5.2-9.4 7.1-14.3s3.7-10 5-15.3zm-4.2-1.8 3.9-6.8c-2-1.7-4.3-3.2-6.9-4.7s-5.2-2.7-7.9-3.8l-1.2 2.7c2.4 1.5 4.7 3.3 6.8 5.5s3.9 4.6 5.3 7.1m33.3-22h16.1v-3.4h-39.3v3.4h16.1V376H162v3.3h46.9V376h-19.5v-46.5zm84.4 34.9 3.1-5.2c-2.1-2.3-4.4-4.3-6.9-5.8l-1.4 2c2.1 2.7 3.8 5.6 5.2 9m3.1-23.9q-3-3.45-6.9-5.7l-1.4 2c2.1 2.5 3.8 5.5 5.2 8.9zm-13.9-19.9V352c0 6.7-.5 12.7-1.5 18.1-1 5.3-2.7 10.1-5 14.4l2.4 1.6q4.95-6.6 7.2-15c1.5-5.6 2.2-11.9 2.2-18.7v-29h8.7v54.2c0 1.4-.2 2.4-.7 3q-.6.9-2.1.9h-4.5l.8 3.2h6.6c1.7 0 3.1-.5 4-1.5 1-1 1.4-2.4 1.4-4.3v-58.4h-19.5zM231 354.7l-2.8-1.1c-2.6 10.1-6.6 19.4-12 28.1l6.7 4.4c3.7-9.9 6.4-20.3 8.1-31.4m-4.3-30.4c-2.4-1.9-4.8-3.4-7.3-4.7l-1.4 2.8c2 1.6 4 3.5 5.9 5.8s3.5 4.6 4.9 7.1l4.3-4.8c-1.9-2.3-4-4.3-6.4-6.2m23.5 3.6v7.6h8.2v26h-8.2v7.7h10.4v2.8h-10.4v13.4H244V372h-12v-2.8h12v-7.7h-9v-26h9v-7.6h-11.1v-2.8H244v-7.3h6.2v7.3h10.2v2.8zm2.4 21.7h-11.9v9.3h11.9zm0-11.5h-11.9v9h11.9zm-30.4 5.5q2.85 3.15 4.8 6.9l4.3-5.3c-1.8-1.9-3.9-3.6-6.3-5.3-2.4-1.6-4.8-3.1-7.3-4.2l-1.5 2.6c2.1 1.4 4.1 3.2 6 5.3m.7 42.5q-.15 0 0 0m111.5-37.7c3-1.8 5.8-3.8 8.5-6 3.1-2.5 5.8-5.1 8.3-8l-5.7-5.3q-3.15 5.4-6.6 9.9c-2 2.6-4.2 4.8-6.5 6.7-2.5-3.5-4.6-7.4-6.5-11.5v-16.1h-6.6v58.3q0 2.25-.9 3.3c-.6.7-1.6 1-2.9 1h-7.4l.7 3h11.8c1.8 0 3.1-.5 4-1.6.9-1 1.4-2.5 1.4-4.5V340c2.6 6.7 5.7 12.9 9.4 18.5 4.3 6.5 9.3 12.5 15.1 18l6.3-7.1c-5-3.6-9.3-7.1-13-10.6-3.4-3.1-6.5-6.6-9.4-10.4M306 360.3c4.3-6.4 7.3-13 9.1-20v-3.1h-23v3.1h15.6c-1.2 6.6-3.4 12.7-6.5 18.4-3.3 5.8-7.4 10.8-12.4 15l1.7 2.9c6-4.6 11.2-10 15.5-16.3m57.9-25.3c2.3 1.7 4.5 3.7 6.5 5.9s3.7 4.4 5.2 6.8l4.3-5.5c-1.7-1.8-3.9-3.6-6.4-5.2s-5.2-3.1-8-4.3zm21.1 40.5c-2.3-1-4.2-2.6-5.9-4.6v-19.4h-15.5v3.1h8.8v16c-1.6 1.2-3.2 2.6-4.9 4.1-1.9 1.8-3.5 3.7-4.9 5.8l5.5 4.4c1.1-2.3 2.4-4.7 4-6.9 1.1-1.5 2.1-2.9 3.2-4.1 1.7 3 3.9 5.4 6.5 7.1 3.1 2 6.9 3 11.2 3h33l1.5-6.6h-33.3c-3.6-.2-6.7-.8-9.2-1.9m16.7-11.8v-7.2h-15.2V334h15.2v-6.5h-17.4v-2.7h17.4v-5.5h6.6v5.5h17.3v2.7h-17.3v6.5h14.9v22.5h-14.9v7.2h18v2.8h-18v8h-6.6v-8h-18v-2.8zm15.7-17.4h-9.1v7.7h9.1zm-9-9.7v7.6h9.1v-7.6zm-6.7 0h-9.4v7.6h9.4zm0 17.5v-7.7h-9.4v7.7zm-28.6-26.6c1.8 2.2 3.4 4.4 4.8 6.8l4.3-5.2c-1.7-1.9-3.7-3.6-6-5.3-2.4-1.7-4.8-3.1-7.4-4.4l-1.7 2.3c2.1 1.7 4.2 3.6 6 5.8m66.1-8.2-1.5 2.6c2.4 1.6 4.5 3.6 6.5 5.9 1.9 2.3 3.6 4.7 4.9 7.3l4.6-5.5c-1.9-2.1-4.2-4-6.7-5.7-2.6-1.8-5.2-3.3-7.8-4.6m3 24.9c2 2.2 3.7 4.6 5.2 7.1l4.3-5.6c-1.9-1.9-4.2-3.8-6.7-5.4-2.5-1.7-5.2-3.1-7.9-4.3l-1.5 2.5c2.3 1.5 4.6 3.5 6.6 5.7m8.4 11.2-3-1c-2.8 10.2-6.8 19.2-12 27.1l6.9 4.2q5.55-13.65 8.1-30.3m46-2.4h5.4v2.9h-5.5l-.6 16.4h5.1v2.7h-5.2l-.2 5.1c0 1.7-.5 2.9-1.4 3.7s-2.1 1.2-3.7 1.2h-13.9l-.7-2.6h10.5c1.1 0 1.9-.2 2.3-.7.5-.5.7-1.2.7-2.3l.2-4.5h-34.1l.1-2.7c1.6-5.1 2.9-10.6 4.1-16.4h-6.5V353h7.1c1.1-6 1.9-11.9 2.5-17.7v-.1h34.6zm-5.7-15.3h-8.7q-.3 8.1-.9 15.3h9zM466.3 353h9.3c.4-4.8.7-9.9 1-15.3h-8.1c-.6 5-1.3 10.1-2.2 15.3m-.5 2.9c-1 5.7-2.3 11.2-3.7 16.4h11.1c.9-5.3 1.7-10.8 2.2-16.4zm24.5 0h-9.2c-.5 5.5-1.2 11-2.2 16.4h10.7zm-37.9-16 2.4 2c3.4-3.2 6.3-6.7 8.6-10.5q1.2-1.95 2.1-3.9h34.7v-2.8h-33.5c.7-1.8 1.4-3.6 1.9-5.4L461 318c-.6 4-1.6 7.9-3 11.6s-3.3 7.2-5.6 10.3m99-7.6c3.8 5.2 6.6 11.2 8.5 18.1l6.6-4.5c-2.8-5.7-7-10.8-12.6-15.2zm-24.8 10.5c2.3-2.9 4-5.8 5.4-8.7l-7-3.6c-.9 3.5-2.1 6.8-3.6 10.1s-3.2 6.2-5.1 8.8l2.8 1.3c2.7-2.4 5.3-5 7.5-7.9m18.6-17.2h24.4v-3H514v3h24.4v29.8h-28.7v3h28.7v26.5h6.7v-26.5h28.7v-3h-28.7v-29.8zm65.2 17.2v10.9h3.6c-.1 1.1-.3 2.2-.5 3.2-.4 1.7-1 3.3-1.7 4.7s-1.7 2.7-2.9 3.9l1.8 1.5c3.5-2.8 6.1-6.1 7.5-9.7 1.5-3.6 2.2-8.5 2.2-14.5zm50.7 1.4c2 2.2 3.7 4.6 5.2 7.1l4.3-5.6c-1.9-1.9-4.2-3.8-6.7-5.4-2.5-1.7-5.2-3.1-7.9-4.3l-1.5 2.5c2.4 1.5 4.6 3.5 6.6 5.7m54.5 8.8h5.4v2.9h-5.5l-.6 16.4h5.1v2.7h-5.2l-.2 5.1c0 1.7-.5 2.9-1.4 3.7s-2.1 1.2-3.7 1.2h-13.9l-.7-2.6h10.5c1.1 0 1.8-.2 2.3-.7s.7-1.2.7-2.3l.2-4.5h-34.1l.1-2.7c1.6-5.1 2.9-10.6 4.1-16.4H672V353h7.1c1.1-6 1.9-11.9 2.5-17.7v-.1h34.6zm-5.7-15.3h-8.7q-.3 8.1-.9 15.3h9zM685.2 353h9.3c.4-4.8.7-9.9 1-15.3h-8.1c-.6 5-1.3 10.1-2.2 15.3m-.4 2.9c-1 5.7-2.3 11.2-3.7 16.4h11.1c.9-5.3 1.7-10.8 2.2-16.4zm24.4 0H700c-.5 5.5-1.2 11-2.2 16.4h10.7zm-39.6-.5-3-1c-2.8 10.2-6.8 19.2-12 27.1l6.9 4.2q5.4-13.65 8.1-30.3m1.7-15.5 2.4 2c3.4-3.2 6.3-6.7 8.6-10.5q1.2-1.95 2.1-3.9h34.7v-2.8h-33.5c.7-1.8 1.4-3.6 1.9-5.4l-7.7-1.3c-.6 4-1.6 7.9-3 11.6-1.3 3.7-3.1 7.2-5.5 10.3m-13.2-20.6-1.5 2.6c2.4 1.6 4.5 3.6 6.5 5.9 1.9 2.3 3.6 4.7 4.9 7.3l4.6-5.5c-1.9-2.1-4.2-4-6.7-5.7-2.5-1.8-5.1-3.3-7.8-4.6m103 27h23.8v-3.1h-23.8v-24.4h-7.2v59.7H729v3.2h63.6v-3.2h-31.5zm67.6 25h-25.3v-47.5h25.3zm-6.4-25.5v-19.1h-12.5v19.1zm-12.5 2.8v19.7h12.5v-19.7zm25-27.1h29v56.1c0 2.5-.5 4.3-1.6 5.5s-2.9 1.7-5.3 1.7h-8.6l-.7-3.2h5.6q2.1 0 3-1.2t.9-3.9v-14.4h-16.8c-.5 2.7-1.3 5.3-2.2 7.7q-3.3 8.55-10.5 15.6l-2-2.8c3.3-4 5.6-8.5 7-13.5s2-10.9 2-17.6v-30zm22.4 37.8v-16.2h-15.7v7.6c0 3-.2 5.8-.6 8.5h16.3zm0-19.1v-15.9h-15.7v15.9zm29.1-18.7h44.5v55.3c0 2.5-.6 4.4-1.7 5.6s-2.8 1.8-5 1.8h-10.9l-.7-3.2h7.4c1.4 0 2.4-.4 3.1-1.3s.9-2.2.9-4v-14.5h-31.4c-.6 3.4-1.4 6.6-2.7 9.5-2.3 5.4-5.8 10.3-10.7 14.6l-2-2.9c3.3-3.5 5.6-7.8 7-12.7s2.1-10.7 2.1-17.3v-30.9zm37.6 36.7v-15.5h-30.7v9.4q0 3.15-.3 6h31zm0-18.6v-15.2h-30.7v15.2zm71.2 17.2h17.4v3.1h-65.7v-3.1h17.5v-18.2h-13.1v-3h13.1v-16.3h6.7v16.3h17.4v-16.3h6.7v16.3h13v3h-13zm-24.1 0h17.4v-18.2H971zm30.2 28.9 6.9-4.2c-2.3-3.3-5-6.6-8-9.7s-6.3-6.1-10-8.8l-2.5 1.7q4.35 4.95 7.8 10.2c2.4 3.4 4.3 7 5.8 10.8m-36.6-8.9c3.5-3.2 6.5-6.8 9.1-10.7l-7.1-3.1c-1.8 3.9-3.9 7.5-6.5 10.8s-5.7 6.4-9.4 9.2l1.8 2.5c4.5-2.5 8.6-5.4 12.1-8.7m101.1-56.2V352c0 6.7-.5 12.7-1.5 18.1-1 5.3-2.7 10.1-5 14.4l2.4 1.6q4.95-6.6 7.2-15c1.5-5.6 2.2-11.9 2.2-18.7v-29h8.7v54.2c0 1.4-.2 2.4-.7 3q-.6.9-2.1.9h-4.5l.8 3.2h6.6c1.7 0 3.1-.5 4-1.5 1-1 1.4-2.4 1.4-4.3v-58.4h-19.5zm-31.9 34.1-2.8-1.1c-2.6 10.1-6.6 19.4-12 28.1l6.7 4.4c3.6-9.9 6.3-20.3 8.1-31.4m19.1-26.8v7.6h8.2v26h-8.2v7.7h10.4v2.8h-10.4v13.4h-6.2V372h-12v-2.8h12v-7.7h-9v-26h9v-7.6h-11.1v-2.8h11.1v-7.3h6.2v7.3h10.2v2.8zm2.4 21.7h-11.9v9.3h11.9zm0-11.5h-11.9v9h11.9zm24.2 2.4q-3-3.45-6.9-5.7l-1.4 2c2.1 2.5 3.8 5.5 5.2 8.9zm-54.6 3.1q2.85 3.15 4.8 6.9l4.3-5.3c-1.8-1.9-3.9-3.6-6.3-5.3-2.4-1.6-4.8-3.1-7.3-4.2l-1.5 2.6c2.1 1.4 4.2 3.2 6 5.3m4.6-19.3c-2.4-1.9-4.8-3.4-7.3-4.7l-1.4 2.8c2 1.6 4 3.5 5.9 5.8s3.5 4.6 4.9 7.1l4.3-4.8c-2-2.3-4.1-4.3-6.4-6.2m46.9 40.1 3.1-5.2c-2.1-2.3-4.4-4.3-6.9-5.8l-1.4 2c2.1 2.7 3.9 5.6 5.2 9m52.8-7.1h19.4v-3.1h-19.4v-18.6h22.9v-3.1h-22.9v-13.4h-7.1v13.4h-14.2c1.3-3.1 2.4-6.4 3.2-9.9l-8.2-1.7c-.6 5.2-1.8 10.2-3.5 14.9-1.8 4.7-4.2 9.3-7.2 13.6l2.5 2.4c4.2-4 7.7-8.4 10.3-13.1.6-1 1.1-2.1 1.6-3.1h15.6v18.6H1104v3.1h18.1v21.1h-28.7v3.1h64.5v-3.1h-28.7zm79-10.8c1 1.7 1.5 3.5 1.5 5.5s-.5 3.9-1.5 5.6-2.3 3-4 4-3.5 1.5-5.5 1.5-3.9-.5-5.6-1.5-3-2.3-4-4-1.5-3.5-1.5-5.5.5-3.9 1.5-5.6 2.3-3 4-4 3.5-1.5 5.5-1.5 3.9.5 5.6 1.5 3 2.4 4 4m-2.5 5.5c0-2-.7-3.7-2-5-1.4-1.4-3-2-5-2s-3.7.7-5 2c-1.4 1.4-2.1 3-2.1 5s.7 3.7 2.1 5c1.4 1.4 3 2 5 2s3.7-.7 5-2 2-3 2-5M137.3 450.8l-3.3 5.8c-4.3-2.9-8.2-6.2-11.6-9.7v22.4H85.6v-23.7c-3.9 3.6-8.3 7.1-13.3 10.3l-1.3-2.2c5.9-3.9 11-8.5 15.2-13.7 1.9-2.3 3.6-4.8 5.2-7.3H72.8v-2.2h19.8c1.4-2.4 2.6-4.9 3.7-7.5.2-.4.3-.8.5-1.2H81.1v-2h16.4c1-2.7 1.8-5.5 2.5-8.5H79.5v-2.1h21c.4-2.1.9-4.1 1.2-6.3l5.7.6c-.3 1.9-.7 3.8-1.1 5.7h22.1v2.1h-22.7c-.8 2.9-1.6 5.8-2.7 8.5h23.7v2h-17.4c1.5 3.1 3.1 6 5 8.8h20.8v2.2h-19.2c1.4 1.9 2.8 3.7 4.4 5.4 4.8 4.8 10.4 9.1 17 12.6m-39.5-20.3h12.7c-1.4-2.8-2.7-5.7-3.9-8.8h-4.5c-.5 1.1-.9 2.2-1.4 3.2-.8 2-1.8 3.8-2.9 5.6m19.2 13.7H90.9v10.2H117zm-26.1 12.3V467H117v-10.5zm27.1-14.6c-.2-.2-.4-.5-.6-.7-2.1-2.6-3.9-5.5-5.6-8.4H96.4c-2.1 3.3-4.5 6.4-7.2 9.2H118zm70.6-27.8H205v-2.6h-38.7v2.6h16.4v47.6H162v2.6h46.7v-2.6h-20.1zm-28.3 24.6c-3.6 9.9-8.7 18.5-15 25.8l5.1 4.5c2.8-4.6 5.2-9.4 7.2-14.2s3.7-9.9 5.1-15.1zm-4.1-2.5 3.4-5.5c-1.9-1.7-4.1-3.4-6.7-5q-3.9-2.4-7.8-3.9l-.9 2.2c2.4 1.5 4.6 3.3 6.8 5.4 2 2.1 3.8 4.4 5.2 6.8m-.2-27.1q-3.9-2.4-8.1-3.9l-.8 2.1c2.5 1.5 4.8 3.2 7 5.3s4 4.4 5.7 7.1l3.1-5.4c-2-1.9-4.3-3.6-6.9-5.2m120.7 17c-2.1-2.4-4.5-4.4-7.1-6.1l-1.1 1.7c2.2 2.5 4 5.4 5.5 8.8zm-2.7 23.3 2.7-4.4c-2.1-2.4-4.5-4.4-7.1-6l-1.1 1.7c2.2 2.4 4 5.3 5.5 8.7m-10.6-12.8c0 6.8-.5 12.9-1.5 18.4q-1.5 8.1-5.1 14.7l1.8 1.5c3.2-4.5 5.5-9.6 7-15.3 1.4-5.7 2.2-12 2.2-18.9v-28.8h9.8v54.9c0 1.5-.2 2.5-.7 3.2s-1.2 1-2.3 1h-4.7l.7 2.6h6.4q2.4 0 3.9-1.5c.9-1 1.4-2.4 1.4-4.3v-58.2h-18.7v30.7zm-41.2-8.1c1.8 2.1 3.4 4.3 4.9 6.8l3.6-4.4q-2.55-2.85-6-5.4t-7.2-4.5l-1.2 2.2c2.1 1.5 4 3.3 5.9 5.3m4.3-18.8c-2.3-1.9-4.7-3.5-7.3-4.7l-1.1 2.2c2.1 1.6 4.1 3.4 5.9 5.6q2.85 3.3 4.8 6.9l3.6-3.9c-1.5-2.2-3.5-4.2-5.9-6.1m23.2 3.3v8h8.5v25.6h-8.5v8.1h10.9v2.3h-10.9v13.5h-5.2V457h-12.6v-2.3h12.6v-8.1h-9.3V421h9.3v-8h-11.6v-2.3h11.6v-7.6h5.2v7.6h10.9v2.3zm3.7 21.6h-13.3v9.8h13.3zm0-11.6h-13.3v9.5h13.3zM231 439.9l-2.3-.9q-4.05 15-12 28.5l5.4 3.6c4-10.1 6.9-20.4 8.9-31.2m102.9-6.2c3.1-2 6-4 8.7-6.3 3-2.5 5.8-5.2 8.3-8.1l-4.8-4.5c-2.1 3.6-4.3 6.9-6.8 9.8-2.2 2.7-4.5 4.9-6.9 6.9-2.6-3.7-4.9-7.7-6.8-12v-16.3H320v58.5c0 1.5-.3 2.6-.9 3.4-.6.7-1.7 1.1-3.1 1.1h-7.4l.6 2.4h11.2c1.8 0 3.1-.5 4-1.5s1.4-2.4 1.4-4.3v-38.4c2.9 7 6.2 13.4 10.2 19.1 4.4 6.4 9.7 12.4 15.7 17.8l5.2-5.8c-4.9-3.6-9.3-7.2-13-10.8-3.8-3.4-7.1-7-10-11M306 445.2c4.4-6.3 7.4-13.1 9.1-20.2v-2.4h-22.7v2.4h16.3c-1.1 6.8-3.4 13.1-6.8 18.8-3.5 5.8-7.8 10.8-13 15.1l1.3 2.4c6.2-4.4 11.5-9.8 15.8-16.1m58.3-25.3c2.3 1.7 4.5 3.5 6.5 5.6q3 3.15 5.1 6.6l3.7-4.5c-1.7-1.9-3.8-3.6-6.3-5.3-2.4-1.6-5-3.1-7.7-4.3zm38 29.5v-7.6h-15.4v-22.3h15.4v-6.9h-18v-2.2h18v-5.7h5.5v5.7h17.9v2.2h-17.9v6.9h15.1v22.3h-15.1v7.6h18.5v2.3h-18.5v8.5h-5.5v-8.5h-18.5v-2.3zm15.8-18.1h-10.3v8.4h10.3zm-10.3-9.8v8h10.3v-8zm-5.5 0h-10.6v8h10.6zm0 18.2v-8.4h-10.6v8.4zM378.1 419l3.6-4.2c-1.6-1.9-3.5-3.8-5.8-5.5-2.2-1.7-4.6-3.2-7.2-4.6l-1.4 1.9q3.3 2.55 6 5.7c1.9 2.1 3.5 4.3 4.8 6.7m6.5 42.3c-2.4-1.2-4.4-3-6.1-5.3v-19.3h-14.7v2.5h9.2v16.7c-1.7 1.2-3.4 2.5-5.1 4.2-1.9 1.9-3.6 3.8-5.2 5.8l4.7 3.6c1.2-2.3 2.6-4.5 4.3-6.8 1.2-1.6 2.4-3.1 3.7-4.5 1.8 3.2 4 5.7 6.7 7.4 3.1 2 6.8 2.9 11 2.9h33.1l1.2-5.5H394c-3.7.2-6.8-.4-9.4-1.7m57.9-32.2q3 3.15 5.1 6.9l3.7-4.7c-1.8-1.9-4-3.8-6.5-5.4-2.5-1.7-5.1-3.1-7.7-4.4l-1.1 2c2.3 1.5 4.5 3.4 6.5 5.6m53.7 9.3h5.7v2.3h-5.8l-.6 17.1h5.3v2.2h-5.3l-.2 5.2c-.1 1.7-.6 2.9-1.4 3.7q-1.35 1.2-3.6 1.2h-13.1l-.4-2h9.9c1.2 0 2-.3 2.6-.8.5-.5.8-1.4.9-2.6l.2-4.6H456v-2.2q2.4-7.95 4.2-17.1h-6.9v-2.3h7.3c1.1-6.1 2-12.1 2.5-17.9h33.7zm-4.6-15.8h-9.7c-.2 5.6-.6 10.9-1 15.8H491zm-25.9 15.8h10.5c.4-5 .8-10.2 1-15.8H468c-.6 5.1-1.4 10.4-2.3 15.8m-.4 2.4c-1.1 6-2.4 11.7-4 17.1h12.3c1-5.5 1.8-11 2.3-16.7v-.3h-10.6zm25.6 0h-10.2v.4c-.5 5.7-1.3 11.2-2.2 16.7h11.9zm-43.8-31.4c-2.5-1.8-5-3.3-7.6-4.6l-1.2 2.1c2.3 1.6 4.5 3.5 6.5 5.7s3.6 4.6 5 7l3.9-4.5q-2.85-3-6.6-5.7m3.5 31.3-2.3-.9q-4.35 15-12 27l5.5 3.6c3.9-9.1 6.8-19 8.8-29.7m11-37.3q-.9 5.85-3 11.4c-1.4 3.7-3.3 7.1-5.6 10.2l1.9 1.7c3.2-3.2 5.9-6.6 8.1-10.4.8-1.3 1.4-2.7 2.1-4h34.8V410h-33.8c.8-1.8 1.4-3.7 1.9-5.5zm90.2 13.9q0-.15 0 0m0-.1c3.9 5.3 6.8 11.4 8.8 18.4l5.4-3.9q-3.9-8.85-12-15.9zm-7.2-6.9h24.6v-2.4h-54.7v2.4h24.6v30.5h-29v2.4h29V470h5.5v-26.7h29v-2.4h-29zm-18.2 17.5q3.3-4.5 5.1-9l-5.6-3.1c-1 3.5-2.3 6.8-3.8 10.1-1.6 3.3-3.3 6.3-5.3 8.9l2.3 1.1c2.7-2.3 5.1-5 7.3-8m85.1.3v10.5h2.9c-.1 1-.3 2-.5 2.9-.4 1.9-1.1 3.6-2 5.1s-2 2.9-3.4 4.2l1.5 1.3c3.5-2.7 6-5.9 7.5-9.5s2.2-8.4 2.2-14.5v-.1h-8.2zm69.1-24.7q-.9 5.85-3 11.4c-1.4 3.7-3.3 7.1-5.6 10.2l1.9 1.7c3.2-3.2 5.9-6.6 8.1-10.4.8-1.3 1.4-2.7 2.1-4h34.8V410H685c.8-1.8 1.4-3.7 1.9-5.5zm-14.5 6c-2.5-1.8-5-3.3-7.6-4.6l-1.2 2.1c2.3 1.6 4.5 3.5 6.5 5.7s3.6 4.6 5 7l3.9-4.5q-3-3-6.6-5.7m3.4 31.3-2.3-.9q-4.35 15-12 27l5.5 3.6c3.9-9.1 6.8-19 8.8-29.7m45.6-2.3h5.7v2.3H715l-.6 17.1h5.3v2.2h-5.3l-.2 5.2c-.1 1.7-.6 2.9-1.4 3.7q-1.35 1.2-3.6 1.2H696l-.4-2h9.9c1.2 0 2-.3 2.6-.8.5-.5.8-1.4.9-2.6l.2-4.6h-34.4v-2.2q2.4-7.95 4.2-17.1h-6.9v-2.3h7.3c1.1-6.1 2-12.1 2.5-17.9h33.7zm-4.5-15.8h-9.8c-.2 5.6-.6 10.9-1 15.8H710zm-26 15.8h10.5c.4-5 .8-10.2 1-15.8h-9.2c-.6 5.1-1.4 10.4-2.3 15.8m-.4 2.4c-1.1 6-2.4 11.7-4 17.1h12.3c1-5.5 1.8-11 2.3-16.7v-.3h-10.6zm25.7 0h-10.3v.4c-.5 5.7-1.3 11.2-2.2 16.7h11.9zm-48.5-11.7q3 3.15 5.1 6.9l3.7-4.7c-1.8-1.9-4-3.8-6.5-5.4-2.5-1.7-5.1-3.1-7.7-4.4l-1.1 2c2.3 1.5 4.5 3.4 6.5 5.6m99 2.1h24.2v-2.5h-24.2V404h-5.9v60.1h-25.3v2.6h63v-2.6h-31.9v-32.9zm103-24.3V463c0 2.4-.5 4.1-1.6 5.2-1 1.1-2.7 1.6-5 1.6h-8.4l-.5-2.6h5.9c1.5 0 2.6-.4 3.2-1.2s.9-2.1.9-4v-14.9h-18.5c-.5 2.6-1.2 5.2-2 7.6-2.1 5.7-5.4 11-10 15.7l-1.6-2.1c3.3-4.1 5.7-8.8 7.1-14q2.1-7.8 2.1-18V407h28.4zm-5.5 2.2h-17.4v16.5h17.4zm0 35.7V428h-17.4v7.6c0 3.2-.2 6.3-.7 9.3h18.1zm-29.5 11.6h-24.6v-47.3h24.6zm-5.4-25.2v-19.8h-13.9v19.8zm-13.9 2.3v20.4H823v-20.4zm77.8-26.6h43.3v55.3c0 2.4-.5 4.2-1.6 5.3-1.1 1.2-2.6 1.7-4.7 1.7h-10.3l-.7-2.6h7.4c1.6 0 2.6-.4 3.3-1.3.6-.9.9-2.2.9-4.1V446h-32.6c-.5 3.5-1.4 6.7-2.6 9.8-2.2 5.4-5.6 10.2-10.3 14.4l-1.6-2.3c3.4-3.7 5.8-8 7.3-13s2.2-10.7 2.2-17.3zm37.6 36.7v-16.1h-32v10c0 2.1-.1 4.2-.3 6.1zm0-18.5v-15.8h-32v15.8zm39.8 36.4c3.5-3.3 6.5-6.8 8.9-10.7l-5.8-2.6c-1.7 3.9-4 7.5-6.8 10.8q-4.2 4.95-9.9 9.3l1.5 2.1c4.6-2.6 8.7-5.6 12.1-8.9m37.7 9 5.7-3.4c-2.3-3.4-4.9-6.7-8-9.9-3-3.2-6.4-6.2-10.1-9.1l-2 1.5q4.8 5.1 8.4 10.2c2.5 3.5 4.5 7 6 10.7m-7.5-28.2h17.8v2.4h-65.2v-2.4h17.8v-18.8h-13.4v-2.4h13.4v-16.6h5.5v16.6H989v-16.6h5.5v16.6h13.4v2.4h-13.4zm-24.1 0H989v-18.8h-18.5v18.8zm54.5-13.8c1.8 2.1 3.4 4.3 4.8 6.8l3.6-4.4q-2.55-2.85-6-5.4t-7.2-4.5l-1.2 2.2c2.2 1.5 4.2 3.3 6 5.3m51.9 20.9 2.7-4.4c-2.1-2.4-4.5-4.4-7.1-6l-1.1 1.7c2.2 2.4 4 5.3 5.5 8.7m2.7-23.3c-2.1-2.4-4.5-4.4-7.1-6.1l-1.1 1.7c2.2 2.5 4 5.4 5.5 8.8zm-13.4 10.5c0 6.8-.5 12.9-1.5 18.4q-1.5 8.1-5.1 14.7l1.8 1.5c3.2-4.5 5.5-9.6 7-15.3 1.4-5.7 2.2-12 2.2-18.9v-28.8h9.8v54.9c0 1.5-.2 2.5-.7 3.2s-1.2 1-2.3 1h-4.7l.7 2.6h6.4q2.4 0 3.9-1.5c.9-1 1.4-2.4 1.4-4.3v-58.2h-18.7v30.7zm-36.8-26.9c-2.3-1.9-4.7-3.5-7.3-4.7l-1.1 2.2c2.1 1.6 4.1 3.4 5.9 5.6q2.85 3.3 4.8 6.9l3.6-3.9c-1.6-2.2-3.6-4.2-5.9-6.1m4.4 30.2-2.3-.9q-4.05 15-12 28.5l5.4 3.6c4-10.1 7-20.4 8.9-31.2m18.8-26.9v8h8.5v25.6h-8.5v8.1h10.9v2.3h-10.9v13.5h-5.2V457h-12.6v-2.3h12.6v-8.1h-9.3V421h9.3v-8h-11.6v-2.3h11.6v-7.6h5.2v7.6h10.9v2.3zm3.7 21.6h-13.3v9.8h13.3zm0-11.6h-13.3v9.5h13.3zm72.4 19.1h19.9v-2.5h-19.9v-19.2h23.2V418h-23.2v-13.7h-5.8V418H1107c1.4-3.3 2.5-6.7 3.4-10.3l-6.8-1.5c-.6 5.2-1.8 10.1-3.6 14.9q-2.7 7.2-7.5 13.8l2 2c4.1-4.1 7.4-8.5 10-13.3.5-1 1-2 1.5-3.1h16.8v19.2H1104v2.5h18.7V464h-29.1v2.6h64.1V464h-29.1zm79.4-10.4c1 1.7 1.5 3.5 1.5 5.5s-.5 3.8-1.5 5.5q-1.5 2.55-3.9 3.9c-1.7 1-3.5 1.5-5.5 1.5s-3.8-.5-5.5-1.5q-2.55-1.5-3.9-3.9c-1-1.7-1.5-3.5-1.5-5.5s.5-3.8 1.5-5.5q1.5-2.55 3.9-3.9c1.7-1 3.5-1.5 5.5-1.5s3.8.5 5.5 1.5q2.55 1.35 3.9 3.9m-1.8 5.5c0-2.1-.7-3.9-2.2-5.3-1.4-1.5-3.2-2.2-5.4-2.2s-3.9.7-5.3 2.2c-1.5 1.4-2.2 3.2-2.2 5.4 0 2.1.7 3.9 2.2 5.3 1.4 1.5 3.2 2.2 5.4 2.2s3.9-.7 5.3-2.2 2.2-3.3 2.2-5.4M136.8 536.9l-2.6 4.6q-6.9-4.8-12.3-10.5v23.2H86.1v-24.1c-3.9 3.8-8.5 7.4-13.7 10.8l-.9-1.6c6-4.1 11.2-8.7 15.4-13.9 2-2.5 3.8-5.1 5.4-7.7H73V516h20.2c1.4-2.5 2.7-5 3.8-7.7.2-.5.4-1.1.6-1.6H81.4v-1.6h16.7c1-2.9 1.9-5.8 2.6-8.9H79.8v-1.6h21.3c.5-2.1.9-4.3 1.2-6.5l4.5.4c-.3 2.1-.7 4.1-1.1 6.1h22.4v1.6h-22.8c-.7 3.1-1.6 6.1-2.7 8.9h23.9v1.6H109c1.4 3.3 3 6.4 4.9 9.3H135v1.7h-20c1.5 2.1 3 4.1 4.7 6 4.7 5.1 10.5 9.5 17.1 13.2M97.3 516H111c-1.6-2.9-3-6-4.1-9.3H102c-.4 1.1-.9 2.2-1.3 3.2-1.1 2.1-2.2 4.1-3.4 6.1m20.4 13H90.3v10.8h27.4zm-27.4 12.5v11h27.4v-11zm28.2-14.2c-.4-.4-.7-.9-1.1-1.3-2.1-2.6-3.9-5.4-5.6-8.3H96.3c-2.1 3.3-4.4 6.4-7 9.3-.1.1-.2.2-.3.4h29.5zm37.4-32.7c-2.5-1.6-5.1-3-7.7-4.2l-.7 1.7c2.6 1.4 4.9 3.1 7 5.1s3.9 4.3 5.5 6.9l2.4-4.3c-1.8-1.9-3.9-3.6-6.5-5.2m32.1 4.2h16.8v-2h-38.1v2h16.8v48.5h-21.4v2h46.6v-2H188zm-31.4 22.1 2.6-4.4c-1.8-1.8-4-3.6-6.4-5.1-2.4-1.6-5-2.9-7.6-4l-.8 1.6c2.4 1.5 4.7 3.2 6.8 5.3q3.15 3.15 5.4 6.6m3.7 2.9c-3.5 9.9-8.3 18.7-14.4 26.2l3.9 3.6q4.05-6.9 7.2-14.1c2.1-4.8 3.8-9.7 5.1-14.8zm116.3-12.1c-2.1-2.5-4.4-4.6-7-6.3l-.9 1.4c2.2 2.3 4.2 5 5.8 8.2zm-2.1 22.5 2.1-3.4c-2.1-2.5-4.4-4.6-7-6.3l-.9 1.3c2.3 2.4 4.2 5.2 5.8 8.4m-10.7-13.1q0 10.35-1.5 18.6c-1 5.5-2.7 10.5-5 14.9l1.4 1.2c3-4.6 5.2-9.7 6.6-15.5 1.4-5.7 2.1-12.1 2.1-19v-28.6h10.9v55.7c0 1.5-.3 2.6-.8 3.3s-1.4 1.1-2.6 1.1h-4.7l.5 2h6.1c1.7 0 3-.5 3.8-1.5.9-1 1.3-2.4 1.3-4.3v-58h-18v30.1zm-39.4-23.7c1.9 2.1 3.5 4.4 4.8 6.8l3-3.1c-1.6-2-3.5-4-5.8-5.9q-3.3-2.85-6.9-4.8l-.9 1.7c1.9 1.4 3.9 3.2 5.8 5.3m-2.2 16c1.9 2 3.5 4.2 4.7 6.5l2.8-3.4c-1.6-1.9-3.4-3.8-5.7-5.5-2.2-1.7-4.5-3.2-6.9-4.4l-.9 1.6c2.2 1.5 4.2 3.2 6 5.2m27-15.5v8.4h8.8v25.3h-8.8v8.5h11.5v1.7h-11.5v13.7h-4v-13.7h-13.3v-1.7h13.3v-8.5h-9.5v-25.3h9.5v-8.4h-12.3v-1.7h12.3v-7.9h4v7.9h11.7v1.7zm5 21.6h-14.8v10.4h14.8zm0-11.5h-14.8v9.9h14.8zm-37 44.9 4.4 2.8c4.1-9.9 7.2-20.2 9.3-30.7l-1.7-.7c-2.7 9.9-6.7 19.4-12 28.6m88.7-22.8c4.3-6.3 7.3-13 9-20.2V508h-22.3v1.8H310c-1.2 7-3.6 13.3-7.3 19.2s-8.2 11-13.6 15.1l1 1.8c6.2-4.3 11.5-9.6 15.8-15.8m27.5-10.9c3.1-2.1 6-4.3 8.8-6.7 3-2.6 5.7-5.4 8-8.5l-3.6-3.4c-2.1 3.6-4.5 6.8-7 9.7-2.3 2.7-4.8 5.1-7.4 7.3-2.8-4-5.2-8.3-7.3-12.9v-16.3h-4.3v58.7c0 1.6-.3 2.8-1 3.5s-1.7 1.1-3.3 1.1h-7.5l.4 1.8h10.4c1.7 0 3-.5 3.9-1.4.9-1 1.3-2.4 1.3-4.3v-39.5c3.1 7.3 6.8 14 11.1 19.9 4.7 6.4 10.1 12.3 16.4 17.6l4.1-4.5c-4.9-3.6-9.3-7.3-13.1-10.9-3.6-3.3-6.9-7.1-9.9-11.2m44.9-15.5 2.9-3.4c-1.6-1.9-3.4-3.7-5.5-5.5-2.1-1.7-4.4-3.3-6.9-4.6l-1 1.3c2.1 1.7 4 3.6 5.8 5.6 1.8 2.1 3.4 4.3 4.7 6.6m-13.5 1.2q3.3 2.4 6.3 5.4c2 2 3.7 4.1 5.3 6.3l2.8-3.5c-1.7-1.9-3.7-3.6-6-5.3-2.4-1.7-4.9-3.1-7.6-4.4zm19.5 42.3c-2.5-1.3-4.6-3.3-6.3-5.9v-19.4h-14v1.9h9.7v17.3q-2.7 1.8-5.4 4.5c-2 1.9-3.7 3.8-5.1 5.8l3.6 2.8q1.8-3.3 4.5-6.6c1.4-1.8 2.9-3.3 4.3-4.7 1.7 3.3 4 5.9 6.7 7.7 3 1.9 6.7 2.9 10.8 2.9h33.3l.9-4.3h-33.5c-3.7 0-6.9-.6-9.5-2m18.6-12.3v-8h-15.6v-22.1h15.6v-7.4h-18.5v-1.7h18.5v-5.9h4.3v5.9h18.4v1.7h-18.4v7.4h15.3v22.1h-15.3v8h19v1.9h-19v8.9h-4.3v-8.9h-19.1v-1.9zm15.8-18.4h-11.5v8.8h11.5zm-11.5-10.1v8.6h11.5v-8.6zm-4.3 0h-11.8v8.6h11.8zm0 18.9v-8.8h-11.8v8.8zm47.6-21.2 3-3.5c-1.8-2-3.9-4-6.2-5.8-2.4-1.8-4.8-3.3-7.3-4.6l-.9 1.6c2.3 1.6 4.4 3.4 6.4 5.5 1.9 2.1 3.6 4.4 5 6.8m11.9-15.3c-.6 3.8-1.7 7.6-3.1 11.2s-3.3 7-5.7 10.1l1.5 1.4c3-3.1 5.6-6.5 7.7-10.2.8-1.4 1.4-2.7 2-4.1h34.7v-1.7h-34c.8-1.9 1.4-3.8 1.9-5.8zm-21.3 66.1c4-8.8 7.2-18.4 9.4-28.8l-1.8-.8c-2.9 9.7-6.8 18.7-11.8 26.9zm1.8-40.9q3 3.15 5.1 6.6l2.9-3.6c-1.8-1.9-4-3.8-6.3-5.5-2.4-1.7-4.8-3.2-7.5-4.4l-.9 1.5c2.4 1.5 4.6 3.4 6.7 5.4m52.8 9.8h6.1v1.9h-6.1l-.6 17.7h5.6v1.7h-5.6l-.2 5c-.1 1.7-.6 3-1.4 3.9-.9.8-2.1 1.2-3.8 1.2h-11.8l-.4-1.6h9.4c1.3 0 2.2-.3 2.8-.9s1-1.6 1.1-2.9l.2-4.6h-34.7v-1.7c1.7-5.6 3.2-11.5 4.4-17.7h-7.4v-1.9h7.7c1.1-6.1 2-12.1 2.6-17.9h32.8zm-3.4-16.3h-10.8c-.2 5.7-.6 11.2-1 16.3h11.2zM465 523.8h11.8c.4-5.1.7-10.5.9-16.3h-10.3c-.6 5.4-1.4 10.8-2.4 16.3m-.3 1.9c-1.2 6.3-2.5 12.2-4.1 17.7h13.7c1-5.7 1.8-11.4 2.4-17.2v-.5zm26.9 0h-11.3c0 .2 0 .4-.1.7-.5 5.8-1.3 11.5-2.2 17.1h13zM544 495h24.8v-1.8h-53.9v1.8h24.8v31.2h-29.4v1.9h29.4V555h4.2v-26.9h29.3v-1.9H544zm8.3 7.2c3.8 5.3 6.8 11.5 8.8 18.5l4.2-3c-2.5-6.2-6.3-11.7-11.3-16.5zm-26.1 10.5c2.1-3.1 3.7-6.2 4.9-9.4l-4.5-2.3c-.9 3.5-2.2 6.9-3.7 10.2-1.6 3.4-3.3 6.3-5.3 8.9l1.7.9c2.5-2.5 4.8-5.2 6.9-8.3m93 .7h-6.6v10h2.2c-.1.9-.3 1.8-.5 2.7-.5 2.1-1.2 4-2.2 5.6-.9 1.6-2.2 3.1-3.8 4.4l1.1 1.2c3.6-2.7 6.1-5.8 7.6-9.3 1.5-3.7 2.2-8.5 2.2-14.6m95.5 10.4h6v1.9h-6.1l-.6 17.7h5.5v1.7h-5.6l-.2 5c-.1 1.7-.6 3-1.4 3.9-.9.8-2.1 1.2-3.8 1.2h-11.8l-.4-1.6h9.4c1.3 0 2.2-.3 2.8-.9s1-1.6 1.1-2.9l.2-4.6h-34.7v-1.7c1.7-5.6 3.2-11.5 4.4-17.7h-7.4v-1.9h7.7c1.1-6.1 2-12.1 2.6-17.9h32.8zm-3.5-16.3h-10.8c-.2 5.7-.6 11.2-1 16.3h11.2zM684 523.8h11.8c.4-5.1.7-10.5.9-16.3h-10.3c-.7 5.4-1.5 10.8-2.4 16.3m-.4 1.9c-1.2 6.3-2.5 12.2-4.1 17.7h13.6c1-5.7 1.8-11.4 2.4-17.2v-.5zm27 0h-11.3c0 .2 0 .4-.1.7-.5 5.8-1.3 11.5-2.2 17.1h13zm-41.1-21.6 3-3.5c-1.8-2-3.9-4-6.2-5.8-2.4-1.8-4.8-3.3-7.3-4.6l-.9 1.6c2.3 1.6 4.4 3.4 6.4 5.5 1.9 2.1 3.6 4.4 5 6.8m-7.7 9.9q3 3.15 5.1 6.6l2.9-3.6c-1.8-1.9-4-3.8-6.3-5.5-2.4-1.7-4.8-3.2-7.5-4.4l-.9 1.5c2.5 1.5 4.7 3.4 6.7 5.4m-1.7 40.9c4-8.8 7.2-18.4 9.4-28.8l-1.8-.8c-2.9 9.7-6.8 18.7-11.8 26.9zm21.2-66.1c-.6 3.8-1.7 7.6-3.1 11.2s-3.3 7-5.7 10.1l1.5 1.4c3-3.1 5.6-6.5 7.7-10.2.8-1.4 1.4-2.7 2-4.1h34.7v-1.7h-34c.8-1.9 1.4-3.8 1.9-5.8zm78.4 27.3h24.8v-2h-24.8v-24.9h-4.5v60.5h-25.6v2H792v-2h-32.3zm75.5-23.9h27.7v56.1c0 2.2-.5 3.9-1.5 4.9s-2.6 1.6-4.7 1.6h-8.1l-.4-2h6.3q2.25 0 3.3-1.2c.7-.8 1-2.1 1-4V532h-20.2c-.5 2.6-1.1 5.1-2 7.5-2 5.8-5.1 11.1-9.4 15.9l-1.2-1.6c3.4-4.3 5.7-9.2 7.2-14.6 1.4-5.4 2.2-11.5 2.2-18.4v-28.6zm23.4 38.1v-17.4h-19.1v7.4c0 3.5-.2 6.8-.7 10zm0-19.2V494h-19.1v17.1zm-30.7 30.3h-23.8v-46.9h23.8zm-4.1-24.8v-20.4h-15.5v20.4zm-15.5 1.8v21.1h15.5v-21.1zm79.1-26.2h42.3v55.3c0 2.3-.5 4-1.6 5.1-1 1.1-2.6 1.6-4.6 1.6h-9.7l-.4-2h7.4c1.6 0 2.7-.4 3.4-1.2s1-2.2 1-4.2v-16h-34c-.5 3.6-1.3 6.9-2.6 10.1-2.1 5.4-5.3 10.1-9.7 14.3l-1.3-1.6c3.4-3.8 5.9-8.3 7.4-13.3s2.3-10.8 2.3-17.3v-30.8zm37.9 36.8v-16.6h-33.4V523c0 2.1-.1 4.1-.3 6.1h33.7zm0-18.6v-16.3h-33.4v16.3zm77.6 45 4.4-2.8q-3.15-5.1-7.8-9.9-4.5-4.8-10.2-9.3l-1.5 1.2c3.3 3.2 6.2 6.5 8.8 10q3.9 5.4 6.3 10.8m-38.8-9.3c3.5-3.3 6.4-6.8 8.7-10.6l-4.5-2c-1.7 3.8-4.1 7.4-7 10.7s-6.4 6.4-10.3 9.3l1.1 1.7c4.5-2.8 8.5-5.8 12-9.1m29.8-18.4h18.3v1.9h-65v-1.9h18.3v-19.3h-13.9v-1.9h13.9v-16.8h4.2v16.8h19.9v-16.8h4.2v16.8h13.9v1.9h-13.9v19.3zm-24.1 0h19.9v-19.3h-19.9zm96.7-6.6q0 10.35-1.5 18.6c-1 5.5-2.7 10.5-5 14.9l1.4 1.2c3-4.6 5.2-9.7 6.6-15.5 1.4-5.7 2.1-12.1 2.1-19v-28.6h10.9v55.7c0 1.5-.3 2.6-.8 3.3s-1.4 1.1-2.6 1.1h-4.7l.5 2h6.1c1.7 0 3-.5 3.8-1.5.9-1 1.3-2.4 1.3-4.3v-58h-18v30.1zm10.8 13.1 2.1-3.4c-2.1-2.5-4.4-4.6-7-6.3l-.9 1.3c2.3 2.4 4.2 5.2 5.8 8.4m-25.3-36.3v8.4h8.8v25.3h-8.8v8.5h11.5v1.7H1052v13.7h-4v-13.7h-13.3v-1.7h13.3v-8.5h-9.5v-25.3h9.5v-8.4h-12.3v-1.7h12.3v-7.9h4v7.9h11.7v1.7zm5 21.6h-14.8v10.4h14.8zm0-11.5h-14.8v9.9h14.8zm-29.9-10.6c1.9 2.1 3.5 4.4 4.8 6.8l3-3.1c-1.6-2-3.5-4-5.8-5.9q-3.3-2.85-6.9-4.8l-.9 1.7c2 1.4 3.9 3.2 5.8 5.3m52.3 14.3c-2.1-2.5-4.4-4.6-7-6.3l-.9 1.4c2.2 2.3 4.2 5 5.8 8.2zm-47.4 12.7q-4.05 14.7-12 28.5l4.4 2.8c4.1-9.9 7.2-20.2 9.3-30.7zm-7-11c1.9 2 3.5 4.2 4.7 6.5l2.8-3.4c-1.6-1.9-3.4-3.8-5.7-5.5-2.2-1.7-4.5-3.2-6.9-4.4l-.9 1.6c2.1 1.5 4.1 3.2 6 5.2m102.9 13.6h20.4v-1.9h-20.4v-19.7h23.6v-1.9h-23.6v-13.9h-4.5v13.9h-17.3c1.4-3.4 2.5-7 3.4-10.7l-5.3-1.3c-.6 5.2-1.9 10.2-3.8 15.1-1.9 4.8-4.5 9.4-7.7 13.7l1.5 1.6c3.9-4.1 7.2-8.6 9.7-13.4.5-1 1-2 1.4-3h18.1v19.7H1104v1.9h19.4v22.5h-29.6v1.9h63.8v-1.9H1128V527zm80-10c.9 1.6 1.4 3.4 1.4 5.3q0 3-1.5 5.4c-1 1.6-2.3 2.9-3.9 3.8s-3.4 1.4-5.3 1.4q-3 0-5.4-1.5c-1.6-1-2.9-2.3-3.8-3.9s-1.4-3.4-1.4-5.3q0-3 1.5-5.4c1-1.6 2.3-2.9 3.9-3.8s3.4-1.4 5.3-1.4q3 0 5.4 1.5c1.6 1 2.9 2.3 3.8 3.9m-1.2 5.3c0-2.3-.8-4.2-2.3-5.7-1.6-1.6-3.5-2.4-5.8-2.4s-4.2.8-5.7 2.3c-1.6 1.6-2.4 3.5-2.4 5.8s.8 4.2 2.3 5.7c1.6 1.6 3.5 2.4 5.8 2.4s4.2-.8 5.7-2.3c1.7-1.6 2.4-3.5 2.4-5.8M136.2 623.2l-1.9 3.2c-5-3.4-9.3-7.1-13.1-11.1v24H86.7v-24.6c-4 4.1-8.7 7.8-14.2 11.3l-.7-1.1c6.2-4.1 11.4-8.8 15.6-14 2.2-2.7 4.1-5.4 5.8-8.3h-20v-1.2H94c1.4-2.5 2.6-5 3.7-7.6.3-.7.5-1.4.8-2.1H81.7v-1.2h17.2c1-3 1.9-6 2.6-9.3H80V580h21.7c.5-2.2.9-4.4 1.2-6.7l3.3.4c-.3 2.2-.7 4.3-1.2 6.4h22.9v1.2h-23.2q-1.2 4.8-2.7 9.3h24.3v1.2h-17.8c1.4 3.5 3 6.7 4.9 9.8h21.4v1.2h-20.6c1.5 2.3 3.2 4.5 5 6.6 4.7 5 10.4 9.7 17 13.8m-39.3-21.9h14.5c-1.6-3.1-3.1-6.4-4.2-9.8h-5.5c-.4 1.1-.8 2.1-1.3 3.2-1.1 2.3-2.3 4.5-3.5 6.6m21.4 12.6H89.7v11.3h28.6zm-28.6 12.5V638h28.6v-11.6zm29.2-13.8-1.5-1.8c-2.1-2.6-3.9-5.4-5.5-8.3H96.2c-2 3.3-4.3 6.4-6.9 9.4-.2.3-.5.5-.7.8h30.3zm41.5-3.4c-3.3 9.7-7.9 18.5-13.9 26.4l3 2.6c2.8-4.6 5.2-9.3 7.2-14q3-7.05 5.1-14.4zm-3.6-3.7 2-3c-1.7-1.9-3.8-3.7-6.2-5.4-2.4-1.6-4.9-3.1-7.4-4.3l-.5 1.2c2.4 1.4 4.7 3.1 6.8 5.1s3.8 4.2 5.3 6.4m-.8-25.4c-2.4-1.7-4.9-3.1-7.5-4.3l-.5 1.2c2.5 1.4 4.8 3.1 6.9 5s3.9 4.1 5.5 6.5l1.8-3.1c-1.7-1.8-3.8-3.6-6.2-5.3m31.4 3.4h17.1v-1.4h-37.7v1.4H184v49.4h-21.9v1.4h46.4v-1.4h-21.2v-49.4zm87.6 35.6 1.6-2.5c-2.1-2.6-4.5-4.8-7.1-6.5l-.7.9c2.3 2.2 4.4 4.9 6.2 8.1m-54.1 21.3c4.3-9.8 7.6-19.9 10-30.3l-1.2-.3c-2.8 9.7-6.7 19.2-11.8 28.7zm55.7-43.2c-2.1-2.6-4.5-4.7-7.1-6.5l-.7.9c2.3 2.2 4.3 4.9 6.1 8zm-50.5-16.7c-2.2-1.9-4.4-3.4-6.7-4.7l-.7 1.2c2.1 1.5 4.1 3.2 6 5.2 1.8 2 3.4 4.1 4.7 6.4l2.2-2.3c-1.5-2.1-3.3-4-5.5-5.8m38.1 25.2c0 7-.5 13.3-1.6 19-1 5.7-2.8 10.8-5.1 15.4l1 .7c2.9-4.6 5-9.8 6.3-15.7s2-12.3 2-19.3v-28.2h12v56.3c0 1.6-.3 2.8-.8 3.5-.6.7-1.5 1.1-2.7 1.1h-4.8l.4 1.3h5.8c1.6 0 2.8-.5 3.6-1.4.9-1 1.3-2.4 1.3-4.3v-57.9h-17.2v29.5zm-15.4-22.8v8.8h9v24.9h-9v8.9h12v1.2h-12v13.9h-2.9v-13.9h-14v-1.2h14v-8.9h-9.7v-24.9h9.7v-8.8H233v-1.2h12.8v-8.3h2.9v8.3h12.2v1.2zm6.2 21.6h-16.1v10.9H255zm0-11.6h-16.1v10.4H255zm-31.4 3.8q-3.15-2.7-6.6-4.5l-.7 1.1c2.1 1.4 4.1 3.1 5.9 5.1s3.4 4.1 4.7 6.3l2.1-2.3q-2.25-3-5.4-5.7m109.4 8c3.1-2.2 6.1-4.6 8.9-7.2 2.9-2.7 5.6-5.6 8-8.8l-2.7-2.4c-2.2 3.5-4.6 6.7-7.1 9.6-2.4 2.8-5 5.3-7.8 7.6-2.9-4.2-5.5-8.7-7.8-13.6v-16.5h-3.1v59c0 1.7-.3 2.9-1 3.6s-1.8 1.1-3.4 1.1h-7.6l.3 1.3h9.6c1.7 0 3-.5 3.9-1.4.9-1 1.4-2.4 1.4-4.3v-40.2c3.3 7.4 7.2 14.2 11.8 20.3 4.9 6.5 10.6 12.3 17.1 17.6l2.9-3.2c-4.8-3.6-9.2-7.2-13.1-10.9-3.9-3.5-7.3-7.4-10.3-11.6m-27.1 10.2c4.4-6.2 7.4-13 9-20.3v-1.3h-22v1.3h18.5q-2.1 10.65-7.8 19.5c-3.8 6-8.6 11-14.2 15.1l.8 1.2c6.1-4.1 11.3-9.3 15.7-15.5m97.6 5.7v-8.5h-15.7v-22h15.7v-7.8h-19V581h19v-6h3.1v6.1h18.9v1.2h-18.9v7.8h15.5v22h-15.5v8.5h19.5v1.2h-19.5v9.5h-3.1v-9.5h-19.6v-1.2zm15.8-19h-12.7v9.4h12.7zm-12.7-10.3v9.3h12.7v-9.3zm-3.1 0h-12.8v9.3h12.8zm0 19.7v-9.4h-12.8v9.4zm-19.6 22c-2.7-1.5-4.8-3.6-6.5-6.4v-19.4h-13.2v1.3h10.1v18c-1.9 1.2-3.8 2.6-5.7 4.4-2 1.9-3.8 3.8-5.2 5.8l2.6 2.1c1.3-2.1 2.8-4.3 4.7-6.4q2.4-2.85 4.8-4.8c1.8 3.4 4 6 6.8 7.8 3 1.9 6.6 2.9 10.7 2.9h33.6l.7-3.1h-33.8c-3.7.1-6.9-.7-9.6-2.2m-18.7-43.1c2.2 1.5 4.4 3.2 6.4 5.1s3.8 4 5.3 6.1l2.1-2.6c-1.6-1.9-3.6-3.6-5.9-5.3s-4.7-3.1-7.3-4.4zm13.4-1.5 2.1-2.4c-1.5-2-3.3-3.9-5.3-5.6s-4.2-3.3-6.5-4.7l-.7.9c2 1.6 4 3.4 5.8 5.4 1.7 2 3.3 4.1 4.6 6.4m62.1 51.2q6.15-13.2 9.9-27.9l-1.2-.6c-3 9.4-6.9 18.3-11.8 26.7zm2.5-40.6q3 3 5.1 6.3l2.2-2.6c-1.7-1.9-3.7-3.8-6-5.5s-4.7-3.2-7.2-4.5l-.6 1.1c2.3 1.6 4.5 3.3 6.5 5.2m52 10.2h6.4v1.3h-6.4l-.6 18.4h5.8v1.2h-5.8l-.2 4.7c-.1 1.9-.6 3.2-1.4 4.1-.9.9-2.2 1.3-3.9 1.3h-10.3l-.4-1.2h8.8c1.5 0 2.5-.3 3.2-1.1.7-.7 1-1.8 1.1-3.4l.2-4.5h-34.9v-1.2c1.9-5.7 3.4-11.8 4.6-18.4h-7.7v-1.3h8c1.1-6 2-12 2.6-17.9v-.1H496zm-2.3-16.8H481c-.2 5.9-.5 11.5-1 16.8h12.2zm-28.5 16.8h12.9c.4-5.3.8-10.9 1.1-16.8h-11.5c-.6 5.5-1.5 11.1-2.5 16.8m-4.6 19.7h15c1-5.7 1.8-11.6 2.4-17.5 0-.3 0-.6.1-.9h-13c0 .1 0 .3-.1.4-1.3 6.4-2.8 12.4-4.4 18m32.4-18.4h-12.3c0 .3-.1.6-.1 1-.5 5.9-1.3 11.7-2.3 17.4h14.1zm-29-36.3c-.6 3.7-1.7 7.4-3.2 11.1s-3.4 7-5.7 10l.9.9c2.8-3 5.2-6.4 7.2-10.1.7-1.4 1.4-2.8 2-4.2h34.8v-1.2h-34.3c.7-1.9 1.3-3.9 1.8-5.9zm-12 14.2 2.3-2.6c-1.7-1.9-3.8-3.8-6.1-5.6s-4.7-3.3-7.1-4.6l-.6 1c2.3 1.5 4.4 3.3 6.4 5.3 2 2.1 3.7 4.3 5.1 6.5m79.5-.5-3.2-1.7c-1 3.5-2.3 6.9-3.9 10.3-1.6 3.3-3.3 6.3-5.2 9l1.2.7c2.4-2.5 4.5-5.3 6.5-8.5 1.9-3.3 3.5-6.5 4.6-9.8m12.7-8.1h25v-1.3h-53v1.3h24.9v31.8h-29.7v1.3h29.7V640h3.1v-27.1h29.7v-1.3h-29.7zm18.3 26 3.1-2.1c-2.3-6.6-5.9-12.3-10.7-17.4l-1.1.7c3.7 5.4 6.7 11.7 8.7 18.8m52.3 2.5h1.1c-.1.8-.2 1.6-.4 2.3-.5 2.3-1.2 4.4-2.3 6.1s-2.5 3.3-4.3 4.6l.7.8c3.5-2.5 6-5.5 7.4-9 1.5-3.5 2.2-8.4 2.2-14.5H614zm48.1-9.3q3 3 5.1 6.3l2.2-2.6c-1.7-1.9-3.7-3.8-6-5.5q-3.45-2.55-7.2-4.5l-.6 1.1c2.4 1.6 4.5 3.3 6.5 5.2m6.1 12q.15 0 0 0m-8.6 28.6q6.15-13.2 9.9-27.9l-1.2-.6c-3 9.4-6.9 18.3-11.8 26.7zm6.8-59.3c-2.3-1.8-4.6-3.3-7.1-4.6l-.6 1c2.3 1.5 4.4 3.3 6.4 5.3 1.9 2 3.6 4.2 5 6.4l2.3-2.6c-1.7-1.9-3.7-3.8-6-5.5m15.7-6.1c-.6 3.7-1.7 7.4-3.2 11.1s-3.4 7-5.7 10l.9.9c2.8-3 5.2-6.4 7.2-10.1.7-1.4 1.4-2.8 2-4.2h34.8v-1.2h-34.3c.7-1.9 1.3-3.9 1.8-5.9zm32.1 35h6.4v1.3h-6.4l-.6 18.4h5.8v1.2h-5.9l-.2 4.7c-.1 1.9-.6 3.2-1.4 4.1-.9.9-2.2 1.3-3.9 1.3h-10.3l-.4-1.2h8.8c1.5 0 2.5-.3 3.2-1.1.7-.7 1-1.8 1.1-3.4l.2-4.5h-34.9v-1.2c1.9-5.7 3.4-11.8 4.6-18.4h-7.7v-1.3h8c1.1-6 2-12 2.6-17.9v-.1h31.7zm-2.4-16.8H700c-.2 5.9-.5 11.5-1 16.8h12.2zm-28.5 16.8h12.9c.4-5.3.8-10.9 1.1-16.8h-11.5c-.6 5.5-1.4 11.1-2.5 16.8m-4.6 19.7h14.9c1-5.7 1.8-11.6 2.4-17.5 0-.3 0-.6.1-.9h-13c0 .1 0 .3-.1.4-1.2 6.4-2.6 12.4-4.3 18m32.5-18.4h-12.3c0 .3-.1.6-.1 1-.5 5.9-1.3 11.7-2.3 17.4h14.1zM759 601h25.3v-1.3H759v-25.3h-3.3v60.9h-26v1.4h62v-1.4H759zm76.4-23.4h27.2v56c0 2.1-.5 3.7-1.5 4.7q-1.5 1.5-4.5 1.5h-8l-.2-1.3h6.6c1.6 0 2.8-.4 3.4-1.2.7-.8 1-2.2 1-4V617h-21.9q-.6 3.75-1.8 7.2c-1.9 5.8-4.8 11.2-8.9 16.2l-.9-1q4.95-6.9 7.2-15.3c1.5-5.6 2.2-11.8 2.2-18.6v-27.9zm24 38.2v-18h-20.9v7.3c0 3.7-.3 7.3-.8 10.7zm0-19.3v-17.7h-20.9v17.7zm-31.9 29.9h-23.1v-46.7h23.1zm-3.1-24.3V581h-16.9v21.1zm-16.9 1.2v21.8h16.9v-21.8zm80.5-25.6h41.2v55.2c0 2.2-.5 3.8-1.4 4.8s-2.4 1.5-4.4 1.5h-9l-.4-1.3h7.5c1.6 0 2.8-.4 3.5-1.3s1.1-2.2 1.1-4.1v-16.8h-35.2c-.5 3.7-1.3 7.2-2.5 10.4-2 5.3-5.1 10-9.2 14.2l-1-1.1c3.6-3.8 6.1-8.3 7.7-13.4s2.3-10.8 2.3-17.3v-30.8zm37.9 36.7v-17.3h-34.7v11.2c0 2.1-.1 4.1-.3 6.1zm0-18.5v-17h-34.7v17zm77.8 44.2 3.1-1.9c-2-3.4-4.5-6.8-7.6-10-3.1-3.3-6.5-6.5-10.3-9.6l-.9 1c3.5 3.2 6.5 6.6 9.2 10 2.7 3.5 4.9 7 6.5 10.5m-34.6-21.4c-1.8 3.8-4.2 7.4-7.2 10.7s-6.6 6.5-10.7 9.4l.8 1.2c4.5-2.8 8.5-5.9 11.9-9.2 3.5-3.3 6.3-6.8 8.5-10.6zm24.2-5.5h18.7v1.2h-64.5v-1.2h18.7v-19.9h-14.3V592h14.3v-17h3.1v17.1h21V575h3.1v17.1h14.3v1.3h-14.3v19.8zm-24.1 0h21v-19.9h-21zm97.8-7.5c0 7-.5 13.3-1.6 19-1 5.7-2.8 10.8-5.1 15.4l1 .7c2.9-4.6 5-9.8 6.3-15.7s2-12.3 2-19.3v-28.2h12v56.3c0 1.6-.3 2.8-.8 3.5-.6.7-1.5 1.1-2.7 1.1h-4.8l.4 1.3h5.8c1.6 0 2.8-.5 3.6-1.4.9-1 1.3-2.4 1.3-4.3v-57.9H1067zm-38.1-25.2c-2.2-1.9-4.4-3.4-6.7-4.7l-.7 1.2c2.1 1.5 4.1 3.2 6 5.2 1.8 2 3.4 4.1 4.7 6.4l2.2-2.3c-1.6-2.1-3.4-4-5.5-5.8m48.8 38.6 1.6-2.5c-2.1-2.6-4.5-4.8-7.1-6.5l-.7.9c2.4 2.2 4.4 4.9 6.2 8.1m1.6-21.9c-2.1-2.6-4.5-4.7-7.1-6.5l-.7.9c2.3 2.2 4.3 4.9 6.1 8zm-55.7 43.2c4.3-9.8 7.6-19.9 10-30.3l-1.2-.3c-2.8 9.7-6.7 19.2-11.8 28.7zm27.9-57.5v8.8h9v24.9h-9v8.9h12v1.2h-12v13.9h-2.9v-13.9h-14v-1.2h14v-8.9h-9.7v-24.9h9.7v-8.8h-12.8v-1.2h12.8v-8.3h2.9v8.3h12.2v1.2zm6.3 21.6h-16.1v10.9h16.1zm0-11.6h-16.1v10.4h16.1zm-38-.7-.7 1.1c2.1 1.4 4.1 3.1 5.9 5.1s3.4 4.1 4.7 6.3l2.1-2.3q-2.25-3-5.4-5.7t-6.6-4.5m107.5 19.6h20.6v-1.3h-20.6v-20.3h23.9V589h-23.9v-14.1h-3.4V589h-18.8c1.5-3.7 2.6-7.4 3.4-11.3l-3.8-.9c-.7 5.2-2 10.2-3.9 15.1s-4.6 9.5-8 13.8l1.1 1c3.8-4.1 7-8.6 9.4-13.5.5-.9.9-1.9 1.3-2.9h19.3v20.3h-20.1v1.3h20.1V635H1094v1.4h63.2V635h-29.9zm80.4-9.6c.9 1.6 1.4 3.4 1.4 5.3s-.5 3.6-1.4 5.3c-.9 1.6-2.2 2.9-3.8 3.8s-3.4 1.4-5.3 1.4-3.6-.5-5.3-1.4c-1.6-.9-2.9-2.2-3.8-3.8s-1.4-3.4-1.4-5.3.5-3.6 1.4-5.3c.9-1.6 2.2-2.9 3.8-3.8s3.4-1.4 5.3-1.4 3.6.5 5.3 1.4c1.6.9 2.9 2.2 3.8 3.8m-.5 5.3c0-2.4-.8-4.4-2.5-6.1s-3.7-2.5-6.1-2.5-4.4.8-6.1 2.5c-1.6 1.7-2.5 3.7-2.5 6.1s.8 4.4 2.5 6.1c1.7 1.6 3.7 2.5 6.1 2.5s4.4-.8 6.1-2.5 2.5-3.8 2.5-6.1m-1071.6 102-1.2 1.9c-5.2-3.6-9.7-7.5-13.6-11.9v24.7H87.2v-25.1q-6.15 6.45-14.4 12l-.4-.6q9.45-6.45 15.9-14.4c2.3-2.8 4.3-5.8 6-8.8h-21v-.7h21.4c1.4-2.5 2.6-5 3.7-7.7.3-.8.6-1.7.9-2.5H81.9v-.7h17.7c1.1-3.1 2-6.3 2.7-9.7h-22v-.7h22.1c.5-2.2.9-4.5 1.2-6.8l2 .2c-.3 2.3-.7 4.4-1.2 6.6h23.1v.7h-23.3c-.8 3.4-1.7 6.6-2.8 9.7H126v.7h-18q1.95 5.4 4.8 10.2h21.8v.7h-21.3c1.5 2.5 3.3 5 5.2 7.3 4.6 5.7 10.3 10.6 17.1 14.9m-39.2-22.8h15.3c-1.7-3.2-3.2-6.7-4.4-10.2h-6.1c-.4 1-.7 2.1-1.2 3q-1.5 3.75-3.6 7.2m22.5 12H89.1v11.9h29.8zm-29.8 12.7v12.2h29.8v-12.2zm30.3-13.4c-.6-.7-1.2-1.5-1.8-2.2-2-2.6-3.9-5.4-5.5-8.3H96c-1.9 3.3-4.1 6.4-6.6 9.4-.4.4-.7.8-1.1 1.2h31.1zm28 23.1 1.7 1.5c2.8-4.6 5.2-9.2 7.1-13.9 2-4.7 3.6-9.4 5-14.2l-.7-.2c-3 9.7-7.4 18.6-13.1 26.8m9.6-30.9 1.3-1.8c-1.6-1.9-3.6-3.7-5.8-5.4-2.3-1.7-4.7-3.2-7.1-4.5l-.3.6c2.3 1.4 4.5 3.1 6.6 5s3.9 3.9 5.3 6.1m-1-24.6c-2.3-1.7-4.7-3.1-7.2-4.4l-.2.6c2.4 1.4 4.6 3 6.7 4.9s3.9 3.9 5.3 6.1l1.2-1.7c-1.6-2-3.5-3.9-5.8-5.5m30.7 2.6h17.5v-.7h-37.1v.7h17.5v50.4h-22.4v.7h46.1v-.7h-21.7v-50.4zm88.7 16.1 1.1-1.5q-3.3-4.05-7.2-6.6l-.4.6c2.4 2 4.6 4.5 6.5 7.5m-10.7 5.8c0 7.1-.5 13.5-1.6 19.3-1 5.8-2.7 11.1-5.1 15.8l.6.2c2.7-4.7 4.6-10 5.9-16 1.2-5.9 1.9-12.4 1.9-19.5v-27.7h13.1v57.1c0 1.7-.3 2.9-.9 3.7s-1.6 1.2-2.9 1.2h-4.8l.2.7h5.4c1.6 0 2.8-.5 3.6-1.4.8-1 1.2-2.4 1.2-4.3v-57.7h-16.4v28.6zm-37.8-.8 1.4-1.4c-1.4-1.9-3.1-3.7-5.1-5.5-2.1-1.8-4.2-3.3-6.4-4.6l-.4.5c2.1 1.4 4.1 3.1 5.9 5s3.3 3.9 4.6 6m-1.1-23.5c-2.1-1.8-4.2-3.3-6.4-4.7l-.4.6c2.1 1.4 4 3.1 5.8 5s3.4 3.9 4.6 6.1l1.5-1.3q-1.95-3-5.1-5.7m-7.4 58.1 1.9 1.2c4.5-9.8 8-19.7 10.5-29.8l-.7-.2q-4.2 14.4-11.7 28.8m29.9-12.2v14.1h-1.8v-14.1h-14.7v-.7h14.7v-9.3h-9.9v-24.5h9.9V668H233v-.7h13.5v-8.5h1.8v8.5h12.8v.7h-12.8v9.2h9.2v24.5h-9.2v9.3h12.3v.7zm-10-22.2v11.4h17.4v-11.4zm17.5-.7v-11h-17.4v11zm20.7 13.6q-3.3-4.05-7.2-6.6l-.4.5c2.4 2 4.5 4.6 6.5 7.6zm56.1-12.2c3.2-2.4 6.1-4.9 8.9-7.6 2.8-2.8 5.4-5.8 7.7-9l-1.6-1.5q-3.3 5.25-7.2 9.6c-2.5 2.8-5.2 5.5-8.2 7.9-3.1-4.3-5.9-9-8.4-14v-17h-2v59.1c0 1.8-.4 3-1.1 3.8s-1.9 1.2-3.5 1.2h-7.7l.1.7h8.7c1.8 0 3.1-.5 4-1.5s1.4-2.4 1.4-4.3v-40.7q5.4 11.55 12.6 20.7c5.1 6.5 11.1 12.3 17.9 17.5l1.7-1.9c-4.8-3.5-9.2-7.1-13.1-10.9-3.6-3.7-7-7.7-10.2-12.1m-17.7-11.5h-21.7v.7h19.5c-1.5 7.4-4.3 14-8.3 20s-9 11.1-14.7 15.1l.4.5c6.1-4 11.4-9.1 15.7-15.2 4.4-6.1 7.4-12.9 9.1-20.4zm68.5 40.2c-2.7-1.5-4.8-3.9-6.5-7v-19.5h-12.6v.7h10.6v18.7c-1.9 1.3-3.9 2.8-5.9 4.6-2.1 1.9-3.8 3.8-5.2 5.7l1.6 1.2c1.2-1.9 2.8-3.9 4.7-5.9 1.9-1.9 3.7-3.6 5.5-5.1 1.7 3.5 3.9 6.2 6.8 8s6.4 2.8 10.5 2.8h33.8l.4-1.9h-34c-3.7.1-7-.7-9.7-2.3m20.7-12.7v-8.8h-15.8v-21.9h15.8v-8.3h-19.5v-.7h19.5v-6.3h1.9v6.3h19.5v.7H406v8.3h15.7v21.9H406v8.8h20v.7h-20v10h-1.9v-10h-20v-.7zm15.8-19.6H406v10h13.9zM406 676.2v9.7h13.9v-9.7zm-1.9 0h-14v9.7h14zm0 20.4v-10h-14v10zm-38.4-21.7c2.2 1.4 4.3 2.9 6.2 4.8 1.9 1.8 3.7 3.8 5.3 5.8l1.4-1.5c-1.6-1.9-3.5-3.7-5.7-5.3s-4.5-3.1-6.9-4.3zm8.5-8c1.7 1.9 3.3 3.9 4.6 6.1l1.3-1.5c-1.5-1.9-3.2-3.8-5.1-5.5s-3.9-3.3-6-4.7l-.4.5c2 1.5 3.8 3.2 5.6 5.1m120.6 27.7h6.7v.7h-6.7l-.7 19.1h6v.7h-6l-.2 4.3q-.15 3-1.5 4.5c-.9.9-2.3 1.4-4.2 1.4h-8.8l-.2-.7h7.9c1.7 0 2.8-.4 3.6-1.2q1.05-1.2 1.2-3.9l.1-4.4h-35.1v-.7c1.8-5.7 3.3-11.8 4.6-18.3 0-.2.1-.5.1-.7h-8.2v-.7h8.3c1.1-6 2.1-12.1 2.7-18.2h30.7zm-1.3-17.4h-12.9c-.2 6.1-.6 11.9-1 17.4h13.3zm-29.7 17.4h14.1c.5-5.5.8-11.3 1-17.4h-12.5c-.7 5.8-1.5 11.6-2.6 17.4m-4.7 19.8h16.2c1-5.9 1.9-11.9 2.4-18 0-.4.1-.7.1-1.1h-14.2c-.1.3-.1.6-.2.9-1.1 6.5-2.6 12.6-4.3 18.2m33.8-19h-13.3c0 .4-.1.8-.1 1.2-.6 6.1-1.3 12-2.4 17.9h15.2zm-29.1-35.6c-.6 3.6-1.7 7.2-3.1 10.9-1.4 3.6-3.3 7-5.7 9.9l.6.4q3.9-4.35 6.6-9.9c.7-1.5 1.3-2.9 1.9-4.3h34.8v-.8h-34.5c.7-2 1.3-3.9 1.8-5.8zM443.5 684c2 1.9 3.7 3.8 5.1 5.8l1.5-1.5c-1.6-1.8-3.5-3.6-5.7-5.3s-4.5-3.2-6.9-4.4l-.3.5c2.2 1.4 4.3 3 6.3 4.9m4.3-18.4c-2.2-1.7-4.5-3.2-6.9-4.4l-.3.5c2.2 1.4 4.3 3.1 6.3 4.9 2 1.9 3.7 3.8 5.1 5.9l1.5-1.5q-2.4-2.7-5.7-5.4m2.1 31.2c-3.1 9-7 17.7-11.7 26.2l1.9 1.2c4.2-8.6 7.7-17.6 10.4-27.2zm92.9-32.3h25v-.7h-52v.7h25V697h-30v.7h30V725h1.9v-27.3h30v-.7h-30v-32.5zm-12.6 7.9-2-.9q-1.35 5.25-3.6 10.2-2.25 5.1-5.1 9l.5.4c2.1-2.5 4.1-5.4 5.9-8.7 1.8-3.4 3.2-6.7 4.3-10m32 18.5 1.9-1.2c-2.2-6.9-5.5-12.9-9.9-18.1l-.6.4c3.7 5.4 6.6 11.7 8.6 18.9m55.5-7h-2.4v9.1h.1c-.1.7-.2 1.3-.3 1.9-.5 2.6-1.4 4.8-2.5 6.7-1.1 1.8-2.7 3.5-4.8 5l.4.6c3.5-2.4 6-5.4 7.4-8.9q2.1-5.25 2.1-14.4m51.1 12.9c-3.1 9-7 17.7-11.7 26.2l1.9 1.2c4.2-8.6 7.7-17.6 10.4-27.2zm-6.4-12.8c2 1.9 3.7 3.8 5.1 5.8l1.5-1.5c-1.6-1.8-3.5-3.6-5.7-5.3s-4.5-3.2-6.9-4.4l-.3.5c2.3 1.4 4.4 3 6.3 4.9m4.3-18.4c-2.2-1.7-4.5-3.2-6.9-4.4l-.3.5c2.2 1.4 4.3 3.1 6.3 4.9 2 1.9 3.7 3.8 5.1 5.9l1.5-1.5c-1.6-1.8-3.5-3.7-5.7-5.4m47 29h6.7v.7h-6.7l-.7 19.1h6v.7h-6l-.2 4.3q-.15 3-1.5 4.5c-.9.9-2.3 1.4-4.2 1.4h-8.8l-.2-.7h7.9c1.7 0 2.8-.4 3.6-1.2q1.05-1.2 1.2-3.9l.1-4.4h-35.1v-.7c1.8-5.7 3.3-11.8 4.6-18.3 0-.2.1-.5.1-.7h-8.2v-.7h8.3q1.65-9 2.7-18v-.1H714zm-1.3-17.4h-12.8c-.2 6.1-.6 11.9-1 17.4h13.3zm-29.7 17.4h14.1c.5-5.5.8-11.3 1-17.4h-12.5c-.6 5.8-1.5 11.6-2.6 17.4m-4.7 19.8h16.2c1-5.9 1.9-11.9 2.4-18 0-.4.1-.7.1-1.1h-14.2c-.1.3-.1.6-.2.9-1.1 6.5-2.6 12.6-4.3 18.2m33.8-19h-13.3c0 .4-.1.8-.1 1.2-.6 6.1-1.3 12-2.4 17.9h15.1zm-29.1-35.6c-.6 3.6-1.7 7.2-3.1 10.9-1.4 3.6-3.3 7-5.7 9.9l.6.4q3.9-4.35 6.6-9.9c.7-1.5 1.3-2.9 1.9-4.3h34.8v-.8h-34.5c.7-2 1.3-3.9 1.8-5.8zm75.6 26h25.8v-.7h-25.8v-25.5h-2V721H730v.7h61.5v-.7h-33.2zm68.7 25.6h-22.3V665H827zm-1.9-23.9v-21.7h-18.4v21.7zm-18.4.7v22.5h18.4v-22.5zm28.9-25.3h26.5v56c0 2-.5 3.5-1.4 4.5s-2.4 1.5-4.3 1.5h-7.7l-.2-.7h6.9c1.7 0 2.8-.4 3.6-1.2.7-.8 1.1-2.1 1.1-4v-17h-23.7c-.4 2.4-.9 4.8-1.6 7-1.7 5.8-4.5 11.3-8.2 16.3l-.6-.4q4.95-7.35 7.2-15.9c1.5-5.7 2.3-12 2.3-18.9v-27.2zm24.6 38.4v-18.6h-22.6v7.1c0 4.1-.3 7.9-.9 11.5zm0-19.4v-18.3h-22.6v18.3zm68.4-19v55.3c0 2-.5 3.5-1.4 4.5s-2.4 1.5-4.3 1.5h-8.4l-.2-.7h7.6c1.7 0 2.8-.4 3.6-1.2.7-.8 1.1-2.2 1.1-4v-17.7H890q-.6 5.55-2.4 10.5c-1.9 5.3-4.8 9.9-8.7 14.1l-.5-.4c3.5-4 6.1-8.5 7.7-13.7 1.6-5.1 2.4-10.9 2.4-17.2V663h40.1zm-2 .8h-36.2v17.5h36.2zm0 36.1v-17.9h-36.2v11.7c0 2.1-.1 4.2-.3 6.1h36.5zm35.9 14.7c-3.2 3.4-6.8 6.6-10.9 9.6l.4.5c4.4-2.9 8.3-6 11.8-9.3s6.2-6.8 8.2-10.4l-2-.9q-2.85 5.55-7.5 10.5m30.2-15.8h19.1v.7h-64.2v-.7h19.1v-20.4H952v-.7h14.7v-17.4h1.9v17.4h22.2v-17.4h1.9v17.4h14.7v.7h-14.7zm-24.1 0h22.2v-20.4h-22.2zm20 5.2-.4.5c3.6 3.2 6.7 6.6 9.6 10 2.8 3.5 5.1 6.9 6.7 10.4l1.9-1.2c-1.9-3.3-4.4-6.7-7.4-10.1-3.2-3.2-6.6-6.5-10.4-9.6m40-38.1c-2.1-1.8-4.2-3.3-6.4-4.7l-.4.6c2.1 1.4 4 3.1 5.8 5s3.4 3.9 4.6 6.1l1.5-1.3c-1.3-2-3.1-3.9-5.1-5.7m49.6 18.5 1.1-1.5q-3.3-4.05-7.2-6.6l-.4.6c2.4 2 4.5 4.5 6.5 7.5m1.1 18.1q-3.3-4.05-7.2-6.6l-.4.5c2.4 2 4.5 4.6 6.5 7.6zm-11.9-12.3c0 7.1-.5 13.5-1.6 19.3s-2.7 11.1-5.1 15.8l.6.2c2.7-4.7 4.6-10 5.9-16 1.2-5.9 1.9-12.4 1.9-19.5v-27.7h13.1v57.1c0 1.7-.3 2.9-.9 3.7s-1.6 1.2-2.9 1.2h-4.8l.2.7h5.4c1.6 0 2.8-.5 3.6-1.4.8-1 1.2-2.4 1.2-4.3v-57.7h-16.4v28.6zm-37.8-.8 1.4-1.4c-1.4-1.9-3.1-3.7-5.1-5.5-2.1-1.8-4.2-3.3-6.4-4.6l-.4.5c2.1 1.4 4.1 3.1 5.9 5s3.4 3.9 4.6 6m-8.4 34.6 1.9 1.2c4.5-9.8 8-19.7 10.5-29.8l-.7-.2q-4.2 14.4-11.7 28.8m29.9-12.2v14.1h-1.8v-14.1h-14.7v-.7h14.7v-9.3h-9.9v-24.5h9.9V668h-13.5v-.7h13.5v-8.5h1.8v8.5h12.8v.7h-12.8v9.2h9.2v24.5h-9.2v9.3h12.3v.7zm7.4-33.9h-17.4v11h17.4zm-17.4 11.7v11.4h17.4v-11.4zm85.6 7.2h21.1v-.7h-21.1v-20.8h24.1v-.7h-24.1v-14.3h-2v14.3h-20.3c1.5-3.8 2.6-7.8 3.3-11.8l-2.3-.6c-.6 5.2-2 10.3-4 15.2s-4.7 9.6-8 13.9l.5.4c3.7-4.2 6.7-8.7 9-13.7l1.2-2.7h20.6V696h-20.9v.7h20.9v23.9h-30.4v.7h62.8v-.7h-30.4zm80.8-9.2c.9 1.6 1.4 3.3 1.4 5.1 0 1.9-.5 3.6-1.4 5.2s-2.2 2.8-3.7 3.7c-1.6.9-3.3 1.4-5.1 1.4s-3.6-.5-5.2-1.4-2.8-2.2-3.7-3.7c-.9-1.6-1.4-3.3-1.4-5.1 0-1.9.5-3.6 1.4-5.2s2.2-2.8 3.7-3.7c1.6-.9 3.3-1.4 5.1-1.4s3.6.5 5.2 1.4 2.8 2.1 3.7 3.7m.2 5.1c0-2.5-.9-4.7-2.6-6.4s-3.9-2.6-6.4-2.6-4.7.9-6.4 2.6-2.6 3.9-2.6 6.4.9 4.7 2.6 6.4 3.9 2.6 6.4 2.6 4.7-.9 6.4-2.6 2.6-3.9 2.6-6.4" style="fill:#fbfbfb"/><path d="m70.9 791.7 3.4 5.5c4.8-3.4 9-7.1 12.7-11.1v24.6h34v-25c4.5 4.1 9.5 7.8 15 10.9l1.2-2.2c-6.2-4-11.5-8.8-15.8-14.2-1.4-1.7-2.6-3.5-3.8-5.4h17v-4.7H115c-1.1-2-2-4.2-2.9-6.4h14.2v-4.3h-23.9c.7-2 1.2-4.1 1.8-6.3h23.7v-4.5H105c.3-1.6.6-3.3.9-5l-2.4-.3c-.3 1.8-.7 3.5-1.1 5.3H80.2v4.5h21c-.6 2.1-1.4 4.2-2.3 6.3H81.7v4.3H97c-1.1 2.2-2.2 4.3-3.5 6.4H73.3v4.7h17.1c-1 1.4-2.1 2.7-3.3 4-4.5 4.9-9.9 9.3-16.2 12.9m47.7 2H89.4v-7.5h29.2zm0 4.4v7.7H89.4v-7.7zm-18.5-32.9c.2-.5.4-1.1.6-1.6h4.5c1 2.2 2 4.3 3.2 6.4H98c.7-1.6 1.5-3.2 2.1-4.8m11.3 9.4c1.7 2.4 3.5 4.7 5.5 6.9H90.8c1.7-2.2 3.3-4.5 4.7-6.9zm43-19.8c-2.4-1.6-4.9-2.9-7.4-3.9l2.2-5.6c2.6 1.5 5 3.4 7.3 5.7s4.2 4.7 5.7 7.3l-1.2 2c-2.1-2.1-4.2-3.9-6.6-5.5m-2.8 16c-2.5-1.4-5.1-2.5-7.7-3.4l2.3-5.6c2.5 1.4 5 3.1 7.4 5.1s4.5 4.2 6.2 6.6l-1.4 2c-1.9-1.8-4.2-3.4-6.8-4.7m32.8-13.9H167v-5.8h37.4v5.8H187v42.8h21.5v5.9h-46.3v-5.9h22.2zm-26.3 21.9 6.2 3.3c-2.2 4.8-4.7 9.6-7.6 14.2-2.9 4.7-6.1 9.3-9.8 13.8l-2-1.7c5.7-8.6 10.1-18.5 13.2-29.6m64.8-8.8c-2.2-1.4-4.5-2.7-7.1-3.7l2.9-5.3c2.1 1.5 4.2 3.2 6.2 5.3s3.7 4.3 5.2 6.6l-1.5 1.8c-1.6-1.7-3.5-3.2-5.7-4.7m33.1 37.8q4.8-6 6.6-13.2t1.8-16.5v-32.2h16.9v58.4c0 2.1-.5 3.7-1.5 4.9-1 1.1-2.4 1.7-4.2 1.7H271l-1.5-5.7h6.4q1.65 0 2.4-.9c.5-.6.8-1.7.8-3.2V751h-12.6v30.3c0 6.4-.5 12.1-1.4 17.1-.9 5.1-2.6 9.6-4.9 13.6zm-31.3-53.1c-2.3-1.7-4.6-3.1-7-4.2l2.9-5.5c2.2 1.6 4.3 3.6 6.4 5.9 2 2.4 3.8 4.8 5.2 7.5l-1.4 1.6c-1.8-1.9-3.8-3.7-6.1-5.3m1.8 24.1 5.6 2.3c-3.3 10.4-7.7 20.5-13.3 30.3l-2.1-1.4c4.6-9.8 7.8-20.2 9.8-31.2m19.7-18.6h-10.4v27.4h10.4v6.1h-14.5v5h14.5v12.6h2.3v-12.6h12v-5h-12v-6.1h9.6v-27.4h-9.6v-6h12.8v-4.8h-12.8v-6h-2.3v6h-13.3v4.8h13.3zm9.8 22.9h-17.9V776H256zm0-11.6h-17.9v-6.8H256zm12.2 11.4 2.6-4.2c2.3 2.4 4.3 5.4 6 8.8l-1.2 1.7c-2.2-2.6-4.6-4.7-7.4-6.3m0-18.2 2.6-4.1c2.3 2.3 4.3 5.3 6 8.8l-1.2 1.7c-2.2-2.8-4.6-4.9-7.4-6.4m40 40.3h9.3c1.5 0 2.5-.4 3.1-1.1s.9-1.9.9-3.4v-56.8h2.5v14.5c1.9 4.5 4.2 8.8 6.7 12.8 3-1.8 5.9-3.9 8.6-6.4 3-2.6 5.6-5.6 7.8-8.9l2 1.6c-2.2 3.9-4.7 7.5-7.3 10.8-2.3 3-4.9 5.7-7.6 8.1 2.7 3.7 5.6 7.3 8.7 10.5 3.9 4.1 8.4 8.2 13.4 12.1l-1.8 2.3c-7.1-4.7-13.3-9.9-18.5-15.5-4.7-5.2-8.7-11-12-17.3V804c0 1.9-.4 3.3-1.3 4.3s-2.2 1.5-4 1.5h-9.1zm-4.5-21.5c3.9-4.8 6.8-10.2 8.6-16.1h-19.2V762h21.7v5.3c-1.7 6.9-4.5 13.4-8.6 19.6s-8.9 11.3-14.4 15.5l-3-6.6c5.9-3.3 10.9-7.4 14.9-12.3m61.2 26-2-1.5c1.6-2.7 3.5-5.4 5.6-8 2-2.4 4.1-4.5 6.1-6.3V782h-10.4v-5.3H377v17.6c1.8 3.9 4.1 6.8 6.7 8.7 2.8 2 6.1 3 10.1 3h33.4l-.5 2.5H393c-4.3 0-8.1-.8-11.3-2.3-2.6-1.3-4.8-3.1-6.6-5.5-1.4.9-2.8 2-4.3 3.2-2.1 1.7-4.2 3.6-5.9 5.6m6.8-42.3c-2.3-1.5-4.7-2.8-7.4-3.9l3.1-4.6c2.4 1.6 4.6 3.3 6.6 5.2s3.8 4 5.4 6.4l-1.5 1.7c-1.9-1.7-4-3.3-6.2-4.8m2-13.3c-2.1-1.6-4.4-3-6.9-4.3l3.6-4.5c2 1.7 4 3.5 5.7 5.6 1.8 2.1 3.4 4.3 4.9 6.8l-1.5 1.7c-1.7-2.1-3.7-3.8-5.8-5.3m30.1 48.2h2.5v-7.3H426v-5h-19.8v-5.6h16.2v-24.3h-16.2v-5.2h19.2v-4.9h-19.2v-4.6h-2.5v4.6h-19.2v4.9h19.2v5.2h-16.3v24.3h16.3v5.6H384v5h19.8zm16.3-22.2h-13.9v-6.2h13.9zm0-15.8v6.1h-13.9v-6.1zm-16.3 6h-14V764h14zm-14 9.8v-6.2h14v6.2zm55.1-25.4c-2.3-1.7-4.7-3.1-7.2-4.3l3.1-5.3c2.2 1.7 4.4 3.7 6.4 6.1 2 2.3 3.7 4.8 5.1 7.3l-1.5 1.8c-1.7-2.1-3.7-3.9-5.9-5.6m56.6 28.2v-5.1h-6.4l.6-17.3h-31.6v.2c-.6 5.5-1.5 11.2-2.6 17.2h-7.8v5.1h6.8q-1.5 7.2-3.6 13.8v4.6h34.9l-.1 2.2c-.1 1.2-.4 2-.9 2.6s-1.4.8-2.5.8H476l1.1 4.4h11.8c1.6 0 2.8-.4 3.7-1.2s1.3-2.1 1.4-3.8l.2-5h5.9v-4.6h-5.7l.5-13.8h6.6zm-8.8-5.1h-12.9c.3-4.2.6-8.5.8-13h12.6zm-26.8-13h12.4c-.2 4.5-.5 8.9-.8 13h-13.6c.8-4.4 1.4-8.7 2-13m11.1 18.1q-.75 7.05-1.8 13.8h-15.8c1.3-4.4 2.5-9 3.5-13.8zm15 13.8h-14.5q1.05-6.75 1.8-13.8h13.2zm-35.1-28.7-4.4-5.1c2.8-2.7 5.1-5.6 7-8.8q2.7-4.8 4.2-9.9l2.6.4c-.3 1.8-.8 3.6-1.2 5.3H499v4.7h-35.4l-.9 2.4c-1.5 4.1-3.5 7.7-5.8 11m-13.9 2.3c-2.3-1.6-4.8-2.9-7.3-3.9l2.8-5.1c2.3 1.6 4.6 3.4 6.7 5.5s4 4.5 5.5 6.9l-1.4 1.8c-1.9-1.8-4-3.5-6.3-5.2m2.7 9.3 5.8 2.5c-3.4 10.3-7.8 19.9-13.3 28.8l-2.2-1.2c4.4-9.3 7.6-19.3 9.7-30.1m82.5-11.8c-1.4 3.1-2.9 5.9-4.7 8.5l-5.6-2.7c2.2-2.1 4.3-4.6 6.2-7.4s3.6-5.7 5-8.9l2.3 1c-.8 3.3-1.8 6.4-3.2 9.5m22.2-6.9 5.8-3.4c3.8 5.3 6.6 11.1 8.4 17.5l-2.2 1.2q-4.5-9-12-15.3m-9.8 24.6h-29.9V780h29.9v-27.1h-24.9v-5.1H568v5.1h-25V780h29.8v5.3H543v25.6h-2.5v-25.6zm75.2-4.3c.3-.8.6-1.7.8-2.6h-4.7v-9.5h7.6v.1c0 6.1-.5 10.9-1.5 14.3-1 3.5-2.9 6.7-5.6 9.5l-3.6-3.3c1.7-1.1 3.1-2.3 4.3-3.7q1.65-2.1 2.7-4.8m46.1-10.9c-2.3-1.6-4.8-2.9-7.3-3.9l2.8-5.1c2.3 1.6 4.6 3.4 6.7 5.5s4 4.5 5.5 6.9l-1.4 1.8c-1.9-1.8-3.9-3.5-6.3-5.2m2.7 9.3 5.8 2.5c-3.4 10.3-7.8 19.9-13.3 28.8l-2.2-1.2c4.4-9.3 7.6-19.3 9.7-30.1m-.8-24.9c-2.3-1.7-4.7-3.1-7.2-4.3l3.1-5.3c2.2 1.7 4.4 3.7 6.4 6.1 2 2.3 3.7 4.8 5.1 7.3l-1.5 1.8c-1.6-2.1-3.6-3.9-5.9-5.6m56.6 28.2v-5.1H714l.6-17.3H683v.2c-.6 5.5-1.5 11.2-2.6 17.2h-7.8v5.1h6.8q-1.5 7.2-3.6 13.8v4.6h34.9l-.1 2.2c-.1 1.2-.4 2-.9 2.6s-1.4.8-2.5.8H695l1.1 4.4h11.8c1.6 0 2.8-.4 3.7-1.2s1.3-2.1 1.4-3.8l.2-5h5.9v-4.6h-5.7l.5-13.8h6.5zm-8.8-5.1h-12.9c.3-4.2.6-8.5.8-13H712zm-26.8-13h12.4c-.2 4.5-.5 8.9-.8 13h-13.6c.8-4.4 1.5-8.7 2-13m11.2 18.1q-.75 7.05-1.8 13.8h-15.8c1.3-4.4 2.5-9 3.5-13.8zm14.9 13.8h-14.5q1.05-6.75 1.8-13.8h13.2zm-35.1-28.7-4.4-5.1c2.8-2.7 5.1-5.6 7-8.8q2.7-4.8 4.2-9.9l2.6.4c-.3 1.8-.8 3.6-1.2 5.3h33.9v4.7h-35.4l-.9 2.4c-1.5 4.1-3.4 7.7-5.8 11m115.8 40.1h-61.7v-5.7H756v-57.9h2.6v23.3h25.5v5.5h-25.5v29.1h33zm35.7-59.1h-22.6v48.7h22.6zm-20.2 21.4v-16.4h17.7v16.4zm17.7 5v17h-17.7v-17zm3.8 36.2c3.4-4.4 5.8-9.4 7.2-14.9q1.05-3.75 1.5-8.1h22.5v12.1c0 1.7-.3 2.8-1 3.5s-1.9 1.1-3.6 1.1h-7.6l1.2 5.7h7.1c2.2 0 3.8-.6 4.8-1.7q1.5-1.65 1.5-5.4v-57.5h-26.8v30.5q0 9.3-2.4 16.5c-1.6 4.8-4.3 9-8.2 12.7zm9.2-27.9c.1-1.8.2-3.6.2-5.4v-8.5h21.8v13.9zm.2-18.8v-13.4h21.8v13.4zm50.5 33c.9-2.9 1.5-6.2 1.9-9.6h35.9V800c0 1.7-.4 2.9-1.1 3.7-.7.7-2 1.1-3.9 1.1h-8l1.4 5.7h7.7c2.2 0 3.8-.6 4.9-1.9 1.1-1.2 1.6-3.1 1.6-5.5v-56.8h-40.6V778c0 6.3-.9 11.6-2.7 16.1-1.8 4.4-4.7 8.2-8.6 11.4l3.7 5.9c3.6-4.1 6.2-8.6 7.8-13.7m2.2-14.9c0-.8.1-1.6.1-2.4v-10.7h35.5v13.1zm.1-18.5v-12.9h35.5v12.9zm79.1 25 2.3 1c-1.9 4.2-4.4 8-7.5 11.5-3 3.5-6.6 6.6-10.6 9.3l-3.1-5.6c4.1-2.1 7.7-4.6 10.9-7.3s5.9-5.7 8-8.9m21.8 0c3.3 3.3 6.3 6.7 8.9 10.2s4.8 7 6.5 10.5l-2.3 1.2c-2.1-3.3-4.7-6.4-7.7-9.4q-4.65-4.5-10.5-8.7zm20.2-8.1H993v-16h14.5v-5.3H993v-15.3h-2.5v15.3h-21.6v-15.3h-2.5v15.3h-14.5v5.3h14.5v16h-18.9v5.3h64.4zm-43-15.9h21.6v16h-21.6zm80.1-5.1h-10.4v27.4h10.4v6.1h-14.5v5h14.5v12.6h2.3v-12.6h12v-5h-12v-6.1h9.6v-27.4h-9.6v-6h12.8v-4.8h-12.8v-6h-2.3v6h-13.3v4.8h13.3zm9.7 22.9h-17.9V776h17.9zm0-11.6h-17.9v-6.8h17.9zm-31.3-16.8c-2.3-1.7-4.6-3.1-7-4.2l2.9-5.5c2.2 1.6 4.3 3.6 6.4 5.9 2 2.4 3.8 4.8 5.2 7.5l-1.4 1.6c-1.8-1.9-3.8-3.7-6.1-5.3m1.9 24.1 5.6 2.3c-3.3 10.4-7.7 20.5-13.3 30.3l-2.1-1.4c4.5-9.8 7.8-20.2 9.8-31.2m-3.7-8.8c-2.2-1.4-4.5-2.7-7.1-3.7l2.9-5.3c2.1 1.5 4.2 3.2 6.2 5.3s3.7 4.3 5.2 6.6l-1.5 1.8c-1.6-1.7-3.5-3.2-5.7-4.7m45.3 12.9 2.6-4.2c2.3 2.4 4.3 5.4 6 8.8l-1.2 1.7c-2.1-2.6-4.6-4.7-7.4-6.3m-12.2 24.9q4.8-6 6.6-13.2t1.8-16.5v-32.2h16.9v58.4c0 2.1-.5 3.7-1.5 4.9-1 1.1-2.4 1.7-4.2 1.7h-4.5l-1.5-5.7h6.4q1.65 0 2.4-.9c.5-.6.8-1.7.8-3.2V751h-12.6v30.3c0 6.4-.5 12.1-1.4 17.1-.9 5.1-2.6 9.6-4.9 13.6zm12.2-43.1 2.6-4.1c2.3 2.3 4.3 5.3 6 8.8l-1.2 1.7c-2.1-2.8-4.6-4.9-7.4-6.4m21.5 7.5c3.7-3.7 6.7-7.8 9-12.1q3.45-6.45 4.5-13.5l2.6.5c-.4 3.4-1.1 6.7-1.9 9.9h17.7v-12.5h2.6V757h24.8v5.3H1127v16.4h21.5v5.3H1127v18.4h30.7v5.5h-64.1v-5.5h30.7V784h-19.9v-5.3h19.9v-16.4H1105c-.2.4-.3.9-.4 1.4-1.9 5.2-4.3 9.9-7.3 14.1zm100.8 14.9c1.7 1 3.5 1.5 5.5 1.5s3.8-.5 5.5-1.5c1.6-1 3-2.3 3.9-3.9 1-1.7 1.5-3.5 1.5-5.5s-.5-3.8-1.5-5.5q-1.5-2.55-3.9-3.9c-1.7-1-3.5-1.5-5.5-1.5s-3.8.5-5.5 1.5-3 2.3-3.9 3.9c-1 1.7-1.5 3.5-1.5 5.5s.5 3.8 1.5 5.5q1.35 2.55 3.9 3.9m.1-14.7c1.5-1.4 3.2-2.2 5.3-2.2s3.9.7 5.4 2.2c1.4 1.5 2.2 3.2 2.2 5.3s-.7 3.9-2.2 5.4c-1.5 1.4-3.2 2.2-5.3 2.2s-3.9-.7-5.4-2.2c-1.4-1.5-2.2-3.2-2.2-5.3s.8-4 2.2-5.4M124 864.7l-2.1-3h13.2v-8.5h-18c-.4-.8-.8-1.7-1.1-2.6h10.7v-7.8H104c.3-1 .6-1.9.8-2.9h23.5v-8.1h-21.8c.2-1.1.4-2.2.5-3.4l-4.8-.4c-.2 1.2-.4 2.5-.7 3.7H79.7v8.1h19.4c-.4 1-.7 1.9-1.2 2.9H81.3v7.8H94c-.5.9-1.1 1.7-1.6 2.6H72.9v8.5h12.7c-4.5 4.8-9.8 8.7-15.9 11.6l5.7 10.2c3.8-2.7 7.3-5.8 10.5-9.1v22.4h36.2V873q6.45 5.25 14.4 9.3l2.1-4.4c-5.8-3.6-10.6-8-14.6-13.2m-22.8-13.9s.1-.1 0 0l2.8-.1c.4.9.9 1.7 1.3 2.6h-5.2c.4-.9.8-1.7 1.1-2.5m9.7 10.9c.8 1.1 1.7 2.2 2.6 3.2H93.6c.7-1 1.4-2.1 2-3.2zm6.5 15.1H90.5v-3.1h26.8v3.1zm0 8v3.2H90.5v-3.2zm71-3.8h20.3v11h-46.6v-11h21v-35.4h-16.6v-10.9h38.4v10.9h-16.6V881zm-31.5-45.2c2.3 2.5 4.2 5.1 5.7 7.9l-2.3 3.4c-2.1-1.7-4.4-3.2-7-4.5s-5.1-2.3-7.7-3.1l3.9-9.9c2.7 1.6 5.2 3.7 7.4 6.2m1 47.6c-3.3 4.7-7 9.3-11.1 13.9l-3.8-3c5.4-8.8 9.8-19.2 13.1-31l10.9 5.8c-2.7 4.8-5.7 9.6-9.1 14.3m-6.9-25.8c-2.7-1-5.4-1.7-8.1-2.2l4.5-10c2.5 1.4 5 3.2 7.4 5.3s4.5 4.4 6.4 6.9l-2.4 3.6q-3.75-2.1-7.8-3.6m71.9-.7c-2.5-1.1-5-2-7.7-2.8l5.3-9.5q3 2.25 6 5.4c1.9 2.2 3.7 4.5 5.3 7l-2.3 3.4c-1.9-1.3-4.1-2.4-6.6-3.5m10.2 10.2c-3.4 10.9-7.9 21-13.7 30.6l-4.2-2.6c3.8-9.9 6.4-20.6 7.8-32.3zm30.4-36.8v35.5c0 5.4-.7 10.1-2 14.2-.4 1.1-.8 2.2-1.4 3.2v-6.7h-10.7v-2.9h9.3v-30.3h-9.3v-2.9h11.5v-8.8h-11.5v-3.5h-4.5v3.5h-12.3v8.8h12.3v2.9h-10.1v30.3h10.1v2.9h-13.1v9.1h13.1v11.1h4.5v-11.1h9.3c-1.2 1.8-2.8 3.6-4.6 5.2l8.2 7c1.9-3.4 3.2-7.3 4-11.7s1.2-9.5 1.2-15.2v-1.2c2.8 1.2 5.3 2.8 7.5 5l2.3-3c-1.3-3.6-3-6.8-5.1-9.4l-4.7 7.4v-17.1c2.8 1.1 5.3 2.7 7.5 5l2.3-3c-1.4-3.6-3.1-6.8-5.1-9.4l-4.7 7.4v-13.3h10.4v43.5c0 1.1-.2 1.9-.6 2.5-.4.5-1 .8-1.9.8h-6.9l2.9 10.6h3.6c2.1 0 3.8-.7 5.1-2 1.3-1.4 1.9-3.2 1.9-5.6v-58.8zm-9 24H239v-2.9h15.5zm0 8.1v2.9H239v-2.9zm-26.6-27.1q3 3.9 5.4 8.4l-2.3 3.4c-2-1.7-4.3-3.2-6.9-4.7q-3.9-2.25-7.8-3.6l5.3-9.9c2.1 1.7 4.3 3.9 6.3 6.4m128.9 48.1-2.8 4.1c-7.1-4.3-13.3-9.2-18.6-14.6-3.9-4-7.2-8.3-10.1-12.8v29.8c0 2.2-.5 3.9-1.6 5.1q-1.65 1.8-4.8 1.8h-9.6l-2.6-9.5h10.2c1.2 0 2-.3 2.6-1s.9-1.6.9-2.9V829h4.9v13.3c1.6 3.9 3.3 7.6 5.3 11 2.6-1.4 5.1-3.2 7.5-5.3 2.9-2.5 5.6-5.4 7.9-8.5l3.7 2.7c-2.1 4.4-4.4 8.4-6.8 12-2 2.9-4.1 5.7-6.4 8.2 2.2 2.9 4.4 5.7 6.9 8.4 3.9 4.1 8.4 8.4 13.4 12.6m-50-9.6c-3.7 6-8 11.1-13 15.2l-5.7-11.4q8.4-4.2 14.1-10.2c3.6-3.8 6.3-7.9 8.1-12.2h-17.7v-9.9h22.3v9.9q-2.55 9.6-8.1 18.6m100.7 12.6V882h18.7v-9.3h-18.7v-2.4h16v-26.1h-16v-2.5h18.1V833h-18.1v-3.3h-4.9v3.3h-18.2v8.6h18.2v2.5h-16.1v26.1h16.1v2.4h-18.8v9.3h18.8v4.4h4.9zm11.6-23.8h-11.6v-2.2h11.6zm0-10.8v2.2h-11.6v-2.2zm-16.5 2.2h-11.8v-2.2h11.8zm-11.8 8.6v-2.2h11.8v2.2zm-8.7-20.7-2.6 3.3q-3-2.25-6.6-4.2t-7.8-3.6l6.4-8.2c2.1 1.8 4 3.7 5.8 5.8 1.7 2 3.3 4.4 4.8 6.9m-11.2 13c-2.5-1.2-5.1-2.3-8-3.3l5.8-8.3c2.4 1.7 4.5 3.5 6.4 5.4 1.9 2 3.7 4.2 5.3 6.7l-2.7 3.4c-2-1.5-4.3-2.8-6.8-3.9m23.6 34.5h33.1l-1 4.9h-33.5c-4.7 0-8.7-.7-12.1-2-2.3-.9-4.3-2.2-6-3.7l-2.7 1.8c-2.2 1.6-4.3 3.5-6.2 5.5l-3.9-2.9c1.7-3.2 3.5-6.3 5.7-9.2 1.8-2.6 3.7-4.8 5.6-6.7V871h-9.4v-9.9h14.3v17.2c1.8 3.4 3.8 6 6.1 7.7 2.6 2.3 6 3.4 10 3.4M496.7 844H463c-.4 5.2-1.2 10.7-2.2 16.6h-7.3v9.5h5.3c-.7 2.9-1.5 5.8-2.3 8.6v8.4h34c-.1.6-.3 1-.7 1.3s-.9.5-1.5.5h-15.4l2.2 8h13.3c1.9 0 3.5-.5 4.7-1.4s1.8-2.4 1.9-4.4l.1-3.9h5.4v-8.4h-5.1l.3-8.6h6v-9.5H496zm-5.2 16.5h-10.9c.2-2.8.4-5.7.5-8.7h10.6zm-24.9-8.6H477c-.1 3-.3 5.9-.5 8.7h-11.2c.5-3 .9-5.9 1.3-8.7m9 18.1c-.3 2.9-.7 5.8-1.2 8.6h-13.3c.8-2.8 1.5-5.7 2.2-8.6zm15.2 8.6h-12.2c.4-2.8.8-5.7 1.1-8.6h11.4zm-49.1-15.7 10.7 4.2c-3.5 11-8.1 21-13.9 30.1l-4.5-2.3c3.8-9.4 6.3-20.1 7.7-32m.3-6.3c-2.5-1.3-5.1-2.4-7.9-3.3l5.3-9.2c2.3 1.7 4.5 3.7 6.5 6s3.9 4.8 5.5 7.5l-2.4 3.6c-2.1-1.7-4.5-3.2-7-4.6m24.7-27.4c-.2 1.4-.5 2.9-.8 4.2h33.7v8.8h-36c-.1.2-.1.4-.2.5-1.4 4.2-3.1 8.1-5.2 11.6l-8.3-8.2q4.5-3.9 7.5-8.4c2-3 3.5-6.2 4.7-9.6zm-24 12.7c-2.5-1.4-5-2.6-7.5-3.5l5.5-9.6c2.2 1.9 4.2 4 6.1 6.4 1.8 2.4 3.5 5 5 7.7l-2.3 3.7c-2.1-1.7-4.4-3.3-6.8-4.7m87.8 11c-.9 2.8-2 5.4-3.3 8l-10.5-4.7c2.3-1.8 4.5-3.8 6.4-6.1 1.9-2.2 3.6-4.7 5.3-7.3l4.4 1.2c-.6 3.2-1.4 6.1-2.3 8.9m13.8 10.1h29.2v9.9h-29.2v24h-4.8v-24h-29.2V863h29.2v-21.6h-24.7v-9.5H569v9.5h-24.7zm4-14.4 10.2-5.6c3.1 5 5.4 10.4 6.7 16.2l-4.2 1.7c-3.1-4.9-7.3-9-12.7-12.3m72.9 5.1c0 6.1-.3 10.9-1 14.4s-2 6.8-3.9 10.1l-6.9-5.4q1.8-.9 3.3-2.4c1-1 1.8-2 2.5-3.1.6-1 1.1-2.1 1.3-3.1h-8v-10.4h12.7zm39.5 9.2 10.7 4.2c-3.5 11-8.1 21-13.9 30.1L653 895c3.7-9.5 6.2-20.2 7.7-32.1m.3-6.3c-2.5-1.3-5.1-2.4-7.9-3.3l5.3-9.2c2.3 1.7 4.5 3.7 6.5 6s3.9 4.8 5.5 7.5l-2.4 3.6c-2.2-1.7-4.5-3.2-7-4.6m15.4-18.8c2-2.9 3.6-6.1 4.7-9.5l4.6.9c-.2 1.4-.5 2.9-.8 4.2h33.7v8.8h-36c-.1.2-.1.4-.2.5-1.4 4.2-3.1 8.1-5.2 11.6l-8.3-8.2c3-2.6 5.5-5.4 7.5-8.3m-14.8 4.1c-2.5-1.4-5-2.6-7.5-3.5l5.5-9.6c2.2 1.9 4.2 4 6.1 6.4 1.8 2.4 3.5 5 5 7.7l-2.3 3.7c-2.1-1.7-4.3-3.3-6.8-4.7m54 2.1H682c-.4 5.2-1.2 10.7-2.2 16.6h-7.3v9.5h5.3c-.7 2.9-1.5 5.8-2.3 8.6v8.4h33.9c-.1.6-.3 1-.7 1.3s-.9.5-1.5.5h-15.4l2.2 8h13.4c1.9 0 3.5-.5 4.7-1.4s1.8-2.4 1.9-4.4l.1-3.9h5.4v-8.4h-5.1l.3-8.6h6v-9.5H715zm-5.2 16.5h-10.9c.2-2.8.4-5.7.5-8.7h10.6zm-24.8-8.6H696c-.1 3-.3 5.9-.5 8.7h-11.2c.4-3 .9-5.9 1.3-8.7m8.9 18.1c-.3 2.9-.7 5.8-1.2 8.6H680c.8-2.8 1.5-5.7 2.2-8.6zm15.3 8.6h-12.2c.4-2.8.8-5.7 1.1-8.6h11.4zm50.3 5h32.1v10.6h-62.8v-10.6h25.5v-54.4h5.2v21.1h24.5v10.2h-24.5zm68-50.9h-24.2v50.8h24.2zM808.6 853v-11.2h14.7V853zm14.8 9.1v11.5h-14.7v-11.5zm11.7-32.5v34q0 7.95-2.4 13.8c-1.6 3.9-4.5 7.1-8.6 9.7l6.8 10.4c3.3-4 5.6-8.7 7-13.9.8-2.8 1.3-5.7 1.6-8.8h18.8v7.5c0 1.4-.3 2.3-.9 2.9s-1.7.9-3.2.9h-7.5l2.2 10.6h6.6c2.7 0 4.6-.8 5.9-2.3 1.2-1.5 1.9-3.8 1.9-6.9v-58h-28.2zm23.2 17.9H840v-8.7h18.3zM840 865.7v-9.1h18.3v9.1zm47.2-3.5c0 6.1-.9 11.1-2.7 14.8s-4.7 6.9-8.8 9.7l6.9 10.8c3.6-4.2 6.1-8.8 7.5-13.7.7-2.5 1.2-5.2 1.6-8.2h33.2v6.6c0 1.5-.3 2.5-1 3.1s-1.9.9-3.7.9h-8.5l2.6 10.6h7.7c2.8 0 4.9-.8 6.1-2.4 1.3-1.6 1.9-4 1.9-7.2v-57.6h-42.8zm5 3.5v-8.4h32.7v8.4zm0-18.2v-8.4h32.7v8.4zm75.9 27.2 4.6 2c-1.8 4.5-4 8.4-6.6 11.9s-5.6 6.4-9.1 8.8l-6.4-9.9c3.6-1.5 6.9-3.3 9.8-5.5 3-2.1 5.5-4.5 7.7-7.3m34.3 10c2.2 3.5 4 7 5.5 10.6l-4.5 2.3c-2.2-3-4.8-5.9-7.8-8.6s-6.4-5.3-10.2-7.7l9.8-6.4c2.6 3.1 5 6.4 7.2 9.8m-8.2-32.5h13.7v-9.9h-13.7V829h-4.8v13.3h-19.3V829h-4.8v13.3h-13.7v9.9h13.7v11.7h-18.1v9.9h65.1v-9.9h-18.1zm-24.1 0h19.3v11.7h-19.3zm60.6-16.9q3 3.9 5.4 8.4l-2.3 3.4c-2-1.7-4.3-3.2-6.9-4.7q-3.9-2.25-7.8-3.6l5.3-9.9c2.1 1.7 4.2 3.9 6.3 6.4m47 22.4c-2.2-2.2-4.7-3.9-7.5-5l4.7-7.4c2 2.6 3.7 5.8 5.1 9.4zm-52-.8c-2.5-1.1-5-2-7.7-2.8l5.3-9.5q3 2.25 6 5.4c1.9 2.2 3.7 4.5 5.3 7l-2.3 3.4c-2-1.3-4.2-2.4-6.6-3.5m10.1 10.2c-3.4 10.9-7.9 21-13.7 30.6l-4.2-2.6c3.8-9.9 6.4-20.6 7.8-32.3zm30.4-36.8v35.5c0 5.4-.7 10.1-2 14.2-.4 1.1-.8 2.1-1.3 3.2v-6.6h-10.7v-2.9h9.3v-30.3h-9.3v-2.9h11.5v-8.8h-11.5v-3.5h-4.5v3.5h-12.3v8.8h12.3v2.9h-10.1v30.3h10.1v2.9h-13.1v9.1h13.1v11.1h4.5v-11.1h9.2c-1.2 1.8-2.8 3.6-4.6 5.2l8.2 7c1.9-3.4 3.2-7.3 4-11.7s1.2-9.5 1.2-15.2v-31.5h10.5V883c0 1.1-.2 1.9-.6 2.5-.4.5-1 .8-1.9.8h-6.9l2.9 10.6h3.6c2.1 0 3.8-.7 5.1-2 1.3-1.4 1.9-3.2 1.9-5.6v-58.8h-18.6zm-8.9 24h-15.5v-2.9h15.5zm0 8.1v2.9h-15.5v-2.9zm12.9 7.4 4.7-7.4c2.1 2.6 3.8 5.8 5.1 9.4l-2.3 3c-2.2-2.2-4.7-3.8-7.5-5m58.1 14.5h30v10.2H1093v-10.2h30v-12.8h-18.1v-9.9h18.1v-12.2h-16.3c-1.6 5.4-3.7 10.2-6.2 14.4l-8.8-9.7c3.6-3.2 6.6-6.6 8.9-10.4s3.8-7.8 4.6-12.1l4.8.5c-.2 2.6-.6 5.1-1 7.5h14v-10.7h5.3v10.7h24.4v9.9h-24.4v12.2h20.7v9.9h-20.7zm80.4-27.3q-1.5-2.7-4.2-4.2c-2.7-1.5-3.8-1.6-5.9-1.6s-4.1.5-5.9 1.6-3.2 2.4-4.2 4.2-1.6 3.7-1.6 5.9c0 2.1.5 4.1 1.6 5.9 1 1.8 2.5 3.2 4.2 4.2 1.8 1 3.7 1.6 5.9 1.6s4.1-.5 5.9-1.6q2.7-1.5 4.2-4.2c1-1.8 1.6-3.7 1.6-5.9 0-2.1-.5-4.1-1.6-5.9m-6 9.9c-1.1 1.1-2.4 1.6-4 1.6s-2.9-.5-4-1.7c-1.1-1.1-1.6-2.4-1.6-4s.6-2.9 1.7-4 2.4-1.6 4-1.6 2.9.5 4 1.7c1.1 1.1 1.6 2.4 1.6 4s-.6 2.9-1.7 4" style="fill:#44bbc7"/></svg>