<svg xmlns="http://www.w3.org/2000/svg" viewBox="0 0 1280 960"><style>.st1{opacity:.15;fill:#44bbc7}</style><path d="M0 0h1280v960H0z" style="fill:#031723"/><path d="m159.4 351.1-1.9-10.3c40.3-4.6 75-10.6 104.1-18.2l.8 3.4c-28.9 10.5-63.2 18.8-103 25.1m28.9 29.3 7.2 3.4c-4.1 17.7-8.9 34.9-14.6 51.5s-12.1 31.9-19.2 45.8l-3.4-1.5c12.7-28.1 22.7-61.2 30-99.2m-27-143.7 2.3-2.7c20.3 10.9 39.9 25.8 58.9 44.9l-6.1 7.6c-16.9-20.5-35.3-37.1-55.1-49.8m92.4-25.4 8 6.1c-28.4 55-54.7 96.3-79.1 123.9L180 339c24.3-29.7 48.8-72.2 73.7-127.7m-50.4-6.5c6.7-14.9 12.6-30.3 17.7-46l8.4 5.7c-10.6 27.4-25.7 55.6-45.2 84.8l-2.7-1.9c7.8-13.4 15.1-27.6 21.8-42.6m23.4 128.1v171.4H218V334.8zm17.5-54.4 3.4-1.5c10.9 20.3 20 45.6 27.4 76l-8 4.2c-5.8-30.6-13.4-56.8-22.8-78.7m1.5 97.4 3.4-1.1c12.7 28.1 22 56.6 28.1 85.5L270 464c-5.3-28.6-13.4-58-24.3-88.1m22.1-81H505v3.8H267.8zm7.9-66.5h122.4v3.8H275.7zm14.9-44.9h93.1v3.8h-93.1zm5.3 67.7 2.7-1.5c9.4 15 15.7 30.5 19 46.8l-8 .8c-2.1-14.8-6.6-30.2-13.7-46.1m85.1 90.4v122.8h-85.1V341.6zm-2.6 59v3.8h-79.1v-3.8zm-78.7 60h77.5l-4.6 1.5V343.9l4.6 1.5h-77.5l4.6-1.5v118.2zm71.4-212.5 7.6 3c-4.8 18-11.3 33.3-19.4 46l-2.7-1.5c6.7-14.6 11.5-30.5 14.5-47.5m57.1 173c20-30.4 37.1-64.7 51.3-103l8.7 6.5c-15.5 37.2-33.7 70.9-54.7 100.9s-45.6 56.6-73.7 79.6l-1.9-2.7c26.8-23.8 50.2-50.9 70.3-81.3m11.4 48.3c-7.9-24.3-14.1-62.2-18.8-113.6s-7-116.1-7-193.8h9.1c0 76.3 2.1 139.5 6.5 189.7q6.45 75.3 16.5 110.4c6.7 23.4 14 35.2 21.9 35.2 6.1 0 11.5-5.6 16.1-16.7 4.7-11.1 9.2-29.8 13.5-55.9l3.4.8c-3 19.8-6.2 35.5-9.5 47.1s-7 20.1-11.2 25.5c-4.2 5.3-9.1 8-14.6 8-9.5-.3-18.1-12.4-25.9-36.7M468.1 231c-5.6-13.2-12-25.3-19.4-36.5l2.3-2.7c8.4 9.9 15.8 21.3 22.4 34.4s11.9 26.4 16 40.1l-8 5.3c-3.3-13.8-7.8-27.4-13.3-40.6" class="st1"/><path d="m159 354.9-2.3-16.7c39.8-4.6 74.2-10.3 103.4-17.1l.8 3c-28.6 12.5-62.6 22.7-101.9 30.8m25.9 26.3 11 5.7c-4.3 17.7-9.4 34.7-15.4 50.9s-12.7 31.2-20.3 44.9l-3-1.5c11.6-27.9 20.9-61.3 27.7-100m-24-145.6 1.5-2.7c21.3 10.4 41.4 24.5 60.4 42.2l-8.7 13.3c-15.9-21.5-33.6-39.1-53.2-52.8m91.3-25.1 12.2 10.6c-29.4 52.2-57.3 91.4-83.6 117.5l-2.3-1.9c24.8-29.1 49.3-71.2 73.7-126.2m-50.4-6.3c6.5-14.6 12.2-29.8 17.3-45.8l12.9 10.3c-12.2 25.6-28.5 51.8-49 78.7l-2.3-1.9c7.6-12.9 14.7-26.7 21.1-41.3M229 331v173.3h-13.7V334.8zm15.6-51.7 2.7-1.1c11.9 19.3 21.9 43.3 30 72.2l-11.8 7.2c-5.3-29.9-12.3-56-20.9-78.3m1.5 96.6 2.7-1.5c13.4 27.4 23.6 55.1 30.4 83.2l-11 7.2c-4.9-29.1-12.2-58.8-22.1-88.9m22-81h236.8v3.8H268.1zm7.6-66.5h120.5v3.8H275.7zm14.1-44.9h93.1v3.8h-93.1zm4.6 66.9 2.3-1.5c11.1 15.2 18.5 31 22 47.5l-11.8.8c-1.8-15.2-6-30.8-12.5-46.8m87.8 91.2v122.8h-87.8V341.6zm-82.5 119h76.8l-7.2 1.9v-119l7.2 1.9h-76.8l7.6-1.9v119zm77.9-60v3.8h-77.9v-3.8zm-8.7-153.2 11.4 4.9c-6.1 17.7-13.8 32.6-23.2 44.5l-2.7-.8c6.6-15.2 11.4-31.4 14.5-48.6m56.8 173.9c19.9-31 37.1-66.1 51.5-105.1l13.3 11.4c-16 36.7-35 70-57 99.8s-47.5 55.9-76.4 78.5l-1.9-2.7q40.65-35.4 70.5-81.9m11 49.2c-8-24.3-14.3-62.2-19-113.6s-7-116.4-7-195h14.4c0 76.5 2 139.5 6.1 188.9 4 49.4 9.3 85.5 15.8 108.1s13.6 34 21.5 34c5.8 0 11.1-5.5 16-16.5 4.8-11 9.2-29.7 13.3-56.1l3 .8c-3 21.3-6.3 38.1-9.7 50.6s-7.2 21.4-11.4 27-9.3 8.4-15.4 8.4q-15.6-.15-27.6-36.6m30-239.3c-5.2-13.5-11.3-26.2-18.4-37.8l1.9-2.3q13.65 14.85 24.3 33.6t17.1 39l-12.5 9.9c-3-14.7-7.2-28.8-12.4-42.4" class="st1"/><path d="m159 358.4-3.4-23.2c39.8-4 74.2-9.4 103.4-16l.8 2.7c-28.4 14.9-62 27.1-100.8 36.5m22.5 23.5 14.4 8.4c-4.6 17.5-9.9 34.1-16 49.8s-13.2 30.3-21.3 43.7l-2.7-1.1c11-27.9 19.5-61.5 25.6-100.8m-21.3-147.4 1.5-2.3c21.8 9.9 42.3 23.1 61.6 39.5L211.5 290q-22.05-33.9-51.3-55.5m90.5-24.4 16 15.2c-30.4 48.9-59.6 85.9-87.4 111l-1.9-1.9c24.7-28.3 49.2-69.8 73.3-124.3m-50.4-6.6c6.2-14.3 11.7-29.5 16.5-45.4l17.5 14.4c-13.2 24.3-30.5 48.8-52.1 73.4l-2.3-1.9q11.1-19.05 20.4-40.5m31 125.2v175.6h-18.6V334.4zm13.3-48.3 2.7-1.1c12.7 18.2 23.3 40.9 31.9 68L263.6 358c-4.6-29.1-10.9-55-19-77.6m1.5 95.1 2.3-1.1c14.4 26.1 25.2 53.1 32.3 81l-14.4 10.3c-4.1-29.8-10.8-59.8-20.2-90.2m22-80.6h236.8v3.8H268.1zm7.6-66.5h119v3.8h-119zm13.7-44.9h93.1v3.8h-93.1zm3.4 66.2 2.3-1.1c12.4 15.5 20.8 31.4 25.1 47.9l-16 .8c-1.5-15.6-5.3-31.4-11.4-47.6m90.1 91.9v122.8h-90.1V341.6zm-83.2 119h76.4l-10.6 1.9v-119l10.6 1.9h-76.4l10.3-1.9v119zm77.5-60v3.8h-77.5v-3.8zm-11-154 15.2 7.2c-7.1 17-16 31.3-26.6 43l-2.3-.8c6.3-15.4 10.9-31.9 13.7-49.4m57 174.7c20-31.5 37.4-67.3 52.1-107.4l17.9 16.3q-25.05 54.75-59.7 99c-23.1 29.5-49.4 55.2-79.1 77l-1.5-2.3c26.8-23.5 50.3-51.1 70.3-82.6m10.9 50.1c-8.2-24.2-14.7-62-19.4-113.5-4.7-51.4-7-116.8-7-196.1H427c0 76.5 2 139.1 5.9 187.8s9 84 15.2 106 13.2 33.1 21.1 33.1q8.4 0 15.6-16.5c4.8-11 9.4-29.8 13.7-56.4l2.7.8c-3.3 23.3-6.7 41.5-10.1 54.6s-7.4 22.4-11.8 28.1-9.9 8.5-16.5 8.5c-10.9-.1-20.5-12.2-28.7-36.4m31.3-239.6c-4.8-13.9-10.5-27-17.1-39.2l1.5-1.9c9.6 9.4 18.2 20.2 25.7 32.5s13.6 25 18.4 38.2l-17.1 14.1c-2.8-15.2-6.6-29.8-11.4-43.7" class="st1"/><path d="m159 361.8-4.6-29.3c39.5-3.8 74-8.9 103.4-15.2l.4 2.7c-28.1 17.2-61.1 31.1-99.2 41.8m19.1 21.3 18.2 10.3c-5.1 17.5-10.8 33.8-17.1 49s-13.7 29.5-22 43l-2.3-1.1c10.1-27.7 17.8-61.4 23.2-101.2m-18.7-149.8 1.5-1.9c22.5 9.1 43.5 21.4 62.7 36.9l-14.8 23.6c-13.4-23.6-29.9-43.1-49.4-58.6m89.7-23.5 20.1 19.4c-31.4 45.9-62 80.7-91.6 104.5l-1.5-1.5c25.1-27.9 49.5-68.7 73-122.4m-50.5-6.9c5.8-13.9 11.3-29 16.3-45.2l21.7 18.6c-14.2 22.8-32.7 45.4-55.5 67.7l-1.9-1.5c7.1-12.5 13.5-25.6 19.4-39.6m34.9 123.5v177.9H210V334zm11.1-44.8 2.3-1.1c13.7 17.2 25.2 38.6 34.6 64.2l-19.8 13.7q-5.7-42.6-17.1-76.8m1.5 93.5 1.9-1.1c15.4 25.3 27 51.7 34.6 79.1l-18.2 13.7c-3.6-30.5-9.7-61-18.3-91.7m22.4-80.2h236.4v3.8H268.5zm7.2-66.5h117.5v3.8H275.7zm13.3-44.9h92.7v3.8H289zm1.9 65 2.3-.8c13.9 15.7 23.4 31.9 28.5 48.7l-20.5.8c-1-15.7-4.4-32-10.3-48.7m92.8 93.1v122.8H291V341.6zm-84.4 119h76l-13.7 1.9v-119l13.7 1.9h-76l13.7-1.9v119zm77.5-60v3.8H300v-3.8zm44 20.5c19.9-32.2 37.3-68.7 52.3-109.5l22.8 21.7c-17.2 36-38 68.6-62.3 97.9S382 485.8 351.9 507l-1.5-2.3c27-23.5 50.5-51.4 70.4-83.6m-57.3-175.2 19 9.5q-12.15 24.75-30 41.4l-1.9-.8q8.7-23.55 12.9-50.1m67.7 226.9c-8.4-24.1-14.9-61.8-19.6-113.3-4.7-51.4-7-117.3-7-197.7h24.7c0 76.8 1.8 139.1 5.5 187s8.5 82.5 14.6 103.8 13 31.9 20.9 31.9q7.95 0 15-16.5t13.5-56.4l2.7.4c-3.6 25.3-7.1 44.9-10.6 58.5-3.6 13.7-7.6 23.5-12.2 29.5-4.6 5.9-10.4 8.9-17.5 8.9-11.6 0-21.6-12-30-36.1m32.7-240.4c-4.6-14.3-9.9-27.9-16-40.9l1.1-1.5c10.4 9.4 19.5 19.9 27.4 31.7 7.8 11.8 14.4 24.1 19.8 37.1l-21.7 18.6c-2.5-15.7-6.1-30.7-10.6-45" class="st1"/><path d="m159 365.2-5.3-35.7c39.3-3.3 73.6-7.8 103-13.7l.4 1.9c-27.9 19.5-60.6 35.3-98.1 47.5m16 18.6 21.3 12.9c-5.1 17-10.9 32.9-17.5 47.7s-14.2 28.9-22.8 42.4l-1.9-1.1c9.1-27.4 16.1-61.3 20.9-101.9m-16-151.2 1.1-1.9c23 8.4 44.2 19.8 63.5 34.2l-17.1 28.9c-12.4-24.6-28.2-45-47.5-61.2m88.6-23.2 24.3 23.9c-32.7 42.8-64.6 75.5-95.8 98.1l-1.1-1.1q37.65-41.1 72.6-120.9m-50.3-7.3c5.4-13.7 10.6-28.5 15.4-44.5l26.2 22.4c-15.5 21.5-35.1 42.2-58.9 62l-1.5-1.1c7-12.1 13.3-25.1 18.8-38.8m38.5 122.4v179.8h-28.5V334zm8.8-42.2 1.9-1.1c14.7 16.7 27.1 36.9 37.2 60.4l-23.6 17.1c-3-27.8-8.2-53.3-15.5-76.4m1.5 92.8 1.5-1.1c16.2 24.1 28.4 49.7 36.5 76.8l-21.7 16.7c-3-31-8.5-61.7-16.3-92.4m22.8-80.2h236v3.8h-236zm6.8-66.5h115.9v3.8H275.7zm13-44.9H381v3.8h-92.4v-3.8zm.7 64.3 1.9-.8c15.4 16 26 32.4 31.5 49.4l-24.3.8c-.7-16-3.8-32.5-9.1-49.4m95 93.8v122.8h-95V341.6zm-85.1 119h75.3l-16.3 1.9v-119l16.3 1.9h-75.3l16.7-1.9v119zm77.2-60v3.8h-76v-3.8zm41.8 20.5c20-32.7 37.5-69.8 52.5-111.4l27.4 26.2c-17.7 35.5-39.3 67.7-64.6 96.7s-53.5 53.9-84.4 74.7l-1.1-1.9c26.7-23.5 50.2-51.6 70.2-84.3m-57-175.6 22.4 11c-8.9 16.2-19.9 29.6-33.1 40.3l-1.9-.8c5.6-15.7 9.8-32.5 12.6-50.5m67.2 228.2q-12.9-35.85-19.8-113.1c-4.6-51.4-6.8-117.7-6.8-198.8h29.6c0 76.8 1.7 138.7 5.1 185.9 3.4 47.1 8 81.1 13.9 101.9 5.8 20.8 12.7 31.2 20.5 31.2 5.1 0 9.9-5.5 14.6-16.5s9.3-30.1 13.9-57.2l1.9.8c-3.6 27.1-7.1 47.8-10.6 62q-5.4 21.3-12.3 30.6c-4.7 6.2-10.8 9.3-18.4 9.3-12.4-.2-23-12.2-31.6-36.1m34.1-241q-6.3-21.9-15-42l1.1-1.5c10.6 9.1 20.1 19.4 28.5 31 8.4 11.5 15.3 23.6 20.9 36.3l-25.5 22.4c-2.5-16.2-5.9-31.6-10-46.2" class="st1"/><path d="m158.7 369-6.1-42.2q58.95-4.95 102.6-12.9l.8 1.9c-27.7 21.8-60.1 39.5-97.3 53.2m12.9 15.6 24.7 15.2c-5.3 17-11.3 32.7-18.1 47.1-6.7 14.4-14.6 28.3-23.7 41.4l-1.5-1.1q12.15-40.65 18.6-102.6m-13.3-153.2.8-1.9c23.8 7.9 45.5 18.4 65 31.5L204 295.6c-11.3-25.5-26.5-46.9-45.7-64.2m87.8-22.8 28.5 28.5c-34 39.8-67.4 70.5-100.3 92l-.8-1.1q38.4-39.9 72.6-119.4m-50.4-7c5.2-13.3 10.2-28.1 15-44.3l30.8 27c-16.7 19.8-37.6 38.4-62.7 55.9l-1.1-1.1c6.8-11.7 12.9-24.2 18-37.5m42.4 120.7v182.1h-33.4V333.7zm6.8-38.8 1.1-1.1c15.7 15.7 29 34.6 39.9 56.6l-27.7 20.1c-2.2-27.1-6.7-52.3-13.3-75.6m1.6 91.2.8-.8q25.8 34.65 38.4 74.1l-25.1 20.1c-2.6-31.3-7.3-62.5-14.1-93.4m22.8-79.8H505v3.8H269.3zm6.4-66.5h114v3.8h-114zm12.2-44.9h92.4v3.8h-92.4zm0 63.5 1.5-.8c17.2 16.2 28.9 32.9 35 50.2l-28.5.8c-.5-16.5-3.2-33.2-8-50.2m97.7 94.6v122.8h-97.7V341.6zm-86.3 119h74.5l-19.4 2.3V343.2l19.4 2.3h-74.5l19.8-2.3v119.7zm76.4-60v3.8h-74.9v-3.8zm40.3 20.7c20-33.3 37.5-71.3 52.5-113.8l32.3 31.2c-18.5 35.2-40.9 67.2-67.3 96q-39.6 43.2-87 73.2l-.8-1.5c26.8-23.5 50.3-51.8 70.3-85.1m-57.4-176.6 26.6 13.3q-15.15 23.55-36.9 38.4h-1.9c5.6-16.2 9.7-33.4 12.2-51.7m67.3 230c-8.9-23.8-15.6-61.4-20.1-112.9-4.6-51.4-6.8-118.1-6.8-199.9h35c0 76.8 1.6 138.4 4.7 184.9 3.2 46.5 7.5 79.8 13.1 99.8q8.4 30 20.1 30 7.2 0 14.4-16.5c4.8-11 9.4-30.1 13.7-57.2l1.9.4c-3.8 28.9-7.5 50.8-11 65.8-3.6 14.9-7.8 25.6-12.7 31.9s-11.5 9.5-19.6 9.5c-13-.1-23.9-12-32.7-35.8m35.3-241.6c-3.8-15.1-8.5-29.5-14.1-43.1l1.1-1.5c11.1 9.1 21.1 19.3 30 30.4 8.9 11.2 16.2 22.9 22 35.3l-30 26.6c-2.1-16.7-5.2-32.6-9-47.7" class="st1"/><path d="m158.7 372.4-6.8-48.7c38.8-2.8 72.8-6.6 102.2-11.4l.4 1.1c-27.4 24.2-59.3 43.8-95.8 59m9.5 13 28.5 17.9c-5.6 16.7-11.8 32.1-18.8 46s-15.3 27.4-24.9 40.3l-1.1-.8c7.3-27.2 12.7-61.6 16.3-103.4m-10.3-155.1.4-1.5c24.6 7.4 46.6 17 66.1 28.9l-22.8 39.5c-10.1-26.6-24.7-48.9-43.7-66.9m86.7-22.1 32.3 33.1c-34.7 36.7-69.4 65.1-104.1 85.1l-.4-.8c25.5-26 49.6-65.2 72.2-117.4m-50.4-7.4c4.9-13 9.7-27.7 14.3-43.9l35.3 31.2c-18 18.5-39.9 35.3-65.8 50.6l-1.1-1.1c6.6-11.5 12.4-23.7 17.3-36.8m46.2 119.6v184H202V333.7zm4.5-36.2 1.1-.8c16.5 14.7 30.4 32.2 41.8 52.5l-31.2 23.6c-1.6-26.3-5.6-51.4-11.7-75.3m1.6 90.5.4-1.1c18 22 31.5 46.1 40.7 72.2l-29 23.2c-1.7-32-5.8-63.4-12.1-94.3m22.8-79.8H505v3.8H269.3zm6.4-66.5h112.5v3.8H275.7zm10.7 17.8 1.5-.4c18.5 16.5 31 33.3 37.6 50.6l-32.3.8c-.2-16.8-2.5-33.7-6.8-51m99.9 95.4v122.8h-100V341.6zm-98.8-158.1h92.4v3.8h-92.4zm11.8 277.1h74.1l-22.4 2.3V343.2l22.4 2.3h-74.1l22.4-2.3v119.7zm76-60v3.8h-74.5v-3.8zm38 20.7c20-33.8 37.8-72.4 53.2-115.7l36.5 36.1q-28.5 52.05-69.6 94.8t-89.7 72l-.7-1.5c26.9-23.3 50.3-51.9 70.3-85.7m-57-177.3 30 15.2c-11.2 15.2-24.6 27.6-40.3 37.2h-1.5c5.4-16.5 9.3-33.9 11.8-52.4M423 475.8c-9-23.8-15.8-61.4-20.3-112.9-4.6-51.4-6.8-118.5-6.8-201.1h39.9c0 77 1.5 138.4 4.6 184s7.2 78.1 12.5 97.5q7.95 29.1 19.8 29.1c4.6 0 9.2-5.4 14.1-16.3 4.8-10.9 9.5-30.1 14.1-57.8l1.1.8c-3.8 30.7-7.5 53.8-11.2 69.4q-5.55 23.4-12.9 33.3c-4.9 6.6-11.7 9.9-20.3 9.9-14.1-.2-25.6-12.1-34.6-35.9m36.9-242.3c-3.4-15.3-7.7-30.2-12.7-44.7l.4-.8c11.9 8.6 22.5 18.3 31.7 29.1s17 22.2 23.4 34.4l-34.6 31.2c-2.1-17.5-4.8-33.9-8.2-49.2" class="st1"/><path d="m158.7 375.9-8-54.7c38.8-2.5 72.8-6.1 102.2-10.6l.4 1.1c-27.1 26.3-58.7 47.7-94.6 64.2m6 10.2 31.9 20.1c-5.8 16.7-12.3 31.8-19.4 45.2s-15.7 26.6-25.8 39.5l-.8-.8c6.7-26.7 11.4-61.4 14.1-104m-7.6-157 .4-1.1c25.1 6.6 47.5 15.3 67.3 26.2L199 299.1c-8.9-27.6-22.8-51-41.9-70m85.9-21.2 36.5 37.2c-36 33.7-72.1 60.1-108.3 79.1v-.8c25.9-25.3 49.8-63.9 71.8-115.5m-50.3-7.7c4.7-12.7 9.3-27.2 13.9-43.7l39.5 35.3c-19 17-42.1 31.9-69.2 44.9l-.8-.8c6.4-11.1 11.9-23 16.6-35.7m50 117.9v186.2h-43.3v-171zm2.2-32.7.8-.8c17.5 13.7 32.3 29.9 44.5 48.7l-35.3 26.6c-1.1-25.6-4.4-50.4-10-74.5m1.6 88.9v-.8q28.5 31.5 42.6 69.9l-32.3 26.2c-1.3-32.3-4.8-64.1-10.3-95.3m23.2-79.4H505v3.8H269.7zm6-66.5h111v3.8h-111zm9.2 17.1 1.1-.4q30 25.05 41.1 51.3l-36.5.8c0-17-1.9-34.2-5.7-51.7m102.2 96.1v122.8H284.9V341.6zm-100-158.1h92v3.8h-92zm12.2 277.1h73.4l-25.5 2.3V343.2l25.5 2.3h-73.4l25.5-2.3v119.7zm75.6-60v3.8h-73.7v-3.8zm36.2 20.7c20-34.3 37.8-73.7 53.2-118l41.4 41.1c-19.8 34.5-43.8 65.8-72.2 94.1q-42.6 42.45-92.4 70.5l-.4-1.1c26.9-23.5 50.3-52.3 70.4-86.6m-57.4-178.1 33.8 17.5c-12.2 14.7-26.7 26.6-43.7 35.7h-1.1c5-16.7 8.7-34.4 11-53.2m66.7 233.6c-9.3-23.7-16.1-61.3-20.7-112.7s-6.8-118.8-6.8-202.2h45.2q0 115.5 4.2 183c2.8 45 6.7 76.8 11.8 95.4s11.5 27.9 19.4 27.9c4.3 0 8.9-5.4 13.7-16.3s9.5-30.1 14.1-57.8l1.1.4c-4.1 32.7-7.9 57.2-11.6 73.4s-8.1 27.7-13.3 34.4-12.3 10.1-21.5 10.1c-14.5-.1-26.4-11.9-35.6-35.6m38.2-242.7c-3-15.7-7-31-11.8-46l.4-.8c12.4 8.6 23.4 18.1 33.1 28.5 9.6 10.4 17.9 21.5 24.7 33.4l-39.2 35.3q-2.7-26.85-7.2-50.4" class="st1"/><path d="M469.4 230.5c-6-12.8-12.7-24.5-20.3-35.2l2.3-2.7c7.8 10.1 14.9 21.9 21.1 35.2s11.1 26.9 14.6 40.9l-3.4 1.1c-3.6-13.4-8.4-26.5-14.3-39.3m-85-47h-93.5v3.8h93.5zm15.2 44.9H275.7v3.8h123.9zm-19.3 236h-82.9V341.6h82.9zm-3.8-63.8v-55.1h-75.3v55.1zm-75.3 3.8v56.3h75.3v-56.3zm-39-75.7c2.4 8.9 4.6 18.3 6.7 28.1l3.8-.8c-6.6-32.2-14.8-58.9-24.7-80.2l-3.8 1.5c6.3 13.8 12 29.7 17 47.6-21.7 5.8-46.5 10.8-74.3 15C209 311.4 233 269.1 259 213.2l-3.8-1.5c-11.6 25.8-23 48.9-34.4 69.3-11.3-12-22.9-22.4-34.6-31.3 17.8-31.1 31.4-60.7 40.9-88.9l-3.8-1.5c-5.3 15.7-11.5 31.2-18.4 46.4-6.7 14.6-14 28.5-21.7 41.7-6.2-4.6-12.5-8.7-18.8-12.5l-2.3 3q29.55 17.4 56.7 46.5c-12.6 22.1-25 41-37.4 56.5-7.4 1.1-15 2.1-22.8 3.1l.8 3.8q33.15-4.2 61.2-9.6v166.2h3.8v-167q20.25-4.05 37.8-8.7m-70.5 50.9c-8.1 37.2-18.9 70.1-32.3 98.4l3.8 1.5c6.6-13.9 12.7-29.4 18.2-46.6 5.6-17.1 10.3-34.6 14.1-52.6zm54-3.4c11.6 29.9 20.4 58.9 26.2 87l3.8-.8c-5.8-29.1-14.6-58.4-26.2-87.8zm174.9-214.4h-3.8c0 49.7 1 94 2.9 133h-56.9c6.3-12.7 11.3-27.8 14.8-45.2l-3.8-.8c-3.2 16.4-8.2 31.8-14.9 46h-43.2c-2.6-15.4-7.7-30.2-15.3-44.5l-3 1.5c7.2 14.9 12 29.2 14.4 43h-44.4v3.8h152.5c1 20 2.3 38.7 3.9 55.9q3.45 37.2 7.8 65.1c-.3.5-.6 1-1 1.5-19.9 29.9-43.4 56.8-70.5 80.6l2.3 3c26.9-23.4 50.3-50 70.1-79.7 2.9 17.4 6.2 31.9 9.7 43.4 7.6 24.4 15.8 36.7 24.7 36.7q7.65 0 13.5-7.8t10.8-24.3c3.3-11 6.3-25.4 9.1-43.1l-3.8-.8c-4 25.8-8.4 44.3-13.1 55.5-4.7 11.1-10.2 16.7-16.5 16.7-7.8 0-15.3-12-22.2-36.1-3.4-11.7-6.5-26.6-9.3-44.6q28.8-44.25 50.1-98.7l-3.8-1.5c-13.2 34.8-29 66.3-47.2 94.7q-3.9-26.85-7.2-62.4c-1.5-16.6-2.7-34.6-3.7-54h81.3v-3.8h-81.4c-2-39-2.9-83.3-2.9-133.1m439.2 336.4h-2.3l-4.3 6.9-4.3-6.9h-2.3l5.4 8.8-5.8 9.4h2.3l4.7-7.6 4.8 7.6h2.3l-5.9-9.5zm19 15-4.3-15-.2.1v-.1h-2.1l-4.3 15-4.2-15h-2.3l5.4 18.2h2.3l4.3-15 4.2 15h2.3l5.4-18.2H883zm14.6-4.9h4.6v5.1c-.4.3-.8.6-1.3.8-.8.3-1.7.5-2.7.5-1.9 0-3.4-.6-4.4-1.9q-1.5-1.95-1.5-5.4 0-3.6 1.5-5.4c1-1.3 2.5-1.9 4.4-1.9 1 0 1.8.2 2.6.6s1.5 1 2 1.8l1.3-1.3c-.7-1-1.5-1.7-2.5-2.3-1-.5-2.2-.8-3.4-.8-1.7 0-3.1.4-4.3 1.1s-2.1 1.8-2.8 3.2c-.6 1.4-.9 3.1-.9 5s.3 3.6.9 5 1.6 2.5 2.8 3.2 2.6 1.1 4.3 1.1c1.3 0 2.5-.2 3.6-.7 1-.5 1.9-1.2 2.5-2.1v-7.5h-6.7zm15.7-10.1h-6v1.9h6v16.3h2.1v-16.3h6v-1.9zm10.9 13.5h12.2v-1.9H920zm0-5.5h12.2v-1.9H920zm23.7-8h-1.9c-.5 1.3-1.1 2.4-2 3.3s-1.9 1.7-3.1 2.3l.8 1.7c1.8-.9 3.2-2.2 4.3-3.9v13.1h-5.3v1.7h11.3v-1.7h-4.1zm20.4 4.1c.5 1.4.8 3.1.8 5s-.3 3.6-.8 5-1.3 2.5-2.3 3.2-2.2 1.1-3.6 1.1-2.5-.4-3.5-1.1-1.7-1.8-2.3-3.2c-.5-1.4-.8-3.1-.8-5s.3-3.6.8-5 1.3-2.5 2.3-3.2 2.2-1.1 3.5-1.1 2.6.4 3.6 1.1 1.8 1.9 2.3 3.2m-1.3 5.1c0-2.4-.4-4.2-1.2-5.5-.8-1.2-1.9-1.9-3.4-1.9s-2.6.6-3.4 1.9c-.8 1.2-1.2 3.1-1.2 5.5s.4 4.3 1.2 5.5c.8 1.3 1.9 1.9 3.4 1.9s2.6-.6 3.4-1.9 1.2-3.1 1.2-5.5m17.4-5.1c.5 1.4.8 3.1.8 5s-.3 3.6-.8 5-1.3 2.5-2.3 3.2-2.2 1.1-3.6 1.1-2.5-.4-3.5-1.1-1.7-1.8-2.3-3.2c-.5-1.4-.8-3.1-.8-5s.3-3.6.8-5 1.3-2.5 2.3-3.2 2.2-1.1 3.5-1.1c1.4 0 2.6.4 3.6 1.1s1.8 1.9 2.3 3.2m-1.3 5.1c0-2.4-.4-4.2-1.2-5.5-.8-1.2-1.9-1.9-3.4-1.9s-2.6.6-3.4 1.9c-.8 1.2-1.2 3.1-1.2 5.5s.4 4.3 1.2 5.5c.8 1.3 1.9 1.9 3.4 1.9s2.6-.6 3.4-1.9 1.2-3.1 1.2-5.5m6.4 8.8c-.3.8-.8 1.4-1.4 1.9l1.3 1.2q1.2-1.05 1.8-2.4c.4-.9.6-2.1.6-3.4h-1.8c0 1-.2 1.9-.5 2.7m23.1-17.9-4.7 7.9-4.7-7.9h-2.3l6 10v8.2h1.9v-8.2l6-10zm20.8 14.9-4.3-15-.2.1v-.1h-2.1l-4.3 15-4.2-15h-2.3l5.4 18.2h2.3l4.3-15 4.2 15h2.3l5.4-18.2h-2.3zm14.6-4.9h4.6v5.1c-.4.3-.8.6-1.3.8-.8.3-1.7.5-2.7.5-1.9 0-3.4-.6-4.4-1.9q-1.5-1.95-1.5-5.4 0-3.6 1.5-5.4c1-1.3 2.5-1.9 4.4-1.9 1 0 1.8.2 2.6.6s1.5 1 2 1.8l1.3-1.3c-.7-1-1.5-1.7-2.5-2.3-1-.5-2.2-.8-3.4-.8-1.7 0-3.1.4-4.3 1.1s-2.1 1.8-2.8 3.2c-.6 1.4-.9 3.1-.9 5s.3 3.6.9 5 1.6 2.5 2.8 3.2 2.6 1.1 4.3 1.1c1.3 0 2.5-.2 3.6-.7 1-.5 1.9-1.2 2.5-2.1v-7.5h-6.7zm15.6-10.1h-6v1.9h6v16.3h2.1v-16.3h6v-1.9zm11 8h12.2v-1.9h-12.2zm0 5.5h12.2v-1.9h-12.2zm23.7-13.5h-1.9c-.5 1.3-1.1 2.4-2 3.3s-1.9 1.7-3.1 2.3l.8 1.7c1.8-.9 3.2-2.2 4.3-3.9v13.1h-5.3v1.7h11.3v-1.7h-4.1zm20.4 4.1c.5 1.4.8 3.1.8 5s-.3 3.6-.8 5-1.3 2.5-2.3 3.2-2.2 1.1-3.6 1.1-2.5-.4-3.5-1.1-1.7-1.8-2.3-3.2c-.5-1.4-.8-3.1-.8-5s.3-3.6.8-5 1.3-2.5 2.3-3.2 2.2-1.1 3.5-1.1 2.6.4 3.6 1.1 1.7 1.9 2.3 3.2m-1.3 5.1c0-2.4-.4-4.2-1.2-5.5-.8-1.2-1.9-1.9-3.4-1.9s-2.6.6-3.4 1.9c-.8 1.2-1.2 3.1-1.2 5.5s.4 4.3 1.2 5.5c.8 1.3 1.9 1.9 3.4 1.9s2.6-.6 3.4-1.9 1.2-3.1 1.2-5.5m18.2 0c0 1.9-.3 3.6-.8 5s-1.3 2.5-2.3 3.2-2.2 1.1-3.6 1.1-2.5-.4-3.5-1.1-1.7-1.8-2.3-3.2c-.5-1.4-.8-3.1-.8-5s.3-3.6.8-5 1.3-2.5 2.3-3.2 2.2-1.1 3.5-1.1 2.6.4 3.6 1.1 1.7 1.8 2.3 3.2c.5 1.3.8 3 .8 5m-2.1 0c0-2.4-.4-4.2-1.2-5.5-.8-1.2-1.9-1.9-3.4-1.9s-2.6.6-3.4 1.9c-.8 1.2-1.2 3.1-1.2 5.5s.4 4.3 1.2 5.5c.8 1.3 1.9 1.9 3.4 1.9s2.6-.6 3.4-1.9 1.2-3.1 1.2-5.5" style="fill:#fbfbfb"/><path d="M954.1 478.1h8.8v1.9H952v-18.2h2.1zm20.8-1.6v-9.2H973v9.2c-.3.4-.5.8-.9 1-.3.3-.7.4-1.1.6s-.8.2-1.2.2c-.8 0-1.4-.3-1.8-.8q-.6-.75-.6-2.4v-7.8h-1.9v8.7c0 1.3.3 2.3 1 3s1.6 1.1 2.8 1.1q1.35 0 2.4-.6c.5-.3 1-.8 1.3-1.4.1.2.1.5.2.7.3.5.6.9 1.1 1.3l1.3-.9q-.45-.45-.6-1.2c0-.4-.1-.9-.1-1.5m12.5-7.6c1 1.2 1.4 2.8 1.4 4.8s-.5 3.6-1.4 4.8c-1 1.2-2.3 1.7-4 1.7s-3-.6-4-1.7c-1-1.2-1.4-2.8-1.4-4.8s.5-3.6 1.4-4.8c1-1.2 2.3-1.7 4-1.7s3 .5 4 1.7m-.5 4.8q0-2.4-.9-3.6c-.6-.8-1.4-1.2-2.5-1.2s-2 .4-2.6 1.2q-.9 1.2-.9 3.6t.9 3.6c.6.8 1.5 1.2 2.6 1.2s1.9-.4 2.5-1.2q.9-1.35.9-3.6m16.5-2.1v8.4h2.1v-18.2h-2.1v7.9h-9.1v-7.9h-2.1V480h2.1v-8.4zm6.8 6.9c-1-1.1-1.5-2.8-1.5-4.8 0-2.1.5-3.7 1.4-4.8s2.2-1.7 3.9-1.7c1.2 0 2.1.3 3 .8.8.5 1.5 1.3 1.9 2.3s.6 2.2.5 3.5h-8.7q0 2.4.9 3.6t2.7 1.2c.8 0 1.5-.2 2-.6.6-.4 1-1 1.4-1.8l1.7.5c-.5 1.2-1.2 2.1-2 2.7-.9.6-1.9.9-3.2.9-1.7-.1-3-.7-4-1.8m1.4-8.6c-.4.6-.7 1.4-.8 2.4h6.7c-.1-1.1-.4-2-.9-2.6-.6-.7-1.4-1.1-2.4-1.1-1.1 0-2 .5-2.6 1.3m13.6-6.1c.3 0 .6-.1.8-.3s.3-.5.3-.8-.1-.6-.3-.8-.5-.3-.8-.3-.6.1-.8.3-.3.5-.3.8.1.6.3.8.5.3.8.3m-.9 16.2h4.5v-1.7h-2.5v-10.9h-3.8v1.7h1.9v9.2h-2.5v1.7zm19.5-2.7-5.1-15.6h-2.3l6.3 18.2h2.3l6.4-18.2h-2.3zm10 2.1c-.7-.5-1.3-1.2-1.7-2.2s-.6-2.1-.6-3.5.2-2.6.6-3.5c.4-1 1-1.7 1.8-2.2s1.6-.8 2.6-.8 1.9.2 2.6.6c.4.2.7.6 1 .9v-1.4h2v9.2c0 .5.1 1 .2 1.5s.4.8.7 1.2l-1.4.9c-.5-.4-.8-.8-1.1-1.3-.1-.2-.1-.4-.2-.6-.4.5-.8 1-1.3 1.3-.7.4-1.5.6-2.5.6s-2-.2-2.7-.7m-.4-5.7c0 1.6.3 2.7.9 3.5s1.4 1.2 2.6 1.2c.7 0 1.3-.2 1.8-.5s1-.7 1.3-1.3v-5.9c-.3-.5-.8-.9-1.3-1.2s-1.2-.5-1.9-.5c-1.2 0-2 .4-2.6 1.2-.5.7-.8 1.9-.8 3.5m18.3-4.3c.4.3.7.7.9 1.3l1.5-.9c-.3-.9-.8-1.6-1.4-2.1s-1.3-.7-2.1-.7-1.4.2-2.1.6c-.5.3-.8.8-1.2 1.3-.1-.2-.1-.4-.2-.6-.3-.5-.6-.9-1.1-1.3l-1.3.9q.45.45.6 1.2c.2.4.2 1 .2 1.5v9.2h1.9v-9.2c.4-.6.8-1.1 1.2-1.4.5-.3 1-.5 1.6-.5.7.3 1.1.4 1.5.7m7-5.6c.3 0 .6-.1.8-.3s.3-.5.3-.8-.1-.6-.3-.8-.5-.3-.8-.3-.6.1-.8.3-.3.5-.3.8.1.6.3.8.5.3.8.3m-.9 16.2h4.5v-1.7h-2.5v-10.9h-3.8v1.7h1.9v9.2h-2.5v1.7zm7.3-2.8c-.4-1-.6-2.1-.6-3.5s.2-2.6.6-3.5c.4-1 1-1.7 1.8-2.2s1.6-.8 2.6-.8 1.9.2 2.6.6c.4.2.7.6 1 .9v-1.4h2v9.2c0 .5.1 1 .2 1.5s.4.8.7 1.2l-1.4.9c-.5-.4-.8-.8-1.1-1.3-.1-.2-.1-.4-.2-.6-.4.5-.8 1-1.3 1.3-.7.4-1.5.6-2.5.6s-1.9-.3-2.6-.8q-1.2-.6-1.8-2.1m1.3-3.5c0 1.6.3 2.7.9 3.5s1.4 1.2 2.6 1.2c.7 0 1.3-.2 1.8-.5s1-.7 1.3-1.3v-5.9c-.3-.5-.8-.9-1.3-1.2s-1.2-.5-1.9-.5c-1.2 0-2 .4-2.6 1.2-.5.7-.8 1.9-.8 3.5m17.9 6.5c-1 0-1.8-.2-2.5-.6-.4-.3-.8-.6-1.1-1v1.5h-1.9v-19.5h1.9v8.2c.3-.4.6-.7 1-1 .7-.4 1.5-.6 2.5-.6s1.9.3 2.7.8 1.3 1.2 1.7 2.2q.6 1.5.6 3.6c0 1.4-.2 2.6-.6 3.5-.4 1-1 1.7-1.7 2.2s-1.6.7-2.6.7m-.4-1.9c1.2 0 2-.4 2.6-1.2s.9-1.9.9-3.5-.3-2.7-.9-3.5-1.5-1.2-2.6-1.2c-.7 0-1.3.2-1.9.5-.5.3-1 .7-1.3 1.2v5.9c.3.6.8 1.1 1.3 1.3.6.4 1.2.5 1.9.5m14.6 1.7v-1.7h-2.5v-17.8h-3.8v1.7h1.9v16.1h-2.5v1.7zm12.9-6.3h-8.7q0 2.4.9 3.6t2.7 1.2c.8 0 1.5-.2 2-.6.6-.4 1-1 1.4-1.8l1.7.5c-.5 1.2-1.2 2.1-2 2.7-.9.6-1.9.9-3.2.9-1.7 0-3-.6-4-1.7s-1.5-2.8-1.5-4.8c0-2.1.5-3.7 1.4-4.8s2.2-1.7 3.9-1.7c1.2 0 2.1.3 3 .8.8.5 1.5 1.3 1.9 2.3.4.9.6 2.1.5 3.4m-7.8-3.8c-.4.6-.7 1.4-.8 2.4h6.7c-.1-1.1-.4-2-.9-2.6-.6-.7-1.4-1.1-2.4-1.1-1.2 0-2 .5-2.6 1.3m-119.9 72.8-4.7-7.9h-2.3l6 10v8.2h1.9v-8.2l6-10h-2.2zm25.5 7-4.3-15-.2.1v-.1h-2.1l-4.3 15-4.2-15h-2.3l5.4 18.2h2.3l4.3-15 4.2 15h2.3l5.4-18.2h-2.3zm14.6-4.9h4.6v5.1c-.4.3-.8.6-1.3.8-.8.3-1.7.5-2.7.5-1.9 0-3.4-.6-4.4-1.9q-1.5-1.95-1.5-5.4c0-3.45.5-4.2 1.5-5.4s2.5-1.9 4.4-1.9c1 0 1.8.2 2.6.6s1.5 1 2 1.8l1.3-1.3c-.7-1-1.5-1.7-2.5-2.3-1-.5-2.2-.8-3.4-.8-1.7 0-3.1.4-4.3 1.1s-2.1 1.8-2.8 3.2c-.6 1.4-.9 3.1-.9 5s.3 3.6.9 5 1.6 2.5 2.8 3.2 2.6 1.1 4.3 1.1c1.3 0 2.5-.2 3.6-.7 1-.5 1.9-1.2 2.5-2.1v-7.5h-6.7zm15.6-10.1h-6v1.9h6V553h2.1v-16.3h6v-1.9h-8.1zm11 13.4h12.2v-1.9h-12.2zm0-5.5h12.2v-1.9h-12.2zm22.3-8c-1.6 0-2.9.4-3.9 1.3s-1.7 2.1-2.2 3.6l1.6.8c.3-1.2.8-2.2 1.6-2.8.7-.6 1.6-1 2.7-1s1.9.3 2.5.9.9 1.3.9 2.3q0 1.05-.6 2.1c-.4.7-.9 1.3-1.4 1.8s-1.3 1.2-2.3 2.1c-.8.7-1.5 1.2-2.1 1.8-.6.5-1.1 1.1-1.7 1.8s-1 1.4-1.4 2.1v1.8h11.8v-1.8h-9.8c.5-.8 1-1.5 1.6-2.1.8-.7 1.7-1.6 3-2.6 1.1-.9 2-1.7 2.6-2.3s1.2-1.3 1.6-2.1.6-1.6.6-2.6-.2-1.8-.6-2.6c-.4-.7-1-1.3-1.8-1.7-.7-.6-1.6-.8-2.7-.8m21.8 4.2c.5 1.4.8 3.1.8 5s-.3 3.6-.8 5-1.3 2.5-2.3 3.2-2.2 1.1-3.6 1.1-2.5-.4-3.5-1.1-1.7-1.8-2.3-3.2c-.5-1.4-.8-3.1-.8-5s.3-3.6.8-5 1.3-2.5 2.3-3.2 2.2-1.1 3.5-1.1 2.6.4 3.6 1.1 1.7 1.9 2.3 3.2m-1.3 5.1c0-2.4-.4-4.2-1.2-5.5-.8-1.2-1.9-1.9-3.4-1.9s-2.6.6-3.4 1.9c-.8 1.2-1.2 3.1-1.2 5.5s.4 4.3 1.2 5.5c.8 1.3 1.9 1.9 3.4 1.9s2.6-.6 3.4-1.9 1.2-3.1 1.2-5.5m17.4-5.1c.5 1.4.8 3.1.8 5s-.3 3.6-.8 5-1.3 2.5-2.3 3.2-2.2 1.1-3.6 1.1-2.5-.4-3.5-1.1-1.7-1.8-2.3-3.2c-.5-1.4-.8-3.1-.8-5s.3-3.6.8-5 1.3-2.5 2.3-3.2 2.2-1.1 3.5-1.1 2.6.4 3.6 1.1 1.8 1.9 2.3 3.2m-1.3 5.1c0-2.4-.4-4.2-1.2-5.5-.8-1.2-1.9-1.9-3.4-1.9s-2.6.6-3.4 1.9c-.8 1.2-1.2 3.1-1.2 5.5s.4 4.3 1.2 5.5c.8 1.3 1.9 1.9 3.4 1.9s2.6-.6 3.4-1.9 1.2-3.1 1.2-5.5m-125.6 35.3-4.7-7.9h-2.3l6 10v8.2h1.9v-8.2l6-10h-2.2zm25.5 7-4.3-15-.2.1v-.1h-2.1l-4.3 15-4.2-15h-2.3l5.4 18.2h2.3l4.3-15 4.2 15h2.3l5.4-18.2h-2.3zm14.6-4.9h4.6v5.1c-.4.3-.8.6-1.3.8-.8.3-1.7.5-2.7.5-1.9 0-3.4-.6-4.4-1.9q-1.5-1.95-1.5-5.4c0-3.45.5-4.2 1.5-5.4s2.5-1.9 4.4-1.9c1 0 1.8.2 2.6.6s1.5 1 2 1.8l1.3-1.3c-.7-1-1.5-1.7-2.5-2.3-1-.5-2.2-.8-3.4-.8-1.7 0-3.1.4-4.3 1.1s-2.1 1.8-2.8 3.2c-.6 1.4-.9 3.1-.9 5s.3 3.6.9 5 1.6 2.5 2.8 3.2 2.6 1.1 4.3 1.1c1.3 0 2.5-.2 3.6-.7 1-.5 1.9-1.2 2.5-2.1v-7.5h-6.7zm15.6-10.1h-6v1.9h6v16.3h2.1v-16.3h6v-1.9zm11 7.9h12.2v-1.9h-12.2zm0 5.5h12.2v-1.9h-12.2zm22.1 3.2c-.8 0-1.5-.1-2-.4s-1-.7-1.4-1.2-.7-1.2-.9-1.9l-1.9.7c.5 1.5 1.2 2.7 2.2 3.5s2.3 1.2 4 1.2c1.3 0 2.4-.2 3.3-.7s1.6-1.1 2.1-2c.5-.8.7-1.8.7-2.9s-.3-2.1-.8-2.9-1.3-1.4-2.3-2c-.8-.4-1.7-.7-2.8-1 .9-.6 1.7-1.3 2.5-1.9 1.1-1 2.1-2 2.9-3.1v-1.8h-10.6v1.8h8.2c-.7.8-1.4 1.6-2.2 2.4-.9.8-1.9 1.5-2.9 2.2v1.7c1.9.3 3.4.9 4.5 1.6 1 .7 1.6 1.8 1.6 3.1 0 1.1-.3 2-1 2.7-.8.5-1.8.9-3.2.9m22-12.5c.5 1.4.8 3.1.8 5s-.3 3.6-.8 5-1.3 2.5-2.3 3.2-2.2 1.1-3.6 1.1-2.5-.4-3.5-1.1-1.7-1.8-2.3-3.2c-.5-1.4-.8-3.1-.8-5s.3-3.6.8-5 1.3-2.5 2.3-3.2 2.2-1.1 3.5-1.1 2.6.4 3.6 1.1c1 .8 1.7 1.8 2.3 3.2m-1.3 5c0-2.4-.4-4.2-1.2-5.5s-1.9-1.9-3.4-1.9-2.6.6-3.4 1.9-1.2 3.1-1.2 5.5.4 4.3 1.2 5.5c.8 1.3 1.9 1.9 3.4 1.9s2.6-.6 3.4-1.9 1.2-3 1.2-5.5m17.4-5c.5 1.4.8 3.1.8 5s-.3 3.6-.8 5-1.3 2.5-2.3 3.2-2.2 1.1-3.6 1.1-2.5-.4-3.5-1.1-1.7-1.8-2.3-3.2c-.5-1.4-.8-3.1-.8-5s.3-3.6.8-5 1.3-2.5 2.3-3.2 2.2-1.1 3.5-1.1 2.6.4 3.6 1.1c1 .8 1.8 1.8 2.3 3.2m-1.3 5c0-2.4-.4-4.2-1.2-5.5s-1.9-1.9-3.4-1.9-2.6.6-3.4 1.9c-.8 1.2-1.2 3.1-1.2 5.5s.4 4.3 1.2 5.5c.8 1.3 1.9 1.9 3.4 1.9s2.6-.6 3.4-1.9 1.2-3 1.2-5.5m-125.6 35.4-4.7-7.9h-2.3l6 10v8.2h1.9v-8.2l6-10h-2.2zm25.5 7-4.3-15-.2.1v-.1h-2.1l-4.3 15-4.2-15h-2.3l5.4 18.2h2.3l4.3-15 4.2 15h2.3l5.4-18.2h-2.3zm14.6-4.9h4.6v5.1c-.4.3-.8.6-1.3.8-.8.3-1.7.5-2.7.5-1.9 0-3.4-.6-4.4-1.9q-1.5-1.95-1.5-5.4 0-3.6 1.5-5.4c1-1.3 2.5-1.9 4.4-1.9 1 0 1.8.2 2.6.6s1.5 1 2 1.8l1.3-1.3c-.7-1-1.5-1.7-2.5-2.3-1-.5-2.2-.8-3.4-.8-1.7 0-3.1.4-4.3 1.1s-2.1 1.8-2.8 3.2c-.6 1.4-.9 3.1-.9 5s.3 3.6.9 5 1.6 2.5 2.8 3.2 2.6 1.1 4.3 1.1c1.3 0 2.5-.2 3.6-.7 1-.5 1.9-1.2 2.5-2.1v-7.5h-6.7zm15.6-10.1h-6v1.9h6V626h2.1v-16.3h6v-1.9h-8.1zm11 7.9h12.2v-1.9h-12.2zm0 5.5h12.2v-1.9h-12.2zm26.5-.7h2.4v1.9h-2.4v3.7h-1.8v-3.7h-9.2v-1.9c1.9-1.9 3.5-4 5.1-6.1 1.5-2.1 2.9-4.3 4.1-6.6h1.8zm-1.8 0v-9.5c-.9 1.6-1.9 3.2-2.9 4.7-1.2 1.7-2.4 3.3-3.8 4.8zm19.4-8.6c.5 1.4.8 3.1.8 5s-.3 3.6-.8 5-1.3 2.5-2.3 3.2-2.2 1.1-3.6 1.1-2.5-.4-3.5-1.1-1.7-1.8-2.3-3.2c-.5-1.4-.8-3.1-.8-5s.3-3.6.8-5 1.3-2.5 2.3-3.2 2.2-1.1 3.5-1.1 2.6.4 3.6 1.1c1 .8 1.7 1.8 2.3 3.2m-1.3 5c0-2.4-.4-4.2-1.2-5.5-.8-1.2-1.9-1.9-3.4-1.9s-2.6.6-3.4 1.9c-.8 1.2-1.2 3.1-1.2 5.5s.4 4.3 1.2 5.5c.8 1.3 1.9 1.9 3.4 1.9s2.6-.6 3.4-1.9 1.2-3 1.2-5.5m17.4-5c.5 1.4.8 3.1.8 5s-.3 3.6-.8 5-1.3 2.5-2.3 3.2-2.2 1.1-3.6 1.1-2.5-.4-3.5-1.1-1.7-1.8-2.3-3.2c-.5-1.4-.8-3.1-.8-5s.3-3.6.8-5 1.3-2.5 2.3-3.2 2.2-1.1 3.5-1.1 2.6.4 3.6 1.1c1 .8 1.8 1.8 2.3 3.2m-1.3 5c0-2.4-.4-4.2-1.2-5.5-.8-1.2-1.9-1.9-3.4-1.9s-2.6.6-3.4 1.9c-.8 1.2-1.2 3.1-1.2 5.5s.4 4.3 1.2 5.5c.8 1.3 1.9 1.9 3.4 1.9s2.6-.6 3.4-1.9 1.2-3 1.2-5.5m-125.6 35.4-4.7-7.9h-2.3l6 10v8.2h1.9v-8.2l6-10h-2.2zm25.5 7-4.3-15-.2.1v-.1h-2.1l-4.3 15-4.2-15h-2.3l5.4 18.2h2.3l4.3-15 4.2 15h2.3l5.4-18.2h-2.3zm14.6-4.9h4.6v5.1c-.4.3-.8.6-1.3.8-.8.3-1.7.5-2.7.5-1.9 0-3.4-.6-4.4-1.9q-1.5-1.95-1.5-5.4 0-3.6 1.5-5.4c1-1.3 2.5-1.9 4.4-1.9 1 0 1.8.2 2.6.6s1.5 1 2 1.8l1.3-1.3c-.7-1-1.5-1.7-2.5-2.3-1-.5-2.2-.8-3.4-.8-1.7 0-3.1.4-4.3 1.1s-2.1 1.8-2.8 3.2c-.6 1.4-.9 3.1-.9 5s.3 3.6.9 5 1.6 2.5 2.8 3.2 2.6 1.1 4.3 1.1c1.3 0 2.5-.2 3.6-.7 1-.5 1.9-1.2 2.5-2.1v-7.5h-6.7zm15.6-10.1h-6v1.9h6v16.3h2.1v-16.3h6v-1.9zm11 13.4h12.2v-1.9h-12.2zm0-5.5h12.2v-1.9h-12.2zm22.1 8.7c-1.1 0-2-.3-2.7-.8s-1.3-1.4-1.7-2.5l-1.7.8q.9 2.25 2.4 3.3c1 .7 2.3 1.1 3.7 1.1 1.3 0 2.4-.2 3.2-.8.9-.5 1.6-1.2 2-2.2.5-1 .7-2.1.7-3.5 0-1.2-.2-2.1-.6-2.9q-.6-1.2-1.8-1.8c-.8-.4-1.7-.6-2.8-.6-.8 0-1.6.2-2.4.5q-.75.3-1.5.9l.5-6.2h7.6v-1.8h-9.2l-.8 9.7h1.8c.5-.5 1-.9 1.6-1.2s1.2-.4 1.9-.4c1.2 0 2.2.4 2.9 1.1s1.1 1.8 1.1 3.1c0 1.4-.4 2.5-1.1 3.2-.7.6-1.7 1-3.1 1m22-12.5c.5 1.4.8 3.1.8 5s-.3 3.6-.8 5-1.3 2.5-2.3 3.2-2.2 1.1-3.6 1.1-2.5-.4-3.5-1.1-1.7-1.8-2.3-3.2c-.5-1.4-.8-3.1-.8-5s.3-3.6.8-5 1.3-2.5 2.3-3.2 2.2-1.1 3.5-1.1 2.6.4 3.6 1.1c1 .8 1.7 1.8 2.3 3.2m-1.3 5c0-2.4-.4-4.2-1.2-5.5-.8-1.2-1.9-1.9-3.4-1.9s-2.6.6-3.4 1.9c-.8 1.2-1.2 3.1-1.2 5.5s.4 4.3 1.2 5.5c.8 1.3 1.9 1.9 3.4 1.9s2.6-.6 3.4-1.9c.8-1.2 1.2-3.1 1.2-5.5m17.4-5c.5 1.4.8 3.1.8 5s-.3 3.6-.8 5-1.3 2.5-2.3 3.2-2.2 1.1-3.6 1.1-2.5-.4-3.5-1.1-1.7-1.8-2.3-3.2c-.5-1.4-.8-3.1-.8-5s.3-3.6.8-5 1.3-2.5 2.3-3.2 2.2-1.1 3.5-1.1 2.6.4 3.6 1.1c1 .8 1.8 1.8 2.3 3.2m-1.3 5c0-2.4-.4-4.2-1.2-5.5-.8-1.2-1.9-1.9-3.4-1.9s-2.6.6-3.4 1.9c-.8 1.2-1.2 3.1-1.2 5.5s.4 4.3 1.2 5.5c.8 1.3 1.9 1.9 3.4 1.9s2.6-.6 3.4-1.9c.8-1.2 1.2-3.1 1.2-5.5m-125.6 35.3-4.7-7.9h-2.3l6 10v8.2h1.9v-8.2l6-10h-2.2zm25.5 7.1-4.3-15-.2.1v-.1h-2.1l-4.3 15-4.2-15h-2.3l5.4 18.2h2.3l4.3-15 4.2 15h2.3l5.4-18.2h-2.3zm14.6-5h4.6v5.1c-.4.3-.8.6-1.3.8-.8.3-1.7.5-2.7.5-1.9 0-3.4-.6-4.4-1.9q-1.5-1.95-1.5-5.4 0-3.6 1.5-5.4c1-1.3 2.5-1.9 4.4-1.9 1 0 1.8.2 2.6.6s1.5 1 2 1.8l1.3-1.3c-.7-1-1.5-1.7-2.5-2.3-1-.5-2.2-.8-3.4-.8-1.7 0-3.1.4-4.3 1.1s-2.1 1.8-2.8 3.2c-.6 1.4-.9 3.1-.9 5s.3 3.6.9 5 1.6 2.5 2.8 3.2 2.6 1.1 4.3 1.1c1.3 0 2.5-.2 3.6-.7 1-.5 1.9-1.2 2.5-2.1v-7.5h-6.7zm15.6-10h-6v1.9h6v16.3h2.1v-16.3h6v-1.9zm11 7.9h12.2v-1.9h-12.2zm0 5.5h12.2v-1.9h-12.2zm16.1-1.8c0-1.9.3-3.6.9-5.2s1.6-2.9 2.8-4 2.7-2 4.3-2.6l.7 1.6c-1.5.6-2.8 1.4-3.8 2.3s-1.8 2-2.3 3.3c-.2.5-.3 1-.5 1.5.5-.5 1-.9 1.6-1.2.9-.4 1.8-.7 2.9-.7s2.1.2 2.9.6 1.5 1.1 1.9 1.9.7 1.9.7 3c0 1.2-.2 2.3-.7 3.2q-.75 1.35-2.1 2.1c-.9.5-2 .8-3.3.8-1.9 0-3.5-.6-4.5-1.7-1-1-1.5-2.7-1.5-4.9m1.9-1.4c0 .4-.1.9-.1 1.4 0 1.7.3 3 1.1 3.8.7.8 1.7 1.3 3.1 1.3s2.4-.4 3.2-1.2c.7-.8 1.1-1.8 1.1-3.2 0-1.2-.4-2.1-1.1-2.7s-1.7-1-3-1c-1.6 0-3 .6-4.3 1.6m26.1-6.1c.5 1.4.8 3.1.8 5s-.3 3.6-.8 5-1.3 2.5-2.3 3.2-2.2 1.1-3.6 1.1-2.5-.4-3.5-1.1-1.7-1.8-2.3-3.2c-.5-1.4-.8-3.1-.8-5s.3-3.6.8-5 1.3-2.5 2.3-3.2 2.2-1.1 3.5-1.1 2.6.4 3.6 1.1 1.7 1.8 2.3 3.2m-1.3 5c0-2.4-.4-4.2-1.2-5.5-.8-1.2-1.9-1.9-3.4-1.9s-2.6.6-3.4 1.9c-.8 1.2-1.2 3.1-1.2 5.5s.4 4.3 1.2 5.5c.8 1.3 1.9 1.9 3.4 1.9s2.6-.6 3.4-1.9c.8-1.2 1.2-3.1 1.2-5.5m17.4-5c.5 1.4.8 3.1.8 5s-.3 3.6-.8 5-1.3 2.5-2.3 3.2-2.2 1.1-3.6 1.1-2.5-.4-3.5-1.1-1.7-1.8-2.3-3.2c-.5-1.4-.8-3.1-.8-5s.3-3.6.8-5 1.3-2.5 2.3-3.2 2.2-1.1 3.5-1.1 2.6.4 3.6 1.1 1.8 1.8 2.3 3.2m-1.3 5c0-2.4-.4-4.2-1.2-5.5-.8-1.2-1.9-1.9-3.4-1.9s-2.6.6-3.4 1.9c-.8 1.2-1.2 3.1-1.2 5.5s.4 4.3 1.2 5.5c.8 1.3 1.9 1.9 3.4 1.9s2.6-.6 3.4-1.9c.8-1.2 1.2-3.1 1.2-5.5m-125.6 35.3-4.7-7.9h-2.3l6 10v8.2h1.9v-8.2l6-10h-2.2zm25.5 7.1-4.3-15-.2.1v-.1h-2.1l-4.3 15-4.2-15h-2.3l5.4 18.2h2.3l4.3-15 4.2 15h2.3l5.4-18.2h-2.3zm14.6-5h4.6v5.1c-.4.3-.8.6-1.3.8-.8.3-1.7.5-2.7.5-1.9 0-3.4-.6-4.4-1.9q-1.5-1.95-1.5-5.4 0-3.6 1.5-5.4c1-1.3 2.5-1.9 4.4-1.9 1 0 1.8.2 2.6.6s1.5 1 2 1.8l1.3-1.3c-.7-1-1.5-1.7-2.5-2.3-1-.5-2.2-.8-3.4-.8-1.7 0-3.1.4-4.3 1.1s-2.1 1.8-2.8 3.2c-.6 1.4-.9 3.1-.9 5s.3 3.6.9 5 1.6 2.5 2.8 3.2 2.6 1.1 4.3 1.1c1.3 0 2.5-.2 3.6-.7 1-.5 1.9-1.2 2.5-2.1v-7.5h-6.7zm15.6-10h-6v1.9h6v16.3h2.1v-16.3h6v-1.9zm11 13.4h12.2v-1.9h-12.2zm0-5.5h12.2v-1.9h-12.2zm21.8 1.3c-1 2.8-1.8 5.8-2.1 9h1.9c.3-3.2.9-6.2 2-8.9q1.65-4.2 4.5-7.5v-1.8h-12v1.8h9.7c-1.6 2.3-3 4.7-4 7.4m22.3-5.1c.5 1.4.8 3.1.8 5s-.3 3.6-.8 5-1.3 2.5-2.3 3.2-2.2 1.1-3.6 1.1-2.5-.4-3.5-1.1-1.7-1.8-2.3-3.2c-.5-1.4-.8-3.1-.8-5s.3-3.6.8-5 1.3-2.5 2.3-3.2 2.2-1.1 3.5-1.1 2.6.4 3.6 1.1 1.7 1.8 2.3 3.2m-1.3 5c0-2.4-.4-4.2-1.2-5.5-.8-1.2-1.9-1.9-3.4-1.9s-2.6.6-3.4 1.9c-.8 1.2-1.2 3.1-1.2 5.5s.4 4.3 1.2 5.5c.8 1.3 1.9 1.9 3.4 1.9s2.6-.6 3.4-1.9 1.2-3.1 1.2-5.5m17.4-5c.5 1.4.8 3.1.8 5s-.3 3.6-.8 5-1.3 2.5-2.3 3.2-2.2 1.1-3.6 1.1-2.5-.4-3.5-1.1-1.7-1.8-2.3-3.2c-.5-1.4-.8-3.1-.8-5s.3-3.6.8-5 1.3-2.5 2.3-3.2 2.2-1.1 3.5-1.1 2.6.4 3.6 1.1 1.8 1.8 2.3 3.2m-1.3 5c0-2.4-.4-4.2-1.2-5.5-.8-1.2-1.9-1.9-3.4-1.9s-2.6.6-3.4 1.9c-.8 1.2-1.2 3.1-1.2 5.5s.4 4.3 1.2 5.5c.8 1.3 1.9 1.9 3.4 1.9s2.6-.6 3.4-1.9 1.2-3.1 1.2-5.5m-125.6 35.3-4.7-7.9h-2.3l6 10v8.2h1.9v-8.2l6-10h-2.2zm25.5 7.1-4.3-15-.2.1v-.1h-2.1l-4.3 15-4.2-15h-2.3l5.4 18.2h2.3l4.3-15 4.2 15h2.3l5.4-18.2h-2.3zm14.6-5h4.6v5.1c-.4.3-.8.6-1.3.8-.8.3-1.7.5-2.7.5-1.9 0-3.4-.6-4.4-1.9q-1.5-1.95-1.5-5.4c0-3.45.5-4.2 1.5-5.4 1-1.3 2.5-1.9 4.4-1.9 1 0 1.8.2 2.6.6s1.5 1 2 1.8l1.3-1.3c-.7-1-1.5-1.7-2.5-2.3-1-.5-2.2-.8-3.4-.8-1.7 0-3.1.4-4.3 1.1s-2.1 1.8-2.8 3.2c-.6 1.4-.9 3.1-.9 5s.3 3.6.9 5 1.6 2.5 2.8 3.2 2.6 1.1 4.3 1.1c1.3 0 2.5-.2 3.6-.7 1-.5 1.9-1.2 2.5-2.1v-7.5h-6.7zm15.6-10h-6v1.9h6v16.3h2.1v-16.3h6v-1.9zm11 13.4h12.2v-1.9h-12.2zm0-5.5h12.2v-1.9h-12.2zm27.9 2.7c.6.7.9 1.6.9 2.8 0 1-.3 1.9-.8 2.7s-1.3 1.4-2.3 1.8q-1.5.6-3.6.6v-1.8c1.4 0 2.6-.3 3.4-.9q1.2-.9 1.2-2.4 0-1.05-.6-1.8t-1.5-1.2c-.6-.3-1.4-.6-2.3-.9-.1 0-.2-.1-.4-.1l-.9.3c-.4.1-.8.3-1.2.5-.5.2-1 .5-1.3.7-.3.3-.6.6-.8.9-.2.4-.3.8-.3 1.3q0 1.65 1.2 2.7c.8.6 2 1 3.5 1v1.8q-2.1 0-3.6-.6c-1-.4-1.7-1-2.3-1.8-.5-.8-.8-1.7-.8-2.8 0-1 .2-1.9.7-2.5.5-.7 1.1-1.2 1.8-1.6.5-.2 1-.5 1.6-.7-.2-.1-.4-.2-.5-.3q-1.05-.6-1.8-1.5c-.5-.6-.7-1.4-.7-2.3s.2-1.6.7-2.3c.4-.7 1.1-1.2 1.9-1.6q1.2-.6 3-.6t3 .6c.8.4 1.5.9 1.9 1.6q.6 1.05.6 2.4c0 1.2-.4 2.1-1.1 2.8-.5.5-1.2.9-2 1.2.4.2.9.4 1.2.5 1 .1 1.7.7 2.2 1.5m-7.5-3.8c.5.3 1.1.5 1.8.7.3-.1.6-.2.8-.3.3-.2.7-.3 1-.5.7-.3 1.1-.7 1.5-1.1.3-.4.5-.9.5-1.4 0-.9-.3-1.6-1-2.1s-1.6-.7-2.8-.7-2.1.2-2.8.7-1 1.1-1 1.9c0 .6.2 1.1.5 1.6.5.5.9.9 1.5 1.2m23.7-2.7c.5 1.4.8 3.1.8 5s-.3 3.6-.8 5-1.3 2.5-2.3 3.2-2.2 1.1-3.6 1.1-2.5-.4-3.5-1.1-1.7-1.8-2.3-3.2c-.5-1.4-.8-3.1-.8-5s.3-3.6.8-5 1.3-2.5 2.3-3.2 2.2-1.1 3.5-1.1 2.6.4 3.6 1.1 1.7 1.8 2.3 3.2m-1.3 5c0-2.4-.4-4.2-1.2-5.5-.8-1.2-1.9-1.9-3.4-1.9s-2.6.6-3.4 1.9c-.8 1.2-1.2 3.1-1.2 5.5s.4 4.3 1.2 5.5c.8 1.3 1.9 1.9 3.4 1.9s2.6-.6 3.4-1.9 1.2-3.1 1.2-5.5m17.4-5c.5 1.4.8 3.1.8 5s-.3 3.6-.8 5-1.3 2.5-2.3 3.2-2.2 1.1-3.6 1.1-2.5-.4-3.5-1.1-1.7-1.8-2.3-3.2c-.5-1.4-.8-3.1-.8-5s.3-3.6.8-5 1.3-2.5 2.3-3.2 2.2-1.1 3.5-1.1 2.6.4 3.6 1.1 1.8 1.8 2.3 3.2m-1.3 5c0-2.4-.4-4.2-1.2-5.5-.8-1.2-1.9-1.9-3.4-1.9s-2.6.6-3.4 1.9c-.8 1.2-1.2 3.1-1.2 5.5s.4 4.3 1.2 5.5c.8 1.3 1.9 1.9 3.4 1.9s2.6-.6 3.4-1.9 1.2-3.1 1.2-5.5m-120.9 27.4-4.7 7.9-4.7-7.9h-2.3l6 10v8.2h1.9v-8.2l6-10zm20.8 15-4.3-15-.2.1v-.1h-2.1l-4.3 15-4.2-15h-2.3l5.4 18.2h2.3l4.3-15 4.2 15h2.3l5.4-18.2h-2.3zm14.6-5h4.6v5.1c-.4.3-.8.6-1.3.8-.8.3-1.7.5-2.7.5-1.9 0-3.4-.6-4.4-1.9q-1.5-1.95-1.5-5.4c0-3.45.5-4.2 1.5-5.4 1-1.3 2.5-1.9 4.4-1.9 1 0 1.8.2 2.6.6s1.5 1 2 1.8l1.3-1.3c-.7-1-1.5-1.7-2.5-2.3-1-.5-2.2-.8-3.4-.8-1.7 0-3.1.4-4.3 1.1s-2.1 1.8-2.8 3.2c-.6 1.4-.9 3.1-.9 5s.3 3.6.9 5 1.6 2.5 2.8 3.2 2.6 1.1 4.3 1.1c1.3 0 2.5-.2 3.6-.7 1-.5 1.9-1.2 2.5-2.1v-7.5h-6.7zm15.6-10h-6v1.9h6v16.3h2.1v-16.3h6v-1.9zm11 13.4h12.2v-1.9h-12.2zm0-5.5h12.2v-1.9h-12.2zm26.7-6.4c1.1 1.2 1.6 2.9 1.6 5.1 0 1.9-.3 3.6-1 5.2-.6 1.6-1.6 2.9-2.8 4s-2.7 2-4.3 2.6l-.7-1.6c1.5-.6 2.8-1.4 3.8-2.3s1.8-2 2.3-3.3c.2-.5.3-1 .5-1.5-.5.5-1 .9-1.6 1.2-.9.4-1.8.7-2.9.7s-2.1-.2-2.9-.6-1.5-1.1-1.9-1.9c-.5-.8-.7-1.9-.7-3 0-1.2.2-2.3.7-3.2q.75-1.35 2.1-2.1c.9-.5 2-.8 3.3-.8q2.85-.3 4.5 1.5m-.4 6.5c0-.4.1-.9.1-1.4 0-1.7-.3-3-1.1-3.8-.7-.8-1.7-1.3-3.1-1.3s-2.4.4-3.2 1.2c-.7.8-1.1 1.8-1.1 3.2 0 1.2.3 2.1 1.1 2.7.7.6 1.7 1 3 1 1.6-.1 3-.6 4.3-1.6m17.8-3.9c.5 1.4.8 3.1.8 5s-.3 3.6-.8 5-1.3 2.5-2.3 3.2-2.2 1.1-3.6 1.1-2.5-.4-3.5-1.1-1.7-1.8-2.3-3.2c-.5-1.4-.8-3.1-.8-5s.3-3.6.8-5 1.3-2.5 2.3-3.2 2.2-1.1 3.5-1.1 2.6.4 3.6 1.1 1.7 1.8 2.3 3.2m-1.3 5c0-2.4-.4-4.2-1.2-5.5-.8-1.2-1.9-1.9-3.4-1.9s-2.6.6-3.4 1.9c-.8 1.2-1.2 3.1-1.2 5.5s.4 4.3 1.2 5.5c.8 1.3 1.9 1.9 3.4 1.9s2.6-.6 3.4-1.9 1.2-3.1 1.2-5.5m17.4-5c.5 1.4.8 3.1.8 5s-.3 3.6-.8 5-1.3 2.5-2.3 3.2-2.2 1.1-3.6 1.1-2.5-.4-3.5-1.1-1.7-1.8-2.3-3.2c-.5-1.4-.8-3.1-.8-5s.3-3.6.8-5 1.3-2.5 2.3-3.2 2.2-1.1 3.5-1.1 2.6.4 3.6 1.1 1.8 1.8 2.3 3.2m-1.3 5c0-2.4-.4-4.2-1.2-5.5-.8-1.2-1.9-1.9-3.4-1.9s-2.6.6-3.4 1.9c-.8 1.2-1.2 3.1-1.2 5.5s.4 4.3 1.2 5.5c.8 1.3 1.9 1.9 3.4 1.9s2.6-.6 3.4-1.9 1.2-3.1 1.2-5.5" style="opacity:.5;fill:#44bbc7"/></svg>