<svg xmlns="http://www.w3.org/2000/svg" viewBox="0 0 1280 960" style="enable-background:new 0 0 1280 960" xml:space="preserve"><path d="M178.5 224.7c2.4-5 6.5-8.9 11.5-11.2 5.1-2.4 11.7-3.6 19.7-3.6h54.2v-8h-85.2v-30h89.2c14.9 0 26.4 4 34.4 12s12 19.3 12 33.8v62.2h-50.2c0-7.4.7-14.7 2.3-21.9 1.8-7.8 4.2-15.4 7.3-22.7h-9.8c-1.2 11.7-3.3 20.8-6.4 27.1-2.8 6.1-7.8 10.9-14 13.5-6.3 2.7-15 4-26.2 4-13.3 0-23.8-3-31.3-9s-11.3-14.8-11.3-26.4c0-8.2 1.3-14.8 3.8-19.8zm85.4 4.8v-8h-38.8v8h38.8zm342.3-68.3c1.2-2.5 3.2-4.5 5.8-5.6 3.1-1.3 6.5-1.9 9.8-1.8H649v-4h-37.9c-1.9 0-3.3-1.2-4-3.8-.8-2.4-.8-5.1 0-7.5.8-2.5 2.1-3.8 4-3.8H651c7.5 0 13.2 2 17.2 6s6 9.6 6 16.9V181c0 3.3-2.2 5.6-6.5 6.9-4.1 1.2-8.5 1.3-12.7.2-4.1-1.1-5.9-2.8-5.3-5.3.2-2.7.6-5.4 1.3-8 .8-2.8 1.8-5.6 2.9-8.4H649c-.6 5.9-1.7 10.4-3.2 13.6-1.4 3-3.9 5.5-7 6.8s-7.5 2-13.1 2c-6.7 0-11.9-1.5-15.7-4.5s-5.7-7.4-5.7-13.2c0-3.4.6-6.8 1.9-9.9zm42.8 2.4v-4h-19.4v4H649zm-52.5 551.7c1.6-2.6 4.1-4.6 7-5.5 3.2-1.2 7.7-1.8 13.3-1.8H649v-4h-48.2c-1.8 0-3-1.2-3.8-3.8-.7-2.5-.7-5 0-7.5s2-3.8 3.8-3.8H651c12.1 0 20.6 1.9 25.7 5.8s7.5 9.6 7.5 17.2v23.6c-.9 3.2-4 5.4-9.5 6.6-5.4 1.2-10.9 1.3-16.3.2-5.4-1-8.3-2.7-8.7-5 .2-2.7.6-5.4 1.3-8.1.8-2.9 1.7-5.7 2.9-8.5H649c-.6 6-1.8 10.5-3.5 13.7-1.8 3.2-4.8 5.6-8.2 6.7-3.8 1.3-9.3 2-16.6 2-9 0-15.6-1.5-19.9-4.4-4.3-2.9-6.4-7.4-6.4-13.3 0-4.3.7-7.6 2.1-10.1zm52.5 2.5v-4h-19.4v4H649zm317.7-493.1c2.4-5 6.5-8.9 11.5-11.2 5.1-2.4 11.7-3.6 19.7-3.6h54.2v-8h-68c-7.2 0-12.2-2.5-15.1-7.5-2.9-4.6-2.9-10.4 0-15 2.9-5 7.9-7.5 15.1-7.5h72c14.9 0 26.4 4 34.4 12s12 19.3 12 33.8v32.2c0 12.7-4.4 21.4-13.3 26.2s-17.4 5.1-25.7 1-11.2-10.8-8.8-20c.9-3.7 2-7.4 3.2-10.9s2.5-7.2 4-10.9h-9.8c-1.2 11.7-3.3 20.8-6.4 27.1-2.8 6.1-7.8 10.9-14 13.5-6.3 2.7-15 4-26.2 4-13.3 0-23.8-3-31.3-9s-11.3-14.8-11.3-26.4c0-8.2 1.3-14.8 3.8-19.8zm85.4 4.8v-8h-38.8v8h38.8zM179 754.2c2.9-5 7.5-8.7 14-11s15.4-3.5 26.7-3.5h64.2v-8H178.7v-30h109.2c24.1 0 41.2 3.8 51.3 11.5 10.1 7.7 15.1 19.1 15.1 34.3v62.2h-70.2c0-7.4.7-14.7 2.3-21.9 1.8-7.8 4.2-15.4 7.3-22.7h-9.8c-1.2 12-3.5 21.1-6.9 27.3s-8.9 10.6-16.5 13.3-18.7 4-33.2 4c-18 0-31.3-2.9-39.8-8.8s-12.8-14.7-12.8-26.6c0-8.4 1.4-15.1 4.3-20.1zm104.9 5.1v-8h-38.8v8h38.8zm643.3-5.1c2.9-5 7.5-8.7 14-11s15.4-3.5 26.7-3.5h64.2v-8h-89.4c-6.5 0-11.1-2.5-13.7-7.5-2.6-4.7-2.6-10.3 0-15 2.6-5 7.2-7.5 13.7-7.5h93.4c24.1 0 41.2 3.8 51.3 11.5 10.1 7.7 15.1 19.1 15.1 34.3v33.4c0 12.3-6 20.7-17.9 25.3s-23.7 4.9-35.3 1c-11.6-3.9-16.5-10.3-14.6-19.1.8-3.9 1.9-7.7 3.1-11.5 1.3-3.9 2.6-7.8 4.1-11.5h-9.8c-1.2 12-3.5 21.1-6.9 27.3s-8.9 10.6-16.5 13.3-18.7 4-33.2 4c-18 0-31.3-2.9-39.8-8.8s-12.8-14.7-12.8-26.6c0-8.4 1.4-15.1 4.3-20.1zm104.9 5.1v-8h-38.8v8h38.8z"/><path style="fill:none;stroke:#000;stroke-width:2.98;stroke-miterlimit:10" d="M397 215.1h486.1v547.6H397z"/><path d="M388 206.1h18v18h-18zm-.8 547.6h24v18h-24zM883 206.1c5 0 9 4 9 9s-4 9-9 9-9-4-9-9c0-4.9 4-9 9-9zm-3 546.8h6c5 0 9 4 9 9s-4 9-9 9h-6c-5 0-9-4-9-9s4-9 9-9z"/></svg>