<svg xmlns="http://www.w3.org/2000/svg" viewBox="0 0 1280 960"><path d="M175 192.1h-37.5v-19.4h37.9v-13.5h26.5v13.5h37.9v19.4h-37.5c1.4 4.2 3.5 7.5 6.3 9.7 2.8 2.3 6.9 3.9 12.2 4.8s12.6 1.3 21.9 1.1q-3.45 10.65-4.2 21.6c-10.5 0-18.8-.6-25.1-1.8-6.2-1.2-11.5-3.4-15.7-6.6q-4.8-3.6-9-9.9-4.2 6.3-9 9.9c-4.2 3.2-9.5 5.4-15.7 6.6-6.3 1.2-14.6 1.8-25.1 1.8q-.75-10.95-4.2-21.6c9.1.5 16.4.3 21.7-.7 5.4-.9 9.5-2.6 12.3-4.9 2.8-2.4 4.9-5.8 6.3-10m221.4-3.6c2.6-2.4 4.7-5.7 6.1-9.8h-18.8v-17.8h103.9v17.8h-60c-.9 2.7-2 5.4-3.2 7.9h60.2v36.8c0 4.7-2.5 7.1-7.4 7.1h-77.9v-18.3c-4.9 2.3-10.3 3.7-16.1 4.3 0-7.6-1.2-14.9-3.5-21.9 7-.2 12.6-2.3 16.7-6.1m63.5 14.9H424v9.7h35.9zm-197.6 29.4c-1.9-6.9-4.7-14.4-8.4-22.2 4.2-1.2 7.2-3.1 8.9-5.9 1.7-2.7 2.6-6.9 2.6-12.6v-26.6H306v-8.1h26.5v8.1H366v15h-29.2v6.6H366v14.2h-26.2c.7 1.1 1.4 2.1 2.2 3 2.3 2.4 5.6 4.1 10 5.1 4.3.9 10.3 1.3 17.9 1-2.1 6.6-3.4 13.2-3.7 19.8-8.6 0-15.7-.7-21.1-2.1s-10-3.7-13.6-6.9c-1.8-1.6-3.6-3.5-5.2-5.8-1.7 2.3-3.4 4.2-5.2 5.8-3.6 3.2-7.9 5.5-13 6.9s-11.7 2.1-19.7 2.1c-.3-5.4-1.1-10.7-2.5-15.9-1.5 3.9-4 7.2-7.3 10-3.9 2.9-9.3 5.8-16.3 8.5m47-31.5h-21.1c-.2 3.5-.7 6.5-1.3 9.2 5 .3 9.1.1 12.3-.8 3.6-1 6.4-2.7 8.3-5.2.6-.9 1.3-2 1.8-3.2m2.4-20.8h-23.4v6.6h23.4zm219.2 4.2h-24.1v17.9h24.1zm4.6-19.4h25.7v-6H585v6h25.5V222q0 3.75-2.1 5.7c-1.4 1.3-3.4 2-6 2h-66.8v-64.4zm20.3 45.2h7.3V205h-7.3zm34.4 0V205H583v5.5zm0-27.9H583v5.5h7.1v-5.5zm-34.4 0v5.5h7.3v-5.5zm-26.2 45.8c.9-.9 1.3-2.1 1.3-3.7v-16.9h-24.1v22h19c1.7-.1 2.9-.5 3.8-1.4m1.3-66.6h-24.1v18.7h24.1zM319 266.8v13.4c-5.9.6-12.3.9-19.3.8.3 2.3.5 4.6.5 7.1 7.1-.1 13.4-.4 18.8-.9v9.7c0 1.9.4 3.3 1.1 4.1.7.9 1.9 1.3 3.5 1.3h36.7c.1-3 .4-5.9.8-8.8-5.2.8-10.6 1.2-16.1 1.5-5.6.2-12.8.3-21.5.3v-8.6c5.9-.9 11.5-2.3 16.8-4.3 5.8-2.2 11.5-5.2 17.4-8.9l-2.7-4.6q-11.25 6.9-24.3 9.6c-2.3.5-4.7.8-7.1 1.2v-12.9zm248.5-1.7h-4.4c-.1 7.1-1.6 13.7-4.4 19.8h6.4c.7-2.6 1.2-5.4 1.6-8.4h17.1l.9 8.4h5.5l-2.1-8.4h22.7v-7.1h-43.5c.1-1.4.2-2.9.2-4.3m-14.8 63.6v-8l56.6-1.7-.2-7.4-56.4 1.7v-6.4l47.7-1.4-.1-6.4-47.6 1.4v-5.9c3.6-.1 7-.3 10.2-.5 12.9-.7 25.8-2 38.9-3.7l-.8-5.4c-27.5 2.5-56.4 3.5-86.9 3 .5 2.4.7 4.8.3 7.3 12.7 0 23.9-.2 33.8-.5v5.9l-32.7 1 .1 6.4 32.6-.9v6.4l-41.6 1.2.2 7.4 41.4-1.2v9c0 2.1.5 3.6 1.4 4.5s2.4 1.4 4.5 1.4h56.3c.1-2.2.4-5.1 1.1-8.8-6.3.7-13.9 1.2-22.7 1.4-8.8.1-20.9.2-36.1.2m-262.9-63c-.8 3.6-2.2 6.5-4.4 8.7-2.1 2.2-5.2 3.8-9.2 4.9s-9.2 1.6-15.7 1.6c.4 2.2.7 4.8.8 7.7q11.1-.6 17.7-3.3c.4-.2.9-.4 1.3-.6v21.5h4.4v-24q2.55-1.8 4.2-4.2c2.2-3.1 4-6.9 5.3-11.6zm-27.9 55.9H310v15.2h4.4v-15.2h48.1v-7.1h-48.1v-9.3H310v9.3h-48.1zm161.7-9.4v-7.1h-21v-10.7h17.9v-7.1H391v7.1h7.2v10.7h-13.4v7.1h13.4v15.3l-4.4.1v7.1c4.6 0 9.5-.2 14.9-.7s10.2-1.1 14.5-1.9c0-2.1.2-3.8.4-5.3l-21 .6v-15.2zm9.7 22.8v-32.7h48v27.6c0 3.4-1.4 5.1-4.3 5.1zm4.4-7h39.1v-18.6h-39.1zm37-44.4v-17.4h-36v11c0 3.4-1 5.9-3 7.4-2 1.6-5.2 2.3-9.6 2.2.9 2.3 1.6 4.9 1.9 7.7 10.1-.8 15.2-5.5 15.2-14.1v-7.1h27.2v15.3c0 1.7.4 2.9 1.2 3.7s2 1.1 3.7 1.1h12.3c.2-2.6.6-5.3 1.3-7.9q-4.35.9-10.5.9c-2.5 0-3.7-.9-3.7-2.8m40.5-7.1H532l.6 8.4h5.5l-1.8-8.4h18v-7.1h-38.1c.1-1.5.2-2.9.2-4.4H512c-.1 6.8-1.9 13.4-5.6 19.8h6.4c1-2.4 1.8-5.2 2.4-8.3m-124.5-13.6c-.3 6.4-1.3 11.3-3 14.9s-4.4 6-8 7.4c1.3 2.3 2.1 4.8 2.6 7.5 3.9-2.1 7-5.4 9.1-10.1q1.05-2.4 1.8-5.4h30.4V270h-29.1c.3-2.2.5-4.6.6-7.1zm-161.9 55.8h-37.9v18.8h-4.4v-18.8h-43.7v-43.1h43.7V264h4.4v11.6h43.7V313q0 2.7-1.5 4.2c-1 1-2.4 1.5-4.3 1.5m-42.3-7.1v-29h-39.2v29zm4.4 0h39.2v-29h-39.2zm320.9 129.7c9.5-2.4 16.5-6.4 20.9-12q6.6-8.4 6.6-22.8v-13h69.9v-20.3h-95.5v31.2c0 2.6-.3 4.9-1 6.6-.7 1.8-1.8 3.3-3.4 4.5-1.6 1.3-3.8 2.4-6.6 3.5 4.1 7.6 7.1 15 9.1 22.3m-357.2-16.1c-.1 1-.2 2-.4 3h2.8V423h-22.1v-13.7H157v-2.7h-23.9v-13.2h11.1l-1.3-5h18.7s.6 2.6 1.2 5h7.1l1.2-5h18.7l-1.3 5h10.3v13.2h-21.5v2.7h20.2v9.8c.9-.8 1.7-1.8 2.2-3.1.9-2.3 1.4-6.1 1.4-11.4v-31.4c13.5 0 26.8-1.3 39.9-4l4.3 16.8c-7.7 1.1-16.3 1.8-25.8 2.3v4.6h25.1v16.8h-3.4v33.7h-19.4v-33.7h-2.3q-.15 8.55-1.5 14.4c-1.1 4.7-2.8 8.7-5.3 11.9s-5.9 5.8-10.3 7.8c-1.5-7-3.7-13.9-6.5-20.8h-18.5v11.7c0 2.8-.7 4.9-2.1 6.4s-3.5 2.3-6.2 2.3h-13.4c-.3-4.4-.9-8.4-1.9-11.9-.7 4-1.5 7.7-2.6 11.1h-18.3c2.1-5.8 3.5-11.6 4.2-17.3h17.5zm105.6-21.9q5.7-.45 10.5-1.5v13.5H294V388c.6-.8 1.2-1.6 1.7-2.4q4.35-7.05 5.4-14.7l-26.2-1.6c-.5 3-1.4 5.4-2.6 7.2-1.3 1.8-3.1 3.1-5.5 4.1-2.4.9-5.6 1.5-9.6 1.6 1.8 6.5 2.8 13.6 3 21.1m-77.9 39.2h17.1c-2.2-5.8-3.7-11.6-4.5-17.3H179c.4 6.4 1.6 12.1 3.3 17.3m160.9-49.6c7.3-1.3 14.4-3.2 21.1-5.6l-7.7-17.8c-7.4 3.9-15.8 6.8-25.3 8.6v-8h-23.8v10.6c-2.6.1-5.2.1-7.8.1q1.95 8.55 2.1 19.5c1.9 0 3.8-.1 5.7-.2v2.6c0 3.8 1.1 6.5 3.2 8.2 1.2 1 2.8 1.6 4.7 2.1h-16.5v5.5h-39.7v17h39.7v9h26.5v-9h39.7v-17h-39.7v-4.9h39.2c.3-6.3 1.2-12.4 2.6-18.3-6.1.9-12.2 1.5-18.2 1.9s-12 .5-17.8.3v-2.7c4.3-.7 8.2-1.2 12-1.9M155.7 369v4.8h-19.9v12.8h60.8v-12.8h-19.7V369zm334.6 58.5v-54h-55.6l-.7-5.5c-15.4 3.8-33.1 5.6-53.1 5.6v63.1c18.3 0 35-.9 50.2-2.6l-1.3-20.4c-7.3 1.5-16.1 2.3-26.2 2.4v-5.9h27V393h-27v-3.9c11-.4 21.1-1.4 30.3-3.1v58H458v-50.6h10.9v21.8h-8.4c2.1 7 3.3 14 3.6 20.9h18.1c2.6 0 4.7-.7 6-2.2 1.4-1.5 2.1-3.6 2.1-6.4m-351.9 75h10.1l-2.7-9.3h5.3l1.1 9.3h20.1v-11.9H141v-7.1h19.7l-2.6-6.8 5.3-.9 1 7.7h48.3l1-7.7 5.3.9-2.6 6.8h19.7v7.1H205v11.9h20.1l1.1-9.3h5.3l-2.7 9.3h10.1v7.1H138.4zm38.4 0h23.8v-11.9h-23.8zm107.9 15.3v-24q2.55-1.8 4.2-4.2c2.2-3.1 4-6.9 5.3-11.6l-4.4-.6c-.8 3.6-2.2 6.5-4.4 8.7-2.1 2.2-5.2 3.8-9.2 4.9s-9.2 1.6-15.7 1.6c.4 2.2.7 4.8.8 7.7q11.1-.6 17.7-3.3c.4-.2.9-.4 1.3-.6v21.5h4.4zm72.9-32.7s0 .1 0 0m-129.7 62.3h-83.3v-33.1h88.2v27.3c0 1.9-.4 3.3-1.2 4.3-.9 1.1-2.1 1.5-3.7 1.5m-78.9-26v6.2h79.4v-6.2zm0 19h79.4v-6.6H149zm213.4-14.2h-48.1v-9.3H310v9.3h-48.1v7.1H310v15.2h4.4v-15.2h48.1v-7.1zM319 478.5v13.4c-5.9.6-12.3.9-19.3.8.3 2.3.5 4.6.5 7.1 7.1-.1 13.4-.4 18.8-.9v9.7c0 1.9.4 3.3 1.1 4.1.7.9 1.9 1.3 3.5 1.3h36.7c.1-3 .4-5.9.8-8.8-5.2.8-10.6 1.2-16.1 1.5-5.6.2-12.8.3-21.5.3v-8.6c5.9-.9 11.5-2.3 16.8-4.3 5.8-2.2 11.5-5.1 17.4-8.9l-2.7-4.6q-11.25 6.9-24.3 9.6c-2.3.5-4.7.8-7.1 1.2v-12.9zM485.9 536h-33.8l3.7-27H420l5.2-19.4h56.3v-7.1H390v7.1h30.1l-5.4 26.5H451l-4 19.9h-61.6v7.1h100.5zm89.9-56.6h-4.4V536h-24.7v-56.6h-4.4V536h-36.2v7.1H612V536h-36.2zM525 526.3l-7.2-42.1-6.2 1.1 9.9 41.8zm75.4-42.2-7.2 42.1 3.5.7 9.9-41.8zm316-312.2.3-.9h23.5v9.7h-31.7v7.1h31.7v9.7h-30v29.7h4.4v-22.7h25.6v25.7h4.4v-25.7h25.6v16.1h-14.8c.4 2.2.7 4.5.8 7.1h11.9c2.1 0 3.7-.6 4.9-1.7 1.1-1.1 1.7-2.8 1.7-4.8v-23.6h-30v-9.7h31.7v-7.1h-31.7v-9.7h30V164h-30v-4.2h-4.4v4.2h-21.8c.2-1.3.3-2.7.4-4.2h-4c-.5 6.8-2.7 10.9-6.5 12.2 1.3 2.2 2.1 4.4 2.6 6.6 2.2-1.2 4-3.4 5.4-6.7m153.2.5c.2-.3.3-.7.4-1.1h26.5v8.1h-34v7.1h72.5v-7.1h-34v-8.1h31.4v-7.1H1101v-4.5h-4.4v4.5h-24.9c.1-1.3.2-2.6.2-4.1h-4c-.1 3.6-.8 6.5-2 8.5s-2.9 3.1-5 3.3c1.4 2.1 2.4 4.2 2.9 6.5 2.4-.7 4.3-2.8 5.8-6m-76.7-8.6h-4.4v44.3h4.4zM799.5 222H786v-7h11.5v-54h81.1v54h11.5v7.1h-13.4c1.2 3 3 5.9 5.4 8.5h-7.4c-1-2.5-1.9-5.3-2.6-8.5h-67.9c-.7 3-1.6 5.9-2.7 8.5h-7.4c2.3-2.6 4.1-5.4 5.4-8.6m74.7-40.8h-72.3v7.1h72.3zm-72.3 13.3v7.1h72.3v-7.1zm0-26.5v7h72.3v-7zm0 47h72.3v-7.1h-72.3zm190.5 15h13.6c3.5 0 5.3-2 5.3-6v-64.3h-4.4v63.2h-15.4c.5 2.5.8 4.8.9 7.1m47.8-11.2q-4.95 1.8-8.7 4.2c.8 1 1.6 2.1 2.3 3.3s1.2 2.5 1.7 3.8c5.3-4.3 10.8-7.9 16.4-10.6 3.6 2.6 7.8 4.8 12.7 6.3 5.6 1.8 12.3 2.6 20.3 2.6h50.7c.2-3.1.7-6 1.4-8.8-8.5 1.2-23.9 1.8-46.4 1.8-10.4 0-18.4-.5-23.9-1.4-4.8-.8-9-2.1-12.7-3.8v-33.9h-20.1v7.1h15.7v26.4c-3.5 1-6.6 1.9-9.4 3m-337.6-5.3c2.3-.8 4.4-1.7 6.5-2.7-11.7-8.9-19.7-20.5-24.1-35h-19.7v-7.1h47.4l-1.2-7.1h6.2l-1.2 7.1h47.4v7.1h-19.7c-4.4 14.4-12.4 26.1-24 35 2.1.9 4.2 1.8 6.5 2.6q16.35 5.85 41.4 4.5c-1.2 2.5-1.9 5.4-2.1 8.6-21.7-.5-38.7-4.6-51.2-12.1-12.5 7.5-29.6 11.6-51.2 12.1-.2-3.2-.9-6.1-2.1-8.6 16.4 1.1 30.2-.5 41.1-4.4m12-5.4c5.3-3 9.6-6.5 13.1-10.5 5.5-6.4 9.5-13.6 12.1-21.6h-50.3q3.9 12 12 21.6c3.5 3.9 7.9 7.4 13.1 10.5m340.5-44.7h-18.6v7.1h18.6zm11.7 29.5h63.7v15.6c0 2.1-.5 3.6-1.4 4.5s-2.3 1.4-4.1 1.4h-58.2zm4.4 15.4h54.9v-9.2h-54.9zm-398.8 95.5v32.4h25v-48c1.1-1.5 2-3 2.8-4.7q4.2-8.55 4.2-17.7l-27.1-1.6c-.2 4.1-.8 7.3-1.9 9.7s-2.9 4.1-5.5 5.3-6.4 1.9-11.3 2.3c2.8 7.2 4.5 15.1 4.9 23.6 3.2-.3 6.1-.7 8.9-1.3m66.7 1.7c11.1-3.9 21-9.4 29.8-16.7L754.7 268c-6 6.4-12.9 11.3-20.9 14.9V265h-24.7v23.8c-3.2.2-6.4.3-9.8.2 2.2 6.8 3.4 14.5 3.6 22.9 2.1-.1 4.1-.2 6.2-.3v8.9c0 4.8 1.1 8.4 3.4 10.6 2.3 2.3 5.9 3.4 10.8 3.4h42c.5-8.1 2-15.9 4.4-23.6-12.7 1.8-24.7 2.6-36 2.2v-5.9c1.8-.5 3.6-1.1 5.4-1.7m151.9 8.7h-39.7v-26.5h35.2v-19.4h-96.8v19.4h35.2v26.5h-39.7V334H891zm146.7 23.9c-2-6.8-5-13.6-9.1-20.5 2.8-.7 5-1.6 6.6-2.6s2.7-2.4 3.4-4 1-3.7 1-6.3v-13.6h14.1l-1.4-6.9h-18.6v-15.4h37.5v-5.7h27.3v5.7h37.5v15.4h-18.4l-1.1 6.9h16.8v15h-69.9v4.2c0 7.6-2.1 13.7-6.2 18.2s-10.6 7.6-19.5 9.6m39.6-46.9h16.7l1.5-6.9h-20.1zm-166.5 9.9c-.8-7.3-2.6-14.5-5.2-21.6 3.7-.3 6.5-1.7 8.5-4.2s3.1-6.1 3.4-11h23.6q-.15 2.55-.6 5.1H951v-5.1h25.6v5.1h34.3v17.4h-34.3v5.8h31.2v17.6h-31.2v5.8h37v19.3H909.5V316h41.4v-5.8h-32.1v-11c-2.5 1-5.2 1.6-8 1.9m40.1-14.3h-17.1c-1.4 2.2-3 4.1-4.8 5.8h21.9zm64.1 136.6h-5.4c2.6 4.8 5.3 10.3 8 16.7l-15 4.5c-.5-2-1-4-1.5-5.8-7.4 1.1-15.1 2-23.2 2.5-9.4.6-19.7.8-30.9.8v-15.8h24.2v-2.8h-22.8v-25.7h22.8v-2.1h-18.6v-24.9h58.5v24.9h-20.8v2.1h24.8v25.6zm-41.2-36.6H991v-3.7h-17.2zm16.4 20.6v4.5h4.3v-4.5zm-19.1 4.5v-4.5h-5v4.5zm24 11.5h-4.9v2.8h6.4c-.5-.9-1-1.8-1.5-2.8m37-52.6h105.8v63.9c0 2.4-.7 4.3-1.9 5.5-1.3 1.3-3.1 1.9-5.5 1.9h-98.3zm20.9 54.9h63.1v-40.2H1053zm55.9-12.7h5.5v10.4h-59.6V413h16.1v-4h-14.8v-8.9h14.8v-3.6h-15.7v-8.9h58.7v8.9h-20.1v3.6h19.2v8.9h-4.2v4zm-15.1 0h4.1v-4h-4.1zM891 420.9h-29.1V415l18.6 2.3 10.3-37.6-20.4-3.7-8.6 32.8v-37h-21.2v49.1h-5.3v-49.1h-21.2V410l-8.5-34-20.5 3.7 9.4 37.5 19.7-2.5v6.2h-29.1v19H891zm33.1.7q-1.35 1.35-5.4 1.8c-2.7.2-7 .2-12.9-.2 3.8 7.3 5.9 13.9 6.5 19.7 10.5-.3 18-.9 22.5-1.9 4.6-1 7.5-2.5 8.8-4.6s1.9-5.4 1.9-10v-22.6h-17.1v-3.9h18.4v-29.7h-40.1v15.2h18.7v3h-18.7v28.8h18.7c0 2-.5 3.5-1.3 4.4M767.5 420h-39.7v-26.5H763v-19.4h-96.8v19.4h35.2V420h-39.7v19.8h105.8zm110.6 123.4h-59.2l2.3-20.2h-8.7v-7.1h9.5l2.2-19.5H884v19.5h6.9v7.1H884v5.2q0 3.6-.3 7.2h7.1v7.8h-8.1c-.4 2.1-.8 4.1-1.3 6.2h-4.9c.7-2.1 1.2-4.1 1.6-6.2m1.5-39.7h-24.9l2 12.4h23v-12.4zm-51 0-1.3 12.4H853l-4.3-12.4zm-3.4 31.9H853l-4.3-12.4h-22.1zm54.1 0q.3-3.6.3-7.2v-5.2h-24.9l2 12.4zm107.6 3.3c-7-3.3-13.2-7.3-18.6-11.9-4.3 5.9-10.1 10.5-17.7 13.6-9.5 3.9-22.1 5.9-37.8 5.9-.2-2.9-.5-5.6-1.1-7.9 9.9.5 18.5.3 25.6-.5q10.65-1.2 18-5.1c4.1-2.2 7.5-5.1 10-8.7h-54.9v-7.1h21.8l-3-19.6h5.3l1.3 19.6H968c.6-3.5 1-6.9 1.3-10.4q.6-6.9.6-15.3h4.4q0 8.4-.6 15.3c-.3 3.4-.7 6.9-1.3 10.4h40.3v7.1h-41.4c10.2 7.9 24 12.7 41.6 14.4-.9 2.1-1.6 4.8-2.1 7.9-8.8-1.8-16.8-4.3-23.9-7.7M950.8 513h3.5l-.7-20.2h-5.3zm-124.1-36.1h-4.4c-.3 4.3-1.5 7.9-3.5 10.7-2 2.9-5.1 4.9-9.3 6.2 1.2 2.4 2.1 4.7 2.5 7.1 4.5-1.6 8-4.4 10.4-8.1.8-1.3 1.5-2.7 2.1-4.3h63.6v-7.1h-61.9c.3-1.4.4-2.9.5-4.5m86.3 4.5v22.2h4.4v-15.2h88.2v15.2h4.4v-22.2h-46.5l1-4.8h-6.2l1 4.8zm-209.4-3.2v58.4h-39.2v7.1h100.5v-7.1H708v-31.1h50v-7.1h-50v-20.2zm104.5 3.7H788v7.1h20.1zM788 543.6h17.6c1.4 0 2.4-.3 3.1-1.1.7-.7 1.1-1.7 1.1-3.1v-2.9H788zm0-29.9h20.1v-7.1H788zm262.9 12.6-7.2-42.1-6.2 1.1 9.9 41.8zm-18.8 16.7h105.8v-7h-36.2v-56.6h-4.4V536h-24.7v-56.6h-4.4V536H1032v7zm94.2-58.9-7.2 42.1 3.5.7 9.9-41.8zM708 774l.5 15.6h9.3L717 774zm-224.8 7.6v-3.7H477c.3-1.2.6-2.4.8-3.8h-13.2q-.3 3.6-2.7 5.4c-1.6 1.2-4.3 1.9-8 2.3q-5.7.45-16.2 0c1.2 3.9 1.9 8 2.1 12 9.6 0 16.9-.6 22.1-1.9 4.6-1.1 8.1-2.8 10.4-5.2v1.3c0 2 .5 3.5 1.5 4.4s2.6 1.4 4.9 1.4h25.5c.3-4.4 1-8.7 2.2-12.9-3.7.4-7.3.6-11 .7-3.6.1-7.7.1-12.2 0m-67.9-3 2.7 14.3 11-1.2-2.9-14.2zm-88.8 2.9c-.1 1.4-.8 2.1-2 2.1h-11.7c-.9 0-1.4-.6-1.4-1.7v-5.5h-11.9v12.7c0 1.4.4 2.4 1.2 3.1s2 1.1 3.7 1.1H333c1.4 0 2.4-.4 3.2-1.3s1.2-2.1 1.3-3.6l.5-9.7-11.2-2.1zm12.1-4.5 2.7 16 11-1.2-2.9-15.8zm125.3-29v6.1h15.9V748zm267.4 33.9c-.3-.2-.4-.7-.4-1.2v-16.4h-35.3V778c0 1.3-.3 2.3-.9 3.1-.3.4-.8.8-1.4 1.1l-.8-2.8c-1.6.3-3.2.6-4.9.9v-6.2h6.7v-9.8h-25.9v9.8h7.2v7.7l-8.1.6.5 11.2c9.4-.4 18.3-1.9 26.5-4.3.7 1.8 1.3 3.7 1.8 5.6 3.5-1.1 6.2-3 8.1-5.5s2.8-5.7 2.8-9.5V773h11.6v15.3c0 2 .5 3.5 1.6 4.5s2.8 1.5 5.3 1.5h10.8c.2-4.3.6-8.6 1.3-12.9-1.6.6-3.4.9-5.3.9-.5 0-1-.1-1.2-.4m-269.8-26.7H482l3.9-7.6 12.5 2-2.8 5.5h8v11.7h-4.9v12.9H485v-7.3h-26.4v7.3H445v-12.9h-4.9v-11.7h7.3l-3.2-5 13.1-2zm28.9 9.9v-2.3h-37.3v2.3zm-87.3 18.1c-.1 1.4-.8 2.1-2 2.1h-11.7c-.9 0-1.4-.6-1.4-1.7v-4.9h-11.9v10.5c0 1.4.4 2.4 1.2 3.1s2 1.1 3.7 1.1h28.6c1.4 0 2.4-.4 3.2-1.3s1.2-2.1 1.3-3.6l.5-8-11.2-2.1zm-33.3-8c.7-3.8 1.1-8.5 1.2-14h-7.8c0 4.3-.7 9-1.9 14zm312.1-16.8h2.5l.9 4.5h11.8l-1.2-4.5h3.9v-7.9h-17c0-.7.1-1.4.1-2.2h-13.2c0 5-1 9.8-2.9 14.6h13.9c.4-1.3.9-2.8 1.2-4.5m53.5-7.9h-20.3c0-.7.1-1.4.1-2.2H702c-.1 5.2-.8 10.1-2.2 14.6h13.3c.5-1.3.8-2.8 1.1-4.5h2.4l1.1 4.5h12.4l-1.4-4.5h6.7zm-391.6 24.3h-54.6v-26.3h58.7v22.1c0 1.3-.3 2.4-1 3.1-.8.7-1.8 1.1-3.1 1.1m-9.5-18.6h-9.5v2.3h9.5zm-31.5 0v2.3h9.5v-2.3zm0 11.4h9.5v-2.3h-9.5zm31.5 0v-2.3h-9.5v2.3zm180.1 19.7h8.8v-33.5h-8.8zm63-20.5h4.4v8.3H538V770h-2.2v23.5h-10.9v-45h10.9v11.9h3.9v6.5h8l.2-1.8h-6.1v-6.7h6.7l.2-1.6h-9.1v-7.3h39.6v7.3h-18.4l-.2 1.6h16.8zm-17.6 0h5.5V765H560zm-246.3 15.6h11.6l-.5-6.3H313zm227-6h39.1V790c0 2.3-1.3 3.5-4 3.5h-35v-17.1zm13 8.8h12.4V783h-12.4zm48 6.5h7.4c-.2 1.7-.8 3.1-1.8 4-1.3 1.2-3.1 1.8-5.7 1.8v5.2q7.35 0 10.8-3.6c2.3-2.4 3.4-5.9 3.4-10.6v-10.9h-14.2v14.1zm-238-14.7-2.4 14.4 11.6 1.2 2-14.1zm506.1-2.6c-3.9-2.6-5.9-6.8-5.9-12.5v-11.6h-17.5v11.6c0 5.7-2 9.9-5.9 12.5s-10.2 3.7-18.9 3.2c1.4 4.8 2.3 9.7 2.6 14.5 5.6 0 10.3-.4 14-1.1s7.1-2.1 10-4.1c2.4-1.6 4.7-3.8 6.8-6.6 2.2 2.8 4.4 5 6.8 6.6 2.9 2 6.3 3.4 10 4.1s8.4 1.1 14 1.1c.3-4.9 1.2-9.7 2.6-14.5-8.4.5-14.7-.5-18.6-3.2M401.7 784l-.5-5.9h-11.6l.5 5.9zm546.2-2.3c4.5 0 9.9-.2 16.3-.7-1.6 4.1-2.8 8.1-3.7 11.9-9.5.2-16.3 0-20.7-.5q-6.45-.75-9-3c-1.6-1.5-2.6-3.9-3.1-7.2l-.3-2.6h-13.3v2h12.5c-.5 3-.9 6.3-1.1 9.9-5.8.5-11.6.8-17.2.8h-9.4v-10.7h1.6v-30.4h58.8v17.7H940l.2 2h21.7v8.6h-20.1c.2.3.5.6.7.8 1.1 1 2.9 1.4 5.4 1.4m-33.8-22.2v2h31.7v-2zm12.2 11.5-.3-2h-12v2zm-504.8 6h-29.4v-27.9h33.5v23.7c0 1.3-.3 2.4-1 3.1s-1.8 1.1-3.1 1.1m-18.3-21.2v1.2h10.3v-1.2zm0 6.7v1.2h10.3v-1.2zm10.2 8.1v-1.3h-10.3v1.3zm-21.7 4.6c-.7-4.8-1-9.5-1.1-14h-7.7c.1 5.3.4 10 1 14zm649.3 4.1v-8.8h-18.4c.2-.8.3-1.7.4-2.6.3-2.4.5-4.9.5-7.6H1010c0 2.7-.1 5.3-.3 7.6-.1.9-.2 1.7-.4 2.6h-14.9l-.4-6.1h-5V759h38.4v7h12.6v-14.9h-23.3v-3h-17v3h-23.3V766h5.9l.5 4.5h-7.5v8.8h29.5c-.6.4-1.2.8-2 1.1-2.5 1.1-5.9 1.8-10.3 2.2-4.3.4-10 .5-16.9.3 1.6 3.6 2.7 7.4 3.3 11.2 12.4 0 21.9-1.4 28.6-4.3 2.2-.9 4.1-2 5.8-3.2q4.8 3 10.2 4.8c4.4 1.5 9.2 2.4 14.3 2.7.5-3.8 1.6-7.5 3.3-11.2-7.7 0-14.4-1.1-20.2-3.5h20.1zm-658.8-1.8V760h8.5v-8.7h-8.5v-3.2h-10.6v3.2h-10.3v8.7h10.3v17.5zm717.4-.8 11.5 1.4 6.4-23.3-12.6-2.3-5.3 20.2v-22.9h-13.1v30.5h-3.3v-30.5H1070v23.7l-5.3-21.1-12.8 2.3 5.8 23.3 12.3-1.6v3.8h-18V792h65.7v-11.8h-18.1zM996.5 769h10.9l-.2-7.9H996zM171 753h28.2v32.4c0 3.6-1.6 5.4-4.9 5.4H171zm11.8 24.8h3.6v-14.6h-3.6zm25.1-28.9v9.4h11.6v1.9h-11.6V778h11.6c0 1.2-.3 2.2-.8 2.7-.5.6-1.7.9-3.4 1.1s-4.4.1-8-.1c2.3 4.5 3.7 8.6 4 12.2 6.5-.2 11.2-.6 14-1.2s4.6-1.6 5.4-2.8c.8-1.3 1.2-3.4 1.2-6.2v-14h-10.6v-2.4h11.4v-18.4zM796 782.3h-9.5v-11.7H809v-20.1h-14.6v9.4h-7.9v-11.3h-16.4v11.3h-7.9v-9.4h-15.1v20.1h23v11.7h-9v-8.5h-15.6v19.8H804c2.3 0 4-.6 5.3-1.8 1.2-1.2 1.9-2.9 1.9-5.1v-12.9H796zm-524.2-.4c1.6 3 3.3 6.4 5 10.3l-9.3 2.8q-.45-1.95-.9-3.6-6.9 1.05-14.4 1.5c-5.9.3-12.3.5-19.2.5v-9.8h15v-1.7h-14.2V766H248v-1.3h-11.5v-15.4h36.3v15.4h-12.9v1.3h15.4v15.9zm-22.3-22.7h10.7v-2.3h-10.7zm10.2 12.8v2.8h2.7V772zm-11.8 2.7V772h-3.1v2.8h3.1zm14.9 7.2h-3.1v1.7h4c-.3-.5-.6-1.1-.9-1.7m24-5.9-2.4 15.5 11.6 1.2 2-15.7zm-135.2-21.9h16.5V782c0 3.5-1 6.3-2.9 8.2s-4.8 2.9-8.5 2.9h-5.1c-.4-3.6-1.2-7.3-2.4-10.9-.5 1-1 2-1.5 2.9-2.6 4-6.8 6.9-12.3 8.5-1.2-4.2-3.2-8.3-5.8-12.5 2.2-.9 3.8-1.8 5-2.6s2-1.8 2.5-2.9.8-2.6.8-4.3v-6.4H132v-10.7h5.7v-4.8h13.9zm0 10.7v4.3c0 4.4-.6 8.2-1.7 11.4h1.9c1 0 1.7-.4 2.2-1.1s.8-2.1.8-3.9v-10.7zm997.3 12.7 1.6-25.7h-16.4l1.6 25.7zm-13.7 17.5h14.2v-11.5h-14.2zM847.9 647.3c-6.9 0-12.4-.5-16.8-1.6-4.3-1.1-7.9-2.9-10.8-5.5-1.4-1.3-2.8-2.8-4.1-4.6-1.3 1.8-2.7 3.3-4.1 4.6-2.8 2.5-6.3 4.4-10.4 5.5s-9.3 1.6-15.6 1.6c-.2-4.3-.9-8.6-2-12.7-1.2 3.1-3.1 5.7-5.8 7.9-2.9 2.4-7.1 4.7-12.7 6.8-1.5-5.5-3.7-11.4-6.6-17.6 3.4-.9 5.7-2.5 7.1-4.7s2-5.5 2-10v-21.1h32.2v-6.4h21v6.4h26.6V608h-23.2v5.2h23.2v11.3H827c.5.9 1.1 1.7 1.7 2.3 1.8 1.9 4.5 3.3 7.9 4 3.5.7 8.2 1 14.2.8-1.7 5.2-2.6 10.5-2.9 15.7M804.8 608h-18.5v5.2h18.5zm-1.9 16.5h-16.7c-.2 2.8-.5 5.2-1 7.3 4 .3 7.2.1 9.7-.6 2.9-.8 5-2.2 6.6-4.2.4-.7.9-1.6 1.4-2.5m71.3 23.1v-14.5c-3.9 1.8-8.2 3-12.8 3.4 0-6-.9-11.8-2.8-17.3 5.6-.3 10.1-1.9 13.3-4.9q3.15-2.85 4.8-7.8h-14.9v-14.1h82.4v14.1h-47.6c-.7 2.2-1.6 4.3-2.6 6.3h47.8V642c0 3.7-1.9 5.6-5.9 5.6zm48.1-21.5h-28.5v7.7h28.5zm-234.7 19.1c5-1 9.1-2.7 12.5-5.2 2.6-1.9 4.9-4.6 7.1-7.9 2.2 3.3 4.6 5.9 7.1 7.9 3.4 2.5 7.5 4.3 12.5 5.2 5 1 11.6 1.4 19.9 1.4.4-5.8 1.5-11.5 3.4-17.1-7.3.2-13.1-.1-17.3-.8s-7.5-2-9.7-3.8-3.9-4.4-5-7.7h29.7v-15.4h-30.1V591h-21v10.7h-30.1v15.4h29.7c-1.1 3.4-2.8 6.1-5 7.9-2.2 1.9-5.5 3.2-9.8 3.9s-10 .9-17.2.5c1.8 5.6 2.9 11.4 3.4 17.1 8.3.1 14.9-.3 19.9-1.3m333.9-54v4.7h20.2v45c0 2-.5 3.5-1.6 4.5s-2.7 1.6-4.8 1.6h-53v-51.1h20.3v-4.7zm-23.1 18.4v4.3h5.8v-4.3zm0 22.1h5.8v-4.3h-5.8zm27.2 0v-4.3h-5.7v4.3zm0-22.1h-5.7v4.3h5.7zm112.4-3.4v-13.8h-78.2v13.8h28.6v5.7h-26.2v14h26.2v5.7h-30.8v15.3h82.5v-15.3h-30.8v-5.7h26.2v-14h-26.2v-5.7zM959.6 647h15c1.3 0 2.3-.3 3-1s1-1.7 1-3v-13.4h-19.1V647zm19.1-35.7h-19.1v14.2h19.1zm0-18.2h-19.1v14.8h19.1zm163 103.5c-11.1.6-19.1-.8-24.1-4.1s-7.6-8.7-7.6-16v-14.8h-22.4v14.8c0 7.3-2.5 12.6-7.6 16s-13.1 4.7-24.1 4.1c1.8 6.2 2.9 12.3 3.4 18.5 7.2 0 13.2-.5 17.9-1.4 4.8-1 9.1-2.7 12.8-5.2 3-2.1 6-4.9 8.7-8.4q4.2 5.4 8.7 8.4c3.8 2.5 8.1 4.3 12.8 5.2 4.8 1 10.8 1.4 17.9 1.4.7-6.1 1.8-12.3 3.6-18.5m-235.4 18.7h-8.7c-.2-4.4-.6-8.5-1.5-12.2h2.4v-2.7h-3.9v17.8h-15.9v-17.8h-3.1v15.3h-15.2v-26.2h18.4v-2.1h-19.2v-12.1h2.2c-.6-3.5-1.6-7-2.9-10.6 2.5-.9 3.9-2.7 4.1-5.4h14.9c-.1 1.2-.3 2.3-.5 3.3h3.5v-3.4h13.9v3.4h17.5v10.5h-17.6v2.1H913v12.1h-18.3v2.1H913v19.2c0 2.1-.5 3.7-1.7 4.9s-2.9 1.8-5 1.8m-27.7-40v-2.1h-6.5c-.7.8-1.5 1.5-2.3 2.1zm133.4 7.8c3.5.5 7.8.8 12.7 1.1-1 3.9-1.6 7.5-1.8 10.7-5.2-.8-9.9-1.7-14-2.9l.4 4.4h-16.9l-.4-4.3c-4.3 1.2-8.9 2.2-13.7 2.8-.3-3.6-.8-7.1-1.7-10.5 5.1-.3 9.6-.7 13.3-1.2-1-.8-1.9-1.6-2.6-2.4-.2.1-.5.3-.7.4-2.5 1.1-5.4 1.7-8.5 1.7-.1-2.7-.5-5.4-1-8 2 0 3.5-.3 4.5-1.2 1-.8 1.7-2.1 2.1-3.7h11.8c-.1.4-.1.7-.2 1.1h25.8c-.8 3.9-3.2 7.4-7.2 10.7-.8.4-1.3.9-1.9 1.3m-6.7-4.8h-8.8c1.3.9 2.8 1.7 4.7 2.4 1.6-.7 3-1.5 4.1-2.4m-4.7 10.9c-.7.3-1.4.5-2.1.8-.7.2-1.4.5-2.1.7h8.2c-1.4-.5-2.7-1-4-1.5m-251.4 10.3h-38.5v-12.1h33v-15.7h-33v-12.2h-21v40h-24.5v16.8h83.9v-16.8zm234 5.9h35.5v-7.7h-35.5zM959 659.6h83.9v52.1c0 1.9-.5 3.4-1.5 4.4s-2.5 1.5-4.4 1.5h-78zm16.6 47.3h50.1V669h-50.1zm-131.8-4.8v1.6h3.6v11.7h-4.8c-.2 1.2-.5 2.4-.8 3.5h-16.2c.3-1.1.6-2.3.9-3.5H785l.8-14.7h-2.3V688h3l.4-8c-.7.3-1.5.5-2.2.7-.6-3.5-1.7-6.9-3.3-10.1v6.8H763v-14.8h18.4v4.6c1.4-.7 2.5-1.5 3.3-2.6q1.65-2.1 1.8-5.4h15.9c-.1 1.2-.3 2.4-.5 3.6h44.7v10.7h-49.5c-.9 1-1.9 1.9-3.1 2.8h49.7V688h3.6v12h-3.6v2.1zm-15.9-16.4H821l.9 4.3h6zm-25.6 0-.2 4.3h7.2l-.9-4.3zm-.8 17.9h7.7l-.8-4.3h-6.8zm26.4 0c0-.5.1-1 .1-1.6v-2.8h-7l.8 4.3h6.1zm106.2 14.3q10.5 0 10.5-11.1v-47.5h-15v45H916c.9 4.5 1.4 9 1.7 13.5h16.4zm-7.3-55.2h-12v37.9h12zM763 716.3h14.3c1.3 0 2.3-.3 3-1s1-1.7 1-3v-13.4H763zm18.4-35.7H763v14.2h18.4zm-528.2-57.3h-18.9v7.2h18.9zm-18.9 16.3v8.4h83.9v-8.4H286v-1h30.1v-7H286v-1h9.1v-7.2h-16.8v4.8h-4.2v-4.8h-16.8v7.2h9.1v1h-30.1v7h30.1v1zm83.9-16.3h-18.9v7.2h18.9zm269.1-32.9h-16.9c-.1 5.2-1 10-2.8 14.3h17c.3-.8.6-1.6.8-2.4h4.5l.6 2.4h15.7l-.7-2.4h7.7v-9.4h-26c0-.9.1-1.7.1-2.5m-58.2 0c-.1 4.9-1.4 9.7-3.8 14.3H543c.4-.8.7-1.6 1-2.4h4.7l.4 2.4H564l-.6-2.4h4.2v-9.4h-21.8c.1-.8.1-1.6.2-2.4h-16.9zm-294.1.2h82.5v16.7H286v1h30.1v5.9H286v1h32.9v7h-85.3v-7h32.9v-1h-30.1v-5.9h30.1v-1H235zm65.9 7.3H284v4.1h3.2l.4-2.7H298l-.4 2.7h3.3zm-49.3 4.1h3.3l-.4-2.7h10.4l.4 2.7h3.2v-4.1h-16.9zm80.6 5.4v12h5.5v10.9c-.5.2-1.1.3-1.6.6-2.3.9-4.2 2-5.8 3.1 1.2 2.1 2.3 4.4 3.3 7s1.8 5.2 2.5 7.8c3.9-2.8 8-5.1 12.1-6.9 2.6 1.4 5.5 2.6 8.8 3.6 4.9 1.4 10.8 2.1 17.8 2.1h40c.4-5.2 1.3-10.3 2.7-15.1-6.7.9-19.4 1.4-38.1 1.4-8.3 0-14.6-.4-19-1.1-2.5-.4-4.9-1-7-1.8v-23.4h-21.2zm-160.3-.9c-.7 2.2-1.6 4.3-2.6 6.3h47.8V642c0 3.7-1.9 5.6-5.9 5.6h-61.8v-14.5c-3.9 1.8-8.2 3-12.8 3.4 0-6-.9-11.8-2.8-17.3 5.6-.3 10.1-1.9 13.3-4.9q3.15-2.85 4.8-7.8H137v-14.1h82.4v14.1zm25.7 19.6h-28.5v7.7h28.5zm209 6h-47.8v-17.4h54.3v10.6c0 2.4-.5 4.1-1.6 5.2-1.1 1-2.7 1.6-4.9 1.6m-9.4-10.1h-22.7v2.2h22.7zm-62.9-30.5v12.9h18.3v-12.9zm261.4 45.4c-6.7.2-13.5.2-20.4-.2v-1.6l36.7-1-.1-9.1-36.5.8V624l29.6-.7-.1-7.1-29.5.5v-1.6c10.9-.2 21.1-.6 30.6-1.3l-.6-8.4c-22 .7-46.3.7-73.1.3.4 3.1.5 6.3.3 9.7 8 0 15.3 0 21.9-.1v1.7l-21 .3.1 7.5 21-.5v1.9l-28 .6.1 9.5 27.9-.8v1.1c0 4 1.1 6.8 3.3 8.6q3.3 2.7 10.5 2.7h43.1c.3-3.9 1.3-8.1 2.9-12.8-5.8 1.1-12 1.6-18.7 1.8m-166-16.3v12.1h8.5v2.7h-2.1v12.9c5 0 10.1-.2 15.3-.7 5.2-.4 10-1 14.2-1.8 0-2.7.3-6.4.9-11.2l-11.5.3v-2.4h11.1v-12.1H455V618h8.6v-10.7h-21.4c.7-.7 1.4-1.4 2-2.1l.3-.3h19.7c1.6 3.8 2.8 8.2 3.3 13 13.1-.7 19.6-5.4 19.6-14v-.3h5.6v6.3c0 2.2.6 3.8 1.7 4.8q1.8 1.5 5.7 1.5h14.6c.3-4.9 1-9.7 2.1-14.6-2.1.5-4.6.7-7.4.7-1.8 0-2.7-1-2.7-2.9v-9h-33.5v4.6c0 2.7-.8 4.7-2.4 5.9-1.1.8-2.7 1.4-4.7 1.6v-10.6h-16.8c.1-.9.2-1.9.3-2.9h-15.9q-.15 3.15-1.8 5.4c-1.1 1.4-2.7 2.5-4.8 3.2 2.1 5.1 3.4 10.4 4 15.7 1.3-.4 2.4-.8 3.6-1.3v5.8h3.6v2.4h-8.6zm-71.2-30.1h13.4c0 .9-.1 1.7-.2 2.5h8.2v-2.9h15.6v2.9h18.2v9.4h-18.2v1.7h20.3v8.7h-61v-8.7h2.1c-.6-2.7-1.7-5.6-3.3-8.6 1.4-.1 2.6-.6 3.4-1.5 1-.8 1.4-2 1.5-3.5m21.5 11.9h-13.5c-.8.7-1.6 1.2-2.5 1.7h16zm90.3 16.8h42.2v21.9c0 4.6-2.1 6.9-6.2 6.9h-36zm15 16.3h11.5v-5.3h-11.5zm-36.6 79.8c.7-.7 1-1.7 1-3v-13.4h-19.1v17.4h15c1.4 0 2.4-.3 3.1-1m-93.2-26.1h5.4v10.5l-29.6 1.3v-11.8h7.4c1.8-1.3 3.6-2.8 5.3-4.5h-12.7v-11.1h4c1.4-1.8 2.8-3.9 3.9-6.1 1.7-3.2 2.9-6.4 3.9-9.5l13.4 4.8c-2 4.2-4.1 7.8-6.5 10.8h3.1c.6-.9 1.2-1.7 1.8-2.7l7.9 3.9c-.5-2.8-1.1-5.5-2-8.2 4.8.3 8.5-.2 11.2-1.3s4.7-3.1 5.9-6h22c1.3 2.8 3.3 4.7 6.1 5.7s7 1.6 12.5 1.6a57.4 57.4 0 0 0-2.7 14.3q-3.9 0-7.2-.3v6.4h-39v-6.4c-1.9.2-3.9.3-6.1.3 0-.3 0-.5-.1-.8-1.5 2.1-3.1 4.2-4.8 6-1 1.2-2 2.2-3.1 3.1m28.3-14.1c-.9.8-1.9 1.6-3 2.2h16.5c-1.1-.7-2.2-1.4-3.1-2.2-1.9-1.7-3.7-4-5.4-6.8-1.5 2.9-3.2 5.1-5 6.8m46.9 19.7h19.1v-14.2h-19.1zm19.1-32.4h-19.1v14.8h19.1zm-118.3 41.5v12.2c5.4 0 10.3-.2 14.9-.6 4.5-.4 9.3-1.1 14.4-2 .2-4.5.5-8.2.8-11.1zm161.1-38.7h20.2v45c0 2-.5 3.5-1.6 4.5s-2.7 1.6-4.8 1.6h-53v-51.1h20.3v-4.7h18.9zM469.5 679v4.3h5.8V679zm0 22.1h5.8v-4.3h-5.8zm27.3 0v-4.3h-5.7v4.3zm0-22.1h-5.7v4.3h5.7zm95.9-4v26.4h-45.5V675zm-12.8 7.6h-5.1v2.4h5.1zm-19.8 0v2.4h5.1v-2.4zm0 10.2h5.1v-2.6h-5.1zm19.8 0v-2.6h-5.1v2.6zm32.1-32.5h-84v12h84zm-2.2 54.6c1.4-1.4 2.2-3.4 2.2-5.9v-32.3h-15.8v27.4h-52.3v-27.4H528V717h75.5c2.8 0 4.8-.7 6.3-2.1m-375 2.1c-.3-2.8-1.3-5.8-2.8-9.2 9.7-.1 17.9-.9 24.9-2.3 5.6-1.2 10.8-2.6 15.6-4.4 0-.6-.1-1.2-.1-1.7-4.3 1.8-8.9 3.2-13.7 4.4-6.3 1.5-14.1 2.3-23.2 2.5-.1-2.6-.7-5.2-1.5-7.9 10.1 0 18-.6 23.8-1.5 4.5-.8 8.9-1.8 13.2-3.2-.2-.5-.5-1-.7-1.5-3.2 1-6.8 1.9-11 2.6-6.2 1-13.9 1.6-23 1.7-.1-2.6-.6-5.1-1.4-7.7 7.7.2 13.9.1 18.7-.2s8.5-.8 11.2-1.6c.1 0 .2-.1.3-.1h-27.9v-12.5c-.4-2.8-1.3-5.6-2.7-8.3 4.1.2 7.4-.2 10-1.2q3.9-1.5 4.8-4.8h17.1c-.3 1-.6 1.9-1 2.8h45.1l-3.3 9.4h9.8V687h-5.1l4.2 9c-3.3 1.3-6.7 2.3-10.1 3.1.3.4.6.7.9 1 1.4 1.4 3.2 2.3 5.4 2.9s5 .8 8.4.8c-1.9 4.5-3.3 9-4.1 13.6-7.4 0-13.3-1.7-17.4-5-3.3-2.6-5.5-6.3-6.8-11-1 .1-1.9.2-2.9.2.2 1.5.2 3.1.2 4.8 0 3.8-1.2 6.6-3.5 8.5s-6.2 2.8-11.6 2.8h-9.4c-.3-2.3-1-4.4-1.9-6.2-3.5 1.4-7.3 2.6-11.5 3.6-5 .7-10.7 1.5-17 1.9m37.8-7.3v-3.1c-2.1 1.1-4.2 2.2-6.2 3.1zm13.1-31.6v2h13.6v-2zm22.2 8.6h-26.6c1.8 1 3.3 2.3 4.5 4 9-.6 16.4-2 22.1-4m-24.3-17.1h-23.7c-.9.8-2 1.6-3.1 2.4H283zM256 680.1h13.3v-2H256zm161.1 20.5h-5.4c2.3 5.7 4 11.1 4.9 16.4l-14.3 1.9c-.2-1.4-.4-2.9-.6-4.3-10.6 1.6-22.9 2.5-36.9 2.5v-12.3h5l.8-4.1h-6.3v-11.1h52.9v11zm-18.9 0h-13.4l-.8 4.1h15.5c-.4-1.4-.8-2.8-1.3-4.1m-178.1 9.7c1.1-1.2 1.6-2.8 1.6-5v-42.9h-44.1l-.5-4.3c-12.2 3-26.3 4.5-42.1 4.5v50.1c14.5 0 27.8-.7 39.8-2.1l-1-16.2c-5.8 1.2-12.8 1.8-20.8 1.9v-4.7h21.4V678H153v-3.1c8.8-.3 16.7-1.1 24-2.5v45.9h19v-40.1h8.7v17.3h-6.6c1.6 5.5 2.6 11.1 2.9 16.6h14.3q3.15 0 4.8-1.8" style="fill:#fbfbfb"/></svg>