<svg xmlns="http://www.w3.org/2000/svg" viewBox="0 0 1280 960"><path d="M1032.2 537.3v37.2h60.5v-37.2zm-142.7 0v37.2h57.3v-37.2zm128.4 37.3v-37.2h-57.3v37.2zm-142.6 0v-37.2h-60.5v37.2zm-64-107.8V495H1096v-28.3H811.3zm-5.3 34v30.6h295.5v-30.6zm114.6-46.3v60.8h66.1v-60.8zm73.4-34.7-2.6 17.3h30.6l2.9-17.3zm-80.7 0h-30.9l2.9 17.3h30.6zm12.3-16.6v39.4h56.1v-39.4zM873 432.4v-18.5h161.3v18.5zm215.5 2v-50.3H818.9V461h243.2c8.8 0 15.5-2.3 19.8-6.7 4.4-4.6 6.5-11.1 6.6-19.9M560.3 400v42.9h68.1V400zm-33.7-18.2v100.8h55.2V381.8zm22 120.2H583v22h-34.4zm-53.5-42.8v113.1h117.8c6.5 0 11.6-1.7 15.2-5s5.3-8.2 5.3-14.4v-93.5zm134.4 52c7.1 19.6 10.9 39.5 11.4 60.2 20.8 0 40-3.6 57.5-10.8 17.5-7.3 33.1-18.4 47-33.4 13.7-15 25.1-34.1 34.2-57.2l-45.9-23c-4.6 17.6-11.4 31.3-20.4 41.2s-20.2 16.6-33.7 20.2c-13.6 3.7-30.3 4.4-50.1 2.8m92-123.2v24.3h44.7V388zm-76.8-6.2 5.9 64.9c2.7 30.4 8.5 55 17.5 73.7s22 32.7 39.4 41.8c17.3 9.1 40.1 13.7 68.6 13.7 1.1-21.3 4.1-42 9.1-62-17.8 2.1-31.9 1.4-42.4-2.1s-18.2-10.3-23.6-20.5c-5.3-10.2-9-25.1-10.8-44.5l-5.9-64.9zm-11.4 23.9V452h145.8v-46.4zM217.8 504l-8.5 40.9h60.8L278 504zm-39.3-29.3v39.7H469v-39.7zm261.7 32.1-56.7 3.8c6.5 20.5 10.9 43.2 13.2 67.6l62.6-5.9c-3.4-20.9-9.8-42.6-19.1-65.5m-250.3 18.7v47.1c67.3 0 140.9-3.5 220.6-10.3v-36.8zM360 381.8h-72.5c-11.4 9.3-25.7 15.7-43 19.3s-39.2 4.3-65.7 1.7c5.5 17 8.5 34.4 9.1 52 33.7-1.7 62.8-6.1 86.8-13.4s41.5-17.3 52.4-30.1h-7c10.9 12.8 28.4 22.8 52.4 30.1s52.9 11.7 86.8 13.4c.6-17.6 3.6-35 9.1-52-26.5 2.6-48.3 2-65.7-1.7-17-3.6-31.5-10-42.7-19.3m-124.2 52.6v32.4h175.7v-32.4z" style="fill:#fbfbfb"/></svg>