<svg xmlns="http://www.w3.org/2000/svg" viewBox="0 0 1280 960"><path d="M1169.1 832.2H110.9c-22.1 0-40.1-17.9-40.1-40.1V167.9c0-22.1 17.9-40.1 40.1-40.1h1058.3c22.1 0 40.1 17.9 40.1 40.1v624.2c-.1 22.1-18 40.1-40.2 40.1" style="fill:#ebf2f2"/><path d="M1124.6 598.1H225.9l-106.6-25.8 106.6-25.7h898.7zm29.8-123.5L277 668.8l-109.7-2.1 98.5-48.1 877.5-194.3z" style="fill:#ffe7cf"/><path d="M225.9 546.6h898.7v51.5H225.9z" style="fill:#1c75bc"/><path d="M225.9 559.4h898.7v25.7H225.9z" style="fill:#00aeef"/><path d="M166.7 560.9v22.9l-47.4-11.5zm44.4 84.4 4.9 22.4-48.7-1z" style="fill:#211815"/><path d="m265.9 618.6 877.5-194.2 11.1 50.3L277 668.9z" style="fill:#fbb040"/><path d="M268.5 631.2 1146 437l5.6 25.1-877.5 194.2z" style="fill:#f9ed32"/><path d="M1160.7 584.3v-23.9c0-7.6-6.2-13.8-13.8-13.8h-22.3v51.5h22.3c7.6 0 13.8-6.2 13.8-13.8m-128.1-16.7h2.5v8.8h-2.5zm22 .9-2.6 3.5 2.6 3.5-.3.5-4.2-1.4-2.6 3.5-.5-.2v-4.3l-4.1-1.3v-.6l4.1-1.3V566l.5-.2 2.6 3.5 4.2-1.4zm-2 1.2-2.9 1.2-1.6-2.6.2 3.1-2.9.7 2.9.7-.2 3.1 1.6-2.6 2.9 1.2-2-2.4zm10.8 6.8h2.5v-8.8h-2.5zm24-5.7h-4.8v-3.6h-2.3v9.4h2.3v-3.8h4.8v3.8h2.3v-9.4h-2.3zm13 3.2q0 1.35-1.2 2.1c-.8.5-1.9.7-3.4.7-1.2 0-2.4-.1-3.5-.2v-9.4c1-.1 2.1-.2 3.3-.2q1.35 0 2.4.3t1.5.9c.3.4.5.8.5 1.3 0 .6-.2 1.2-.6 1.6-.2.2-.6.4-1 .6.5.2 1 .4 1.3.6.5.5.7 1 .7 1.7m-4.7-5.3h-1v2.3c1.1 0 1.9-.1 2.4-.2.6-.2.8-.5.8-1 0-.3-.2-.6-.6-.8s-.9-.3-1.6-.3m2.4 5c0-.3-.1-.6-.4-.8-.2-.2-.7-.3-1.2-.4s-1.1-.1-1.9-.1v2.4c.4 0 .8.1 1.2.1.7 0 1.3-.1 1.7-.3q.6-.3.6-.9m-260.2-6.8h-1.6v2.5h-1.7v-2.5H833v6.4c0 .7-.1 1.3-.3 1.7s-.5.7-.9.8c.5.6.8 1.2 1 1.8.6-.3 1-.8 1.4-1.4.3-.6.5-1.3.5-2.2v-.4h1.8v3.8h1.6V572h-3.4v-1h3.8v-1.6h-.6zm-10.8 7.7.2 2.9h2.3l-.3-2.9zm.8-2.5c.5.2 1.1.2 1.9.2-.2.7-.2 1.3-.2 1.8-.9 0-1.6-.2-2.2-.4-.5-.2-1-.6-1.3-1.1-.2-.3-.4-.7-.5-1.2q-.3.75-.6 1.2c-.3.5-.8.8-1.4 1s-1.4.4-2.5.4q0-.9-.3-1.8c.9 0 1.6 0 2.1-.2.5-.1.9-.4 1.2-.7.2-.3.4-.7.5-1.1h-2.4v-1.7h2.5v-1.7h1.7v1.7h1.5l-.2-1.5h1.4l.1 1.5h.6v1.7h-3.2c.1.5.3.9.5 1.1 0 .4.4.7.8.8m-5.1 2.5.1 2.9h2l-.2-2.9zm117.4-5.7v-2.2h-5.9v1.3c0 .5-.2.9-.5 1.1s-.8.3-1.4.3c.3.6.5 1.3.5 2q3-.15 3-2.4v-.6h2.6v1.8c0 .3.1.6.3.7.2.2.4.2.8.2h2.3c0-.7.2-1.3.3-2-.4.1-.9.1-1.5.1-.3.2-.5.1-.5-.3m-54.8-.9-2-.4-1.3 6.1 1.8.2zm69.3.7h1.7l.1.9h1.9l-.2-.9h2.5v-1.4h-5.8v-.6H953c0 1-.2 2-.6 2.9h2.1c.1-.3.1-.6.2-.9m-145.1 2.1-1.2-.5v-3.6h-1.3v4.1l-1.2-.5v-3.6h-1.5v2.9h-.9l-.3 3.9h.9l.3-1.9v2c0 .7-.1 1.4-.2 2.1-.2.6-.4 1.3-.7 1.8h1.8c.2-.6.4-1.2.5-1.9.1-.6.2-1.3.2-2.1v-1.6l1.2.4v5.1h1.3v-5.6l1.2.4v5.1h1.4v-10.7h-1.4zm4.3 6.7h2.3l.2-2.9h-2.1zm-19.1-10.8h8.3v1.6h-2.3v1.1h2.2v6.7c0 .4-.1.8-.2 1q-.3.3-.6.3h-7v-8h2.1v-1.1H795v-1.6zm1.5 4.1v3h5.1v-.8h-1.3c-.2 0-.4-.1-.6-.2-.1-.1-.2-.3-.2-.6v-1.4h-.9v.4c0 .7-.1 1.4-.3 2h-1.2c.2-.6.3-1.3.3-2v-.4zm5.2 5v-.8h-5.1v.8zm0-5h-1v.9h1zm-2.2-2.5h-1v1.1h1zm72.4 5.7 1.9-.3-1.3-6.1-2 .4zm-50.7-2.5q.9-1.5.9-4.2h-4.6c0-.1.1-.2.1-.4h-1.9c-.1.5-.2.9-.3 1.1-.1.3-.3.4-.5.5s-.5.1-.9.1c.1.6.2 1.2.2 1.8.7 0 1.2-.1 1.7-.3s.8-.6 1.1-1.1v-.1h3.3c-.1.9-.4 1.7-.9 2.3l-.7-1.6-1.3.6.9 1.7c-.4.2-.8.3-1.3.4l-.6-1.8-1.4.3.7 1.6c-.6 0-1.2.1-1.9 0 .1.5.2 1.2.2 1.9q2.85 0 4.5-.6c1.1-.5 2-1.2 2.7-2.2m-2.5 6h2l.1-2.9h-1.9zm98.6-6.2c.9.2 2.1.3 3.4.4l-.3 1.5c-2-.3-3.7-.7-5-1.1-.2.1-.4.1-.6.2-1.3.4-2.9.7-4.6 1 0-.5-.1-1-.2-1.5 1.4-.1 2.6-.3 3.6-.4-.6-.3-1-.6-1.3-.9-.1 0-.2.1-.3.1-.5.2-1 .3-1.7.3 0-.4-.1-.8-.2-1.2.6 0 1.1-.1 1.4-.3s.5-.5.6-.9h1.5c0 .2-.1.3-.2.5h6.1c-.2.7-.8 1.3-1.6 1.9zm-.1-1.2h-3.5c.5.3 1.1.6 1.8.8.7-.3 1.2-.5 1.7-.8m35.7 5.8v-.7l7.8-.2v-1.4l-7.8.2v-.8l6.4-.2v-1.2l-6.4.1v-.6h.8c2-.1 4-.2 5.9-.4l-.1-1.2c-4.2.2-8.7.3-13.6.3.1.5.1 1 .1 1.5h4.6v.6l-4.5.1v1.2l4.5-.1v.7l-5.8.2v1.5l5.8-.2v.8c0 .5.1.9.4 1.2.3.2.7.4 1.3.4h8.4c0-.5.2-1.2.4-1.9-1 .1-2.2.2-3.5.2-1.3-.1-2.9 0-4.7-.1m-5.9-7.2h1.7l.1.9h1.8l-.2-.9h1.8v-1.4h-5v-.6h-1.9c0 1-.3 1.9-.8 2.9h2.2c.2-.3.2-.6.3-.9m-29.9 4h-3.4l.1 1h3.4zm12.9 3v-1.4h2.6v-1.7h-2.6v-1h2.2V570h-4.5c.2-.2.4-.3.5-.6.1-.1.2-.3.2-.5h4.3v-1.8h-3.8c0-.3.1-.5.1-.8h-1.9c0 .7-.2 1.2-.4 1.6s-.6.7-1.1.9q.45 1.05.6 2.1c.4-.1.7-.3 1-.5v1.1h.9v1H926v1.7h1.8v1.4h-.5v1.8c.8 0 1.7 0 2.6-.1s1.7-.2 2.5-.3c0-.4 0-.9.1-1.5zm-22.4-8.9H923v9.7c0 .3-.1.6-.2.7-.2.2-.4.3-.7.3h-14.7zm1.9 9.1H921v-7.7h-11.7zm24.3-3.7h7.7v4.2c0 .7-.3 1-.9 1h-6.8zm1.8 3.5h4v-1.9h-4zm-75.1-6.3h6v-2H852v2h6v5.5h-6.6v2H867v-2h-6.6v-5.5zm20.6-2.4H879v8h-2.3v-8h-1.9v8h-4.9v2h16v-2h-5zm13.5 2.8h4.2v1.7h-4.2v.9h4v3.6c0 .3-.1.6-.3.8s-.5.3-.8.3h-1.7c0-.6-.1-1.2-.2-1.7h1.4V574h-2.3v3.6h-1.9V574h-2.2v3.2h-1.8v-4.8h4v-.9h-4.2v-1.7h.4c-.1-.6-.2-1.1-.5-1.7.5-.2.8-.7.9-1.4h1.7c0 .2-.1.4-.1.6h2v-.6h1.7v.6h3.9v1.5h-4zm-1.8 0v-.9h-2.3c-.3.4-.7.7-1.1.9zm-47 5h2.8v1.6h-2.8v1h-1.8v-1H839v-1.6h.9l.5-1.4h-1.2v-6.1h2.3c.1-.2.1-.5.1-.7h2c-.1.3-.2.5-.3.7h4.7v6.1h-6l-.4 1.4h2.2v-1h1.8zm-4.9-2.9h2.2v-.9h-2.2zm5.9 0v-.9h-2.1v.9zm0-3.1h-2.1v.9h2.1zm-5.9 0v.9h2.2v-.9zm60.5-1.5h-1.5v7h1.5zm10.4 8h7.2v-1.2h-7.2zm-9.1.5H900c.1.6.2 1.2.2 1.8h2.6c.9 0 1.4-.5 1.4-1.5v-9.4h-1.8zm72.5-4.5c-.2-.1-.4-.2-.7-.2-.2 0-.5.1-.7.2s-.4.3-.5.5-.2.4-.2.7c0 .2.1.5.2.7s.3.4.5.5.4.2.7.2c.2 0 .5-.1.7-.2s.4-.3.5-.5.2-.4.2-.7c0-.2-.1-.5-.2-.7-.2-.3-.3-.4-.5-.5m2.3-4 3 5.1-3 5.1h-6l-3-5.1 3-5.1zm1.1 5.1-2.1-3.6h-4.1l-2.1 3.6 2.1 3.6h4.1z" style="fill:#fff"/><path d="M413.1 730c-.7-.7-1.7-1.2-3-1.7 1.1-.5 1.9-1 2.5-1.6 1.1-1.1 1.6-2.6 1.6-4.3 0-1.4-.5-2.7-1.6-3.8-1-1.1-2.5-1.9-4.5-2.5q-2.85-.9-6.9-.9c-4.1 0-7.9.2-11.4.7h-.1v25.5c3.6.5 7.4.7 11.5.7s7.7-.7 10-2.1c2.4-1.4 3.6-3.4 3.6-5.9 0-1.6-.6-3-1.7-4.1m-10.1-7.9c.5.4.8.9.8 1.6 0 .9-.4 1.5-1.3 1.8-.6.3-1.5.4-2.7.4v-4.4h1c1 0 1.7.2 2.2.6m.1 12.7c-.6.4-1.3.6-2.3.6h-1V731c.7 0 1.3 0 1.7.1.8.2 1.4.4 1.8.7s.6.8.6 1.4c.1.6-.2 1.1-.8 1.6m-29.7-10c-1.6 0-3.1.2-4.5.5l-1.2.3c.3-.6.6-1.2 1.1-1.6 1.2-1 3-1.4 5.7-1.4 1.7 0 3.7.2 5.8.6.2-2.4.7-4.7 1.4-6.9-2.8-.7-5.7-1.1-8.7-1.1q-7.8 0-11.7 3.6c-3.9 3.6-3.8 5.9-3.8 10.6q0 4.35 1.5 7.2c1.5 2.85 2.5 3.3 4.5 4.3 2 .9 4.6 1.4 7.7 1.4 4 0 7-.8 9.1-2.3 2.1-1.6 3.1-3.9 3.1-6.9 0-2.7-.8-4.7-2.5-6.1-1.8-1.5-4.2-2.2-7.5-2.2m-.5 9.1c-.5.2-1.2.3-2.2.3-.7 0-1.2 0-1.7-.1-.4-.1-.7-.2-.9-.4s-.3-.4-.3-.7c0-.5.2-.8.7-1s1.2-.3 2.2-.3 1.8.1 2.2.3c.5.2.7.5.7 1 0 .4-.2.7-.7.9m-47.5-9.4h24.1v8.4h-24.1zm-17.8-8.5h10.6v25.5h-10.6v-9.3h-8.8v9.3h-10.6V716h10.6v8.7h8.8zm-45.7 24.9c2 .9 4.6 1.4 7.7 1.4 4 0 7-.8 9.1-2.3 2.1-1.6 3.1-3.9 3.1-6.9 0-2.7-.8-4.7-2.5-6.1-1.6-1.4-4.1-2.1-7.4-2.1-1.6 0-3.1.2-4.5.5l-1.2.3c.3-.6.6-1.2 1.1-1.6 1.2-1 3-1.4 5.7-1.4 1.7 0 3.7.2 5.8.6.2-2.4.7-4.7 1.4-6.9-2.8-.7-5.7-1.1-8.7-1.1q-7.8 0-11.7 3.6c-2.6 2.4-3.8 5.9-3.8 10.6q0 4.35 1.5 7.2c.9 1.8 2.4 3.3 4.4 4.2m5.1-9c.5-.2 1.2-.3 2.2-.3s1.8.1 2.2.3c.5.2.7.5.7 1 0 .4-.2.8-.7 1s-1.2.3-2.2.3c-.7 0-1.2 0-1.7-.1-.4-.1-.7-.2-.9-.4s-.3-.4-.3-.7c0-.5.3-.9.7-1.1m-42.3.2h9.5v9.5h-9.5zm-9.6-19.1h-37.6v8.8h37.6zm-6.7 2.6v.8h-24.2v-.8zm-24.3 3.8v-.8h24.2v.8zm17.6 18.7h15v-2.6h-15v-.7H215v-8h-37.6v8h13.3v.7h-15v2.6h15v.7H174v4.1h44.5v-4.1h-16.8zm0-5.5v-.8h6.6v.8zm6.7-3h-6.6v-.8h6.6zm-17.6-.8v.8h-6.6v-.8zm-6.7 3.8v-.8h6.6v.8zm33.7-6.5h-43.1v-3.6h43.1zm-67.5-.7H166v-3.1h-15.7v-.5h16.4V713h-43.1v8.7H140v.5h-15.7v3.1H140v.5h-17.1v3.6h44.5v-3.6h-17.1zm7.7-6.4h-1.7l.2-1.4h-5.4l-.2 1.4h-1.7v-2.2h8.8zm-25.7-2.1h8.8v2.2h-1.7l-.2-1.4h-5.4l.2 1.4h-1.7zm34.8 17h-9.9v-3.8h9.9zm-27 4.7v-.5h-15.7v-3.6h15.7v-.5h-4.7v-3.8h8.8v2.5h2.2v-2.5h8.8v3.8h-4.7v.5H166v3.6h-15.7v.5h16.8v4.4h-43.8v-4.4zm-7-4.7h-9.9v-3.8h9.9zm243.1 29.6H367c-1.6-.3-3.1-.4-4.6-.4-3.3 0-5.7.9-7.4 2.6-1.6 1.7-2.5 4.2-2.5 7.4 0 7 3.9 10.5 11.6 10.5 1 0 1.9-.1 2.8-.2-.1.4-.1.8-.3 1-.2.5-.7.9-1.3 1.1s-1.5.4-2.6.4c-2.6 0-5.2-.5-8-1.6l-2 7c4.2 1.2 8.1 1.7 11.8 1.7 4 0 6.9-.9 8.8-2.5s2.8-4.1 2.8-7.4v-19.6zM362.5 776c-.6-.5-.8-1.4-.8-2.5 0-1.2.3-2 .8-2.6.6-.5 1.5-.8 2.8-.8.6 0 1.1.1 1.7.2v6.3c-.5.1-1 .2-1.6.2-1.4 0-2.3-.3-2.9-.8M344 762.4h-8.2c.1-.8.2-1.7.3-2.6l-8.9-.7c-.6 5.1-2.6 9.7-5.8 13.9v9.1h13.8v3.3h8.8v-3.3h4.4v-7.8H344zm-12.3 11.9c1.6-2.5 2.8-5.4 3.5-8.6v8.6zm-17.4 2.7c0 2.9-1.1 5.1-3.4 6.7-2.2 1.6-5.7 2.4-10.2 2.4q-2.7 0-5.7-.3c-2-.2-3.8-.6-5.5-1q1.2-4.2 1.5-7.5c2.6.6 5.5.8 8.5.8q2.7 0 3.9-.3t1.2-.9q0-1.05-3.3-1.5c-3.3-.5-5.7-.5-10.6-.5l.7-15.1h20.9v7.1h-12.4l-.1 1.7c4.9 0 8.6.7 10.9 2 2.4 1.3 3.6 3.5 3.6 6.4m-42.6-.2H282v8.5h-25.5v-8.2c3.3-1.4 6-2.6 8-3.5 2-1 3.5-1.9 4.4-2.6 1-.8 1.4-1.6 1.4-2.3 0-.5-.3-.9-.8-1.1s-1.5-.4-2.8-.4-2.7.1-4.2.4-3.2.7-5 1.2c-.2-3-.7-5.9-1.4-8.5 3.3-.9 6.9-1.4 11-1.4 4.7 0 8.2.7 10.5 2s3.5 3.2 3.5 5.7c0 1.8-.6 3.5-1.9 5-1.2 1.5-3.1 2.9-5.6 4.1-.6.5-1.2.8-1.9 1.1m-47-.9h9.5v9.5h-9.5zm-47.2-19.1v8.8h37.6v-8.8zm30.9 2.5v.8h-24.2v-.8zm-24.3 3.8v-.8h24.2v.8zm17.6 18.8h15v-2.6h-15v-.7H215v-8h-37.6v8h13.3v.7h-15v2.6h15v.7H174v4.1h44.5v-4.1h-16.8zm0-5.5v-.8h6.6v.8zm6.7-3h-6.6v-.8h6.6zm-17.6-.8v.8h-6.6v-.8zm-6.7 3.8v-.8h6.6v.8zm-9.4-10.2h43.1v3.6h-43.1zm-24 14.5h15v-2.9h-15v-.8H164v-10.2h-13.3v-.8h15.7v-4h-15.7v-1c5-.1 9.9-.3 14.5-.6l-.6-4.5c-11 .9-23.8 1.1-38.3.7.2 1.5.1 2.9 0 4.3 4.7.1 9.2.2 13.6.2v.8H124v4h15.7v.8h-13.3v10.2h13.3v.8h-15v2.9h15v.9h-16.8v5.2h44.5v-5.2h-16.8v-.8zm0-6.7v-1.2h6.6v1.2zm6.6-4.5v1.2h-6.6v-1.2zm-17.6 0v1.2h-6.6v-1.2zm-6.6 4.5v-1.2h6.6v1.2zM773 309.8q2.55 0 4.8-1.2c1.4-.8 2.6-2 3.4-3.4q1.2-2.1 1.2-4.8c0-2.7-.4-3.3-1.2-4.8-.8-1.4-2-2.6-3.4-3.4q-2.1-1.2-4.8-1.2c-2.7 0-3.3.4-4.8 1.2s-2.6 2-3.4 3.4q-1.2 2.1-1.2 4.8c0 2.7.4 3.3 1.2 4.8s2 2.6 3.4 3.4q2.25 1.2 4.8 1.2m-7.9-23.1H781l7.8 13.7L781 314l-15.8-.1-7.9-13.6zm-6.8-11.9-14.7 25.5 14.7 25.5h29.5l14.7-25.5-14.7-25.5zm-164 96.9c1.2 0 2.3-.3 3.2-.8 1-.5 1.7-1.3 2.3-2.3s.8-2 .8-3.2-.3-2.3-.8-3.2c-.5-1-1.3-1.7-2.3-2.3-1-.5-2-.8-3.2-.8s-2.3.3-3.2.8c-1 .5-1.7 1.3-2.3 2.3-.5 1-.8 2-.8 3.2s.3 2.3.8 3.2c.5 1 1.3 1.7 2.3 2.3.9.5 2 .8 3.2.8m-9.9-23.3h19.7l9.8 17-9.8 17-19.7-.1-9.8-17zm-4.4-7.6-14.2 24.6L580 390h28.5l14.2-24.6-14.2-24.6zm523.7-26.8-25.5.7-.1-8.7 25.6-.6v-1.8l-19.2.4-.1-6.8 19.2-.3v-1.6h-20c.2-3 .1-6-.3-8.8 24.4.4 46.7.3 66.7-.3l.5 7.7c-8.7.6-18 1-28 1.2v1.4l26.9-.4.1 6.4-27 .6v1.8l33.3-.8.1 8.3-33.4.9v1.4c6.2.3 12.5.4 18.6.2s11.8-.6 17-1.4q-2.25 6.45-2.7 11.7H1116c-4.4 0-7.6-.8-9.6-2.5-2-1.6-3-4.3-3-7.9v-.8zm12-28.3c1.6-4 2.5-8.4 2.6-13.1h15.4c0 .7-.1 1.5-.1 2.2h23.7v8.6h-7l.7 2.2h-14.3l-.5-2.2h-4.1c-.2.8-.5 1.5-.7 2.2zm-22.4 0h-16.2c2.2-4.2 3.4-8.6 3.5-13.1h15.4c0 .7-.1 1.5-.1 2.2h19.9v8.6h-3.8l.5 2.2H1099l-.4-2.2h-4.3c-.4.8-.7 1.6-1 2.3m-30.9-2c2.6 0 4.8-.2 6.8-.6-1 4.5-1.7 8.9-1.9 13.3H1054c-2.4 0-4.1-.5-5.2-1.4s-1.6-2.4-1.6-4.4v-5.8h-5.1v.3c0 7.8-6 12.1-17.9 12.8-.5-4.4-1.6-8.4-3-11.9h-17.9c-.1.1-.2.2-.2.3-.6.7-1.2 1.3-1.8 1.9h19.6v9.8h-7.9v2.2h10.1v11.1H1013v2.2l10.5-.2c-.5 4.4-.8 7.8-.8 10.2-3.9.7-8.2 1.2-13 1.6s-9.4.6-14 .6v-11.8h1.9v-2.5h-7.8v-11.1h7.8V298h-3.3v-5.3q-1.5.6-3.3 1.2c-.5-4.9-1.8-9.7-3.6-14.4 2-.6 3.4-1.6 4.4-2.9s1.5-2.9 1.7-4.9h14.5c-.1.9-.2 1.8-.3 2.6h15.4v9.6c1.8-.2 3.2-.7 4.2-1.4 1.5-1.1 2.2-2.9 2.2-5.4v-4.2h30.6v8.2c-.1 1.7.7 2.6 2.3 2.6m-139.6 23.6h32.4v7h-32.4zm27.9-14.5c3.6-3 5.8-6.2 6.6-9.7h-23.5c.1-.3.2-.7.2-1h-10.8c-.3 1.5-1 2.7-1.9 3.4s-2.3 1.1-4.1 1c.5 2.4.8 4.8 1 7.3 2.9 0 5.4-.5 7.7-1.6.2-.1.4-.2.7-.4.7.7 1.5 1.5 2.4 2.2-3.4.5-7.4.8-12.1 1.1q1.2 4.65 1.5 9.6c4.4-.6 8.6-1.5 12.5-2.6l.4 3.9h15.4l-.4-4c3.8 1 8 1.9 12.8 2.6.2-2.9.8-6.2 1.7-9.8-4.5-.2-8.3-.6-11.6-1 .5-.2 1-.6 1.5-1m-11.6-1c-1.7-.6-3.1-1.3-4.3-2.2h8.1c-.9.8-2.2 1.5-3.8 2.2m3.3 9.1H935c.6-.2 1.3-.4 1.9-.6.7-.2 1.3-.5 1.9-.7 1.1.4 2.3.9 3.6 1.3m-118.1 22.7c-4.2.4-8.7.6-13.6.6V313l27.5-1.3c-.3 2.6-.6 6-.8 10.1-4.6.8-9 1.4-13.1 1.8m16.2-13.7h5.8l-.7 3.8h-4.5v11.2c12.8 0 24.1-.8 33.7-2.3l.6 3.9 13.1-1.7c-.9-4.8-2.4-9.8-4.5-14.9h4.9v-10.1h-48.3zm32.3 3.8h-14.1l.7-3.8h12.2c.4 1.3.8 2.5 1.2 3.8m.3-41.3H853c-1.1 2.6-2.9 4.4-5.4 5.5q-3.75 1.5-10.2 1.2c.8 2.4 1.4 4.9 1.8 7.4L832 283c-.5.8-1.1 1.6-1.6 2.4h-2.9c2.1-2.8 4.1-6.1 5.9-9.9l-12.3-4.4c-.9 2.9-2 5.7-3.5 8.7-1.1 2.1-2.3 4-3.6 5.6h-3.6v10.2H822c-1.6 1.5-3.2 2.9-4.8 4.1h-6.8v10.7l27.1-1.2v-9.6h-4.9c1-.9 1.9-1.8 2.9-2.8 1.6-1.7 3-3.5 4.3-5.5 0 .2 0 .5.1.7 2 0 3.9-.1 5.6-.3v5.8h35.6v-5.9q3 .3 6.6.3c.2-4.5 1-8.8 2.4-13q-7.5 0-11.4-1.5c-2.6-.8-4.4-2.5-5.6-5m-10 8.1c1.6 2.5 3.2 4.6 4.9 6.2.9.8 1.8 1.4 2.8 2h-15c1-.6 1.9-1.2 2.7-2 1.6-1.5 3.2-3.6 4.6-6.2m277.3 101.7c6.3-.2 11.9-.6 16.7-1.2-1 3.4-1.6 6.5-1.7 9.1h-40.1c-2.9 0-5.1-.6-6.4-1.7-1.3-1.2-2-3-2-5.6V379l-27.7.8-.1-7.1 27.9-.7v-3.2l-21.4.5-.1-5.7 21.5-.5v-2.9c-6.6.1-14 .2-22.2.2.2-2.5.1-4.8-.3-7.1 23.2.4 44.9 0 64.8-1.2l.6 5.8c-9.1 1-18.4 1.6-28.1 2-1.2 0-2.4.1-3.7.1v2.9l30.7-.7.1 5.5-30.8.8v3.2l37.1-1 .1 6.9-37.2 1.1v3.5c8.5.2 16 .2 22.3 0m15.9-34.6h-11.8l1.1 4.1h-9.1l-.6-4.1h-8.1c-.3 1.4-.6 2.8-1 4.1h-10.1c1.8-4.2 2.8-8.8 2.9-13.7h9.3c0 .9-.1 1.8-.1 2.7h27.6v6.9zm-67.5 4.1h-10.4c2.4-4.5 3.7-9 3.8-13.7h9.3c0 .9-.1 1.8-.2 2.7h23.7v6.9h-8.5l.9 4.1h-8.7l-.5-4.1h-8.1c-.3 1.4-.7 2.8-1.3 4.1m-23.4-32.8v-20h-38.6v26.2h32.9c3.8.1 5.7-2 5.7-6.2m-14.4-5.2h-10.5v-4.8h10.5zm-24.2 50.9v25h32.2c2.9 0 4.4-1.7 4.4-5v-20zm8.5 7.6h19.4v9.1h-19.4zm25.6-21q4.2 0 7.2-.6-1.2 4.8-1.5 9.6h-11.1c-1.8 0-3.1-.3-4-1.1-.8-.7-1.2-1.9-1.2-3.5v-8.5H1038v2.8c0 7-4.8 10.9-14.4 11.5-.4-3.7-1.3-7-2.6-9.8 3.1.1 5.5-.4 6.9-1.6 1.5-1.1 2.2-2.9 2.2-5.4v-6.1h28.4v10.3q-.15 2.4 2.4 2.4m-39.3 29.4c-.4 2.8-.6 5.1-.6 7.1-3.5.6-7.4 1.1-11.8 1.5-4.3.4-8.5.6-12.4.6v-8.5l2.6-.1v-6.8h-8.7v-8.1h8.7v-4.9h-4.3V356c-1.4 1-3 1.9-4.8 2.6-.4-3.5-1.4-6.8-2.8-9.9 2.3-.8 4-2.2 5.1-4.1s1.7-4.5 1.9-7.8h8.9c-.1 1.4-.2 2.7-.4 3.9h18.2v8.4h-20.6c-.3.7-.7 1.5-1.1 2.1-.6 1-1.4 1.9-2.2 2.8h21.6v7.5h-10.4v4.9h12.6v8.1h-12.6v6.5zm-99.7-6.8h34.4v5.7h-34.4zm25.3-2.1h-16.3l-.4-4.8h16.3zm4.7-14c3.9-2.7 6.5-5.6 7.6-8.9h-29.3c.3-.8.5-1.5.7-2.4h-7c-.5 2-1.6 3.4-3.1 4.4s-3.7 1.4-6.8 1.4c.5 2 .7 4 .8 5.9 3-.1 5.6-.6 7.9-1.7l1.2-.6c1.6 1.4 3.7 2.9 6.4 4.2q-7.05 1.2-17.1 2.1c.5 2.3.9 4.6 1.1 7 8.4-1.2 15.8-2.7 22.1-4.6.9-.3 1.8-.6 2.6-.8 6.3 2.2 14.3 4 23.9 5.5q.3-3.3 1.2-7.2c-6.3-.6-11.7-1.3-16.2-2 1.5-.8 2.8-1.5 4-2.3m-12.6.3c-3.6-1-6.5-2.3-8.7-3.7h17.1c-2.2 1.5-5 2.7-8.4 3.7m-38.5-32.5H972c1.7 0 3.1-.5 4-1.4s1.4-2.3 1.4-4v-47.6h-76.6zm15.1-44.4h45.7v34.6h-45.7zm-14.2 108.6H972c1.4 0 2.6-.4 3.3-1.2q1.2-1.2 1.2-3.6v-46.3h-74.7zm9.2-44.3h56v36.8h-56zm-71.2 3h18.8v-7.3h-18.8V338h-8v3.1h-9.5c.2-1 .3-2 .4-3.1h-8.3c-.3 3.7-1.7 5.9-4.2 6.8 1.1 2.7 1.9 5.4 2.3 8.1h-2v8.1h20.3v4.4h-19.2v22.7h8.6v-15.2h10.7v17.4h8.9v-17.4h11v7h-6.4c.5 2.5.8 5.2 1 8.2h8.3c1.7 0 3.1-.5 4-1.4s1.4-2.3 1.4-4v-17.4h-19.2V361h19.8v-8.1h-19.8zm-24.9 4.5q2.85-1.5 4.8-4.5h11.2v4.5zm63.4-14.9h8.4v45c0 4.8-2.2 7.2-6.7 7.2h-12.4q-.15-4.35-1.2-8.7h11.8V338zm-6.3 36.3h-7.1V341h7.1zm-82.6-1-8.6-1.2 6.3-29.3 9.6 1.7zm-58.5 0-7-28.7 9.7-1.7 6.1 29.2zm44.2 4.5h23.6v9.5H722v-9.5h23.6v-38.3h9.3v38.3h10.9v-38.3h9.3zm-98.5-.3h31.7v9.8h-74.7v-9.8h31.7v-26.4h-28.5v-9.6H705v9.6h-28.5zm446.9 395.3v11.3h25.9c.7 0 1.2-.2 1.5-.7.4-.4.5-1 .5-1.8v-8.8zm25.2 7.9h-22.3v-4.6h22.3zm-27.4-15v3.3h32.9v-3.3zm38.3-3.9v20.4h-5.6c.4 1.1.6 2.3.8 3.7h5.6c.8 0 1.3-.2 1.7-.7s.6-1.1.6-1.9v-25h-39.8v3.4zm-60.7-4.4-2.3 1.5c2.1 3.1 4.5 5.8 7 8.1s5.3 4.1 8.3 5.6c.5-1.3 1.1-2.7 1.9-4-3-1-5.7-2.4-8.1-4.3-2.4-2-4.7-4.2-6.8-6.9m-13.6 1.4-2.3-1.5c-2.1 2.7-4.4 5-6.8 6.8s-5.1 3.3-8.1 4.3c.8 1.4 1.4 2.7 1.9 4 3-1.5 5.8-3.3 8.3-5.6 2.6-2.2 4.9-4.9 7-8m4.1 9.2-2.5-1.4c-1.3 3-2.8 5.8-4.4 8.3s-3.5 5-5.7 7.3l4.5 1.2c3-4.4 5.7-9.5 8.1-15.4m8.1 2.2-3.4 1.9c2.3 2.4 4.4 4.9 6.3 7.4 1.9 2.6 3.4 5.1 4.6 7.7l2.9-.8c-2.3-5.2-5.8-10.6-10.4-16.2m-24.8 11.5v3.9c5.4 0 10.9-.2 16.2-.7 5.4-.4 10.5-1.1 15.4-1.9l-.6-2.7c-7.1 1-15 1.6-23.6 1.6l-.7-.2zm-42-6.8c0 1-.5 1.8-1.6 2.3s-2.7.6-4.9.5c.5 1.2.7 2.5.8 3.9 2.1 0 3.7-.2 5-.6 1.2-.4 2.1-1.1 2.6-1.9s.8-1.9.8-3.3c0-1.5-.4-3-1.2-4.4s-1.9-2.8-3.4-4.2l.4 2.6 2.7-12.2h-12.7v28.8h2.9v-25.1h7.6l-.9-1.4-2.7 8.8c1.5.9 2.7 2 3.5 3.1.7 1 1.1 2.1 1.1 3.1m19.4 3.5 1.9 2.4c1.9-.6 3.5-1.3 4.9-2.1s2.7-1.8 3.8-3l-2.1-1.4c-.9 1-2.1 1.8-3.5 2.5-1.3.6-3 1.2-5 1.6m-12.6-14v3.1h20.8v-3.1zm19.5-6.2v15.5h3v-15.5zm-20.1 0v3.3h23v-3.3zm11.2 15.2h-2.6c.9 3.3 2.1 5.9 3.4 7.8s2.9 3.2 4.9 4 4.5 1.2 7.6 1.4c.1-1.2.3-2.5.5-3.9q-4.05 0-6.6-.9c-2.55-.9-3.2-1.5-4.3-2.8-1.1-1.4-2.1-3.2-2.9-5.6m.2 8.8-12.7.2v3.7c2.2 0 4.5-.1 6.6-.2 2.2-.2 4.1-.3 5.7-.6.1-1.2.2-2.2.4-3.1m-12.7-24v26.9h3v-26.9zm1.3 12.3v3.2h23v-3.2zm-32.7 9.6v-2.8h-26.2v2.8zm0-5.5v-2.8h-26.2v2.8zm-26.1-8.9v3.3h25.4v14.2h-12.9c.2.9.3 2 .4 3.4h12.9c.9 0 1.6-.3 2.1-.8s.7-1.3.7-2.3v-17.8zm-2 0v20.9h3.1v-20.9zm7-8.5-3.3-.3c-.6 3-1.5 5.3-2.6 7.1-1.1 1.7-2.4 3.1-4.1 4s-3.9 1.7-6.7 2.2q.75 2.25.9 4.5c3-.7 5.6-1.9 7.8-3.5s3.9-3.6 5.3-5.9q1.95-3.6 2.7-8.1m-14.4 2v3.4h40.1v-3.4zm-35.7-1.8h-2.6c0 1.4-.3 2.5-.8 3.2-.5.8-1.2 1.2-2 1.3.7 1 1.1 2.1 1.3 3.2 1.2-.4 2.2-1.2 2.9-2.6s1.2-3 1.2-5.1m-1.6 1.6v3.3h26V759zm13.6-1.8H942v8.9h2.9zm-20.8 22.6h-.8c-1.6.4-3.1.8-4.4 1.3s-2.5 1.1-3.5 1.7c.4.5.7 1.1 1 1.7.3.7.6 1.3.8 2 2.5-2 5-3.5 7.7-4.7l-1.8-.2c1.6 1.3 3.6 2.3 5.9 3.1 2.3.7 5.2 1.1 8.6 1.1h21c.1-1.5.3-2.9.7-4.3-3.5.5-9.9.7-19.3.7q-6.45 0-9.9-.6-3.45-.45-6-1.8m-7.8-13.3v3.5h5.9v10.9l2.9-.1v-14.3zm1.1-7.9v3.5h8v-3.5zm10.8 6.6v3.2h30.3v-3.2zm1.8 5.6v8.9h24.2q1.2 0 1.8-.6c.4-.4.6-1.1.6-2v-6.3zm23.8 6.1h-20.9v-3.4h20.9zM880 761.1h-3v25.5h2.9zm-10.4-3.9h-2.7c-.2 2.6-1.1 4.1-2.6 4.6.6 1.2 1 2.4 1.2 3.5 1.2-.5 2.2-1.4 2.9-2.9.7-1.3 1.1-3.1 1.2-5.2m-2.1 1.7v3.3h24.3v-3.3zm-3.1 6.9v3.5h28.1v-3.5zm34.1 20.7h6.1q2.7 0 2.7-3v-26.3h-2.8v25.7H898c.2 1.2.4 2.4.5 3.6m-21.3-26.4h2.7v-2.9h-2.7zm14.7 22.5v-9.8h-26.8v12.5h2.8v-9.1h21.2v5.8h-5.3c.2 1.1.3 2.2.4 3.5h4.8c.9 0 1.6-.2 2.1-.7.5-.6.8-1.3.8-2.2m5-23.7v18.5h2.6v-18.5zm-76.5 7.4h29.8v-2.7h-29.8zm28.9 20.4h4.6c-1.1-1.3-2-2.7-2.5-4.3H848c.3 1.7.8 3.1 1.3 4.3m-28.9-15h29.8V769h-29.8zm0 5.3h29.8v-2.7h-29.8zm-6.7 6.2h43.4v-3.5h-43.4zm3.3 3.5h4.5c.6-1.3 1.1-2.8 1.4-4.3h-3.4c-.5 1.6-1.4 3-2.5 4.3m1.5-5.7h3.2v-20h27.6v20h3.2v-23.4h-33.9zm-43.9-17.1h-3.3c1.9 6.4 5.5 11.4 10.8 15.2s13.1 5.8 23.3 6c.1-1.6.4-3.1 1-4.6-6.8.4-12.3-.2-16.8-1.6-4.4-1.5-7.8-3.5-10.1-6.1-2.3-2.5-3.9-5.5-4.9-8.9m22.8 0h-3.3c-1 3.4-2.6 6.4-5 9-2.3 2.6-5.7 4.6-10.1 6.1s-10 2-16.8 1.6c.6 1.5.9 3 1 4.6 10.1-.2 17.9-2.3 23.3-6 5.4-3.8 9-8.9 10.9-15.3m-15-5.9.4 3.4h3.1l.4-3.4zm22.5 6.7v-3.8h-41.2v3.8zm-55.4-6.4 1.2 4.5h2.2l-.6-4.5zm-34.3 9.8 3.6 6.6 2.1-.3-3-7.2zm6.7-2.4 3.7 6.7 1.8-1.1-2.8-6.8zm20.2-7.8v5.7h2.7v-5.7zm2.8 7.6h-2.8c-.3 2.1-.8 3.8-1.5 5s-1.9 2-3.4 2.5-3.6.8-6.2.7c.3 1.4.4 2.7.5 3.9 2.9-.2 5.2-.7 6.8-1.4q2.4-1.05 3.6-3.3c1.2-2.25 1.5-3.6 2-6.4h-.8c.4 2.7 1.1 4.8 1.9 6.4.8 1.5 2 2.6 3.5 3.4 1.5.7 3.5 1.2 6.1 1.4 0-1.1.2-2.4.5-3.9-2.4 0-4.2-.2-5.5-.7s-2.3-1.3-3-2.5c-.7-1.3-1.3-2.9-1.7-5.1m-11.2-3v3.5h21v-3.5zm-.7-3.7h-15v3.3h13.1l-.9-1.2c0 5-1.6 8.5-4.7 10.6s-7.8 2.9-14.2 2.5c.3 1.1.4 2.4.4 3.9 4.8-.1 8.7-.7 11.8-1.8s5.4-3.1 7-5.8c1.7-2.8 2.5-6.6 2.5-11.5m-13.3-1.2h-2.9c-.2 1.6-.4 2.8-.7 3.6s-.8 1.3-1.4 1.6-1.4.3-2.4.2c.2 1.1.4 2.4.5 3.8 1.6 0 2.8-.3 3.8-.9s1.7-1.6 2.2-2.9q.45-1.95.9-5.4m30 21.4.8 7.3h3.6l-1.4-7.3zm-23.5 0-.8 7.3h3.3l.3-7.3zm15 7.3-.8-7.3h-2.8l.3 7.3zm-25.2 0 .8-7.3h-3l-1.4 7.3zm-19.4-20v3.3l5.1 2V769zm-6.9 0v3.3l5.1 2V769zm-5.7-1.9-.7 11.1h1.8l1.3-11.1zm3.4-7.1v17.1c0 2.2-.2 4.3-.7 6.2s-1.3 3.7-2.4 5.4h3.3q1.35-2.55 1.8-5.4c.4-1.9.5-4 .5-6.2v-17.1zm7 0V786h2.4v-28.7zm6.9 0V786h2.5v-28.7zm-39.1 19.5v2.9h18.1v-2.9zm12.6-2.8h4.6v-2.9H675v-4.6h-2.3v5.5c0 .7.2 1.2.5 1.5.5.4 1 .5 1.6.5m-5.7-4.9v-2.5h-2.2v2.5c0 2.1-.4 4.1-1.3 5.9h2.6c.6-1.7.9-3.7.9-5.9m3.7-10.3v6.5h2.4v-6.5zm-6.2 0v6.5h2.4v-6.5zm-6 5.9V786h18.5c.8 0 1.3-.3 1.7-.9q.6-.9.6-2.4v-18zm18.4 18h-16v-14.8h16zm-19-25.4v3.4h22v-3.4zm-10.6 15.8v3.5h3.6v-3.5zm-.3 3.4v-3.3h-23.8v3.3zm-11-.4h-3.2l1.8 5.5h2.3zm13.9-13.8v-3.4h-27.2l-.6 3.4zm-25.1-5.2H624c-.1 1.7-.6 3-1.4 4.1q-1.2 1.65-3.6 2.4c.6 1.2 1.1 2.4 1.3 3.6 2-.7 3.6-1.9 4.7-3.5s1.8-3.8 1.9-6.6m9.8 16.6h2.3l-.9-5.4h-3.2zm-11.7 2.9v-3.5h-4.6v3.5zm28 8.3v-3.7h-26.6l1.2-12.6h19.8v10c0 3.1-.4 6-1.2 8.8h3.1c.7-2.8 1.1-5.7 1.1-8.8v-13.2h-25.5l-2 19.5zm-42.8-3.8v4h7.3c.6 0 1-.2 1.4-.5.3-.3.5-.7.5-1.3v-2.2zm0-11.9v3.6h8.5v-3.6zm0-10.1v3.7h8.5v-3.7zm-34.2 6.5v3.8h22.2v-3.8zm-1.3-8v25.8h3.4v-25.8zM559 781.2v3.9h42v-3.9zm-.5-536.6h-26.3v-12.3h-5.5v12.3h-29.1l3.8-16.6h53.7v-46.5h-43.8c1-1.7 1.9-3.6 2.6-5.8H507c-.1 2.1-.4 4-.9 5.8h-20.9V228H497l-5.7 16.6H483v8.8h43.8v8.9h5.5v-8.9h26.3zm-35-25.4v-10.9h26.3v10.9zm26.3-18.6h-26.3v-10.4h26.3zM518 190.2v10.4h-27.4v-10.4zm-27.3 18H518v10.9h-27.4v-10.9zm-21.8-8.3h6.5v8.8H440v12h31.1v40.8h-5.5v-32.1H440v5.4c0 7.5-.8 13.3-2.5 17.4-1.6 4.1-4.3 7.6-8 10.5-.9-3.6-2.3-7-4.4-10 3.1-1.2 5.4-3.6 7-7.2s2.4-8.7 2.4-15.4v-52.7h5.5v22.4h23.4v-22.4h5.5zm-80.5 24.8c4.1 1.7 9.9 2.5 17.3 2.5-.9 3.6-1.4 6.9-1.4 9.9-7.7-.7-13.8-2.3-18.3-4.5-4.5-2.3-7.9-5.9-10.3-10.7-1.9-3.9-3.5-9-4.6-15.5-1.3 6.6-2.8 11.9-4.7 15.7-2.3 4.7-5.9 8.2-10.6 10.5q-7.05 3.45-20.4 4.5c-.1-3-.4-6.3-1.1-9.9 8.2 0 14.7-.9 19.3-2.6s8-4.5 10.2-8.3c2.1-3.6 3.6-8.8 4.5-15.5h-27.6V192h27.7v-14h5.5v14.1h20.2l-4.1-13h6.6l2 13h5.8v8.8h-30.2c1.3 6.7 2.9 11.9 4.9 15.6 2.1 3.8 5.2 6.6 9.3 8.2m-49.8-44c0 14.6-2.4 26-7.1 34.3-4.7 8.2-11.6 14.1-20.5 17.5s-20.4 5.3-34.4 5.7c0-3.9-.3-7.1-1-9.9 8.9.5 16.7.2 23.5-1L288 208.6l6.6-2.6 9.2 20.6c5.8-1.4 10.7-3.5 14.8-6.2l-10.9-19.6 6.6-2.6 7.9 19.3q10.05-9.45 10.8-27.9h-37.6c-.3 1.4-.6 2.7-.9 3.8-1.1 3.9-2.8 6.7-5.3 8.6q-3.6 2.85-10.2 2.7-.3-5.85-1.2-9.9c3.1.4 5.6.3 7.4-.5q2.7-1.2 4.2-5.1c1-2.6 1.7-6.6 2.1-11.9h5.5c-.1 1.2-.2 2.4-.3 3.5zm59 61 4.9 21.1h-7.1l-2.7-21.1zm-76.6 0h4.7l-1.1 21.1h-6.4zm39.4 0 2.7 21.1h-6.4l-1.1-21.1zm-76.6 0h4.9l-2.7 21.1h-7.1zm-87.7-11.3h-4.4l1.6-34h6zm50.5-54h5.5v85.4h-5.5v-44.5l-15.3-6.4v50.9h-5.5v-44.5l-15.3-6.4v14.9c0 6.9-.6 13.4-1.8 19.3s-3.2 11.4-6 16.6H195c3.6-5.2 6.1-10.7 7.7-16.6 1.5-5.9 2.3-12.3 2.3-19.3v-49.5h5.5v26.5l15.3 8.8v-35.3h5.5v26.5l15.3 8.8zm-125.3 8.7h20.3v13.4H123v63.3h54.8c2.3 0 4-.8 5.2-2.4q1.8-2.4 1.8-6.9v-54h-19.2v-13.4h20.8v-8.8h-65.1zm20.3 22.1v4c0 6.6-1.4 12.7-4.3 18.3h6.6c2.1-5.4 3.2-11.5 3.2-18.3v-4h13.1v13c0 2 .5 3.5 1.5 4.4 1 1 2.5 1.5 4.4 1.5h13.2v9.1h-50.9v-28zM128.4 253v-10.1h50.9V253zm50.9-34.5h-13.7v-11.3h13.7zm-19.1-20h-13.1v-13.4h13.1zM1060.6 464l1.9 8.6-3 .7-1.9-8.6zm17.5.6 3.3 2.9-.3.8-4.4-.4-1.7 4-.9-.1-.9-4.3-4.3-.4-.2-.9 3.7-2.2-.9-4.3.7-.4 3.2 2.9 3.8-2.2.6.6zm0 1.9-2.1-1.4 1.3-2.2-2 1.5-1.7-1.9.8 2.4-2.3 1h2.5l.3 2.5.7-2.4zm9.6-8.6 1.9 8.6 3-.7-1.9-8.6zm27 .1c.2 1.1.1 2-.6 2.7-.6.7-1.6 1.2-3.1 1.6-1.1.2-2.1.3-2.9.1s-1.4-.6-1.9-1.2-.9-1.4-1.1-2.5c-.4-1.7-.2-3 .5-4.1.7-1 2-1.8 3.9-2.2 1.1-.2 2.2-.3 3.2-.3-.1.8-.1 1.7 0 2.6-.8 0-1.5.1-2.1.2-.9.2-1.6.5-1.9 1-.1.2-.2.4-.3.7.1-.1.3-.2.4-.2v.1c.5-.2 1-.4 1.6-.5 1.2-.3 2.1-.2 2.8.2.8.2 1.2.8 1.5 1.8m-3.5.7c0-.2-.2-.3-.3-.3-.2 0-.5 0-.8.1-.4.1-.6.2-.8.3s-.2.2-.2.4l.2.2c.1.1.2.1.4.1s.4 0 .6-.1c.4-.1.6-.2.8-.3s.1-.2.1-.4m14-.3c-.7.7-1.9 1.2-3.4 1.5s-2.9.5-4.2.7l-2-9.1h.1c1.2-.4 2.5-.8 3.9-1.1.9-.2 1.8-.3 2.5-.2s1.3.2 1.8.5.7.7.9 1.2c.1.6.1 1.2-.2 1.7-.2.3-.4.5-.8.8.5.1.9.2 1.2.4.5.3.8.8 1 1.4.3.7 0 1.5-.8 2.2m-5.2-5.9c-.1 0-.2.1-.4.1l.3 1.6q.6-.15.9-.3c.3-.2.4-.5.3-.8-.1-.2-.2-.4-.4-.5-.1-.2-.3-.2-.7-.1m2.1 3.9c0-.2-.2-.3-.3-.4-.2-.1-.4-.1-.7-.1-.2 0-.4 0-.7.1l.3 1.6c.1 0 .2 0 .4-.1.3-.1.6-.2.8-.4s.2-.5.2-.7m-215.3 46 1.3 5.7-2.5.5-.8-3.5-.5.1v.1c.2.9.2 1.6-.1 2.3s-.7 1.3-1.4 1.8c-.4-.8-1.1-1.5-1.9-2.1.4-.3.6-.6.7-1s.1-.9-.1-1.5l-1.4-6.1 2.5-.6.5 2.3.5-.1-.5-2.3 2.4-.5.5 2.3.4-.1.5 2.2-3.2.7.1.5zm-15.5 6.1.7 3.1 3.1-.7-.7-3.1zm-12.3-5.2 2.4 10.7-2.1.5-1-4.7h-.5l1.1 4.8-1.9.4-1-4.7h-.5l.3 1.4c.1.6.2 1.2.3 1.7.1.6.1 1.2.1 1.7l-2.6.6c.1-.6.2-1.2.2-1.7 0-.6-.1-1.2-.2-1.8l-.1-.6-.7.2.6 2.5q.15.75 0 1.2c-.1.3-.3.5-.5.5l-7.1 1.6-1.8-8.1 1.9-.4-.1-.5-2.1.5-.5-2.1 8.3-1.9.5 2.1-2.1.5.1.5 1.9-.4.7 3.1-.2-2.6.4-.1-.7-3.2 2.3-.5.8 3.8h.5l-.9-3.8 1.9-.4.8 3.8h.5l-.9-3.8zm-12.5 9.7 4-.9-.1-.4-1 .2c-.3.1-.5 0-.7-.1s-.3-.3-.4-.6l-.3-1.2-.3.1.1.4.3 1.8-1.6.3c0-.6-.1-1.2-.2-1.8l-.1-.4-.3.1zm3.5-3.3-.3.1.1.4.3-.1zm-2.6-1.1.3-.1-.1-.5-.3.1zm3.6 5.6-.1-.4-4 .9.1.4zm109.7-33.4 3.1-.7c0 .1 0 .3.1.4l4.9-1.1.4 1.8-1.5.3.2.4-2.9.7-.2-.4-.8.2v.5l-3.2.7c.1-.9.1-1.8-.1-2.8m-91.1 25.8c.3.6.5 1.2.7 1.8 1-.2 1.8-.5 2.4-.8s1-.7 1.3-1.1c.2-.2.3-.5.4-.9.2.2.4.4.7.6.4.3 1 .5 1.6.5.6.1 1.3 0 2.2-.2-.1-.7-.2-1.5-.2-2.5-.6.2-1.2.3-1.6.3s-.8-.1-1-.2l-.3-.3 2.5-.6-.5-2.2-.5.1-.3-1.3-2 .4.3 1.3-.5.1-.3-1.6-2.6.6.3 1.6-1.6.3.5 2.2 1.4-.3c-.1.2-.1.3-.2.4-.2.3-.5.5-1 .7-.3.1-.8.2-1.3.3 0-.1.1-.1.1-.2.4-1.1.5-2.6.1-4.4l-3.9.9v-.5l-3.1.7c0 .3-.1.6-.2.8s-.2.4-.4.5-.5.2-.8.2c.3.7.6 1.5.8 2.3.8-.2 1.4-.4 2-.8.4-.3.8-.7 1-1.1l2.2-.5c0 .4-.1.9-.3 1.2l-.6-.7-1.6 1.2.7.9c-.2.1-.5.2-.7.3l-.4-.9-1.9.7.3.8c-.3.1-.7.1-1.1.2.3.7.6 1.5.8 2.4 1.9-.4 3.5-1 4.7-1.6.8-.3 1.4-.9 1.9-1.6m5.7 1 .7 3.1 3.5-.8-.7-3.1zm-7.9 1.8.7 3.1 3.1-.7-.7-3.1zm-4.3.9.7 3.1 3.5-.8-.7-3.1zm93.1-25.7c0-.2.1-.3.1-.5l.9-.2.2.5 2.8-.6-.2-.5.8-.2-.4-1.8-4.1.9c0-.1 0-.3-.1-.4l-3.1.7c.2.9.2 1.9-.1 2.8zm-4.2 8q.3 1.35-.9 1.5l-6.7 1.5-1.2-5.4 7.9-1.7zm-3.2-.4-.2-1-2.1.5.2 1zm-7.8 1.7-.1-.4 2.1-.5-.5-2.3-2.1.5-.1-.5 1.6-.4-.4-2-4 .9c.1-.2.2-.3.3-.5v-.1l3.6-.8c.5.7.9 1.4 1.2 2.3 2.4-.7 3.4-1.8 3.1-3.4l1-.2.3 1.2c.1.4.3.7.5.8.3.1.6.2 1.1 0l2.7-.6c-.2-.9-.2-1.9-.2-2.8-.4.2-.8.3-1.4.4-.3.1-.5-.1-.6-.4l-.4-1.7-6.2 1.4.2.9c.1.5 0 .9-.2 1.2-.2.2-.5.3-.8.5l-.4-1.9-3.1.7v-.5l-3 .7c.1.4 0 .8-.1 1.1s-.4.6-.8.8c.6.9 1.1 1.8 1.4 2.8.2-.1.4-.3.6-.4l.2 1.1.7-.1.1.5-1.6.4.5 2.3 1.6-.4.1.5-.4.1.5 2.4c.9-.2 1.9-.5 2.8-.8 1-.3 1.8-.6 2.6-.9q-.15-.75-.3-2.1zm26.3-5.5c-1.2.3-2.5.6-3.8.8l-.1-.3 6.8-1.7-.4-1.7-6.8 1.7-.1-.3 5.5-1.3-.3-1.3-5.5 1.3-.1-.3q3-.75 5.7-1.5l-.5-1.5c-4.1 1-8.6 2.1-13.6 3.1.2.6.4 1.1.5 1.8 1.5-.3 2.8-.6 4.1-.9l.1.3-3.9.9.3 1.4 3.9-1 .1.3-5.2 1.3.4 1.8 5.1-1.3.1.2c.2.7.5 1.2 1 1.5.5.2 1.2.3 2.1.1l8.1-1.8c-.1-.7-.1-1.6 0-2.5-1.1.3-2.2.6-3.5.9m-13.1-3.1s0-.1 0 0m-20.1 11.6c.1.3 0 .7-.1.9-.2.2-.4.4-.8.5l-14.5 3.2-2.4-10.8 15.7-3.5zm-3.5-.2-1.6-7.1-9.3 2.1 1.6 7.1zm-16.1 2.3c.7 1 1.2 1.9 1.6 2.8l-2.6.9c-.1-.3-.2-.5-.3-.8-1.9.7-4.2 1.4-6.8 2l-.5-2.3.9-.2v-.8l-1.2.3-.5-2.1 9.9-2.2.5 2.1zm-2.5.6-2.5.5v.8l2.8-.6c-.1-.2-.2-.5-.3-.7m-12.3 3.4.5 2.3c1-.2 1.9-.5 2.8-.7.8-.3 1.7-.6 2.6-1q-.3-1.35-.3-2.1zm5.3-2-5.5 1.5-.5-2.2 1.4-.3c.3-.3.5-.7.8-1.1l-2.3.5-.5-2.1.7-.2c.2-.4.4-.8.5-1.3.2-.7.3-1.3.3-1.9l2.7.3c-.2.9-.5 1.6-.8 2.3l.6-.1c.1-.2.2-.4.2-.6l1.6.4c-.2-.5-.4-1-.7-1.4.9-.1 1.6-.4 2-.7.5-.3.7-.8.9-1.4l4.1-.9c.3.5.8.7 1.4.8s1.4 0 2.4-.2c-.1.9-.1 1.8.1 2.8-.5.1-1 .2-1.4.2l.3 1.2-7.3 1.6-.3-1.2c-.3.1-.7.2-1.1.3v-.1c-.2.5-.4.9-.6 1.3-.1.2-.3.5-.5.7l1-.2zm3.2-5.6c-.1.2-.3.4-.5.5l3.1-.7c-.2-.1-.5-.2-.7-.3-.4-.2-.9-.6-1.3-1.1-.1.7-.3 1.2-.6 1.6m18.9-2.6q1.05-.15 2.4-.3c0 .8 0 1.5.1 2.1q-1.5.15-2.7 0l.3.8-3.2.7-.3-.8c-.8.4-1.5.8-2.4 1.1-.2-.7-.4-1.3-.7-1.9 1-.3 1.7-.5 2.4-.8l-.6-.3-.1.1c-.4.3-.9.5-1.5.7-.2-.5-.3-1-.5-1.4.4-.1.6-.2.8-.4s.2-.5.2-.8l2.2-.5v.2l4.8-1.1c0 .7-.3 1.5-.9 2.3zm-1.5-.6-1.6.3c.3.1.6.2.9.2.4-.1.6-.3.7-.5m.4 2.3c-.3 0-.5-.1-.8-.1-.1.1-.2.2-.3.2-.1.1-.3.1-.4.2zm-28.3 10.6-2.4.5.2.9-2.8.6-.2-.9-4.2.9-.5-2.2.7-.2.1-.9-.8.2-1.4-6.3 2.1-.5v-.7l3.1-.7c0 .3 0 .5-.1.7l3.9-.9 1.4 6.3-5.5 1.2-.1.9.8-.2-.1-.5 2.8-.6.1.5 2.4-.5zm-8.5-5.4 1.1-.2-.1-.5-1.1.2zm.3 1.6.1.5 1.1-.2-.1-.5zm4.5-.5-.1-.5-1.1.2.1.5zm-.5-2.6-1.1.2.1.5 1.1-.2zm28.8-1.5.3 1.4 6.6-1.5-.3-1.4zm60.3-16.8c-.3.1-.7.2-.9.5-.3.2-.4.5-.5.9-.1.3-.1.7 0 1s.2.7.5.9c.2.3.5.4.9.5.3.1.7.1 1 0s.7-.2.9-.5c.3-.2.4-.5.5-.9.1-.3.1-.7 0-1s-.2-.7-.5-.9c-.2-.3-.5-.4-.9-.5-.3-.1-.7-.1-1 0m2.3-4 4.2 4.5-1.9 5.9-6 1.3-4.2-4.5 1.9-5.9zm1.3 5.2-2.2-2.4-3.2.7-1 3.1 2.2 2.4 3.2-.7z"/></svg>