<svg xmlns="http://www.w3.org/2000/svg" viewBox="0 0 1280 960"><path d="M226 356.9h36.6l.5 25.7h-35.7zm22.4 62.6c-8.1 3.5-19.3 5.9-33.4 7-14.1 1.2-32.5 1.5-55.1.9 5.4 11.9 8.9 24 10.7 36.4 40.3 0 71.4-4.6 93.2-13.9 7-3 13.3-6.5 18.8-10.5 10.3 6.4 21.4 11.6 33.4 15.7 14.4 4.9 30 7.8 46.7 8.7 1.8-12.4 5.4-24.5 10.7-36.4q-37.65.15-66-11.4h65.3v-28.5H313c.5-2.7 1-5.5 1.3-8.3q1.5-11.7 1.5-24.9h-44c0 8.9-.4 17.2-1.2 24.8-.3 2.8-.7 5.6-1.1 8.4h-48.7l-1.4-20H203v-17.6h125v22.8h41v-48.5h-75.8v-9.6h-55.3v9.6h-75.8v48.5h19.3l1.6 14.8h-24.5V416h96.3c-1.9 1.4-4 2.5-6.4 3.5m234.2-33.9h26l-.7-30.7h-28zm66 29.9h72.3v-23.9h-67c.8-4.1 1.4-8.3 1.8-12.5.9-8.3 1.3-17.3 1.3-26.9h-32.3c0 9.7-.4 18.7-1.2 26.9-.4 4.2-.9 8.3-1.6 12.5h-54.2l-1.9-26.4h-22.3v-18h142.8v25.5h30.3v-47.3H535l.5-9.6h-41l.5 9.6h-81.6v47.3h24.3l2.5 18.9h-30.9v23.9h102c-3.3 3.2-7.3 5.9-12.1 8.1-8.7 4.1-20.2 6.8-34.4 8.2s-32.2 1.7-53.9 1c3.9 9.5 6.5 19.4 7.8 29.6 37.4 0 66.7-4.4 87.6-13.3 9.8-4.1 18.1-9.3 25.1-15.5 10.4 7.1 21.8 13.1 34.2 17.9 14.4 5.5 30.1 9.2 47.3 11 1.6-10.5 4.4-20.3 8.6-29.6-28.7-1.1-53.1-6.9-72.9-17.4m191.8-25.3h11.8L751 352h-15zm-74.5-17.4h14.3v-29.4h169.4v29.4h14.3v-45.5h-90.6l1.5-9.6H755l1.5 9.6h-90.6zm-5 25.1v16.8h108.8c-4.8 6.3-10.9 11.4-18.4 15.2-9.6 4.9-21.6 8.2-35.9 9.8s-31.8 1.9-52.3 1c1.9 5.9 3.1 12.4 3.7 19.4 33.2 0 59.6-4.1 79.3-12.2 13.9-5.7 24.9-13.8 33.2-24.1 10.7 8.6 22.9 16.1 36.6 22.2 14.4 6.5 30.5 11.2 48 14.1 1.2-7.4 3-13.9 5.4-19.4-33.9-2.8-61-11.5-81.4-26h80.9v-16.8h-77.9c1.1-6.3 1.9-12.6 2.5-18.8.8-9.1 1.2-19.1 1.2-29.9h-14.8q0 16.35-1.2 30c-.5 6.2-1.4 12.4-2.4 18.7h-62.4l-2.4-36.2h-15.3l5.4 36.2zm331.8-6.1h7.1l-1.4-40.8h-10.7zm-76.3-19h8.9v-30.7h178.3v30.7h8.9v-44.9h-93.9l2.1-9.6h-12.5l2.1 9.6h-93.9zm-5.4 41.5h111c-5.2 7.3-12 13.2-20.3 17.6-9.9 5.2-22.1 8.7-36.5 10.3-14.4 1.7-31.6 2-51.7 1.1 1.2 4.8 2 10.1 2.3 16 31.7 0 57.2-4 76.5-11.9 15.2-6.2 27.1-15.4 35.7-27.4 10.9 9.3 23.5 17.3 37.6 24 14.4 6.8 30.5 11.9 48.2 15.2 1.1-6.4 2.5-11.8 4.3-16-35.6-3.5-63.6-13.2-84.1-29.1h83.8V400h-81.6q1.8-10.5 2.7-21 1.2-13.95 1.2-30.9h-8.9q0 16.95-1.2 30.9-.9 10.35-2.7 21h-65.1l-2.6-39.6H949l6.1 39.6h-44v14.3zM187.6 266.1h-27.3v-14.3h23.2v-84h77.6v-8h-91.6v-14.3h91.6v-6.4h8.9v6.4h91.7v14.3H270v8h77.6v84h23.2v14.3h-27.3c2.5 6.1 6.2 11.9 11 17.3h-15c-2.1-5-3.8-10.8-5.3-17.3H197c-1.4 6.1-3.2 11.9-5.4 17.3h-15c4.8-5.2 8.4-10.9 11-17.3m151.1-65.2H192.5v9.8h146.2zm-146.2 20.5v10h146.2v-10zm0-41v9.8h146.2v-9.8zm0 71.5h146.2v-9.8H192.5zm244.7 14.6h-28.1v-16.6h23.2v-76.5h74.3v-12.1h-88.1v-16.2h88.1v-6.4h17.1v6.4h88.1v16.2h-88.1v12.1H598v76.5h23.2v16.6h-27.9c2.8 6.1 6.8 11.9 12.1 17.3h-22.3c-2.9-5-5.3-10.8-7.1-17.3H454.5c-1.8 6.1-4.2 11.9-7.4 17.3H425c5.3-5.2 9.3-11 12.2-17.3m10.6-16.6h60.4l-2.1-44.9h18.2l-2.1 44.9h60.4v-62.4H447.8zm402.6-5.7h23.2v23.2H848c2.5 6.2 6 11.9 10.6 17.3h-43.9c-3.5-5.2-6.1-11-8-17.3h-84c-1.9 6.2-4.6 11.9-8.2 17.3H671c4.9-5.3 8.7-11.1 11.4-17.3H656v-23.2h23.2v-70.1h65.1v-8.7h-77.9v-22.1h77.9v-6.4h41v6.4h77.9v22.1h-77.9v8.7h65.1zm-136.1 0H748l-.7-39.2h35l-.7 39.2h33.7v-51h-101zm410.7-3.7V268h-24.2c2.3 6.2 5.6 12 9.7 17.3h-58.1c-3.7-5.3-6.6-11-8.6-17.3h-58.9c-2 6.1-4.9 11.9-8.8 17.3h-57.8c4.7-5.3 8.3-11.1 10.8-17.3h-25.3v-27.5H927v-65.8h58.9v-6.6h-71.1v-26h71.1v-6.4h57.1v6.4h71.1v26H1043v6.6h58.8v65.8zm-149.8 0h16.1V205h46.4v35.5h16V197h-78.5zM352.9 776.1h23.2v31h-24.2c2.3 6.2 5.6 12 9.8 17.3h-58.1c-3.7-5.3-6.6-11-8.6-17.3h-58.9c-2 6.1-4.9 11.9-8.8 17.3h-57.8c4.7-5.3 8.3-11.1 10.9-17.3H155v-31h23.2v-97.9h174.7zm-48.1-49.4h-78.5v5.9h78.5zm-78.4 21.7v5.9h78.5v-5.9zm0-43.5v5.9h78.5v-5.9zm0 71.2h78.5v-5.9h-78.5zm374.4 5H624v25.5h-25.1c2.4 6.2 5.8 11.9 10.1 17.3h-43.9c-3.2-5.2-5.6-11-7.4-17.3h-85c-1.8 6.1-4.3 11.8-7.8 17.3h-43.5c4.7-5.3 8.4-11.1 10.9-17.3h-25.9v-25.5h23.2V679.4h171.2zm-35.2-55.7H464.7v8.7h100.9zm-100.9 23.4v8.7h100.9v-8.7zm0-46.9v8.7h100.9v-8.7zm0 79.2h100.9v-8.7H464.7zm383 7.4h23.2v17.1h-26.7c2.5 6.1 6.1 11.9 10.8 17.3h-22.3c-2.3-5-4.3-10.8-5.8-17.3H702.8c-1.5 6.1-3.5 11.8-6.1 17.3h-22.1c4.7-5.2 8.4-11 11-17.3h-26.8v-17.1H682V681.2h165.8v107.3zm-15.5-65H697.4v13h134.8zm-134.8 39h134.8v-13H697.4zm0-65.1v13h134.8v-13zm0 91.1h134.8v-13H697.4zm399 2.5h23.2v14.3h-27.2c2.5 6.1 6.2 11.8 11 17.3h-15c-2.1-5-3.8-10.8-5.3-17.3H945.8c-1.4 6.1-3.2 11.8-5.4 17.3h-15c4.8-5.2 8.4-10.9 11-17.3h-27.3V791h23.2V681.7h164V791zm-155.1 0h69.3l-2.5-68.7h12.5l-2.5 68.7h69.4v-95H941.3zM288.5 619H163.9v14.3h203.3V619H299l7.4-54.6h-72.5l10.4-39.2h113.8v-14.3H173v14.3h60.8L223 578.7h73.5zm124.2-3v18.2h205V616h-65.5l7.1-53.1h-73l8.9-34.8h113.5v-18H421.8v18h57.9l-10.3 52.1h74.1l-6.8 35.8zm246.9 20.8H870V607h-57.8l6.4-48.9h-74.9l4.9-21.7h112.2v-29.1H668.7v29.1h49.7l-9.2 48v.1h76.5L782 607H659.6zm381.6-92h71.1v-39.2H916.5v39.2h71.1v53.7h-80.2v40.1h214v-40.1h-80.2z" style="fill:#fbfbfb"/></svg>