<svg xmlns="http://www.w3.org/2000/svg" viewBox="0 0 1280 960"><path d="M220.8 224.4h-54.7v-10.9h16v-26.1h13.7v8h21.5v10.2h-21.5v7.9h25.1v10.9zm-63.9-24.2h-54.7v11.4h54.7zm877.2 15.9c.5 3.3 1.4 6.3 2.6 8.9h14.2c-2-3-3.4-6-4.1-8.9zm-16.1-8.2h-20.6v7.1h20.6v2.7h-4.1c1.1 2.2 1.7 4.8 2.1 7.8h10.1c1.2 0 2.2-.4 2.9-1.1s1-1.8 1-3.2V215h19.5v-7.1H1030v-1.4h20.9v-6.8h-10.3l.9-2.6h-12.7l-1.2 2.6h-8.3l-1.2-2.6h-12.7l.9 2.6H996v6.8h22zm30.4-18.4H1030V187h-13.2v2.5h-18.5v6.6h50.2v-6.6zm80.4 18.6v16.6h13v-24.6c.6-.8 1.1-1.7 1.6-2.6 1.4-2.9 2.1-6 2.1-9.2l-14-.8c-.1 2.1-.4 3.8-1 5s-1.5 2.1-2.9 2.7-3.3 1-5.8 1.2c1.9 3.7 3.1 7.7 3.4 12.2 1.2-.1 2.4-.2 3.6-.5m15.4-10.6v10.9h10.3v17h13.7v-17h11.2v-10.9h-11.2v-10.1h-13.7v10.1zm-795.7 16.3h-15v-3l9.6 1.2 5.3-19.4-10.5-1.9-4.4 16.9v-19.1h-10.9v25.4h-2.7v-25.4H309v19.8l-4.4-17.6-10.6 1.9 4.8 19.4 10.2-1.3v3.2h-15v9.8h54.7v-9.9zm24.7-.7H362c-1.2 3.8-3.1 7.7-5.7 11.6h13.4c1.7-3.7 2.9-7.5 3.5-11.6m452.3 1.8h-7.7c1.2 3.1 1.9 6.5 2.2 10.1h13.9c3.5 0 5.2-1.8 5.2-5.5v-7.1h20.1v-10.6h-20.1v-2.7H856v-10.3h-48.3v10.3h17.8v2.7h-21v10.6h21zm-418.2-1.8h-11c.6 3.7 1.9 7.6 3.9 11.6h13.4c-2.8-3.8-4.9-7.6-6.3-11.6m-42.8-10.8H361v8.4h20v5.2h-6c.7 2.7 1.1 5.6 1.3 8.8H387c1.9 0 3.3-.5 4.3-1.5.9-1 1.4-2.5 1.4-4.6v-7.9h16.2v-8.4h-16.2V200H381v2.3h-4.9c1-1.2 2-2.5 2.8-3.7h32.2v-8h-27.7c.4-.8.7-1.6 1.1-2.4l-11.9-1.7c-.6 1.5-1.1 2.8-1.7 4.1h-12.3v8h8.2c-.6 1.2-1.4 2.5-2.3 3.7m141.7 15.2h-18.7V192h18.7v-4.7H519v4.7h18.7v21.6c0 1.2-.3 2.2-1 2.9s-1.6 1-2.9 1H519v7.9h-12.8zm12.8-17v8h7v-8zm-12.8 8v-8h-7.4v8zm197.6-14.7-9.5-7.9q-3.6 4.65-8.4 8.4c-3.2 2.5-6.6 4.7-10.4 6.5 2.7 3.3 4.6 6.4 5.7 9.5 8.4-4 15.9-9.5 22.6-16.5m-36.1 20.8h-21v-2.8h18.7v-8.9h-18.7v-2.4h19.6v-9.8h-18.7v-3.2H633v3.2h-18.7v9.8h19.6v2.4h-18.7v8.9h18.7v2.8h-21v10.3h54.7v-10.3zm14.7 0h-4.9V225c7.6 0 15.7-.3 24.2-1 5.4-.4 10.5-1 15.3-1.6.1 1.1.2 2.3.3 3.4l13.5-1.2c-.9-6.5-2.3-12.4-4.4-17.8l-11.9 2.4c.4 1.4.8 2.8 1.1 4.3-5.2.7-10.3 1.2-15.3 1.6 2.4-1.2 4.7-2.6 7-4.1 5.2-3.4 10.2-7.4 14.9-12l-10.2-8.5c-4.4 5-9.1 9.6-14.2 13.7-4.5 3.8-9.7 7.2-15.4 10.4m240.2 9.7h-53.8v-10.4h11l.5-3.7h-7.7v-9.1h8.9l.4-2.8h-10.7v-9.4h49.2v9.4h-24.8l-.4 2.8h22.7v12.8h4.8v10.4zm-29.2-10.4h10.7v-3.7h-10.2zm50-12.4-.7-3.6h-9.6v-8h19.4V187h14.1v2.9H986v8h-9.5l-.5 3.6h8.7v7.8h-36.2v2.1c0 4-1.1 7.1-3.2 9.4s-5.5 4-10.1 5c-1-3.5-2.6-7.1-4.7-10.6 1.5-.4 2.6-.8 3.4-1.4.8-.5 1.4-1.2 1.7-2.1s.5-1.9.5-3.2v-7zm12.1 0h8.7l.8-3.6h-10.4zm-397.6 9.7c-2.8 1.1-6.5 1.8-11.2 1.9 2.2 4 3.8 7.9 4.8 11.8 8.8-1.4 15.4-4.3 19.7-8.9 2.3-2.4 3.9-5.2 5-8.3l.5 5.6h11.5l-1-8.8H577c.1-.7.3-1.4.3-2.1h13.2v13.4h-13.9c1.2 2.9 2 5.7 2.5 8.7H592q5.4 0 8.1-2.4c1.8-1.6 2.7-3.9 2.7-6.8v-21.7h-23.4V188H567v5.6h-3.2l-.7-6-11 1.1.8 4.9h-4.1v8.9h16.5c-.3 1.4-.8 2.7-1.4 3.8-1.2 2.1-3.2 3.7-6 4.9m515.2 11.6c3.1-.6 5.9-1.8 8.4-3.4 2-1.3 3.9-3.2 5.7-5.5 1.8 2.3 3.7 4.2 5.7 5.5 2.5 1.7 5.2 2.8 8.4 3.4q4.65.9 11.7.9c.3-4 1-8.1 2.2-12.1-7.2.4-12.4-.5-15.7-2.7s-4.9-5.6-4.9-10.4v-9.7H1080v9.7c0 4.8-1.6 8.3-4.9 10.4-3.3 2.2-8.5 3.1-15.7 2.7 1.2 4 1.9 8 2.2 12.1 4.5 0 8.4-.3 11.5-.9m-637.7-17.5c2.5-1.1 4.6-2.4 6.5-4v24h13.7v-24c1.9 1.6 4.1 2.9 6.5 4q4.65 2.1 12 3.3c.8-4 1.9-7.9 3.6-11.6q-10.05-.6-15-3c-3.3-1.6-5.5-3.5-6.7-5.9h-14.3c-1.2 2.4-3.5 4.4-6.7 5.9-3.3 1.6-8.3 2.5-15 3 1.6 3.7 2.8 7.6 3.6 11.6 4.7-.8 8.7-1.9 11.8-3.3m576.7 10.8h-12.3c-.8 3-2.3 6-4.5 8.9h14.1c1.4-2.7 2.3-5.7 2.7-8.9M753.2 212q-7.8-7.95-9.6-19.8l13.2-2.6c1.2 5 2.9 9.1 5.3 12.3.3.4.5.7.8 1l-2.3-14.1 13.5-1.4 1.6 11.5c1.3-2.9 2.3-6.3 2.9-10.2l13.7 2.2c-1.5 8.3-4.8 15.1-9.8 20.6 3.8.5 8.2.8 13.2.8-1.6 4.4-2.6 8.7-3.2 13-9.7-.2-17.9-1.5-24.6-4-6.5 2.4-14.5 3.8-24 4-.6-4.1-1.6-8.4-3-13 4.5.1 8.7.1 12.3-.3m19.8-8.5-8.3 1.1c1.2 1 2.5 1.9 4.1 2.8q2.4-1.8 4.2-3.9m-505.6-1.1 18.8 5.6-4.3 11.1-17.8-5.8v12.1h-13.7v-10.9c-.8.3-1.6.7-2.5.9-4.3 1.4-9.8 2.3-16.4 2.8-.2-4.6-1-8.9-2.2-12.9 4.6.3 8.4.1 11.5-.3 3.1-.5 5.6-1.3 7.6-2.5 1.5-1 2.8-2.2 3.8-3.6h-19.4v-10.8h48.9v10.8h-15.9c-.5 1.2-1.1 2.3-1.7 3.4v8.4zm-1.2-4.3s-.1 0 0 0M169.3 263v16.5h12.3V255c.6-.9 1.1-1.7 1.5-2.7 1.2-2.9 1.9-6 1.9-9.2l-13.3-.8c-.1 2.1-.4 3.8-.9 5s-1.3 2.1-2.5 2.7q-1.8.9-5.1 1.2c1.9 3.7 3.1 7.7 3.4 12.2.9-.1 1.8-.3 2.7-.4m427.8 6.9h-14.7c.5 3.5 1.3 6.7 2.6 9.7h15.1c-1.4-2.9-2.4-6.2-3-9.7m319-4.1c2.5.4 5.5.5 8.9.5q-2.55 6.15-3.6 12.3c-5.3 0-9.7-.7-13.2-2s-6.4-3.4-8.5-6.4c-.1-.1-.1-.2-.2-.3-.5 2.8-.8 5.5-1 8.1-5.9.6-12.1.9-18.7.9v-7.4c-2.6.8-5.5 1.5-8.6 2-1-3.7-2.6-7.5-4.7-11.5 7.6-.3 13.2-1.7 16.8-4q2.85-1.8 4.2-4.2h-7v4.4h-11.3v-12.8h19.6v-3h13.7v3h19.6v11.3h-11.4v-2.8h-8c.5 2.6 1.3 4.7 2.4 6.4.3.4.6.8 1 1.1.3-.4.6-.9.9-1.4.5-1 .9-2.1 1.1-3.3l12.1 2.6c-1 2.6-2.5 4.7-4.1 6.5m-13.7-14.7c0-.1 0 0 0 0m-4.3 16.4c-.8-1.6-1.4-3.4-1.9-5.5-1.3 1.4-2.7 2.6-4.4 3.8v2zm-374.3-26-8.6 5.6c2.7 3.7 5.9 7.1 9.4 10 3.5 3 7.3 5.6 11.3 7.8 1.7-3.8 3.6-7.3 5.7-10.4-3.5-1.4-6.8-3.2-9.8-5.4s-5.7-4.7-8-7.6m254.1 27.1v2.9h.9c1.2 0 1.8-.6 1.9-1.8l.1-2.8h-34.2l1.4-11.1h-6.3v-13.3h52.5v13.3h-8.9v2.4h-26l-.2 1.5h33.6l-.7 14.5c-.2 3.9-2.5 5.8-7.1 5.8h-8.2c-.1-1.1-.3-2.2-.6-3.2H741v-8.2zm-25.1-19.2v1.1h7.6l-.2 1.1h23v-2.3h-30.4zm-182.3 20.5h-14.4c-.6 3.5-1.7 6.7-3.3 9.7h15c1.3-3.1 2.2-6.3 2.7-9.7m23.8-11.1h10.5v9.3h-56.5v-9.3h10.5v-3.7H551v-8.7h7.7v-4.1H571v4.1h10.9v-4.1h12.3v4.1h7.7v8.7h-7.7v3.7zm-23.3 0h10.9v-3.7H571zm-305.7-7.6v6.4h18.9v-14.8h-18.9v7h9.5v1.4zm-11.2 7v1.3h9.6v7.1h-9.6v1.1h10.2v3.3c1.4.1 2.6.1 3.8 0-1.1-1.9-1.8-3.9-2-5.8h-1.3v-6.6h19.9c0 5-.9 9.1-2.6 12.4q1.65.15 3.6 0c-.7 3-1.2 6-1.5 8.8-3.5 0-6.6-.7-9.2-2.1-2.6 1.2-5.8 1.9-9.6 2-.2-2-.6-4.1-1.1-6.3v2.2h-10.2v4h-9.4V250c-.3 1.1-.6 2.3-1 3.4-.4 1-.9 1.9-1.4 2.8v23.5H232v-16c-.8.2-1.7.3-2.6.4-.2-4.6-1.1-8.8-2.5-12.6 5.5-.4 8.3-3.6 8.5-9.4l9.2 2V243h19.7v12.4c0 2-1.2 3-3.5 3h-6.7zm19.8 7.1c.2 1 .6 1.8 1.1 2.6.5-.7.8-1.6.9-2.6zM254.1 250v1.6h2.3V250zm922.8 28.1c1-1 1.6-2.4 1.6-4.2v-10.8h-12.6v7.1h-7.9v-9.7h18.7v-16.8h-12.1v7.8h-6.6v-9.4h-13.7v9.4h-6.6v-7.8h-12.6v16.8h19.2v9.7h-7.5v-7.1h-13v16.5h48.8c1.8 0 3.2-.5 4.3-1.5m-348.8-1.6h-23.9v-7.8h23.9V267h-19.3v-6.8h3.7c1.1-.9 2.1-1.9 3.1-2.8h-6.9v-3.9h-3.1v-11h52.5v11h-4.7v3.9h-26.6c-1 1-2.1 1.9-3.2 2.8h4.5v-1.9h10.8v1.9h16v6.8h-16v1.7h20.5v7.8h-20.5v3.9h-10.8zm18.9-27.6h-12c-.6.8-1.3 1.5-2 2.3h14zm-30.3 0v2.3h5c.7-.8 1.3-1.5 1.9-2.3zm171.8 8.2c-1.6 3.9-2.6 7.8-3.2 11.6-7.3-1.5-13.6-2.9-18.7-4.2l.6 4.8h-15.8l-.5-4.4c-5.1 1.3-10.9 2.5-17.4 3.8-.4-3.6-1.4-7.4-3-11.2 5.9-.4 10.9-.8 15-1.3-1-.8-2-1.6-2.8-2.4 0 0-.1 0-.1.1-2.8 1.2-5.7 2-9 2.3-.3-3-1.1-6-2.2-8.9 2.5.1 4.4-.3 5.7-1.1s2.2-2.1 2.7-4h12.6c-.1.6-.2 1.2-.4 1.8h31.1q-1.5 6.6-7.8 11.1c-.5.4-1 .7-1.5 1 4.3.3 9.1.7 14.7 1m-28.6-4.1c1.5-.6 2.8-1.3 3.9-2h-8c1.1.7 2.4 1.3 3.8 1.9 0 0 .2.1.3.1m4.3 10.9c-.8-.2-1.5-.4-2.3-.6s-1.6-.5-2.4-.7c-.2.1-.3.1-.5.2-1.3.4-2.7.8-4.1 1.2h9.3zm-345.5 11.3H612v-7.9h6.4v-15.8h-3.6v-7.1h3.6v-2.6h12.3v2.6h19.2v-2.6h12.3v2.6h3.6v7.1h-3.6v15.8h6.4v7.9h-6.3c.6 1.8 1.5 3.4 2.6 4.9H650c-1-1.5-1.8-3.1-2.3-4.9h-14.8c-.5 1.7-1.3 3.4-2.4 4.9h-14.8c1.4-1.5 2.3-3.2 3-4.9m12-15.3h19.2v-1.6h-19.2zm0-8.4v1.6h19.2v-1.6zm0 15.7h19.2v-1.7h-19.2zm457.1-7.5v-1.4h-8.5v-3.1c-1.6.4-3.3.6-5 .6-.2-2.9-.6-5.7-1.4-8.3 2.7.2 4.8 0 6.1-.7s2.3-2 2.8-3.8h9.4c0 .5-.1 1-.1 1.5h17.7l-2.5 8.1h6.4v5.9h1.8v7.1h-1.8v6.2h-13.3v2.6c0 2.1-.5 3.7-1.4 4.7s-2.4 1.5-4.3 1.5h-10.9c-.2-2.6-.6-5.1-1.3-7.4h6.2v-1.5h-12.6V266h12.6v-1.4h-13.9v-5h14zm15.4 6.3v-1.4h-3.7v1.4zm-7.6-13.5.5-1.9h-8.3c-.7.7-1.5 1.3-2.3 1.9zm3.9 7.2h3.7v-1.4h-3.7zM406.8 268c2.4-.1 4.9-.3 7.4-.6-1.2 3.8-2 7.5-2.3 11.2h-20.5c-2.1 0-3.6-.4-4.6-1.3-.9-.8-1.4-2.2-1.4-4v-8.6h-2.1c-.6 3.5-1.7 6.1-3.1 8-1.6 2.1-4.1 3.7-7.5 4.6s-8.2 1.4-14.4 1.4c-.2-3.8-.7-7.4-1.7-10.9 5.5.2 9.4-.1 11.6-.9q2.4-.75 3-2.1h-13.6V255h54.7v9.8h-13.8v3.3c3.1 0 5.9 0 8.3-.1m-23.3-4.7s0 .1 0 0m669.2 4.5c-2 3.9-3.5 7.8-4.6 11.9-5.3-2-9.3-7-12.1-14.8v9.3c0 1.9-.5 3.4-1.4 4.3-.9 1-2.4 1.4-4.3 1.4h-9.9c-.1-2.9-.5-5.5-.9-8q-2.85 5.7-8.1 7.8c-.6-3.7-1.8-7.2-3.4-10.5-.5 3.8-1.3 7.5-2.3 11.2l-11.3-2.7c2.3-5.8 3.6-11.6 3.9-17.2l10.4.9c-.1 2.2-.2 4.3-.5 6.4 1.8-.8 3.2-1.9 4.2-3.6 1-1.6 1.5-3.7 1.7-6.3h-4.2v-10.5h13.6c0 9.3-1 16.6-2.9 21.8-.1.3-.2.5-.3.7h4.1v-28.1h11.6v7.8c.6 1.5 1.3 2.9 2 4.2 1.8-2.6 3.1-5.5 3.8-8.8l9.9 4.5c-2.3 5-5 9.1-8.3 12.2 2.9 3 5.9 5 9.3 6.1m20.3-6.4-10.4-.9c-.4 5.4-1.8 10.9-4.4 16.3l11.7 2.7c1.9-5.8 2.9-11.9 3.1-18.1m-734.5 11.3c5.6-.1 9.6-.2 12-.4-.7 2.7-1.2 5.4-1.4 8.1h-22.4q-6.3 0-10.8-3c-1.6 1.8-3.5 3.1-5.6 3.9-.4-1.6-1-3.2-1.6-4.7-.7-1.6-1.4-3-2.1-4.3 1.2-.4 2.4-.9 3.4-1.7-1.3-2.3-2.3-4.9-3.1-7.8l6.8-1.5c.2.8.4 1.5.6 2.3q.3-1.5.6-3.3h-5l1.1-5.7h-2.4v-5.3c-.3 1.2-.6 2.3-1 3.4-.4 1-.9 2-1.4 2.9v25.1H296v-17c-.8.2-1.7.3-2.6.4-.2-4.6-1.1-8.8-2.5-12.6 2.2-.2 3.9-.6 5.1-1.3s2-1.6 2.5-2.9c.5-1.2.8-3 .9-5.3l10 .8c0 .7-.1 1.4-.2 2.1h12.9l-2 8.8h1.9v-4.3h5v-.9h-3.4V244h3.4v-1.8h11.5v1.8h9.4v5.3h1.4v5.9H348v2.2c0 1.1-.3 1.9-.9 2.5s-1.4.9-2.6.9h-6v.9h9.9v4.3h-9.9v.9h10.7v4.6h-10.7zm1.9-17.4h-1.9v.9h1.9zm-1.9-5.9h1.9v-.9h-1.9zM327 272.7v-1.2h-4.8V267h4.8v-1h-4.1v-4.3h4.1v-.9h-3.4v-4.6h3.4v-.9h-4c-.6 6.2-1.7 11.4-3.3 15.5 2 1.2 4.5 1.9 7.3 1.9m32.9-20.2H410v-9.3h-50.1zm366.6 15.2h5.9v7.9h-6.2c.6 1.6 1.4 3.1 2.5 4.4h-14.9c-1-1.3-1.7-2.8-2.2-4.4h-15.1c-.5 1.6-1.3 3-2.3 4.4h-14.8c1.2-1.4 2.1-2.8 2.8-4.4h-6.5v-7.9h5.9v-25h44.7v25zm-12.3-12.6h-20.1v1.5h20.1zm-20.1 5.5v1.5h20.1v-1.5zm0-11.1v1.5h20.1v-1.5zm0 18.2h20.1v-1.5h-20.1zm247.7 12.2h35.5v-9.4h-35.5zm-498.9-8.7v-1.8h-20.4v-6.8h20.4v-1.8h-16.3v-4c-1.4.1-2.9.1-4.4.1-.2-3.3-.7-6.6-1.7-9.7 4.4.3 8 .2 10.7-.1s4.9-.9 6.5-1.7 2.9-2 4-3.4H456c1.1 1.4 2.4 2.5 4 3.3s3.7 1.4 6.4 1.7q4.05.45 10.8.3c-1 3.1-1.6 6.4-1.7 9.7-1.7 0-3.2 0-4.7-.1v4h-16.1v1.8h20.2v6.8h-20.2v1.8H476v8.2h-54.7v-8.2h21.6zm-2.4-16.8h16.7c-1-.3-1.9-.7-2.7-1.1-1.9-.9-3.7-2.2-5.6-3.7-1.9 1.5-3.8 2.8-5.6 3.7-1 .4-1.9.8-2.8 1.1m77.6 4.8-9-6.6c-2.1 3.5-4.6 6.7-7.3 9.6-2.3 2.5-4.9 4.7-7.6 6.7h-5v10.9c6.1 0 12.7-.3 19.6-.9 5-.4 9.6-1 14-1.7.3 1.3.6 2.5.7 3.8l11.6-2.5c-1.9-6.6-4.8-12.4-8.9-17.6l-9.5 3.4c1 1.4 1.8 2.8 2.6 4.3-4 .6-7.9 1-11.8 1.3 3.7-2.8 7.3-6.3 10.6-10.7m480-1.5 10.4-1-1.9-12.8-10.5 1.3zm-497.5-.6c3.5-3 6.7-6.3 9.4-10l-8.6-5.6c-2.3 2.9-4.9 5.4-8 7.6-3 2.2-6.3 4-9.8 5.4 2.1 3.1 4 6.6 5.7 10.4 4-2.2 7.8-4.8 11.3-7.8m561.3.6 10.4-1-1.9-12.8-10.5 1.3zm-959 0c-.2-3.6-.7-7.2-1.7-10.6 4.4.3 8 .2 10.7-.1 2.8-.3 4.9-.9 6.5-1.7s2.9-2 4-3.4h14.3c1.1 1.4 2.4 2.5 4 3.3s3.7 1.4 6.5 1.7q4.05.45 10.8.3c-1 3.4-1.6 7-1.7 10.6-5-.2-9.2-.6-12.4-1.2-2.4-.5-4.5-1.1-6.5-1.9v4H153v8.2h-15.7v3.7h19.2v9.1h-53.8v-9.1h3.6V259h13.2v11.4h4.1v-16.8c-2.4 1.2-5.1 2.1-8.3 2.8s-7.4 1.1-12.4 1.3m31-4.9c-1.4-.9-2.9-1.9-4.3-3.1-1.4 1.2-2.9 2.3-4.3 3.1zm72.3-9.8-13.7-.4q-.15 3.3-.9 5.1c-.5 1.3-1.4 2.2-2.6 2.9q-1.8 1.05-5.1 1.2c.9 3 1.4 6.3 1.6 9.8 2.4-.2 4.5-.6 6.4-1.1v18.9h12.5v-3.9h16.9V267h-16.9v-2.2h16.9v-7.7h-16.9v-2.3h17.5v-9.1H206c.2-.9.2-1.8.2-2.7M473 331.9h-19.4v-31.5h23.5v27c0 3.1-1.4 4.5-4.1 4.5m-6.7-22.9h-3v12.2h3zm567.8 6.5v9.5h4.8v-19.8h-40.8v-7.3h52.1v31.4c0 1.7-.5 3-1.4 3.9-1 .9-2.3 1.4-4.1 1.4h-8.9c-.3-3.3-.9-6-1.7-8.2v2.1c0 1.2-.3 2.2-1 2.9s-1.7 1-3 1h-31v-16.8h35zm-10 6.5h-14.8v3.1h14.8zm-347.3-8.6V324h20.5v10.6H711V324h20.5v-10.5H711V309c6.5-.2 12.5-.5 18.1-.9l-1-10.4c-15.6 1.6-31.6 2-47.9 1.3.3 4 .4 7.4.3 10.1 5.7.1 11.3.2 16.9.1v4.3h-20.6zm-90.4 8.9v-3.1c.9-.3 1.8-.5 2.7-.8 5.7-2 10.9-4.9 15.4-8.6l-7.3-10.8c-3.1 3.3-6.7 5.9-10.8 7.7v-9.3h-12.8v12.4c-1.6.1-3.3.2-5.1.1 1.2 3.5 1.8 7.5 1.9 11.9 1.1 0 2.1-.1 3.2-.2v4.6c0 2.5.6 4.3 1.8 5.5s3.1 1.7 5.6 1.7h21.7c.3-4.2 1-8.2 2.3-12.2-6.6.9-12.8 1.3-18.6 1.1m409.9-8.6h40.8V307h-40.8zm-793.5 21.2h10.4c4.9 0 7.3-2.4 7.3-7.2v-31h-9.8v29.4h-9.1c.7 2.9 1 5.9 1.2 8.8m347.3-16.8c1.6-.1 3.1-.4 4.5-.7v16.8h13v-24.8l1.5-2.4c1.4-2.9 2.1-6 2.1-9.2l-14-.8c-.1 2.1-.4 3.8-1 5s-1.5 2.1-2.9 2.7-3.3 1-5.8 1.2c1.5 3.7 2.3 7.8 2.6 12.2m-405-19.2h-8.7v24.7h8.7zm339.7 16.4c0-4.1-.5-8.4-1.5-12.7q3.9.15 5.7-1.5c1.8-1.65 2-2.8 2.3-5.1l16.3.9c-.1.6-.2 1.3-.4 1.9h31v15.6c0 2.5-.8 4.4-2.5 5.8-1.6 1.4-3.9 2.1-6.7 2.1h-5c-.2-2.6-.8-5.5-1.8-8.5v3.6c0 2.9-1.5 4.4-4.4 4.4H502v2.8c17.5.6 30.7-.5 39.6-3.5-1.1 4.8-1.7 9.1-1.9 13H498c-3.4 0-5.8-.7-7.4-2.1-1.5-1.4-2.3-3.7-2.3-6.8V315c-1.1.2-2.3.3-3.5.3m25.5-1.2H502v1.8h8.4v-1.8zm-6.5-8.1c-.1.1-.1.1-.1.2-.5.6-1 1.3-1.6 1.8h20.1v4.2h1c.6 0 1-.1 1.3-.3s.4-.6.4-1.1V306zM177 325.8v-2h-10.7v-7.2H177v-2c-3.3.2-6.9.2-10.7.2v-7.6h4.2l1.1-2.2h-6v-7.8h33v7.8h-3.3c1.4 2.9 2.4 6.2 3 10l-8.4.6c0-.7-.1-1.4-.2-2.1-.8.1-1.6.2-2.5.3v2.7h9.9v7.2h-9.9v2h12.2c-.5 3.1-.8 5.6-.8 7.7-11.1.6-22.3 1-33.7 1v-8.6zm3.4-18.4h8c-.2-.8-.5-1.5-.8-2.2h-6zM102 322.1q2.1 6.3 3 12.3c4.8-.5 8.9-1.3 12.5-2.6 2.7 2.1 6.2 3.1 10.3 3.1h5.1c.2-3.8.9-7.5 1.8-11.2q-2.55.9-5.7.9 3.9-4.2 6-10.2l-9.8-3.1c-.6 2.1-1.7 3.8-3.2 5.3l-.8-6h13.4v-9.1h-3l-.3-3.9h-8.8l.4 3.9H120l-.6-4.8h-11.3l.7 4.8h-6.4v9.1h7.6l1.3 9.3c.1.5.1 1 .2 1.4-2.8.7-5.9.9-9.5.8m1025 12.8c-1.2-4-3.1-8-5.6-12.1 1.6-.5 2.7-1.4 3.3-2.6.7-1.2 1-2.8 1-4.9v-18h51.9v29.9c0 2.3-.7 4.1-2 5.3s-3.3 1.8-5.9 1.8h-4.8c-.3-3.7-.9-7-1.9-10v7.8h-25v-13.9h25v4h.8c.5 0 .9-.1 1.2-.4s.4-.7.4-1.3v-3.7H1137c-.1 3-.4 5.6-1 7.6-.7 2.4-1.7 4.3-3.2 6-1.3 1.8-3.3 3.2-5.8 4.5m27.6-11.1h-7.2v1.6h7.2zm11.1-19.8h-9.2v1.4h7.4v4.8h-7.4v1.4h9.2zm-28.6 0v7.5h9.4v-1.4h-7.8v-4.8h7.8V304zm-936.9 19.6h8.7v-24.7h-8.7zm546.4-10.2v7h12v-14.2l.9-1.2c1.5-2.4 2.4-5 2.8-7.6l-13.5-.8c-.2 1.6-.7 2.8-1.4 3.7s-1.6 1.6-2.9 2.1c-1.2.5-2.9.7-5 .8 1 3.4 1.6 7.1 1.6 10.9 2-.1 3.8-.4 5.5-.7m-589.9-16.7h-9.8v29.4h-9.1c.6 2.9.9 5.9 1.1 8.8h10.4c4.9 0 7.3-2.4 7.3-7.2v-31zm677.4 11.9v3.9h22.8v18.4c0 1.2-.3 2.2-1 2.9s-1.7 1-3 1h-46.1v-22.3h13.7v-15.7h13.7v2.9h24.3v8.9zm10.3 12.4h-25.1v4.3h25.1zM293 304.5c.5 2.9.9 5.8 1 8.7 6.5-.4 11.7-1.2 15.5-2.4.1 0 .2-.1.3-.1s.2.1.3.1c3.8 1.1 9 1.9 15.4 2.4.2-2.9.5-5.8 1-8.7-2.4.1-4.5 0-6.4-.1q1.95-2.25 3.6-5.4l-10.7-2.4c-1 1.9-2.1 3.4-3.2 4.5-.1.1-.2.1-.3.2-.1-.1-.2-.1-.3-.2-1.1-1.1-2.2-2.6-3.2-4.5l-10.7 2.8c1.1 1.9 2.3 3.5 3.5 5-1.4.2-3.5.2-5.8.1m34.9 19.1h8.7v-24.7h-8.7zm2.1 11.3h10.9c4.9 0 7.3-2.4 7.3-7.2v-31h-9.8v29.4h-9.5c.6 2.9.9 5.9 1.1 8.8m-63.2 0h10.7c4.6 0 6.8-2.4 6.8-7.2v-31h-9.8v29.4h-8.8c.6 2.9 1 5.9 1.1 8.8m-38-27.8h1.4c-.4-2.3-1-4.6-1.9-6.9 1.6-.6 2.5-1.8 2.7-3.5h9.7c-.1.8-.2 1.5-.3 2.2h2.3v-2.2h9v2.2h11.4v6.8h-11.4v1.4h11.9v7.9h-11.9v1.4h11.9v12.5c0 1.4-.4 2.4-1.1 3.2-.7.7-1.8 1.1-3.2 1.1h-5.7c-.1-2.9-.4-5.5-1-8h1.6v-1.8h-2.5V335h-10.4v-11.6h-2.1v10h-9.9v-17.1h12V315h-12.5zm6.8 0h5.8v-1.4h-4.3c-.5.6-1 1-1.5 1.4m29.4 16.5h7.8v-24.7H265zm50.8 11.4v-12.6h10.6v-7.7h-10.6v-2.2h-10.6v2.2h-11.8v7.7h11.8V335zm794.1-27.2h5.6c-1.1 6.1-2.6 11.1-4.7 14.9-.1.2-.2.3-.3.5 1.6.2 3.2.3 4.9.2-.7 3.8-1.1 7.6-1.4 11.6-4.7-.1-8.7-1.1-12-2.9-3.3 1.9-7.4 3.1-12.3 3.5-.4-2.1-.9-4.3-1.7-6.4-1.7 2.3-3.9 4-6.5 4.9q-1.05-4.2-2.7-8.4v1.8c0 2.6-1.5 3.9-4.4 3.9h-15.7V299h20.1v22c1-.5 1.9-1 2.6-1.6 1-.9 1.8-2 2.2-3.3s.7-3 .7-5.1v-4h-3.2v-9.7h32.5zm-40 .9h-2.1v11.9h2.1zm31.7 10.9c.9-1.5 1.5-3.4 2-5.7h-4.8l2.2-6.9h-6.1c.5 3.1 1.4 5.8 2.8 8.1.9 1.9 2.3 3.3 3.9 4.5q-.15 0 0 0m-9.7.7q-.6 2.55-1.5 4.8c1.4-.1 2.6-.2 3.7-.5-.8-1.2-1.4-2.4-2-3.8 0-.2-.1-.4-.2-.5m-668.1 14.1c-1-3.5-2.6-6.9-4.8-10.4 1.8-.8 3.2-1.5 4.2-2.2s1.6-1.5 2.1-2.5q.6-1.35.6-3.6v-5.3h-4.8v-8.9h4.8v-4h11.5v4h13.7v23.2c0 2.9-.8 5.2-2.4 6.8s-4 2.4-7.1 2.4h-4.2c-.4-3-1-6.1-2-9-.4.9-.8 1.7-1.3 2.4-2.2 3.3-5.6 5.7-10.3 7.1m13.6-24.1v3.6c0 3.6-.5 6.8-1.4 9.5h1.6q1.2 0 1.8-.9c.4-.6.7-1.7.7-3.3v-8.9zm196.1-13v10.1H613v11.4h20.5v15.6h13.7v-15.6h20.5v-11.4h-20.5v-10.1zm301.6 36.5c4.9-1.2 8.5-3.3 10.8-6.2s3.4-6.8 3.4-11.8v-6.7h36.2v-10.5h-49.4v16.1c0 1.4-.2 2.5-.5 3.4s-.9 1.7-1.7 2.4-2 1.2-3.4 1.8c2 3.9 3.5 7.7 4.6 11.5m-555.5-8c3.5-3.3 5.5-7.6 6.1-12.7h10.5l-.3 5.7c-.1 1.6-.5 2.7-1.1 3.3-.7.6-1.6.9-2.8.9h-6.7c1.2 3.6 2 7.2 2.5 10.9h11.8c6 0 9.2-3.1 9.5-9.3l1-22.3H386v-5h-13.4v5h-14.4V313h14.2c-.2 1.5-.7 2.8-1.4 3.9-1.1 1.7-2.9 3-5.5 3.9s-6 1.5-10.3 1.6c2.2 4 3.8 7.9 4.8 11.8 8.8-1.5 15.4-4.3 19.6-8.4m-77.3 8.8c.6-2.8.9-6.2 1-10.4h-8.8c0 3.2-.5 6.6-1.6 10.4zm15.4-10.3c.1 3.9.3 7.3.8 10.4h8.8c-.5-3.5-.9-6.9-.9-10.4zm586.6-25.6h-9.1l-.3-2.8c-8 1.9-17.1 2.9-27.5 2.9v32.7c9.5 0 18.1-.5 25.9-1.4l-.7-10.5q-5.7 1.2-13.5 1.2v-3h14v-8.9h-14v-2c5.7-.2 10.9-.7 15.6-1.6v29.9h12.4V309h5.7v11.3h-4.3c1.1 3.6 1.7 7.2 1.9 10.8h9.3c1.4 0 2.4-.4 3.1-1.1.7-.8 1.1-1.9 1.1-3.3v-28zm-109.2 20.7c.2-3.3.6-6.4 1.4-9.5-3.2.5-6.3.8-9.4 1s-6.2.3-9.2.2v-1.4c2.2-.2 4.2-.5 6.2-.9 3.8-.7 7.4-1.6 10.9-2.9l-4-9.2c-3.8 2-8.2 3.5-13.1 4.4V297h-12.3v5.5c-1.3 0-2.7.1-4.1 0 .7 2.9 1 6.3 1.1 10.1 1 0 2-.1 3-.1v1.3c0 1.9.5 3.4 1.7 4.3.6.5 1.5.8 2.5 1.1h-8.6v2.8h-20.5v8.8h20.5v4.7h13.7v-4.7h20.5V322h-20.5v-2.6zm41.6 50.7v-3.9h9.2v-3.8h-1.3l.4-2.5h-6.7l-.5 2.5h-1.2v-2.5H827v2.5h-1.2l-.5-2.5h-6.7l.4 2.5h-1.3v3.8h9.2v3.9zm-444.6-3.2c2.3.3 5.1.6 8.3.7-.6 2.6-1 4.9-1.2 7-3.4-.5-6.4-1.1-9.1-1.9l.3 2.8h-11l-.3-2.8c-2.8.8-5.8 1.4-8.9 1.8-.2-2.3-.5-4.6-1.1-6.8 3.4-.2 6.2-.5 8.7-.8-.7-.5-1.2-1-1.7-1.6-.2.1-.3.2-.5.2-1.6.8-3.5 1.1-5.5 1.1-.1-1.8-.3-3.5-.7-5.2 1.3 0 2.3-.2 2.9-.7s1.1-1.3 1.3-2.4h7.7c0 .3-.1.5-.2.7h16.8c-.5 2.5-2.1 4.8-4.7 7-.3.4-.7.6-1.1.9m-4.4-3.1H382q1.2.9 3 1.5 1.65-.6 2.7-1.5m-3 7.1c-.4.2-.9.4-1.3.5-.4.2-.9.3-1.4.5h5.4c-1-.3-1.9-.7-2.7-1m411.2-8.3c-1.2 3.1-1.9 6.2-2.2 9.3-3.7 0-7-.3-9.8-1v2.9h-10.4v2.9h-11.2v-2.9H752v-2.9c-2.8.7-6.1 1-9.8 1-.3-3.1-1-6.2-2.2-9.3 5.2.1 9.1 0 11.5-.3s4.4-.9 5.7-1.8H742v-6.8h19.2v-2.4h13.7v2.4H794v6.8h-15.3c1.3.9 3.2 1.4 5.6 1.7s6.3.4 11.6.4m-27.9-1c-.9.9-1.9 1.7-2.8 2.5h5.6c-.9-.8-1.9-1.6-2.8-2.5m-5.6 6.4v-1.8l-.9.6c-.6.4-1.2.8-1.8 1.1h2.7zm11.2 0h2.7c-.6-.3-1.2-.7-1.8-1.1l-.9-.6zm-623.7 21.1H105v-15.7h49.2v11.4c0 1.4-.4 2.5-1.1 3.2-.8.7-1.8 1.1-3.2 1.1m-8.9-9.5h-23.3v2.1H141zm216.6-28h54.7v34c0 1.2-.3 2.2-1 2.9s-1.6 1-2.9 1h-50.8zm10.8 30.9H401v-24.7h-32.7v24.7zm-264.3-14.8c.6 1.4 1 2.9 1.1 4.6h15c1.2 0 2.2-.3 2.9-1s1-1.6 1-2.9v-2.7c1.7-.2 3.3-.3 5-.5v-4.6h-5v-1.1h5v-5.8h-5v-2.3h-11.9v2.3h-9.1v5.8h9.1v1.1h-9.1v6c3.1 0 6.1-.1 9.1-.2v1.3zm753.3 3.8v-17.8h-27.5c.3-.7.6-1.6.8-2.5h-12.4c-.1.8-.3 1.6-.6 2.5h-11.3v17.8H817v-12.4h29.8v12.4zm266.1 11q.15 0 0 0 .15 0 0 0m-946.4 3.7H165v-32.4h16v28.9c0 2.4-1.3 3.5-3.9 3.5m-2.8-22.8h-1.1v11.9h1.1zm328.1 5.7v-10.5h-2.6V352h-10.5v6.6h-4.5v10.5h4.5v8l-4.5.2V388c3.4 0 6.6-.1 9.5-.4s6-.7 9.2-1.3c.2-3.5.5-6.8 1-9.9l-4.7.2v-7.5zM156 360.3h-15.6v-1.4c2 0 3.8-.1 5.5-.2 3.6-.2 6.6-.4 9.1-.8l-1.4-6.8c-6.8 1.2-14.5 1.6-22.8 1.4v10.9c0 2.2-1.9 3.2-5.7 3.1 1 2.1 1.7 4.2 2 6.4 8.4 0 12.9-2.1 13.4-6.2h2v5.7h10.9v-5.7h2.7v-6.4zm564.7 15.9c-2.9-.4-5.2-.9-6.7-1.6-.6-.3-1.2-.6-1.7-.9h19.3v-9h-21v-2.4h18.3v-8.7h-49.7v8.7h18.7v2.4h-21v9h19.3c-.5.4-1.1.8-1.8 1.1-1.6.7-3.8 1.3-6.8 1.7s-6.9.6-11.8.5c1 3.6 1.6 7.3 1.7 11.1 5 0 9.2-.3 12.5-.9s6.1-1.6 8.6-3.1c1.9-1.1 3.7-2.5 5.6-4.3 1.9 1.7 3.7 3.2 5.6 4.3 2.4 1.4 5.3 2.4 8.6 3.1 3.3.6 7.4.9 12.5.9.2-3.8.7-7.5 1.7-11.1-5-.1-9-.4-11.9-.8m-510.4 2.3h-10.4v-14.6h10.4zm-4.6-8.9h-1.1v2.6h1.1zm235.1 10.3v9.1h34.7v-9.1h-10.7v-3.2h8.9v-8h-8.9v-3.5H452v3.5h-9.3v8h9.3v3.2zm-218.7-17.6h-1v20.9c0 2-.6 3.5-1.8 4.6s-2.8 1.7-4.8 1.7h-6.7c-.3-3.6-.9-6.8-1.9-9.6h5.8v-17.6h-11.8v-9.6l-2.5 15.5c.5 1.3.9 2.7 1.1 4 .5 2.4.8 4.9.8 7.6s-.6 4.6-1.7 5.9c-1.1 1.2-3.1 1.8-5.8 1.8-.2-3.2-.6-6.1-1.2-8.9v11.7H182v-38.7h18l-.1.7h22.2zm-29.8 12c0-1.7-.4-3.6-1.1-5.6l.8-8.1h-1.4v15.7c.5-.1.9-.3 1.1-.6.4-.3.6-.8.6-1.4m101.4-22.2h54.7v33.1c0 1.2-.3 2.2-1 2.9s-1.6 1-2.9 1h-50.8zm10.8 28.4h32.7v-20.8h-32.7zm514.8 8.9c3.3-.5 6.1-1.4 8.4-2.6 1.5-.8 2.9-2 4.2-3.3 1.3 1.4 2.6 2.5 4.2 3.3 2.3 1.2 5.1 2.1 8.4 2.6s7.7.7 13.2.7c.3-3 1-5.9 2.2-8.9-5.2.2-9.4.2-12.8-.1q-4.2-.45-6.6-1.5h18.4v-7.2h-20.1v-.9h7.1c-.6-1.5-1.1-3-1.3-4.7h-7c0 1.4.2 2.6.5 3.9h-12.3c.3-1.2.5-2.5.5-3.9h-7c-.2 1.6-.7 3.2-1.3 4.7h7.1v.9H805v7.2h18.4c-3.7 1.6-10.2 2.2-19.5 1.6 1.2 2.9 1.9 5.9 2.2 8.9 5.4 0 9.8-.3 13.2-.7m-485.8-15.5h2.8v5.4h-30.8v-5.4h8.3v-2.1h-7.7v-4.6h7.7v-1.9h-8.1v-4.6h30.4v4.6h-10.4v1.9h9.9v4.6h-2.1zm-7.8 0h2.1v-2.1h-2.1zm94.1-6.2c.9 3.5 1.4 7.1 1.4 10.9 1.7-.1 3.2-.4 4.8-.7V389h12.6v-17.7c2.1-1.8 4-3.9 5.6-6.3.3-.4.5-.9.8-1.3h30v-8.9h-26.2l.6-2.4-13.3-1.7c-.3 1.5-.7 2.9-1.1 4.1h-12.4v8.9h8.3c-.8.9-1.7 1.6-2.7 2.2q-3.15 1.8-8.4 1.8m-46.4 13.8h23.2v-5h-23.2zm686.4-11.7v7.3h24.6c-.5.3-1 .6-1.6.9-2.1.9-4.9 1.5-8.5 1.8s-8.3.4-14.1.2q2.1 4.5 2.7 9.3c10.3 0 18.2-1.2 23.8-3.6q2.7-1.2 4.8-2.7c2.6 1.6 5.5 3 8.5 4 3.7 1.2 7.7 2 11.9 2.2q.75-4.8 2.7-9.3c-6.4 0-12-1-16.9-2.9h16.7v-7.3h-15.3c.1-.7.3-1.4.4-2.1.3-2 .4-4.1.4-6.4h-11.3q0 3.45-.3 6.3l-.3 2.1h-12.4l-.4-5.1h-4.2V360h32v5.8h10.5v-12.4h-19.4v-2.5H1080v2.5h-19.4v12.4h4.9l.4 3.8h-6.1zm17.6-1.2h9.1l-.1-6.6h-9.3zm-473.6 4.6h-12.3v4.7h12.3zm.5-.7h-55.6v-4.6h21.4v-.7h-19.6v-3.9h19.6v-.7h-20.5v-10.9h53.8v10.9h-20.5v.7h19.6v3.9h-19.6v.7h21.4zm-11.8-15.9h-11v2.7h2.1l.3-1.8h6.8l-.3 1.8h2.2v-2.7zm-32.1 2.7h2.2l-.3-1.8h6.8l.3 1.8h2.1v-2.7h-11v2.7zm1 13.9h-12.3v4.7h12.3zm370.8 7.2h23.7v1.4h-10.4c.7 1 1.2 2.1 1.7 3.3q.6 1.8.9 3.6h15.8c1.2 0 2.2-.3 2.9-1s1-1.6 1-2.9v-4.4H987v-7.8h-16.7l4.3-6.7h-29.2v5.3h14.3l-1 1.4h-26.4v7.8zm-43.6-29.2v2.9h-19.4v13.8h10.4v-6.7h32v6.7h10.5v-13.8h-19.4v-2.9zm123.8 13.9 1.9-3.6h-5.6v2.4h-10.9v-9.6h18.2v-3.2h14.6v3.2h18.7v9.6h-10.9v-2.4h-11.5l-2.1 3.6h26v7.8H1040c-.4 1.4-.8 2.7-1.4 3.9 4.5 1 8.8 2.2 12.8 3.6q-2.7 3.9-5.1 9c-5-2.1-9.9-4-14.6-5.6-2.4 1.2-5.3 2.2-8.9 2.9-5.7 1.2-13.6 1.7-23.7 1.7-.4-2.8-1.3-5.9-2.7-9.4 7.6.4 13.7.4 18.2 0-2.9-.6-5.8-1.2-8.7-1.6l2.4-4.6H996V365h16.4zm7.6 7.9-.7 1.2c2.6.2 5.1.4 7.6.7.5-.6 1-1.2 1.3-1.9zm-789.6-20.4h53.8v32.1c0 1.2-.3 2.2-1 2.9s-1.6 1-2.9 1h-49.9zm11.2 27.4h30.8v-19.9h-30.8zm307.5 3.8v5.5h54.7v-5.5h-21v-.7h19.6v-4.6h-19.6v-.7h5.9v-4.7h-10.9v3.1h-2.7v-3.1h-10.9v4.7h5.9v.7h-19.6v4.6h19.6v.7zm-305.4-21.6h26.7V378h-26.7zm9.1 8.9h8.5V369h-8.5zm377.2 3.2c-1.5 1.2-3.6 2.1-6.4 2.6s-6.5.6-11.2.3c1.2 3.7 1.9 7.4 2.2 11.2 5.4 0 9.7-.3 13-.9 3.2-.6 6-1.7 8.1-3.4 1.7-1.3 3.2-3 4.7-5.1 1.4 2.2 3 3.9 4.7 5.1 2.2 1.6 4.9 2.8 8.1 3.4s7.6.9 13 .9c.3-3.8 1-7.5 2.2-11.2-4.8.1-8.5-.1-11.3-.5-2.8-.5-4.9-1.3-6.3-2.5s-2.5-2.9-3.3-5h19.3v-10h-19.6v-7h-13.7v7h-19.6v10h19.4c-.8 2.1-1.9 3.9-3.3 5.1M516 378v-9l2.3-.2v7.5h9.9v-8.5l2.3-.2v.8c0 2.6-.3 4.8-.8 6.7h9.7c.3-1.2.6-2.5.7-3.8s.2-2.9.2-4.7v-9.4l-12.1.9v-6.2h-9.9v6.9l-2.3.2v-4.8h-9.9v5.6l-2.6.2v10.3l2.6-.2v9.9c0 3.1.8 5.4 2.3 6.8s4 2.1 7.4 2.1h24.3c.2-3.6.7-7.7 1.5-12.1-2.8.5-6.2.9-10.4 1-4.1.2-9.1.3-15.2.2m663.9 1.4c-1.5 3.3-2.5 6.4-3.1 9.6-4.6 0-8.2-1.1-10.7-3.4-2.1-1.9-3.5-4.5-4.3-8-.6.1-1.2.1-1.8.1.1 1.1.2 2.2.2 3.5 0 2.7-.7 4.7-2.2 6s-3.8 2-7.2 2h-7.1c-.2-1.5-.5-2.9-1.1-4.1-.6.3-1.2.5-1.9.8-4.5 1.7-9.6 2.8-15.4 3.2q-.3-2.85-1.8-6.6c6-.1 11.2-.7 15.5-1.7 3.8-.9 7.3-2.1 10.4-3.6 0-.4-.1-.8-.1-1.2q-4.5 2.25-9.6 3.6c-4 1.1-8.7 1.7-14 1.8-.1-1.8-.5-3.8-1-5.8 4.3 0 8-.2 11-.6s5.6-.9 7.6-1.5c1.6-.5 3.2-1.1 4.8-1.7-.1-.3-.2-.5-.4-.7-2 .8-4.4 1.5-7.1 2-3.8.8-8.5 1.2-14.1 1.3-.1-1.7-.4-3.8-.9-6.1 4.6.3 8.3.4 11.2.3s5.2-.5 6.8-1c.1 0 .1 0 .2-.1h-11.2v-3.1h-8.2v-10.5h19.2v-2.7h14.6v2.7h19.2v10.5h-8.2v3.1H1155c.8.6 1.5 1.2 2.1 2 .3.4.6.8.8 1.2 5.9-.7 10.5-2 14-4.1l3.1 7.7c-1.5.6-3.1 1.2-4.6 1.6.3.4.6.8.9 1.1.9.9 2 1.5 3.4 1.9 1.3.4 3.1.5 5.2.5m-44.8-19.6v1.7h31.9v-1.7zm14.5 24v-2.4c-1.3.9-2.7 1.6-4.1 2.4zm-401.7-9.3v3.1h-6.8v6.9h6.5c-.1.4-.1.7-.2 1.1-.3 1.5-.9 3-1.6 4.4h13.9c.6-1.5.9-3.4 1.2-5.5h14v5.5h13.2v-5.5h6.8v-6.9h-6.8v-3.1h-13.2v3.1h-13.8v-3.1zm185.2-16.1v12.4h10.4v-6.2h32v6.2H986v-12.4h-6.5l2.7-4.1-10-3.1-4.1 7.2h-17.2l-4.4-6.7-10.4 3.1 2.9 3.6zm19.8-6.9v6h13.2v-6zm-71.3 29.4c.7 1.2 1.2 2.5 1.7 3.9.4 1.4.7 2.9.9 4.4H900c1.2 0 2.2-.4 2.9-1.1s1-1.8 1-3.2v-6H923v-8.2h-17.6l5.2-8.1h-29.2v6.7h13.7l-1 1.4h-25.8v8.2H892v2.1h-10.4zm-665.3 52c-1.3-3.2-2.1-6.3-2.6-9.3h-12.1c.8 6.7 2.5 12.8 5 18.6h14.5c-1.9-3.1-3.5-6.1-4.8-9.3m-50.7 9.2h13.9c1-2 1.9-4 2.6-6 1 2.1 1.6 4.5 2 7.1h10.5c1.6 0 2.7-.4 3.6-1.2.8-.8 1.2-1.9 1.2-3.4v-19.7h-11.9V433c0 1.2-.6 1.7-1.8 1.7h-3.1c.1-.4.3-.9.4-1.3.9-3 1.5-6.3 2-9.9h-9.8c.5-.2 1-.5 1.5-.8 2.3-1.4 4.1-3.2 5.7-5.4h21.8l-.5 4.6h12.6l1.8-13.1h-32.3c.1-.6.2-1.2.3-1.9h-12.2c-.4 1.9-.9 3.5-1.5 4.6-.7 1.2-1.5 2-2.6 2.5s-2.5.8-4.3.7c1.4 3.5 2.3 7.1 2.7 10.7 1.8-.1 3.5-.5 5.2-1.1-.5 2.8-1.4 5.6-2.6 8.5-1.4 3.2-3.1 6.3-5.2 9.3m119-9.8h-20.5v-13.7h18.2v-10h-50.1v10h18.2v13.7h-20.5v10.3h54.7zM151 429.9c2.8 1.5 5.7 2.4 8.9 2.8-2 2.9-3.5 5.8-4.6 8.6-2.5-.9-4.9-2.1-7.2-3.4.7 1.9 2.1 3.9 4.1 5.8h-13.3c-1.3-1.8-2.2-3.8-2.6-6.1h11.5c-.5-.3-.9-.6-1.4-.9h-11.1v6.7H124v-6.7h-10.9c-.4.3-.8.6-1.3.9h11.1c-.5 2.2-1.4 4.2-2.7 6.1H107c2.1-1.9 3.5-3.9 4.4-5.8-2.1 1.3-4.3 2.4-6.6 3.4-1-2.6-2.7-5.5-5-8.6 2.9-.4 5.6-1.3 8.2-2.8h-6.1v-5.4h14.7v-.9h-12.4v-4.2h12.4v-.9h-10.1v-1h-3.9v-9.2h20.3v-3h13.5v3h20.3v9.2h-2.9v1h-11.1v.9H156v4.2h-13.4v.9h15.6v5.4zm-4.9-16.8h-3.5v1.2h3.5zm-18.8 0v1.2h4.6v-1.2zm-10.8 1.2v-1.2h-4v1.2zm10.8 5.1h4.6v-.9h-4.6zm0 5.1h4.6v-.9h-4.6zm-3.4 6.9v-1.5h-4.3l-.9 1.5zm15.3-1.5h-3.9v1.5h4.9c-.4-.5-.7-1-1-1.5m154.5 3v9.6h54.7v-9.6H335l1.5-11.8H317l.7-3.3h28.4v-9.3H296v9.3h11.3l-2.2 11.6h20l-.6 3.5zm883-2-8.9 1.3 2.2 11.5 9.2-1.5zm-67.6-1h-24.5v-23.3h27.9v19.8c0 1.1-.3 2-.9 2.6s-1.3.9-2.5.9m-15.2-17.6v1h8.6v-1zm0 5.6v1h8.6v-1zm8.5 6.7v-1.1h-8.6v1.1zm-154.7 19h23.8c1.1 0 2-.4 2.7-1.1s1-1.7 1.1-3l.4-8.1-9.3-1.7-.3 4c-.1 1.2-.6 1.8-1.6 1.8h-9.8c-.8 0-1.1-.5-1.1-1.5v-4.6h-9.9V440c0 1.1.3 2 1 2.6.6.7 1.6 1 3 1m32.8-15.5H935v-21.9h49v18.4c0 1.1-.3 2-.9 2.6s-1.4.9-2.6.9m-7.9-15.5h-7.9v1.9h7.9zm-26.2 0v1.9h7.9v-1.9zm0 9.5h7.9v-2h-7.9zm26.2 0v-2h-7.9v2zm-17.3 12.3h9.7l-.5-5.2h-9.7zm29.9-5.3-8.9.9 2.2 13.3 9.2-1zm130.1 13.1-2.5-11.8-8.9.9 2.2 11.9zm-564.6 2.7c-1-3.6-2.4-7.4-4.3-11.5 2.2-.6 3.7-1.6 4.6-3s1.3-3.6 1.3-6.5v-13.8h21v-4.2H587v4.2h17.3v7.8h-15.1v3.4h15.1v7.3h-13.6c.3.6.7 1.1 1.1 1.5 1.2 1.3 2.9 2.1 5.2 2.6 2.2.5 5.3.7 9.3.5-1.1 3.4-1.7 6.8-1.9 10.3-4.5 0-8.1-.3-10.9-1.1-2.8-.7-5.2-1.9-7-3.6q-1.35-1.2-2.7-3-1.35 1.8-2.7 3c-1.8 1.7-4.1 2.8-6.7 3.6-2.7.7-6.1 1.1-10.2 1.1-.1-2.8-.6-5.5-1.3-8.2-.8 2-2 3.7-3.8 5.1q-3 2.4-8.4 4.5m24.3-16.3h-10.9c-.1 1.8-.3 3.4-.7 4.7 2.6.2 4.7 0 6.3-.4 1.9-.5 3.3-1.4 4.3-2.7.4-.4.7-1 1-1.6m1.2-10.7h-12.1v3.4h12.1zm327.9 25.3c-4.9.3-10.2.4-16 .4v-8.2h12.5V434h-11.8v-13.3h11.8v-1.1H891v-12.9h30.2v12.9h-10.8v1.1h12.8V434h-2.8c1.3 2.5 2.7 5.3 4.1 8.6l-7.8 2.3c-.2-1.1-.5-2.1-.8-3-3.6.6-7.6 1.1-11.8 1.3m-2.1-28.1h8.9v-1.9H902zm8.5 10.6v2.3h2.2v-2.3zm-9.9 2.4v-2.3H898v2.3zm9.9 7.4h3.3c-.2-.5-.5-1-.7-1.5h-2.5v1.5zm30.2 7.5 1.6-13.1-9.3-.9-2 13zM486 423.9c-.4-3.6-1.3-7.2-2.7-10.7 2.1.1 3.7-.4 4.8-1.3s1.8-2.5 2.3-4.7h12.2c-.1.6-.2 1.3-.3 1.9h36.2v7.7h-17.2v2.8h15.6v7.3h-15.6v2.3h19.1v8.6h-19.1v6.3h-13v-6.3H485v-8.6h5.8V423q-2.4.6-4.8.9m22.2 2.8h-6v2.3h6zm0-10h-9.3c-.8 1-1.6 2-2.5 2.8h11.8zm-145.1 3.7c-1.8 1.2-4.2 1.9-7.1 2.1 1.2 3.6 1.8 7.4 1.8 11.3 2.3-.3 4.5-.8 6.6-1.6v9.7h12.1v-12.1h4.8v14.3h12.8v-14.3h5.2v1.9c0 1-.5 1.6-1.6 1.6h-1.5c.8 2.9 1.2 6 1.4 9.3h6.2c2.3 0 4-.6 5.2-1.8s1.8-2.9 1.8-5.2v-14.2h-16.6v-2.3h-12.8v2.3h-4.1c.4-.6.7-1.1 1.1-1.8s.7-1.5 1.1-2.3h31.8V409H382c.2-.8.3-1.6.4-2.4l-12.9-1.3c-.2 1.3-.4 2.5-.6 3.7h-10.2v8.3h7.3c-.8 1.3-1.7 2.3-2.9 3.1m712.3 23.2h23.8c1.1 0 2-.4 2.7-1.1s1-1.7 1.1-3l.4-6.7-9.3-1.7-.3 4c-.1 1.2-.6 1.8-1.6 1.8h-9.8c-.8 0-1.1-.5-1.1-1.5v-4.1h-9.9v8.7c0 1.1.3 2 1 2.6.6.7 1.6 1 3 1m-619.8.7v-11h20.5v-10.9h-20.5v-4.1h17.6v-10.5h-48.9v10.5h17.6v4.1h-20.5v10.9h20.5v11zm222.8.1c-.9-3.7-2.4-7.6-4.3-11.5 1.7-.6 2.8-1.6 3.5-2.9s1-3.4 1-6.2v-15.6H700v-2.8h13.7v2.8h17.8v6.4H705v1.5h5.9v16.3h-2.6c1.7 3.1 2.7 6.6 3.1 10.6l-7.3 1.5c-.1-.7-.1-1.4-.2-2.1-4.3 1.1-9.1 1.6-14.3 1.6v-27.9h6.5v-1.5h-7.9v12.8q0 4.65-.9 7.8c-.6 2-1.6 3.8-3 5.3-1.3 1.4-3.3 2.8-5.9 3.9m28.2-12h-8.3v3.8l4-.3c-.2-.7-.5-1.4-.8-2zm-4.1-4.7v-1.6h-4.2v1.6zm0-7.2h-4.2v1.5h4.2zm-88 23.9c-.9-3.7-2.4-7.6-4.3-11.5 1.7-.6 2.8-1.6 3.5-3s1-3.6 1-6.5v-15.1H637v-2.8h13.7v2.8H668v5.5h-15.6v.9H667v5.2h1.8v5.5H667v2q0 1.8-.9 2.7c-.9.9-1.4 1-2.5 1H660l6.5 2.2-1.8 2.7c1.6.2 3.2.4 4.9.6-.7 2.7-1.1 5.5-1.4 8.2-7-.7-12.2-2.6-15.7-5.5v1q0 1.95-1.5 3c-1 .7-2.6 1-4.6 1h-8.6c-.1-1.4-.5-2.6-1-3.8-3.4 2.3-7.2 3.7-11.7 4.3l-2-6.9c-.5.7-1 1.4-1.6 2-1.6 1.7-3.9 3.2-7 4.5m14.2-8.1-1.5-3.4 6.7-1.9h-6.7v-4.8h12.4v-.9h-13.5c0 3.4-.4 6.3-1 8.6-.3 1.1-.8 2.2-1.3 3.1 1.7-.1 3.4-.4 4.9-.7m9.8-4.1 1.1 2.6V431h-3.4l.8 2.1c.6-.3 1-.6 1.5-.9m1.1 7.4v-1.3c-.5.5-1 .9-1.6 1.3zm17.3-8.6h-4.3v1.4c.9.4 1.8.8 2.8 1.2zm-.2-5.7h-4.1v.9h4.1zm-4.1-6.4v.9h4.1v-.9zm-13-5.2h-13.5v6.1h13.5v-.9h-12.4v-4.2h12.4zm132.8 29.5v-13.4h-7.2c-.6 3-2.1 5.6-4.4 7.9-3.1 3-7.5 5.3-13.1 6.9-1.3-3.6-3.3-7.3-6.1-11 2.9-.5 5.1-1.1 6.8-1.8 1.4-.6 2.5-1.2 3.2-2h-10.9v-9.9H753v-3.5h-10v-9.9h50v9.9h-8.2v3.5h10.5v9.9h-10.5v13.4zm0-23.3v-3.5h-6.9v3.5zm363.8 22.8c.7.6 1.7.9 3.1.9h23.8c1.1 0 2-.4 2.7-1.1s1-1.7 1.1-3l.4-5.8-9.1-1.3-.3 2.6c-.1.6-.2 1.1-.5 1.3-.3.3-.7.4-1.2.4h-10c-.8 0-1.1-.5-1.1-1.5v-3.1h-9.9v7.8c0 1.3.3 2.2 1 2.8m-.4-29.5-.4-1.4h-9.9v-4.7h18.4v-1.6h14.1v1.6h18.4v4.7h-10.8l-.3 1.4h13.9v5.8h-56.5v-5.8zm10 0h10.1l.3-1.4h-10.7zm-53.2 22.6-.5-4.9h-9.7l.5 4.9zm-97.6 2.7h7.3v-27.9H995zm-262.6-3.3c0 2.4-.7 4.1-2.2 5.2-1.4 1.1-4 1.6-7.5 1.6-.2-2.6-.6-5.1-1.4-7.4v9.8h-9.1v-29h19.3l-1.8 10.8c.7 1.1 1.2 2.2 1.6 3.2.7 2 1.1 3.9 1.1 5.8m-8.5-4.1c0-.5-.1-1.2-.4-1.9s-.7-1.4-1.1-2.1l.7-5.6h-1.8v11.9c.8-.1 1.4-.3 1.8-.7.5-.4.8-.9.8-1.6M810 434c-1.4.1-3.5.1-6.4-.1l.4 1.1c.8 2 1.4 3.7 1.8 5s.8 2.7 1.2 4.1c5.5-.2 9.4-.5 11.8-1s3.9-1.4 4.6-2.5 1-2.9 1-5.5v-11.2h-9.5v-2h9.5v-15.3h-20.8v7.8h9.7v1.6h-9.7v14.9h9.7c0 1-.2 1.8-.7 2.3-.3.4-1.2.7-2.6.8m256.1-5.6c.6-3.2.9-7.1 1-11.7h-6.5c0 3.6-.5 7.5-1.6 11.7zm-207.3-12.2-1-9.9c-5 1.2-10.7 1.6-16.8 1.4.2 4 .3 7.2.3 9.8 4.1 0 7.5-.1 10.4-.2 2.8-.4 5.2-.7 7.1-1.1m-2.6 16.3c1.1.3 2.6.4 4.6.4-.9 3.9-1.4 7.8-1.7 11.5-3.2 0-5.9-.5-8-1.6s-3.9-2.8-5.3-5.2c-.5-.8-.9-1.8-1.3-2.8-.3 2.5-.6 5.1-.7 8-1.7.3-3.4.6-5.2.8s-4.2.2-7.3.2h-3.7v-14.9h-1.8v-10h1.8v-12.4h11.9v12.4H860v10h-7.2c.2.8.6 1.5.9 2 .6.8 1.4 1.3 2.5 1.6m-12.4.7c-.4-1.3-.8-2.7-1.1-4.2h-3.3v4.3zm173 10.5v-14.2h32.6v11.3c0 1.9-1.1 2.9-3.4 2.9zm10.8-6.9h10.4V435h-10.4zm48.8-6.4v-14.5h7.1v-7.3h-7.1V406h-8.8v2.6h-8.6v7.3h8.6v14.5zm93.8.4h-41.8V420h45.2v7.4c0 1.1-.3 2-.9 2.6-.5.5-1.3.8-2.5.8m-30.7-7.7v1h22.5v-1zm22.4 4.3v-1h-22.5v1zm-91.8 3.9-9.3-1.3-2 12 9.6 1zm-57.2-25.2v9.9h3.3v5.4h6.6l.1-1.5h-5v-5.6h5.6l.1-1.4h-7.6V407h33v6.1h-15.3l-.1 1.4h14v7.1h3.6v6.9h-36.5v-4.3h-1.8v19.6h-9.1v-37.5h9.1zm20 15.4h4.6V420h-4.4zm44.1-4.7c.1 4.4.3 8.3.8 11.7h6.5c-.5-4-.9-7.9-.9-11.7zm-200.7 16.3c.5-.5.7-1.2.7-2.3h-9.7v-14.9h9.7v-1.6h-9.7v-7.8h20.8v15.3h-9.5v2h8.8v11.7c0 2.4-.3 4.1-1 5.2q-1.05 1.65-4.5 2.4c-2.4.5-6.2.8-11.7 1-.3-3-1.4-6.4-3.4-10.2 3 .2 5.3.2 6.7.1s2.3-.4 2.8-.9m256 10.4 1.6-11.3-9.3-1.1-2 11.3zm14.5-7.8h9.9l-.5-4.1h-9.9zM642 479.5c-.8-2.2-1.3-4.4-1.4-6.7h-7.3c.1 2.5.3 4.7.8 6.7zm26.8 8.3c-1.4 3.7-2.3 7.5-2.8 11.3-5.1-.2-9.3-1.5-12.8-3.8-3.3 2-6.8 3.1-10.6 3.3-.2-2.1-.6-4.4-1.2-6.7-1 2.4-1.9 4.7-2.6 7.2-2.3-1.3-4.5-2.4-6.6-3.4-.9.4-1.8.8-2.9 1.1q-5.7 1.8-15.9 1.8c-.3-2.3-.8-4.9-1.6-7.7 3.4.3 6.2.3 8.6.2-1.9-.6-3.9-1-5.9-1.4l1.6-3.2h-4v-5.8h6.8l.5-1h-7.3c1.3-2.4 2-4.6 2-6.7h8.1c-.1 2.2-.3 4.1-.7 5.7h1.3V472h-10.2v-6.3h1.4l-.4-3.4h7.6l.4 3.4h1.2v-4.5h9.9v4.5h1.1l.4-3.4h6.9l-.4 3.4h1.4v6.3h-9.3v7.6h-2.4l-.6 1h11.6c-.6 3.7-1.5 6.7-2.8 9.1l2.4.6c-.2-.8-.4-1.6-.6-2.5 2.3 0 4.3-.2 6-.4-.7-1.6-1.3-3.3-1.8-5.2-.5.2-1.1.4-1.6.6-.2-3.2-.9-6.5-2.1-9.7.8-.6 1.5-1.3 2-2.1s.8-2 1-3.5q.3-2.25.3-6h11.3c0 1.1-.1 2.1-.1 3.1h12.4v9.2h-2.9c-.1 4.4-1.1 8.5-3 12.1-.2.5-.5.9-.8 1.3 2.1.4 4.6.6 7.7.6m-42.4-1.5-.6 1.1c1.3.1 2.5.3 3.7.5.5-.5.8-1 1.2-1.6zm26.6-12.6c-.1.3-.3.6-.5.9.1 3.2.5 5.7 1.4 7.5.1.2.2.3.3.5.1-.2.3-.5.4-.7.8-1.9 1.2-4.6 1.3-8.2zm326.4 24.4h-44.9v-36.3h50.2v31.1c0 1.7-.5 3-1.4 3.9s-2.2 1.3-3.9 1.3m-32.2-27.5v5.3h24.2v-5.3zm24.2 18.7v-5.5h-24.2v5.5zm-220.5-28.7v2.5h-10.3v6.6h31.5v-6.6h-10.2v-2.5zm-216.4 26.6c2 .3 4.3.4 7 .4-1.4 3.6-2.3 7.2-2.8 10.9-5.5-.2-10-1.2-13.6-3.1-3.7 1.6-8.2 2.4-13.5 2.6-.3-1.9-.7-3.9-1.3-6-.3 1.5-.9 2.7-1.7 3.7-1.3 1.6-3.3 2.3-6 2.3h-4.1c-.4-2.8-1-5.5-2-8-.2.4-.4.8-.6 1.1-1.9 3.2-4.8 5.4-8.7 6.7-1-3.1-2.6-6.4-4.7-9.7 1.5-.7 2.7-1.3 3.5-2 .8-.6 1.4-1.4 1.7-2.4.3-.9.5-2.2.5-3.6v-7.2h-3.7v-8.5h7.5v-3.6h12.8v3.6h7.3v5.9l.9-.9c.6-.8 1-1.8 1.3-3.2s.4-3.1.4-5.4h12.8c0 1.4-.1 2.7-.3 4h13.4v8.7h-2.9c-.1 5.5-1.1 10.1-3.2 13.7m-7.2-13.7H524q0 5.4 1.5 8.4c.1.2.2.4.4.6.8-2 1.3-5 1.4-9m-26.6 9.4h-2.2c-.3 2.2-.7 4.2-1.4 5.9h2c1.1 0 1.6-.6 1.6-1.8zm16.7 4.9c-1.1-2.1-2-4.6-2.5-7.4-.8.3-1.7.6-2.6.9-.3-2.6-.8-5.4-1.5-8.3h-12v1.8h11.9v13c2.6.2 4.8.1 6.7 0m174.8-1.7c-3.4-3.2-5.9-6.9-7.4-11.1h-7.4v-9.8h20v-3.6H711v3.6h20v9.8h-7.4c-1.6 4.2-4.1 7.9-7.4 11.1q6.45.6 15.6 0c-1.2 4.4-1.9 8.3-2 11.8-10.3-.2-18.8-1.6-25.6-4.2-6.7 2.6-15.2 4-25.6 4.2-.1-3.5-.8-7.4-2-11.8q9.15.75 15.6 0m5.5-11.1c1 2.6 2.4 4.7 4.5 6.4.6.5 1.2 1 2 1.4.7-.4 1.4-.9 2-1.4 2-1.7 3.5-3.8 4.5-6.4zm-564.6 9.3v1.4c0 .6.2 1.1.5 1.4s.9.6 1.7.7c.8.2 2.1.2 3.6.2 7.1 0 13.4-.3 19-.9-1.2 3.8-2 7.5-2.3 11.2h-27.4c-2.1 0-3.6-.4-4.6-1.2s-1.4-2.2-1.4-4v-31.4h33.3v18.6c0 1.3-.3 2.3-1 3s-1.7 1.1-3.1 1.1h-18.3zm0-8.8h2.8v-4.8h-2.8zm13.3-4.7h-2.7v4.8h2.7zm637.6-.2v2.4h13v8.7h-1.8v17.4h-10v-17.4H784c-.1 2.9-.3 5.4-.8 7.4-.5 2.5-1.5 4.5-2.7 6.1-1.3 1.6-3.1 3-5.3 4.1-.8-3.6-1.9-7.2-3.4-10.8h-9.6v6.1c0 1.4-.4 2.5-1.1 3.3s-1.8 1.2-3.2 1.2H751c-.2-2.3-.5-4.3-1-6.2-.3 2.1-.8 4-1.3 5.7h-9.5c1.1-3 1.8-6 2.2-8.9h9.1c-.1.5-.1 1-.2 1.6h1.5v-2.7h-11.4v-7.1h11.4v-1.4h-12.4v-6.8h5.7l-.7-2.6h9.7l.6 2.6h3.7l.6-2.6h9.7l-.7 2.6h5.3v6.8h-11.1v1.4h10.4v5.1c.5-.4.9-.9 1.1-1.6.5-1.2.7-3.2.7-5.9v-16.3q10.5 0 20.7-2.1l2.2 8.7c-4 .6-8.4 1-13.3 1.2m-682.6 6.1v9.7q3 0 6.3-.3v2.7h-5.4c.6 2.8 1 6 1.1 9.6h10.9c1.2 0 2.2-.4 2.9-1.3s1-2.1 1-3.8v-9.1c1-.2 2-.5 2.9-.8V475l-2.9.2v-2.4h2.9v-8.5h-2.9v-3.5h-10.5v3.5h-5.4v8.5h5.4v3.3zM996 497.9h54.7v-9.3H996zm2.3-36.1h50.2v19.7c0 1.7-.5 3-1.4 3.9s-2.2 1.4-3.9 1.4h-44.9zm36.9 17.9v-2.1H1011v2.1zm-24.2-10.5v2.1h24.2v-2.1zm-533.5 18.6c-1.2 3.8-1.9 7.6-2.4 11.3-5.8-.2-10.6-1.4-14.6-3.5-3.6 1.8-7.6 2.8-11.9 3-.5-3.4-1.4-7-2.6-10.8 2.3 0 4.3-.2 6.1-.4-1-1.7-1.7-3.6-2.3-5.7-.8.3-1.7.7-2.6.9-.3-3.1-1-6.1-2.1-8.9v24.8h-10.9v-4.2c-.9.1-1.8.2-2.6.3-3.5.4-7 .6-10.4.6v-32.1h10.2v20.4l2.8-.2v-21.4h10.9v9.8c.9-.5 1.7-1 2.2-1.7q1.05-1.2 1.5-3.3c.3-1.3.5-3.1.5-5.4H462c0 1.1-.1 2.1-.2 3.1h14.8v9.2h-2.4c-.1 4.5-1.2 8.6-3.3 12.2-.3.5-.6 1-1 1.5 2.1.3 4.6.5 7.6.5m-14.3-14.1H459c0 3.6.6 6.5 1.6 8.4l.6.9c.2-.4.5-.7.6-1.1.9-1.9 1.4-4.7 1.4-8.2m-170.3 3v9.7c1.6 0 3.2-.1 4.9-.3v2.6h-4c.6 2.8 1 6 1.1 9.6h9.1c1.2 0 2.2-.4 2.9-1.3s1-2.1 1-3.8v-9c.8-.2 1.7-.4 2.5-.7v-7.9l-2.5.1v-2.9h2.5v-8.1h-2.5v-3.5h-10.2v3.5h-4v8.1h4v3.5zm312 11.1c-1.4 3.7-2.3 7.5-2.8 11.3q-7.95-.3-13.5-3.6c-3.2 1.9-6.7 2.9-10.4 3.1-.4-3.1-1.2-6.3-2.2-9.6l-1 7.2c-8.4.9-16.8 1.7-25.4 2.3l-1.4-9.6c.7 0 1.5 0 2.2-.1v-14.3h8.8v14c.5 0 1 0 1.5-.1v-16.1h-11.1v-8.8h26.3v8.8h-5.7v3.5h4.3c-.2-.5-.4-1-.7-1.5 1.2-.6 2.2-1.4 2.8-2.3.7-.9 1.1-2.2 1.4-3.9.3-1.6.4-3.9.4-6.7h12.2c0 1.1-.1 2.1-.2 3.1H604v9.2h-2.9c-.1 4.4-1.1 8.5-3.1 12.1-.3.5-.6.9-.9 1.4q3.15.6 7.8.6m-17-14.1c0 .1-.1.1-.1.2.1 3.6.5 6.3 1.5 8.3.1.2.2.3.3.4l.3-.6c.8-1.9 1.2-4.6 1.3-8.2h-3.3zm-6.8 13.7q-1.35-2.55-2.1-5.7c-.8.4-1.7.7-2.5.9-.2-2-.6-3.9-1.4-5.8v7.7h-4.8v3.1l6-.6-.1.7c1.8 0 3.4-.1 4.9-.3m-345.7 1.3H230c.6 2.8 1 6 1.1 9.6H242c1.2 0 2.2-.4 2.9-1.3s1-2.1 1-3.8v-9.1c1-.2 2-.5 2.9-.8V475l-2.9.2v-2.4h2.9v-8.5h-2.9v-3.5h-10.5v3.5H230v8.5h5.4v3.3l-6.3.5v9.7q3 0 6.3-.3zm106.3.2c2.7.6 5.4 1.2 8 2-1.3 2.7-2.3 5.4-3.2 8.2-3.5-1.7-7-3.2-10.4-4.5q-2.7 1.5-6.6 2.4c-4.3 1-10.1 1.6-17.4 1.6-.2-2.4-.8-5-1.6-7.9q7.95.45 12.9 0c-2.3-.6-4.6-1-6.9-1.4l1.7-3.3h-6.5v-6.7h9.9l.7-1.3H312v-6.6h5.6l-.3-1.4h-4.8v-6.7h12.6v-1.9h10.5v1.9h12.6v6.7h-4.8l-.3 1.4h5.5v6.6h-15.2l-.8 1.3h16.5v6.7H343c-.4.9-.8 2-1.3 2.9M327 471.3h7.3l.4-1.4h-8.1zm1.1 14.5-.7 1c1.7.1 3.4.3 5 .5.4-.5.8-1 1.1-1.5zm579.8 1v-2.1h-11c.1-.4.3-.8.4-1.2H923v-9.8h-21v-1.9h18.7V462h-50.1v9.8h18.7v1.9h-21v9.8h17c-.3.4-.6.7-1.1 1-1.1.7-3.1 1.2-5.8 1.6-2.7.3-6.4.4-11.2.3 1 3.6 1.6 7.3 1.7 11.1 6.9 0 12.1-.4 15.7-1.2s6.4-2.3 8.3-4.5c.9-1 1.8-2.4 2.5-3.9v4.3c0 1.9.5 3.2 1.4 4 1 .8 2.5 1.3 4.6 1.3h21.1c.3-3.8 1-7.7 2.3-11.6-2.3.3-4.8.6-7.4.7-2.5.1-5.7.2-9.5.2m250.9 4.2v-1.6h16.7V485h-16.7v-1.4h20.1v-6h-55.6v6h21.9v6.8c-.5-.1-1-.2-1.4-.2-.9-.2-1.8-.4-2.7-.7.5-1.3.9-2.6 1.2-4.1l-11.5-.8c-.4 1.6-1.2 2.8-2.3 3.6-1.1.7-2.9 1-5.5.9.7 3.5 1 6.9 1 10.3 5.4 0 9.6-1.2 12.5-3.6.4.2.8.4 1.1.6 1.4.6 3.1 1.1 5.2 1.5s4.6.5 7.6.5h27.5c.2-2.8.8-5.5 1.7-8-3.9.4-10.8.6-20.8.6m-938.1-16.9h-17v-1.9c1.8-.1 3.6-.1 5.2-.2 4-.2 7.6-.6 10.8-1.1l-1.4-10.3c-7.7 1.8-16.3 2.6-25.6 2.2v17.6c0 1.7-.2 3.1-.6 4.1q-.6 1.5-1.8 2.4c-.8.6-1.9 1.1-3.4 1.5 3.2 3.6 5.2 7.3 6.1 11.2 3.4-1.2 6-3.2 7.9-5.9s2.9-5.9 2.9-9.5v-.1h2.5v15h12.3v-15h2.2v-10zm33.2 3.5v-3.7h-3.3v-8.7h3.3v-4.1h10.9v4.1h3.7v-4.1h10.9v4.1h3.7v8.7h-3.7v3.7h4.9v9.3h-34.9v-9.3zm11 0h3.7v-3.7h-3.7zM167 489.2c.6 2.8 1 6 1.1 9.6h14c1.2 0 2.2-.4 2.9-1.3s1-2.1 1-3.8v-9.4c1.7-.4 3.4-.8 5-1.2v-7.9l-5 .3v-2.6h5v-8.5h-5v-3.5h-11.9v3.5H166v8.5h8.1v3.3l-8.1.5v9.7q4.2 0 8.1-.3v3.1zm960.6-28.1h47v15h-47zm35.6 11.1v-1.5h-24.3v1.5zm-24.3-6.2v1.4h24.3V466zm-78.7-3.6h22.8v24.3q3.6-.9 3.6-6v-18.9h27.8v29.9c0 2.3-.8 4.1-2.3 5.3-1.6 1.2-3.8 1.8-6.9 1.8h-4c-.4-3.3-1.2-6.3-2.4-8.9h4.5v-2.1h-7.3c-.4 2-1.1 3.7-1.9 5.2-1.7 2.9-4.3 5-8 6.2-.7-2.9-1.7-5.8-3.1-8.9v4c0 2-1.2 3-3.5 3h-19.3zm43 18.7V479h-6.7v2.1zm-6.7-11.3v2.5h6.7v-2.5zm-22.8 17.4v-3.5h-3.7v3.5zm-3.7-15.9v3.6h3.7v-3.6zm-298.8 18.4h-8.3c.3 3.3.9 6.3 1.7 8.9h8.8c-1-3-1.8-6-2.2-8.9m-413.6-1c.6 2.8 1 6 1.1 9.6h9.4c1.2 0 2.2-.4 2.9-1.3s1-2.1 1-3.8v-9.3c.8-.3 1.7-.5 2.5-.8v-7.4l-2.5.1v-2.9h2.5v-8.1H372v-3.5h-10.5v3.5h-4v8.1h4v3.5l-4.9.3v9.7c1.6 0 3.2-.1 4.9-.3v2.6zm-95.3 9.8c1-3.2 1.6-6.6 2-10.1h-11.7c-.6 3.7-1.7 7.1-3.2 10.1zm150-34.9h-5.5v-2.3h-9.6v2.3h-6v-2.3h-9.6v2.3h-5.9v7h5.9v1.5h9.6v-1.5h6v1.5h9.6v-1.5h5.5zM271 498.5h12.7c-1.4-3.2-2.4-6.5-3-10.1H269c.4 3.7 1 7 2 10.1m551.4-7c1.9-2.1 3.2-4.5 3.9-7.4h16.4v1.9c0 1.2-.5 1.8-1.6 1.8h-12c1.2 3.3 2 6.6 2.4 10.1H847c3.1 0 5.4-.8 7-2.3 1.6-1.6 2.4-3.8 2.4-6.7v-13.4h-29.2v-2.3H859v-8.9h-20v-3.6h-14.1v3.6h-20v8.9h9.6v4.5q0 4.05-2.7 6.6c-2.7 2.55-4.6 2.9-8.5 3.8 2.2 3.7 3.7 7.2 4.7 10.6 6.4-1.3 11.3-3.7 14.4-7.2m-446.2 6.8V473h35.7v21.4c0 1.3-.4 2.2-1.1 2.9s-1.7 1-3.1 1zm9.9-7.5h3.4V488h-3.4zm15.9 0V488h-3.3v2.8zm0-11.5h-3.3v2.8h3.3zm-15.9 0v2.8h3.4v-2.8zm344.6 72.9h-17.1c-2.1 0-3.6-.5-4.6-1.4s-1.4-2.4-1.4-4.4V526h-11.2c-.1.6-.3 1.2-.5 1.7h10.4c0 5.3-.9 9.7-2.6 13.2-1.8 3.5-4.7 6.3-8.8 8.3s-9.7 3.1-16.6 3.5c-.3-3.2-.9-6.7-1.9-10.4 2.4-.2 4.6-.5 6.5-.8l-1.5-3.4c-1.1.1-2.2.2-3.4.3-.3-3-.9-6.2-1.7-9.6 2.3-.1 4.1-.4 5.4-.8s2.3-.9 2.9-1.5c.1-.1.2-.3.3-.4h-7.7v-9.4h54v9.4H727l4.6 8.6c-3.1 2.7-7.1 4.2-12.1 4.8v1.1c4.8.1 9-.2 12.5-.8-.6 4-1.1 8.2-1.3 12.4m-36.3-17.8h-3.3c-.4.3-.7.5-1.1.8l1.6 3c1.5-1 2.4-2.3 2.8-3.8m25.2-8.4v2.8c1-.3 1.9-.6 2.7-1 1-.5 2-1.1 3.1-1.8zm222.7 26.7c.9 0 1.5-.2 2-.7.5-.4.7-1.1.7-1.9v-8.8h-12.4v11.3h9.7zm2.7-23.2h-12.4v9.3H945zm115.8 9.7h12.4v-9.3h-12.4zm12.4-21.1h-12.4v9.6h12.4zm50.3 20.6h15.2v-9.3h-15.2zm15.1-21.1h-15.2v9.7h15.2zm2 24.8v10.3h38.3v-10.3h-13.2v-2.8h11.4v-8.9h-11.4v-2.4h12.3v-9.8h-11.4v-3.2h-13.7v3.2h-11.4v9.8h12.3v2.4h-11.4v8.9h11.4v2.8zm-295.1 1q5.7 0 13.5-.6c-1.3 3.4-2.4 6.7-3.1 9.9-7.9.1-13.6 0-17.2-.4s-6.1-1.2-7.5-2.5c-1.4-1.2-2.2-3.3-2.6-6l-.3-2.2h-11.1v1.7h10.4c-.5 2.5-.8 5.2-.9 8.3q-7.35.6-14.4.6h-7.8v-8.9h1.4V518H855v14.8h-16.1l.1 1.7h18.1v7.2h-16.8c.2.3.4.5.6.7 1 .6 2.5 1 4.6 1m-28.2-18.6v1.7h26.4v-1.7zm10.2 9.6-.2-1.7h-10v1.7zm308.5 18.3c.9 0 1.5-.2 2-.7.5-.4.7-1.1.7-1.9v-8.8h-15.2v11.3h12.5zm-154.1 0h-34.6v-33.3h13.3v-3.1h12.3v3.1h13.2v29.3c0 1.3-.4 2.2-1.1 2.9-.7.8-1.7 1.1-3.1 1.1m-6.3-24.3h-3.7v2.8h3.7zm-17.8 0v2.8h3.8v-2.8zm0 14.4h3.8V540h-3.8zm17.8 0V540h-3.7v2.8zm95 10.4h-9.8v-11.4h12.4v.7c.6-.6 1.1-1.2 1.5-1.9.5-1.1.8-2.7.8-4.7V519h14.9v-3.2h11.9v3.2h12.6l-.9 10.2h-9.9l.2-2.2h-2v3.5h11.3c0 5.2-1.1 9.4-3.3 12.8-.1.2-.3.4-.4.6 1.7 0 3.6 0 5.7-.1-.7 3.2-1.2 6.6-1.5 10.3-6.3-.1-11.5-1-15.7-2.6q-6.75 2.1-16.8 2.4c-.1-1.2-.3-2.3-.4-3.3-1.4 1.5-2.9 2.6-4.6 3.2-.8-2.6-1.8-5.2-3.2-7.8v4.8c0 .9-.2 1.5-.7 2-.6.2-1.3.4-2.1.4m29.2-15.7h-3.4c.4 1.1 1 2.1 1.7 2.9.9-.9 1.4-1.8 1.7-2.9m-15.1 7.2c1.5 0 2.8-.1 4-.3q-1.5-1.95-2.4-4.2c-.1.2-.1.5-.2.7-.3 1.3-.8 2.6-1.4 3.8m2.9-17.7v3.5h2.8V527zM945 517.6h-12.4v9.7H945zm-360 16.5c.5-2.6.8-5.6.8-9H578q-.15 4.35-.9 9zm-18.4-18.7v2.2h9.2v6.7h-9.2v9.1h1.2c-.4-2.4-.6-5.2-.7-8.2h7.8q.15 4.35.9 9h-1.5c-.1.3-.2.7-.3 1h27.9c0 4.2-1.5 7.7-4.5 10.4s-8.2 4.8-15.7 6.3-17.9 2.2-31.3 2.2c-.1-3.1-.5-6.2-1.3-9.3q8.1.15 14.1 0l-.7-3.1c-3.3.7-7.1 1-11.4 1q-.3-4.05-1.2-7.2c3.9.1 6.9-.1 8.9-.5 1.2-.2 2.1-.5 2.8-.9h-3.8v-9.9h-9.5v-6.7h9.5v-2.2h8.8zm18.7 25.7h-10.4l.8 3q4.05-.45 6.3-1.2c1.5-.6 2.6-1.1 3.3-1.8m1-25.7v2.2h-9.2v6.7h9.2v9.9h8.8v-9.9h9.5v-6.7h-9.5v-2.2zm30.8 14v12.8h-3.6v10.4h53.8v-10.4h-19.2V539h15.7v-9.1h-15.7v-3.2h17.7v-9.4h-51v9.4h19.6v15.6h-4.1v-12.8h-13.2zm-60.8 4.7c.6-2.4.9-5.4 1-9h-7.4c0 2.7-.5 5.7-1.6 9zm46.8-8.9h-7.4c.1 3.6.4 6.6 1 9h8c-1.1-3.3-1.6-6.3-1.6-9m-306.2 9.3h48.3V549c0 1.2-.3 2.2-1 2.9s-1.6 1-2.9 1h-44.5v-18.4zm35.3 12.2v-1.6h-22.6v1.6zm-22.6-7.5v1.6h22.6v-1.6zm28.2-23.3-.5 2.1h11.2v15.4h-54.7V518h10.4l-.6-2.1 11.8-1.3 1.1 3.4h9.2l.9-3.4zm-33 11.8h2.4l-.3-2.3h6.8l.3 2.3h2.1v-3.6h-11.3zm32.6-3.6h-11.3v3.6h2.1l.3-2.3h6.8l-.3 2.3h2.4zm18.4 18.5c1.3-.5 2.4-1.1 3.1-1.8s1.3-1.4 1.6-2.4c.3-.9.5-2.1.5-3.4v-18.9h49.2v30.4c0 2.3-.8 4.1-2.3 5.3-1.6 1.2-3.8 1.8-6.9 1.8h-8.6c-.4-3.3-1.2-6.3-2.4-8.9h8.1v-2.1H372c-.5 2-1.2 3.7-2.2 5.2-2 2.9-5.1 5-9.3 6.2-1-3.7-2.6-7.5-4.7-11.4m42.4-7.2v-2.1h-25.4v2.1zm-25.4-11.3v2h25.4v-2zm123.5 17c-1 .8-2.5 1.5-4.4 1.9s-4.5.6-7.7.6c1 2.8 1.6 6 1.7 9.6 4.2-.2 7.5-.6 10-1.4s4.5-2.2 6.2-4.1c1.3-1.6 2.5-3.7 3.6-6.5v12.2h13.7v-12.2c1.1 2.7 2.3 4.9 3.6 6.5 1.6 1.9 3.7 3.3 6.2 4.1s5.8 1.3 10 1.4c.2-3.6.7-6.8 1.7-9.6-3.3-.1-5.9-.3-7.8-.8-1.9-.4-3.4-1-4.4-1.8-.3-.3-.7-.6-.9-.9h12v-8.2h-5.2l.5-4h-10.9l-.5 4h-4.4v-5.4h19v-8.1h-19v-3h-13.7v3h-19v8.1h19v5.4h-4.4l-.5-4H490l.5 4h-5.2v8.2h12.1c-.4.3-.7.7-1.1 1m398.4-.5c-1.7.9-4.3 1.3-7.9 1.2 1.1 3.8 1.7 7.5 1.8 11.2 3.3 0 6-.3 8.1-1 2.1-.6 3.9-1.7 5.4-3.1.9-.8 1.7-1.9 2.6-3.2.9 1.2 1.8 2.3 2.7 3.2 1.6 1.4 3.4 2.4 5.7 3.1 2.2.6 5.1 1 8.6 1 .2-3.9.7-7.6 1.8-11.2-2.8-.1-5-.4-6.7-.8-1.6-.4-2.9-1-3.8-1.6-.5-.4-.9-.8-1.2-1.4h10.6v-9.9H911v-2c3.9-.2 7.3-.4 10.1-.7l-1-9.7c-9.7 1.2-20.2 1.7-31.6 1.4.2 3.7.3 6.9.3 9.3h9.3v1.7h-10.7v9.9h10.2c-.8 1.1-1.7 1.9-2.9 2.6m118.1-11.1h-15.2v9.3h15.2zm0-11.9h-15.2v9.7h15.2zm32.6 35.6h-30v-18.4h33.3v15.5c.1 1.9-1.1 2.9-3.3 2.9m-8-10.8h-11.1v2.3h11.1zm-27.3 9.9c.9 0 1.5-.2 2-.7.5-.4.7-1.1.7-1.9v-8.3h-15.2v10.9zm34.8-35.8-9.1 3.1 1.8 4.2h-6.4l1.3-1.3c.7-.8 1.2-1.6 1.5-2.6q.45-1.5.9-3.9l-13.5-.5c-.1 2.1-.3 3.6-.6 4.7-.3 1-.9 1.8-1.7 2.4-.8.5-2 .9-3.7 1.2h-.1v9.6c9.6 0 18.2-.3 26-1l.8 1.9 9.5-3.5zm-175.5 10.3h15.5v-9.9h-15.5zm-97.9 17.6v-1.6l23.9-.6-.1-7.8-23.8.4v-1.3l19.3-.3-.1-7-19.2.2v-1.3c7.8-.2 15-.5 21.4-1l-1-8.6c-15.6 1.6-31.6 2-47.9 1.3.3 3.3.4 6.1.3 8.3 4.6.1 9.1.2 13.6.2v1.2l-12.8.1.1 7.3 12.7-.2v1.3l-17.3.3.1 8.2 17.2-.4v1.4c0 3.1.8 5.4 2.3 6.8s4 2.1 7.4 2.1H795c.2-3.3.9-6.8 1.9-10.8-7.4 1.9-15.8 2.5-25.4 1.8m97.9 8.4h12.8c.9 0 1.6-.2 2-.7.5-.5.7-1.1.7-2v-8.9h-15.5zm-638.6-35.4h52.9v29.2c0 1.7-.4 3-1.3 3.9s-2.2 1.4-3.9 1.4h-47.7zm12.8 8.1v5.1h23.7v8h-23.7v5.2h26.9v-18.3zm625.8 13h15.5v-9.4h-15.5zm-719.5 15.3h-44.5v-17h48.3v13.1c0 1.2-.3 2.2-1 2.9s-1.6 1-2.8 1m-31.7-11.9v1.1h22.6v-1.1zm22.6 5.7v-1.2h-22.6v1.2zm37.6 4.6h-12.5v-34.7h16v31.6c0 2.1-1.2 3.1-3.5 3.1M173 526v3.6h1.9V526zm1.9 15.9v-3.5H173v3.5zm27.5-17.1v6.4h18v-14.8h-18v7h8.6v1.4zm19.4 19.8c-.7 3-1.2 6-1.5 8.8q-4.95 0-8.7-2.1c-2.5 1.2-5.5 1.9-9.2 2-.2-2-.6-4.1-1.1-6.3v2.2h-8.8v4h-9.4v-36.8h18.3v12.4c0 2-1.2 3-3.5 3h-5.4v1.3h8.3v7.1h-8.3v1.1h8.8v3.3q1.95.15 3.6 0c-1-1.9-1.7-3.9-1.9-5.8h-1.3v-6.6h19c0 5-.8 9.1-2.5 12.4 1.2.1 2.3.1 3.6 0m-29.2-21v1.6h1.9v-1.6zm18.1 15.3q.3 1.35.9 2.4c.4-.7.6-1.5.7-2.4zm219.7-13.4h-7.9v-7.4h10.2c.2-1.1.4-2.2.5-3.4l12.9 1.3c-.1.7-.2 1.4-.4 2.1H475v7.4h-31.3c-.2.5-.4.9-.6 1.4h31v20.6c0 2-.6 3.5-1.7 4.5-1.2 1-2.9 1.6-5.2 1.6h-15.3c-.1-2.7-.4-5-.9-7.1h10.9v-1.1h-19.7v8.2H430v-13.1c-2.6 1.2-5.3 1.9-8.3 2.2 0-3.9-.6-7.7-1.8-11.3 2.9-.1 5.3-.8 7.1-2 1.4-.9 2.5-2.2 3.4-3.9m31.4 15v-1.1h-19.7v1.1zm0-7.1h-19.7v1.1h19.7zm-349.4-16.6 11.6-1.3 1 3.4h9.2l1-3.4 11.6 1.3-.6 2.1h9.4v6.6h-14.1v4.3h2.1l.5-3.3h9.1l-.6 3.3h4.4v5.8h-54.7v-5.8h4.4l-.6-3.3h9.1l.5 3.3h2.1v-4.3h-14.1v-6.6h9.4zm18.1 8.7h-1.8v4.3h1.8zm12 81.3c-4.4.6-9 .9-13.9.9V582c9.4.3 18.2-.1 26.5-1.2l.8 7.9c-2.4.2-5.7.4-9.8.5.3 1.2.7 2.3 1.3 3.2.2.3.4.5.6.7.4-1.1.8-2.2.9-3.3l7.3 1.2c-.4 1.8-.9 3.4-1.5 4.9 1.1.1 2.3.2 3.6.2-1.3 3.9-2.2 8-2.6 12.3-3.6-.3-6.6-1.2-9-2.6-1.4-.8-2.6-2-3.7-3.3-.2 1.4-.4 2.9-.5 4.3m-4.2-17.5h-1.2v9.1l3.5-.2c-1.1-2.4-1.8-5.4-2.3-8.9m432.7 8.1v-3h-16.6v-5.7c-1.3.5-2.7.8-4.1 1-.4-3.8-1.3-7.5-2.7-11.2 1.9-.2 3.4-.9 4.4-2.1 1-1.3 1.6-3.2 1.7-5.7h12.2c-.1.9-.2 1.8-.3 2.6h5.4v-2.6h13.2v2.6H602v9h-17.7v3h16.1v9.1h-16.1v3h19.2v10h-53.8v-10zm0-12.1v-3h-8.8c-.7 1.1-1.6 2.1-2.5 3zM102.9 582h12v-9.6h-12zm0 11.5h12v-9.3h-12zm24.4-3.2v-10.1c4 .1 7.8 0 11.2-.1 5.7-.2 11.1-.6 16.1-1.2l-.8-8.5c-11.3 1.6-23.5 2.2-36.6 1.9h-.1v17.9c0 2.8-.3 5-.8 6.4q-.45 1.35-1.5 2.4v-2.9h-12v11.4h9.3c.9 0 1.6-.1 2-.2s.6-.3.7-.5.1-.6 0-1.1v-4.6c1.3 1.2 2.5 2.3 3.5 3.5 1.3 1.5 2.4 3.1 3.3 4.7 1.8-1.6 3.1-4 4.1-7.2 1.1-3.3 1.6-7.2 1.6-11.8m358.4 7.1v10h53.8v-10h-20.1v-3.7h17.1v-9.1h-17.1v-3.7h18.7v-9h-51v9h18.7v3.7h-17.1v9.1h17.1v3.7zm-81.3.1h8.4v7.5h-8.4v3.1h-9.9V605h-14.7v-7.5h2.6l1-3h-3v-21.9h7.2c.2-.8.4-1.6.5-2.4H399c-.2.9-.5 1.7-.8 2.4h13.6v21.9h-19.2l-1 3h2.8v-1.8h9.9v1.8zm-15.9-9.4h3.7v-1.8h-3.7zm0-9.1v1.8h3.7V579zm15.3 9.1v-1.8h-3.7v1.8zm0-9.1h-3.7v1.8h3.7zm584 28.9h-56.5v-8.4h5.9v-19.4h15v-1.3H934V572h18.2v-1.8h14.6v1.8H985v6.8h-18.2v1.3h15v19.4h5.9v8.4zm-18.2-18.3h-20.1v1.1h20.1zm-20.1 4.4v1.1h20.1V594zm0-8.7v1.1h20.1v-1.1zm0 14.1h20.1v-1.1h-20.1zm-583.5 4c1.4-2.1 2.1-4.6 2.1-7.6v-.3h1.8v12.3h8.8V588h-10.5v-1.6h11.4v-7.5h-1.3V571H370v7.9h-1.8V571h-8.8v21.5c0 2.1-.3 3.7-.9 4.9q-.9 1.8-3 2.7c2.2 2.6 3.8 5.4 4.7 8.3 2.4-1.3 4.4-2.9 5.8-5m-21.9-16.3c-1.4-.3-2.6-.8-3.4-1.5-.4-.3-.7-.8-1-1.2h8.9v-7.7H347v-4.5h-7v4.5h-1.7v-5.4h-9v5.4h-5.4v7.7h4.9c-.3.5-.6.9-1.1 1.2-.9.7-2.1 1.2-3.8 1.5-1.2.2-2.7.3-4.4.3.1-.2.3-.4.4-.6 2.3-3.4 3.4-8.2 3.4-14.5h-13.6c.1-.5.2-.9.3-1.4h-10.8c-.3 1.1-.7 2-1.2 2.6s-1.1 1.1-1.8 1.3-1.6.3-2.7.2c.5 2.7.8 5.5 1 8.3 2.7 0 5.1-.4 7.3-1.3q2.55-1.05 4.5-3h7.6c-.3 1.5-.9 2.9-1.8 4l-1.4-3-6.4 2.9 1.6 3.6c-.8.2-1.7.4-2.6.5l-.7-3.5-6.8 1 .6 2.8c-1.2 0-2.5-.1-3.8-.1q.9 3.9.9 8.7c6.8 0 12.4-.6 16.7-1.9 3.2-1 5.8-2.5 7.9-4.7q.75 3.45.9 6.6c3.5 0 6.4-.3 8.5-1 2.2-.6 3.9-1.6 5.1-2.8.7-.7 1.3-1.6 1.9-2.5.5.9 1.1 1.8 1.8 2.5 1.2 1.3 2.8 2.3 4.8 2.9s4.5 1 7.4 1c.1-2.4.4-5.2 1-8.4-2.2-.1-4-.2-5.4-.5M178 584.2h-12v9.3h12zm298.1 23.9h-36v-7.3h2.1v-8.3h31.9v8.3h2.1v7.3zm-9.4-10.1H465v2.7h1.6V598zm-7.7 0h-1.6v2.7h1.6zm-9.4 2.8h1.6V598h-1.6zm-3.5-14.7c.6 1.5 1.1 3.3 1.3 5.4h16.7c1.3 0 2.3-.3 3.1-.9s1.2-1.4 1.2-2.5v-3.4h8.2v-6.3h-6.7l2.5-7h-27.9v5.7h13.9l-.4 1.4h-17v6.3h16v1.4h-10.9zM868.3 600h1.8v-7.6h51.1v7.6h2.3v7.6h-55.2zm29.9 0v-1.6h-5v1.6zm13.4 0v-1.6h-5.5v1.6zm-31.9 0h5.5v-1.6h-5.5zm-442.6-29.5c-1.2 1.3-2.4 2.4-3.7 3.4-1.2-1.7-2.6-3.3-4.1-4.6l-7.2 5c1.1 1.1 2.1 2.3 2.9 3.6-1.6.4-3.3.6-5.2.7q.6 1.8.9 4.2c.3 2.4.4 3 .5 4.3 2.6-.1 5-.6 7.2-1.3.2.8.3 1.6.5 2.4-.5.2-1.1.4-1.6.6-2.1.6-4.5.9-7.4.9.7 2.2 1.1 4.8 1.4 7.8 3.1-.2 5.8-.8 8.2-1.7v3.8h-7.9c.9 2.5 1.4 5.4 1.7 8.6h8c3 0 5.2-1.2 6.5-3.6s2-6 2-10.8c0-4.5-.8-8.8-2.4-12.8 1.6-1.2 3.2-2.6 4.7-4.2zm-259.8 36.3c.5-.4.7-1.1.7-1.9v-8.8h-12v11.3h9.3c.9.1 1.5-.2 2-.6m501.5-1.8c-.4-3.3-1.5-6.6-3.1-9.8 3.5-.2 6-.9 7.7-2.1q1.2-.9 2.1-2.1h-5.8v-20.5h48.9v17.1c0 1.1-.3 2-.9 2.6s-1.4.9-2.6.9h-2.3c.1.2.3.4.5.6.9.9 2.1 1.7 3.6 2.3 1.6.6 3.6 1 6.1 1.4-1.6 3.2-2.7 6.5-3.1 9.8-4.7-.9-8.5-2.4-11.3-4.6v8.1h-12.1v-15.6h5.8c-.3-.6-.6-1.3-.9-2h-14.6c-.3.7-.6 1.3-.9 1.9h5.8v3.8c0 2.1-.2 4.1-.4 6.2-.3 2.1-.7 4-1.2 5.6h-12.4c1.3-2.7 2.1-5.5 2.4-8.3-2.8 2.1-6.5 3.7-11.3 4.7m12.3-20.1h7.9v-2h-7.9zm26.1-1.9h-7.9v2h7.9zm0-6.7h-7.9v1.9h7.9zm-26.1 0v1.9h7.9v-1.9zm-65.6 21.5v-17.2h29.6v17.2zm8.3-5.7h3.3v-1.7h-3.3zm13 0v-1.7h-3.3v1.7zm0-6.6h-3.3v1.6h3.3zm-13 0v1.6h3.3v-1.6zm32.5 21.1c.9-.9 1.4-2.2 1.4-3.9v-21.1h-10.3v17.9h-34.1v-17.9H613v26.3h49.2c1.8 0 3.1-.4 4.1-1.3m-447.7-8.4v1h2.4v7.7h-3.1c-.2.8-.3 1.5-.5 2.3h-10.6c.2-.7.4-1.5.6-2.3h-27l.5-9.6h-1.5V589h2l.3-5.3c-.5.2-1 .4-1.5.5q-.6-3.45-2.1-6.6v4.4h-12v-9.7h12v3c.9-.4 1.6-1 2.1-1.7.7-.9 1.1-2.1 1.2-3.5h10.4c-.1.8-.2 1.6-.3 2.3h29.2v7h-32.3q-.9 1.05-2.1 1.8h32.5v7.7h2.4v7.8h-2.4v1.5zm-10.3-10.7h-4.5l.6 2.8h3.9zm-16.7 0-.1 2.8h4.7l-.6-2.8zm-.6 11.7h5l-.5-2.8h-4.4zm17.3 0v-2.8h-4.5l.5 2.8zm565.9-28.5c-.5 1.6-1.1 3-2 4.4h20.9v28c0 1.2-.3 2.2-1 2.9s-1.7 1-3 1H743v-31.9h13c.9-1.4 1.5-2.9 1.7-4.4zm6.3 26.8v-3.9h-25.1v3.9zm0-14.4h-25.1v3.8h25.1zm89-11.6h21.9v11.2c1.8-.2 2.7-1.3 2.7-3.1v-8.8h27.8v16.5c0 1.4-.4 2.5-1.3 3.3s-2.1 1.1-3.8 1.1h-8.6q-.45-2.85-1.5-4.8h4.5v-1h-7.5c-.1.2-.2.5-.3.7-.7 1.3-1.9 2.4-3.5 3.2s-3.8 1.5-6.5 2c-.3-2.3-1-4.5-2.1-6.8v3.3c0 2-1.2 3-3.5 3h-18.4v-19.8zm41.7 10.2v-1.1h-6.7v1.2h6.7zm-6.7-5.9v1.1h6.7v-1.1zm-22.8 10.3v-2.6h-2.4v2.6zm-2.3-9.8v2.6h2.4v-2.6zM613 578.8h54.7V571H613zm-357.1 29.1V597H245v10.9zM242.2 597h-12.3v10.9h12.3zm27.4 10.9V597h-10.9v10.9zm12.7-12.7h-50.2v-14.5h13.7V570h13.7v2.2h24.3v6.2h-24.3v2.3h22.8zm-12.5-8.4h-25.1v2.1h25.1zm36.3 10.2h-12.3v10.9h12.3zm542.2 1.5v-16.3h-6.9c-.8 1-1.6 1.9-2.6 2.7-.1.1-.2.1-.3.2h6.3l1 11h-9.6l-1.1-9.1c-.9.4-1.8.7-2.7.8-.3-2.4-.9-4.8-1.7-7.2v23c0 1.2-.3 2.2-1 2.9s-1.7 1-3 1H804v-31.9h5.5c.8-1.6 1.3-3.2 1.4-4.9h11.8c-.3 1.7-.9 3.4-1.5 4.9h9.6v2.4c1.1-.3 1.9-.9 2.5-1.9.8-1.2 1.2-3 1.4-5.4h10.9c-.1.9-.2 1.7-.3 2.6h14.4v29.2c0 1.7-.5 3-1.4 3.9-1 .9-2.3 1.4-4.1 1.4h-16.7c-.3-3.6-.9-6.7-1.8-9.2h12.6zm-27.2-14.9h-6.5v4.2h6.5zm0 15.3V595h-6.5v3.9zM284.6 597h-12.3v10.9h12.3zm37.9 0v10.9h10.9V597zm26 0h-12.3v10.9h12.3zm-39.7 0v10.9h10.9V597zm742.8 10.9h-56.5v-8.4h5.9V581h15v-1.8h-18.2v-7.3h18.2v-1.8h14.6v1.8h18.2v7.3h-18.2v1.8h15v18.5h5.9v8.4zm-38.3-8.5h4.1v-9.8h11.9v9.8h4.1v-12.3h-20.1zm52.1 4.6h-6.5v-7h5.9v-17.7h15V578h-18.2v-6.2h18.2v-1.6h14.6v1.6h18.2v6.2h-18.2v1.2h15v17.7h5.9v7h-6.2c.6 1.6 1.4 3.1 2.5 4.4h-14.9c-1-1.3-1.7-2.8-2.2-4.4h-15.1c-.5 1.6-1.3 3-2.3 4.4h-14.8c1.5-1.3 2.5-2.8 3.1-4.3m31.8-16.1h-20.1v1h20.1zm-20 4v1h20.1v-1zm0-7.9v1h20.1v-1zm0 12.9h20.1v-1h-20.1zm102.1 7.1h-6.2c.6 1.6 1.4 3.1 2.5 4.4h-14.9c-1-1.3-1.7-2.8-2.2-4.4h-15.1c-.5 1.6-1.3 3-2.3 4.4h-14.8c1.2-1.4 2.1-2.8 2.8-4.4h-6.5v-7h5.9v-16.8h15v-1.7h-18.2v-6.7h18.2v-1.6h14.6v1.6h18.2v6.7h-18.2v1.7h15V597h5.9v7zm-38.3-7.1h4.1v-9.1h11.9v9.1h4.1v-11.1H1141zM102.5 626.3h21.3v33.4c0 2-1.2 3-3.5 3h-17.9v-36.4zm12.2 27.5v-3.2h-2.4v3.2zm0-8.9v-2.7h-2.4v2.7zm-2.4-11.1v2.6h2.4v-2.6zm80.7 29c-9.1.5-18.4.7-28.1.7V658h2.8v-9.1h7.8v-.6h-10.1v-4h10.1v-.6H167v-4h6.9v-9.3h13.4v-.6h-17.5v-4.1h17.5v-1.2h12.1v1.2h17.5v4.1h-17.5v.6h13.4v9.3h6.9v4h-8.5v.6h10.1v4h-10.1v.6h7.8v9.1h2.8v5.6h-28V658h1.4v-9.1h7.9v-.6H194v-4h9.1v-.6h-19.7v.6h9.1v4h-9.1v.6h7.9v8.9h1.5v5zm18.7-7.5h-9.3v.6h9.3zm0-2.2h-9.3v.6h9.3zm0 4.9v-.6h-9.3v.6zm0-7.1h-9.3v.6h9.3zm-9.1-16.2h-18.4v.6h18.4zm-18.4 2.2v.6h18.4v-.6zm0-4.3v.6h18.4v-.6zm0 7.1h18.4v-.6h-18.4zm.3 13.4h-9.3v.6h9.3zm-9.3 2.2v.6h9.3v-.6zm0-4.4v.6h9.3v-.6zm0 7c4.3 0 5.4 0 9.3-.1v-.5h-9.3zm-19.5-5.6c1 .1 2.1.2 3.3.2-.9 3.9-1.5 7.5-1.8 10.9-3.6 0-6.7-.6-9.2-1.7s-4.5-3-6.1-5.6c-.3-.4-.5-.9-.8-1.4-.3 2.1-.5 4.5-.6 7-3.9.7-9 1-15.3 1v-36.4h32v20.1h-5l5.3 2.6q-.6 1.8-1.8 3.3m-5.8-5.8H147c.3 1.1.8 2 1.5 2.8.5-.9 1-1.8 1.4-2.8m-3.4-6v-1.4h-9.7v1.4zm-9.8-7.8v1.4h9.7v-1.4zm3.6 19.8c-.7-1.8-1.2-3.8-1.7-6.1h-1.9v6.2zM283 658h2.8v5.6h-28V658h1.4v-7.7h7.9v-1.1H258v-4.4h9.1v-.6h-19.6v.6h9.1v4.4h-9.1v1.1h7.9v7.5h1.5v5.1c-9.1.5-18.4.7-28.1.7V658h2.8v-7.7h7.9v-1.1h-10.1v-4.4h10.1v-.6H231v-4.9h6.9v-7.5h13.4v-1.1h-17.5v-5h17.5v-1.2h12.1v1.2h17.5v5h-17.5v1.1h13.4v7.5h6.9v4.9h-8.5v.6h10.2v4.4h-10.2v1.1h7.9v7.7zm-34.7-4.3H239v4.2h1.8v-3h5.7v3h1.8zm-.3-14.5h3.6v-2.7h11.2v2.7h3.6v-3.9H248zm18.2 18.8h1.8v-3.1h5.7v3.1h1.8v-4.3h-9.3zm363.3 5v-18.2h7.2v-8.6h-7.2v-10.4h-8.8v10.4h-8.6v8.6h8.6V663zm29.3.2v-5.1h9.3v-8.4h-9.3v-2.1h-10.5v2.1H638v8.4h10.3v5.1zm-39.3-35.9H613l.5 7.7h6.4zm-.3 34.6c.6-4.3.9-9.6 1-16h-6.5c0 4.9-.5 10.2-1.6 16zM560 633.4h2.1l.8 3.7h9.8l-1-3.7h3.3v-6.6h-14.2c0-.6.1-1.2.1-1.8h-11c0 4.1-.9 8.2-2.5 12.2h11.5c.4-1.2.8-2.5 1.1-3.8m41.1 19.6c-.2-.2-.3-.5-.3-1v-13.7h-29.4v11.4c0 1.1-.3 1.9-.8 2.6q-.45.45-1.2.9l-.6-2.3c-1.3.3-2.7.5-4.1.7v-5.2h5.6v-8.2h-21.6v8.2h6v6.4c-2.2.2-4.5.4-6.8.5l.5 9.3c7.9-.4 15.2-1.6 22.1-3.6.6 1.5 1.1 3.1 1.5 4.7 2.9-.9 5.2-2.5 6.7-4.6 1.6-2.1 2.4-4.8 2.4-7.9v-5.7h9.7v12.8c0 1.7.5 2.9 1.4 3.8s2.4 1.3 4.4 1.3h9c.1-3.6.5-7.1 1.1-10.8-1.4.5-2.8.8-4.4.8-.6-.2-.9-.2-1.2-.4m-300.3-12.1c1.4-1.3 2.4-3 3.1-5.1h-9.7v-9.2H348v9.2h-31c-.5 1.4-1.1 2.8-1.7 4.1h31.2v19c0 2.4-1.3 3.6-3.8 3.6h-40.3V653c-2.5 1.2-5.3 1.9-8.3 2.3 0-3.9-.6-7.7-1.8-11.3 3.5-.1 6.4-1.2 8.5-3.1m32.8 7.7H315v5h18.6zm297.3-21.3-.5 7.7h6.2l.5-7.7zm-154-.4h-17c0-.5.1-1.1.1-1.6h-11q-.15 5.1-1.8 9.3h11.1c.2-.5.4-1.1.5-1.6h2.9l.4 1.6h10.2l-.5-1.6h5v-6.1zm112.4 19.4h-7.5l.4 13h7.8zm426.8 8.1v-1.8h-16.6V645h16.6v-2c-5.7.2-11.9.2-18.4.2v-7.6h4.4l1.2-2.2H997v-7.8h52.9v7.8h-3.5c1.4 3.2 2.5 6.5 3.2 10.1l-11.2.5c0-.8-.1-1.5-.2-2.3-2.4.2-4.9.4-7.5.5v2.6h16.6v7.6h-16.6v1.8h19.8v8.2h-54.3v-8.2h19.9zm-2.4-18.7h23.2c-.2-.8-.5-1.5-.8-2.2h-21zm-145.4 1v25.9H880v-16.8h2.7v16.3h10.9v-16.3h2.7v16.3h10.9v-16.3h4.1v7.9h-3.1c.6 2.7 1 5.7 1.1 8.9h5.8c2.6 0 4.5-.6 5.9-1.7 1.3-1.2 2-2.8 2-5v-19.2h-21.2v-1.9H923v-9.1h-54.7v9.1h21.2v1.9zm-63.5 15.9q-.3-5.25-1.8-9.6c9.3 0 16.8-.5 22.6-1.6h-22v-6.5h18.1v-1.1h-15.1v-6.2h15.1v-2.3h13.5v2.3h10.1v2.6c1.1-1.6 2.2-3.4 3.1-5.3l11.9 2.3c-1.3 2.8-3 5.4-5 7.7h4.8v6.5h-12.8c-.6.4-1.3.8-2 1.1h12.9v4.7h-23.5l-.2 1.1h21.6l-1.2 7.5c-.4 2.2-1.3 3.9-2.7 5s-3.6 1.7-6.5 1.7h-21.6c-.3-2.3-.8-4.5-1.6-6.7H843l.2-1.4H819l.8-3.8c-4.6.8-9.6 1.5-15 2m30.4-17.7h5.9c.4-.4.8-.7 1.2-1.1h-7.1zm258.4 22.9c-1.6 2.5-4.1 4.2-7.6 5.3-.7-3-1.7-5.9-3.1-8.9v4c0 2-1.2 3-3.5 3H1061v-25.1h21.9V651c.8-.4 1.4-.9 1.8-1.4q.9-1.2.9-3.3v-10.4h27.8v21.4c0 1.7-.5 3.1-1.5 4s-2.5 1.4-4.5 1.4h-7.6c-.2-2.2-.7-4.3-1.5-6.4h4.5v-1.4h-7.8c-.4 1-.8 2-1.4 2.9m-22.7-15.3v3.1h2.4v-3.1zm2.3 12.1v-2.8h-2.4v2.8zm29.6-5V648h-6.7c0 .6 0 1.1-.1 1.6zm-6.7-7.9v1.6h6.7v-1.6zm49.3 12.7v-1.5h-20.7v-13.7h20.7v-1.1H1127v-12.4h48.1v12.4h-18.4v1.1h20.7v13.7h-2.3c1.4 3 2.5 6.3 3.4 9.9l-10.9 1.9c-.1-1.3-.2-2.5-.4-3.8q-17.55 1.5-43.2 1.5v-8.2h21.4zm-6.1-21.1h23.5v-1.9h-23.5zm17.4 11.7v1.9h8.7V645zm-11.3 1.9V645h-9.8v1.9zm11.3 7.5h8.9l-.6-1.5h-8.2v1.5zm-368-25.6c1.8.7 4.5 1 8.1 1-1 3-1.6 6.1-1.7 9.3-1.7 0-3.3-.1-4.7-.2v4.2H765V639c-1.2.1-2.5.2-4 .2v-.5c-1 1.4-2 2.7-3.1 3.9-.7.7-1.3 1.4-2 2h3.5v6.8l-19.3.8v-7.7h4.8c1.2-.9 2.3-1.8 3.4-2.9H740v-7.3h2.6c.9-1.2 1.8-2.5 2.6-4 1.1-2.1 1.9-4.2 2.5-6.2l8.8 3.1c-1.3 2.7-2.7 5.1-4.2 7.1h2.1c.4-.6.8-1.1 1.2-1.7l5.1 2.5c-.3-1.8-.7-3.6-1.3-5.3 3.1.2 5.5-.1 7.3-.8s3-2.1 3.8-3.9h14.3c.8 1.8 2.1 3 3.9 3.7m-14.4 6.5c-.6.5-1.2 1-1.9 1.4h10.8c-.7-.4-1.4-.9-2-1.4-1.2-1.1-2.4-2.6-3.5-4.4-1.1 1.9-2.2 3.3-3.4 4.4m294.2-.2h13.7v-1.3h10v1.3h13.7v-1.3h9.1v-7.2h-9.1v-1.8h-13.7v1.8h-10v-1.8h-13.7v1.8h-8.7v7.2h8.7zm-420.8-10.3v2.5h-9.2v7.1h29.2v-7.1h-9.1v-2.5zm-5.4 23q1.65-.6 2.7-2.1.75-1.05 1.2-2.7c.3.8.6 1.4.9 1.9.6.8 1.3 1.4 2.1 1.7s1.9.5 3.3.5c0-2 .2-4.3.4-6.8-.9 0-1.6-.2-2-.8q-.6-.75-.6-2.7v-1.5h-8.2v1.3c0 1.2-.4 2-1.1 2.5s-1.9.7-3.6.7c.5 2.9.7 5.7.8 8.6 1.7 0 3.1-.2 4.1-.6m23.2-8.7c-.7-.5-1-1.4-1-2.5v-1.3h-8.2v1.5q0 1.8-.6 2.7c-.4.5-1.1.8-2 .8.2 2.5.3 4.8.4 6.8 1.3 0 2.4-.2 3.3-.5.8-.3 1.5-.9 2.1-1.7q.45-.75.9-1.8c.3 1.1.7 1.9 1.2 2.6.7 1 1.5 1.7 2.6 2.1 1 .4 2.3.6 3.8.6.1-2.9.4-5.8.8-8.6-1.5.1-2.6-.1-3.3-.7m-28.1 22.8c-.5-5.5-.9-10.8-.9-16h-6.4c.1 6 .3 11.4.8 16zm89.7-8.7c2.1-.1 4.2-.3 6.4-.6-1.2 3.3-2 6.4-2.3 9.6h-17.3c-2.1 0-3.6-.4-4.6-1.3-1-.8-1.4-2.2-1.4-4v-6.1h-11.4v-11.6c-.7 1.1-1.4 2.1-2.2 3.1-.6.7-1.2 1.4-1.8 2h2.6v6.8l-18.9.8v-7.7h4.8c1.1-.9 2.2-1.8 3.3-2.9h-8.1V634h2.6c.9-1.2 1.8-2.5 2.6-4 1.1-2.1 1.9-4.2 2.5-6.2l8.4 3.1c-1.3 2.7-2.7 5.1-4.1 7.1h2c.4-.6.8-1.1 1.1-1.7l5.2 2.6v-7.2h11.4v-3.1H720v3.1h11.9v8.8H720v5.6h2.4V638h9.1v12.8H720v2.4c2.6.1 5 .1 7.1 0m-19.3-11.1v-5.6h-9.9c-.3.5-.5 1-.8 1.4h8.4v4.1h2.3zm-10.6 18c.2-2.6.5-5 1-7.2l-21.9.9v8c3.8 0 7.4-.1 10.6-.4 3.3-.3 6.8-.7 10.3-1.3m98.8-8.2h-3.5c1.5 3.7 2.6 7.3 3.2 10.7l-9.3 1.2c-.1-.9-.2-1.9-.4-2.8-6.9 1.1-14.9 1.6-24.1 1.6v-8h3.2l.5-2.7h-4.1v-7.2H796zm-12.3 0H775l-.5 2.7h10.1c-.4-.9-.6-1.8-.9-2.7m-23.9 1.3-19.6.9v8c3.5 0 6.7-.1 9.7-.4s6.1-.7 9.4-1.3c.1-2.9.2-5.3.5-7.2m-219-26.3h-17c0-.5.1-1.1.1-1.6h-11q-.15 5.1-1.8 9.3h11.1c.2-.5.4-1.1.5-1.6h2.9l.4 1.6h10.2l-.5-1.6h5v-6.1zm-109 6.1h3.1l.3 1.6h9.7l-.4-1.6h2.7v-6.2H433c0-.5.1-1.1.1-1.6h-11c-.1 3.2-.9 6.3-2.5 9.3h11.5c.4-.4.5-.9.7-1.5m172.8-6.2h-16.9c0-.6.1-1.2.1-1.8h-11c-.1 4.3-.7 8.4-1.8 12.2h11c.4-1.1.7-2.4 1-3.7h2l.9 3.7h10.4l-1.2-3.7h5.6v-6.7zm-109.5 7.8c.2-.5.4-1.1.6-1.6h3.1l.3 1.6h9.7l-.4-1.6h2.7v-6.2h-14.2c0-.5.1-1.1.1-1.6h-11c-.1 3.2-.9 6.3-2.5 9.3h11.6zm-56.4 21c0 2.6.7 4.5 2.1 5.6 1.4 1.2 3.7 1.8 6.8 1.8h28.1c.2-2.5.9-5.3 1.9-8.3-3.7.5-7.8.8-12.1 1-4.4.1-8.8.1-13.3-.1v-1l23.9-.7-.1-5.9-23.8.5v-1.3l19.3-.4v-4.6l-19.2.3v-1c7.1-.1 13.8-.4 19.9-.8l-.4-5.5c-14.3.4-30.2.5-47.6.2.3 2 .3 4.1.2 6.3h14.3v1.1l-13.7.2v4.9l13.7-.3v1.3l-18.3.4.1 6.2 18.2-.5zm-25.2-7.4h-4.1v13.4h-11.8v-13.4h-3c-.3 3-1.2 5.7-2.5 7.9-1.7 3-4.2 5.3-7.3 6.9-1.5-3.4-3.8-6.8-6.7-10.2v4.5c0 2.3-1.3 3.5-3.9 3.5h-15v-11.9c-.8.2-1.6.4-2.4.5-.1-3.6-.5-7.2-1.3-10.7 1.4 0 2.4-.4 3.1-1.2.5-.6.8-1.4 1-2.3h-3.3v-8.4h22.4v8.4h-9.2l-.3 1.8h8.9v14.8c1.8-.7 3.2-1.6 4-2.6.2-.3.4-.6.6-1h-3v-10.1h3.7v-2h-3.1v-9.3h32.2v9.3h-3.1v2h4.1zm-43.7-2.6h-2v5.9h2zm27.9-7.5v-2h-2.8v2zm567.7-12.7c-.3 1.2-.7 2.4-1.3 3.5h20.4v29.9c0 1.2-.3 2.2-1 2.9s-1.7 1-3 1h-46.1V629h13.7c.5-1.1.9-2.3 1-3.5h16.3zM946.9 646H972v-2.4h-25.1zm25.2 8.1v-2.4H947v2.4zm0-18.4H947v2.3h25.1zm-443.9 19.5V654h-8.8v9.5h-13.7v-6.9c-1.2 1.7-2.9 3-5.1 4.1-3.5 1.7-8.7 2.8-15.6 3.2 0-2.9-.4-5.7-1.2-8.3q3.15.15 5.7 0c1.7-.1 3.3-.4 4.6-.8.7-.2 1.4-.5 2-.7h-10.9l1.4-11.7h19.2v-1.1h-20.2v-5.7h52.7v11.9h-18.8v1.1h21v8.8c0 1.9-.5 3.3-1.4 4.3-1 1-2.3 1.5-4.1 1.5h-11.6c-.1-1.3-.2-2.7-.4-4.1s-.5-2.6-.9-3.7h6.1zm-8.7-12.9h6.8v-1.1h-6.8zm-13.7 5H498l-.1 1.1h7.9zm-51.2 56.5v-2.6h15.6c1.3 0 2.4-.3 3.1-1.1.7-.7 1-1.7 1-3v-16.5h-33.4v9.1h21.8v2.7h-20v18.7c0 1.9.5 3.2 1.4 4 1 .8 2.5 1.3 4.6 1.3h27c.3-3.8 1-7.7 2.3-11.6-5.7.6-12.7.9-20.8.9-1.7 0-2.6-.7-2.6-1.9m-109.8-13.6h-47.3v5h47.3zm-242.6-9.8h54.7v8.2h-14.5v1.9h13.5v21.6c0 1.7-.5 3-1.4 3.9s-2.3 1.4-4.1 1.4H103v-26.8h13.5v-1.9H102v-8.3zm12.1 16.5v2.6c.9-.1 1.6-.2 2.2-.3.8-.2 1.4-.5 1.7-.9s.5-.8.5-1.4zm30.5 11.6v-2.2h-10c-1.2 0-2.1-.3-2.8-1-.7-.6-1-1.6-1-2.9v-5.5h-3v1.3c0 2.5-.9 4.6-2.7 6.2s-4.6 2.7-8.2 3.1c-.6-2.7-1.6-4.9-2.8-6.7v7.6h30.5zm0-11.6h-3.5v2.4h3.5zm-13.7-8.3h-3v1.9h3zm738.8.5h12v-8.4h-12zM279 705h6.3v7.4H279v4.7h-9.3v-4.7h-10.4V705h10.4v-1.6h-2.4c-.1.4-.2.8-.2 1.2l-8.3-1.3c.7-2.1 1.2-4.3 1.4-6.5-.4-1.8-1-3.5-1.9-5.3v20.2c0 1.9-.6 3.2-1.8 4.1s-3.3 1.5-6.2 1.8c-.3-2.3-.8-4.7-1.6-7.1l2.1-.2v-1.2h-2.5v7.8h-7.2v-7.8h-1.9c-.2 1.9-.8 3.6-1.7 5-1.2 1.8-3 3.1-5.3 4-.9-2.9-2.4-5.6-4.7-8.3 1.5-.7 2.5-1.4 3.1-2.2s.9-2 .9-3.5v-13c-.5-2-1.3-4-2.3-5.9 1.7.2 3.1 0 4-.7s1.7-1.8 2.2-3.4h9.4c0 .5 0 1-.1 1.5h13.2l-2.6 7.4h3.1v.4c1.1 0 2-.1 2.6-.3.7-.2 1.2-.5 1.5-1 .2-.3.3-.7.3-1.1h-4v-7h25.6c0 2.8 0 5.1-.1 7.1s-.3 4-.5 6H279v2.8h5.5v6.7H279zm-39.5-8.5h1.8v-2.1h-1.8zm9 0h2.5v-2.1h-2.5zm-2.6-6.9.6-1.7h-4.1c-.4.6-.9 1.2-1.5 1.7zm-4.6 13.6v-1.6h-1.8v1.6zm9.7 0v-1.6h-2.5v1.6zm21.4-15.5c-.1 1.7-.5 3-1 4-.1.2-.2.4-.4.6h2.8c.2-1.5.4-3 .4-4.6zm-2.7 8.9v-3c-.5.4-1.1.8-1.9 1.1-.6.3-1.5.6-2.4.9l2.6.3v.7zm26.3 5.9h50.2v10.6c0 1.4-.4 2.5-1.1 3.2-.8.7-1.8 1.1-3.2 1.1H296zm12.8 8H333v-2.1h-24.2zm589.5-2.6q18.9 0 25.8-.9c-.9 3.1-1.5 6.4-1.7 9.7h-27.9c-4.5 0-8.3-.4-11.5-1.2-1.8-.5-3.5-1.1-5-1.8-2.4 1.2-4.7 2.6-6.9 4.4-.4-2-1-4-1.6-6q-1.05-3-2.1-5.4c1.2-.9 2.5-1.6 3.9-2.2V699h-2.6v-7.8h13.4V705c.6.3 1.2.6 1.8.8v-23.4h13v-2.7h11.5v2.7h13v20c0 1.3-.4 2.2-1.1 2.9s-1.7 1-3.1 1h-31.8c.5.2 1 .3 1.5.5 2.7.7 6.6 1.1 11.4 1.1m-5.2-8.9h3.8v-1.7h-3.8zm18.7 0v-1.7H908v1.7zm0-9.6H908v1.7h3.7v-1.7zm-18.7 0v1.7h3.8v-1.7zm40.4-.3h11.9v-8.4h-11.9zm-151 18.6c6.5-.1 11.2-.4 14-.8-.9 3.1-1.5 6.4-1.7 9.7h-29.7q-4.5 0-7.8-.6c-2.1-.4-3.9-.9-5.4-1.6-.5-.2-1.1-.5-1.7-.8-2.3 1.2-4.6 2.6-6.8 4.3-.4-2-1-4-1.6-6q-1.05-3-2.1-5.4c1.2-.9 2.5-1.6 3.9-2.2v-5.5H741V691h13.8v14.1c.4.3.9.5 1.5.8v-24.1c2.8 0 5.5-.2 8.1-.7s5.4-1.2 8.2-2.2l.8 3.3h21.1v19.3c0 1.4-.4 2.5-1.1 3.3s-1.7 1.1-3.1 1.1h-6.4c-.2-2.4-.6-4.8-1.4-7.2zm0-17.9v7.6h2.3v-7.6zm-14.1 18.1h3.1v-19.1c-1.9.4-3.9.7-6.1.9v7c1.4-.1 2.9-.4 4.5-.7l.7 9c-4.1.9-8.7 1.3-13.6 1.3.3.1.6.2.9.4q3.75 1.2 10.5 1.2m-343.6-1v10c2.7 0 5.3-.2 7.9-.5s4.9-.8 6.8-1.4v-9l-3.3.2V691h-15.5v8.9h4.1zm287.1-3.7h16.2v-8.4h-16.2v-2.3h-11.7v2.3h-4.9c1-1.2 2-2.5 2.8-3.7h32.2v-8h-27.7c.4-.8.7-1.6 1.1-2.4l-11.9-1.7c-.6 1.5-1.1 2.8-1.7 4.1h-12.3v8h8.2c-.8 1.2-1.6 2.5-2.5 3.7H680v8.4h20v2.4h-23.7v8.7H700v3.4h11.7v-3.4h19.8v-8.7h-19.8v-2.4zm-509 4.2v-3.1h-5.1c.3-1 .5-2 .7-3.1h-11c-.2 2-.9 3.5-2.2 4.5s-3.6 1.6-6.7 1.9q-4.65.45-13.5 0c1 3.3 1.6 6.6 1.7 10 8 0 14.1-.5 18.5-1.6 3.8-.9 6.7-2.4 8.7-4.3v1.1c0 1.7.4 2.9 1.3 3.7s2.2 1.1 4.1 1.1h21.2c.2-3.6.9-7.2 1.8-10.8-3.1.3-6.1.5-9.1.6-3.2.1-6.6.1-10.4 0m620-.7c-1-.4-1.8-.8-2.6-1.3v-14.3h-15.6v7.8h4.5v5.2c-2 .6-3.9 1.5-5.7 2.5q1.2 2.4 2.1 5.4c.7 2 1.2 4 1.6 6 2.2-1.8 4.6-3.3 7-4.4.6.3 1.2.7 1.8.9 1.4.7 3.1 1.2 5.2 1.6s4.6.6 7.6.6h29.7c.3-3.2 1-6.4 2.2-9.7q-6.9.9-28.5.9-6 0-9.3-1.2m150.6-18.8v1.1h13.2v5.7h-39.8V689h1.4c-.4-1.8-1.1-3.6-2.1-5.6.9-.1 1.7-.4 2.2-1s.9-1.4.9-2.4h8.8c0 .6-.1 1.1-.1 1.6h5.4v-1.9h10.2v1.9h11.9v6.2h-12zm-10.2 0h-8.9c-.5.4-1.1.8-1.7 1.1h10.5v-1.1zm-302.4 19.2c2.9-.2 5.9-.5 8.8-1-.8 4.1-1.3 7.9-1.5 11.2h-20.6c-3.4 0-5.8-.7-7.4-2.1s-2.3-3.7-2.3-6.8V698c-.4 0-.8.1-1.2.1-.2-4-.7-7.6-1.6-10.7v6.3c0 2-1.2 3-3.5 3h-1.8v1.4h5.9v7.6h-5.9v2l6-.3.6 8.5c-7.8 1.2-15.9 1.8-24.5 2l-.6-9.4 1.4-.1v-10.3h7.3v10h.9v-11.3h-8.7V680H635v4.8c1.4-.1 2.4-.5 3.1-1.2.9-.9 1.4-2.4 1.6-4.4l13.5.9c-.1.7-.2 1.3-.3 1.9h15.4v13.8q0 2.85-.3 5.1t-.9 4.2H658c.8-2.5 1.1-5.4 1.1-8.8v-5.8h-9.3l-1.5 2.1h9v9.4c0 1.3-.4 2.4-1.2 3.1s-1.9 1-3.4 1H648v1.4c5.6-.2 10-.2 12.9-.4m-38.3-17.8h2.8v-1.8h-2.8zm27.3 9.1h-2v1.5h2zm92.3-9.3h12.4v-8.4h-12.4zm309 10.5c.9 2.3 1.3 4.7 1.3 7.2 0 1.9-.4 3.4-1.2 4.6q-1.2 1.8-3.9 2.7c-1.8.6-4.3.9-7.4.9-.2-3.2-.6-6.1-1.2-8.9v12.1h-10.2v-38.3h23.4l-2.9 15.6c.8 1.4 1.6 2.8 2.1 4.1m-8.9 1.6c0-.8-.2-1.7-.5-2.7-.4-1-.9-2-1.6-2.9l1.1-6.7h-2.5v14.9c1.1-.1 1.9-.4 2.5-.8s.9-1 1-1.8m72.7-1.6c.9 2.3 1.3 4.7 1.3 7.2 0 1.9-.4 3.4-1.2 4.6q-1.2 1.8-3.9 2.7c-1.8.6-4.3.9-7.4.9-.2-3.2-.6-6.1-1.2-8.9v12.1h-10.2v-38.3h23.4l-2.9 15.6c.9 1.4 1.6 2.8 2.1 4.1m-8.9 1.6c0-.8-.2-1.7-.5-2.7-.4-1-.9-2-1.6-2.9l1.1-6.7h-2.5v14.9c1.1-.1 1.9-.4 2.5-.8s1-1 1-1.8m-275.5-4.4c-1.3-1.6-2.3-3.5-3-5.4h-4.5v-8.7h11v-2.3H846v2.3h12.3v8.7h-4.8q-1.05 3-3 5.4c2.3.1 4.9 0 7.8-.2-.8 3.6-1.2 6.9-1.3 9.8-6.6-.1-12.1-1-16.4-2.6-4.3 1.6-9.8 2.5-16.4 2.6-.1-2.9-.5-6.2-1.3-9.8 2.9.2 5.4.3 7.7.2m6.9-5.4c.6 1.3 1.5 2.3 2.8 3.1.1.1.2.1.3.2.1-.1.2-.1.3-.2 1.2-.8 2.2-1.9 2.7-3.1zm250 12.1c1.9 3.8 3.1 8.1 3.6 12.8l-10 1.8-.3-2.4c-6.3 1.1-13.1 1.7-20.6 1.7v-35.5h9.5V679h12v2.9h8.6v21.5h-2.8zm-8-6.9v-1.4h-7.4v1.4zm0-8.3h-7.4v1.4h7.4zm5.6 15.2h-13v4l6.3-.3c-.3-.6-.5-1.2-.8-1.8zm-136.8 12.4c3.2.9 7 1.4 11.6 1.4H986c.2-3.4.8-6.7 1.7-9.8q-6.6.9-24.9.9c-5.4 0-9.5-.2-12.4-.7-1.7-.3-3.2-.7-4.6-1.2v-15.3h-13.7v7.8h3.6v7.1c-.3.1-.7.2-1 .4-1.5.6-2.8 1.3-3.8 2 .8 1.3 1.5 2.9 2.1 4.5.7 1.7 1.2 3.4 1.6 5.1 2.6-1.8 5.2-3.3 7.9-4.5 1.8.9 3.7 1.6 5.8 2.3M536 708c1.4.4 3.3.5 5.5.5-1.2 2.9-2.1 5.9-2.6 8.8-4.9 0-8.6-1.1-11.4-3.3q-3.15-2.55-4.5-7.2c-.6.1-1.3.1-1.9.2.1 1 .2 2 .2 3.1 0 2.5-.8 4.3-2.3 5.5q-2.25 1.8-7.5 1.8h-6.2c-.2-1.5-.6-2.8-1.2-4-2.3.9-4.8 1.7-7.5 2.3q-4.8 1.2-11.1 1.5-.3-2.7-1.8-6 9.45-.15 16.2-1.5c3.6-.7 7-1.7 10.2-2.9 0-.4 0-.8-.1-1.2-2.8 1.2-5.8 2.1-8.9 2.8-4.1 1-9.2 1.5-15.1 1.6-.1-1.7-.4-3.4-1-5.2 6.6 0 11.7-.4 15.5-1 2.9-.5 5.8-1.2 8.6-2.1-.1-.3-.3-.7-.5-1-2 .7-4.4 1.2-7.1 1.7-4 .7-9 1-15 1.1-.1-1.7-.4-3.3-.9-5 5 .1 9.1.1 12.2-.1s5.5-.5 7.3-1c.1 0 .1 0 .2-.1h-18.2v-8.1c-.3-1.9-.9-3.7-1.8-5.5 2.6.2 4.8-.1 6.5-.8s2.8-1.7 3.1-3.1H506c-.2.6-.4 1.2-.7 1.8h29.4l-2.1 6.1h6.4v9.6h-3.4l2.8 5.8c-2.2.8-4.4 1.5-6.6 2 .2.2.4.5.6.7 1 1.3 2.2 1.9 3.6 2.2m-2.8-10.4H516c1.2.6 2.1 1.5 2.9 2.6 5.8-.4 10.6-1.3 14.3-2.6m-14.4-5.6v1.3h8.9V692zm-1.4-5.5H502c-.6.6-1.3 1.1-2 1.6h17zm-18 6.8h8.7V692h-8.7zm10.8 19.3v-2c-1.4.7-2.7 1.4-4 2zm-26.4-1.2s0-.1 0 0m66.6-11.7c0 2.7-.2 5.5-.5 8.3-.3 2.9-.8 6.1-1.6 9.7h10.1c.1-1 .2-2 .4-2.9l.6.3c1.6.7 3.6 1.2 5.9 1.6s5.2.6 8.6.6h29.3c.3-3.5 1-7 2.2-10.6q-6.9.9-28.5.9c-1.8 0-3.4-.1-5-.1v-1.3h7.5V700h-7.5v-1.4h7.7v-7.8h-8.3v-1.4h7.8v-6.9h-7.8v-2.3h-12.1v2.3h-8.7v6.9h8.7v1.4h-9.6v7.8H561v7.2c-.5-.1-.9-.3-1.3-.4.1-1.9.2-3.8.2-5.6h-9.5zm629.8 7.1c0 1.9-.4 3.4-1.2 4.6q-1.2 1.8-3.9 2.7c-1.8.6-4.3.9-7.4.9-.2-3.2-.6-6.1-1.2-8.9v12.1h-9.8v-32.8c-.7 1.4-1.5 2.8-2.4 4h1.4v7.2h-7.8c-.9.8-1.9 1.6-2.9 2.3h9.6v18.8h-29.5v-10.6c-.7.1-1.4.3-2.1.4-.2-3.1-.6-6-1.2-8.8 5-.1 9.2-.7 12.6-1.9.1 0 .3-.1.4-.2h-12v-7.2h9.3v-1.6h-8v-6.5h8v-1.9h9.8v1.9h4.3v4c.7-1.6 1.4-3.3 1.9-5.2l8.5 2.4v-2.6h22.9l-2.9 15.6c.9 1.4 1.7 2.8 2.2 4.1 1 2.3 1.4 4.7 1.4 7.2m-35.4-2.4h-9.9v1.5h9.9zm0 7.7v-1.6h-9.9v1.6zm-.9-22.6c.3-.5.7-1 1-1.6h-3v1.6zm26 11.7c0-.8-.2-1.7-.5-2.7-.4-1-.9-2-1.6-2.9l1.1-6.7h-2.5v14.9c1.1-.1 1.9-.4 2.5-.8.7-.4 1-1 1-1.8M581 706.3h11.6v-14.6l2.3 14 10.2-1.2-3.6-20.9-8.8.9v-4.4H581zm-179.4 11.6v-17h11.6V690h-11.6v-10.1h-13.7V690h-10.7v10.9h10.7v17zm36.2-29v-8.3h-15.2v8.3zm-140.4 12.5h47.3v-5h-47.3zm-110.6-22v5.1H200v-5.1zm808.8.6h30.9v31.1c0 2-.6 3.5-1.8 4.6s-2.8 1.7-4.8 1.7h-8.2c-.2-2.8-.7-5.4-1.4-7.9-1 1.9-2.4 3.5-4.2 4.7-2.1 1.5-4.8 2.7-8.3 3.7-1-3.6-2.5-7.1-4.4-10.5 2.2-.2 3.9-.5 5.2-1 1.1-.4 1.8-1 2.4-1.7h-5v-6.8h6.2v-1.6H996v-6.8h6.2v-1.6h-6.7V680zm16.8 17.8h3.7v-1.6h-3.7zm3.7 9.8v-3h-4.1c-.2 1.1-.5 2-.8 3zm0-19.8h-3.7v1.6h3.7zm-210 1.3h14.3v-8.4h-14.3zm-446.5 17.4v10.4c3.3 0 6.5-.2 9.7-.5s5.9-.8 8.3-1.4v-9.3l-3.3.2v-14.8H357v8.9h4.1v6.5zm16.1-25.9h-17v8.3h17zm573.8 26.6v-11.4h35.4v6.9c0 1.6-.3 2.7-1 3.4s-1.7 1-3.1 1h-31.3zm10.2-5.2h14.8v-1.4h-14.8zm-611.2-20.2h-20.1v-2.3h-14.6v2.3h-20.1v7.3h54.7v-7.3zm-144.1 24.1v-6.1h-22v6.1h-11.3v-10.8H167v-9.8h6l-2.7-4.1 10.9-1.7 3.6 5.8h17.1l3.2-6.3 10.4 1.7-2.4 4.6h6.6v9.8h-4.1v10.8zm4.5-12.3v-1.9h-31.1v1.9zm645.4 41.9h-48.1v8h36l-.4 5.3h-20l.3-4.2h-11.9l-1.4 13h38.3l-.3 4.7c-.1 1.2-.7 1.8-1.9 1.8h-.9v-4.2h-39.2v8.6h37.3c.3 1.3.6 2.7.8 4.1h8.1c4.5 0 6.8-1.9 7.1-5.8l1.1-17.9h-5.9zm29.1 36.6h10.9v-7.3h-10.9zm-15.1 0h12.3v-7.3h-12.3zm-570.7-37.4h47v10.9h-47zm38.6 8v-1H306v1zM306 738v1h30.3v-1zm77.8 15.5h27.5v14.3c0 3-1.4 4.5-4.1 4.5h-23.5zm9.8 10.6h7.5v-3.5h-7.5zm-179.8-29.4h7.4v37.4h-7.4v-16.5l-1.6-.3v16.8h-6.7v-16.5l-1.6-.3v5q0 3.15-.3 6c-.2 1.9-.6 3.9-1.1 5.7h-9q1.35-2.85 1.8-5.7c.3-1.9.5-4 .5-6.1v-2.1h-2.4v8.7c0 1.7-.2 3-.7 3.9s-1.2 1.4-2.2 1.4h-24.9v-28.2h6.6V742H165v-7.3h29.2v7.3h-7.3v1.9h6.6v10.7l1.1-8.8h1.3v-11.1h8.1v13.1l1.6.3v-13.4h6.7v13.1l1.6.3v-13.4zm-41.3 14.7v8.6h14v-1.6H183c-.9 0-1.6-.2-2.1-.7s-.8-1.2-.8-2.2v-4.1H179v1.3c0 2.2-.1 4.2-.4 6.1h-5.5c.4-1.9.6-3.9.6-6.1v-1.3zm14 0h-1v1.4h1zm-7.5-5.5h1.1V742H179zm7.5 21.2v-1.4h-14v1.4zm710.5 7h11v-7.3h-11zm-569.1-5h21v5.1h-55.6v-5.1h21v-.9h-18.7V763h18.7v-.9h-16.6v-10h47v10h-16.6v.9h18.7v3.2h-18.7v.9zm8.3-7.8v-1h-8.3v1zm0-4.7h-8.3v1h8.3zm-30.2 0v1h8.3v-1zm8.3 4.7v-1H306v1zm-20.1-8.2H348v-4.5h-53.8zm616.5 21H923v-7.3h-12.3zm-8.6-14.2h21.4v5.8h-55.6v-5.8h21.4v-1.1h-19.6v-5.5h19.6v-1.1h-20.5v-15h53.8v15h-20.5v1.1h19.6v5.5h-19.6zm9.6-16.8h-11v3.6h2.1l.3-2.3h6.8l-.3 2.3h2.2v-3.6zm-32.1 3.6h2.2l-.3-2.3h6.8l.3 2.3h2.1v-3.6h-11v3.6zm-777.4-10h54.7v7.3H142v1.9h14v23.4c0 1.7-.5 3-1.4 3.9s-2.3 1.4-4.1 1.4h-47.4V744h13.5v-2h-14.5v-7.3zm28.9 17.8v-3.1h-3v.7q0 3.15-3 5.1c-2 1.3-4.8 2.1-8.6 2.2-.3-1.6-1-3.3-2.1-5v5.5h30.5v-1.6h-10c-1.2 0-2.1-.3-2.8-1-.7-.5-1-1.5-1-2.8m-16.8-3.1v1.8c.8 0 1.5 0 2-.1q1.2-.15 1.8-.6c.4-.3.6-.6.6-1h-4.4zm30.5 16.1v-1.8h-30.5v1.8zm0-16.1h-3.5v1.4h3.5zm-13.7-7.4h-3v1.9h3zm276.4-1.3v-5.8h-21.8v3c0 1.8-.5 3.1-1.6 3.8-.7.6-1.7.9-3 1v-6.8h-11c.1-.6.2-1.2.2-1.9H360c-.1 1.4-.5 2.6-1.2 3.5s-1.7 1.6-3.1 2.1c1.3 3.3 2.2 6.8 2.6 10.3.8-.2 1.6-.5 2.3-.9v3.8h2.4v1.6h-5.6v7.9h5.6v1.8h-1.4v8.4c3.3 0 6.6-.2 10-.4q5.1-.45 9.3-1.2c0-1.7.2-4.2.6-7.3l-7.5.2v-1.5h7.2v-7.9H374v-1.6h5.6v-7h-14c.5-.4.9-.9 1.3-1.4.1-.1.1-.2.2-.2h12.8c1 2.5 1.8 5.3 2.2 8.5 8.5-.5 12.8-3.5 12.8-9.1v-.2h3.6v4.1c0 1.4.4 2.5 1.1 3.1.8.7 2 1 3.7 1h9.5c.2-3.2.6-6.3 1.4-9.5-1.4.3-3 .5-4.8.5-1.4 0-1.9-.6-1.9-1.9m225.3 6.1H625v2.5h7.8zm-159.1-2.3-1-9.9c-8.9 1.2-18.8 1.6-29.7 1.4q.3 5.85.3 9.6c7.2 0 13.2-.1 18.1-.2q7.35-.3 12.3-.9m10.8 27.4h12.2v-25.3h-12.2zm-16.9-11c2.4.3 5.7.4 9.8.4-1.2 3.7-2.1 7.5-2.6 11.4-5.6 0-10.2-.5-13.8-1.6s-6.6-2.8-8.8-5.2c-.8-.9-1.5-1.8-2.1-2.9-.3 2.5-.5 5.2-.7 8.1-2.5.4-5.1.6-7.7.8s-6.2.2-10.8.2h-5.8V762l2.1-.1v-4.6h-5.9v-10h5.9v-12.4H440v12.4h35.6v10h-15.5c.5.9 1.2 1.5 2.1 2.1 1.3.7 3 1.2 5.4 1.5m-18.5.2q-.9-1.8-1.5-3.9h-7.5v4.2zm175.9-8.7h7.8V750H625zm-9.3 1.4v5.1h36.5v1.1h-35.1v4.8h35.1v1.1h-36.9v6.2h44.9c1.7 0 3-.4 3.9-1.3s1.4-2.2 1.4-3.8v-13.2zm-131.2-9.6h14.3v-9.3h-14.3zm163.3 8.2h7.8V750h-7.8zm-145.6-16.8h38.6v30.2c0 2.2-.7 3.8-2 5s-3.3 1.7-5.9 1.7h-9.4q-.3-3.45-1.2-6.6h-22v-18.4h24.5v14.6h3.6V745H502v-9.4zm13.9 18.9h-7v3.8h7zm86.5 7.3c1 .1 2.1.1 3.3.1-.9 3.9-1.5 7.5-1.8 10.9-3.6 0-6.7-.6-9.2-1.7s-4.5-3-6.1-5.6c-.3-.4-.5-.9-.8-1.4-.3 2.1-.5 4.5-.6 7-1.9.3-4 .6-6.6.8q-3.75.3-8.4.3v-36.4h31.7v20.1h-4.9l5.3 2.5c-.4.9-.8 1.7-1.3 2.4-.1.4-.3.7-.6 1m-5.8-5.9h-3c.3 1.1.8 2 1.5 2.8.3-.4.6-.8.8-1.2.3-.5.5-1.1.7-1.6m-3.5-5.9v-1.4H584v1.4zm-9.2-7.9v1.4h9.3v-1.4zm3.1 19.9c-.7-1.8-1.2-3.8-1.7-6.1H584v6.2zm-15.5-27.3-2.7 15c.8 1.6 1.4 3.1 1.8 4.7q.9 3.45.9 7.2c0 1.9-.3 3.4-1 4.6s-1.8 2.1-3.4 2.7-3.7.9-6.4.9c-.2-3.2-.6-6.1-1.2-8.9v12.2h-10.2v-38.3h22.2zm-8.5 21.3c0-.8-.2-1.7-.5-2.7-.4-1-.9-2-1.6-2.9l1-6.7h-2.3v14.9c1.1-.1 1.9-.4 2.5-.8.5-.5.9-1.1.9-1.8m148.4-4.9h7.8v-2h-7.8zm29-16h54.7v8.2h-21.2v1.9h21.2v21.6c0 1.7-.5 3-1.4 3.9s-2.3 1.4-4.1 1.4h-49.2v-26.8h21.2v-1.9h-21.2zm30.4 21.6h-6v1.8h6zm-6 6.9h6v-1.8h-6zm6-11.9h-6v1.7h6zm-19.1 11.9h4.1v-11.9h-4.1zm32.2-11.9H780v11.9h4.1zm-128.5-4.9h-7.8v2.5h7.8zm-391.5 18.9h21v6.5h-55.6v-6.5h21v-1h-18.7V761h18.7v-1h-16.6v-12.8h16.6v-1h-19.6v-5h19.6v-1c-5.5 0-11.1-.1-17-.2q.3-2.7 0-5.4c18.1.5 34.1.3 47.9-.9l.7 5.7c-5.7.3-11.8.6-18.1.7v1.1h19.6v5H264v1h16.6V760H264v1h18.7v3.7H264v1zm8.3-9.4v-1.5h-8.3v1.5zm-8.3-5.6v1.5h8.3v-1.5zm-22 0v1.5h8.3v-1.5zm8.3 5.6v-1.5h-8.3v1.5zm469.1-9.9h-7.8v2h7.8zm-30.7 4.7h7.8v-2h-7.8zm30 15.2h10.9v-3.5h-10.9v-.9h10.9v-3.5h-10.9v-.9h11.4V753h-11.4v-1.3h-8.3v-6.1h10.1v5.8h10.2v-10.9h-20.3v-1.1h18.7v-4.7h-50.1v4.7h18.7v1.1h-20.3v10.4h10.2v-5.4h10.1v6.4h8.2v.9h-11.3c.1-.4.2-.8.2-1.3h-13.5c-.3 1-.9 1.7-1.7 2.1s-2.1.6-3.9.5c.7 3.2 1 6.3 1 9.4h2.1v8.6h12.8v-11.9c.3-.3.6-.6.8-1 .3-.5.6-1.2.9-2H706v.9h-11.9v3.5H706v.9h-11.9v3.5H706v.9h-13v5.1h38v-5.1h-12.3v-.6zm-22.1-19.9h-7.8v2h7.8zm-50-6.4h18.7v-5.2h-50.1v5.2H634v1.1h-20.3v11.3h10.2v-6.3H634v6.8h12.7v-6.8h10.1v6.7H667V741h-20.3zm333.1 13.2-.2-1.9c-1.5.2-2.8.4-4.1.4v1.8c.8 0 1.5-.1 2.2-.1.8 0 1.5-.1 2.1-.2m3.5 1.7h-2.1c.2 1.3.4 2.7.4 4.2h3.2c.9 0 1.5-.3 2-.8s.7-1.3.7-2.2v-13.3h-4.2zm4.5 9.2-1.4-4.6-7.3.8 1.1 4.6zm-55.9-20.7h9.7V735h-9.7zm48.6 16c-1.3 0-2.3-.3-2.9-.8q-.45-.45-.9-1.2c0 .6-.1 1.2-.1 1.8-1.1.2-2.4.2-4 .2V756h-.4v-2.1h.4v-2.5h2.5v2.5h5.1v-3.2l-2 .5c0-.2-.1-.3-.1-.5-1.9.2-3.8.4-5.7.4v-2.3c.9-.4 1.6-.8 2.4-1.2h-2.4v-1.7c.9-.8 1.6-1.7 2.2-2.7h-1.8c-.3-.2-.5-.5-.7-.7h-12.8l-.7.7h-2.7l2 .9c-.7.7-1.5 1.3-2.5 1.8h1.3c.4-.3.7-.6 1-.9l1.4 1.5c-.8.6-1.6 1.2-2.7 1.7-.4.2-.9.4-1.3.6h1.9c-.1-.1-.1-.3-.2-.4l1.9-.8c.3.6.6 1.3.8 2V747H972v3.9h-12.4v-.3l-2 .5c0-.2-.1-.3-.1-.5-1.9.2-3.8.4-5.7.4v-2.3c.8-.4 1.6-.8 2.3-1.2h-2.4v-1.7c.9-.8 1.6-1.7 2.2-2.7h-2.6c.6-.5 1.1-1.1 1.5-1.6h-9.3v-6.4H959v-1.4h12.3v1.4h15.5v6.4h-8.1c.4.5.9 1 1.4 1.6h-3.7l2 .9c-.6.6-1.5 1.2-2.5 1.8h1.3c.4-.3.7-.6 1-.9l1.4 1.6c-.8.6-1.6 1.2-2.6 1.6-.4.2-.9.4-1.4.6h1.9c-.1-.1-.1-.3-.2-.4l1.9-.8c.3.6.6 1.3.8 2V744h2.4v10.1h-2.2v1.8h-1.6c.1.2.3.4.5.5.3.1.8.2 1.5.2zm-17.1-10.2h4.7v-.6h-4.7zm14.1-9.7c.2.4.5.8.8 1.3V739h-24.7v1.8c.3-.4.6-.8.8-1.2h7.2c-.2.4-.5.9-.8 1.3h2.3v-.9h5.6v.9h2.2c-.3-.4-.6-.9-.8-1.3h7.4zm-1.1 17c-.1-.2-.1-.4-.2-.6h-1.1v.7zm-17.4-3.3-.2-1.9c-1.5.2-2.8.4-4.1.4v1.8c.8 0 1.5-.1 2.2-.1.8 0 1.4-.1 2.1-.2m.8 5.8h7.5v-2.1h-7.5zm17.7 6.8c5-.2 8.9-.5 11.8-1-1.2 2.7-1.9 5.3-2.2 8h-31.6c-3.4 0-6.4-.1-8.8-.4s-4.4-.7-6.1-1.1c-.5-.1-1-.3-1.5-.5-1.8.9-3.6 2-5.2 3.3-.4-1.6-1-3.1-1.6-4.6-.7-1.5-1.4-2.9-2.1-4.1.7-.7 1.6-1.3 2.5-1.8.3-.2.6-.3 1-.5v-10H931v-7.8h10.6v8.8c.5-.3.8-.7 1-1.2.2-.6.4-1.5.4-2.6v-7.2h8.1v13.4c0 1.7-.5 2.6-1.6 2.6h-.3l4 .7-1.2 5.2-7.7-1.5 1.5-5 1.3.2c-.1-1.5-.2-2.6-.4-3.4h1.3v-.9h-1.6c-.2 1-.4 1.9-.7 2.7-.6 1.5-1.6 2.5-2.9 3.1-.2-.8-.4-1.8-.7-2.9-.2-.6-.3-1.1-.5-1.7v7.8c4 1.7 9.6 2.6 16.9 2.6 7.7.1 14 0 19-.2M948 751.5v-.9h-1.4v.9zm-1.4-4.9v.9h1.4v-.9zm10.7 18.7h18.6c.5 0 1-.2 1.4-.5.4-.4.6-.9.7-1.7l.5-2.6-6.8-.7-.3 1.6c-.1.3-.2.6-.4.7-.2.2-.5.2-.7.2h-8.1q-.9 0-.9-.9v-1.6h-7v2.6c-.1 2 .9 2.9 3 2.9m-5.5-8.6v-.8h-.4v-2.1h.4v-2.5h2.5v2.5h5.3v2.1H958c.1.2.2.4.4.5s.6.2 1.2.2l-.4 2.8c-1.2 0-2-.3-2.6-.8-.3-.3-.6-.6-.8-1.1 0 .5-.1 1.1-.1 1.7-1.1.2-2.4.2-4 .2v-2.7zm2.5-.1 1.2-.1c-.1-.2-.1-.4-.1-.6h-1.1zm8.1 5h8.1l-.3-2.3h-8.1zm9.6-18.7h-12.4v1.6H972zm-12.4 3.6H972V745h-12.4zm.3 4.9v1.9h7.8l-.2 1.3h-3.1l.1-.7h-4.1l-.2 2.5h8c-.1.9-.2 1.8-.3 2.6h3.8c.2-1.6.4-3 .4-4.4h-.7l.3-3.1h-11.8z" style="fill:#fbfbfb"/></svg>