<svg xmlns="http://www.w3.org/2000/svg" viewBox="0 0 1280 960"><path d="M393.8 258.5c16.2 0 29.3 13.1 29.3 29.3s-13.1 29.3-29.3 29.3-29.3-13.1-29.3-29.3 13.1-29.3 29.3-29.3zm212.2 18c12 0 21.8 9.8 21.8 21.8s-9.8 21.8-21.8 21.8-21.8-9.8-21.8-21.8 9.8-21.8 21.8-21.8zm302.8-17.2c12 0 21.8 9.8 21.8 21.8s-9.8 21.8-21.8 21.8-21.8-9.8-21.8-21.8 9.8-21.8 21.8-21.8zM610 530.9c12 0 21.8 9.8 21.8 21.8s-9.8 21.8-21.8 21.8-21.8-9.8-21.8-21.8 9.8-21.8 21.8-21.8zm161.8-4.4c12 0 21.8 9.8 21.8 21.8s-9.8 21.8-21.8 21.8-21.8-9.8-21.8-21.8 9.7-21.8 21.8-21.8zm-19.9 270.2c12 0 21.8 9.8 21.8 21.8s-9.8 21.8-21.8 21.8-21.8-9.8-21.8-21.8 9.8-21.8 21.8-21.8zm102.7-26.6c12 0 21.8 9.8 21.8 21.8s-9.8 21.8-21.8 21.8-21.8-9.8-21.8-21.8 9.8-21.8 21.8-21.8zM745.2 264c12 0 21.8 9.8 21.8 21.8s-9.8 21.8-21.8 21.8-21.8-9.8-21.8-21.8 9.8-21.8 21.8-21.8z" style="fill:#cdcdcd"/><path d="m352.8 272.1 11.7 3.8c-3 10.6-7.4 20.8-13 30.3l-11.1-6.2c5.4-8.7 9.6-18.1 12.4-27.9zm92.8-82.4h-14.9c-.8 3.5-1.9 7-3.1 10.4h24.6l-1.2 11.7H349.1l1.2-11.7h25.2c-.3-3.5-.7-7-.9-10.4h-15.1l1.2-11.4H397l1.2-10.2h13.2l-1.2 10.2h36.6l-1.2 11.4zm-79.9 28.8h57.4c7.8 0 11.4 4.1 10.5 11.4l-4.2 38.4h-34c3.9 4.4 7.4 9.2 10.5 14.2l-9.8 6.9c-3.2-6.2-7.3-11.9-12.1-17l5.9-4.1h-30l5.8-49.8zm13.8 58c-1.6 15.4 3.8 22.5 14.2 22.5 9.1 0 15.2-4.8 17.4-14.5l12.1 3.4c-3.7 13.7-13.3 23.1-29.7 23.1-18 0-28.8-11.3-26.2-34.5h12.2zm38.4-19.6 1-8.9h-44.2l-1 8.9h44.2zm2.1-18.8.9-8.5h-44.1l-1 8.5H420zm-31.5-38H414c1.3-3.4 2.3-6.9 3.2-10.4h-29.6l.9 10.4zm45 72.1c4.3 9.6 7.8 19.5 10.4 29.7l-11.9 4.7c-2.4-10.2-5.8-20.2-10.2-29.7l11.7-4.7zm42.5-99.5h21.1c7.2 0 9.7 6.3 7.8 13.2l-11.6 40.7c10.7 26.2 4.2 55-17.9 56.2l-2.9 26.9h-11.1l14.6-137zm6.9 54.3 11.7-42.9H486l-9.2 86.5c11.5-2.3 16.5-18.6 6.1-43.6zm18.3 55.8 6.3-58.8h-8.6l1.5-11.7h8.8c5 0 8.2 2.5 8.9 7.2 7-7.1 12.7-15.5 16.8-24.6h-10.1l1-11h13.3c1.7-5.2 3.1-10.4 4.1-15.8l10.7 1.3c-1.1 4.9-2.4 9.7-4 14.5h19l-1 11h-22.2c-1.6 3.5-3.4 7-5.3 10.4h14.5c6 0 9.1 3.5 8.3 10l-6.3 57.6c-1.2 11-6.4 14.8-12.9 14.8s-10.8-4.7-11.3-14.3l9.1-1.3c.3 3.1 1 4.7 2.3 4.7s2.2-1.6 2.5-4.8l1.5-13.5h-14.9l-3.1 28.1H520l7-62.1c-3.1 3.6-6.4 6.9-10 10l-5.6 50.5c6.7 8.9 14.5 13 22.8 13 9.2 0 15.8-2.9 22.1-6.7l4.8 10.7c-8.6 5.7-16.4 8-28.2 8-9.8 0-19.6-4.8-28.1-14.9-4.7 5-9.7 9.6-15 13.9l-6.7-9.8c6.5-5.2 12.5-10.7 18.1-16.4zm16.1-109.4c2.3 9 4.1 18.2 5.4 27.4l-10.2 2.9c-1-9.3-2.8-18.4-5.3-27.4l10.1-2.9zm32.1 75.1 1.3-11.4h-15.1l-1.3 11.4h15.1zm2.3-21.2 1.3-11.4h-15.2l-1.2 11.4h15.1zm57.5 6h-23.6l1.3-12.9h24.9c7 0 10.4 4.2 9.5 11.7-3.7 25.6-15.4 50.3-41.3 64.4l-4.5-12.4c19.7-10.6 30.7-29.7 33.7-50.8zm7 65c4.1 0 6-2.6 6.7-9.5l8.9-81.5h-29.1l1.5-12.9h30.3c7.9 0 11.6 5.6 10.7 13.3l-1.9 16.7 1.8 7.5a84.93 84.93 0 0 0 29-24.6l8.6 8.8c-8.9 11.6-19.9 20.2-34.2 27.2 7 20 17.3 33.4 31.2 42l-7.2 12.1c-16.2-12.3-26-25.2-32-46.1l-4.1 37.9c-1.6 15.1-8.3 22.2-20.3 22.2-9.7 0-17-6.9-20.9-20.5l11.7-4.7c3.1 9.3 6.1 12.1 9.3 12.1zm7.5-129.8c14 3.7 27.7 8.7 40.8 14.8l-6.4 12.3c-12.9-6.5-26.4-11.5-40.4-14.9l6-12.2zm104.8 86h-26.2l1.2-11.1h30.7c1.2-2.6 2.2-5.3 3.2-7.9h-24.1l1.2-10.5H741c.7-2.3 1.3-4.7 1.9-7.2h-33.7l1.2-11.1h34.8c.6-2.8 1-5.7 1.5-8.6l12.3 1c-.3 2.5-.7 5.1-1.2 7.6H796l-1.2 11.1h-39.2l-1.8 7.2h34.5l-1.2 10.5h-36.6c-1 2.6-1.9 5.3-3.1 7.9H795l-1.1 11.2h-15.4l-.9 9.5h15.1l-1.2 10.4h-14.9l-.9 9.7c-1.6 16.4-10.2 26.3-25.5 26.3-14.2 0-21.1-7.2-24.6-17.3l11.7-3.8c2.3 6 6.9 8.9 12.4 8.9 7.9 0 12.4-4.4 13.6-15.7l.9-8.2h-15.7c1.9 4 3.5 7.9 5 11.9L744 289c-1.9-4.5-4-9.7-6.4-14.6H730c-8.1 10.7-17.4 20.4-27.7 29l-7.9-8.8c15.1-13 26.1-26.1 34.1-40.1zm26.1-66.6H743c.9 3.3 1.6 6.7 2 10.1l-11 3.1c-.7-4.4-1.7-8.9-3-13.2h-5.3c-3.6 5.6-7.6 10.9-12 15.8l-9.2-7.5c7.8-8.5 14.1-18.2 18.7-28.7l10.8 3.2c-.9 2.2-1.6 4.4-2.6 6.4h24.4l-1.2 10.8zm10.8 76.1.9-9.5h-23.9c-1.6 3.3-3.5 6.4-5.4 9.5h28.4zm3.2-96.3 12 3.7-2.2 5.9H804l-1.2 10.7h-13.3c1 3.7 2.2 7.3 2.8 10.5l-11.1 3.2c-.9-4.1-2-9.1-3.5-13.8h-4.4c-2.3 4.2-4.9 8.2-7.9 11.9l-10.7-6c6-7.5 10.3-15.7 13.9-26.1zM418.8 488.3c12.9 6.1 20.9 17.7 20.9 32.4 0 24.6-15.1 40.8-40 47.6l-4.1-12.2c20.2-6.7 31.5-18 31.5-36 0-8.8-4.5-15.4-11.6-19.3-5.4 18.9-11.6 34.5-19.5 44.9-7.3 9.8-17.7 15.7-31.3 15.7-18.4 0-24.4-13.3-24.4-25.5 0-21.2 14.8-40.2 35.3-48.1.9-8 1.9-16 3.2-24h-27.5l1.5-12.5H381c1.2-6.4 2.6-12.9 4.1-19.2l11.7.9c-1.3 6.1-2.6 12.3-3.7 18.3h47.4l-1.5 12.5h-48.3c-1.2 7-2.2 13.9-3.1 20.8 3-.5 6-.7 9.1-.7 3.6-.1 7.3.3 10.8 1 .9-3.2 1.6-6.6 2.4-9.8l11.4 2.6c-.7 3.5-1.6 7.2-2.5 10.6zm-53.6 60c2.4 0 4.7-.3 7-1 0-14.5.6-29.7 1.9-45.4-13.3 7.5-20.6 21.2-20.6 33.7 0 7.6 4.1 12.7 11.7 12.7zm39.2-51.4c-2.6-.4-5.3-.6-7.9-.6-3.5 0-7 .4-10.4 1-1.6 15.4-2.6 30.4-2.9 45.4 8.5-9.2 15.6-26.2 21.2-45.8zm77.2-61.5 12.6 1.2c-2.3 10.5-4.5 21.8-6.6 33.1 8.6-15.1 20.6-23.9 32.9-23.9 17.9 0 29.7 13.8 29.1 39.2-.7 33.8-18.3 67.2-65.6 81.7l-5.6-12.9c41-13.3 55.5-38.9 56.2-67.3.3-17.7-5.1-26-16.1-26-11.3 0-29.3 15.4-36.1 44.9-.4 3.8-.9 7.6-1.2 11.3h-12.7c2.2-27.4 6.5-54.6 13.1-81.3zm122.8 42-23 1.5 1.2-12.3L608 465c2.6-9.2 5.1-18.9 7.6-29.4l12.9 1.8c-2.2 9.5-4.4 18.4-6.7 26.9 19.6.1 28.4 13.3 28.4 36 0 24.7-7 63.4-31.8 63.4-6.8.1-13.5-1.8-19.3-5.4l4.5-11.4c4.2 1.9 9.1 3.7 13.6 3.7 16.2 0 20-34.2 20-49.3 0-17.1-6.5-25.3-16.5-24.6l-2.5.1c-9.5 32.2-21.1 58.1-38.3 84.8l-11.2-7.5c15.6-24 26.5-47.5 35.7-76.7zm72.7 45.1-11.9 3.7c-2.2-18.6-5.1-35.6-10-49.9l12.3-4c4.8 15.1 7.7 32.1 9.6 50.2zm-11.4-82.4 5.7 19.9-8.3 2.3-5.6-19.9 8.2-2.3zm11.3-5.2 5.3 19.8-7.9 2.4-5.6-19.9 8.2-2.3zm38.5 98.8c0 11.7 8 16.4 21.7 16.4 12.5 0 25.5-4.2 37.5-11.1l5 13.2c-14.3 8.5-28.7 12.3-43.6 12.3-19.8 0-35.7-9.5-35.7-30 0-20.8 13.6-38.4 33.2-51.7l-5.1-43.7 14.3-1.6 4.4 37.5c12.5-6.3 25.6-11.2 39.2-14.5l2.8 13.5c-34.5 9.9-73.7 30.8-73.7 59.7zM863.2 478c23.8 0 36.3 11.6 36.3 30.1 0 33.5-29.4 50.9-62.6 58.3l-2.3-14.9c27.4-5.9 50.2-18.9 50.2-43 0-11-6.7-16.2-21.7-16.2-13.6 0-26.5 2.8-39.4 7.2l-2.9-13.9c13.5-5 27.9-7.5 42.4-7.6zm31.7-20.6h-57.1l1.9-14.2h57.1l-1.9 14.2zm-59.5-231h60.1c8.5 0 12.4 4.3 11.6 12.2l-3 31.2h-19.5l-1.2 11.8c-1.3 12.4 2.2 17 8.4 17 7.8 0 13-3.9 14.2-20.1l12.2 1.3c-1.8 20.7-9.8 31.6-27.3 31.6-14.9 0-21.9-10.6-20-29.2l1.3-12.4-12.1.1c-3.9 23.7-16.1 36.3-45.2 41.3l-3-12.8c21.2-3.4 31.8-11 35.2-28.5h-16.4l4.7-43.5zm-13-21.5H848c-.8-5.3-1.2-10.7-1.3-16.1h-15.3l.9-12.1h37.3l1.2-10.3h13.4l-1.2 10.3h37l-.9 12.1h-14.5c-1.4 5.5-3.1 10.9-5.2 16.1h24l-.8 12.2h-101l.8-12.2zm69.5 52.1 1.6-18.4h-46.3l-1.9 18.4h46.6zm-30.6-52.1h24.2c2.1-5.3 3.8-10.6 5.2-16.1H860c.3 5.5.7 10.6 1.3 16.1zM342.6 806.8 359 689.5h14.5l-6.8 48.8H396l6.8-48.8h14.5l-16.4 117.2h-14.5l7.7-54.7h-29.3l-7.7 54.7h-14.5zm110.3 0 .7-8c-4.7 6.3-9.9 9.4-15.5 9.4-5.7.1-11.1-2.6-14.3-7.4-3.5-4.9-5.3-12.7-5.3-23.2.1-5.8.5-11.5 1.3-17.3 1.9-14.3 5.6-25.1 10.9-32.4 5.3-7.3 11.6-11 18.9-11 6.5 0 11.2 3 14.1 8.9l1-7.5h14.1l-12.5 88.5h-13.4zm-20-28.3c0 5.3.7 9.4 2.1 12.3 1.2 2.7 3.9 4.5 6.9 4.3 3.3 0 6.2-1.7 8.7-5.1 2.7-3.8 4.6-8.1 5.7-12.6l4.6-32.3c.1-4.5-.8-8.2-2.5-11-1.6-2.6-4.4-4.2-7.5-4.1-4.2 0-7.8 2.9-10.6 8.8s-4.9 13.6-6.1 23.2c-.9 5.5-1.3 11-1.3 16.5zm49.3 28.3 12.6-88.5H508l-.7 8.6c1.9-3.2 4.6-5.8 7.8-7.6 2.7-1.5 5.8-2.4 8.9-2.4 3.7-.1 7.4 1 10.4 3.2 2.8 2.1 4.6 5.5 5.5 10.2 2.4-4.7 5.3-8.1 8.6-10.2 3-2 6.5-3.1 10.2-3.2 4.5-.2 8.8 1.5 12 4.6 3 3.1 4.6 7.9 4.6 14.5 0 2.3-.2 4.7-.6 7l-9 63.8h-14.2l8.8-61.5c.3-1.7.4-3.4.4-5.1 0-6.9-2.6-10.3-7.8-10.3-3.1 0-5.8 1.5-8.2 4.4-2.6 3.4-4.4 7.4-5.1 11.7l-8.6 60.8h-14.2l8.8-61.5c.3-1.7.4-3.4.4-5.1 0-6.9-2.6-10.3-7.8-10.3-3 0-5.7 1.4-8 4.2-2.5 3.3-4.3 7.2-5.1 11.3l-8.7 61.4h-14.2zm97.9 0 17.3-121.9h14.1l-5.7 39.6c4.1-5.1 9.1-7.7 15.2-7.7 5.9-.2 11.4 2.9 14.3 8 3.3 5.3 5 13.1 5 23.2 0 4.4-.3 8.8-.9 13.2-1.6 14.2-5.1 25.6-10.4 34.1s-12.1 12.8-20.2 12.8c-6.5 0-11.1-3-13.9-8.8l-1.6 7.4-13.2.1zm20.2-16c1.5 2.7 4.4 4.4 7.5 4.3 8.2 0 13.9-10.8 17-32.5.8-5 1.3-10.1 1.3-15.2 0-11.7-3-17.5-9.1-17.5-3.2 0-6.3 1.3-8.4 3.7-2.6 2.8-4.4 6.2-5.4 9.9l-5.2 36c-.2 4.6.6 8.4 2.3 11.3zM705 718.3l-12.6 88.5h-13.2l.7-8.6c-1.9 3.2-4.6 5.8-7.8 7.6-2.7 1.5-5.8 2.4-8.9 2.4-4.5.2-8.8-1.5-12-4.6-3-3.1-4.6-7.9-4.6-14.5 0-2.3.2-4.7.6-7l9-63.8h14.2l-8.8 61.5c-.3 1.7-.4 3.4-.4 5.1 0 6.9 2.6 10.3 7.8 10.3 3 0 5.7-1.4 8-4.2 2.6-3.3 4.4-7.2 5.2-11.3l8.7-61.4H705zm1.9 88.5 12.5-88.9h13.8l-1.6 11.1c5.3-7.9 12.7-11.9 22.2-11.9l-1.9 14.4c-5.7-.7-11.4 1.1-15.7 4.9-3.7 3.4-6.2 8.4-7.7 14.9l-7.8 55.4-13.8.1zm50.3 4.6c.9 3.5 2.7 6.6 5.2 9.1 2.1 2.1 4.9 3.3 7.8 3.3 9.4 0 14.9-8.5 16.5-25.4-4.7 6.5-10 9.7-15.7 9.7-5.6.1-10.9-2.6-14.2-7.2-3.6-4.8-5.4-12.7-5.5-23.5.1-5.7.5-11.4 1.3-17.1 1.9-14.3 5.5-25.1 10.8-32.4 5.3-7.3 11.6-11 18.9-11 6.5 0 11.2 3 14.1 8.9l1-7.5h14.1L800 798.4c-1.8 13-5.2 22.7-10.1 29.2s-12 9.7-21.2 9.7c-5.8.1-11.4-1.9-15.8-5.7-4.4-3.8-7.6-9-9.6-15.8l13.9-4.4zm8.6-32.5c0 5.2.7 9.2 2.1 12 1.3 2.7 4 4.4 7 4.2 3.3 0 6.2-1.7 8.7-5.1 2.7-3.8 4.6-8.1 5.7-12.6l4.7-32.3c.1-4.5-.8-8.2-2.5-11-1.6-2.6-4.4-4.2-7.5-4.1-4.3 0-7.8 3-10.6 8.8-2.8 5.9-4.9 13.6-6.2 23.2-.8 5.6-1.3 11.3-1.4 16.9zm84.7-62.1c7.8 0 13.5 2.5 17 7.5s5.3 12.4 5.3 22.2c-.1 6.6-.6 13.1-1.6 19.6h-40.6c-.6 5.6-.9 9.6-.9 11.9 0 5.4.8 9.6 2.4 12.6 1.6 3 4.3 4.5 8.2 4.5 7 0 12-4.7 15.1-14.2l12.9 1.9c-2.3 8-6.1 14.2-11.2 18.7-5 4.4-11.5 6.8-18.1 6.7-8.2 0-14.1-2.6-17.6-7.8-3.5-5.2-5.3-12.7-5.3-22.3.1-5.4.4-10.8 1.2-16.1 3.8-30.1 14.9-45.2 33.2-45.2zm7.7 37.5c.3-2.9.4-5.6.4-8 0-10.9-3.1-16.4-9.3-16.4-7.9 0-13.5 8.1-16.8 24.4h25.7zm19.3 52.5 12.5-88.9h13.8l-1.6 11.2c5.3-7.9 12.7-11.9 22.2-11.9l-1.9 14.4c-.9-.1-1.7-.2-2.6-.1-4.8-.1-9.5 1.7-13.1 5.1-3.7 3.4-6.2 8.4-7.7 14.9l-7.8 55.4-13.8-.1z" style="fill:#040404"/><path d="M301.6 168.5c-.4-.7-1.2-1.1-2-1-1.2 0-2.3.9-3.2 2.6-1.2 2.6-1.9 5.4-2.2 8.3.6-.7 1.3-1.3 2.1-1.8.8-.4 1.7-.6 2.6-.6 1.6-.1 3.2.7 4.1 2.1 1 1.6 1.5 3.5 1.4 5.4 0 1.1-.1 2.1-.3 3.2-.4 2.4-1.4 4.6-2.9 6.6-1.3 1.8-3.4 2.8-5.6 2.7-2.3 0-3.9-.8-4.8-2.3-1-1.9-1.5-4.1-1.4-6.3.1-2.5.3-4.9.7-7.4.8-5.2 1.9-9.2 3.5-11.9 1.6-2.7 3.7-4.1 6.5-4.1 1.7-.1 3.3.6 4.3 1.9.9 1.3 1.5 2.8 1.6 4.4l-3.5.7c-.2-.9-.4-1.8-.9-2.5zm-8.6 19c-.1 1.2.2 2.4.7 3.6.4.8 1.2 1.3 2.1 1.3 2.2 0 3.8-2 4.6-6.1.2-.9.3-1.9.3-2.8.1-1.1-.2-2.2-.8-3.2-.5-.8-1.4-1.3-2.3-1.2-2.3 0-3.7 2-4.4 5.9-.1.8-.2 1.7-.2 2.5zm23.3-18.1c-.8.9-2 1.4-3.3 1.3-1.6.1-3-1.1-3.1-2.7v-.4c-.1-1.3.4-2.6 1.2-3.5.8-.9 2-1.4 3.3-1.3.8 0 1.6.2 2.2.8.6.6.9 1.4.8 2.2.2 1.3-.2 2.6-1.1 3.6zm-4.1-.7c.3.4.8.6 1.2.6.7 0 1.3-.3 1.7-.9.4-.6.7-1.4.6-2.2 0-.5-.1-1-.4-1.3-.3-.3-.7-.5-1.1-.5-.6 0-1.2.3-1.6.8-.5.6-.7 1.3-.8 2.1-.1.4.1.9.4 1.4zm-12.6 254.7c-.4-.7-1.2-1.1-2-1-1.2 0-2.3.9-3.2 2.6-1.2 2.6-1.9 5.4-2.2 8.3.6-.7 1.3-1.3 2.1-1.8.8-.4 1.7-.6 2.6-.6 1.6-.1 3.2.7 4.1 2.1 1 1.6 1.5 3.5 1.4 5.4 0 1.1-.1 2.1-.3 3.2-.4 2.4-1.4 4.6-2.9 6.5-1.3 1.8-3.4 2.8-5.6 2.7-2.3 0-3.9-.8-4.8-2.3-1-1.9-1.5-4.1-1.4-6.3.1-2.5.3-4.9.7-7.4.8-5.2 1.9-9.2 3.5-11.9 1.6-2.7 3.7-4.1 6.5-4.1 1.7-.1 3.3.6 4.3 1.9.9 1.3 1.5 2.8 1.6 4.3l-3.5.7c-.2-.7-.4-1.6-.9-2.3zm-8.6 19c-.1 1.2.2 2.4.7 3.5.4.8 1.2 1.3 2.1 1.3 2.2 0 3.8-2 4.6-6 .2-.9.3-1.9.3-2.8.1-1.1-.2-2.3-.8-3.2-.5-.8-1.4-1.3-2.3-1.2-2.3 0-3.7 2-4.4 5.9-.1.8-.2 1.7-.2 2.5zm23.3-18.1c-.8.9-2 1.4-3.3 1.3-1.6.1-3-1-3.1-2.6v-.5c-.1-1.3.4-2.6 1.2-3.5.8-.9 2-1.4 3.3-1.3.8 0 1.6.2 2.2.8.6.6.9 1.4.8 2.2.2 1.3-.2 2.6-1.1 3.6zm-4.2-.8c.3.4.8.6 1.2.5.7 0 1.3-.3 1.7-.9.4-.6.7-1.4.6-2.2 0-.5-.1-1-.4-1.3-.3-.3-.7-.5-1.2-.5-.6 0-1.2.3-1.6.8-.5.6-.7 1.3-.8 2.1.1.6.2 1.1.5 1.5zm56.6-71.6c-1.3-1.6-1.9-3.6-1.8-5.6 0-.6 0-1.2.1-1.8.2-1.8.8-3.6 1.8-5.1.9-1.4 2.1-2.4 3.5-3.2-.9-.6-1.6-1.4-2.1-2.4s-.8-2.1-.8-3.3v-.9c.1-2.1 1-4.1 2.4-5.6 1.4-1.4 3.3-2.1 5.2-2.1 1.7-.1 3.4.5 4.6 1.8 1.2 1.3 1.8 3.1 1.7 4.8 0 1.7-.4 3.4-1.3 4.9-.8 1.4-2 2.4-3.4 3.1 1.1.6 2 1.6 2.5 2.7.6 1.3 1 2.7.9 4.1 0 .4 0 .8-.1 1.2-.1 2.5-1.1 5-2.7 6.9-1.5 1.6-3.5 2.5-5.7 2.4-1.7.2-3.5-.5-4.8-1.9zm2.2-5.8c-.1 1.2.2 2.4.8 3.4.5.7 1.4 1.1 2.3 1.1 1.1 0 2.2-.6 2.8-1.5.9-1.4 1.4-3 1.5-4.6 0-.6.1-1.1.1-1.4.1-1.2-.2-2.4-.8-3.4-.5-.8-1.3-1.3-2.3-1.2-1.2 0-2.3.6-2.9 1.6-.8 1.3-1.3 2.9-1.4 4.4-.1.5-.2 1-.1 1.6zm2.4-15.4c0 1 .2 2 .7 2.9.4.7 1.2 1.1 2 1.1 1.1 0 2.1-.7 2.6-1.7.7-1.3 1-2.7 1-4.1.1-1-.2-1.9-.7-2.7-.4-.6-1.2-1-2-1-2 0-3.2 1.5-3.5 4.6-.1.3-.1.6-.1.9zm13.3 21.1c-1-1.4-1.5-3.6-1.5-6.5 0-2.4.3-4.9.6-7.3.4-3.1 1.1-6.2 2-9.2.6-2 1.6-3.7 3.1-5.2 1.2-1.1 2.8-1.7 4.5-1.7 2.2 0 3.8.7 4.8 2s1.4 3.6 1.4 6.6c0 2.5-.2 4.9-.5 7.4-.7 5.5-1.9 9.6-3.4 12.1a7.09 7.09 0 0 1-6.3 3.8c-1.8.2-3.6-.5-4.7-2zm2.3-6.6c-.1 1.3.1 2.7.7 3.9.4.8 1.2 1.3 2.1 1.2 1 0 1.9-.5 2.4-1.3.8-1.2 1.3-2.5 1.6-3.9.5-1.7.9-4.1 1.4-7.2.4-2.5.7-5 .7-7.5.1-1.3-.1-2.6-.6-3.8-.4-.8-1.2-1.2-2-1.2-1 0-1.9.5-2.4 1.3-.8 1.2-1.3 2.5-1.6 3.9-.6 2.4-1.1 4.8-1.4 7.3-.5 2.5-.8 4.9-.9 7.3zm16.8 6.6c-1-1.4-1.5-3.6-1.5-6.5 0-2.4.3-4.9.6-7.3.4-3.1 1.1-6.2 2-9.2.6-2 1.6-3.7 3.1-5.2 1.2-1.1 2.8-1.7 4.5-1.7 2.2 0 3.8.7 4.8 2s1.4 3.5 1.4 6.6c0 2.5-.2 5-.6 7.4-.7 5.5-1.8 9.6-3.4 12.1a7.09 7.09 0 0 1-6.3 3.8 5 5 0 0 1-4.6-2zm2.3-6.6c-.1 1.3.1 2.7.7 3.9.4.8 1.2 1.3 2.1 1.2 1 0 1.9-.5 2.4-1.3.8-1.2 1.3-2.5 1.6-3.9.4-1.7.9-4.1 1.4-7.2.4-2.5.7-5 .8-7.5.1-1.3-.1-2.6-.6-3.8-.4-.8-1.2-1.3-2-1.2-1 0-1.9.5-2.4 1.3-.8 1.2-1.4 2.5-1.7 3.9-.6 2.4-1.1 4.8-1.4 7.3-.6 2.5-.8 4.9-.9 7.3zm-45 259.6c-1.3-1.6-1.9-3.6-1.8-5.6 0-.6 0-1.2.1-1.8.2-1.8.8-3.6 1.8-5.1.9-1.4 2.1-2.5 3.5-3.2-.9-.6-1.6-1.4-2.1-2.4s-.8-2.2-.8-3.3v-.9c.1-2.1 1-4.1 2.4-5.6 1.4-1.4 3.3-2.1 5.2-2.1 1.7-.1 3.4.5 4.6 1.8 1.2 1.3 1.8 3.1 1.7 4.8 0 1.7-.4 3.4-1.3 4.9-.8 1.4-2 2.4-3.4 3.1 1.1.6 2 1.6 2.5 2.7.6 1.3 1 2.7.9 4.1 0 .3 0 .7-.1 1.2-.2 2.5-1.1 5-2.8 6.9-1.5 1.6-3.5 2.5-5.7 2.4-1.6.2-3.4-.5-4.7-1.9zm2.1-5.9c-.1 1.2.2 2.4.8 3.4.5.7 1.4 1.1 2.3 1.1 1.1 0 2.2-.5 2.8-1.5.9-1.4 1.4-3 1.5-4.6 0-.6.1-1.1.1-1.4.1-1.2-.2-2.4-.8-3.4-.5-.8-1.3-1.3-2.3-1.2-1.2 0-2.3.6-2.9 1.6-.8 1.3-1.3 2.8-1.5 4.4.1.6 0 1.1 0 1.6zm2.5-15.3c0 1 .2 2 .7 2.9.4.7 1.2 1.1 2 1.1 1.1 0 2.1-.7 2.6-1.7.7-1.3 1-2.7 1-4.1.1-1-.2-1.9-.7-2.7-.4-.6-1.2-1-2-1-2 0-3.2 1.5-3.5 4.6-.1.3-.1.6-.1.9zm13.3 21.1c-1-1.4-1.5-3.6-1.5-6.5 0-2.4.3-4.8.6-7.2.4-3.1 1.1-6.2 2-9.2.6-2 1.6-3.7 3.1-5.2 1.2-1.1 2.8-1.7 4.5-1.7 2.2 0 3.8.7 4.8 2s1.4 3.5 1.4 6.6c0 2.5-.2 5-.6 7.4-.7 5.5-1.9 9.6-3.4 12.1-1.2 2.3-3.6 3.8-6.2 3.8-1.8.1-3.6-.7-4.7-2.1zm2.3-6.6c-.1 1.3.1 2.7.7 3.9.4.8 1.2 1.3 2.1 1.2 1 0 1.9-.5 2.4-1.3.8-1.2 1.3-2.5 1.6-3.9.4-1.7.9-4.1 1.4-7.2.4-2.5.7-5 .7-7.5.1-1.3-.1-2.6-.6-3.8-.4-.8-1.2-1.2-2-1.2-1 0-1.9.5-2.4 1.3-.8 1.2-1.4 2.5-1.7 3.9-.6 2.4-1.1 4.8-1.4 7.3-.5 2.5-.7 4.9-.8 7.3zm16.8 6.6c-1-1.4-1.5-3.6-1.5-6.5 0-2.4.3-4.8.6-7.2.4-3.1 1.1-6.2 2-9.2.6-2 1.6-3.7 3.1-5.2 1.2-1.1 2.8-1.7 4.5-1.7 2.2 0 3.8.7 4.8 2s1.5 3.6 1.5 6.6c0 2.5-.2 5-.6 7.4-.7 5.6-1.8 9.6-3.3 12.1a7.09 7.09 0 0 1-6.3 3.8c-1.9.1-3.7-.6-4.8-2.1zm2.3-6.6c-.1 1.3.1 2.7.7 3.9.4.8 1.2 1.3 2.1 1.2 1 0 1.9-.5 2.4-1.3.8-1.2 1.3-2.5 1.6-3.9.4-1.7.9-4.1 1.4-7.2.4-2.5.7-5 .7-7.5.1-1.3-.1-2.6-.6-3.8-.4-.8-1.2-1.2-2-1.2-1 0-1.9.5-2.4 1.3-.8 1.2-1.3 2.5-1.6 3.9-.6 2.4-1.1 4.8-1.4 7.3-.6 2.5-.8 4.9-.9 7.3zm-111.8 89.1c-1.3-1.6-1.9-3.6-1.8-5.6 0-.6 0-1.2.1-1.8.2-1.8.8-3.6 1.8-5.2.9-1.4 2.1-2.4 3.5-3.2-.9-.6-1.7-1.4-2.2-2.4-.5-1-.8-2.2-.8-3.3v-.9c.1-2.1 1-4.1 2.4-5.6 1.4-1.4 3.3-2.1 5.2-2.1 1.7-.1 3.4.5 4.6 1.8 1.2 1.3 1.8 3.1 1.7 4.8 0 1.7-.4 3.4-1.3 4.9-.8 1.4-2 2.4-3.4 3.1 1.1.6 2 1.6 2.5 2.7.6 1.3 1 2.7.9 4.1 0 .3 0 .7-.1 1.2-.2 2.5-1.1 5-2.8 6.9-1.5 1.6-3.5 2.5-5.7 2.4-1.5.3-3.3-.4-4.6-1.8zm2.2-5.8c-.1 1.2.2 2.4.8 3.4.5.7 1.4 1.1 2.3 1.1 1.1 0 2.2-.6 2.8-1.5.9-1.4 1.4-3 1.5-4.6 0-.6.1-1.1.1-1.4.1-1.2-.2-2.4-.8-3.4-.5-.8-1.3-1.3-2.3-1.2-1.2 0-2.3.6-2.9 1.6-.8 1.3-1.3 2.9-1.4 4.4-.1.5-.1 1.1-.1 1.6zm2.4-15.4c0 1 .2 2 .7 2.9.4.7 1.2 1.1 2 1.1 1.1 0 2.1-.7 2.6-1.7.7-1.3 1-2.7 1-4.1.1-1-.2-1.9-.7-2.7-.4-.6-1.2-1-2-1-2.1 0-3.2 1.5-3.5 4.6 0 .3-.1.6-.1.9zm21-3.3c-.8.9-2 1.4-3.3 1.3-.8 0-1.6-.3-2.2-.8-.6-.6-.9-1.4-.8-2.2-.1-1.3.4-2.6 1.2-3.5.8-.9 2-1.4 3.3-1.3.8 0 1.6.2 2.2.8.6.6.9 1.4.8 2.2.1 1.2-.3 2.5-1.2 3.5zm-4.2-.7c.3.4.8.6 1.2.5.7 0 1.3-.3 1.7-.8.4-.6.7-1.4.6-2.2 0-.5-.1-1-.4-1.3-.3-.3-.7-.5-1.1-.5-.6 0-1.2.3-1.6.8-.4.6-.7 1.3-.8 2.1 0 .4.1 1 .4 1.4z" style="fill:#06b6d4"/><path d="m348.4 162.7-16 152.5m133.9-152.5-16 152.5m-150-.1h692.3M345.9 415.7l-16 152.5m127.9-152.5-16 152.5M332.4 160.9v152.4m-34.6 254.9h692.3m-641.5 85.6-21.3 152.5m2.6-390.6v152.5m-2.6 86.7v152.5m-29.5 0h692.3" style="fill:none;stroke:#06b6d4;stroke-width:1;stroke-miterlimit:10"/></svg>