<svg xmlns="http://www.w3.org/2000/svg" viewBox="0 0 1280 960"><path d="M337.8 365.5c6.2-7.6 12.1-15.4 17.5-23.6l9.9 8.4c-5.1 7.4-9.6 13.7-13.6 18.6l-8.9 82h-13.1l7-64.8-9.3 9.2-8.9-9.9c7-6.1 13.5-12.8 19.4-19.9zm20-61.5 10.5 7.8c-9.7 15.6-21.3 29.9-34.5 42.6l-9.2-9.4c13-12 24.2-25.8 33.2-41zm-.9 91h44.5l1.1-11.8h-40.3l1.1-11.5h64.3l-1.1 11.5h-11l-1.2 11.8h13.5l-1.1 11h-13.5l-1.8 18.3c-.9 8.5-3.4 15.1-7.6 19.9-4.1 4.8-9.8 7.3-17 7.3-6.6 0-11.8-2.3-15.7-7-3.8-4.7-6.1-10.5-6.3-16.6l12.2-1.5c.1 3.3 1.1 6.5 3 9.2 1.6 2.2 4.1 3.4 6.8 3.4 3.1.1 6.1-1.3 8-3.8 1.9-2.5 3.2-6.7 3.8-12.4l1.7-16.8h-22c1.6 4.5 2.9 9.1 4 13.8l-11.9 3.5c-1.3-5.8-3-11.6-4.9-17.3h-9.6l1-11zm18.6-87.2h43.9c3.6 0 6.2 1 7.9 3.1 1.8 2.2 2.5 5 2 7.8l-4.6 43.2h-54.9l5.7-54.1zm38.4 42.2.9-9.9h-30.4l-1.1 9.9h30.6zm2.1-20.8 1.1-9.5h-30.6l-.9 9.5H416zm36.2 82.5 12.2 4c-3.2 11.1-7.7 21.7-13.6 31.6l-11.6-6.4c5.7-9 10-18.9 13-29.2zm96.8-86h-15.6c-.9 3.7-2 7.3-3.2 10.9h25.7l-1.2 12.2H448.4l1.2-12.2h26.3l-.3-3.8c-.2-1.4-.4-3.8-.6-7h-15.7l1.2-11.9h37.9l1.2-10.7h13.7l-1.2 10.7h38.2l-1.3 11.8zm-83.4 30.1h59.9c4.1 0 7.1 1 8.9 3.1s2.6 5 2.1 8.9l-4.4 40h-35.4c4.1 4.6 7.8 9.6 11 14.8l-10.2 7.2c-3.4-6.4-7.7-12.4-12.7-17.8l6.1-4.3h-31.3l6-51.9zm14.4 60.5c-.2 2.4-.3 4.2-.3 5.2 0 6.1 1.3 10.7 3.9 13.8 2.6 3 6.3 4.6 11.2 4.6 4.3.2 8.5-1.2 11.8-3.8 3.1-2.5 5.2-6.3 6.3-11.3l12.7 3.5c-2 7.5-5.7 13.4-10.8 17.7-5.2 4.3-11.9 6.4-20.2 6.4-8.7 0-15.5-2.5-20.4-7.4s-7.4-12.2-7.4-21.8c0-2.3.2-4.6.5-6.9H480zm40.2-20.5 1.1-9.3h-46.1l-1.1 9.3h46.1zm2.1-19.5.9-8.9h-46l-1.1 8.9h46.2zm-32.8-39.7H516c1.3-3.5 2.5-7.2 3.4-10.9h-30.9l1 10.9zm46.9 75.3c4.6 10 8.2 20.4 10.8 31l-12.4 4.9c-2.5-10.7-6.1-21-10.7-31l12.3-4.9zm39.8 5.2 11.9 4.6c-4.7 12.8-9.8 23.2-15.4 31.2l-11.6-7.2c6.4-8.8 11.4-18.5 15.1-28.6zm-4.9-19.4h40.8l1.2-10.9h-35.9l1.4-12.7h35.8l1.2-11.3h-35.1l5.8-54.8h72.4c4.1 0 7 1 8.7 3.1s2.4 5 2 8.6l-4.7 43.1H628l-1.2 11.3h37.9l-1.2 12.7h-37.9l-1.2 10.9h43.2l-1.2 12.7H570l1.3-12.7zm45.9-47.7 3-29.2h-22.9l-3.1 29.2h23zm-8.6 70.6c1.4 9.1 2.2 18.3 2.6 27.5l-13.1 1.7c0-9.3-.7-18.6-2-27.8l12.5-1.4zm1.9-96.9c1.1 6.8 2.7 13.4 4.6 20L605 347c-1.4-4.3-3-11.3-4.7-20.9l10.2-2.4zm20.6 95.8c3 8.9 5.4 18 7 27.2l-12.2 3.4c-1.6-9.3-3.8-18.4-6.7-27.3l11.9-3.3zm22.7-69.5 3.2-29.2h-24.6l-3.1 29.2h24.5zm-11.6-26.3 9.8 3.2c-2.1 7.2-5.2 14.2-9.2 20.6l-9.6-4.5c3.6-6.1 6.6-12.6 9-19.3zm12.9 93.7c4.4 9.6 8.1 19.5 10.8 29.6l-11.6 4.7c-2.7-10.2-6.2-20.1-10.7-29.6l11.5-4.7zm81.4-8.1c-2.1 3.5-3.3 7.5-3.4 11.6 0 4.9 2 8.5 5.9 10.7 3.9 2.2 9.2 3.4 16 3.4 8.8 0 18.7-1.6 29.7-4.7 9.7-2.6 19-6.2 27.9-10.9l5.3 13.3c-9.4 5.2-19.4 9.2-29.9 11.9-10.5 2.9-21.3 4.5-32.2 4.6-11.4 0-20.6-2.2-27.7-6.6s-10.6-11.3-10.5-20.6c0-11.3 6.2-23.1 18.6-35.3l10.2 9.6c-3.6 4-7 8.3-9.9 13zm-4.3-85.2c5.5-5.4 14.4-5.3 19.8.2s5.3 14.4-.2 19.8-14.4 5.3-19.8-.2c-2.6-2.6-4-6.1-4-9.8-.1-3.8 1.4-7.4 4.2-10zm54.1 1.8c3.7-5 9.1-7.5 16.3-7.5 5-.1 9.9 1.8 13.5 5.3 3.8 3.5 6.8 8.7 8.9 15.7l-10.5 4.9c-1.5-4.7-3.2-8.1-5.1-10.2-1.6-2-4-3.2-6.5-3.2-3.1 0-6 1.7-7.4 4.4-1.8 3-3.3 7.7-4.5 14.2l-12.5-2.3c1.5-9.3 4.1-16.3 7.8-21.3zM331.7 608.5c4.4 6 12.8 7.3 18.8 2.9.6-.4 1.1-.9 1.6-1.4 2.9-2.9 4.9-6.5 5.8-10.4.5-1.9.7-3.8.8-5.8 0-4.5-1.3-8.9-3.7-12.8-3.3-5-7-9.8-11-14.3-4.8-5.2-9-10.8-12.7-16.8-2.9-5-4.4-10.8-4.4-16.7 0-3.2.4-6.4 1.2-9.5 1.6-6.5 5.3-12.2 10.6-16.2 5.4-4 12-6.1 18.7-6 8.9 0 15.7 2.8 20.4 8.2 4.7 5.5 6.7 13 6 22.5l-14.5.8c.3-5.3-.6-9.5-2.7-12.5s-5.3-4.6-9.5-4.6c-3.1-.1-6.2 1-8.6 3-2.4 2.1-4.1 4.9-4.8 8-.3 1.6-.5 3.2-.6 4.9 0 4.4 1.2 8.7 3.6 12.5 3.3 5 6.9 9.6 10.9 14 3.8 4.3 6.8 8 9.2 11.1 2.4 3.3 4.5 6.8 6 10.6 1.7 4.1 2.5 8.4 2.5 12.8 0 2.7-.3 5.3-.9 7.9-1.5 7.7-5.6 14.7-11.7 19.8-5.9 5-13.4 7.7-21.2 7.6-9.2 0-16.3-3.1-21.5-9.2-5.1-6.1-7.6-14.3-7.3-24.6l14.7-.8c.2 6.4 1.6 11.3 4.3 15zm51.1 18.2 13.3-93.2H410l-.8 9c2-3.3 4.8-6.1 8.2-8 2.9-1.6 6.1-2.5 9.4-2.5 3.9-.1 7.8 1 11 3.4 3 2.2 4.9 5.8 5.8 10.7 2.5-4.9 5.5-8.5 9-10.7 3.2-2.1 6.9-3.3 10.7-3.4 5.2 0 9.4 1.6 12.6 4.9s4.8 8.4 4.8 15.3c0 2.5-.2 4.9-.6 7.3l-9.5 67.2h-15l9.4-64.8c.3-1.8.4-3.6.5-5.3 0-7.2-2.7-10.8-8.2-10.8-3.3 0-6.1 1.6-8.6 4.7-2.7 3.6-4.6 7.8-5.4 12.3l-9 64h-15l9.3-64.8c.3-1.8.4-3.6.5-5.3 0-7.2-2.7-10.8-8.2-10.8-3.2 0-6 1.5-8.4 4.4-2.7 3.5-4.6 7.6-5.5 11.9l-9.2 64.6-15-.1zm104.5 0 13.1-93.2h14.8l-13.1 93.2h-14.8zM505 505.5c1.9-1.9 4.5-3 7.3-2.8 2.2-.1 4.4.7 6 2.3 1.5 1.7 2.2 3.9 2.1 6.1 0 .7 0 1.3-.2 2-.4 2.8-1.6 5.4-3.4 7.6-1.9 1.9-4.5 3-7.3 2.8-2.2.1-4.4-.7-6-2.3-1.5-1.6-2.2-3.8-2.1-6 0-.7 0-1.4.2-2.1.3-2.9 1.5-5.5 3.4-7.6zm12.7 121.2 18.2-128.3h14.8l-18.2 128.3h-14.8zm68.9-94.7c8.3 0 14.3 2.6 18 8 3.7 5.3 5.6 13.1 5.6 23.4-.1 6.9-.7 13.8-1.7 20.6h-42.8c-.6 5.9-.9 10.1-.9 12.5 0 5.7.8 10.1 2.5 13.3s4.6 4.7 8.6 4.7c7.3 0 12.6-5 15.9-15l13.6 2c-2.4 8.5-6.4 15-11.8 19.7-5.3 4.6-12.1 7.1-19.1 7-8.7 0-14.9-2.8-18.6-8.2s-5.6-13.3-5.6-23.5c.1-5.7.5-11.4 1.2-17 4.1-31.7 15.8-47.5 35.1-47.5zm8.1 39.4c.3-2.8.4-5.6.5-8.4 0-11.5-3.3-17.3-9.8-17.3-8.3 0-14.3 8.6-17.7 25.7h27zm11.2 71.8c3.5 1.1 7.1 1.7 10.7 1.8 3.1-.1 6.1-1.5 8.2-3.8 2.7-2.9 4.7-6.3 5.9-10.1l-10.1-97.6h15.1l4.1 57.4c.5 6.1.8 12.2.9 18.3l6-18.3 18.6-57.4h15.3l-31.8 89.2c-2.5 7.4-5.5 14.6-9 21.6-2.7 4.9-5.7 8.6-9.1 10.9-3.4 2.3-7.7 3.5-13.1 3.5-4.7 0-9.5-.8-13.9-2.5l2.2-13zm117.7-34.7c4.4 6 12.8 7.3 18.8 2.9.6-.4 1.1-.9 1.6-1.4 2.9-2.9 4.9-6.5 5.8-10.4.5-1.9.7-3.8.8-5.8 0-4.5-1.3-8.9-3.7-12.8-3.3-5-7-9.8-11-14.3-4.8-5.2-9-10.8-12.8-16.8-2.9-5-4.4-10.8-4.3-16.7 0-3.2.4-6.4 1.2-9.5 1.6-6.4 5.3-12.2 10.6-16.2 5.4-4 12-6.1 18.7-6 8.9 0 15.7 2.8 20.4 8.2 4.7 5.5 6.7 13 6 22.5l-14.5.8c.3-5.3-.6-9.5-2.7-12.5s-5.3-4.6-9.5-4.6c-3.1-.1-6.2 1-8.6 3-2.4 2.1-4.1 4.9-4.8 8-.3 1.6-.5 3.3-.6 4.9 0 4.4 1.2 8.7 3.6 12.5 3.3 5 6.9 9.6 10.9 14 3.8 4.3 6.8 8 9.2 11.1 2.4 3.3 4.5 6.8 6 10.6 1.7 4.1 2.5 8.4 2.5 12.8 0 2.7-.3 5.3-.9 7.9-1.5 7.7-5.6 14.7-11.7 19.8-5.9 5-13.4 7.7-21.2 7.6-9.2 0-16.3-3.1-21.5-9.2-5.1-6.1-7.6-14.3-7.3-24.6l14.7-.8c.2 6.4 1.6 11.3 4.3 15zm91.3 18.2.8-8.4c-5 6.6-10.4 9.9-16.3 9.9-6 .1-11.7-2.8-15-7.8-3.7-5.2-5.6-13.3-5.6-24.5 0-6.1.5-12.2 1.3-18.2 2-15.1 5.9-26.4 11.5-34.1 5.6-7.7 12.2-11.5 19.9-11.5 6.8 0 11.8 3.1 14.8 9.3l1.1-7.9H842l-13.1 93.2h-14zm-21.1-29.8c0 5.6.7 9.9 2.2 13 1.2 2.9 4.1 4.7 7.2 4.6 3.5 0 6.5-1.8 9.2-5.3 2.9-4 4.9-8.5 6-13.3l4.9-34.1c.1-4.8-.8-8.6-2.7-11.5-1.6-2.8-4.6-4.4-7.9-4.4-4.5 0-8.2 3.1-11.2 9.3s-5.1 14.3-6.4 24.3c-.8 5.7-1.2 11.6-1.3 17.4zm51.9 29.8 13.3-93.2h13.9l-.8 9c2-3.3 4.8-6.1 8.2-8 2.9-1.6 6.1-2.5 9.4-2.5 5.2 0 9.4 1.6 12.6 4.9s4.8 8.4 4.8 15.3c0 2.5-.2 4.9-.6 7.3l-9.5 67.2h-15l9.3-64.8c.3-1.8.4-3.6.5-5.3 0-7.2-2.8-10.8-8.2-10.8-3.2 0-6 1.5-8.4 4.4-2.7 3.5-4.6 7.6-5.5 11.9l-9.2 64.6h-14.8zm81.7-15.5c2.1 2.2 5 3.4 8 3.4 2.8.1 5.5-1.1 7.5-3.1 2-2.1 3-5.2 3-9.4 0-3.4-1-6.7-2.9-9.5-2.7-3.7-5.7-7.1-9-10.2-4-3.8-7.6-8.1-10.7-12.6-2.5-3.9-3.8-8.4-3.7-13.1.1-2.1.3-4.2.8-6.3 1.3-6.1 4.3-10.7 8.8-13.8 4.6-3.1 10.1-4.7 15.7-4.6 4.1 0 8.2.9 11.8 2.8 3.7 1.9 6.6 4.9 8.4 8.6 2 3.9 2.8 8.7 2.4 14.4h-13.1c.1-4.1-.7-7.2-2.5-9.3-1.7-2.1-4.3-3.3-7-3.2-5.3 0-8.4 2.9-9.5 8.6-.1.7-.2 1.3-.2 2 0 2.8.9 5.5 2.6 7.7 2.5 3.3 5.3 6.5 8.2 9.4 3.3 3.3 6 6.2 8 8.7 2.1 2.6 3.8 5.5 5.2 8.6 1.5 3.4 2.3 7 2.2 10.7 0 1.7-.2 3.5-.5 5.2-1.1 7.1-4.3 12.6-9.4 16.5-5 3.8-11.2 5.9-17.5 5.8-6.4.2-12.6-2.2-17.3-6.6-4.7-4.4-7-10.7-7-18.9l13.9-.6c.2 3.1 1.5 6.4 3.8 8.8z" style="fill:#040404"/></svg>