<svg xmlns="http://www.w3.org/2000/svg" viewBox="0 0 1280 960"><path d="M217.6 496.7c-1.2-1-1.8-2.6-1.8-4.8.2-2.2.6-4.4 1.4-6.5.9-2.7 2-5.3 3.4-7.8h-5.4c-1.1 6.8-3.4 11.9-7 15.4s-9.2 5.2-16.9 5.2c-7 0-11.9-1.7-14.7-5-2.8-3.5-4.3-7.9-4.2-12.4 0-5.3 1.2-9.8 3.7-13.3 2.4-3.5 6.4-5.5 10.6-5.3H223c4.8 0 8.5 1.2 10.9 3.6 2.5 2.4 3.8 6 3.8 10.6v10.4h4.6v-14.3c0-10.9-4.9-16.3-14.7-16.4h-46.5c-4.6 0-8.2 1.4-10.8 4.2-2.6 2.8-3.9 6.9-3.9 12.1v15.3c0 5.6 1.3 9.7 4 12.4s6.8 4 12.5 4h59.4v25.5h-63.6c-10.7 0-18.9-2.9-24.4-8.8s-8.4-14.6-8.4-26.2v-29.2c0-11.6 2.9-20.3 8.7-26.1 5.8-5.8 14.6-8.7 26.2-8.7H228c11.9 0 20.7 2.6 26.4 7.8 5.7 5.2 8.6 13.6 8.6 25.1v18c.2 4.5-1.6 8.9-4.9 12.1-3.2 3-7.8 4.6-13.6 4.6h-19.4c-3.8 0-6.3-.5-7.5-1.5zm-2.4-22.4v-4.5h-21.6v4.5h21.6zm137.2-18H309c-4.6 0-8.2 1.4-10.8 4.2s-3.9 6.9-3.9 12.1v14.9c0 5.7 1.3 9.9 4 12.5 2.7 2.7 6.8 4 12.5 4H379v25.6h-72.3c-11 0-19.6-3-25.6-8.8-6.1-5.9-9.1-14.6-9.1-26v-29.4c0-11.5 3.1-20.2 9.5-26 6.3-5.8 15.4-8.8 27.1-8.8H348c10.5 0 18.3 2.8 23.4 8.2 5.1 5.5 7.6 13.7 7.6 24.6V498h-25.9c-.1-3.9.4-7.9 1.3-11.7.7-3.1 1.9-6 3.5-8.7h-5.5c-.6 4-1.7 8-3.1 11.8-1.2 2.8-3.5 4.9-7 6.5-3.5 1.6-8.6 2.4-15.5 2.4-7.1 0-12.5-.7-16.4-2-3.8-1.3-6.4-3.3-7.9-5.9-1.5-2.7-2.2-6.3-2.2-10.9 0-5.5 1.2-9.8 3.8-12.8s6.2-4.5 11-4.5h37.4l-.1-5.9zm0 18.3V470h-21.6v4.6h21.6zM171.6 260.5c-5.9-6-8.9-14.6-8.9-25.9 0-3.2-2.6-5.8-5.9-5.9h-11.7v-29.1h17.6v-29.1h37.5c0 9.2-.2 16.5-.7 21.9-.3 4.7-1.1 9.4-2.2 14-1 4-2.5 9-4.6 15.1h7.5c-.1-5.7 1.2-11.4 3.7-16.5 2.4-5 6.3-9.1 11-12 4.9-2.9 10.7-4.4 17.5-4.4h17.1V226h-49.3v6h49.4v37.5h-52.4c-11.1 0-19.7-3-25.6-9zm140.6 5.9c-5.3-1.9-9.7-5.6-12.6-10.4-3-4.9-5-11.5-6-20h-7.2l1.4 2.9c2.2 4.5 3.7 9.2 4.6 14.1.9 5.5 1.3 11 1.2 16.5h-37.8v-99h37.8l-.1 15.4c0 6.1-.6 12.2-1.6 18.1-1.2 6-3 11.8-5.4 17.4h7.2c.9-8.6 2.9-15.4 5.9-20.2 2.9-4.8 7.4-8.4 12.7-10.4 5.4-2 12.4-3 21.1-2.9 8.7.1 15.9 1.6 21.6 4.4 5.7 2.8 10.2 7.5 12.8 13.3 2.8 6 4.3 13.6 4.3 22.9 0 9.8-1.4 17.7-4 23.6-2.5 5.7-6.9 10.3-12.5 13-5.7 2.8-13 4.1-22.1 4.1-8.9.2-15.9-.8-21.3-2.8zm24.7-34.7v-5.9h-43.4v5.9h43.4zm53.1-61.2h23.4V188c0 5.6-.6 11.2-1.8 16.7-1.4 5.7-3.2 11.3-5.5 16.7h7.2c.5-8.1 2.3-14.6 5.2-19.6 2.7-4.7 6.9-8.4 11.9-10.6 5.4-2.3 11.2-3.4 17.1-3.2 6.5-.2 12.9 1.5 18.5 4.7 5.3 3.1 9.5 7.7 12.1 13.2 2.9 6.2 4.4 13.1 4.2 19.9v43.6h-37.5V226h-31.5v43.5h-37.4v-99H390zm195.5 91.4c-5.7-5.1-8.6-13.1-8.6-24.1-.1-3.2-2.7-5.8-5.9-5.8h-11.7v-37.5h17.5v-24h37.5c0 9.2-.2 16.5-.7 21.9-.3 4.7-1.1 9.4-2.2 14-1 4-2.5 9-4.7 15.1h7.5c-.1-5.7 1.2-11.4 3.8-16.6 2.4-5 6.3-9.1 11-12 4.8-2.9 10.7-4.4 17.5-4.4h17.1V226h-49.3v6h49.3v37.5h-52.3c-11.4 0-20-2.6-25.8-7.6zm119.2-23c2.2 4.5 3.7 9.2 4.7 14.1.9 5.5 1.3 11 1.2 16.5h-37.8v-99h37.5v15.4c.1 6.2-.4 12.4-1.4 18.5-1.3 5.8-3.2 11.5-5.5 17h7.2c.6-8.7 2.3-15.5 5-20.2 2.8-4.8 7.2-8.4 12.5-10.2 5.5-2 13.2-3 23-3 8.7 0 15.8 1.4 21.4 4.3 5.6 2.9 10 7.5 12.5 13.3 2.8 6 4.1 13.7 4.1 23.1 0 9.7-1.3 17.6-4 23.6-2.4 5.7-6.8 10.4-12.3 13.1-5.6 2.8-12.8 4.1-21.7 4.1-9.8 0-17.5-1-23.1-3.1-5.3-1.8-9.7-5.4-12.5-10.2-2.7-4.7-4.4-11.5-5-20.2h-7.2l1.4 2.9zm49.3-7.2v-5.9h-43.5v5.9H754zm113.9-5.7h-29.1v43.5h-42.3v-99h42V188c0 5.6-.5 11.3-1.7 16.8-1.3 5.7-3.1 11.3-5.5 16.6h7.5c.5-8.1 2.2-14.6 5.1-19.5 2.8-4.8 7-8.5 12.1-10.6 5.2-2.2 11.7-3.3 19.5-3.3 11.1 0 19.6 3.3 25.5 10.1s8.8 16 8.8 27.8v43.6h-42l.1-43.5zM565.2 515.1v14.5h-66.3c-7.5 0-13.9-1.6-19-4.7-5-3-9.1-7.4-11.6-12.7-2.6-5.4-3.9-11.4-3.8-17.4V483c-.1-6.2 1.3-12.4 4.2-17.9 2.7-5.2 6.9-9.5 12.1-12.4 5.6-3.1 11.9-4.6 18.2-4.5h43.5c8.2 0 14.8 2.5 19.8 7.4 5 5 7.5 11.4 7.5 19.4 0 8.9-1.8 15.4-5.4 19.4-3.6 4-9.4 6-17.2 6h-48.8v-9h41.4v-6H522c-4.8.2-9.5-1.8-12.8-5.3-3.4-3.7-5.7-8.2-6.9-13h-7.5c2.4 2.8 4.2 7 5.5 12.7s1.8 14.5 1.5 26.6h63.3l.1 8.7zm25.4 5.4c-5.9-6.1-8.9-14.6-8.8-25.6v-46.7h37.5c0 5.3-.5 10.7-1.7 15.9-1.5 5.7-3.4 11.4-5.8 16.8h7.5c.4-5.6 1.6-11.1 3.5-16.4 1.8-4.7 4.9-8.8 9.1-11.6 4.4-3.1 10.5-4.7 18.5-4.7h14.2c4.8-.1 9.4 1.1 13.7 3.3 4 2.1 7.4 5.4 9.8 9.3 2.4 4.1 3.7 8.9 3.6 13.6v5.1c0 6.5-1.8 11.6-5.5 15.4s-9.3 5.6-16.8 5.5l-50-.6v6.6h68.4v23.2h-71.4c-11.4.1-19.9-3-25.8-9.1zm63.4-29.1v-6h-34.8v6H654zm120.8 24.2v-23.4h61v-6h-35v-12h35v-6h-61v-37.5h68.5c9.7 0 16.7 1.9 21 5.6 4.3 3.8 6.5 9.8 6.5 18.2 0 7.2-1.5 12.8-4.5 16.7-3 4-7.3 5.9-13 5.9h-11.4v6h11.4c5.8 0 10.1 1.8 13 5.3 2.9 3.6 4.4 9 4.5 16.4.1 8.2-2.1 14.4-6.5 18.5s-11.4 6.2-20.9 6.2h-68.5v-13.9zm112.7 7.2c-4.7-4.6-7.2-12-7.7-22.2h60.9v-5.9h-60.9v-28.9h60.9v-5.9h-60.9c.4-10.3 3-17.7 7.7-22.3 4.7-4.5 12.5-6.8 23.2-6.8h32.8c11.3 0 19.9 1.8 26 5.4 6 3.6 9 9.7 9 18.3 0 8-1.3 13.8-4 17.4-2.7 3.6-7.2 5.4-13.7 5.4h-14.3v5.9h14.2c5.5 0 9.8 1.8 13 5.3 3.2 3.6 4.8 8.1 4.8 13.6 0 10.1-3 17.2-9 21.4-6 4.2-14.7 6.2-26.1 6.2h-32.8c-10.7 0-18.4-2.3-23.1-6.9zm-307 226.1c1.5-3 3.9-5.4 7-6.8 3.8-1.6 7.9-2.3 12-2.2h32.9V735h-51.7v-18.2h54.1c9.1 0 16 2.4 20.9 7.3 4.9 4.9 7.3 11.7 7.3 20.5v37.7h-30.4c0-4.5.5-8.9 1.4-13.3 1.1-4.7 2.6-9.3 4.4-13.8h-6c-.7 7.2-2 12.6-3.8 16.5-1.7 3.7-4.7 6.6-8.5 8.2-3.8 1.6-9.1 2.4-15.9 2.4-8.1 0-14.4-1.8-19-5.5s-6.9-9-6.8-16c-.2-4.9.5-8.9 2.1-11.9zm51.8 2.9V747h-23.5v4.8h23.5zm39 21.3v-11.3l39.7-12.5-39.7-11.8v-18.2l65.5 19.4v20.6l-65.5 20.6v-6.8zm99.9-15.5c1.8 3.6 3 7.5 3.8 11.4.7 4.4 1.1 8.9 1 13.3h-30.6v-80.1h30.3v12.5c.1 5-.3 10-1.2 15-1.1 4.7-2.6 9.3-4.4 13.8h5.8c.5-7 1.8-12.5 4.1-16.4 2.2-3.9 5.8-6.8 10.1-8.2 4.5-1.6 10.7-2.4 18.6-2.4 7 0 12.8 1.2 17.3 3.5s8 6.1 10 10.7c2.2 4.8 3.3 11.1 3.3 18.7 0 7.8-1.1 14.2-3.2 19-1.9 4.6-5.4 8.4-9.9 10.7-4.5 2.2-10.3 3.3-17.5 3.3-7.9 0-14.2-.8-18.7-2.5-4.3-1.4-7.8-4.4-10.1-8.2-2.2-3.8-3.5-9.3-4-16.3h-5.8l1.1 2.2zm39.9-5.8V747h-35.2v4.7l35.2.1zm58-35.6c2.1-4.3 5.4-7.8 9.5-10.2 4.2-2.5 9.3-3.8 15.4-3.8h32.9c18.8 0 28.1 9.5 28.1 28.4v51.7h-30.3v-20.6H913c-5.3 0-9.3-1.8-11.9-5.3-2.6-3.6-4.2-8.7-4.8-15.3h-5.8c1.3 3.2 2.5 6.4 3.4 9.7 1 3.9 1.6 8 1.9 12 .5 6.5.7 13.1.5 19.6H866v-51.7c-.1-5 .9-10 3.1-14.5zm55.4 21.2v-4.8h-28.3v4.8h28.3zm38.4 29.6v-11.3l39.7-12.5-39.7-11.8v-18.2l65.5 19.4v20.6l-65.5 20.6V767zm84.9-64.7h19.2c0 3-.2 6-.8 9-.5 2.4-1.3 4.7-2.4 6.9-.8 1.5-1.7 2.9-2.7 4.2h6.1c.7-5.3 2.2-9.4 4.3-12.3 2.3-3 5.6-5.1 9.3-6.1 4.1-1.2 9.6-1.8 16.6-1.8 6.3-.1 12.7.4 18.9 1.6 4.7 1.1 8.3 3.1 10.7 6 2.4 2.9 3.6 6.9 3.6 12.1 0 6.5-1.2 11-3.7 13.6-2.5 2.6-6.3 3.9-11.6 3.9h-10.6v4.9h10.6c10.2 0 15.3 6.4 15.3 19.3 0 5.2-1.2 9.1-3.6 11.8s-5.9 4.5-10.6 5.5c-6.2 1.1-12.6 1.6-18.9 1.5-7 0-12.5-.6-16.6-1.8-3.7-.9-7-3-9.3-6-2.2-2.8-3.6-6.9-4.3-12.1h-6.1c.7 1.1 1.4 2.2 2.2 3.3 1.2 2.3 2.2 4.7 2.8 7.2.7 3.1 1 6.3 1 9.5h-30.7v-80.1h11.3zm52 28.6v-4.8H1067v4.8h32.8zm0 27.9V754H1067v4.8h32.8zm-943.9-56.5h18.9V720c.4 10.5-1.7 20.9-5.9 30.4h5.9c.7-8.1 2.8-14.6 6.2-19.5 3.5-4.9 8.5-7.4 14.9-7.4h7.2v-21.2h30.3v80.1h-30.3v-28.3h-28.3v28.3h-30.3v-80.1h11.4zm85.4 43.2v-12.9h36.4v20.6h-36.4v-7.7zm55.7-43.2h18.9v80.1h-30.4v-80.1H297zm117 44.9h-23.6v35.2h-34.2v-80.1h34v14.2c0 4.6-.4 9.1-1.4 13.6-1.1 4.6-2.5 9.1-4.4 13.5h6.1c.4-6.5 1.8-11.8 4.1-15.8 2.2-3.9 5.7-6.9 9.8-8.6 4.2-1.8 9.5-2.7 15.8-2.7 9 0 15.8 2.7 20.6 8.1 4.8 5.4 7.2 12.9 7.1 22.4v35.3H414v-35.1zm42.4 4.3v-12.9h36.4v20.6h-36.4v-7.7zm46.9-32.5c-2.9-1.3-4.6-4.2-4.4-7.3 0-3.5 1.5-5.9 4.4-7.3s7.3-2.1 13.2-2.1c5.9 0 10.3.7 13.3 2.1s4.4 3.8 4.4 7.3c.2 3.1-1.6 6.1-4.4 7.3-3 1.4-7.4 2.1-13.3 2.1s-10.3-.7-13.2-2.1zm9.5 6.4h18.9v57h-30.3v-57h11.4z" style="fill:#fbfbfb"/></svg>