<svg xmlns="http://www.w3.org/2000/svg" viewBox="0 0 1280 960"><path d="M439.6 470.9c-8.3-8.4-12.5-20.6-12.5-36.5 0-4.5-3.7-8.2-8.2-8.2h-16.5v-41h24.7v-41h52.8c0 13-.3 23.2-1 30.8-.5 6.7-1.5 13.3-3.1 19.8-1.4 5.6-3.6 12.6-6.5 21.2h10.6c-.1-8.1 1.7-16.1 5.3-23.4 3.4-7 8.8-12.9 15.5-16.9 6.8-4.2 15-6.2 24.6-6.2h24.1v52.8h-69.5v8.5h69.5v52.8h-73.7c-15.8-.1-27.8-4.3-36.1-12.7zm198 8.3c-7.4-2.7-13.7-7.8-17.8-14.6-4.2-6.8-7-16.2-8.5-28.2h-10.2l1.9 4c3 6.3 5.2 13 6.5 19.9 1.2 7.7 1.8 15.5 1.7 23.2H558V344.1h53.2l-.2 21.8c0 8.6-.8 17.1-2.3 25.6-1.7 8.4-4.3 16.6-7.6 24.5h10.1c1.3-12.1 4-21.6 8.3-28.5 4.1-6.8 10.4-11.9 17.8-14.6 7.6-2.8 17.5-4.1 29.8-4 12.3.1 22.4 2.2 30.4 6.2s14.4 10.6 18.1 18.7c4 8.4 6 19.2 6 32.3 0 13.8-1.9 24.9-5.7 33.3-3.5 8-9.7 14.6-17.6 18.4-8 3.9-18.3 5.8-31.2 5.8-12-.1-22-1.5-29.5-4.4zm34.8-48.9v-8.2h-61.1v8.2h61.1zm74.8-86.2h33v24.7c.1 7.9-.8 15.8-2.5 23.5-2 8.1-4.6 15.9-7.8 23.6H780c.7-11.4 3.2-20.6 7.4-27.6 3.8-6.6 9.7-11.9 16.7-15 6.9-3 14.9-4.5 24.1-4.5 10 0 18.7 2.2 26.1 6.5 7.4 4.4 13.3 10.8 17 18.6 3.9 8 5.9 17.4 5.9 28.1v61.5h-52.9v-61.3h-44.4v61.3h-52.6V344.1h19.9zM247.1 614.4c-5.4-4.7-8.1-12.3-8.1-22.6 0-3-2.5-5.5-5.5-5.5h-11v-35.2H239v-22.5h35.2c0 8.7-.2 15.5-.6 20.6-.3 4.4-1 8.8-2 13.2-.9 3.7-2.4 8.4-4.4 14.2h7c-.1-5.4 1.1-10.7 3.5-15.6 2.3-4.7 5.9-8.6 10.4-11.3 5-2.9 10.7-4.3 16.4-4.2h16v35.2h-46.4v5.6h46.3v35.2h-49.2c-10.6 0-18.7-2.4-24.1-7.1zm113.5 7.1-35.9-76h35.9c3.4 6.6 6.4 13.3 8.9 20.3 1.8 5 3.2 10.1 4 15.3.7 4.9 1 9.8 1 14.7h5.4c0-5 .3-10 1-14.9.8-5.2 2.1-10.3 3.9-15.3 2.4-6.9 5.3-13.6 8.7-20.1h35.9l-47 98.4c-5.3 0-9.4 0-12.1.1-2.7 0-5.4.1-8.1.1H350l10.6-22.6zm94.3 22.5h-22v-98.5h35.2c-.5 5.5-1.4 11-2.5 16.5-1.1 4.9-2.6 9.7-4.4 14.4h7c.1-9.7 3.1-17.2 9-22.7s14.6-8.2 26.2-8.2c9.3 0 16.7 1.4 22.3 4.1 5.4 2.5 9.6 6.9 12 12.3 2.4 5.5 3.7 12.7 3.7 21.5 0 9-1.2 16.3-3.7 21.8-2.4 5.5-6.7 9.8-12.1 12.3-5.6 2.7-13 4-22.2 4-11.5 0-20.1-2.7-26.1-8.2-5.9-5.4-8.9-13.1-9-23h-7c2 6.2 3.7 12.4 4.9 18.8 1.2 6.4 1.9 12.9 1.8 19.4V644h-13.1zm54.2-63.5h-40.8v5.6h40.8v-5.6zm132.7 27.3v13.7h-62.2c-7 0-13-1.5-17.9-4.4-4.7-2.8-8.5-6.9-10.9-11.9-2.4-5.1-3.6-10.7-3.6-16.3v-11.1c-.1-5.9 1.2-11.6 3.9-16.8 2.6-4.9 6.5-8.9 11.3-11.6 5.2-2.9 11.1-4.4 17.1-4.2h40.8c7.7 0 13.9 2.3 18.6 7s7 10.7 7 18.2c0 8.4-1.7 14.4-5.1 18.2-3.4 3.8-8.8 5.6-16.2 5.6H579v-8.5h38.9V580h-16.7c-4.5.2-8.9-1.7-12-5-3.2-3.4-5.4-7.6-6.5-12.2h-7c2.3 2.6 4 6.6 5.2 11.9 1.2 5.3 1.7 13.6 1.4 25h59.4l.1 8.1zm22.1-8.6c-1.1-1-2.5-1.6-4-1.6h-8.3v-28.2h14.1v-8.3c0-8.4 1.2-14.9 3.5-19.6 2.2-4.5 5.9-8.1 10.6-10 4.7-2 10.8-3 18.3-3h51.8v35.2h-49v5.6h49v35.2h-18.7c-8.1 0-14.2-1.3-18.5-3.8-4-2.3-7.1-5.9-8.7-10.3-1.8-5.5-2.8-11.2-3.2-17h-7c2 4.4 3.6 9 4.8 13.7 1 4.2 1.6 8.5 1.8 12.8.3 4.7.4 11.9.4 21.5h-35.2v-18.6c.1-1.3-.6-2.7-1.7-3.6zm95-16.6c1.7-3.5 4.6-6.3 8.1-7.9 3.6-1.7 8.2-2.5 13.9-2.5h38.2v-5.6h-60v-21.1h62.8c10.5 0 18.6 2.8 24.2 8.5s8.4 13.6 8.5 23.8v43.8h-35.3c0-5.2.5-10.4 1.6-15.4 1.2-5.5 3-10.8 5.1-16h-6.9c-.8 8.3-2.3 14.6-4.5 19.1-2 4.3-5.5 7.7-9.9 9.5-4.4 1.9-10.6 2.8-18.5 2.8-9.4 0-16.7-2.1-22-6.3s-7.9-10.4-8-18.6c.1-5.8 1-10.5 2.7-14.1zm60.2 3.4v-5.6h-27.3v5.6h27.3zm56.8 31.3c-4.9-2.8-8.7-7.3-10.8-12.5-2.3-5.6-3.5-12.7-3.5-21.2s1.2-15.6 3.5-21.3c2.1-5.3 5.9-9.8 10.8-12.7 4.8-2.8 11-4.2 18.4-4.2h58.6v35.2h-35.5c-4.9.2-9.7-1.7-13.2-5.1-3.4-3.4-5.9-7.7-7-12.4h-7c4.4 5.2 6.6 12.9 6.6 23.1h56v35.2h-58.5c-7.4.1-13.6-1.3-18.4-4.1zm178.7-9.5v13.7h-62.3c-7 0-13-1.5-17.9-4.4-4.7-2.8-8.5-6.9-10.9-11.9-2.4-5.1-3.7-10.7-3.6-16.3v-11.1c-.1-5.9 1.2-11.6 3.9-16.8 2.6-4.9 6.5-8.9 11.3-11.6 5.2-2.9 11.1-4.4 17.1-4.2h40.8c7.7 0 13.9 2.3 18.6 7s7 10.7 7 18.2c0 8.4-1.7 14.4-5.1 18.2-3.4 3.8-8.8 5.6-16.2 5.6h-45.8v-8.5h38.9V580H1014c-4.5.2-8.9-1.7-12-5-3.2-3.4-5.4-7.6-6.5-12.2h-7c2.3 2.6 4 6.6 5.2 11.9 1.2 5.3 1.7 13.6 1.4 25h59.4l.1 8.1z" style="fill:#fbfbfb"/></svg>