<svg xmlns="http://www.w3.org/2000/svg" viewBox="0 0 1280 960"><path d="M102.5 176.8v-2.4h14v2.4h-14zm-15-3.3V199h15a42.3 42.3 0 0 0-2.9-20.4h2.9c.6 6.1 2.8 10.2 8.3 10.2h5.8V199h15v-25.5c0-9.3-4.6-14-13.9-14h-16.3c-9.3-.1-13.9 6.2-13.9 14zm70.1-16.5 2.4-6h-4.5l-2.4 6h4.5zm-8.1 19.8v-2.4h14v2.4h-14zm-15-3.4V199h15a42.3 42.3 0 0 0-2.9-20.4h2.9c.6 6.1 2.8 10.2 8.3 10.2h5.8V199h15v-25.5c0-9.3-4.6-14-13.9-14h-16.3c-9.3-.1-13.9 6.2-13.9 13.9zm67.4-16.4h3.5c2.8 0 4.1-1.3 4.1-4.1V151H205v3h-2.8v-3h-4.5v1.9c0 2.8 1.4 4.1 4.2 4.1zm-5.3 19.8v-2.4h14v2.4h-14zm-15-3.4V199h15a42.3 42.3 0 0 0-2.9-20.4h2.9c.6 6.1 2.8 10.2 8.3 10.2h5.8V199h15v-25.5c0-9.3-4.6-14-13.9-14h-16.3c-9.4-.1-13.9 6.2-13.9 13.9zm75.6-16.4-4.2-6h-4.8l-4.2 6h4.5l2.1-3 2.1 3h4.5zm-13.6 19.8v-2.4h14v2.4h-14zm-15-3.4V199h15a42.3 42.3 0 0 0-2.9-20.4h2.9c.6 6.1 2.8 10.2 8.3 10.2h5.8V199h15v-25.5c0-9.3-4.6-14-13.9-14h-16.3c-9.3-.1-13.9 6.2-13.9 13.9zm70.9-19.4c0 2.2 2.1 3.1 3.8 3.1s3.8-.8 3.8-3.1-2.1-2.9-3.8-2.9-3.8.6-3.8 2.9zm-7.6 3c1.7 0 3.8-.8 3.8-3.1s-2.1-2.9-3.8-2.9-3.8.7-3.8 2.9 2.1 3.1 3.8 3.1zm-1.2 19.8v-2.4h14v2.4h-14zm-15-3.4V199h15a42.3 42.3 0 0 0-2.9-20.4h2.9c.6 6.1 2.8 10.2 8.3 10.2h5.8V199h15v-25.5c0-9.3-4.6-14-13.9-14h-16.3c-9.4-.1-13.9 6.2-13.9 13.9zm65.5-22.4 2.4 6h4.5l-2.4-6h-4.5zm-3.5 25.8v-2.4h14v2.4h-14zm-15-3.4V199h15a42.3 42.3 0 0 0-2.9-20.4h2.9c.6 6.1 2.8 10.2 8.3 10.2h5.8V199h15v-25.5c0-9.3-4.6-14-13.9-14h-16.3c-9.3-.1-13.9 6.2-13.9 13.9zm73.9-21.9H387v4.8h9.6v-4.8zm-11.9 25.3v-2.4h14v2.4h-14zm-15-3.3V199h15a42.3 42.3 0 0 0-2.9-20.4h2.9c.6 6.1 2.8 10.2 8.3 10.2h5.8V199h15v-25.5c0-9.3-4.6-14-13.9-14h-16.3c-9.3-.1-13.9 6.2-13.9 14zm68.1-19.5c0-.4.5-.6 1-.6s1 .2 1 .6-.5.6-1 .6-1-.3-1-.6zm1 3.1c1.9 0 4.1-.8 4.1-3.2s-2.3-3.1-4.1-3.1-4.1.7-4.1 3.1 2.2 3.2 4.1 3.2zm-7 19.8v-2.4h14v2.4h-14zm-15-3.4V199h15a42.3 42.3 0 0 0-2.9-20.4h2.9c.6 6.1 2.8 10.2 8.3 10.2h5.8V199h15v-25.5c0-9.3-4.6-14-13.9-14h-16.3c-9.4-.1-13.9 6.2-13.9 14zm76.1-21.9c-1 .7-2.2 1-3.4.9-2.2 0-3.3-1.4-6-1.4a8 8 0 0 0-4.5 1.4v4.5c1.3-1 2.9-1.5 4.5-1.5 1.9 0 3.2 1.5 6 1.5 1.2.1 2.4-.3 3.4-.9v-4.5zm-14 25.2v-2.4h14v2.4h-14zm-15-3.3V199h15a42.3 42.3 0 0 0-2.9-20.4h2.9c.6 6.1 2.8 10.2 8.3 10.2h5.8V199h15v-25.5c0-9.3-4.6-14-13.9-14h-16.3c-9.4-.1-14 6.2-13.9 14zm62.2.1v-2.4h16.2v2.4h-16.2zm0 13.8V185h16.2v2.4h-16.2zm-15.2-28V199H526c0-5.3-1.4-7.7-2.9-9.8h3c1 7.7 4.9 9.8 14.9 9.8 11 0 16.4-1.5 16.4-9.3 0-6.5-2.6-9.5-7.6-9.5h-5.2v-2.4h5.2c4.9 0 7.6-2 7.6-8.6 0-7.9-5.4-9.7-16.4-9.7-9.9 0-13.9 2.1-14.9 10h-3c1.5-2.1 2.9-4.6 2.9-10l-15.1-.1zm63.7 39.6h26v-15h-25.2c0-9.3-1.3-12.3-4-17h3s1.6 7.4 8.6 7.4h17.6v-15h-25.9c-11.2 0-15.4 6.2-15.4 19.4-.1 14.5 4.3 20.2 15.3 20.2zm50.3-42 2.4-6h-4.5l-2.4 6h4.5zm-6.9 42h26v-15h-25.1c0-9.3-1.3-12.3-4-17h3s1.6 7.4 8.6 7.4H644v-15h-25.9c-11.2 0-15.4 6.2-15.4 19.4 0 14.5 4.3 20.2 15.3 20.2zm51.6-42 4.2-6h-4.5l-2.1 3-2.1-3h-4.5l4.2 6h4.8zm-8.1 42h26v-15h-25.2c0-9.3-1.3-12.3-4-17h3s1.6 7.4 8.6 7.4h17.6v-15h-25.9c-11.2 0-15.4 6.2-15.4 19.4-.1 14.5 4.3 20.2 15.3 20.2zm28.9 0h15c0-4.7-1.3-10.3-3-13.4h3c1.1 9.7 5.2 13.4 15.1 13.4s15-3.8 15-13.9v-11.7c0-9.7-4.7-14-15-13.9-10 0-14 3.7-15.1 13.3h-3c1.7-2.9 2.5-8.1 3-13.3h-15V199zm15-15.2v-9.3h15.1v9.3h-15.1zM763 157l4.2-6h-4.5l-2.1 3-2.1-3H754l4.2 6h4.8zm-24.8 42h15c0-4.7-1.3-10.3-3-13.4h3c1.1 9.7 5.2 13.4 15.1 13.4s15-3.8 15-13.9v-11.7c0-9.7-4.7-14-15-13.9-10 0-14 3.7-15.1 13.3h-3c1.7-2.9 2.5-8.1 3-13.3h-15V199zm15-15.2v-9.3h15.1v9.3h-15.1zM789 199h15c0-4.7-1.3-10.3-3-13.4h3c1 9.7 5.1 13.4 15 13.4s15-3.8 15-13.9v-11.7c0-9.7-4.7-14-15-13.9-10 0-14 3.7-15.1 13.3h-3c1.7-2.9 2.5-8.1 3-13.3H789V199zm15-15.2v-9.3h15v9.3h-15zm-18-9.4v9.4h18v-9.4h-18zm64.3 24.6H877v-11.6h-25.5c-.2-4.2-1.2-8.3-2.9-12.2h3c.6 7.7 2.7 9.8 12.9 9.8H877v-11.6h-25.5V171H877v-11.6h-26.7c-9.7 0-13.9 4.3-13.9 14V185c0 9.9 4.1 14 13.9 14zm51-42 2.4-6h-4.5l-2.4 6h4.5zm-7.6 42h26.7v-11.6h-25.6c-.2-4.2-1.2-8.3-2.9-12.2h3c.6 7.7 2.7 9.8 12.9 9.8h12.6v-11.6h-25.5V171h25.5v-11.6h-26.7c-9.7 0-13.9 4.3-13.9 14V185c-.1 9.9 4 14 13.9 14zm52.2-42 4.2-6h-4.5l-2.1 3-2.1-3h-4.5l4.2 6h4.8zm-8.9 42h26.7v-11.6h-25.6c-.2-4.2-1.2-8.3-2.9-12.2h3c.6 7.7 2.7 9.8 12.9 9.8h12.6v-11.6h-25.5V171h25.5v-11.6H937c-9.7 0-13.9 4.3-13.9 14V185c0 9.9 4 14 13.9 14zm56.4-42-4.2-6h-4.8l-4.2 6h4.5l2.1-3 2.1 3h4.5zm-13.1 42h26.7v-11.6h-25.6c-.2-4.2-1.2-8.3-2.9-12.2h3c.6 7.7 2.7 9.8 12.9 9.8h12.6v-11.6h-25.5V171h25.5v-11.6h-26.7c-9.7 0-13.9 4.3-13.9 14V185c0 9.9 4.1 14 13.9 14zm51.7-45c0 2.2 2.1 3.1 3.8 3.1s3.8-.8 3.8-3.1-2.1-2.9-3.8-2.9-3.8.6-3.8 2.9zm-7.7 3.1c1.7 0 3.8-.8 3.8-3.1s-2.1-2.9-3.8-2.9-3.8.7-3.8 2.9 2.2 3 3.8 3.1zm-.7 42h26.7v-11.6h-25.6c-.2-4.2-1.2-8.3-2.9-12.2h3c.6 7.7 2.7 9.8 12.9 9.8h12.6v-11.6h-25.5v-2.4h25.5v-11.6h-26.7c-9.7 0-13.9 4.3-13.9 14V185c0 9.9 4.1 14 13.9 14.1zm49.9-42.1c1.7 0 3.8-.8 3.8-3.1s-2.1-2.9-3.8-2.9-3.8.7-3.8 2.9 2.1 3.1 3.8 3.1zm-6.6 42h26.7v-11.6H1068c-.2-4.2-1.2-8.3-2.9-12.2h3c.6 7.7 2.7 9.8 12.9 9.8h12.6v-11.6h-25.5V171h25.5v-11.6h-26.7c-9.7 0-13.9 4.3-13.9 14V185c0 9.9 4.1 14 13.9 14zm46.4-48 2.4 6h4.5l-2.4-6h-4.5zm-3 48h26.7v-11.6h-25.6c-.2-4.2-1.2-8.3-2.9-12.2h3c.6 7.7 2.7 9.8 12.9 9.8h12.6v-11.6h-25.5V171h25.5v-11.6h-26.7c-9.7 0-13.9 4.3-13.9 14V185c-.1 9.9 4 14 13.9 14zm54.6-47.5h-9.6v4.8h9.6v-4.8zm-11.3 47.5h26.7v-11.6h-25.6c-.2-4.2-1.2-8.3-2.9-12.2h3c.6 7.7 2.7 9.8 12.9 9.8h12.6v-11.6h-25.5V171h25.5v-11.6h-26.7c-9.7 0-13.9 4.3-13.9 14V185c0 9.9 4 14 13.9 14zM87.2 232.4V258h15c0-11.9-.8-15.4-2.8-20.4h3c.7 7.7 2.1 13.2 12.2 13.2h12.1v-15h-24.2v-2.4h24.2v-15H99.9c-9.4 0-12.7 4.6-12.7 14zm56.9 25.6c9.7 0 13.2-3.7 14.3-13.3h2.9c-2 4.2-2.9 8.7-2.9 13.3h15.1v-22.1h-15.1v7h-14v-9.4h29.1c0-11.8-2.6-15.1-13.9-15.1h-16.3c-10.2 0-13.9 4.1-13.9 14v10.4c-.1 9.8 5.1 15.2 14.7 15.2zm32.4-39.6V258h15v-14h14v14h15v-39.6h-15v10.5H202c-6.6 0-9.8 5.8-10.4 13.3h-2.9a34 34 0 0 0 2.9-15.1v-8.8l-15.1.1zm47 0h15V258h-15v-39.6zm36 39.6h16.3c8.4 0 13.9-5.9 13.9-13.9v-25.7h-15c-.1 23.2-.3 28.3 2.9 32h-3c-2.5-5.9-6.6-7.4-15.1-7.4v15zm-18-39.6V258h15v-39.6h-15zm60.4-2.4 2.4-6h-4.5l-2.4 6h4.5zm-9.2 2.4V258h15v-39.6h-15zm32.1-2.4-4.2-6h-4.8l-4.2 6h4.5l2.1-3 2.1 3h4.5zm-14.1 2.4V258h15v-39.6h-15zm27.4-5.4c0 2.2 2.1 3.1 3.8 3.1s3.8-.8 3.8-3.1-2.1-2.9-3.8-2.9-3.8.6-3.8 2.9zm-7.7 3c1.7 0 3.8-.8 3.8-3.1s-2.1-2.9-3.8-2.9-3.8.7-3.8 2.9 2.1 3.1 3.8 3.1zm-1.7 2.4V258h15v-39.6h-15zm21.4-8.4 2.4 6h4.5l-2.4-6h-4.5zm-3.4 8.4V258h15v-39.6h-15zm30.3-7.9h-9.6v4.8h9.6v-4.8zm-12.3 7.9V258h15v-39.6h-15zm18 39.6H399c8.4 0 13.9-5.9 13.9-13.9v-25.7h-15c-.1 23.2-.3 28.3 2.9 32h-3c-2.5-5.9-6.6-7.4-15.1-7.4v15zm57.4-42 2.4-6H438l-2.4 6h4.5zm-24.2 42h16.3c8.4 0 13.9-5.9 13.9-13.9v-25.7h-15c-.1 23.2-.3 28.3 2.9 32h-3c-2.5-5.9-6.6-7.4-15.1-7.4v15zm33.3-39.6V258h15c0-17.1-.2-17.8-3-25.9h3c.6 11.2 4 13.4 16.2 13.4V258h15v-11.4c0-6.6-2.5-7.4-12.7-7.4v-2.4c10 0 12.7-.7 12.7-7.6v-10.8h-15v12h-16.2v-12h-15zm63.1 39.6h20.9v-15h-10.5c-6.4 0-8.6 3.7-9.2 7.4h-3c3.2-3.7 2.9-8.6 2.9-32h-15v25.7c0 8 5.5 13.9 13.9 13.9zm32.9-42 2.4-6h-4.5l-2.4 6h4.5zm5 42h20.9v-15h-10.5c-6.4 0-8.6 3.7-9.2 7.4h-3c3.2-3.7 2.9-8.6 2.9-32h-15v25.7c-.1 8 5.5 13.9 13.9 13.9zm34.2-42 4.2-6h-4.5l-2.1 3-2.1-3h-4.5l4.2 6h4.8zm3.6 42h21v-15h-10.5c-6.4 0-8.6 3.7-9.2 7.4h-3c3.2-3.7 2.9-8.6 2.9-32h-15v25.7c-.1 8 5.4 13.9 13.8 13.9zm54.6-39.6c-3.5 11.7-5 16.3-5 23.2h-2.3c0-6.9-1.5-11.6-5-23.2H612V258h15c0-13.3-2.6-20.2-5.4-23.5l3-1.4 7.8 24.8h8.1l7.8-24.8 3.1 1.4c-2.9 3.3-5.4 10.2-5.4 23.5h15v-39.6h-18.4zm50.7 0v10.3a18.8 18.8 0 0 0 6.2 14.4l-2.4 1.9-16.9-26.5H664V258h15v-10.5a22 22 0 0 0-6.2-14.5l2.4-1.8 16.9 26.8h16.2v-39.6h-15zm41.3-2.4 2.4-6h-4.5l-2.4 6h4.5zm6.1 2.4v10.3a18.8 18.8 0 0 0 6.2 14.4l-2.4 1.9-16.9-26.5h-16.2V258h15v-10.5a22 22 0 0 0-6.2-14.5l2.4-1.8 16.9 26.8h16.2v-39.6h-15zm42.6-2.4 4.2-6H783l-2.1 3-2.1-3h-4.5l4.2 6h4.8zm4.7 2.4v10.3a18.8 18.8 0 0 0 6.2 14.4l-2.4 1.9-16.9-26.5h-16.2V258h15v-10.5a22 22 0 0 0-6.2-14.5l2.4-1.8 16.9 26.8H803v-39.6h-15zm47.2-7.8c-1 .7-2.2 1-3.4.9-2.2 0-3.3-1.4-6-1.4a8 8 0 0 0-4.5 1.4v4.5c1.3-1 2.9-1.5 4.5-1.5 1.9 0 3.2 1.5 6 1.5 1.2.1 2.4-.3 3.4-.9v-4.5zm.1 7.8v10.3a18.8 18.8 0 0 0 6.2 14.4l-2.4 1.9-16.9-26.5H806V258h15v-10.5a22 22 0 0 0-6.2-14.5l2.4-1.8 16.9 26.8h16.2v-39.6h-15zm27.3 24.6v-9.6h25v9.6h-25zm5.6 15h14c10.2 0 15.1-4.6 15.1-14.6v-9.7c0-10.8-3.8-15.4-14.7-15.4h-14.9c-10.2 0-14.6 4.9-14.6 14.8v9.8c-.1 10.4 4.4 15.1 15.1 15.1zm54.7-42 2.4-6h-4.5l-2.4 6h4.5zm-13.6 27v-9.6h25v9.6h-25zm5.5 15h14c10.2 0 15.1-4.6 15.1-14.6v-9.7c0-10.8-3.8-15.4-14.7-15.4h-14.9c-10.2 0-14.6 4.9-14.6 14.8v9.8c0 10.4 4.5 15.1 15.1 15.1zm60.2-42-4.2-6H966l-4.2 6h4.5l2.1-3 2.1 3h4.5zm-19.1 27v-9.6h25v9.6h-25zm5.5 15h14c10.2 0 15.1-4.6 15.1-14.6v-9.7c0-10.8-3.8-15.4-14.7-15.4h-14.9c-10.2 0-14.6 4.9-14.6 14.8v9.8c0 10.4 4.5 15.1 15.1 15.1zm55.5-45c0 2.2 2.1 3.1 3.8 3.1s3.8-.8 3.8-3.1-2.1-2.9-3.8-2.9-3.8.6-3.8 2.9zm-7.7 3.1c1.7 0 3.8-.8 3.8-3.1s-2.1-2.9-3.8-2.9-3.8.7-3.8 2.9 2.1 3 3.8 3.1zm-6.7 27v-9.6h25v9.5l-25 .1zm5.5 15h14c10.2 0 15.1-4.6 15.1-14.6v-9.7c0-10.8-3.8-15.4-14.7-15.4h-14.9c-10.2 0-14.6 4.9-14.6 14.8v9.8c0 10.3 4.5 15 15.1 15.1zm50.2-48.1 2.4 6h4.5l-2.4-6h-4.5zm-9.1 33v-9.6h25v9.6h-25zm5.5 15h14c10.2 0 15.1-4.6 15.1-14.6v-9.7c0-10.8-3.8-15.4-14.7-15.4h-14.9c-10.2 0-14.6 4.9-14.6 14.8v9.8c0 10.4 4.5 15.1 15.1 15.1zm53.7-42h4.5l2.4-6h-4.5l-2.4 6zm-2.4 0 2.4-6h-4.5l-2.4 6h4.5zm-10.2 27v-9.6h25v9.6h-25zm5.6 15h14c10.2 0 15.1-4.6 15.1-14.6v-9.7c0-10.8-3.8-15.4-14.7-15.4h-14.9c-10.2 0-14.6 4.9-14.6 14.8v9.8c-.1 10.4 4.4 15.1 15.1 15.1zm58.4-47.5h-9.6v4.8h9.6v-4.8zm-17.3 32.5v-9.6h25v9.6h-25zm5.5 15h14c10.2 0 15.1-4.6 15.1-14.6v-9.7c0-10.8-3.8-15.4-14.7-15.4h-14.9c-10.2 0-14.6 4.9-14.6 14.8v9.8c0 10.4 4.5 15.1 15.1 15.1zM116.4 269.6c-1 .7-2.2 1-3.4.9-2.2 0-3.3-1.4-6-1.4a8 8 0 0 0-4.5 1.4v4.5c1.3-1 2.9-1.5 4.5-1.5 1.9 0 3.2 1.5 6 1.5 1.2.1 2.4-.3 3.4-.9v-4.5zM96.8 302v-9.6h25v9.6h-25zm5.5 15h14c10.2 0 15.1-4.6 15.1-14.6v-9.7c0-10.8-3.8-15.4-14.7-15.4h-14.9c-10.2 0-14.6 4.9-14.6 14.8v9.8c0 10.4 4.5 15.1 15.1 15.1zm46.8-21.6v-3h14v3h-14zm-15-2.2V317h15v-6.5c0-4.6-1-9.2-3-13.3h3c1.6 8.5 5.1 13.2 14 13.2 11 0 15.1-4.1 15.1-16.6 0-11.7-4.4-16.4-15.1-16.4h-14c-10.8 0-15 5-15 15.8zm46.5 8.8c0 10.4 5.9 15.1 15.7 15.1 10.1 0 14.8-2.3 15.4-13.4h2.4c-1.2 9.5.4 13.4 11.8 13.4v-14.9h-8.2v-2.4c3.6-.5 6.7-1 6.5-10.3s-6.8-12.1-14.2-12.1h-14.9c-10.2 0-14.6 4.9-14.6 14.8v9.8h.1zm9.6.1-.1-9.6h21.4v9.5l-21.3.1zm53.5-7.3v-2.4H260v2.4h-16.3zm-15.1-17.4V317h15l.1-10.2h16.2V317h14.9v-7.7c0-6.1-2.9-7.4-12.5-7.4v-2.4c9.6 0 12.5-2.3 12.5-10.8s-4.3-11.3-15.9-11.3-14.3 3.4-15.2 13.2h-3c1.6-2.6 2.9-7.9 2.9-13.2h-15zm73-2.4 2.4-6h-4.5l-2.4 6h4.5zm-9 19.8v-2.4h16.3v2.4h-16.3zm-15.1-17.4V317h15l.1-10.2h16.2V317h14.9v-7.7c0-6.1-2.9-7.4-12.5-7.4v-2.4c9.6 0 12.5-2.3 12.5-10.8s-4.3-11.3-15.9-11.3-14.3 3.4-15.2 13.2h-3c1.6-2.6 2.9-7.9 2.9-13.2h-15zm74.3-2.4 4.2-6h-4.5l-2.1 3-2.1-3h-4.5l4.2 6h4.8zm-10.3 19.8v-2.4h16.3v2.4h-16.3zm-15.1-17.4V317h15l.1-10.2h16.2V317h14.9v-7.7c0-6.1-2.9-7.4-12.5-7.4v-2.4c9.6 0 12.5-2.3 12.5-10.8s-4.3-11.3-15.9-11.3-14.3 3.4-15.2 13.2h-3c1.6-2.6 2.9-7.9 2.9-13.2h-15zm49.8 39.6h32.9c7 0 10.1-4.2 10.1-11.2 0-6.5-3.1-11-10.1-11h-19v-2.4H418v-15h-32c-7.7 0-11 3.5-11 11.3 0 8.2 3.2 10.9 11 10.9h18.2v2.4h-28v15zm68.5-42 2.4-6h-4.5l-2.4 6h4.5zm-22 42h32.9c7 0 10.1-4.2 10.1-11.2 0-6.5-3.1-11-10.1-11h-19v-2.4h27.8v-15h-32c-7.7 0-11 3.5-11 11.3 0 8.2 3.2 10.9 11 10.9h18.2v2.4h-28l.1 15zm69.9-42 4.2-6h-4.5l-2.1 3-2.1-3h-4.5l4.2 6h4.8zm-23.3 42h32.9c7 0 10.1-4.2 10.1-11.2 0-6.5-3.1-11-10.1-11h-19v-2.4h27.9v-15h-32c-7.7 0-11 3.5-11 11.3 0 8.2 3.2 10.9 11 10.9h18.2v2.4h-28v15zm60.3-15.7V317h15v-15.7c0-10.8-1-14.2-2.8-16.3h3s.3 7.4 5.6 7.4h9.4v-15h-45.4v15h9.4c5.4 0 5.7-7.4 5.7-7.4h3c-1.8 2.1-2.9 5.5-2.9 16.3zm57-26.3 4.2-6h-4.5l-2.1 3-2.1-3h-4.5l4.2 6h4.8zm-9.9 26.3V317h15v-15.7c0-10.8-1-14.2-2.8-16.3h3s.3 7.4 5.6 7.4h9.4v-15h-45.4v15h9.4c5.4 0 5.7-7.4 5.7-7.4h3c-1.8 2.1-2.9 5.5-2.9 16.3zm32.6-23.9v24.5c0 9.7 5.2 15.1 13.9 15.1 9.2 0 12.1-3.8 13.1-13.4h3a30.8 30.8 0 0 0-3.1 13.4h15l.1-39.6h-15v24.4h-12v-24.4h-15zm67.2-2.4 2.4-6h-4.5l-2.4 6h4.5zm-22.1 2.4v24.5c0 9.7 5.2 15.1 13.9 15.1 9.2 0 12.1-3.8 13.1-13.4h3a30.8 30.8 0 0 0-3.1 13.4h15l.1-39.6h-15v24.4h-12v-24.4h-15zm72.7-2.4-4.2-6h-4.8l-4.2 6h4.5l2.1-3 2.1 3h4.5zm-27.7 2.4v24.5c0 9.7 5.2 15.1 13.9 15.1 9.2 0 12.1-3.8 13.1-13.4h3a30.8 30.8 0 0 0-3.1 13.4h15l.1-39.6h-15v24.4h-12v-24.4h-15zm68-5.4c0 2.2 2.1 3.1 3.8 3.1s3.8-.9 3.8-3.1-2.1-2.9-3.8-2.9-3.8.6-3.8 2.9zm-7.7 3c1.7 0 3.8-.8 3.8-3.1s-2.1-2.9-3.8-2.9-3.7.7-3.7 3 2.1 3 3.7 3zm-15.2 2.4v24.5c0 9.7 5.2 15.1 13.9 15.1 9.2 0 12.1-3.8 13.1-13.4h3a30.8 30.8 0 0 0-3.1 13.4h15l.1-39.6h-15v24.4h-12v-24.4h-15zm62.6-8.4 2.4 6h4.5l-2.4-6h-4.5zm-17.5 8.4v24.5c0 9.7 5.2 15.1 13.9 15.1 9.2 0 12.1-3.8 13.1-13.4h3a30.8 30.8 0 0 0-3.1 13.4h15l.1-39.6h-15v24.4h-12v-24.4h-15zm66.1-2.4h4.5l2.4-6h-4.5l-2.4 6zm-2.4 0 2.4-6h-4.5l-2.4 6h4.5zm-18.7 2.4v24.5c0 9.7 5.2 15.1 13.9 15.1 9.2 0 12.1-3.8 13.1-13.4h3a30.8 30.8 0 0 0-3.1 13.4h15l.1-39.6h-15v24.4h-12v-24.4h-15zm70.9-7.9h-9.6v4.8h9.6v-4.8zm-25.8 7.9v24.5c0 9.7 5.2 15.1 13.9 15.1 9.2 0 12.1-3.8 13.1-13.4h3a30.8 30.8 0 0 0-3.1 13.4h15l.1-39.6h-15v24.4h-12v-24.4h-15zm65.1-5.4c0-.4.5-.6 1-.6s1 .2 1 .6-.5.6-1 .6-1-.3-1-.6zm1 3.1c1.9 0 4.1-.8 4.1-3.2s-2.3-3.1-4.1-3.1-4.1.7-4.1 3.1 2.2 3.2 4.1 3.2zm-21.1 2.4v24.4c0 9.7 5.2 15.1 13.9 15.1 9.2 0 12.1-3.8 13.1-13.4h3a30.8 30.8 0 0 0-3.1 13.4h15l.1-39.6h-15v24.4h-12v-24.4l-15 .1zm44.5-.1 10.5 39.6h25.2l10.5-39.6h-15c-5.5 16.5-6.6 18.7-6.6 27.6h-3c0-8.9-1.1-11.1-6.6-27.6h-15zm48 0 9.3 39.6h15.6c2.6-8.9 2.6-10.6 2.6-18.6h2.4c0 8 0 9.7 2.6 18.6h15.6l9.3-39.6h-15c-1.6 9.1-2.4 18.3-2.3 27.6h-2.4c.1-9.7-.4-15.2-3-27.6h-12a116.2 116.2 0 0 0-2.9 27.6h-2.4c.1-9.3-.7-18.5-2.3-27.6h-15.1zm88.9-2.4 2.4-6h-4.5l-2.4 6h4.5zm-29.7 2.4 9.3 39.6h15.6c2.6-8.9 2.6-10.6 2.6-18.6h2.4c0 8 0 9.7 2.6 18.6h15.6l9.3-39.6h-15c-1.6 9.1-2.4 18.3-2.3 27.6h-2.4c.1-9.7-.4-15.2-3-27.6h-12a116.2 116.2 0 0 0-2.9 27.6h-2.4c.1-9.3-.7-18.5-2.3-27.6h-15.1zm94.4-2.4-4.2-6h-4.8l-4.2 6h4.5l2.1-3 2.1 3h4.5zm-35.3 2.4 9.3 39.6h15.6c2.6-8.9 2.6-10.6 2.6-18.6h2.4c0 8 0 9.7 2.6 18.6h15.6l9.3-39.6h-15c-1.6 9.1-2.4 18.3-2.3 27.6h-2.4c.1-9.7-.4-15.2-3-27.6h-12a116.2 116.2 0 0 0-2.9 27.6h-2.4c.1-9.3-.7-18.5-2.3-27.6h-15.1zM117.4 331c0 2.2 2.1 3.1 3.8 3.1s3.8-.8 3.8-3.1-2.1-3-3.8-3-3.8.7-3.8 3zm-7.6 3c1.7 0 3.8-.8 3.8-3.1s-2.1-2.9-3.8-2.9-3.8.7-3.8 3 2.1 3 3.8 3zm-22.9 2.4 9.3 39.6h15.6c2.6-8.9 2.6-10.6 2.6-18.6h2.4c0 8 0 9.7 2.6 18.6H135l9.3-39.6h-15c-1.6 9.1-2.4 18.3-2.3 27.6h-2.4c.1-9.7-.4-15.2-3-27.6h-12a116.2 116.2 0 0 0-2.9 27.6h-2.4c.1-9.3-.7-18.5-2.3-27.6H86.9zm84.4-8.4 2.4 6h4.5l-2.4-6h-4.5zm-25.2 8.4 9.3 39.6H171c2.6-8.9 2.6-10.6 2.6-18.6h2.4c0 8 0 9.7 2.6 18.6h15.6l9.3-39.6h-15c-1.6 9.1-2.4 18.3-2.3 27.6h-2.4c.1-9.7-.4-15.2-3-27.6h-12a116.2 116.2 0 0 0-2.9 27.6h-2.4c.1-9.3-.7-18.5-2.3-27.6h-15.1zm59.1 39.6h15.6c5.6-7.6 6-9.6 6-15h2.4c0 5.4.3 7.4 5.9 15h15.6l-12.5-19.8 12.5-19.8h-15.6c-5.6 8.2-5.9 10.1-5.9 15h-2.4c0-4.9-.4-6.8-6-15h-15.6l12.6 19.8-12.6 19.8zm63.7 0h15.6v-11l17.2-28.6h-17.4c-5.3 10.2-6.4 12-6.4 17.5h-2.4c0-5.5-1-7-6.4-17.5h-17.4l17.2 28.6v11zm58.8-42 2.4-6h-4.5l-2.4 6h4.5zm-8.8 42h15.6v-11l17.2-28.6h-17.4c-5.3 10.2-6.4 12-6.4 17.5h-2.4c0-5.5-1-7-6.4-17.5h-17.4l17.2 28.6v11zm64.3-42-4.2-6h-4.8l-4.2 6h4.5l2.1-3 2.1 3h4.5zm-14.4 42h15.6v-11l17.2-28.6h-17.4c-5.3 10.2-6.4 12-6.4 17.5h-2.4c0-5.5-1-7-6.4-17.5h-17.4l17.2 28.6v11zm59.7-45c0 2.2 2.1 3.1 3.8 3.1s3.8-.8 3.8-3.1-2.1-3-3.8-3-3.8.7-3.8 3zm-7.7 3c1.7 0 3.8-.8 3.8-3.1s-2.1-2.9-3.8-2.9-3.8.7-3.8 3 2.1 3 3.8 3zm-2 42h15.6v-11l17.2-28.6h-17.4c-5.3 10.2-6.4 12-6.4 17.5h-2.4c0-5.5-1-7-6.4-17.5h-17.4l17.2 28.6v11zm54.3-48 2.4 6h4.5l-2.4-6h-4.5zm-4.3 48h15.6v-11l17.2-28.6h-17.4c-5.3 10.2-6.4 12-6.4 17.5h-2.4c0-5.5-1-7-6.4-17.5h-17.4l17.2 28.6v11zm34.3 0h42v-15H536c-5 0-8.6 3.2-11.9 7.4l-2-2.2 23-18.1v-11.7h-42v15h9.1c5.4 0 8.6-3.1 11.9-7.4l2 2.2-23.1 18.2.1 11.6zm67-42 2.4-6H568l-2.4 6h4.5zm-22 42h42v-15H581c-5 0-8.6 3.2-11.9 7.4l-2-2.2 23-18.1v-11.7h-42v15h9.1c5.4 0 8.6-3.1 11.9-7.4l2 2.2-23.1 18.2.1 11.6zm68.4-42 4.2-6h-4.5l-2.1 3-2.1-3h-4.5l4.2 6h4.8zm-23.4 42h42v-15H626c-5 0-8.6 3.2-11.9 7.4l-2-2.2 23-18.1v-11.7h-42v15h9.1c5.4 0 8.6-3.1 11.9-7.4l2 2.2-23.1 18.2.1 11.6zm66-42c1.7 0 3.8-.8 3.8-3.1s-2.1-2.9-3.8-2.9-3.8.7-3.8 2.9 2.1 3.1 3.8 3.1zm-21 42h42v-15H671c-5 0-8.6 3.2-11.9 7.4l-2-2.2 23-18.1v-11.7h-42v15h9.1c5.4 0 8.6-3.1 11.9-7.4l2 2.2-23.1 18.2.1 11.6zm59.5-15.1v-2.4h11.6v2.4h-11.6zm-15.1 4.5c0 7.1 4.9 10.6 12.8 10.6 10 0 13-3.1 14-13.4h2.9a32.6 32.6 0 0 0-2.9 13.4h15.1v-18.6c0-8.6-4.9-13.7-13.9-13.7h-26.8v9h25.6v2.4H693c-7.2-.1-10.5 2.9-10.5 10.3zm67-24.2 2.4-6h-4.5l-2.4 6h4.5zm-7.3 19.7v-2.4h11.6v2.4h-11.6zm-15.2 4.5c0 7.1 5 10.6 12.8 10.6 10 0 13-3.1 14-13.4h2.9a32.6 32.6 0 0 0-2.9 13.4h15.1v-18.6c0-8.6-4.9-13.7-13.9-13.7h-26.8v9h25.6v2.4h-16.3c-7.1-.1-10.5 2.9-10.5 10.3zm64.3-24.2h3.5c2.8 0 4.1-1.3 4.1-4.1v-1.9h-4.5v3h-2.8v-3h-4.5v1.9c.1 2.8 1.4 4.1 4.2 4.1zm-4.6 19.7v-2.4h11.6v2.4h-11.6zm-15.1 4.5c0 7.1 4.9 10.6 12.8 10.6 10 0 13-3.1 14-13.4h2.9a32.6 32.6 0 0 0-2.9 13.4h15.1v-18.6c0-8.6-4.9-13.7-13.9-13.7h-26.8v9h25.6v2.4h-16.3c-7.1-.1-10.5 2.9-10.5 10.3zm72.6-24.2-4.2-6h-4.8l-4.2 6h4.5l2.1-3 2.1 3h4.5zm-12.9 19.7v-2.4H843v2.4h-11.7zm-15.1 4.5c0 7.1 4.9 10.6 12.8 10.6 10 0 13-3.1 14-13.4h2.9A32.6 32.6 0 0 0 843 376h15.1v-18.6c0-8.6-4.9-13.7-13.9-13.7h-26.7v9H843v2.4h-16.3c-7.1-.1-10.5 2.9-10.5 10.3zm67.9-27.2c0 2.2 2.1 3.1 3.8 3.1s3.8-.8 3.8-3.1-2.1-2.9-3.8-2.9-3.8.6-3.8 2.9zm-7.7 3c1.7 0 3.8-.8 3.8-3.1s-2.1-2.9-3.8-2.9-3.8.7-3.8 2.9 2.1 3.1 3.8 3.1zm-.5 19.7v-2.4h11.6v2.4h-11.6zm-15.1 4.5c0 7.1 4.9 10.6 12.8 10.6 10 0 13-3.1 14-13.4h2.9a32.6 32.6 0 0 0-2.9 13.4h15.1v-18.6c0-8.6-4.9-13.7-13.9-13.7H862v9h25.6v2.4h-16.3c-7.2-.1-10.5 2.9-10.5 10.3zm62.5-30.2 2.4 6h4.5l-2.4-6h-4.5zm-2.8 25.7v-2.4h11.6v2.4h-11.6zm-15.1 4.5c0 7.1 4.9 10.6 12.8 10.6 10 0 13-3.1 14-13.4h2.9a32.6 32.6 0 0 0-2.9 13.4h15.1v-18.6c0-8.6-4.9-13.7-13.9-13.7h-26.8v9h25.6v2.4h-16.3c-7.2-.1-10.5 2.9-10.5 10.3zm70.8-29.7h-9.6v4.8h9.6v-4.8zm-11.1 25.2v-2.4h11.6v2.4h-11.6zm-15.2 4.5c0 7.1 4.9 10.6 12.8 10.6 10 0 13-3.1 14-13.4h2.9a32.6 32.6 0 0 0-2.9 13.4h15.1v-18.6c0-8.6-4.9-13.7-13.9-13.7h-26.8v9h25.6v2.4h-16.3c-7.1-.1-10.5 2.9-10.5 10.3zm65-27.2c0-.4.5-.6 1-.6s1 .2 1 .6-.5.6-1 .6-1-.3-1-.6zm1 3.1c1.9 0 4.1-.8 4.1-3.2s-2.3-3.1-4.1-3.1-4.1.7-4.1 3.1 2.3 3.2 4.1 3.2zm-6.3 19.6v-2.4h11.6v2.4h-11.6zm-15.1 4.5c0 7.1 4.9 10.6 12.8 10.6 10 0 13-3.1 14-13.4h2.9a32.6 32.6 0 0 0-2.9 13.4h15.1v-18.7c0-8.6-4.9-13.7-13.9-13.7h-26.8v9h25.6v2.4H1005c-7.1 0-10.5 3-10.5 10.4zm73-29.6c-1 .7-2.2 1-3.4.9-2.2 0-3.3-1.4-6-1.4a8 8 0 0 0-4.5 1.4v4.6c1.3-1 2.9-1.5 4.5-1.5 1.9 0 3.2 1.5 6 1.5 1.2.1 2.4-.3 3.4-.9v-4.6zm-13.3 25.1v-2.4h11.6v2.4h-11.6zm-15.1 4.5c0 7.1 4.9 10.6 12.8 10.6 10 0 13-3.1 14-13.4h2.9a32.6 32.6 0 0 0-2.9 13.4h15.1v-18.7c0-8.6-4.9-13.7-13.9-13.7h-26.8v9h25.6v2.4h-16.3c-7.1 0-10.5 3-10.5 10.4zm60.6-4.5v-2.3h17.4v2.3h-17.4zm-2.9 1.7h2.9c.7 10.3 4.7 13.4 16.2 13.4 10.5 0 15.2-4.7 15.2-16.3 0-11.3-4.9-16.3-15.2-16.3-11.4 0-15.5 3-16.2 13.4h-2.9c2-4.5 3-9.3 2.8-14.2v-6.2h-15V376h15.1c0-5.5-.6-8.8-2.9-13.4zm50.6 13.4h25v-15h-23.9c0-5.1-1.3-8.1-2.8-9.8h3s1.6 7.4 8.6 7.4h15.1v-15h-25c-9.5 0-13.9 5.4-13.9 16.3s4.4 16.1 13.9 16.1zM108 400.2l2.4-6h-4.5l-2.4 6h4.5zm-6.9 34.8h25v-15h-23.9c0-5.1-1.3-8.1-2.8-9.8h3s1.6 7.4 8.6 7.4h15.1v-15h-25c-9.5 0-13.9 5.4-13.9 16.3s4.4 16.1 13.9 16.1zm50.1-34.8 4.2-6h-4.5l-2.1 3-2.1-3h-4.5l4.2 6h4.8zM143 435h25v-15h-23.9c0-5.1-1.3-8.1-2.8-9.8h3s1.6 7.4 8.6 7.4H168v-15h-25c-9.5 0-13.9 5.4-13.9 16.3S133.5 435 143 435zm41.9-15.1v-2.3h17.4v2.3h-17.4zm1.2 15.1c11.5 0 15.5-3.1 16.2-13.4h2.9a26.1 26.1 0 0 0-2.9 13.4h15.1v-39.6h-15v6.2c-.2 4.9.7 9.8 2.8 14.2h-2.9c-.7-10.4-4.8-13.4-16.2-13.4-10.3 0-15.2 5-15.2 16.3.1 11.6 4.7 16.3 15.2 16.3zm51.9-34.8 4.2-6h-4.5l-2.1 3-2.1-3H229l4.2 6h4.8zm-3.6 19.7v-2.3h17.4v2.3h-17.4zm1.2 15.1c11.5 0 15.5-3.1 16.2-13.4h2.9a26.1 26.1 0 0 0-2.9 13.4H267v-39.6h-15v6.2c-.2 4.9.7 9.8 2.8 14.2h-2.9c-.7-10.4-4.8-13.4-16.2-13.4-10.3 0-15.2 5-15.2 16.3 0 11.6 4.6 16.3 15.1 16.3zm46.5-25h3s1.5 7.3 7.9 7.3h7.1v2.4h-15.2c-.4-6-1.5-8.3-2.8-9.7zm28.2 15.7H285v-2.4h18c6.4 0 9.1-3.1 9.1-10.1 0-6.4-4.4-10.7-10.9-10.7h-17.4c-8.5 0-13.8 5.9-13.8 13.9v4.7c0 7.3 4.4 13.9 13.8 13.9h26.5v-9.3zm26.3-25.5 2.4-6h-4.5l-2.4 6h4.5zm-9.9 9.8h3s1.5 7.3 7.9 7.3h7.1v2.4h-15.2c-.4-6-1.6-8.3-2.8-9.7zm28.1 15.7h-25.3v-2.4h18.1c6.4 0 9.1-3.1 9.1-10.1 0-6.4-4.4-10.7-10.9-10.7h-17.4c-8.5 0-13.8 5.9-13.8 13.9v4.7c0 7.3 4.4 13.9 13.8 13.9h26.5v-9.3h-.1zm27.6-25.5 4.2-6h-4.5l-2.1 3-2.1-3h-4.5l4.2 6h4.8zm-11.2 9.8h3s1.5 7.3 7.9 7.3h7.1v2.4H374c-.4-6-1.6-8.3-2.8-9.7zm28.1 15.7H374v-2.4h18.1c6.4 0 9.1-3.1 9.1-10.1 0-6.4-4.4-10.7-10.9-10.7h-17.4c-8.5 0-13.8 5.9-13.8 13.9v4.7c0 7.3 4.4 13.9 13.8 13.9h26.5l-.1-9.3zm31.8-25.5-4.2-6h-4.8l-4.2 6h4.5l2.1-3 2.1 3h4.5zm-15.4 9.8h3s1.5 7.3 7.9 7.3h7.1v2.4h-15.2c-.4-6-1.5-8.3-2.8-9.7zm28.1 15.7h-25.3v-2.4h18.1c6.4 0 9.1-3.1 9.1-10.1 0-6.4-4.4-10.7-10.9-10.7h-17.4c-8.5 0-13.8 5.9-13.8 13.9v4.7c0 7.3 4.4 13.9 13.8 13.9h26.5l-.1-9.3zm27.1-28.5c0 2.2 2.1 3.1 3.8 3.1s3.8-.8 3.8-3.1-2.1-2.9-3.8-2.9-3.8.6-3.8 2.9zm-7.7 3c1.7 0 3.8-.8 3.8-3.1s-2.1-2.9-3.8-2.9-3.8.7-3.8 2.9 2.1 3.1 3.8 3.1zm-3 9.8h3s1.5 7.3 7.9 7.3h7.1v2.4H463c-.4-6-1.5-8.3-2.8-9.7zm28.2 15.7H463v-2.4h18.1c6.4 0 9.1-3.1 9.1-10.1 0-6.4-4.4-10.7-10.9-10.7h-17.4c-8.5 0-13.8 5.9-13.8 13.9v4.7c0 7.3 4.4 13.9 13.8 13.9h26.5v-9.3zm25.2-25.5c1.7 0 3.8-.8 3.8-3.1s-2.1-2.9-3.8-2.9-3.8.7-3.8 2.9 2.1 3.1 3.8 3.1zm-8.9 9.8h3s1.5 7.3 7.9 7.3h7.1v2.4h-15.2c-.4-6-1.5-8.3-2.8-9.7zm28.2 15.7h-25.3v-2.4h18.1c6.4 0 9.1-3.1 9.1-10.1 0-6.4-4.4-10.7-10.9-10.7h-17.4c-8.5 0-13.8 5.9-13.8 13.9v4.7c0 7.3 4.4 13.9 13.8 13.9H533v-9.3h-.1zm21.7-31.5 2.4 6h4.5l-2.4-6h-4.5zm-5.3 15.8h3s1.5 7.3 7.9 7.3h7.1v2.4H552c-.3-6-1.5-8.3-2.7-9.7zm28.1 15.7h-25.3v-2.4h18.1c6.4 0 9.1-3.1 9.1-10.1 0-6.4-4.4-10.7-10.9-10.7H551c-8.5 0-13.8 5.9-13.8 13.9v4.7c0 7.3 4.4 13.9 13.8 13.9h26.5v-9.3h-.1zm30-31h-9.6v4.8h9.6v-4.8zM593.8 410h3s1.5 7.3 7.9 7.3h7.1v2.4h-15.2c-.4-6-1.6-8.3-2.8-9.7zm28.1 15.7h-25.3v-2.4h18.1c6.4 0 9.1-3.1 9.1-10.1 0-6.4-4.4-10.7-10.9-10.7h-17.4c-8.5 0-13.8 5.9-13.8 13.9v4.7c0 7.3 4.4 13.9 13.8 13.9H622v-9.3h-.1zm10.2 1.4v7.9h15c0-11.2-.2-13.9-3-20.5h3c.6 7.7 2.1 13.3 12.9 13.3h8v-15h-20.9v-2.4H668v-15h-22.1c-9.2 0-13.8 3.1-13.8 13.9v3.5h-6v12h3.5c1.4 0 2.4 1 2.5 2.3zm38.9-8.3c0 10.9 4.4 15.3 14.6 15.3s14.3-3.7 14.9-12.4h2.9a26 26 0 0 0-2.9 13.6l-27.2.1v9.3h28.8c8.6 0 13.4-3.4 13.4-12.9v-29.1h-15c0 7.3.1 8.9 2.9 13.2h-2.9c-.6-8.8-4.6-13.2-14.9-13.2-9.9-.1-14.6 5.2-14.6 16.1zm15 1.1v-2.3h14.6v2.3H686zm61.7 15.1h16.8v-17.4c0-9.2-4.7-15.1-13.7-15.1-9.2 0-14 3.6-14.7 13.4h-3c1.9-4.2 2.9-8.8 2.9-13.4v-7h-16.8V435h16.9v-17.4h11.6V435zm19.2-35c0 3.6 3.2 4.7 8.7 4.7s8.8-1.1 8.8-4.7-3.2-4.6-8.8-4.6-8.7 1-8.7 4.6zm1.3 6.8V435h15v-28.2h-15zm41.3-6.8c0 3.6 3.2 4.7 8.7 4.7s8.8-1 8.8-4.7-3.2-4.6-8.8-4.6-8.7 1-8.7 4.6zm-7.6 44.6h10c8.4 0 13.9-5.9 13.9-13.9v-23.8h-15v15.4c0 11.7 1.1 15.7 2.9 17.8h-3s-.7-4-4.6-4h-4.3l.1 8.5zM785.6 400c0 3.6 3.2 4.7 8.7 4.7s8.8-1.1 8.8-4.7-3.2-4.6-8.8-4.6-8.7 1-8.7 4.6zm1.3 6.8V435h15v-28.2h-15zm49-6.8c0 3.6 3.2 4.7 8.7 4.7s8.8-1.1 8.8-4.7-3.2-4.6-8.8-4.6-8.7 1-8.7 4.6zm-7.7 44.6h10c8.4 0 13.9-5.9 13.9-13.9v-23.8h-15v15.4c0 11.7 1.1 15.7 2.9 17.8h-3s-.7-4-4.6-4h-4.3l.1 8.5zm56.5-9.6h13.4v-15H871v-2.4h27.1v-15h-13.4c-8.8 0-12.5 4.1-13.7 13.2h-3c2.5-6.5 3.4-9.2 3.4-20.4h-15V435h15c0-5.4-1.3-8.6-3.4-13.2h3c1.2 9.1 5 13.2 13.7 13.2zm17-39.6h15V435h-15v-39.6zm27.2-2.4 2.4-6h-4.5l-2.4 6h4.5zm-8.6 2.4V435h15v-39.6h-15zm28.5-2.4 4.2-6h-4.5l-2.1 3-2.1-3h-4.5l4.2 6h4.8zm-9.9 2.4V435h15v-39.6h-15zm74.6 39.6v-19.4c0-6.9-1.4-13-9.1-13-6.7 0-9.5 4.6-10.6 13h-2.4c1.4-6.8-.2-13-7.1-13-7.6 0-11 6.8-11.8 13h-3c2-4.9 3-8.3 3-13h-15V435h15v-17.6h5.4V435h15.2v-17.6h5.4V435h15zm29.4 0h15v-17.4c0-8.9-4.4-15-13.4-15-8.5 0-11.7 4.1-12.4 13.2h-3c1.9-4.1 3-8.6 3-13.2h-15V435h15v-17.4h10.8V435zm40.1-34.8 2.4-6h-4.5l-2.4 6h4.5zm4.3 34.8h15v-17.4c0-8.9-4.4-15-13.4-15-8.5 0-11.7 4.1-12.4 13.2h-3c1.9-4.1 3-8.6 3-13.2h-15V435h15v-17.4h10.8V435zm41.4-34.8 4.2-6h-4.5l-2.1 3-2.1-3h-4.5l4.2 6h4.8zm3 34.8h15v-17.4c0-8.9-4.4-15-13.4-15-8.5 0-11.7 4.1-12.4 13.2h-3c1.9-4.1 3-8.6 3-13.2h-15V435h15v-17.4h10.8V435zm46.1-40.2c-1 .7-2.2 1-3.4.9-2.2 0-3.3-1.4-6-1.4a8 8 0 0 0-4.5 1.4v4.6c1.3-1 2.9-1.5 4.5-1.5 1.9 0 3.2 1.5 6 1.5 1.2.1 2.4-.3 3.4-.9v-4.6zm-1.7 40.2h15v-17.4c0-8.9-4.4-15-13.4-15-8.5 0-11.7 4.1-12.4 13.2h-3c1.9-4.1 3-8.6 3-13.2h-15V435h15v-17.4h10.8V435zM96.5 479v-2.4h22.8v2.4H96.5zm4.1 15h14.6c9.5 0 13.4-4.6 13.4-16.2s-3.7-16.2-13.4-16.2h-14.6c-9.5 0-13.4 4.4-13.4 16.2 0 11.5 3.7 16.2 13.4 16.2zm52.2-34.8 2.4-6h-4.5l-2.4 6h4.5zM140.3 479v-2.4h22.8v2.4h-22.8zm4.1 15H159c9.5 0 13.4-4.6 13.4-16.2s-3.7-16.2-13.4-16.2h-14.6c-9.5 0-13.4 4.4-13.4 16.2 0 11.5 3.7 16.2 13.4 16.2zm57.7-34.8-4.2-6h-4.8l-4.2 6h4.5l2.1-3 2.1 3h4.5zm-18 19.8v-2.4h22.8v2.4h-22.8zm4.1 15h14.6c9.5 0 13.4-4.6 13.4-16.2s-3.7-16.2-13.4-16.2h-14.6c-9.5 0-13.4 4.4-13.4 16.2 0 11.5 3.7 16.2 13.4 16.2zm53-37.8c0 2.2 2.1 3.1 3.8 3.1s3.8-.8 3.8-3.1-2.1-2.9-3.8-2.9-3.8.6-3.8 2.9zm-7.7 3c1.7 0 3.8-.8 3.8-3.1s-2.1-2.9-3.8-2.9-3.8.7-3.8 2.9 2.1 3.1 3.8 3.1zm-5.6 19.8v-2.4h22.8v2.4h-22.8zm4.1 15h14.6c9.5 0 13.4-4.6 13.4-16.2s-3.7-16.2-13.4-16.2H232c-9.5 0-13.4 4.4-13.4 16.2 0 11.5 3.7 16.2 13.4 16.2zm47.6-40.8 2.4 6h4.5l-2.4-6h-4.5zm-7.9 25.8v-2.4h22.8v2.4h-22.8zm4.1 15h14.6c9.5 0 13.4-4.6 13.4-16.2s-3.7-16.2-13.4-16.2h-14.6c-9.5 0-13.4 4.4-13.4 16.2 0 11.5 3.7 16.2 13.4 16.2zm51.1-34.8h4.5l2.4-6h-4.5l-2.4 6zm-2.4 0 2.4-6h-4.5l-2.4 6h4.5zm-9 19.8v-2.4h22.8v2.4h-22.8zm4.1 15h14.6c9.5 0 13.4-4.6 13.4-16.2s-3.7-16.2-13.4-16.2h-14.6c-9.5 0-13.4 4.4-13.4 16.2 0 11.5 3.7 16.2 13.4 16.2zm55.9-40.3h-9.6v4.8h9.6v-4.8zM359.3 479v-2.4h22.8v2.4h-22.8zm4.1 15H378c9.5 0 13.4-4.6 13.4-16.2s-3.7-16.2-13.4-16.2h-14.6c-9.5 0-13.4 4.4-13.4 16.2 0 11.5 3.7 16.2 13.4 16.2zm58.1-40.2c-1 .7-2.2 1-3.4.9-2.2 0-3.3-1.4-6-1.4a8 8 0 0 0-4.5 1.4v4.6c1.3-1 2.9-1.5 4.5-1.5 1.9 0 3.2 1.5 6 1.5 1.2.1 2.4-.3 3.4-.9v-4.6zM403.1 479v-2.4h22.8v2.4h-22.8zm4.1 15h14.6c9.5 0 13.4-4.6 13.4-16.2s-3.7-16.2-13.4-16.2h-14.6c-9.5 0-13.4 4.4-13.4 16.2 0 11.5 3.7 16.2 13.4 16.2zm46.1-15v-2.4h17.4v2.4h-17.4zm-.1 24.7V497c-.1-5.5-1-11-2.9-16.3h3c.1 8.3 5 13.3 14.9 13.3 11.8 0 16.2-5 16.2-16.3 0-11-4.2-16.1-16.2-16.1-10.1 0-14.9 5.2-15 13.1h-3c1.6-4.2 2.6-8.6 2.9-13.1h-15v42l15.1.1zm47.5-24.7v-2.4h17.4v2.4h-17.4zm17.4 18v6.6h15v-42h-15c.3 4.5 1.3 8.9 2.9 13.1h-3c-.1-8-4.9-13.1-15-13.1-12 0-16.2 5.2-16.2 16.1 0 11.3 4.4 16.3 16.2 16.3 9.9 0 14.9-5 14.9-13.3h3a57 57 0 0 0-2.8 16.3zm18.6-35.4V494h15v-15c0-1.3 1-2.3 2.3-2.3h19.8v-15H565c-8.8 0-13.4 4.1-13.4 13.2h-3a43 43 0 0 0 3-13.2l-14.9-.1zm59.5-2.4 2.4-6h-4.5l-2.4 6h4.5zm-19.3 2.4V494h15v-15c0-1.3 1-2.3 2.3-2.3H614v-15h-8.8c-8.8 0-13.4 4.1-13.4 13.2h-3a43 43 0 0 0 3-13.2l-14.9-.1zm60.8-2.4 4.2-6h-4.5l-2.1 3-2.1-3h-4.5l4.2 6h4.8zm-20.7 2.4V494h15v-15c0-1.3 1-2.3 2.3-2.3h19.8v-15h-8.8c-8.8 0-13.4 4.1-13.4 13.2h-3a43 43 0 0 0 3-13.2l-14.9-.1zm40.7 32.4h32.9c5.8 0 7.8-2.8 7.8-7.5 0-4.4-2-7.5-7.8-7.5h-19.1v-2.4h25.7v-15h-29.9c-7.6 0-10.8 3.6-10.8 10.4 0 8 3.2 10 11.5 10h15.4v2.4h-25.7v9.6zm65.1-34.8 2.4-6h-4.5l-2.4 6h4.5zM702 494h32.9c5.8 0 7.8-2.8 7.8-7.5 0-4.4-2-7.5-7.8-7.5h-19.1v-2.4h25.7v-15h-29.9c-7.6 0-10.8 3.6-10.8 10.4 0 8 3.2 10 11.5 10h15.4v2.4H702v9.6zm66.4-34.8 4.2-6h-4.5l-2.1 3-2.1-3h-4.5l4.2 6h4.8zM746.3 494h32.9c5.8 0 7.8-2.8 7.8-7.5 0-4.4-2-7.5-7.8-7.5h-19.1v-2.4h25.7v-15h-29.9c-7.6 0-10.8 3.6-10.8 10.4 0 8 3.2 10 11.5 10H772v2.4h-25.7v9.6zm64.2 0h20.9v-15h-19.7v-2.4h19.7v-15h-6.8c-8.4 0-12.9 6.1-12.9 13.2h-3c2.3-6.5 3-9.2 3-20.4h-15v9.6h-7v15h4.7c1.3 0 2.3 1.1 2.3 2.3 0 9.1 4.9 12.7 13.8 12.7zm24.5-32.4v17.9c0 9 4.6 14.5 13 14.5 8.8 0 12.2-4.3 13.4-13.4h3c-1.9 4.2-3 8.8-3 13.4h15v-32.4h-15v17.3H850v-17.3h-15zm66.8-2.4 2.4-6h-4.5l-2.4 6h4.5zm-21.8 2.4v17.9c0 9 4.6 14.5 13 14.5 8.8 0 12.2-4.3 13.4-13.4h3c-1.9 4.2-3 8.8-3 13.4h15v-32.4h-15v17.3H895v-17.3h-15zm72.3-2.4-4.2-6h-4.8l-4.2 6h4.5l2.1-3 2.1 3h4.5zm-27.3 2.4v17.9c0 9 4.6 14.5 13 14.5 8.8 0 12.2-4.3 13.4-13.4h3c-1.9 4.2-3 8.8-3 13.4h15v-32.4h-15v17.3H940v-17.3h-15zm67.6-5.4c0 2.2 2.1 3.1 3.8 3.1s3.8-.8 3.8-3.1-2.1-2.9-3.8-2.9-3.8.6-3.8 2.9zm-7.7 3c1.7 0 3.8-.8 3.8-3.1s-2.1-2.9-3.8-2.9-3.8.7-3.8 2.9 2.1 3.1 3.8 3.1zm-14.9 2.4v17.9c0 9 4.6 14.5 13 14.5 8.8 0 12.2-4.3 13.4-13.4h3c-1.9 4.2-3 8.8-3 13.4h15v-32.4h-15v17.3H985v-17.3h-15zm62.3-8.4 2.4 6h4.5l-2.4-6h-4.5zm-17.3 8.4v17.9c0 9 4.6 14.5 13 14.5 8.8 0 12.2-4.3 13.4-13.4h3c-1.9 4.2-3 8.8-3 13.4h15v-32.4h-15v17.3H1030v-17.3h-15zm65.7-2.4h4.5l2.4-6h-4.5l-2.4 6zm-2.4 0 2.4-6h-4.5l-2.4 6h4.5zm-18.3 2.4v17.9c0 9 4.6 14.5 13 14.5 8.8 0 12.2-4.3 13.4-13.4h3c-1.9 4.2-3 8.8-3 13.4h15v-32.4h-15v17.3H1075v-17.3h-15zm70.5-7.9h-9.6v4.8h9.6v-4.8zm-25.5 7.9v17.9c0 9 4.6 14.5 13 14.5 8.8 0 12.2-4.3 13.4-13.4h3c-1.9 4.2-3 8.8-3 13.4h15v-32.4h-15v17.3H1120v-17.3h-15zm64.7-5.4c0-.4.5-.6 1-.6s1 .2 1 .6-.5.6-1 .6-1-.3-1-.6zm1 3.1c1.9 0 4.1-.8 4.1-3.2s-2.3-3.1-4.1-3.1-4.1.7-4.1 3.1 2.3 3.2 4.1 3.2zm-20.7 2.3v17.9c0 9 4.6 14.5 13 14.5 8.8 0 12.2-4.3 13.4-13.4h3c-1.9 4.2-3 8.8-3 13.4h15v-32.4h-15v17.3H1165v-17.3h-15zm-1063.4 59L97 553h22.3l10.5-32.4h-15.3a68 68 0 0 0-5.1 23.1H107c0-6.9-1-10.9-5.1-23.1H86.6zm44.4 0 9.3 32.4h15.4c2-7.7 2.6-11.1 2.6-17.5h2.3c0 6.4.6 9.8 2.6 17.5h15.5l9.3-32.4h-15.3c-2.3 9.3-2.1 14.8-2.1 23.1h-2.4c.2-7.8-.8-15.6-2.8-23.1h-12a100 100 0 0 0-2.8 23.1h-2.4c0-7.9.2-13.8-2.1-23.1H131zm88-2.4 2.4-6h-4.5l-2.4 6h4.5zm-29.6 2.4 9.3 32.4H214c2-7.7 2.6-11.1 2.6-17.5h2.4c0 6.4.6 9.8 2.6 17.5h15.5l9.3-32.4h-15.3c-2.3 9.3-2.1 14.8-2.1 23.1h-2.4c.2-7.8-.8-15.6-2.8-23.1h-12a100 100 0 0 0-2.8 23.1h-2.4c0-7.9.2-13.8-2.1-23.1h-15.1zm93.4-2.4-4.2-6h-4.8l-4.2 6h4.5l2.1-3 2.1 3h4.5zm-35.2 2.4 9.3 32.4h15.4c2-7.7 2.6-11.1 2.6-17.5h2.3c0 6.4.6 9.8 2.6 17.5h15.5l9.3-32.4h-15.3c-2.3 9.3-2.1 14.8-2.1 23.1H285c.2-7.8-.8-15.6-2.8-23.1h-12a100 100 0 0 0-2.8 23.1H265c0-7.9.2-13.8-2.1-23.1h-15.3zm88.8-5.4c0 2.2 2.1 3.1 3.8 3.1s3.8-.8 3.8-3.1-2.1-2.9-3.8-2.9-3.8.6-3.8 2.9zm-7.7 3c1.7 0 3.8-.8 3.8-3.1s-2.1-2.9-3.8-2.9-3.8.7-3.8 2.9 2.1 3.1 3.8 3.1zm-22.7 2.4 9.3 32.4h15.4c2-7.7 2.6-11.1 2.6-17.5h2.3c0 6.4.6 9.8 2.6 17.5h15.5l9.3-32.4h-15.3c-2.3 9.3-2.1 14.8-2.1 23.1h-2.4c.2-7.8-.8-15.6-2.8-23.1h-12a100 100 0 0 0-2.8 23.1h-2.4c0-7.9.2-13.8-2.1-23.1H306zm83.4-8.4 2.4 6h4.5l-2.4-6h-4.5zm-25.1 8.4 9.3 32.4H389c2-7.7 2.6-11.1 2.6-17.5h2.4c0 6.4.6 9.8 2.6 17.5h15.5l9.3-32.4h-15.3c-2.3 9.3-2.1 14.8-2.1 23.1h-2.4c.2-7.8-.8-15.6-2.8-23.1h-12a100 100 0 0 0-2.8 23.1h-2.4c0-7.9.2-13.8-2.1-23.1h-15.2zm59.5 32.4h11c7.3 0 9.9-6.4 9.9-13.9h2.4c0 7.5 2.6 13.9 9.8 13.9h11v-15h-14.5v-2.4H468v-15h-11c-7.2 0-9.8 6.2-9.8 13.8h-2.4c0-7.6-2.6-13.8-9.9-13.8h-11v15h14.5v2.4h-14.6v15zm56.7 9.6 13.8-.1 20-41.9H499a42.8 42.8 0 0 0-5.8 21.4H491c0-6.1-.7-11-5.9-21.4h-15.3l15.3 32.4-4.6 9.6zm58.4-44.4 2.4-6h-4.5l-2.4 6h4.5zm-12.6 44.4 13.8-.1 20-41.9h-15.3A42.8 42.8 0 0 0 539 542h-2.3c0-6.1-.7-11-5.9-21.4h-15.3l15.3 32.4-4.5 9.6zm63.9-44.4-4.2-6h-4.8l-4.2 6h4.5l2.1-3 2.1 3h4.5zm-18.1 44.4 13.8-.1 20-41.9h-15.3a42.8 42.8 0 0 0-5.8 21.4h-2.3c0-6.1-.7-11-5.9-21.4h-15.3l15.3 32.4-4.5 9.6zm59.2-47.4c0 2.2 2.1 3.1 3.8 3.1s3.8-.8 3.8-3.1-2.1-2.9-3.8-2.9-3.8.6-3.8 2.9zm-7.7 3c1.7 0 3.8-.8 3.8-3.1s-2.1-2.9-3.8-2.9-3.8.7-3.8 2.9 2.1 3.1 3.8 3.1zm-5.8 44.4 13.8-.1 20-41.9h-15.3a42.8 42.8 0 0 0-5.8 21.4h-2.3c0-6.1-.7-11-5.9-21.4H607l15.3 32.4-4.5 9.6zm53.9-50.4 2.4 6h4.5l-2.4-6h-4.5zm-8.1 50.4 13.8-.1 20-41.9h-15.3a42.8 42.8 0 0 0-5.8 21.4H674c0-6.1-.7-11-5.9-21.4h-15.3l15.3 32.4-4.5 9.6zm36.3-9.6h42.3v-15h-8.8c-6.2 0-10.3 2.3-14.7 5.7l-1.7-2.5 25.1-11.3v-9.3h-42.3v15h8.8c5.6 0 10.3-2.3 14.6-5.8l1.8 2.4-25.2 11.5.1 9.3zm68.1-34.8 2.4-6h-4.5l-2.4 6h4.5zM745.8 553h42.3v-15h-8.8c-6.2 0-10.3 2.3-14.7 5.7l-1.7-2.5 25.1-11.3v-9.3h-42.3v15h8.8c5.6 0 10.3-2.3 14.6-5.8l1.8 2.4-25.2 11.5v9.3h.1zm69.4-34.8 4.2-6h-4.5l-2.1 3-2.1-3h-4.5l4.2 6h4.8zM791.7 553H834v-15h-8.8c-6.2 0-10.3 2.3-14.7 5.7l-1.7-2.5 25.2-11.3v-9.3h-42.3v15h8.8c5.6 0 10.3-2.3 14.6-5.8l1.8 2.4-25.2 11.5v9.3zm67-34.8c1.7 0 3.8-.8 3.8-3.1s-2.1-2.9-3.8-2.9-3.8.7-3.8 2.9 2.2 3.1 3.8 3.1zM837.6 553h42.3v-15h-8.8c-6.2 0-10.3 2.3-14.7 5.7l-1.7-2.5 25.1-11.3v-9.3h-42.3v15h8.8c5.6 0 10.3-2.3 14.6-5.8l1.8 2.4-25.2 11.5v9.3h.1zm60.3-15.3v-2.4h13.9v2.4h-13.9zm-1.2 15.3h28.6v-9.3h-27.4v-2.6l20 .2c6.2.1 8.9-3.4 8.9-8.3v-2c0-6.2-4.7-10.5-10.8-10.5h-5.7c-10.3 0-11.8 7-12.4 13.1h-3c2-4.7 3-8.2 3-13.1h-15v18.6c0 8.7 4.7 13.9 13.8 13.9zm125.2 0h14.9v-17.4h12.6V553h15v-17.4c0-9.2-5.3-15.1-13.9-15.1-7.4 0-13 3.3-13.7 13.4h-2.9c1.9-4.2 2.9-8.8 2.9-13.4v-7h-15l.1 39.5zm-33-15.1v-2.3h17.3v2.3h-17.3zm-59.3-1.2h4.7c1.3 0 2.3 1.1 2.3 2.3 0 9 4.9 14 13.8 14h20.9v-15h-19.7v-2.4h19.7v-15h-6.8c-8.4 0-12.9 6.1-12.9 13.2h-3c2.3-6.5 3-9.2 3-20.4h-15V525h-7v11.7zm75.2 16.3c10.8 0 15.5-4.6 15.5-16.3 0-11.2-5.2-16.2-15.5-16.3-10-.1-14.8 2.9-15.9 13.4H986c1.9-4.5 2.9-9.3 2.8-14.2l.1-6.2h-15.1V553h15.1c0-5.5-.6-8.8-2.9-13.4h2.9c1.2 10.2 5.8 13.4 15.9 13.4zM96.9 597v-9.6h20.8v9.6H96.9zm-9.7-5c0 16.8 2.5 20 20.3 20 17.3 0 19.9-3.2 19.9-20 0-16.6-2.2-19.6-20.1-19.6-17.3 0-20.1 3-20.1 19.6zm57.3 1.4-.1 18.6h15v-39.6h-15v4.4c0 1.5-1.2 2.8-2.7 2.8h-11.4v15h5.7c6.2 0 7.7-6.1 8.3-13.4h3c-1.8 3.8-2.7 8-2.8 12.2zM163 612h38.4v-15H177v-2.4h14.6c7.8 0 11-2.8 11-10.9 0-7.9-3.2-11.3-11-11.3h-27.4v15h24.4v2.4h-11.9c-10 0-13.7 5.1-13.7 14.9v7.3zm42.6 0H233c7.7 0 11-3.4 11-9.9-.1-6-2.5-8.7-7-8.7h-4.6V591h4.5c4.6 0 7-3.4 7-9.1 0-6.7-3.2-9.5-11-9.5h-27.4v15h24.4v2.4h-14v4.8h14v2.4h-24.4v15h.1zm53.7-18.9v-1.8c5.9-1.2 9.2-5.4 9.8-12.8h3c-2 4.6-3.1 9.6-3.1 14.6h-9.7zm-11.7 10.8H269v8.1h15.1v-8.2h5.3v-15h-5.3v-16.4h-14.9c0 4.4-.7 3.8-8.6 3.8-8.6 0-12.8 4.6-12.8 13.3l-.2 14.4zm57 8.1H322c6.4 0 11.6-5.2 11.6-11.6V598c0-7.3-4.4-11.6-11.6-11.6h-13.9v-2.3h24.4v-11.7h-13.7c-7.7 0-10.6 3.1-10.6 9.9h-3c2.1-4.1 2.6-5.5 3-9.9H293V598h25.7v2.3H293c0 8.1 3.6 11.7 11.6 11.7zm46.7-11.6V598h10.4v2.3l-10.4.1zm-1.2 11.6h12.8c9.2 0 13.9-4 13.9-13.5 0-7.3-4.1-12.1-12.5-12.1-8.6 0-12.6 2.7-13 9.8h-3c2.6-4.6 2.9-5.5 2.9-12.2h23.2v-11.6h-24.2c-9.2 0-14 4.6-14 14V598c-.1 9.3 4.6 14 13.9 14zm34.1 0h17.4l16.4-27.9v-11.6h-38.3v15.1h9.8c7.1 0 10.3-3.8 11-8.8l2.5 1.4-18.8 31.8zm51.3-25.5v-2.4h10.6v2.4h-10.6zm0 13.8v-2.4h10.6v2.4h-10.6zM431 612h19.6c7.4 0 10.6-3.1 10.6-10.6 0-5.2-2.7-8-8-8h-4.7V591h4.8c5.1 0 7.9-2.7 7.9-8 0-7.6-3.2-10.6-10.6-10.6H431c-7.4 0-10.6 3.1-10.6 10.6 0 5.2 2.6 8 7.9 8h4.8v2.4h-4.7c-5.2 0-8 2.6-8 8 0 7.6 3.2 10.6 10.6 10.6zm47.7-25.5v-2.3h10.4v2.3h-10.4zm11.6-14h-12.8c-9.3 0-14 4.6-14 14 0 7.3 4.4 11.6 11.6 11.6h1.9c9.3-.1 11.8-4.4 12.1-9.8h2.9c-2.6 4.6-2.9 5.5-2.9 12.2h-23.3V612h24.4c9.2 0 14-4.6 14-14v-11.5c.1-9.3-4.6-14-13.9-14zM549 612h8.2c5.5 0 7.6-1.6 7.6-6.8v-5c0-1.1.9-2.1 2-2.2h4.9v-9.2h-6.1c5.3-6.1 7.3-8.4 7.3-11.6 0-2.9-2.2-4.9-7.6-4.9H549v9.2h15.7l-3.3 4.5c-2.4-.9-4.9-1.4-7.5-1.4v4.2H549v9.2h9.7v4.7H549v9.3zm-12.5-30.3v-1.5h5v1.5h-5zm0 6.9v-1.5h5v1.5h-5zm-10.6 0v-1.5h5.2v1.5h-5.2zm-6 23.4h27.6v-7.2h-11.1v-1.5h11.1v-5.4h-11.1v-1.5h3.6c5.5 0 7.5-1.6 7.5-6.9v-11.7c0-3.5-1.9-5.4-5.4-5.4h-16.8c-3.5 0-5.4 1.9-5.4 5.4V591c0 3.5 1.9 5.4 5.4 5.4h5.7v1.5h-11.1v5.4H531v1.5h-11.1v7.2zm6-31.8h5.2v1.5h-5.2v-1.5zm79 .9v-1.5h13.2v1.5h-13.2zm0 7.3v-1.5h13.2v1.5h-13.2zm-18.6-7.3v-1.5h13.2v1.5h-13.2zm0 7.3v-1.5h13.2v1.5h-13.2zm-7 1.8c0 3.5 1.9 5.4 5.4 5.4h32.8c5.5 0 7.6-1.9 7.6-7v-10.8c0-3.5-1.9-5.4-5.4-5.4h-4.9v-1.7h-7.2v1.7H597v-1.7h-7.2v1.7h-4.9c-3.5 0-5.4 1.9-5.4 5.4l-.2 12.4zm-3.4 12.2h4.7v4.3c0 3.5 1.9 5.4 5.4 5.4h31.7c4 0 5.4-1.9 5.4-5v-4.6h4.3V597H576l-.1 5.4zm41.7 0v1.5H586v-1.5h31.6zm28.7 9.6h2.5c4 0 5.9-1.9 5.9-8.5l-.1-22.8h28v-8.3l-26.4-.1c-5.8 0-7.6 2-7.6 7l.1 24.2h-2.5l.1 8.5zm-14.8-31.7c5.4-.1 10.7.9 15.7 2.9v-8.1c-4-2.5-9.3-3.8-15.7-3.8v9zm0 10.5c5.3-.1 10.6.6 15.7 2v-8.1a37 37 0 0 0-15.7-2.9v9zm-.6 21.3c11.8 0 16.3-7.6 16.3-18.4h-4.8c0 5.5-4.6 9.4-11.5 9.4v9zm51.7-20.9v-9h-21c-3.4-.1-5.5 1.5-5.5 7l.1 14.3c0 6.8 2 8.5 5.4 8.5h6.3v-9l-6.3-.1v-11.7h2.5l5.1 12.4c2.6 6.3 2.3 8.3 5.6 8.3h7.8v-9l-8-.1-.6-1.4a81 81 0 0 1 8.6-.5v-8.4c-4 0-7.9.6-11.6 1.9l-1.4-3.2h13zm7.5 20.8c11.9 0 23-5.3 27.9-14.4l.5 1.1c-2.4 4-4 6.1-7.4 8.4l-.8 4.9h8.4c1.1-2.8 1.9-5.7 2.3-8.7 4.4 6.8 9.7 8.7 15.9 8.7v-8.4c-4.3-.1-8.3-1.9-11.2-5 2.6-.7 6.1-.8 11.2-.9v-7.8c-6.5 0-11.5 1-15.2 3.1-.9-1.9-1.8-3.8-2.4-5.8h13.4v-6h-38.3v6H707c-4 1.7-10 2-16.9 2v6.6c10.2.1 19.9-1.8 24.4-8.5l.4 1.3c-3.7 4.8-10 8.8-24.7 8.8v6.6c13.2 0 21.5-5.8 25.9-11.4l.4 1a31 31 0 0 1-26.3 11.9l-.1 6.5zm-2.7-34.2v7.4h5.4v-5.5h41.3v5.5h5.4v-5.8c0-4.2-1.1-7-5.4-7h-16.9v-1.7h-7.6v1.7h-16.9c-3.3 0-5.3 1.9-5.3 5.4zm66.6 3.5.1-1.6h35v1.6H754zm0 8.8v-1.4h16.2v1.4H754zm-12.1 22c10.3 0 11.9-5.6 12.1-16.6h16.3v1.4h-9.9c-3.5 0-5.4 1.9-5.4 5.4v4.3c0 3.5 1.9 5.4 5.4 5.4H786c5.8 0 7.5-1.6 7.5-6.5v-3.3c0-3.5-1.9-5.4-5.4-5.4h-11.8v-1.4h18.3V590h-18.3v-1.4h10.9c5.4 0 7.4-1 7.4-6.4v-4.4c0-3.5-1.9-5.4-5.4-5.4h-35.6c-3.5 0-5.4 2-5.4 5.8 0 19.6-1.4 25.5-6.2 25.5l-.1 8.4zm45.5-8.4v1.7H761v-1.7h26.4zm-699 57.1h10.2V671H88.4v-10.2zm25.2 12.1v-12.1h-10.2V671h5.5l-.1 5.7 4.8-3.8zm4.8-24.1h10.2v-10.2h-10.2v10.2zm10.2 12h-10.2V671h10.2v-10.2zm4.8-12h10.2v-10.2h-10.2v10.2zm10.2 24.1v-12.1h-10.2V671h5.5l-.1 5.7 4.8-3.8zm15-12.1h-10.2V671h10.2v-10.2zm25.2 0h-10.2V671h10.2v-10.2zm-12.6 0H161V671h10.2v-10.2zm17.4 10.2h15v-11.6h-15V671zm0-39.7V657h15v-25.6l-15-.1zm19.8 18.9h15v-11.6h-15v11.6zm0 2.4v25.7l15-.1v-25.6h-15zm28.9 18.4h15v-11.6h-15V671zM227 643.5h25.3v2.4h-15V657h15v-7c10 0 12.7-2.7 12.7-8 0-7.6-3.2-10.6-10.6-10.6h-16.9c-7.9.1-10.6 3.6-10.5 12.1zm50.8-.4h15v-11.6h-15v11.6zm-10.4 16c-.1 8.5 2.6 12 10.6 12h16.9c7.4 0 10.6-3 10.6-10.6 0-5.3-2.8-8-12.7-8v-7h-15v11.2h15v2.3l-25.4.1zm41.7-10.9h10.2v10.2h-10.2v-10.2zm15-.6h15v15h-15v-15zm30.3-16.2v7.1l-6.1-3.5-4.4 7.8 6 3.5-6 3.4 4.5 7.8 6-3.5v6.8h9v-6.7l5.9 3.4 4.5-7.8-6-3.4 6-3.5-4.4-7.8-6 3.5v-7.1h-9zm45 23 2-7.1 9.1-.1-2 7.1-9.1.1zm-3.7-23-1.7 6.1h-8.9l-2.8 9.8h9l-2 7.1h-9.1l-2.8 9.8h9.2l-1.8 6.8h10.1l1.9-6.8h9.1L404 671h10.1l1.9-6.8h7.9l2.8-9.8h-8l2-7.1h8.1l2.8-9.8h-8.2l1.7-6.1H415l-1.7 6.1h-9.1l1.7-6.1h-10.2zm51.4 0-13.2 44.4h10.2l13.2-44.4h-10.2zm36 44.4-13.2-44.4h-10.2l13.2 44.4h10.2zm3.6-29.4h10.2v10.2h-10.2v-10.2zm15-2.4h15v15h-15v-15zm19.8 5.4h18v10.2h-18v-10.2zm22.8 0h30v10.2h-30v-10.2zm34.8 0h36v10.2h-36v-10.2zm40.8 11.4h30V671h-30v-10.2zm34.8-14.4h18v10.2h-18v-10.2zm22.8 0h30v10.2h-30v-10.2zm34.8 0h36v10.2h-36v-10.2zm40.8-2.9v23.1c0 9.5 4.4 14 13.8 14h5.3v-10.2h-8.9v-30.6h8.9v-10.2h-5.3c-9.4 0-13.8 4.5-13.8 13.9zm43 23.1v-23.1c0-9.4-4.4-13.9-13.8-13.9H777v10.2h8.9v30.6H777v10.2h5.3c9.4 0 13.8-4.5 13.8-14zm28.8-28.6v-10.2h-5.3c-9.4 0-13.8 4.5-13.8 13.9v7.1h-4.9V659h4.9v7.1c0 10 4.4 14.5 13.8 14.5h5.3v-10.2H816v-6.6c0-3.7-1-7.3-3-10.4 2-2.8 3-6 3-9.4v-6h8.9zm4.8 0h8.9v6c0 3.4 1 6.7 3 9.4-2 3.1-3 6.7-3 10.4v6.6h-8.9v10.2h5.3c9.4 0 13.8-4.5 13.8-14.5V659h4.9v-10.2h-4.9v-7.1c0-9.4-4.4-13.9-13.8-13.9h-5.3V638zm28.8 42.6h18.6v-10.2h-8.4v-30.6h8.4v-10.2h-18.6v51zm23.4 0h18.6v-51h-18.6v10.2h8.4v30.6h-8.4v10.2zm23.4-40v23c0 9.5 4.4 14 13.8 14h5.3v-10.2h-8.9v-30.5h8.9v-10.2h-5.3c-9.4 0-13.8 4.5-13.8 13.9zm43 23v-23c0-9.4-4.4-13.9-13.8-13.9h-5.3v10.2h8.9v30.5h-8.9v10.2h5.3c9.4 0 13.8-4.5 13.8-14zm28.8-27.4V626h-5.3c-9.4 0-13.8 4.5-13.8 13.9v7.1h-4.9v10.2h4.9v7.1c0 10 4.4 14.5 13.8 14.5h5.3v-10.2h-8.9V662c0-3.7-1-7.3-3-10.4 2-2.8 3-6 3-9.4v-6h8.9zm4.8 0h8.9v6c0 3.4 1 6.7 3 9.4-2 3.1-3 6.7-3 10.4v6.6h-8.9v10.2h5.3c9.4 0 13.8-4.5 13.8-14.5v-7.1h4.9V647h-4.9v-7.1c0-9.4-4.4-13.9-13.8-13.9h-5.3v10.2zm28.8 41.4h18.6v-10.2h-8.4v-30.6h8.4v-10.2h-18.6v51zm23.4 0h18.6v-51h-18.6v10.2h8.4v30.6h-8.4v10.2zm33.6-4.7v-12.1h-10.2V671h5.5l-.1 5.7c1.6-1.2 3.1-2.6 4.8-3.8zm27.6 0v-12.1h-10.2V671h5.5l-.1 5.7c1.6-1.2 3.1-2.6 4.8-3.8zm-12.6 0v-12.1h-10.2V671h5.5l-.1 5.7c1.6-1.2 3.1-2.6 4.8-3.8zm17.4-36.1v12.1h10.2v-10.2h-5.5l.1-5.7c-1.7 1.2-3.2 2.5-4.8 3.8zm12.6 0v12.1h10.2v-10.2h-5.5l.1-5.7c-1.7 1.2-3.2 2.5-4.8 3.8zm37.8 13.9v-12.1h-10.2v10.2h5.5l-.1 5.7c1.6-1.2 3.1-2.6 4.8-3.8zm-12.6 0v-12.1h-10.2v10.2h5.5l-.1 5.7c1.6-1.2 3.1-2.6 4.8-3.8zm23-19.3-5.6 15h10.2l3.2-15h-7.8zm18.2 0-3.2 15h7.8l5.6-15h-10.2zM106.4 710.8l8.9 22.2h10.2l-8.9-22.2 8.9-22.2h-10.2l-8.9 22.2zm-9.1-22.2-8.9 22.2 8.9 22.2h10.2l-8.9-22.2 8.9-22.2H97.3zm33 44.4h10.2l8.9-22.2-8.9-22.2h-10.2l8.9 22.2-8.9 22.2zm28.2-44.4h-10.2l8.9 22.2-8.9 22.2h10.2l8.9-22.2-8.9-22.2zm22.7 0-8.9 22.2 8.9 22.2h10.2l-8.9-22.2 8.9-22.2h-10.2zm25.2 44.4 9-22.2-9-22.2h-10.2l9 22.2-9 22.2h10.2zm26.4-42.6 1.2 15.1h7.8l1.2-15.1h-10.2zm-12.6 0 1.2 15.1h7.8l1.2-15.1h-10.2zm27.6 0 1.2 15h7.8l1.2-15h-10.2zm14.4 25.6c0 9.4 4.6 14 13.1 14h25.4v-10.2H277c-4.6 0-6.6-2-6.6-6.5v-6.1c0-4.3 2.2-6.5 5.9-6.5h18.6c3.8 0 5.9 2 5.9 6.5v5.7h-1.9v-4.1c0-3.8-2-5.7-5.9-5.7h-14.5c-3.9 0-5.7 3.5-5.7 7.4 0 3.3 1.4 7 7.6 7 6.5 0 8.7-3.2 9.5-8.2h2.1c-1 1.8-1.6 3.7-1.9 5.7 0 1.6.5 2.5 3.7 2.5h7.7c4.7 0 7.4-2.7 7.4-6.7v-7.2c0-9.3-4.6-13.1-14-13.1h-18.8c-9.4 0-14 4.6-14 13.9l.1 11.6zm19-8.2V706h8.6v1.8h-8.6zm45.8-3.3v-2.3h13v2.3h-13zm-4.5 25.5h15.1v-11.6H327V716h13v14h15c.1-4.8-.9-9.6-2.9-14h4.1v-4.6h-14V709h4.8c5.3 0 7.9-2.8 7.9-8 0-7.5-3.2-10.6-10.6-10.6h-21.8c-7.4 0-10.6 3.1-10.6 10.6 0 5.2 2.6 8 7.9 8h4.8v2.4h-4.7c-5.2 0-8 2.6-8 8 .1 7.6 3.2 10.6 10.6 10.6zm47.3-19.7c0 5.5 2.2 8.3 6.7 8.3h16.3v-7.7h-15.3c0-2.6-.7-4.1-1.4-5h1.6s.8 3.8 4.4 3.8h10.8V702h-16.4c-4.5-.1-6.7 2.7-6.7 8.3zm-2.4 4.1v-8.3c0-4.3 2.9-6.6 7.2-6.6h20.6V721h-20.6c-4.3 0-7.2-2.4-7.2-6.6zm6.9 15.6h14c10.2 0 15.1-4.6 15.1-14.6v-9.7c0-10.8-3.8-15.4-14.7-15.4h-14.9c-10.2 0-14.6 4.9-14.6 14.8v9.8c0 10.4 4.5 15.1 15.1 15.1zm37.2-33.9v-.3h2.1v.3h-2.1zm-2-2.3v5.2h2v-1.3h2.1v1.3h2v-1c0-.8-.4-1-1.6-1v-.3c1.3 0 1.6-.3 1.6-1.4s-.6-1.5-2.1-1.5-1.9.5-2 1.7h-.4c.3-.5.4-1.1.4-1.7h-2zm-.6 5.8v-6.5h5.2c1-.1 2 .6 2.1 1.6v4.9h-7.3zm2 2.7h3.3c3.2 0 4.6-1.4 4.6-4.5v-2.9c0-2.9-1.4-4.4-4.4-4.4h-3.5c-3.2 0-4.4 1.4-4.4 4.6v2.9c.1 3 1.6 4.4 4.7 4.4l-.3-.1zm25.7-11.9c-.6 1.5-.9 3-1 4.6h-.5c-.1-1.6-.4-3.1-1-4.6h-3.7v7.9h3c0-2.7-.5-4-1.1-4.7l.6-.3 1.6 5h1.6l1.6-5 .6.3c-.6.6-1.1 2-1.1 4.7h3v-7.9h-3.6zm-12.6 4.8v3.2h3v-3.2c0-2.2-.2-2.8-.6-3.2h.6s.1 1.5 1.1 1.5h1.9v-3h-9.1v3h1.9c1.1 0 1.1-1.5 1.1-1.5h.6c-.3.4-.5 1-.5 3.2zm19.5 20.9c0 9.3 5.3 13.9 13.9 13.9h28.9v-10.3H459c-4.6 0-6.6-2-6.6-6.6v-5.9c0-4.3 2.2-6.5 5.9-6.5h17.3v2.4h-14.9c-3.9 0-5.9 2.6-5.9 6.9 0 5.2 1.9 7.5 10.6 7.5s9.4-3.2 10.3-8.3h2.2c-1.4 2.5-2 5.3-1.9 8.2h10.4v-13.8c0-8.6-3.9-13.1-12.4-13.1h-15.8c-9.3 0-14.6 4.6-14.6 13.9l-.1 11.7zm23.6-8.1v-1.9h8.6v1.9h-8.6zm37 22h26v-15H505c0-9.3-1.3-12.3-4-17h3s1.6 7.4 8.6 7.4h17.6v-15h-26c-11.2 0-15.4 6.2-15.4 19.4 0 14.5 4.4 20.2 15.3 20.2zm4-35.2h9.3V688h-9.3v6.8zm0 31.3v6.4h9.3v-6.4h-9.3zm37-11.1v-9.6h25v9.6h-25zm5.5 15h14c10.2 0 15.1-4.6 15.1-14.6v-9.7c0-10.8-3.8-15.4-14.7-15.4h-14.9c-10.2 0-14.6 4.9-14.6 14.8v9.8c0 10.4 4.5 15.1 15.1 15.1zm25-15.1h6.8v-9.3h-6.9l.1 9.3zm-23.1-21.1h9.3V688h-9.3v5.8zm-19.7 21.1h6.6v-9.3h-6.6v9.3zm19.7 11.6v6h9.3v-6h-9.3zM586 730h32.9c7 0 10.1-4.2 10.1-11.2 0-6.5-3.1-11-10.1-11H600v-2.4h27.8v-15h-32c-7.7 0-11 3.5-11 11.3 0 8.2 3.2 10.9 11 10.9H614v2.4h-28v15zm15.1-35.2h9.3V688h-9.3v6.8zm0 31.3v6.4h9.3v-6.4h-9.3zm48.4 3.9h26v-15h-25.2c0-9.3-1.3-12.3-4-17h3s1.6 7.4 8.6 7.4h17.6v-15h-25.9c-11.2 0-15.4 6.2-15.4 19.4-.1 14.5 4.3 20.2 15.3 20.2zm-18.4-9.1h7.2v-9.3h-7.2v9.3zm7.2-21h-7.2v9.3h7.2v-9.3zm59.6 30.1H720v-11.4h-20.9c-.1-6.6-.7-7.1-2.9-12.4h3c.6 5.3 2.1 10 12.9 10h8v-11.7h-20.9v-2.4H720v-11.7h-22.1c-11.4 0-13.8 4.5-13.8 14h-6v12h6c0 8.5 2.4 13.6 13.8 13.6zm28.2-14h10.5l1.3 2.4h-11.8v5.7h12.2v5.9h15v-5.9h12.3v-5.7h-11.9l1.4-2.4h10.6v-5.7h-7.3l11.3-19.8h-15.1c-6.7 10.5-7.6 12.5-7.6 16.2h-2.4c0-3.7-.8-5.7-7-16.2h-15.1l11 19.8h-7.3l-.1 5.7zm46.5 2.9h11.1V730h10.2v-11.1H805v-10.2h-11.1v-11.1h-10.2v11.1h-11.1v10.2zm37.2-10.2h32.4v10.2h-32.4v-10.2zm35.7-11.1 12.3 16.6-11.7 15.8h10.8l6.3-8.5 6.3 8.5h10.8l-11.7-15.8 12.3-16.6h-10.8l-6.9 9.3-6.9-9.3h-10.8zm51.1 9.3h10.2v-9.6h-10.2v9.6zm0 23.4h10.2v-9.6h-10.2v9.6zm-12.4-11.4H919v-10.2h-34.8v10.2zm39.6 6.3h32.4V715h-32.4v10.2zm0-12.6h32.4v-10.2h-32.4v10.2zm37.2 0h11.9l-1 2.4H961v10.2h6.8l-2 4.8H976l2-4.8h15.4V715h-11.3l1-2.4h10.3v-10.2h-6.2l2-4.8H979l-2 4.8h-16v10.2zm37.2 16.2 32.4-10.2v-10.2l-32.4-9.6v9l19.6 5.8-19.6 6.2v9zm37.2-10.2 32.4 10.2v-9l-19.6-6.2 19.6-5.8v-9l-32.4 9.6v10.2zm37.2 13.2h32.4v-9h-32.4v9zm0-11.4 32.4-9v-10.2l-32.4-7.9v9l17.4 4.2-17.4 4.9v9zm37.2 11.4h32.4v-9h-32.4v9zm0-20.4 32.4 9v-9l-17.4-4.9 17.4-4.2v-9l-32.4 7.9v10.2zm37.2 20.4h32.4v-9H1147v9zm0-20.9h11.1v9.5h10.2v-9.5h11.1v-10.2h-11.1v-9.1h-10.2v9.1H1147v10.2zM88.4 783c3.2-1 6.5-1.5 9.8-1.5 4.1 0 7.1 1.5 13.1 1.5 2.5.1 5-.2 7.4-.9v-9c-2.4.7-4.9 1-7.4.9-4.9 0-7.2-1.4-13.1-1.4-3.3 0-6.7.5-9.8 1.4v9zm30.4-21.3c-2.4.7-4.9 1-7.4.9-4.9 0-7.2-1.4-13.1-1.4-3.3 0-6.7.5-9.8 1.4v9c3.2-1 6.5-1.5 9.8-1.5 4.1 0 7.1 1.5 13.1 1.5 2.5.1 5-.2 7.4-.9v-9zm35.1 4.8c-2.4.7-4.9 1-7.4.9-4.9 0-7.2-1.4-13.1-1.4-3.3 0-6.7.5-9.8 1.4v9c3.2-1 6.5-1.5 9.8-1.5 4.1 0 7.1 1.5 13.1 1.5 2.5.1 5-.2 7.4-.9v-9zm4.8 10h22.2v9h10.2v-19.2h-32.4v10.2zm48.6-27.1-11.4 15h10.2l6.3-8.3 6.3 8.3h10.2l-11.4-15h-10.2zm34.8 24.6v-9.6h20.8v9.6h-20.8zm-9.6-5c0 16.8 2.5 20 20.3 20 17.3 0 19.9-3.2 19.9-20 0-16.6-2.2-19.6-20.1-19.6-17.4 0-20.1 3-20.1 19.6zm17.4-7.4 9.2.1 4.2-14.8H254l-4.1 14.7zm-8.5 29.8h9.3l4-14.3h-9.2l-4.1 14.3zm55.2-2.4h10.2v-10.2h-10.2V789zm-20.4-28.2h10.2v-10.2h-10.2v10.2zm16.8-11.4L279.8 789H290l13.2-39.7-10.2.1zm51.6 39.6h10.2v-10.2h-10.2V789zm-12.6 0h10.2v-10.2H332V789zm-20.4-28.2h10.2v-10.2h-10.2v10.2zm17.4-11.4L315.8 789H326l13.2-39.7-10.2.1zm30.6 25.5h11.1V786h10.2v-11.1H392v-10.2h-11.1v-11.1h-10.2v11.1h-11.1v10.2zm37.2-10.2h32.4v10.2h-32.4v-10.2zm49.6-1.8h10.2v-9.6h-10.2v9.6zm0 23.4h10.2v-9.6h-10.2v9.6zM434 774.9h34.8v-10.2H434v10.2zm39.6 6.3H506V771h-32.4v10.2zm0-12.6H506v-10.2h-32.4v10.2zm37.2 0h11.9l-1 2.4h-10.9v10.2h6.8l-2 4.8h10.2l2-4.8h15.4V771h-11.3l1-2.4h10.3v-10.2H537l2-4.8h-10.2l-2 4.8h-16v10.2zm37.2 16.2 32.4-10.2v-10.2l-32.4-9.6v9l19.6 5.8-19.6 6.2v9zm37.2-10.2 32.4 10.2v-9l-19.6-6.2 19.6-5.8v-9l-32.4 9.6v10.2zm37.2 5.4c3.2-1 6.5-1.5 9.8-1.5 4.1 0 7.1 1.5 13.1 1.5 2.5.1 5-.2 7.4-.9v-9c-2.4.7-4.9 1-7.4.9-4.9 0-7.2-1.4-13.1-1.4-3.3 0-6.7.5-9.8 1.4v9zm30.4-21.3c-2.4.7-4.9 1-7.4.9-4.9 0-7.2-1.4-13.1-1.4-3.3 0-6.7.5-9.8 1.4v9c3.2-1 6.5-1.5 9.8-1.5 4.1 0 7.1 1.5 13.1 1.5 2.5.1 5-.2 7.4-.9v-9zm35.1 4.8c-2.4.7-4.9 1-7.4.9-4.9 0-7.2-1.4-13.1-1.4-3.3 0-6.7.5-9.8 1.4v9c3.2-1 6.5-1.5 9.8-1.5 4.1 0 7.1 1.5 13.1 1.5 2.5.1 5-.2 7.4-.9v-9zm31.2 25.5v-21.5l8.9 8.9 6.7-6.6-21.2-21.1-21.2 21.1 6.5 6.6 9-8.9V789h11.3zm30.2-1.2 19.2-19.4v12.2h9.3v-30h-30v9.3h13.1l-19.7 19.8 8.1 8.1zm36.3-13.2h22.7l-8.9 8.9 6.6 6.7 21.1-21.2-21.1-21.2-6.6 6.5 8.9 9h-22.7v11.3zm55.8-24-8.1 8.1 19.7 19.8h-13.1v9.3h30v-30h-9.3v12.1l-19.2-19.3zm62.5-1.8h-11.4v21.5l-9-8.9-6.5 6.6 21.2 21 21.2-21-6.7-6.6-8.9 8.9.1-21.5zm50.7 1.8-19.2 19.3v-12.1h-9.3v30h30v-9.3H943l19.7-19.8-8.1-8.1zm55.8 24v-11.4h-22.7l8.9-9-6.6-6.5-21 21.2 21 21.2 6.6-6.7-8.9-8.9h22.7v.1zm36.3 13.2 8.1-8.1-19.7-19.8h13.1v-9.3h-30v30h9.3v-12.2l19.2 19.4zm43.2-32.6-6.6-6.5-21.1 21.2 21.1 21.2 6.6-6.7-8.9-8.8h27.4l-8.9 8.8 6.6 6.7 21.1-21.2-21.1-21.2-6.6 6.5 9 9.1h-27.6l9-9.1zm48.3 17.8-6.5 6.6 21.2 21.1 21.2-21.1-6.7-6.6-8.9 8.9v-22.8l8.9 8.9 6.7-6.6-21.2-21.1-21.2 21.1 6.5 6.6 9-8.9v22.8l-9-8.9z" style="fill:#040404"/></svg>