<svg xmlns="http://www.w3.org/2000/svg" viewBox="0 0 1280 960"><path d="M131.9 339.1c-4.2-2.6-7.4-6.7-9.3-12.2-2-5.6-3-13-3-22.3 0-12.7 2.3-22 6.8-27.9 4.6-5.9 12-8.9 22.4-8.9h66.3v28.5h-39c-4 .1-7.8-1.3-10.6-4.1-2.8-2.7-4.7-6.2-5.6-10h-5.7c1.7 2.9 3.2 5.9 4.5 9 1.1 3 1.9 6.1 2.3 9.3.6 4.6.9 9.3.8 14h53.4V343h-66.4c-7 0-12.6-1.3-16.9-3.9zm104.5-57.7h24.9v32.8H283v-32.8h39.9V343H283c0-4.2.4-8.4 1.4-12.5 1.1-4.4 2.5-8.7 4.3-12.9H283c-.8 6.1-2.3 10.9-4.3 14.6-2.1 3.7-5.4 6.6-9.4 8.1-4.3 1.8-10.1 2.7-17.4 2.7-10.5 0-18.2-2.4-23.1-7.1-4.9-4.7-7.3-11.6-7.3-20.5v-34h14.9zm94.4 54.7v-11.4h57.9v-4.6h-35.5c-6.4 0-11.3-.5-14.8-1.6-3.2-.8-5.9-2.8-7.5-5.6-1.5-2.7-2.3-6.6-2.3-11.8 0-6.7 1.9-11.6 5.6-14.9s10.1-4.9 19-4.9h71v28.5h-58v4.6H408c6.8 0 11.5 1.2 14.2 3.6 2.7 2.4 4 6 4 10.6 0 4.8-1.3 8.4-4 10.7s-7.4 3.5-14.2 3.6h-77.2v-6.8zm120.5 1.1c-4.4-3.8-6.6-9.9-6.5-18.3 0-2.4-2-4.4-4.4-4.4h-8.9V286h13.3v-18.2h39.9c0 7-.2 12.5-.5 16.6-.3 3.6-.8 7.2-1.6 10.7-.8 3-1.9 6.8-3.5 11.4h5.7c0-4.4.9-8.7 2.9-12.6 1.9-3.8 4.8-7 8.4-9.1 4-2.3 8.6-3.5 13.3-3.4h18.7v28.5h-43.2v4.6h43.2V343h-56.9c-9 0-15.6-1.9-19.9-5.8zm94.5 2.6c-4.3-1.9-7.8-5.4-9.6-9.7-1.9-4.4-2.8-10.4-2.8-17.9 0-7.7.9-13.7 2.8-18.1 1.8-4.3 5.3-7.8 9.6-9.6 4.5-2 10.7-3 18.7-3h39.2c8 0 14.3 1 18.8 3.1 4.3 1.9 7.7 5.3 9.5 9.7 1.9 4.4 2.8 10.4 2.8 18s-1 13.6-2.8 18c-1.8 4.3-5.3 7.8-9.6 9.7-4.5 2.1-10.7 3.1-18.7 3.1h-39.2c-7.9-.1-14.2-1.2-18.7-3.3zm60-25.3v-4.6h-43.3v4.6h43.3zM760.5 343h-25v-33.4h-10.2V343h-34.6v-33.4h-10.2V343h-39.9v-61.6h39.9c0 4-.4 8-1.3 11.9-1.1 4.4-2.6 8.7-4.4 12.9h5.7c.6-4.2 1.9-8.3 3.9-12 1.9-3.7 4.8-6.9 8.4-9.2 3.9-2.4 8.4-3.7 13-3.5 7.4 0 12.4 2.3 14.9 7 2.5 4.6 3 10.6 1.5 17.8h4.5c.5-4.8 1.8-9.5 3.7-13.9 1.6-3.5 4.4-6.3 7.9-8.1 3.5-1.8 8.3-2.7 14.3-2.7 6.4 0 11.2 1.1 14.6 3.2 3.2 2 5.5 5 6.7 8.5 1.2 4.2 1.7 8.6 1.7 12.9V343h-15.1zm63.8-5.8c-4.4-3.8-6.5-9.9-6.5-18.3 0-2.4-2-4.4-4.4-4.4h-5.7c-1.4 0-2.4-2.4-2.9-7.1-.5-4.7-.5-9.5 0-14.2.5-4.7 1.5-7.1 2.9-7.1h10.1v-12.3c0-2.5 2.4-4.3 7.1-5.2 4.7-1 9.5-1.1 14.2-.2 4.7.8 7.1 2.3 7.1 4.4 0 5.7-.2 10.2-.5 13.6-.3 3.1-.8 6.2-1.6 9.2-.7 2.8-1.9 6.4-3.5 11h5.7c0-4.3 1-8.6 2.9-12.5 1.9-3.8 4.8-7 8.4-9.2 3.9-2.3 8.3-3.5 12.8-3.4h8.7c2.2 0 3.7 2.4 4.4 7.1.7 4.7.7 9.5-.2 14.2-.8 4.8-2.3 7.1-4.3 7.1h-32.6v4.6H879c2.1 0 3.6 2.4 4.4 7.1.8 4.7.8 9.5 0 14.2-.8 4.7-2.3 7.1-4.4 7.1h-35c-8.7.1-15.3-1.8-19.7-5.7zm89.9 5.8-26.7-56.7c-.8-1.6 1.1-2.9 5.5-3.9 4.7-1 9.5-1.3 14.2-.9 5.1.4 8.1 1.7 9 3.7 2.4 4.6 4.4 9.3 6.1 14.2 1.2 3.6 2.1 7.3 2.6 11 .4 3.8.6 7.7.6 11.6h4.3c0-3.9.2-7.7.6-11.6.5-3.8 1.4-7.5 2.7-11 1.4-4 3.4-8.7 6-14.2.8-2 3.8-3.2 8.9-3.7 4.7-.5 9.5-.3 14.2.7 4.4 1 6.2 2.3 5.5 4l-33.8 70.5c-1 2-3.8 3.4-8.4 4-4.3.6-8.7.6-12.9-.2-4-.7-5.7-1.8-5.1-3.2l6.7-14.3zm77.9 17.5c-4.7.8-9.5.8-14.2 0-4.8-.8-7.1-2.4-7.1-4.6V287c0-2.5 2.4-4.2 7.2-5 4.7-.8 9.5-.9 14.2-.1 4.7.8 6.9 2.1 6.5 3.9-.3 3.6-.9 7.2-1.7 10.8-.9 3.3-2 6.6-3.3 9.9h5.7c.1-7.8 2.5-13.9 7.3-18.3s11.8-6.6 21.2-6.6c7.5 0 13.5 1.1 18.1 3.3 4.4 2 7.8 5.6 9.7 10 2 4.5 3 10.2 3 17.4 0 7.3-1 13.2-3 17.6-1.9 4.4-5.4 8-9.8 10-4.5 2.2-10.5 3.3-18 3.2-9.3 0-16.3-2.2-21.1-6.6-4.8-4.4-7.2-10.6-7.3-18.6h-5.7c1.7 4.8 3.1 9.8 4 14.8 1 5 1.4 10.1 1.4 15.1v8.2c0 2.1-2.3 3.7-7.1 4.5zm40.3-50.7h-33v4.6h33v-4.6zm106.2 19.9c.6 2.9.6 5.9 0 8.8-.6 2.9-1.7 4.4-3.3 4.4h-45.7c-5.1.2-10.1-1.1-14.5-3.6-3.9-2.3-7-5.6-8.9-9.6-2-4.1-3-8.6-3-13.2v-9c-.1-4.7 1-9.4 3.2-13.6 2.1-4 5.3-7.2 9.3-9.4 4.3-2.3 9.1-3.5 14-3.4h33c6.2 0 11.2 1.9 15 5.6s5.7 8.7 5.7 14.8c0 6.8-1.4 11.7-4.1 14.7-2.7 3-7.1 4.6-13.1 4.5h-37v-6.8h31.4v-4.6h-13.4c-3.7.1-7.2-1.3-9.7-4-2.6-2.8-4.4-6.2-5.2-9.9h-5.7c1.8 2.1 3.2 5.3 4.2 9.6s1.4 11 1.1 20.2h43.4c1.5.1 2.7 1.6 3.3 4.5zM130.7 430.5c-.9-.8-2-1.3-3.2-1.3h-6.7v-22.8h11.4v-6.7c0-6.8 1-12 3-15.8 1.9-3.7 5.1-6.6 9-8.1 4-1.6 9.4-2.4 16.1-2.4H204v28.5h-39.7v4.6h39.6V435h-15.1c-6.5 0-11.5-1-14.9-3.1-3.2-1.9-5.7-4.8-7-8.3-1.4-4.5-2.3-9.1-2.6-13.8h-5.7c1.6 3.6 2.9 7.2 3.9 11 .8 3.4 1.3 6.9 1.5 10.4.2 3.8.3 9.6.3 17.4h-32.1v-15c-.1-1.3-.6-2.4-1.5-3.1zm80.6-13.5c1.5-2.9 4-5.1 7-6.3 3.2-1.4 7.3-2 12.5-2h32.7v-4.6h-52.2V387h54.4c10.2 0 17.7 2.2 22.7 6.7 4.9 4.5 7.4 10.9 7.4 19.4v35.4h-32.2c0-4.2.4-8.4 1.3-12.5 1-4.4 2.4-8.7 4.1-12.9h-5.6c-.7 6.8-1.9 11.9-3.8 15.5-1.8 3.5-4.8 6.2-8.4 7.6-3.8 1.5-9.2 2.3-16.2 2.3-8.4 0-14.9-1.7-19.4-5.1-4.5-3.4-6.7-8.4-6.7-15 .1-4.8.9-8.5 2.4-11.4zm52.2 2.8v-4.5h-22.1v4.5h22.1zm142.6 28.7H386v-33.4h-10.3v33.4H345v-33.4h-10.2v33.4h-32.1V387h32.1c0 4-.4 8-1.3 11.8-1.1 4.4-2.6 8.7-4.4 12.9h5.7c.6-4.2 1.8-8.3 3.6-12.1 1.7-3.6 4.4-6.8 7.7-9.1 3.5-2.4 7.7-3.7 12-3.5 6.5 0 11 2.3 13.3 7 2.3 4.7 2.7 10.6 1.2 17.7h4.6c.5-4.7 1.6-9.4 3.5-13.8 1.4-3.3 3.8-6.2 6.9-8.1 3-1.9 6.9-2.8 11.6-2.8 5.2 0 9.1 1.1 11.9 3.3 2.8 2.2 4.7 5.2 5.6 8.6 1.1 4.2 1.6 8.5 1.5 12.8v36.8h-12.1zm21.1-59.6c-2.8-1.1-4.6-3.8-4.5-6.8-.1-3 1.7-5.7 4.4-6.8 3-1.3 7.6-2 13.9-2 6.3 0 11 .7 14 2 2.8 1 4.6 3.8 4.5 6.8.1 3-1.7 5.8-4.5 6.8-3 1.4-7.6 2.1-14 2-6.2.1-10.8-.6-13.8-2zm10 6h20v53.5h-32.1V395l12.1-.1zm38.9-21.6h20.1v75.2h-32.1v-75.2h12zm54.8 75.2L500.8 387h32.7c2.8 5.3 5.2 10.8 7.2 16.4 1.5 4 2.6 8.1 3.2 12.4.6 3.9.8 7.9.8 11.9h4.3c0-4 .2-8.1.8-12.1.7-4.2 1.7-8.3 3.2-12.4 2-5.6 4.3-11 7-16.2h32.7l-38 79.6c-5.4 0-9.4 0-12.1.1-2.7 0-5.4.1-8.1.1h-12.1l8.5-18.3zm97.9-18c-.9-.8-2-1.3-3.2-1.3h-6.7v-22.8h11.4v-6.7c0-6.8 1-12 2.8-15.8 1.7-3.7 4.8-6.5 8.5-8.1 3.8-1.6 8.7-2.4 14.8-2.4h41.9v28.5h-39.6v4.6h39.6V435h-15.2c-6.5 0-11.5-1-14.9-3.1-3.2-1.8-5.7-4.8-7-8.3-1.4-4.5-2.3-9.1-2.6-13.8h-5.7c1.6 3.6 2.9 7.2 3.9 11 .8 3.4 1.3 6.9 1.5 10.4.2 3.8.3 9.6.3 17.4h-28.5v-15c.2-1.3-.4-2.4-1.3-3.1zm86 14.9c-3.8-2.2-6.7-5.7-8.1-9.9-1.7-4.5-2.6-10.4-2.6-17.8 0-7.5.9-13.5 2.6-17.9 1.4-4.1 4.3-7.6 8.1-9.7 3.7-2 8.6-3.1 14.8-3.1h27.8c6.2 0 11.2 1 14.9 3.1 3.8 2.2 6.6 5.7 8 9.8 1.7 4.5 2.5 10.4 2.5 17.9 0 7.4-.8 13.4-2.6 17.9-1.4 4.1-4.3 7.6-8.1 9.8-3.7 2-8.6 3.1-14.7 3.1h-27.8c-6.2-.1-11.2-1.1-14.8-3.2zM765 420v-4.6h-43.2v4.6H765zm34.1-33h17.8c-.3 4.1-.9 8.1-1.8 12.1-1.1 4.4-2.4 8.7-3.9 13h5.7c0-5.7 1-10.4 2.8-14.1 1.8-3.6 4.8-6.5 8.5-8.3 3.8-1.8 8.4-2.7 14.1-2.7h16.6v28.5h-37.6c-2.4 0-4.4 2-4.4 4.5v28.6h-28.5V387h10.7zm107.8 54.7c-4.5-4.6-6.7-11.1-6.7-19.7 0-2.4-2-4.4-4.4-4.4h-8.9v-22.1h13.3v-22.1h28.5c0 7-.2 12.5-.5 16.6-.3 3.6-.8 7.1-1.7 10.6-.8 3-1.9 6.8-3.5 11.5h5.7c0-4.4.9-8.7 2.8-12.6 1.9-3.8 4.8-6.9 8.4-9.1 4-2.3 8.6-3.5 13.3-3.4h13v28.5h-37.5v4.5h37.5v28.5h-39.8c-8.6 0-15.1-2.3-19.5-6.8zm106.7 4.5c-4-1.5-7.4-4.2-9.6-7.9-2.3-3.7-3.8-8.7-4.5-15.2H994l1 2.2c1.7 3.4 2.9 7 3.6 10.7.7 4.1 1 8.3.9 12.5h-28.7v-75.2h28.7l-.1 11.7c0 4.6-.4 9.2-1.2 13.8-.9 4.5-2.3 9-4.1 13.2h5.5c.7-6.5 2.2-11.7 4.5-15.4 2.2-3.6 5.6-6.4 9.6-7.9 4.1-1.5 9.5-2.2 16.1-2.2 6.6.1 12.1 1.2 16.4 3.4 4.3 2.1 7.7 5.7 9.7 10.1 2.2 4.5 3.2 10.4 3.2 17.4 0 7.4-1 13.4-3.1 17.9-1.9 4.3-5.3 7.9-9.5 9.9-4.3 2.1-9.9 3.1-16.8 3.1-6.6.2-12-.6-16.1-2.1zm18.8-26.4v-4.4h-32.9v4.4h32.9zm40.3-46.5h17.8v13.3c0 4.3-.4 8.5-1.4 12.7-1.1 4.3-2.5 8.6-4.2 12.7h5.5c.4-6.1 1.7-11.1 4-14.9 2.1-3.6 5.2-6.4 9-8.1 4.1-1.7 8.5-2.5 13-2.5 4.9-.1 9.8 1.1 14.1 3.5 4 2.3 7.2 5.8 9.2 10 2.2 4.7 3.3 9.9 3.2 15.1v33.1h-28.5v-33h-23.9v33H1062V373h10.7zM130.5 492.5h18.1c1.6 6.2 2.8 12.6 3.4 19 .4 5.4.6 12.4.6 21v3.9h4.6c0-7 .4-14 1.1-20.9.8-6.4 2.1-14.1 4.1-23h22.8c1.8 6.8 3.1 13.8 4 20.8.8 6.5 1.2 13.1 1.2 19.6v3.4h4.6v-4c0-8.7.2-15.8.6-21.1.6-6.3 1.7-12.6 3.4-18.8h29l-17.6 61.5H181c-2-7.5-3.3-13.4-4-17.8-.7-5.1-1.1-10.2-1-15.4h-4.4c.1 5.1-.3 10.3-1 15.4-.7 4.3-2 10.3-4 17.8h-29.3l-17.7-61.5h10.9zm104 2c-2.7-1.2-4.4-3.9-4.2-6.9-.2-2.9 1.4-5.7 4.1-6.8 2.7-1.3 6.9-1.9 12.4-1.9s9.7.6 12.5 1.9c2.7 1.2 4.4 3.9 4.2 6.8.2 2.9-1.5 5.7-4.2 6.9-2.8 1.3-6.9 2-12.5 2-5.5 0-9.6-.6-12.3-2zm8.9 6h17.8V554h-28.5v-53.6l10.7.1zm43.9 47.8c-4.4-3.8-6.5-9.9-6.5-18.3 0-2.5-2-4.4-4.5-4.5h-8.9V497h13.3v-18.2h28.5c0 7-.2 12.5-.5 16.6-.3 3.6-.8 7.2-1.6 10.6-.8 3-1.9 6.8-3.5 11.4h5.7c0-4.4.9-8.7 2.9-12.6 1.9-3.8 4.8-6.9 8.4-9.1 4-2.3 8.6-3.5 13.3-3.4h13V521h-37.5v4.5h37.5V554H307c-8.7 0-15.3-1.9-19.7-5.7zM407.8 521h-22.1v33h-32.1v-75.1h31.9v13.3c0 4.3-.4 8.6-1.3 12.8-1 4.3-2.4 8.5-4.2 12.6h5.7c.4-6.2 1.7-11.1 3.9-14.8 2.1-3.6 5.4-6.5 9.2-8.1 4-1.7 8.9-2.5 14.8-2.5 8.4 0 14.9 2.5 19.4 7.6 4.5 5.1 6.7 12.1 6.7 21.1v33.2h-31.9V521zm80.8 27.3c-4.4-3.8-6.5-9.9-6.5-18.3 0-1.2-.5-2.3-1.3-3.1-.9-.9-2-1.3-3.2-1.3-3.6 0-6.2-2.4-7.7-7.1-1.5-4.6-1.5-9.6 0-14.2 1.5-4.7 4-7.1 7.7-7.1h4.5v-.2c0-7.8 2.6-13.2 7.8-16.2 4.8-3 10.8-3.1 15.8-.5 5.3 2.6 8 7 8 13.1.1 4.7-.6 9.5-1.9 14-.7 2.7-1.8 6.1-3.2 10.2h5.7c0-4.3 1.1-8.6 3.1-12.4 2-3.7 4.9-6.9 8.4-9.2 3.4-2.2 7.5-3.4 11.6-3.4h2.2c6.2 0 10.4 2.4 12.7 7.1 2.3 4.5 2.1 9.9-.3 14.2-2.5 4.8-6.6 7.2-12.5 7.2h-25.1v4.5h25.1c6 .1 10.2 2.5 12.6 7.2 2.4 4.4 2.4 9.8 0 14.2-2.4 4.7-6.6 7.1-12.6 7.1h-31.1c-8.8 0-15.4-2-19.8-5.8zm74.6-53.4c4.7-2.9 10-3.2 16-1.1 6 2.2 9.3 6.2 10.1 12 .6 4.2 1 8.1 1.1 11.8.2 3.7.2 8.6.2 14.7v4h4.6c0-5.9.2-11.2.6-15.8.4-5 1.1-10 2-14.9 1-5.6 3.7-9.5 8.3-11.7 4.2-2.2 9.2-2.2 13.4-.1 4.5 2.1 7.2 6 8.4 11.6.9 4.4 1.5 8.8 1.8 13.2.3 4.2.5 9.2.6 15v2.5h4.5v-3.2c0-6.2.1-11.3.2-15.2.2-4.1.6-8.2 1.1-12.3.8-5.8 4.2-9.8 10.1-12 5.9-2.2 11.2-1.8 16 1.1 4.7 2.9 6.1 7.6 4.1 14.2l-8.7 30.5c-1.7 6.1-6.2 10.9-12.2 12.9-5.9 2.3-12.5 2.2-18.3-.3-5.7-2.1-9.8-7.2-10.6-13.3-.5-3-.9-5.9-1.1-8.7s-.3-5.9-.3-9.4h-4.6c0 3.6-.1 6.7-.3 9.5-.2 2.7-.6 5.6-1.1 8.7-.9 6.1-5 11.2-10.8 13.3-5.9 2.5-12.5 2.6-18.5.3-6-2-10.5-6.9-12.1-12.9l-8.7-30.5c-1.9-6.2-.5-11 4.2-13.9zm116.3 56c-4-2.1-7.1-5.6-8.6-9.8-1.7-4.4-2.6-10.4-2.6-17.8 0-7.6.9-13.6 2.7-18 1.6-4.2 4.6-7.6 8.6-9.7 3.9-2.1 9.3-3.1 16.1-3.1h31.5c6.8 0 12.1 1 16.1 3.1 4 2.1 7 5.5 8.5 9.7 1.7 4.4 2.6 10.4 2.6 17.9s-.9 13.5-2.7 18c-1.6 4.2-4.6 7.7-8.6 9.7-3.9 2-9.3 3.1-16 3.1h-31.5c-6.7.1-12.1-1-16.1-3.1zm53.5-25.3V521h-43.3v4.5l43.3.1zm55-3c1.5-2.9 3.9-5.1 6.8-6.4 3.8-1.5 7.9-2.2 12-2h32v-4.6H788v-17.1h53.1c9.6 0 16.7 2.3 21.5 6.8 4.8 4.5 7.2 11 7.2 19.3V554H839c0-4.2.4-8.4 1.3-12.5 1-4.4 2.4-8.7 4.2-12.9h-5.6c-.7 6.7-1.9 11.8-3.7 15.4-1.7 3.5-4.6 6.3-8.2 7.7-3.7 1.5-9 2.3-15.7 2.3-8.1 0-14.4-1.7-18.8-5.1-4.4-3.4-6.6-8.4-6.6-15-.1-4.6.6-8.4 2.1-11.3zm50.9 2.8v-4.6h-22.1v4.6h22.1zm37.8 17.9v-17.8h29.8V521h-29.8v-28.5h22.4c6.8 0 11.7 2.4 14.8 7.2 3.1 4.8 4.7 11.2 4.7 19h4.5c0-7.8 1.5-14.2 4.6-19 3.1-4.8 8-7.3 14.8-7.2h22.6V521h-29.8v4.5h29.8V554h-22.6c-6.8 0-11.7-2.4-14.8-7.3-3.1-4.9-4.6-11.3-4.6-19.1h-4.6c0 7.8-1.6 14.2-4.7 19.1-3.1 4.9-8 7.3-14.8 7.3h-22.4v-10.7zm174-.3v11h-52.6c-6.1 0-11.2-1.2-15.3-3.6-3.9-2.2-7.1-5.6-9.1-9.6-2-4.1-3-8.6-3-13.2v-9c-.1-4.7 1.1-9.4 3.3-13.6 2.2-4 5.4-7.3 9.5-9.4 4.5-2.4 9.5-3.5 14.6-3.4h34.9c6.4 0 11.6 1.9 15.4 5.6 3.8 3.8 5.8 8.7 5.8 14.8 0 6.8-1.4 11.7-4.2 14.7s-7.3 4.6-13.5 4.6h-37.7V525h31.5v-4.5h-13.5c-3.7.1-7.2-1.4-9.7-4-2.6-2.8-4.4-6.2-5.2-9.9h-5.7c1.8 2.1 3.2 5.3 4.2 9.6s1.4 11 1.1 20.2h49.2v6.6zm10.3 4.2v-11.4h50.6v-4.6h-30.4c-5.7 0-10.1-.5-13.3-1.6-3-.9-5.5-2.9-6.9-5.7-1.5-2.7-2.2-6.7-2.2-11.7 0-6.5 1.7-11.4 5.1-14.8 3.4-3.3 8.8-5 16.2-5h59.7V521H1089v4.5h37.4c5.5 0 9.5 1.3 11.9 3.8 2.4 2.5 3.6 6 3.6 10.5 0 4.7-1.2 8.2-3.6 10.6-2.4 2.4-6.4 3.6-11.9 3.6H1061v-6.8zm-940.2 45.4c.7-2.3 2.2-4.4 4.2-5.8 2.7-1.8 5.9-2.6 9.1-2.3 3.6.2 7.1 1.5 10 3.8 3.2 2.5 5.5 5.9 6.6 9.7.4 1.3.8 2.5 1.1 3.7s.7 2.3 1 3.5c1.7 5.5 2.9 9.7 3.6 12.5.8 2.9 1.3 5.8 1.7 8.8.4 3.4.6 6.9.6 10.4h5.7c0-3.5.2-6.9.6-10.4.4-2.9.9-5.8 1.7-8.7.8-2.9 2-7 3.6-12.5l2.2-7.3c2-6.3 5.8-10.5 11.3-12.4 5.6-2 10.4-1.5 14.6 1.5 4.2 3 5.4 7.6 3.8 13.8l-9.4 35.4c-2.6 9.9-8.4 16.7-17.6 20.4-8.7 3.8-18.6 3.8-27.3 0-9.1-3.8-15-10.6-17.7-20.4l-9.3-35.4c-.9-2.6-.9-5.6-.1-8.3zm83.2 35.6c1.4-2.8 3.8-5.1 6.7-6.4 3.7-1.5 7.7-2.2 11.7-2.1h31.4v-4.5h-40.1c-4 0-6.8-1.4-8.5-4.3-1.7-2.6-1.7-5.9 0-8.5 1.6-2.8 4.5-4.3 8.5-4.3h42.4c9.1 0 16 2.3 20.7 6.8 4.7 4.5 7 11 7 19.3v18.5c0 7.1-2.6 12.1-7.9 14.8-5.2 2.7-10.3 2.9-15.2.6-4.9-2.4-6.7-6.1-5.4-11.3.5-2.1 1.1-4.2 1.8-6.3.7-2.1 1.4-4.1 2.3-6.3h-5.6c-.7 6.7-1.9 11.8-3.7 15.4-1.7 3.5-4.6 6.2-8.1 7.7-3.6 1.5-8.7 2.3-15.3 2.3-7.9 0-14-1.7-18.4-5.1-4.4-3.4-6.5-8.4-6.6-15 0-4.7.8-8.4 2.3-11.3zm49.8 2.7v-4.6h-22.1v4.6h22.1zm44.4-32.1c4.8-1.5 10.1-1.1 14.6 1.1 4.7 2.2 6.5 5.5 5.6 10-.3 1.5-.8 3.4-1.5 5.8s-1.5 4.8-2.4 7.5h5.7c.4-6.4 1.2-11.3 2.5-14.8 1.2-3.4 3.6-6.1 6.8-7.7 3.2-1.7 8-2.5 14.3-2.5h4.2c6.2 0 10.6 2.4 13.1 7.1 2.5 4.4 2.5 9.8 0 14.2-2.5 4.8-6.9 7.1-13.1 7.1h-23.4c-2.4 0-4.4 2-4.4 4.4v19.1c0 4-2.5 6.8-7.4 8.4-4.8 1.6-10 1.5-14.9-.1-5-1.6-7.5-4.4-7.5-8.3v-42.2c.2-4.6 2.7-7.6 7.8-9.1zm72.5 1.3c-2.7-1.2-4.5-3.9-4.3-6.9-.2-2.9 1.5-5.7 4.2-6.8 2.8-1.3 7.1-1.9 12.9-1.9 5.8 0 10.1.6 13 1.9 2.7 1.1 4.5 3.9 4.3 6.8.2 3-1.5 5.7-4.3 6.9-2.8 1.3-7.2 2-12.9 2s-10-.7-12.9-2zm5.6 7.7c4.7-2.3 10.2-2.3 14.9.1 4.9 2.3 7.4 6.3 7.4 12v23.3c0 6.9-2.5 11.7-7.4 14.5-4.6 2.7-10.3 2.7-14.9 0-5-2.7-7.5-7.5-7.5-14.5V620c0-5.9 2.5-9.9 7.5-12.2zm29.6 20.4c1.4-2.8 3.8-5.1 6.7-6.4 3.7-1.5 7.7-2.2 11.7-2.1h31.4v-4.5h-40.1c-4 0-6.8-1.4-8.5-4.3-1.7-2.6-1.7-5.9 0-8.5 1.6-2.8 4.5-4.3 8.5-4.3H458c9.1 0 16 2.3 20.7 6.8s7 11 7 19.3v18.5c0 7.1-2.6 12.1-7.9 14.8-5.2 2.7-10.3 2.9-15.2.6-4.9-2.4-6.7-6.1-5.4-11.3.5-2.1 1.1-4.2 1.8-6.3.7-2.1 1.4-4.1 2.3-6.3h-5.6c-.7 6.7-1.9 11.8-3.7 15.4-1.7 3.5-4.6 6.2-8.1 7.7-3.6 1.5-8.7 2.3-15.3 2.3-7.9 0-14-1.7-18.4-5.1-4.4-3.4-6.5-8.4-6.5-15 0-4.7.7-8.4 2.2-11.3zm49.9 2.7v-4.6h-22.1v4.6h22.1zm61.6 4 1.5 3.5c.5 1.1.9 2.3 1.2 3.5 2 6.5.6 11.5-4.2 14.9-4.8 3.4-9.9 3.8-15.3 1.3-5.4-2.6-8.1-7.7-8.1-15.5v-41.1c0-7.1 2.4-12 7.3-14.8 4.5-2.7 10-3.2 14.9-1.1 5 2 7.6 5.5 7.6 10.5v.1c0 5-.4 9.9-1.3 14.8-.9 4.2-2.3 8.3-3.9 12.2h5.5c.5-6.6 1.7-11.7 3.9-15.4 2.1-3.7 5.5-6.5 9.6-7.8 4.3-1.5 10.3-2.3 17.9-2.3 6.8 0 12.3 1.1 16.6 3.2 4.3 2.2 7.7 5.7 9.6 10.1 2.1 4.5 3.2 10.4 3.2 17.5 0 7.4-1 13.3-3.1 17.9-1.9 4.4-5.2 7.9-9.5 10-4.3 2.1-9.9 3.1-16.8 3.1-7.7 0-13.7-.8-18-2.3-4-1.3-7.5-4.1-9.6-7.8-2.1-3.6-3.4-8.7-3.8-15.3H517l.4.8zm38.1-4v-4.5h-33v4.5h33zm41-44.8c4.7-2.3 10.2-2.3 14.9 0 4.9 2.3 7.4 6.4 7.4 12.1v46.7c0 6.2-2.5 10.5-7.4 12.9-4.6 2.5-10.2 2.5-14.9 0-5-2.5-7.5-6.8-7.5-12.9v-46.7c0-5.8 2.5-9.8 7.5-12.1zm105.3 60.3c1.8 2.7 1.8 6.2 0 8.8-1.8 2.9-4.9 4.4-9.4 4.4h-40.8c-5.9 0-10.9-1.2-15-3.6-3.9-2.2-7.1-5.6-9.1-9.6-2-4.1-3.1-8.6-3-13.2v-9c-.1-4.7 1.1-9.4 3.3-13.6 2.2-4 5.5-7.2 9.5-9.4 4.4-2.4 9.4-3.5 14.3-3.4h34c6.4 0 11.5 1.9 15.3 5.6 3.8 3.8 5.8 8.7 5.8 14.8 0 6.8-1.4 11.7-4.2 14.7-2.8 3-7.2 4.6-13.4 4.6h-37.4v-6.8h31.4V626h-13.5c-3.7.1-7.2-1.3-9.7-4-2.6-2.8-4.4-6.2-5.2-9.8H649c1.8 2.1 3.2 5.3 4.2 9.6s1.4 11 1.1 20.2h37.9c4.6 0 7.8 1.5 9.6 4.4zm37.7-55.6c3.7-4.2 9.9-6.4 18.6-6.4h50.7v28.5h-46v4.5h46V646h-22.9c-6.1 0-10.7-1-13.9-3-3.1-1.9-5.4-4.8-6.6-8.3-1.4-4.5-2.3-9.1-2.6-13.8h-5.7c1.3 3.1 2.4 6.3 3.2 9.6.8 3.7 1.4 7.4 1.6 11.2.3 4.5.5 10.4.5 17.9h-28.5V611c0-9.2 1.9-15.9 5.6-20.2zm85.1 65.7c-3.8-2.2-6.7-5.7-8.1-9.8-1.7-4.5-2.6-10.4-2.6-17.8 0-7.5.9-13.5 2.6-17.9 1.4-4.1 4.3-7.6 8.1-9.7 3.7-2 8.6-3.1 14.8-3.1h27.8c6.2 0 11.2 1 14.9 3.1 3.8 2.2 6.6 5.7 8 9.8 1.7 4.5 2.5 10.5 2.5 17.9s-.8 13.4-2.5 17.9c-1.4 4.2-4.3 7.6-8.2 9.8-3.7 2.1-8.6 3.1-14.7 3.1h-27.8c-6.2-.2-11.2-1.2-14.8-3.3zm50.2-25.4v-4.5h-43.3v4.5h43.3zm72.4-4.5h-20.5v33h-28.5v-61.5h28.5c0 4.2-.4 8.3-1.4 12.4-1.1 4.3-2.6 8.6-4.3 12.7h5.7c.4-5.9 1.5-10.7 3.1-14.3 1.5-3.4 4.1-6.3 7.3-8.1 3.3-1.8 7.6-2.7 13-2.7 8.4 0 14.7 2.6 19 7.7 4.3 5.1 6.5 12.1 6.5 20.8v33h-28.5v-33zm54.6 27.3c-4.4-3.8-6.5-9.9-6.5-18.3 0-2.4-2-4.4-4.4-4.5H982v-28.5h13.3v-18.2h28.5c0 7-.2 12.5-.5 16.6-.3 3.6-.8 7.2-1.7 10.7-.8 3-1.9 6.8-3.5 11.5h5.7c0-4.4.9-8.7 2.9-12.6 1.9-3.8 4.8-6.9 8.4-9.1 4-2.3 8.6-3.5 13.3-3.4h13v28.5h-37.5v4.5h37.5v28.5h-39.8c-8.9 0-15.4-1.9-19.8-5.7zm67.4-1.1v-11.4h48.8v-4.6h-29.2c-5.5 0-9.8-.5-12.9-1.6-2.9-.9-5.4-3-6.8-5.7-1.4-2.7-2.2-6.6-2.2-11.7 0-6.5 1.7-11.4 5-14.8s8.5-5 15.6-5h56.8v28.5h-48.9v4.5h36.2c5.2 0 9 1.3 11.3 3.8 2.3 2.5 3.5 6 3.5 10.5 0 4.6-1.2 8.2-3.5 10.6-2.3 2.4-6.1 3.6-11.3 3.7h-62.4v-6.8zm103.4-5.3v12.1h-19.4v-19.4h19.4v7.3z" style="fill:#fbfbfb"/></svg>