<svg xmlns="http://www.w3.org/2000/svg" viewBox="0 0 1280 960" style="enable-background:new 0 0 1280 960" xml:space="preserve"><style>.st0{fill:#040404}.st1{fill:#701110}.st2{opacity:.3}</style><path class="st0" d="m891.9 462.7 18.4 4.5-4.3 11.5c13.2 28.8 29.3 56.1 47.9 81.7l-16.7 11.5c-2.9-5.8-5-10.1-6.3-13h-40l11.9 6.7c-7.8 15.5-17.2 30.1-28.1 43.6l42.7-19.3c-1.8-8.5-3.8-17-5.9-25.4l1.4-.9c11 18.7 20.2 38.4 27.4 58.9l-14.8 11c-2.7-16.1-5.1-29.5-7.4-40.1l-51.7 38.5-8.6-14.9 10.6-4.9c7.1-17.2 12.8-34.9 17.1-53h-17.8v-5.4h60.5c-4-8.9-7.6-17.4-10.8-25.6h-36c-9.1 15.2-19.2 29.8-30.3 43.7l-1.3-.7c18.8-34.1 33-70.6 42.1-108.4zm23.4 59.9c-4.6-12.7-8.5-25.7-11.5-38.9-5.6 13.3-12.1 26.3-19.3 38.9h30.8zm100.2 5.2v87.3h-12.6v-7.2h-19.8v23.4H970V527.8h11.7v5.4h4v-67.5h12.6v26.8h19.6v5.4h-19.7v35.3h4.7v-5.4h12.6zm-12.6 74.7v-63.9h-19.8v63.9h19.8zm29.7-19.6c-4.1-18.8-6.9-41-8.3-66.6l-12.6 3.2-2-5.8 14.2-3.6c-.7-13.9-1.1-28.7-1.1-44.5h14.2c0 14.3.2 27.9.5 40.9l25.2-6.3 2 5.8-26.9 6.8c.8 18 2 33.2 3.6 45.7 4.3-12.4 8.8-26.9 13.3-43.7l12.1 8.1c-6.6 17.9-14.1 35.4-22.5 52.6 2.5 11.8 5.5 21.4 9 29l9.2-66.1 2.5 1.1-4.3 77.6c1.7 2.1 3.5 4.1 5.4 5.9l-9.7 11.7c-8.2-6.6-15-19.5-20.5-38.7-7.3 12.5-15.6 24.4-24.7 35.6l-2-1.4c8.2-13 16-28.8 23.4-47.3zm11.6-117.4c4.6 4.2 8.9 8.7 13 13.5 3.4 3.9 6.3 8.1 8.8 12.6l-13.5 8.6c-2.1-11.4-5.6-22.6-10.5-33.1l2.2-1.6zm64 75.1h-20v-5.4h39.6v-27.4h14.4v27.4h24.1l2.5-39.8h-66.2c-.8 13.4-1.8 25.8-2.9 37.1l-15.1-3.1c6.5-17.8 12.1-35.8 16.7-54.2l2.3.5-.6 14.3h28.6c-2.1-9.8-5.3-19.2-9.5-28.3l1.4-2c9.6 7.2 17.2 14.7 22.7 22.5l-10.4 7.8h33.5l.5-9 15.3 1.6-15.5 52.6h12.2v5.4H1151c6 14.3 11.8 27.1 17.3 38.5 5.6 11.6 11.9 22.8 18.7 33.7l-16.2 11.7c-5.4-14.8-9.9-28.6-13.6-41.6-3.9-13.9-7-28-9.3-42.3h-5.8v90.7h-14.4v-90.7h-12.6l8.3 4c-8.7 28.5-21.6 55.6-38.2 80.4l-2-.9c12.2-28.9 20.5-56.7 25-83.5z"/><path class="st1" d="M367.1 373.5c-5.8-5.3-10.8-13.2-15-23.8l12-17c2 14.1 5.3 24.4 10 31 4.7 6.6 9.8 9.9 15.3 9.9 3.9.1 7.5-1.9 9.5-5.2 2.4-3.4 3.6-8.9 3.6-16.4 0-5.2-1-10.3-2.9-15.1-1.9-5-4.9-11.5-8.9-19.4l-3.3-6.5-17.4-35c-2.7-5.8-4.9-11.8-6.4-17.9-1.4-5.5-2.2-11.1-2.3-16.8 0-8.3 2.3-14.6 6.8-19s10.9-6.6 19-6.6c10.4 0 19.5 4 27.4 12l-9.2 17c-4.1-15.6-10.8-23.5-20-23.5-2.8 0-5.6 1.1-7.6 3.1-2.1 2.1-3.2 5.2-3.2 9.3 0 7.8 3.9 19 11.7 33.6l17.9 34.3c9.2 17.2 13.8 31.6 13.8 43.2 0 12.9-3.3 22.2-9.8 27.9-6 5.6-14 8.7-22.2 8.6-6.7.2-13-2.4-18.8-7.7zm81-99.7c4.5-3.4 10.1-5.2 15.8-5.1 6.6 0 11.9 2 15.9 5.9s6 9.5 6 16.9v87.6h-16.4v-13.8c-1.9 4.5-4.8 8.5-8.5 11.7-3.6 2.9-8 4.5-12.6 4.4-5.1 0-9.1-1.7-12-5.1-2.9-3.4-4.4-8.7-4.4-16.1-.1-7.1 1.3-14.2 4.4-20.7 2.5-5.5 6.4-10.3 11.3-13.9 4.2-3.1 9.3-4.9 14.5-4.9 2.5 0 5 .5 7.4 1.4v-27.6c0-7.2-.6-12.3-1.7-15.4s-3.1-4.6-5.9-4.6c-3.2 0-5.9 2-7.9 6.1s-3.8 10.6-5.2 19.7l-12.6-10.8c3.4-7.2 7.4-12.4 11.9-15.7zm6.8 99.3c2.9 0 5.6-1.4 8.2-4.3 2.8-3.2 4.9-6.9 6.3-10.9v-26.2c-2.8-4.1-6.1-6.2-9.9-6.2-3.7 0-6.7 2.4-9.2 7.1-2.5 4.8-3.7 11.7-3.7 20.9 0 13.1 2.8 19.6 8.3 19.6zM522.8 271v17.5c4-13 9.7-19.6 17-19.5 3.1-.1 6.1.9 8.5 2.8l-5.3 16.8c-.9-2-2.2-3.8-3.9-5.3-1.3-1.2-3.1-1.8-4.8-1.8-4.4 0-8.3 5-11.5 15v82.8h-16.3V271h16.3zm40.7 6.4h-9.7V271h9.7v-32.4h16.3V271H597v6.4h-17.2v71.1c0 8.7.6 15.1 1.7 19.1 1.1 4 3.2 6 6.1 6 3.4 0 7-3.1 11-9.2l2.5 3c-1.9 3.9-4.5 7.4-7.7 10.4-2.6 2.3-5.9 3.5-9.3 3.5-5.9.2-11.6-2.6-15.1-7.4-3.8-4.9-5.6-12.2-5.6-21.9l.1-74.6z"/><path class="st0" d="M656.2 373.5c-5.8-5.3-10.8-13.2-15-23.8l12-17c2 14.1 5.3 24.4 10 31 4.7 6.6 9.8 9.9 15.3 9.9 3.9 0 7.5-1.9 9.5-5.2 2.4-3.4 3.6-8.9 3.6-16.4 0-5.2-1-10.3-2.9-15.1-1.9-5-4.9-11.5-8.9-19.4l-3.2-6.5-17.5-35c-2.7-5.8-4.9-11.8-6.4-17.9-1.4-5.5-2.2-11.1-2.3-16.8 0-8.3 2.3-14.6 6.8-19s10.9-6.6 19-6.6c10.4 0 19.6 4 27.4 12l-9.2 17c-4.1-15.6-10.8-23.5-20-23.5-2.8 0-5.6 1.1-7.6 3.1-2.1 2.1-3.2 5.2-3.2 9.3 0 7.8 3.9 19 11.7 33.6l17.9 34.3c9.2 17.2 13.8 31.6 13.8 43.3 0 12.9-3.3 22.2-9.8 27.9-6.1 5.6-14 8.7-22.2 8.6-6.7.1-13-2.5-18.8-7.8zm81-99.7c4.5-3.4 10.1-5.2 15.8-5.1 6.6 0 11.9 2 15.9 5.9 4 3.9 6 9.5 6 16.9v87.6h-16.4v-13.8c-1.9 4.5-4.8 8.5-8.5 11.7-3.6 2.9-8 4.5-12.7 4.4-5.1 0-9.1-1.7-12-5.1-2.9-3.4-4.4-8.7-4.3-16.1-.1-7.1 1.4-14.2 4.4-20.7 2.5-5.5 6.4-10.3 11.3-13.9 4.2-3.1 9.3-4.9 14.5-4.9 2.5 0 5 .5 7.4 1.4v-27.6c0-7.2-.6-12.3-1.7-15.4-1.1-3.1-3.1-4.6-5.9-4.6-3.2 0-5.9 2-7.9 6.1s-3.8 10.6-5.2 19.7l-12.6-10.8c3.4-7.2 7.4-12.4 11.9-15.7zm6.8 99.3c2.9 0 5.6-1.4 8.2-4.3 2.8-3.2 4.9-6.9 6.3-10.9v-26.2c-2.8-4.1-6.1-6.2-9.9-6.2-3.7 0-6.7 2.4-9.2 7.1-2.5 4.8-3.7 11.7-3.7 20.9 0 13.1 2.8 19.6 8.3 19.6zm89.1-91c-1.6-4.7-3.9-7-6.8-7s-5.7 1.9-8.3 5.8c-2.7 4-4.8 8.4-6.2 13.1v85.1h-16.3V271h16.3v14c1.6-4.6 4.3-8.6 7.9-11.9 3.6-3 8.1-4.6 12.8-4.5 12.7 0 19.1 11 19.1 32.9V379h-16.1v-77c.1-8.5-.7-15.2-2.4-19.9zm67.9 89.1c2.4-2.4 3.6-5.9 3.6-10.5 0-7.5-3.9-16.6-11.7-27.1L879 314.5c-2.5-3.8-4.6-8-6.1-12.3-1.5-3.9-2.3-7.9-2.4-12.1 0-6.3 2.1-11.4 6.4-15.3s9.7-5.9 16.1-5.9c4.1 0 8.2.8 12 2.2 4.2 1.5 8 3.6 11.5 6.3L906 293.1c-1.4-5.8-3.4-10.4-6.1-13.6s-5.7-4.8-9.1-4.8c-2.6-.1-5.1.8-6.9 2.6-1.7 1.8-2.6 4.3-2.5 6.8.2 3.9 1.1 7.7 2.9 11.1 2 4.4 4.5 8.5 7.5 12.3l14.3 19.3c3.5 4.5 6.4 9.5 8.6 14.7 1.7 4.3 2.6 8.9 2.7 13.6 0 8.1-2.5 14.5-7.5 19.1-4.7 4.5-11.1 7-17.6 6.9-11.2 0-21-6.7-29.4-20l11.5-15c3.8 19 10.1 28.5 18.9 28.5 2.8.1 5.7-1.2 7.7-3.4zm-485.1 85c5.1 5.3 7.7 13.7 7.7 25.2 0 11.2-2.3 21-6.8 29.4-4.5 8.4-10.1 14.6-16.8 18.6l31 78.9-15 6.4-29.7-81c-3.5-.1-7-.8-10.4-2v79.8h-17.5v-161H376v9.5c5.1-7.8 12-11.7 20.9-11.7 7.2-.2 14.1 2.7 19 7.9zm-32.3 70.7c8.6 0 14.5-3.1 17.8-9.2 3.3-6.1 5-15.9 5-29.2 0-23.2-4.8-34.7-14.3-34.7-3.1.1-6.2 1.2-8.6 3.1-3.1 2.4-5.7 5.5-7.5 9.1v60.3c2.5.3 5.1.6 7.6.6zm63.7 77c-4.9-6.6-7.3-18.7-7.3-36.1 0-14.1 1.4-26.1 4.1-36.1 2.8-10 6.4-17.5 11-22.6 4.6-5.1 9.7-7.7 15.2-7.7 7.2 0 13.2 4.1 18.1 12.3s7.2 20.2 7.2 36h-38.9c-.3 6.8-.5 12.1-.5 16.1 0 13.3 1.3 23.3 4 30 2.7 6.7 6.4 10 11.1 10 9.2 0 16.1-5.1 20.7-15.4l3.2 1.4c-6 14.7-15.5 22.1-28.5 22.1-7.6.1-14.9-3.6-19.4-10zm34.3-60.7c-.1-11.3-1.1-20.1-2.9-26.5-1.8-6.3-4.3-9.4-7.5-9.4s-6.1 3.2-8.5 9.5c-2.5 6.4-4.3 15.1-5.5 26.3h24.4zm30.7 82.9c3.8-6.8 9.8-14.5 18-23.1l3.2 2.1c-3.7 5-6.7 10.6-8.8 16.5-1.9 5.6-2.9 11.5-2.9 17.4-.2 6.5 1.6 12.9 5.1 18.4 3.4 5.2 8 7.8 14 7.8 3.4 0 6.7-1.4 10.1-4.1 3.7-3.1 6.5-7.1 8.3-11.6 2.2-5.3 3.3-11 3.2-16.7.1-9.1-3.8-17.7-10.7-23.6-7.1-6.4-18.9-11.8-35.3-16.2l6-18.2 6.2 2.1 3.9-10.6c-6.5-.5-12.5-3.6-16.6-8.6-4.3-5.1-6.4-11.9-6.4-20.4 0-11.3 2.8-20.2 8.5-26.6 5.3-6.2 13.2-9.7 21.4-9.5 4.9 0 9.8 1.3 14 3.9 2.5-7 5.7-13.7 9.5-20l11.3 11.3c-6.3 2.9-12 7-16.6 12.2 5.2 5.5 7.8 12.9 7.8 22.1 0 10.9-2.4 19.2-7.1 25.1-4.6 5.8-11.3 9.5-18.6 10.4l-5.3 12.9c13.3 5.4 22.9 11.9 28.8 19.5 5.8 7.7 8.8 15.9 8.8 24.6.1 8.6-1.7 17-5.2 24.8-3.1 7.1-7.9 13.2-14 17.9-5.6 4.3-12.4 6.7-19.4 6.7-8.9 0-15.6-2.3-20-6.8s-6.7-11-6.7-19.4c-.1-6.7 1.7-13.4 5.5-20.3zm38.5-87.5c0-9.3-1.4-17-4.2-23.1-2.8-6.1-6.6-9.1-11.2-9.1-3.5 0-6.2 2.1-8 6.3s-2.7 10.1-2.8 17.6c0 8.9 1.2 16.1 3.7 21.7 2.5 5.6 6.1 8.4 11 8.4 7.7.1 11.5-7.2 11.5-21.8zm32.2 42.3v-77.5h16.3v77.1c0 8.6.8 15.2 2.4 19.8 1.6 4.6 3.9 6.9 7 6.9 2.9 0 5.7-1.9 8.4-5.8 2.7-4 4.9-8.3 6.3-12.9v-85.1h16.3v108.1h-16.3V597c-1.6 4.6-4.3 8.7-7.9 12-3.5 3.1-8.1 4.7-12.8 4.6-13.1 0-19.7-10.9-19.7-32.7zm94.8-140.3v170.9h-16.3V440.6h16.3zm34.6 65.6c4.6-3.4 10.1-5.2 15.8-5.1 6.6 0 11.9 2 15.9 5.9s6 9.5 6 16.9v87.6h-16.4v-13.8c-1.9 4.5-4.8 8.5-8.5 11.7-3.6 2.9-8 4.5-12.7 4.4-5.1 0-9.1-1.7-12-5.1-2.9-3.4-4.4-8.7-4.4-16.1-.1-7.1 1.3-14.2 4.4-20.7 2.5-5.5 6.4-10.3 11.3-13.9 4.2-3.2 9.3-4.9 14.5-5 2.5 0 5 .5 7.4 1.4v-27.6c0-7.2-.6-12.3-1.7-15.4-1.2-3.1-3.1-4.6-5.9-4.6-3.2 0-5.9 2-7.9 6.1-2.1 4.1-3.8 10.6-5.1 19.7l-12.7-10.8c3.4-7 7.5-12.2 12-15.6zm6.8 99.3c2.9 0 5.6-1.4 8.2-4.2 2.8-3.2 4.9-6.9 6.3-10.9v-26.2c-2.8-4.1-6.1-6.2-9.9-6.2-3.7 0-6.7 2.4-9.2 7.1-2.5 4.8-3.7 11.7-3.7 20.9 0 13 2.8 19.5 8.3 19.5zM787 503.4v17.5c4-13 9.7-19.5 17-19.5 3.1-.1 6.1.9 8.5 2.8l-5.3 16.8c-.9-2-2.2-3.8-3.9-5.3-1.3-1.2-3.1-1.8-4.8-1.8-4.4 0-8.3 5-11.5 15v82.8h-16.3V503.4H787z"/><g class="st2"><path class="st1" d="m488.9 402.1-1.9-4.9 5.1-1.4.4 6.3h9.2c.5-2 .9-4.2 1.1-6.3l5.6 1.1c-.7 1.8-1.5 3.5-2.3 5.2h8.4v1.9h-9.4c-.3.6-.8 1.4-1.5 2.5 2 1.6 3.8 3.5 5.2 5.7l-2.6 1.8h7.6v1.9h-17.4V414h8.6c-.4-2.3-1.1-4.5-2-6.6-1.2 1.9-2.5 3.8-4 5.6l-.5-.2c1.1-3 2-5.9 2.7-8.8h-8.6l.5 6.7 2.4.3c-1.3 4.1-3.1 8.1-5.3 11.9 2.2 4 3.4 8.5 3.4 13.1-.1 3.7-.6 7.5-1.6 11.1l-3.8-.6c.3-1.3.4-2.2.5-2.8l-3.2-8.4v19.9h-4.9v-44.8h4.9v1.3h4.4l.1-1.4 2.1.3-2.5-6.6H480v-1.9h8.9zm.2 38.4c.1-1.1.1-2.2.1-3.3.1-4.5-1-8.9-3.1-12.9l2.2-1.1c.5-2.8 1-6 1.3-9.6h-4.2v19.5l3.7 7.4zm4.9 7.9c.6-2.8 1.1-5.6 1.3-8.4.3-3.4.5-8 .5-13.9h4.4v1.2h5.6c1.6-3.4 2.9-7 3.7-10.7l4.1 1.9c-1.8 3.2-4 6.1-6.5 8.8h8v1.9h-14.9c0 4.2-.4 8.5-1.1 12.6-.4 2.5-1.2 5-2.3 7.3-1.3 2.3-2.8 4.6-4.3 6.7l-.8-.5c.9-2.2 1.7-4.5 2.3-6.9zm5.6-31.3c1.1.8 2.2 1.7 3.1 2.8.9.9 1.6 2 2.3 3.1l-3.5 3.3c-.5-3-1.3-5.9-2.4-8.7l.5-.5zm28.6 3.5 5.2 1.9c-2.8 10.9-6.9 21.5-12.3 31.4l-.7-.1c3.7-10.9 6.3-22 7.8-33.2zm-.5-25.2 5.7 1.7c-.5 2-1.2 4.5-2.2 7.2h17.6l.3-2.6 5.6 1.1-7.1 18-.7-.1 1.7-14.5h-18c-2 5.5-4.5 10.8-7.4 15.9l-.7-.1c2.5-8.7 4.2-17.6 5.2-26.6zm13.9 13.6v46.2h-5.4v-3.6l-7-15.1.6-.4 6.3 9.9v-37h5.5zm3.1 11.4c4.6 8.8 8.4 18 11.3 27.5l-5.8 6.1c-1.8-12.4-3.9-23.5-6.2-33.3l.7-.3zm52.4-22.8v57.6h-5.6v-3.8h-22.4v3.8h-5.3v-57.6h5.3v1.3h22.4v-1.3h5.6zm-22.9 3.2h-5.1v15.7c2.3-5 4.1-10.3 5.1-15.7zm4.1 18.4c-1.7-2.4-3.1-4.7-4.4-7-1.5 2-3.1 3.9-4.8 5.8v12.5c3.4-3.5 6.4-7.3 9.2-11.3zm13.2 30.3v-20.7l-2.2 3.6c-3.2-3.3-6.1-6.7-8.9-10.3l-1.9 1.9c2.2 2.4 4 5.1 5.4 7.9l-4 2.6c-.5-3.3-1.3-6.6-2.3-9.7-2.7 2.6-5.5 5-8.5 7.3v17.4h22.4zm-11.6-32.6c1.4-2.2 2.7-4.4 3.8-6.8h-8.3l-1 1.3 5.5 5.5zm-3.7 17.6c3.5 2.9 6.8 6.1 9.7 9.6l-4.8 4.2c-1.3-4.6-3.2-9.1-5.6-13.2l.7-.6zm3.7-32.5c-1 2.1-2 4.2-3.3 6.2h8l1-2.6 5 3.2c-2.3 3.8-5 7.3-7.9 10.6 3 2.7 6 5 8.8 7.1v-25.8h-15.2l3.6 1.3z"/></g><path class="st1" d="M205.4 264c-3.9 0-11.9 0-11.9-.7V258H145v-3.4l48.5-5.4 47.7-4.3c-25-4.6-40.1-10.5-40.1-20.9 0-8.3 15.8-14 30.8-15.5l3.6 2.4c-6.1 2.2-11.2 6.8-11.2 15 0 7.8 8.7 13.8 48.5 19.2v5.1l-67.3 2c8.9 2 11.9 4.3 11.9 11.1-.1.7-8.1.7-12 .7"/><path class="st1" d="M205.4 283.1c-3.9 0-11.9 0-11.9-.7v-5.1H145v-3.4l48.5-5.5v-5.1c0-.7 8-.7 11.9-.7s11.9 0 11.9.7v19.1c0 .7-8 .7-11.9.7"/><path class="st1" d="M120.4 306c12.5-4.4 25.1-8.1 38-11.1l-13.1-4.4 1-1.2 23.5 3.1c7.5-1.7 15.1-3.2 23.7-4.9v-5.1c0-.7 8-.7 11.9-.7s11.9 0 11.9.7v26.7c0 .7-8 .7-11.9.7s-11.9 0-11.9-.7v-16.3c-16.7 4.5-32.9 10.8-48.2 18.9l-24.9-5.7z"/><path class="st1" d="M205.4 328.9c-3.9 0-11.9 0-11.9-.7v-5.1H145v-3.4l48.5-5.5v-5.1c0-.7 8-.7 11.9-.7s11.9 0 11.9.7v19.1c0 .7-8 .7-11.9.7"/><path class="st1" d="M170.3 361.9c-14.6 0-30.6-7-49.9-10 25-8.7 44.8-12.8 73-18.6v-5.1c0-.7 8-.7 11.9-.7s11.9 0 11.9.7v33.5c0 .7-8 .7-11.9.7s-11.9 0-11.9-.7v-22.5c-7.1 1.5-14.2 3.4-21.1 5.8 6.3 1.9 10.9 5.3 10.9 9.9 0 4.4-4.4 7-12.9 7m-4.2-4.1c3.8 0 5.6-1.5 5.6-4.9-.1-2.5-1.1-4.9-2.9-6.6-6.1 2.2-11.9 4.6-17.2 7 4.9 2.6 10.2 4.5 14.5 4.5"/><path class="st1" d="m216.6 409.4-3.1-3.4c24.5-3.7 33.6-9.7 33.6-17 0-8.9-8.9-15.5-29.8-16.2v20.1c-4.1 1.2-9.5 2.2-25.9 2.2-19.8 0-48.2-1.5-48.2-12.2 0-8 16.2-13.5 50.2-14.1v-7c0-.7 8-.7 11.9-.7s11.9 0 11.9.7v7.1c31.2 1.2 50.2 6.6 50.2 21.1.1 11.4-15.7 16.8-50.8 19.4m-23.1-17.9v-17.9c-14.6 1.5-28.1 4.8-28.1 10.6 0 4.4 6.6 6.5 28.1 7.3"/><path class="st0" d="m253.6 459.3-27.4-10.4-20.8.9c8.9 2 11.9 4.3 11.9 11.1 0 .7-8 .7-11.9.7s-11.9 0-11.9-.7v-5.3H145v-3.4l48.5-5.4 21.3-1.9c14.8-1.4 20.8-7 23.7-13.6l20.3 5.6c-3.2 6.3-10 11.1-25.9 11.8h-1.4l34.7 8.5c4.4 24.2 10.9 42.7 21 61.8l-27.9-8.7c-3.4-16.9-5.2-33.9-5.7-51"/><path class="st0" d="M205.4 498.3c-3.9 0-11.9 0-11.9-.7v-5.1c-37.5-1.2-50.2-4.1-50.2-13 0-8 15.3-12.1 50.2-13.6v-5.1c0-.7 8-.7 11.9-.7s11.9 0 11.9.7v36.8c0 .7-8 .7-11.9.7m-11.9-9.2v-17.5c-22.8 1.5-28.1 6.5-28.1 9.7 0 5.1 7.5 6.4 28.1 7.8"/><path class="st0" d="m214.9 555.8-1.4-3.4c29.5-2.2 33.6-8.5 33.6-14 0-7.5-8.5-12.1-32-12.1-27.9 0-42.2 6.5-54 12.6l-16.7-9.7c16.1-3.8 32.5-6.3 49-7.3v-10.3h-48.5v-3.4l48.5-5.5v-5.1c0-.7 8-.7 11.9-.7s11.9 0 11.9.7v24.2c30.8.8 50.2 5.6 50.2 17.9.1 10-13 15.4-52.5 16.1"/><path class="st0" d="m137.1 556.2-2 9.9c-5.8-4.3-13.8-8.3-21.3-11.8l.5-1.7c8 .7 16.2 1.7 22.8 3.6m0 19-2 9.9c-5.8-4.2-13.8-8.3-21.3-11.8l.5-1.7c8.1.7 16.3 1.8 22.8 3.6m68.3 10.8c-3.9 0-11.9 0-11.9-.7v-5.1H145v-3.4l48.5-5.4v-10.3H145v-3.4l48.5-5.5h23.8v33c0 .7-8 .7-11.9.8"/><path class="st0" d="M205.4 622.7c-3.9 0-11.9 0-11.9-.7v-5c-37.5-1.2-50.2-4.1-50.2-12.9 0-8 15.3-12.1 50.2-13.6v-5.1c0-.7 8-.7 11.9-.7s11.9 0 11.9.7v36.8c0 .6-8 .6-11.9.5m-11.9-9.1V596c-22.8 1.5-28.1 6.5-28.1 9.7 0 5.1 7.5 6.5 28.1 7.9"/><path class="st0" d="M169.4 639.6c-2.9 1.4-5.6 2.7-8.3 4.3l-16.7-9.7c16.1-3.6 32.5-6 49-7V622c0-.7 8-.7 11.9-.7s11.9 0 11.9.7v9.2h-22.1c-6.3 1.4-12.4 3.2-18.4 5.5 26.3 3.3 52.4 8 78.1 14.1.6-12.9 2.3-25.8 5.1-38.5l25.4-6.8c-6.5 16-10.9 33.9-11.9 48.5l-18.7 8.9c-21.2-8.8-47.6-16.5-85.3-23.3"/><path class="st1" d="M129.7 735.6h-8.6l-2.6 10.6-1.8-.4 8-32.5-.7-3 3.8-.6 8 36-3.9.6-2.2-10.7zm-.3-1.5-3.8-17.1-4.1 17.2 7.9-.1zm25.3-9.7c-.4-1-.9-1.5-1.6-1.5s-1.2.4-1.8 1.2c-.6.9-1.1 1.8-1.4 2.9v18.9h-3.6v-24h3.6v3.1c.4-1 .9-1.9 1.7-2.6.7-.7 1.7-1 2.7-1 2 0 3.4 1.2 4 3.5.4-1 1.1-1.8 1.9-2.5.8-.7 1.8-1 2.9-1 2.9 0 4.3 2.4 4.3 7.2v17.2h-3.7v-17c0-4-.7-5.9-2.1-5.9-.7.1-1.4.4-1.8 1-.6.7-1 1.4-1.4 2.2.1.9.2 1.7.1 2.6V746h-3.6v-17.1c.5-1.6.3-3-.2-4.5zm17.3 14.7v-17.2h3.6V739c-.1 1.5.1 3 .5 4.4.4 1 .9 1.5 1.6 1.5.8-.1 1.5-.6 1.9-1.3.6-.9 1.1-1.8 1.4-2.9v-18.9h3.6v24H181v-3.2c-.4 1-1 1.9-1.8 2.7-.8.7-1.8 1-2.8 1-2.9.1-4.4-2.3-4.4-7.2zm21.1-31.1v38h-3.6v-38h3.6zm5.2 15.4h-2.1V722h2.1v-7.2h3.6v7.2h3.8v1.4h-3.8v15.8c-.1 1.4.1 2.8.4 4.2.3.9.7 1.3 1.4 1.3s1.6-.7 2.4-2l.6.7c-.4.9-1 1.6-1.7 2.3-.6.5-1.3.8-2.1.8-1.3 0-2.6-.6-3.4-1.6-.9-1.4-1.4-3.1-1.2-4.8v-16.7zm10.9-10.9c.4-.5 1-.7 1.6-.7 1-.1 1.9.5 2 1.5v.5c0 1.9-.7 2.9-2.1 2.9-.6 0-1.1-.2-1.5-.5-.4-.4-.6-1-.5-1.6-.1-.8.1-1.5.5-2.1zm3.3 9.4v24h-3.6v-24h3.6zm11.6 8.5v1.5h-8.2v-1.5h8.2zm9.8 13.8c.6-.6.9-1.5.8-2.3 0-1.7-.9-3.7-2.6-6l-3.1-4.3c-.6-.8-1-1.8-1.4-2.7-.3-.9-.5-1.8-.5-2.7 0-1.3.5-2.5 1.4-3.4 1-.9 2.3-1.3 3.6-1.3.9 0 1.8.2 2.6.5.9.3 1.8.8 2.6 1.4l-2.3 3.5c-.2-1.1-.7-2.1-1.4-3-.5-.6-1.2-1-2-1.1-.6 0-1.1.2-1.5.6-.4.4-.6 1-.6 1.5 0 .9.3 1.7.6 2.5.4 1 1 1.9 1.7 2.7l3.2 4.3c.8 1 1.4 2.1 1.9 3.3.4 1 .6 2 .6 3 .1 1.6-.5 3.1-1.7 4.2-1.1 1-2.5 1.6-3.9 1.5-2.5 0-4.7-1.5-6.5-4.5l2.6-3.3c.9 4.2 2.2 6.3 4.2 6.3.6.1 1.2-.2 1.7-.7zm8-.1c-1.1-1.6-1.7-4.1-1.7-7.6 0-5 .7-8.8 2-11.3s3-3.8 5.1-3.8c2 0 3.7 1.3 5.1 4l-2.7 2.8c-.2-1.5-.5-2.9-1.1-4.2-.4-.8-.9-1.3-1.6-1.3-1 0-1.8 1.1-2.3 3.3-.6 3.1-.9 6.2-.8 9.3-.1 2.4.2 4.7.8 7 .6 1.7 1.5 2.5 2.8 2.5.9 0 1.7-.3 2.4-.9.7-.7 1.3-1.6 1.6-2.6l.8.3c-.4 1.4-1.2 2.6-2.2 3.6-1 .9-2.2 1.3-3.5 1.2-2 .1-3.7-.8-4.7-2.3zm18.2-22.2v3.9c.9-2.9 2.1-4.3 3.8-4.3.7 0 1.4.2 1.9.6l-1.2 3.7c-.2-.5-.5-.9-.9-1.2-.3-.3-.7-.4-1.1-.4-1 0-1.8 1.1-2.5 3.3v18.4h-3.6v-24h3.6zm8.8-9.4c.4-.5 1-.7 1.6-.7 1-.1 1.9.5 2 1.5v.5c0 1.9-.7 2.9-2 2.9-.6 0-1.1-.2-1.5-.5-.4-.4-.6-1-.5-1.6-.1-.8 0-1.5.4-2.1zm3.4 9.4v24h-3.6v-24h3.6zm8.4 0v3.3c.4-1 1-2 1.9-2.7.8-.7 1.9-1 2.9-1 1.5 0 2.8.8 3.5 2.1.8 1.4 1.2 3.8 1.2 7.1.1 3-.3 5.9-1.1 8.8-.5 2-1.5 3.8-2.8 5.3-.9 1-2.3 1.7-3.7 1.7-.7 0-1.4-.1-2-.4v13H277v-37l3.7-.2zm2.5 23.4c.8 0 1.5-.3 2-1 .7-1.3 1.1-2.7 1.1-4.1.3-3 .5-5.9.4-8.9.1-1.9-.2-3.9-.8-5.7-.5-1.3-1.2-1.9-2-1.9-.7.1-1.4.5-1.8 1.1-.6.7-1.1 1.5-1.4 2.4v16.5c.5.9 1.5 1.5 2.5 1.6zm11.6-21.9h-2.1V722h2.1v-7.2h3.6v7.2h3.8v1.4h-3.8v15.8c-.1 1.4.1 2.8.4 4.2.3.9.7 1.3 1.4 1.3s1.6-.7 2.5-2l.6.7c-.4.9-1 1.6-1.7 2.3-.6.5-1.3.8-2.1.8-1.3 0-2.6-.6-3.4-1.6-.9-1.4-1.4-3.1-1.2-4.8v-16.7zm18.7 0h-2.1V722h2.1v-7.2h3.6v7.2h3.9v1.4h-3.8v15.8c-.1 1.4.1 2.8.4 4.2.3.9.7 1.3 1.4 1.3s1.6-.7 2.5-2l.6.7c-.4.9-1 1.6-1.7 2.3-.6.5-1.3.8-2.1.8-1.3 0-2.6-.6-3.3-1.6-.9-1.4-1.4-3.1-1.3-4.8l-.2-16.7z"/><path class="st1" d="m326.1 721.6 3.7 19.4 4.2-19.3 2.1.3-7.1 29.5c-.5 2.8-1.7 5.5-3.3 7.8l-4-3.2c1.7-.8 3.2-2.1 4.3-3.6 1.2-1.7 2.1-3.7 2.5-5.7l.2-.8h-1.5l-4.5-23.6 3.4-.8zm16.7.3v3.3c.4-1 1.1-2 1.9-2.7.8-.7 1.9-1 2.9-1 1.5 0 2.8.8 3.5 2.1.8 1.4 1.2 3.8 1.2 7.1.1 3-.3 5.9-1.1 8.8-.5 2-1.5 3.8-2.8 5.3-.9 1-2.3 1.7-3.7 1.7-.7 0-1.4-.1-2-.4v13h-3.6v-37l3.7-.2zm2.5 23.4c.8 0 1.6-.3 2-1 .7-1.3 1.1-2.7 1.1-4.1.3-3 .5-5.9.4-8.9.1-1.9-.2-3.9-.8-5.7-.5-1.3-1.2-1.9-2-1.9-.7.1-1.4.5-1.8 1.1-.6.7-1.1 1.5-1.4 2.4v16.5c.6.9 1.5 1.5 2.5 1.6zm12.1-1.1c-1.1-1.5-1.6-4.1-1.6-8-.1-2.7.3-5.4.9-8 .4-1.8 1.3-3.5 2.5-5 .8-1 2-1.7 3.4-1.7 1.6 0 2.9.9 4 2.7 1.1 1.8 1.6 4.5 1.6 8h-8.6c-.1 1.5-.1 2.7-.1 3.6-.1 2.3.2 4.5.9 6.7.6 1.5 1.4 2.2 2.5 2.2 2 0 3.6-1.1 4.6-3.4l.7.3c-1.3 3.3-3.4 4.9-6.3 4.9-1.9 0-3.6-.8-4.5-2.3zm7.6-13.4c0-2-.2-4-.6-5.9-.4-1.4-1-2.1-1.7-2.1s-1.3.7-1.9 2.1c-.6 1.9-1.1 3.9-1.2 5.8l5.4.1zm11.5-7.4V746h-3.6v-22.6h-2.4V722h2.4v-6.7c0-5.2 1.7-7.9 5.2-7.9 1 0 2 .2 2.9.5.8.3 1.5.8 2.1 1.4l-1.8 3.4c-.3-1.1-.8-2.2-1.5-3.1-.3-.5-.9-.9-1.6-.9-.5 0-.9.4-1.2 1.1-.4 1.1-.5 2.2-.5 3.4v8.8h3.6v1.4h-3.6zm9.1-.9c1-.7 2.2-1.1 3.5-1.1 1.3-.1 2.6.4 3.5 1.3.9 1 1.4 2.4 1.3 3.8V746h-3.6v-3.1c-.4 1-1.1 1.9-1.9 2.6-.8.7-1.8 1-2.8 1-1 0-2-.4-2.7-1.1-.7-1-1.1-2.3-1-3.6 0-1.6.3-3.2 1-4.6.6-1.2 1.4-2.3 2.5-3.1.9-.7 2.1-1.1 3.2-1.1.6 0 1.1.1 1.6.3v-6.1c.1-1.2-.1-2.3-.4-3.4-.2-.6-.7-1-1.3-1-.8.1-1.5.6-1.8 1.4-.6 1.4-1 2.9-1.1 4.4L383 726c.6-1.3 1.5-2.5 2.6-3.5zm1.6 22.1c.7 0 1.4-.4 1.8-1 .6-.7 1.1-1.5 1.4-2.4v-5.8c-.4-.8-1.3-1.3-2.2-1.4-.8 0-1.5.5-2 1.6-.6 1.5-.9 3.1-.8 4.7-.1 2.9.5 4.3 1.8 4.3zm12.4-.5c-1.1-1.6-1.7-4.1-1.7-7.6 0-5 .7-8.8 2-11.3s3-3.8 5.1-3.8 3.7 1.3 5.1 4l-2.7 2.8c-.1-1.5-.5-2.9-1-4.3-.4-.8-.9-1.3-1.6-1.3-1 0-1.8 1.1-2.3 3.3-.6 3.1-.9 6.2-.8 9.3-.1 2.4.2 4.7.8 7 .6 1.7 1.5 2.5 2.8 2.5.9 0 1.7-.3 2.4-.9.7-.7 1.3-1.6 1.6-2.6l.8.3c-.4 1.4-1.2 2.6-2.2 3.7-1 .9-2.2 1.3-3.5 1.2-2 .1-3.8-.8-4.8-2.3zm15.4.1c-1.1-1.5-1.6-4.1-1.6-8-.1-2.7.3-5.4.9-8 .4-1.8 1.3-3.5 2.5-5 .8-1 2-1.7 3.4-1.7 1.6 0 2.9.9 4 2.7 1.1 1.8 1.6 4.5 1.6 8h-8.6c-.1 1.5-.1 2.7-.1 3.6-.1 2.3.2 4.5.9 6.7.6 1.5 1.4 2.2 2.5 2.2 2.1 0 3.6-1.1 4.6-3.4l.7.3c-1.3 3.3-3.4 4.9-6.3 4.9-1.9 0-3.5-.8-4.5-2.3zm7.6-13.4c0-2-.2-4-.6-5.9-.4-1.4-.9-2.1-1.7-2.1s-1.3.7-1.9 2.1c-.6 1.9-1.1 3.9-1.2 5.8l5.4.1zm19.3-7.4V746h-3.6v-22.6h-2.4V722h2.4v-6.7c0-5.2 1.7-7.9 5.2-7.9 1 0 2 .2 2.9.5.8.3 1.5.8 2.1 1.4l-1.8 3.4c-.3-1.1-.8-2.2-1.5-3.1-.3-.5-.9-.9-1.6-.9-.5 0-.9.4-1.2 1.1-.4 1.1-.5 2.2-.5 3.4v8.8h3.6v1.4h-3.6zm6.9 19.8c-1.3-2.1-1.9-5.3-1.9-9.6 0-4 .7-7 2-9.1 1.1-1.9 3.1-3.1 5.3-3.1 2 0 3.8 1 4.8 2.7 1.2 1.8 1.8 4.7 1.8 8.7 0 5-.6 8.5-1.9 10.5-1.4 2.7-4.8 3.8-7.6 2.4-1.1-.5-1.9-1.4-2.5-2.5zm5.7 1.7c.9 0 1.7-.5 2.1-1.3.6-1.5.8-3.2.7-4.8.1-3.9-.2-7.8-.8-11.6-.6-2.8-1.5-4.2-2.9-4.2-1-.1-1.9.5-2.4 1.3-.6 1.4-.8 2.9-.7 4.4-.1 10.8 1.3 16.2 4 16.2zm14-23v3.9c.9-2.9 2.1-4.3 3.8-4.3.7 0 1.4.2 1.9.6l-1.1 3.7c-.2-.5-.5-.9-.9-1.2-.3-.3-.7-.4-1.1-.4-1 0-1.8 1.1-2.5 3.3v18.4H465v-24h3.5zm16.7-11.7h3.9v2.7c.7-1 1.5-1.8 2.6-2.4.9-.5 2-.8 3-.7 2.1 0 4.1 1.1 5.3 2.8 1.4 1.9 2.1 5.2 2.1 10 .1 4.4-.4 8.9-1.5 13.2-.7 3-2 5.8-4 8.2-1.3 1.6-3.3 2.6-5.4 2.7-.9 0-1.9-.2-2.8-.5h-3.2v-36zm7 34.9c1.7 0 3-1.9 4-5.6s1.5-9 1.5-15.7c0-8.2-1.5-12.3-4.5-12.3-.8 0-1.5.3-2.1.7-.8.6-1.5 1.3-2 2v28.7c.9 1.5 2 2.2 3.1 2.2zm17.1-22.6c1-.8 2.2-1.1 3.5-1.1 1.3-.1 2.6.4 3.5 1.3.9 1 1.4 2.4 1.3 3.8V746H514v-3.1c-.4 1-1.1 1.9-1.9 2.6-.8.7-1.8 1-2.8 1-1 0-2-.4-2.6-1.1-.7-1-1.1-2.3-1-3.6 0-1.6.3-3.2 1-4.6.6-1.2 1.4-2.3 2.5-3.1.9-.7 2.1-1.1 3.2-1.1.6 0 1.1.1 1.6.3v-6.1c.1-1.2-.1-2.3-.4-3.4-.2-.6-.7-1-1.3-1-.8.1-1.5.6-1.8 1.4-.6 1.4-1 2.9-1.1 4.4l-2.8-2.4c.6-1.5 1.5-2.7 2.7-3.7zm1.5 22.1c.7 0 1.4-.4 1.8-1 .6-.7 1.1-1.5 1.4-2.4v-5.8c-.4-.8-1.3-1.3-2.2-1.4-.8 0-1.5.5-2 1.6-.6 1.5-.9 3.1-.8 4.7-.1 2.9.5 4.3 1.8 4.3zm20.2 14.3v-16.3c-.4 1.1-1 2-1.9 2.8-.8.7-1.8 1.1-2.9 1.1-1.5 0-2.8-.8-3.5-2.1-.8-1.4-1.2-3.8-1.2-7.1-.1-3 .3-5.9 1.1-8.8.5-2 1.4-3.8 2.8-5.3.9-1 2.3-1.7 3.7-1.7.7 0 1.4.2 2.1.5h3.5v37l-3.7-.1zm-5.2-16.6c.5 1.3 1.2 1.9 2 1.9.7-.1 1.3-.5 1.7-1.1.6-.7 1.1-1.6 1.5-2.5v-16.4c-.3-.5-.6-1-1.1-1.3-.4-.3-.9-.4-1.4-.4-.8 0-1.5.3-1.9 1-.6 1.3-1 2.7-1.1 4.1-.3 3-.5 5.9-.4 8.9-.2 2 .1 4 .7 5.8zm13.9-29.8c.4-.5 1-.7 1.6-.7 1-.1 1.9.5 2 1.5v.5c0 1.9-.7 2.9-2 2.9-.6 0-1.1-.2-1.5-.5-.4-.4-.6-1-.5-1.6-.2-.8 0-1.5.4-2.1zm3.3 9.4v24h-3.6v-24h3.6zm13.2 2.5c-.4-1-.9-1.6-1.5-1.6-.8.1-1.5.6-1.8 1.3-.6.9-1.1 1.9-1.4 2.9v18.9h-3.6v-24h3.6v3.1c.4-1 1-1.9 1.8-2.6.8-.7 1.8-1 2.8-1 2.8 0 4.2 2.4 4.2 7.3v17.2h-3.6v-17.1c.1-1.5-.1-3-.5-4.4zm8.3 24.8c1.1-1.9 2.5-3.6 4-5.1l.7.5c-.8 1.1-1.5 2.3-2 3.7-.4 1.2-.6 2.5-.6 3.9s.4 2.9 1.1 4.1c.6 1.1 1.8 1.8 3.1 1.7.8 0 1.6-.4 2.2-.9.8-.7 1.4-1.6 1.8-2.6.5-1.2.7-2.4.7-3.7 0-2-.8-3.9-2.4-5.2-1.6-1.4-4.2-2.6-7.8-3.6l1.3-4 1.4.5.9-2.3c-1.4-.1-2.8-.8-3.7-1.9-1-1.3-1.5-2.9-1.4-4.5-.1-2.1.5-4.2 1.9-5.9 1.2-1.4 2.9-2.2 4.8-2.1 1.1 0 2.2.3 3.1.9.6-1.5 1.3-3 2.1-4.5l2.5 2.5c-1.4.6-2.7 1.6-3.7 2.7 1.2 1.3 1.8 3.1 1.7 4.9.1 2-.4 3.9-1.6 5.6-1 1.3-2.5 2.1-4.1 2.3l-1.2 2.9c2.5.9 4.7 2.4 6.4 4.3 1.2 1.6 1.9 3.5 1.9 5.5 0 1.9-.4 3.8-1.2 5.5-.7 1.6-1.8 3-3.1 4-1.2 1-2.7 1.5-4.3 1.5-2.9.4-5.5-1.6-5.9-4.5-.1-.5-.1-.9 0-1.4.2-1.9.6-3.4 1.4-4.8zm8.6-19.5c.1-1.8-.3-3.5-.9-5.1-.6-1.3-1.5-2-2.5-2-.8.1-1.5.6-1.8 1.4-.5 1.2-.7 2.6-.6 3.9-.1 1.6.2 3.3.8 4.8.3 1.1 1.3 1.8 2.5 1.9 1.6 0 2.5-1.6 2.5-4.9zm7 14.5c-.1-.8.2-1.6.6-2.2.4-.5 1-.8 1.7-.8.6 0 1.2.2 1.6.7.4.7.6 1.5.5 2.3 0 1.5-.3 3-1 4.4-.6 1.3-1.4 2.6-2.4 3.6l-.4-.2c1.2-1.6 1.9-3.6 1.9-5.7-1.7.2-2.5-.6-2.5-2.1zm28.8.4c-1.1 1.2-2.6 1.8-4.3 1.9-1.6-.1-3.2-.8-4.2-2.1-1.6-1.9-2.6-4.1-3.1-6.5-.9-3.7-1.3-7.4-1.2-11.2 0-5.8.9-10.1 2.6-12.8 1.7-2.8 4-4.2 6.9-4.2 1.2 0 2.3.2 3.4.7 1.1.4 2.1 1.1 2.9 2l-2.1 3.8c-.3-1.4-1-2.7-2.1-3.7-.8-.8-1.9-1.2-3-1.3-1.1 0-2.1.5-2.7 1.4-.8 1.3-1.2 2.7-1.3 4.2-.3 2.6-.4 5.1-.4 7.7 0 7.3.4 12.5 1.3 15.4s2.2 4.4 3.9 4.4c1.2-.1 2.2-.6 3-1.5 1.2-1.3 2.1-2.8 2.7-4.4l.7.2c-.5 2.4-1.5 4.3-3 6zm15-20.2c-.4-1-.9-1.5-1.5-1.5s-1.3.5-1.9 1.4c-.6 1-1.1 2-1.4 3.2V746h-3.6v-38h3.6v17.4c.3-1.1 1-2.1 1.8-2.9.8-.7 1.8-1.1 2.9-1.1 2.8 0 4.2 2.4 4.2 7.2v17.2h-3.6v-17.1c.1-1.4-.1-2.8-.5-4.3zm9.1-11.9c.4-.5 1-.7 1.6-.7 1-.1 1.9.5 2 1.5v.5c0 1.9-.7 2.9-2 2.9-.6 0-1.1-.2-1.5-.5-.4-.4-.6-1-.5-1.6-.2-.8 0-1.5.4-2.1zm3.3 9.4v24h-3.6v-24h3.6zm13.2 2.5c-.4-1-.9-1.6-1.5-1.6-.8.1-1.5.6-1.8 1.3-.6.9-1.1 1.9-1.4 2.9v18.9h-3.6v-24h3.6v3.1c.4-1 1-1.9 1.8-2.6.8-.7 1.8-1 2.8-1 2.8 0 4.2 2.4 4.2 7.3v17.2H650v-17.1c.1-1.5-.1-3-.5-4.4zm11.6-1.9c1-.7 2.2-1.1 3.5-1.1 1.3-.1 2.6.4 3.5 1.3.9 1 1.4 2.4 1.3 3.8V746h-3.6v-3.1c-.4 1-1.1 1.9-1.9 2.6-.8.7-1.8 1-2.8 1-1 0-2-.4-2.7-1.1-.7-1-1.1-2.3-1-3.6 0-1.6.3-3.2 1-4.6.6-1.2 1.4-2.3 2.5-3.1.9-.7 2.1-1.1 3.2-1.1.6 0 1.1.1 1.6.3v-6.1c.1-1.2-.1-2.3-.4-3.4-.2-.6-.7-1-1.3-1-.8.1-1.5.6-1.8 1.4-.6 1.4-1 2.9-1.2 4.4l-2.8-2.4c.8-1.5 1.7-2.7 2.9-3.7zm1.5 22.1c.7 0 1.4-.4 1.8-1 .6-.7 1.1-1.5 1.4-2.4v-5.8c-.4-.8-1.3-1.3-2.2-1.4-.8 0-1.5.5-2 1.6-.6 1.5-.9 3.1-.8 4.7-.1 2.9.5 4.3 1.8 4.3z"/><g class="st2"><path class="st0" d="M938.3 710.2h3.9v2.7c.7-1 1.5-1.8 2.5-2.4.9-.5 2-.8 3-.7 2.1 0 4.1 1.1 5.3 2.8 1.4 1.9 2.1 5.2 2.1 10 .1 4.4-.4 8.9-1.5 13.2-.7 3-2.1 5.8-4 8.2-1.3 1.6-3.3 2.6-5.4 2.7-.9 0-1.9-.2-2.8-.5h-3.2l.1-36zm7 34.9c1.7 0 3-1.9 4-5.6s1.5-9 1.5-15.7c0-8.2-1.5-12.3-4.5-12.3-.8 0-1.5.3-2.2.7-.8.6-1.5 1.3-2 2v28.7c1 1.5 2.1 2.2 3.2 2.2zm15.1-.9c-1.1-1.5-1.6-4.1-1.6-8 0-2.7.3-5.4.9-8 .4-1.8 1.3-3.5 2.5-5 .8-1 2-1.7 3.4-1.7 1.6 0 2.9.9 4 2.7 1.1 1.8 1.6 4.5 1.6 8h-8.6c-.1 1.5-.1 2.7-.1 3.6-.1 2.3.2 4.5.9 6.7.6 1.5 1.4 2.2 2.5 2.2 2 0 3.6-1.1 4.6-3.4l.7.3c-1.3 3.3-3.4 4.9-6.3 4.9-1.9 0-3.5-.8-4.5-2.3zm7.6-13.4c0-2-.2-4-.6-5.9-.4-1.4-1-2.1-1.7-2.1s-1.3.7-1.9 2.1c-.7 1.9-1.1 3.9-1.2 5.8l5.4.1zm13.6 13.4c.6-.6.9-1.5.8-2.3 0-1.7-.9-3.7-2.6-6l-3.1-4.2c-.6-.8-1-1.8-1.3-2.7-.3-.9-.5-1.8-.5-2.7 0-1.3.5-2.5 1.4-3.4 1-.9 2.3-1.3 3.6-1.3.9 0 1.8.2 2.7.5.9.3 1.8.8 2.6 1.4l-2.3 3.5c-.2-1.1-.7-2.1-1.4-3-.5-.6-1.2-1-2-1.1-.6 0-1.1.2-1.5.6-.4.4-.6 1-.6 1.5 0 .9.3 1.7.6 2.5.4 1 1 1.9 1.7 2.7l3.2 4.3c.8 1 1.4 2.1 1.9 3.3.4 1 .6 2 .6 3 .2 3-2.1 5.6-5.2 5.8h-.4c-2.5 0-4.7-1.5-6.5-4.5l2.6-3.3c.8 4.2 2.2 6.3 4.2 6.3.4-.1 1-.4 1.5-.9zm7.3-31.7c.4-.5 1-.7 1.6-.7 1-.1 1.9.5 2 1.5v.5c0 1.9-.7 2.9-2 2.9-.6 0-1.1-.2-1.5-.5-.4-.4-.6-1-.5-1.6-.2-.8 0-1.5.4-2.1zm3.3 9.4v24h-3.6v-24h3.6zm4.4 27.3c1.1-1.9 2.4-3.6 4-5.1l.7.5c-.8 1.1-1.5 2.3-2 3.7-.4 1.2-.6 2.5-.6 3.8 0 1.4.4 2.9 1.1 4.1.6 1.1 1.8 1.8 3.1 1.7.8 0 1.6-.4 2.2-.9.8-.7 1.4-1.6 1.8-2.6.5-1.2.7-2.4.7-3.7 0-2-.8-3.9-2.4-5.2-1.6-1.4-4.2-2.6-7.8-3.6l1.3-4 1.4.5.9-2.3c-1.4-.1-2.8-.8-3.7-1.9-1-1.3-1.5-2.9-1.4-4.5-.1-2.1.5-4.2 1.9-5.9 1.2-1.4 2.9-2.2 4.8-2.1 1.1 0 2.2.3 3.1.9.6-1.5 1.3-3 2.1-4.5l2.5 2.5c-1.4.6-2.7 1.6-3.7 2.7 1.2 1.3 1.8 3.1 1.7 4.9.1 2-.4 3.9-1.6 5.6-1 1.3-2.5 2.1-4.1 2.3l-1.2 2.9c2.5.9 4.7 2.4 6.4 4.3 1.2 1.6 1.9 3.5 1.9 5.5 0 1.9-.4 3.8-1.2 5.5-.7 1.6-1.8 3-3.1 4-1.2 1-2.8 1.5-4.3 1.5-2.9.4-5.5-1.6-5.9-4.5-.1-.4-.1-.9 0-1.3.2-1.9.6-3.4 1.4-4.8zm8.6-19.5c.1-1.8-.3-3.5-.9-5.1-.6-1.3-1.5-2-2.5-2-.8.1-1.5.6-1.8 1.4-.5 1.2-.7 2.6-.6 3.9-.1 1.6.2 3.3.8 4.8.3 1.1 1.3 1.8 2.5 1.9 1.6 0 2.5-1.6 2.5-4.9zm15.7-5.3c-.4-1-.9-1.6-1.5-1.6-.8.1-1.5.6-1.8 1.3-.6.9-1.1 1.9-1.4 2.9v18.9h-3.6v-24h3.6v3.1c.4-1 1-1.9 1.8-2.6.8-.7 1.8-1 2.8-1 2.8 0 4.2 2.4 4.2 7.3v17.2h-3.6v-17.1c.1-1.5-.1-3-.5-4.4zm9.6 19.8c-1.1-1.5-1.6-4.1-1.6-8 0-2.7.3-5.4.9-8 .4-1.8 1.3-3.5 2.4-5 .8-1 2-1.7 3.4-1.7 1.6 0 2.9.9 4 2.7 1.1 1.8 1.6 4.5 1.6 8h-8.6c-.1 1.5-.1 2.7-.1 3.6-.1 2.3.2 4.5.9 6.7.6 1.5 1.4 2.2 2.5 2.2 2 0 3.6-1.1 4.6-3.4l.7.3c-1.3 3.3-3.4 4.9-6.3 4.9-1.8 0-3.4-.8-4.4-2.3zm7.6-13.4c0-2-.2-4-.6-5.9-.4-1.4-1-2.1-1.7-2.1s-1.3.7-1.9 2.1c-.7 1.9-1.1 3.9-1.2 5.8l5.4.1zm16.1 15.1v-3.3c-.4 1.1-1.1 2-1.9 2.8-.8.7-1.8 1.1-2.9 1.1-1.5 0-2.8-.8-3.5-2.1-.8-1.4-1.3-3.8-1.3-7.1-.1-3 .3-5.9 1.1-8.8.5-2 1.4-3.8 2.8-5.3 1.4-1.7 3.7-2.2 5.7-1.2v-14h3.6v38.1h-3.6zm-3.6-.9c.8-.1 1.6-.6 2-1.3.7-.9 1.2-1.9 1.6-3v-16.4c-.3-.5-.7-1-1.2-1.3-.4-.3-.9-.4-1.4-.4-.8 0-1.5.4-1.9 1-.7 1.3-1 2.7-1.1 4.1-.3 3-.5 6-.4 8.9-.1 5.6.8 8.4 2.4 8.4zm23.2-37.1v17.3c.4-1.1 1-2 1.9-2.7.8-.7 1.9-1 2.9-1 3.2 0 4.8 3.1 4.8 9.2.1 3-.3 5.9-1.1 8.8-.5 2-1.5 3.8-2.8 5.3-.9 1-2.3 1.7-3.7 1.7-.7 0-1.5-.2-2.1-.5h-3.5v-38.1h3.6zm2.5 37.4c.8 0 1.6-.3 2-1 .7-1.3 1.1-2.7 1.2-4.1.3-3 .5-5.9.4-8.9 0-5.6-.9-8.4-2.6-8.4-.8.1-1.6.6-2 1.3-.7.9-1.2 1.9-1.5 2.9v16.5c.5 1 1.5 1.7 2.5 1.7zm13.2-23.7 3.7 19.4 4.2-19.3 2.1.3-7.1 29.5c-.5 2.8-1.6 5.5-3.3 7.8l-4-3.2c1.7-.8 3.2-2.1 4.3-3.6 1.2-1.7 2.1-3.7 2.5-5.7l.2-.8h-1.5l-4.5-23.6 3.4-.8zm19.3 8.3c0-5.5 1.5-12 4.4-19.5l3.4-.7 4.7 29.1 2.8-12.9-.8-3.5 3.4-.7 3.4 16.9 3.1-20c-4.4-.1-6.6-1.6-6.6-4.3 0-1.3.5-2.6 1.6-3.5 1-.9 2.3-1.4 3.7-1.3 1 0 2 .3 2.8 1 .7.6 1.1 1.6 1.1 2.5 0 .3 0 .6-.1.9l-.2 1.1h9v3.6h-9.6l-4.5 27.4h-1.8l-3.6-16.3-3.7 16.3h-1.8l-5.9-33.2c-1.2 4-1.9 8.1-2 12.2 0 4 1 6.6 3 8l-2.6 7.5c-2.1-2.4-3.2-5.9-3.2-10.6zm21-15.3c1.3.3 2.7.5 4 .4l.2-1.2c.1-.3.1-.7.1-1 0-1.6-.8-2.4-2.2-2.4-.9 0-1.7.3-2.3.8-.6.4-1 1.1-1 1.8-.1.8.3 1.3 1.2 1.6zm17-6.6h3.6v31c0 1.5.1 3 .4 4.5.2 1 .7 1.5 1.3 1.5.7-.1 1.3-.4 1.7-1 .6-.7 1.2-1.5 1.6-2.4-.1-1-.1-1.8-.1-2.5V708h3.6v31c0 1.5.1 3 .4 4.4.3 1 .7 1.5 1.2 1.5.7-.1 1.3-.4 1.7-1 .6-.7 1.2-1.5 1.6-2.3-.1-1-.1-1.8-.1-2.5v-17.2h3.6V739c0 1.5.1 3 .4 4.5.2 1 .7 1.5 1.3 1.5.6-.1 1.2-.4 1.6-.9.6-.7 1.1-1.4 1.5-2.2-.5-2.1-.8-4.2-.7-6.3-.1-2.6.2-5.3.8-7.9.4-1.7 1.1-3.3 2.2-4.7.8-.9 1.9-1.5 3.1-1.5.9 0 1.7.4 2.2 1.1.6.9.9 1.9.8 2.9-.1 2.2-.5 4.4-1.4 6.4-1.1 2.7-2.4 5.2-4 7.7.3 3.4 1.2 5.1 2.5 5.1.9-.1 1.7-.4 2.4-.9 1.1-.7 2.1-1.6 2.9-2.5l.5.4c-1 1.3-2.2 2.5-3.5 3.6-.9.8-2 1.2-3.2 1.2-2 0-3.4-1.2-4.3-3.5-.4 1-1.1 1.9-2 2.5-.8.6-1.8 1-2.9 1-1.9 0-3.1-1.2-3.6-3.5-.4 1-1.1 1.9-2 2.5-.8.6-1.8 1-2.8 1-.8 0-1.7-.3-2.3-.8-.7-.7-1.1-1.7-1.3-2.7-.5 1-1.1 1.9-2 2.5-.8.6-1.8 1-2.9 1-1.9 0-3.1-1.2-3.6-3.5-.4 1-1.1 1.9-2 2.5-.8.6-1.8 1-2.8 1-1.2 0-2.3-.6-2.9-1.7-.7-1.1-1-3-1-5.7v-17.4h3.7V739c0 1.5.1 3 .4 4.4.2 1 .7 1.5 1.2 1.5.7-.1 1.3-.4 1.7-1 .6-.7 1.2-1.5 1.6-2.3-.1-1-.1-1.8-.1-2.5V708zm14.4 7h4.9c2.1.1 4.1-.4 6-1.3 1.8-1 3.4-2.3 4.7-4l.7.4c-1.5 2.4-3.4 4.4-5.6 6.1-1.9 1.5-4.2 2.3-6.5 2.4h-4.1l-.1-3.6zm13.8 23c2.9-4.9 4.4-9 4.4-12.3 0-.7-.1-1.5-.4-2.2-.2-.5-.7-.8-1.2-.8-.8 0-1.4 1.1-2 3.2-.6 2.9-.9 5.8-.8 8.8v3.3z"/></g></svg>