<svg xmlns="http://www.w3.org/2000/svg" viewBox="0 0 1280 960"><path d="M329.5 313.9h3.8v3.8h-11.4v-3.8h3.8v-19h-3.8v-3.8h11.4v3.8h-3.8v19zm18.9-11.4h3.8v11.4h-3.8v-11.4zm3.8-3.8h7.6v3.8h-7.6v-3.8zm7.6 19h-7.6v-3.8h7.6v3.8zm3.8-15.1v3.8h-3.8v-3.8h3.8zm-3.8 7.5h3.8v3.8h-3.8v-3.8zm7.6 3.8v-3.8h3.8v3.8h-3.8zm3.8-15.2h7.6v3.8h-7.6v-3.8zm7.6 7.6v-3.8h3.8v15.2h-11.4v-3.8h7.6v-3.8h-7.6v-3.8h7.6zm18.9-7.6v3.8h-7.6v15.2h-3.8v-19h11.4zm0 3.8h3.8v15.2h-3.8v-15.2zm30.3 3.8v-3.8h3.8v7.6h-11.3v3.8h-3.8v-11.4h3.8v3.8h7.5zm0-7.6v3.8h-7.6v-3.8h7.6zm-7.6 19v-3.8h11.4v3.8h-11.4zm15.2-3.8v-3.8h3.8v3.8h-3.8zm3.8-15.2h7.6v3.8h-7.6v-3.8zm7.6 7.6v-3.8h3.8v15.2h-11.4v-3.8h7.6v-3.8h-7.6v-3.8h7.6zm15.2-3.8v11.4h-3.8v-11.4h-3.8v-3.8h3.8v-7.6h3.8v7.6h7.6v3.8h-7.6zm7.5 15.2h-7.6v-3.8h7.6v3.8zm19-15.2v11.4h-3.8v-11.4h3.8zm-3.8 19h11.4v3.8h-11.4v-3.8zm15.2-22.7v22.8h-3.8v-3.8h-7.6V314h7.6v-11.4h-7.6v-3.8h11.4zm3.8-11.4h3.8v30.3h-3.8v-30.3zm7.5 26.5v-3.8h3.8v3.8h-3.8zm3.8-15.2h7.6v3.8h-7.6v-3.8zm7.6 7.6v-3.8h3.8v15.2h-11.4v-3.8h7.6v-3.8h-7.6v-3.8h7.6zm7.6 0v-3.8h3.8v3.8h-3.8zm0 7.6h11.4v3.8h-11.4v-3.8zm11.4-15.2v3.8h-7.6v-3.8h7.6zm-7.6 7.6h7.6v3.8h-7.6v-3.8zm7.6 7.6v-3.8h3.8v3.8h-3.8zm7.6-7.6v-3.8h3.8v3.8h-3.8zm0 7.6h11.4v3.8h-11.4v-3.8zm11.3-15.2v3.8h-7.6v-3.8h7.6zm-7.6 7.6h7.6v3.8h-7.6v-3.8zm7.6 7.6v-3.8h3.8v3.8h-3.8zm19 0v-3.8h3.8v3.8h-3.8zm3.8-15.2h7.6v3.8h-7.6v-3.8zm7.6 7.6v-3.8h3.8v15.2h-11.4v-3.8h7.6v-3.8h-7.6v-3.8h7.6zm18.9-7.6v3.8h-7.6v15.2h-3.8v-19H610zm0 3.8h3.8v15.2H610v-15.2zm11.4 0v11.4h-3.8v-11.4h3.8zm7.6-15.1h3.8v30.3h-11.4v-3.8h7.6v-11.4h-7.6v-3.8h7.6v-11.3zm22.7 3.7v3.8h-3.8v-3.8h3.8zm-3.8 7.6h3.8v19h-3.8v-19zm15.2 3.8v11.4h-3.8v-11.4h-3.8v-3.8h3.8v-7.6h3.8v7.6h7.6v3.8h-7.6zm7.6 15.2h-7.6v-3.8h7.6v3.8zm18.9-15.2v11.4h-3.8v-11.4h3.8zm7.6-15.1h3.8v30.3h-11.4v-3.8h7.6v-11.4h-7.6v-3.8h7.6v-11.3zm11.4 15.1v11.4h-3.8v-11.4h3.8zm7.6-3.8v3.8h-7.6v-3.8h7.6zm-7.6 19v-3.8h7.6v3.8h-7.6zm7.6-15.1h3.8v11.3h-3.8v-11.3zm18.9 3.7v-3.8h3.8v7.6h-11.4v3.8h-3.8v-11.4h3.8v3.8h7.6zm0-7.6v3.8h-7.6v-3.8h7.6zm-7.6 19v-3.8h11.4v3.8h-11.4zm15.2-11.4v-3.8h3.8v3.8h-3.8zm0 7.6h11.4v3.8h-11.4v-3.8zm11.4-15.2v3.8h-7.6v-3.8h7.6zm-7.6 7.6h7.6v3.8h-7.6v-3.8zm7.6 7.6v-3.8h3.8v3.8h-3.8zm18.9-15.2v3.8h-7.6v15.2h-3.8v-19H773zm0 3.8h3.8v15.2H773v-15.2zm30.4 0v11.4h-3.8v-11.4h-3.8v-3.8h3.8v-7.6h3.8v7.6h7.6v3.8h-7.6zm7.6 15.2h-7.6v-3.8h7.6v3.8zm18.9-19h7.6v3.8h-7.6v15.2h-3.8v-30.3h3.8v11.3zm7.6 3.8h3.8v15.2h-3.8v-15.2zm11.4 11.4h-3.8v-15.2h3.8v15.2zm7.6-15.2h3.8v19h-11.4v-3.8h7.6v-15.2zm7.5 3.8h3.8v15.2H864v-15.2zm3.8-3.8h7.6v3.8h-7.6v-3.8zm19 3.8v11.4H883v-11.4h-3.8v-3.8h3.8v-7.6h3.8v7.6h7.6v3.8h-7.6zm7.6 15.2h-7.6v-3.8h7.6v3.8zm26.5-19v3.8h-7.6v15.2h-3.8v-19h11.4zm0 3.8h3.8v15.2h-3.8v-15.2zm3.8-3.8h7.6v3.8h-7.6v-3.8zm7.6 3.8h3.8v15.2h-3.8v-15.2zm18.9 3.8v-3.8h3.8v7.6h-11.4v3.8h-3.8v-11.4h3.8v3.8h7.6zm0-7.6v3.8h-7.6v-3.8h7.6zm-7.6 19v-3.8H955v3.8h-11.4zm19-3.8v3.8h-3.8v-3.8h3.8zm-801.4 24.6v3.8h3.8v3.8h-3.8v19h-3.8v-26.6h3.8zm3.8 7.6h3.8v7.6H165v-7.6zm3.8 15.2v-7.6h3.8v7.6h-3.8zm3.8-7.6v-7.6h3.8v7.6h-3.8zm7.6-11.4v-3.8h3.8V365h-3.8v-19h-3.8v-3.8l3.8.1zm22.7 7.6v11.4h-3.8v-11.4h-3.8v15.2h-3.8v-15.2h-3.8v-3.8h19v3.8h-3.8zm3.8 11.4v3.8h-3.8v-3.8h3.8zm7.6-11.4v11.4h-3.8v-11.4h3.8zm7.6-3.8v3.8h-7.6v-3.8h7.6zm-7.6 19v-3.8h7.6v3.8h-7.6zm7.6-15.2h3.8v11.4h-3.8v-11.4zm11.4 11.4h7.6v3.8h-7.6v7.6h-3.8v-22.8h3.8v11.4zm7.5-15.2v3.8h-7.6v-3.8h7.6zm0 3.8h3.8v11.4h-3.8v-11.4zm11.4 0v11.4h-3.8v-11.4h3.8zm0-3.8h3.8v3.8h-3.8v-3.8zm0 19v-3.8h7.6v3.8h-7.6zm11.4-26.5v3.8h-3.8v-3.8h3.8zm-3.8 15.1h3.8v7.6h-3.8v-7.6zm7.6-18.9v3.8h-3.8v-3.8h3.8zm-3.8 30.3v-3.8h7.6v3.8h-7.6zm3.8-15.2v-3.8h3.8v3.8h-3.8zm3.8 0h3.8v11.4h-3.8v-11.4zm22.7 11.4h-3.8v-15.2h3.8v15.2zm3.8 3.8h-3.8v-3.8h3.8v3.8zm3.8-3.8h-3.8v-3.8h3.8v3.8zm0-15.2h3.8v11.4h-3.8v-11.4zm11.4 3.8v11.4h-3.8v-11.4h3.8zm7.6-3.8v3.8h-7.6v-3.8h7.6zm-7.6 19v-3.8h7.6v3.8h-7.6zm11.3-15.2v11.4h-3.8v-11.4h3.8zm0-3.7h3.8v3.8h-3.8v-3.8zm3.8 15.1v3.8h-3.8v-3.8h3.8zm19 0h-3.8v-15.2h3.8v15.2zm7.6 0h3.8v3.8h-3.8v7.6h-3.8v-7.6H347v-3.8h3.8v-11.4h3.8v11.4zm0-15.2h3.8v3.8h-3.8v-3.8zm3.8 3.8h3.8v11.4h-3.8v-11.4zm11.4 0v11.4H366v-11.4h3.8zm3.7-11.4v3.8h-3.8v-3.8h3.8zm3.8 7.6v3.8h-7.6v-3.8h7.6zm-7.5 19v-3.8h7.6v3.8h-7.6zm7.5-30.3v3.8h-3.8v-3.8h3.8zm3.8 15.2v11.4h-3.8V350h3.8zm0-3.8h3.8v3.8h-3.8v-3.8zm3.8 15.1v3.8h-3.8v-3.8h3.8zm7.6-11.4v11.4h-3.8v-11.4h3.8zm0-3.8h3.8v3.8h-3.8v-3.8zm0 19v-3.8h7.6v3.8h-7.6zm7.6-11.4h3.8v7.6h-3.8v-7.6zm3.8 11.4v-3.8h7.6v3.8h-7.6zm3.8-15.2v-3.8h3.8v3.8h-3.8zm3.8 0h3.8v11.4h-3.8v-11.4zm22.7 0v11.4h-3.8v-11.4h3.8zm15.2-3.8v3.8h-3.8v11.4h-3.8v-11.4h-7.6v-3.8h15.2zm-15.2 19v-3.8h7.6v3.8h-7.6zm34.1-15.2v11.4h-3.8v-11.4h-3.8v15.2H457v-15.2h-3.8v-3.8h19v3.8h-3.9zm3.8 11.4v3.8h-3.8v-3.8h3.8zm7.6-11.4v11.4h-3.8v-11.4h3.8zm7.6-3.8v3.8h-7.6v-3.8h7.6zm-7.6 19v-3.8h7.6v3.8h-7.6zm11.4-15.2v11.4h-3.8v-11.4h3.8zm0-3.7h3.8v3.8h-3.8v-3.8zm3.8 15.1v3.8h-3.8v-3.8h3.8zm7.5-11.4v11.4h-3.8v-11.4h3.8zm15.2-3.8v3.8h-3.8v11.4H510v-11.4h-7.6v-3.8h15.2zm-15.2 19v-3.8h7.6v3.8h-7.6zm22.8-3.8h7.6v3.8h-7.6v3.8h-3.8v-22.8h3.8v15.2zm11.4 0h-3.8v-15.2h3.8v15.2zm0 3.8v-3.8h3.8v3.8h-3.8zm7.5-11.4v-3.8h3.8v3.8h-3.8zm3.8 7.6h-3.8v-3.8h3.8v3.8zm3.8-22.8v3.8h-3.8v-3.8h3.8zm7.6 11.4h-11.4v-3.8h11.4v3.8zm-3.8 7.6h-7.6v-3.8h7.6v3.8zm-7.6 7.6v-3.8h11.4v3.8h-11.4zm7.6-30.3v3.8h-3.8v-3.8h3.8zm11.4 26.5h-3.8v-15.2h3.8v15.2zm3.8 3.8h-3.8v-3.8h3.8v3.8zm3.8-3.8h-3.8v-3.8h3.8v3.8zm0-15.2h3.8v11.4h-3.8v-11.4zm11.3 3.8v11.4H582v-11.4h3.8zm7.6-3.8v3.8h-7.6v-3.8h7.6zm-7.6 19v-3.8h7.6v3.8h-7.6zm11.4-15.2v11.4h-3.8v-11.4h3.8zm0-3.7h3.8v3.8h-3.8v-3.8zm3.8 15.1v3.8h-3.8v-3.8h3.8zm15.2-15.2h3.8v7.6h-3.8v-7.6zm3.8 7.6h3.8v7.6H620v-7.6zm3.8 7.6h3.8v11.4h-3.8v-11.4zm3.8 0v-7.6h3.8v7.6h-3.8zm3.8-15.2h3.8v7.6h-3.8v-7.6zm11.3 15.2h-3.8v-15.2h3.8v15.2zm0 3.8v-3.8h7.6v3.8h-7.6zm7.6-19h3.8v15.2h-3.8v-15.2zm11.4 3.8v11.4h-3.8v-11.4h3.8zm7.5-3.8v3.8h-7.6v-3.8h7.6zm-7.5 19v-3.8h7.6v3.8h-7.6zm11.3-15.2v11.4h-3.8v-11.4h3.8zm0-3.8h3.8v3.8H673v-3.8zm3.8 15.2v3.8H673v-3.8h3.8zm3.8 3.8v-7.6h3.8v7.6h-3.8zm3.8-26.6v-3.8h3.8v3.8h-3.8zm0 19v-7.6h3.8v7.6h-3.8zm7.6-19v11.4h-3.8v-11.4h3.8zm3.8 11.4v11.4H692v-11.4h3.8zm0 15.2v-3.8h3.8v3.8h-3.8zm11.4-3.8h-3.8v-15.2h3.8v15.2zm0 3.8v-3.8h3.8v3.8h-3.8zm11.3-15.2v11.4h-3.8v-11.4h3.8zm3.8-11.4v3.8h-3.8v-3.8h3.8zm3.8 7.6v3.8h-7.6v-3.8h7.6zm-7.6 19v-3.8h7.6v3.8h-7.6zm7.6-30.3v3.8h-3.8v-3.8h3.8zm3.8 15.2v11.4h-3.8V350h3.8zm0-3.8h3.8v3.8h-3.8v-3.8zm3.8 15.1v3.8h-3.8v-3.8h3.8zm19-15.2v11.4h-3.8v-11.4h3.8zm-3.8 15.2h3.8v11.4h-3.8v-11.4zm3.8 0v-3.8h3.8v3.8h-3.8zm7.5-3.8h-3.8v-11.4h3.8v11.4zm-3.7 3.8h3.8v7.6h-3.8v-7.6zm3.7 11.4v-3.8h3.8v3.8h-3.8zm6.7-22.8v11.4h-3.8v-11.4h3.8zm0-3.8h3.8v3.8h-3.8v-3.8zm0 19v-3.8h7.6v3.8h-7.6zm7.6-11.4h3.8v7.6h-3.8v-7.6zm3.7 11.4v-3.8h7.6v3.8h-7.6zm3.8-15.2v-3.8h3.8v3.8H782zm3.8 0h3.8v11.4h-3.8v-11.4zm11.4 11.4h7.6v3.8h-7.6v7.6h-3.8v-22.8h3.8v11.4zm7.6-15.2v3.8h-7.6v-3.8h7.6zm0 3.8h3.8v11.4h-3.8v-11.4zm11.4-11.4v3.8h-3.8v-3.8h3.8zm0 22.8h-3.8v-15.2h3.8v15.2zm3.8-26.5v3.8h-3.8v-3.8h3.8zm-3.8 30.3v-3.8h3.8v3.8h-3.8zm7.5-15.2h3.8v11.4h-3.8v-11.4zm3.8-3.8h7.6v3.8h-7.6v-3.8zm7.6 19h-7.6v-3.8h7.6v3.8zm0 7.6h-3.8v-3.8h3.8v3.8zm3.8-22.8v3.8h-3.8v-3.8h3.8zm0 15.2v3.8h-3.8v-3.8h3.8zm19-3.8h-3.8v-15.2h3.8v15.2zm3.8 3.8h-3.8v-3.8h3.8v3.8zm3.7-3.8h-3.8v-3.8h3.8v3.8zm0-15.2h3.8v11.4h-3.8v-11.4zm11.4 3.8v11.4H873v-11.4h3.8zm7.6-3.8v3.8h-7.6v-3.8h7.6zm-7.6 19v-3.8h7.6v3.8h-7.6zm11.4-15.2v11.4h-3.8v-11.4h3.8zm0-3.7h3.8v3.8h-3.8v-3.8zm3.8 15.1v3.8h-3.8v-3.8h3.8zm30.3-11.4v11.4h-3.8v-11.4h-3.8v15.2h-3.8v-15.2h-3.8v-3.8h19v3.8h-3.8zm3.8 11.4v3.8h-3.8v-3.8h3.8zm7.6-11.4v11.4h-3.8v-11.4h3.8zm3.8-11.4v3.8h-3.8v-3.8h3.8zm3.8 7.6v3.8h-7.6v-3.8h7.6zm-7.6 19v-3.8h7.6v3.8h-7.6zm7.6-30.3v3.8h-3.8v-3.8h3.8zm3.8 15.2v11.4h-3.8V350h3.8zm0-3.8h3.8v3.8h-3.8v-3.8zm3.7 15.1v3.8H945v-3.8h3.8zm15.2-22.8h3.8v22.8H964v-11.4h-7.6v11.4h-3.8v-22.8h3.8v7.6h7.6v-7.6zm0-3.7v3.8h-7.6v-3.8h7.6zm-7.6 30.3v-3.8h7.6v3.8h-7.6zm19-15.2v11.4h-3.8v-11.4h3.8zm0-3.8h3.8v3.8h-3.8v-3.8zm0 19v-3.8h7.6v3.8h-7.6zm7.6-11.4h3.8v7.6H983v-7.6zm3.8 11.4v-3.8h7.6v3.8h-7.6zm3.8-15.2v-3.8h3.8v3.8h-3.8zm3.8 0h3.8v11.4h-3.8v-11.4zm26.5 0v11.4h-3.8v-11.4h-3.8v-3.8h15.2v3.8h-7.6zm7.6 15.2h-7.6v-3.8h7.6v3.8zm7.6-26.6v3.8h-3.8v-3.8h3.8zm0 22.8h-3.8v-15.2h3.8v15.2zm3.7-26.5v3.8h-3.8v-3.8h3.8zm-3.7 30.3v-3.8h3.8v3.8h-3.8zm18.9-15.2v11.4h-3.8v-11.4h-3.8v15.2h-3.8v-15.2h-3.8v-3.8h19v3.8h-3.8zm3.8 11.4v3.8h-3.8v-3.8h3.8zm7.6-11.4v11.4h-3.8v-11.4h3.8zm7.6-3.8v3.8h-7.6v-3.8h7.6zm-7.6 19v-3.8h7.6v3.8h-7.6zm7.6-15.2h3.8v11.4h-3.8v-11.4zm15.1 0v11.4h-3.8v-11.4h-3.8v-3.8h15.2v3.8h-7.6zm7.6 15.2h-7.6v-3.8h7.6v3.8zm7.6-15.2v11.4h-3.8v-11.4h3.8zm7.6-3.8v3.8h-7.6v-3.8h7.6zm-7.6 19v-3.8h7.6v3.8h-7.6zm11.4-15.2v11.4h-3.8v-11.4h3.8zm0-3.7h3.8v3.8h-3.8v-3.8zm3.8 15.1v3.8h-3.8v-3.8h3.8zm7.5 0v3.8h-3.8v-3.8h3.8zm-810.8 28.4h3.8v7.6h-3.8v-7.6zm0 22.8v-7.6h3.8v7.6h-3.8zm15.2-26.6v26.5h-3.8V401h-3.8v3.8H320v-7.6h7.6v-7.6H320v-3.8l11.4.1zm18.9 7.6v3.8h3.8v3.8h-3.8v11.4h-3.8v-19h3.8zm3.8 15.2v-7.6h3.8v7.6h-3.8zm7.6-11.4v-3.8h3.8v19h-3.8v-11.4h-3.8v-3.8h3.8zm11.4 0v11.4h-3.8v-11.4h3.8zm7.5-3.8v3.8H373v-3.8h7.6zm-7.5 19v-3.8h7.6v3.8h-7.6zm7.5-15.2h3.8v11.4h-3.8v-11.4zm19-3.8v3.8H392v15.2h-3.8v-19h11.4zm7.6 0v11.4h-3.8v-11.4h3.8zm-3.8 26.6v-3.8h7.6v3.8h-7.6zm3.8-11.4v-3.8h3.8v3.8h-3.8zm3.8 7.6v-7.6h3.8v7.6H411zm3.8-22.8h3.8v15.2h-3.8v-15.2zm30.3 7.6v-3.8h3.8v7.6h-11.4v3.8h-3.8v-11.4h3.8v3.8h7.6zm0-7.6v3.8h-7.6v-3.8h7.6zm-7.6 19v-3.8h11.4v3.8h-11.4zm15.2-15.2h3.8v11.4h-3.8v-11.4zm3.8-3.8h7.6v3.8h-7.6v-3.8zm7.5 19h-7.6v-3.8h7.6v3.8zm3.8-15.2v3.8H464v-3.8h3.8zm-3.8 7.6h3.8v3.8H464v-3.8zm22.8-11.4v3.8h-7.6v15.2h-3.8v-15.2h-3.8v-3.8h15.2zm7.6 11.4v3.8h7.6v3.8h-11.4v-19h3.8v7.6h7.6v3.8h-7.6zm7.6 3.8v-3.8h3.8v3.8H502zm18.9-11.4h3.8v11.4h-3.8v-11.4zm3.8-3.8h7.6v3.8h-7.6v-3.8zm7.6 19h-7.6v-3.8h7.6v3.8zm3.8-15.2v3.8h-3.8v-3.8h3.8zm-3.8 7.6h3.8v3.8h-3.8v-3.8zm22.7-11.4v3.8h-7.6v15.2h-3.8v-15.2h-3.8v-3.8H555zm15.2 7.6v-3.8h3.8v7.6h-11.4v3.8h-3.8v-11.4h3.8v3.8h7.6zm0-7.6v3.8h-7.6v-3.8h7.6zm-7.6 19v-3.8H574v3.8h-11.4zm19-11.4h3.8v3.8h-3.8v7.6h-3.8v-19h3.8v7.6zm3.8-3.8h3.8v3.8h-3.8v-3.8zm3.8 7.6v3.8h-3.8v-3.8h3.8zm0-11.4h3.8v3.8h-3.8v-3.8zm3.8 15.2v3.8h-3.8v-3.8h3.8zm7.5 3.8h-3.8v-3.8h3.8v3.8zm15.2-19v19h-3.8v-15.2h-7.6v11.4h-3.8v-15.2h15.2zm7.6 3.8v11.4h-3.8v-11.4h3.8zm7.6-3.8v3.8h-7.6v-3.8h7.6zm-7.6 19v-3.8h7.6v3.8h-7.6zm7.6-15.2h3.8v11.4h-3.8v-11.4zm11.3 22.7h-3.8v-3.8h3.8v3.8zm0-11.3h3.8v7.6h-3.8v-7.6zm22.8-11.4v11.4h-3.8v-11.4h3.8zm7.6-3.8v3.8H665v-3.8h7.6zm-7.6 19v-3.8h7.6v3.8H665zm7.6-15.2h3.8v11.4h-3.8v-11.4zm18.9-3.8h3.8v19h-3.8v-7.6h-7.6v7.6h-3.8v-19h3.8v7.6h7.6v-7.6zm11.4 3.8v11.4h-3.8v-11.4h3.8zm7.6-3.8v3.8h-7.6v-3.8h7.6zm-7.6 19v-3.8h7.6v3.8h-7.6zm7.6-15.2h3.8v11.4h-3.8v-11.4zm22.7-3.8v3.8h3.8v3.8h-3.8v11.4h-3.8v-19h3.8zm3.8 15.2v-7.6h3.8v7.6H737zm7.6-11.4v-3.8h3.8v19h-3.8v-11.4h-3.8v-3.8h3.8zm19-3.8h3.8v19h-3.8v-7.6H756v7.6h-3.8v-19h3.8v7.6h7.6v-7.6zm18.9 7.6v-3.8h3.8v7.6h-11.4v3.8h-3.8v-11.4h3.8v3.8h7.6zm0-7.6v3.8h-7.6v-3.8h7.6zm-7.6 19v-3.8h11.4v3.8h-11.4zm37.9-19h3.8v19h-3.8v-7.6h-7.6v7.6h-3.8v-19h3.8v7.6h7.6v-7.6zm19 7.6v-3.8h3.8v7.6h-11.4v3.8h-3.8v-11.4h3.8v3.8h7.6zm0-7.6v3.8h-7.6v-3.8h7.6zm-7.6 19v-3.8h11.4v3.8h-11.4zm30.3-11.4h7.6v3.8h-7.6v3.8h7.6v3.8h-11.4v-19h11.4v3.8h-7.6v3.8zm11.4-3.8v3.8h-3.8v-3.8h3.8zm0 7.6v3.8h-3.8v-3.8h3.8zm7.6 3.8h7.6v3.8h-7.6v7.6h-3.8v-26.5h11.4v3.8h-7.6v11.3zm7.6-11.4h3.8v11.4h-3.8v-11.4zm18.9 3.8v-3.8h3.8v7.6h-11.3v3.8h-3.8v-11.4h3.8v3.8h7.5zm0-7.6v3.8h-7.6v-3.8h7.6zm-7.6 19v-3.8h11.4v3.8h-11.4zm30.4-3.8h3.8v7.6h-3.8v-3.8h-11.4v3.8h-3.8v-11.4h3.8v3.8h7.6v-11.4h-3.8v7.6h-3.8v-11.4h11.4v15.2zm11.4-15.2v7.6h3.8v3.8h-3.8v7.6h-3.8v-19h3.8zm7.6 3.8v-3.8h3.8v19h-3.8v-11.4H938v-3.8h3.8zm22.7-3.8v3.8h-7.6v15.2h-3.8v-15.2h-3.8v-3.8h15.2zm3.8 15.2v3.8h-3.8v-3.8h3.8zm-528.9 32.2h11.4v3.8h-11.4v7.6h-3.8v-7.6H428v3.8h3.8v3.8H428v11.4h-7.6v-3.8h3.8v-3.8h-7.6v-3.8h7.6v-7.6h-7.6v-3.8h7.6v-3.8h-3.8v-3.8h7.6v7.6h7.6v-11.4h3.8v11.4zM428 429.5h3.8v3.8H428v-3.8zm3.8 34.1v-3.8h7.6v3.8h-7.6zm11.4-3.7h-3.8v-7.6h3.8v7.6zm0-26.6v-3.8h3.8v3.8h-3.8zm0 15.2h3.8v3.8h-3.8v-3.8zm7.5 15.1h-7.5v-3.8h3.8V456h3.8l-.1 7.6zm-3.7-26.5v-3.8h3.8v3.8H447zm22.7 0v-3.8h3.8v30.3H466v-3.8h3.8V456h-7.6v7.6h-3.8v-22.7h-3.8v-3.8h3.8v-3.8h3.8v3.8h7.5zm-7.5-7.6h3.8v3.8h-3.8v-3.8zm7.5 15.2v-3.8h-7.6v3.8h7.6zm0 7.6v-3.8h-7.6v3.8h7.6zm11.4-22.8v3.8h3.8v3.8h-3.8v3.8h3.8v-3.8h3.8v7.6h-11.4v-15.2h3.8zm-3.8 19h3.8v3.8h3.8v3.8h-3.8v3.8h3.8v-3.8h3.8v7.6h-11.4v-15.2zm7.6-19h3.8v3.8h-3.8v-3.8zm3.8 22.8h-3.8v-3.8h3.8v3.8zm37.9-11.4H519v3.8h-3.8v-3.8h-11.3v3.8h-3.8v-3.8h-7.6v-3.8h15.2v-3.8h-11.4v-3.8h26.5v3.8h-11.4v3.8h15.2v3.8zm-7.6 7.6v-3.8h7.6v3.8h-3.8v15.2h-26.5v-15.2h-3.8v-3.8h7.6v3.8H519zm0 11.4v-7.6h-19v7.6h19zm45.5-30.4v3.8h-19v30.3h-3.8v-30.3h-11.3v-3.8h34.1zm-15.1 11.4h7.6v3.8h-7.6v-3.8zm11.3 7.6h-3.8v-3.8h3.8v3.8zm15.2 0v3.8h3.8v3.8h-3.8v3.8h-7.6v-3.8h3.8v-7.6h-3.8v-3.8h3.8v-7.6h-3.8v-3.8h11.4v3.8h-3.8v7.6h3.8v3.8h-3.8zm3.8 11.4v-3.8h3.8v3.8h-3.8zm15.1-26.6h7.6v7.6h-3.8v-3.8h-3.8v7.6h3.8v11.4h-3.8v-7.6h-7.6v3.8h3.8v3.8h-7.6v-22.7h7.6v-3.8h3.8v3.7zm-11.3 30.3v-3.8h7.6v3.8h-7.6zm7.6-19V437h-3.8v7.6h3.8zm3.7 15.2H591V456h3.8v3.8zm7.6 3.8h-7.6v-3.8h7.6v3.8zm34.1-26.5v11.4h3.8v15.2h-7.6v-3.8h3.8v-7.6H629v3.8h3.8v3.8h-7.6v-7.6h-3.8v11.4h-3.8v-7.6h-3.8v3.8h-7.6v-3.8h3.8v-7.6h-3.8v-3.8h3.8v-7.6h-3.8v-3.8h19v-3.8h3.8v3.8h11.4v3.8h-3.9zm-18.9 15.2v-3.8h3.8v-11.4h-7.6v7.6h3.8v3.8h-3.8v3.8h3.8zm11.4-11.4v3.8h3.8v-3.8H629v-3.8h-3.8v3.8h3.8zm34.1-7.6v3.8h-3.8v-3.8h-15.2v-3.8h34.1v3.8h-15.1zm-7.6 7.6v-3.8h3.8v3.8h19v22.8h-7.6v-3.8h3.8v-15.2h-7.6v19h-3.8v-19h-3.8v19h-3.8v-19h-7.6v19h-3.8v-22.8h11.4zm60.7-11.4v3.8h-11.4v3.8H701v-3.8h-19v-3.8h34.2zM682 452.3v-3.8h7.6v3.8H682zm11.4-3.8h-3.8v-3.8h3.8v3.8zm0-7.6h3.8v-3.8h3.8v26.5h-3.8v-19h-3.8v-3.7zm11.4 3.8h7.6v3.8h-7.6v-3.8zm11.4 7.6h-3.8v-3.8h3.8v3.8zm3.8-11.4h3.8v-3.8h3.8v26.5h-3.8v-19H720v-3.7zm7.6-11.4h3.8v7.6h-3.8v-7.6zm7.6 11.4h-3.8v-3.8h3.8v3.8zm7.6 3.8h11.4v15.2h-3.8v-11.4h-7.6v7.6H739v-7.6h-7.6v-3.8h7.6v-3.8h3.8v3.8zm-7.6 19h-3.8v-3.8h3.8v3.8zm19-30.3v3.8h-19v-7.6h3.8v3.8h15.2zM739 459.9h-3.8v-3.8h3.8v3.8zm3.8 3.8v-3.8h7.6v3.8h-7.6zm45.4-15.2h3.8v3.8h-3.8v11.4h-7.6v-3.8h3.8v-3.8h-7.6v3.8H773v-3.8h-15.1v-3.8h7.6v-19h3.8v3.8h7.6v-3.8h11.4l-.1 15.2zm-26.5 11.4H773v3.8h-11.3v-3.8zm15.1-30.4v3.8h-7.6v-3.8h7.6zm-7.6 11.4v3.8h15.2v-3.8h-15.2zm15.2 11.4v-3.8h-15.2v3.8h15.2zm19 0h3.8v3.8h-3.8v7.6h-3.8v-19h-3.8v-3.8h3.8v-3.8h3.8v15.2zm3.8-22.8v7.6h-3.8v-7.6h3.8zm11.3 11.4v3.8h3.8v3.8h-3.8v3.8h3.8v3.8h-3.8v7.6h-3.8v-7.6H811v-3.8h3.8v-3.8H811v-7.6h-3.8v-3.8h7.6v-7.6h3.8v7.6H830v3.8h-11.5zm-11.3 11.4v-3.8h3.8v3.8h-3.8zm19-3.8v3.8h-3.8v-3.8h3.8zm3.7 3.8v3.8h-3.8v-3.8h3.8zm11.4 3.8v3.8h-3.8v-3.8h3.8zm3.8-3.8v3.8h-3.8v-3.8h3.8zm0 7.6v3.8h-3.8v-3.8h3.8zm3.8-3.8v3.8h-3.8v-3.8h3.8zm-667.3 39.8h3.8v3.8h-3.8V511h-3.8v-11.3H174v-7.6h-3.8v-3.8h7.6v-3.8H174v-3.8h7.6v7.6h3.8v3.8h-3.8v3.8zm-11.4 11.3v-7.6h3.8v7.6h-3.8zm11.4-30.3h3.8v3.8h-3.8v-3.8zm19 22.8h3.8V511h-19v-7.6h3.8v3.8h11.4v-7.5zm-7.6 3.8h-3.8v-11.4h3.8v11.4zm3.8-11.4H193v-15.2h3.8v15.2zm15.1-11.4h3.8V511h-3.8v-30.3zm22.8 22.8h3.8v3.8h-7.6v-3.8h-7.6v-3.8h7.6v-7.6h-11.4v-3.8h11.4v-11.4h3.8v7.6h7.6v3.8h-7.6v15.2zm-15.2 3.7v-3.8h3.8v3.8h-3.8zm3.8 3.8v-3.8h7.6v3.8h-7.6zm19-3.8v3.8h-3.8v-3.8h3.8zm7.6 3.8v-3.8h7.6v3.8h-7.6zm15.1-22.7h11.4V511h-7.6v-3.8h3.8v-15.1H265v7.6h-3.8v-7.6h-7.6v-3.8h7.6v-7.6h3.8v7.6zm-7.6 19v-7.6h3.8v7.6h-3.8zm11.4-30.3h3.8v3.8h-3.8V477zm7.6 0h3.8v7.6h-3.8V477zm37.9 11.3v7.6h-3.8v-3.8h-22.7v-3.8h26.5zm-22.8-3.8v-3.8h19v3.8h-19zm3.8 26.5v-3.8h7.6v3.8h-7.6zm11.4-3.8h-3.8v-3.8h3.8v3.8zm0-3.8v-7.6h3.8v7.6h-3.8zm15.2 3.8v-3.8h7.6v3.8h-7.6zm22.7-22.7v7.6h-3.8v-3.8h-15.2v-3.8h19zm-11.4 19h-3.8v-3.8h3.8v3.8zm3.8-3.8h-3.8v-3.8h3.8v3.8zm0-3.8v-3.8h3.8v3.8H337zm3.8 3.8v-3.8h3.8v3.8h-3.8zm3.8 3.8v-3.8h3.8v3.8h-3.8zm3.8 3.8v-3.8h3.8v3.8h-3.8zm19-7.6h-3.8v-3.8h3.8v3.8zm7.6-15.2v3.8h3.8v3.8h-7.6v-3.8h-3.8v-3.8h7.6zm-3.8 11.4h-3.8v-3.8h3.8v3.8zm0 11.3v-7.6h3.8v7.6h-3.8zm15.2-22.7H375v-7.6h3.8v3.8h7.6v3.8zm3.8 7.6v3.8h-7.6v7.6h-3.8v-3.8H375v-3.8h3.8v-3.8h11.4zM375 511v-3.8h11.4v3.8H375zm26.5-18.9h-3.8v-3.8h3.8v3.8zm0-3.8v-3.8h3.8v3.8h-3.8zm3.8-7.6h3.8v3.8h-3.8v-3.8zm11.4 3.8v3.8h7.6v11.4h-3.8v-3.8h-11.4v3.8h11.4v3.8h-3.8v3.8h-3.8v-3.8h-3.8v3.8h3.8v3.7h-7.6v-22.7h7.6v-3.8h3.8zm3.8-3.8h-11.4v-3.8h11.4v3.8zm-3.8 26.5h3.8v-3.8h3.8v3.8h3.8v3.8h-11.3l-.1-3.8zm7.5-26.5v3.8h-3.8v-3.8h3.8zm0 7.6v-3.8h3.8v3.8h-3.8zm3.8 11.4v3.8h-3.8v-3.8h3.8zm0-7.6v-3.8h3.8v3.8H428zm15.2 7.6h-3.8v-3.8h3.8v3.8zm3.8-3.8h-3.8v-3.8h3.8v3.8zm0-7.6h7.6v3.8H447v-3.8zm7.6 7.6v-3.8h3.8v3.8h-3.8zm7.6-19v7.6h-3.8v-7.6h3.8zm-3.8 22.7v-3.8h3.8v3.8h-3.8zm3.8 3.8v-3.8h3.8v3.8h-3.8zm3.8-26.5h3.8v7.6H466v-7.6zm3.8 30.3H466v-3.8h3.8v3.8zm11.3-7.5h3.8v3.8h-7.6v-19h3.8v15.2zm7.6-22.8v3.8h-7.6v-3.8h7.6zm-7.6 30.3h11.4v3.8h-11.4v-3.8zm7.6-7.5h-3.8v-3.8h3.8v3.8zm3.8-19v3.8h-3.8v-3.8h3.8zm-3.8 11.3h7.6v3.8h-7.6V492zm7.6 15.2h-3.8v-3.8h3.8v3.8zm0-11.4h3.8v7.6h-3.8v-7.6zm26.5-3.7h3.8v3.8h-3.8V511H519v-7.6h-3.8v-3.8h3.8v-11.3h-7.6v-3.8h7.6v-7.6h3.8v15.2zm-7.6 15.1h-3.8v-3.8h3.8v3.8zm15.2-15.1h-3.8v-3.8h3.8v3.8zm7.6 11.4h3.8v3.8h-7.6v-19h-3.8v-3.8h7.6v19zm3.8 0v-3.8h3.8v3.8h-3.8zm26.5-3.8h3.8v3.8h-3.8v3.8h-3.8v-3.8h-7.6v-3.8h7.6v-3.8h-11.4v-3.8h11.4v-3.8h-7.6v-3.8h7.6v-7.6h3.8v3.8h7.6v3.8h-7.6v3.8h7.6v3.8h-7.6v7.6zm-15.1 7.5v-3.8h3.8v3.8h-3.8zm3.7 3.8v-3.8h7.6v3.8h-7.6zm15.2-3.8v-3.8h3.8v3.8h-3.8zm3.8 3.8v-3.8h3.8v3.8h-3.8zm45.5-30.3v3.8H610v22.8h-3.8v-3.8h-7.6v-3.8h7.6v-3.8h-7.6v-3.8h7.6v-3.8h-19v-3.8h19v-7.6h3.8v3.8h11.4zm-26.5 19v-3.8h3.8v3.8h-3.8zm11.3 11.3h-3.8v-3.8h3.8v3.8zm26.6-7.5v3.8H629v-3.8h3.8zm3.7-3.8v3.8h-3.8v-3.8h3.8zm0 7.5v3.8h-3.8v-3.8h3.8zm3.8-3.7v3.8h-3.8v-3.8h3.8zm22.8-3.8v-3.8h7.6v3.8h-7.6zm22.7-15.2H682v3.8h-3.8v-3.8h-7.6v-3.8h15.2v3.8zm-7.5 3.8v3.8h7.6v3.8h-3.8v3.8h-3.8v-3.8h-7.6v-3.8h3.8v-3.8h3.8zm-3.8 19v-7.6h3.8v7.6h-3.8zm3.8 3.8v-3.8h11.4v3.7l-11.4.1zm7.5-34.1h3.8v3.8h-3.8V477zm11.4 11.3v3.8h-11.4v-3.8h11.4zm15.2 3.8h3.8v3.8h-3.8V511h-3.8v-7.6h-3.8v-3.8h3.8v-11.3H701v-3.8h7.6v-7.6h3.8v15.2zm-7.6 15.1H701v-3.8h3.8v3.8zm15.2-15.1h-3.8v-3.8h3.8v3.8zm7.6 11.4h3.8v3.8h-7.6v-19H720v-3.8h7.6v19zm3.8 0v-3.8h3.8v3.8h-3.8zm11.3-22.8h3.8V511h-3.8v-30.3zm22.8 22.8h3.8v3.8h-7.6v-3.8h-7.6v-3.8h7.6v-7.6h-11.4v-3.8h11.4v-11.4h3.8v7.6h7.5v3.8h-7.6l.1 15.2zm-15.2 3.7v-3.8h3.8v3.8h-3.8zm3.8 3.8v-3.8h7.6v3.8h-7.6zm19-3.8v3.8h-3.8v-3.8h3.8zm15.1-11.3h3.8v3.8h-3.8V511h-3.8v-11.3h-3.8v-7.6h-3.8v-3.8h7.6v-3.8h-3.8v-3.8h7.6v7.6h3.8v3.8h-3.8v3.8zm-11.4 11.3v-7.6h3.8v7.6h-3.8zm11.4-30.3h3.8v3.8h-3.8v-3.8zm19 22.8h3.8V511h-19v-7.6h3.8v3.8h11.4v-7.5zm-7.6 3.8h-3.8v-11.4h3.8v11.4zm3.8-11.4h-3.8v-15.2h3.8v15.2zm18.9 7.6h-3.8v-3.8h3.8v3.8zm7.6-15.2v3.8h3.8v3.8h-7.6v-3.8h-3.8v-3.8h7.6zm-3.8 11.4h-3.8v-3.8h3.8v3.8zm0 11.3v-7.6h3.8v7.6h-3.8zm15.2-22.7h-11.4v-7.6h3.8v3.8h7.6v3.8zm3.8 7.6v3.8h-7.6v7.6h-3.8v-3.8h-3.8v-3.8h3.8v-3.8h11.4zm-15.2 19v-3.8h11.4v3.7l-11.4.1zm22.8-22.8h3.8v-3.8h3.8V511h-3.8v-19h-3.8v-3.7zm7.5-11.4h3.8v7.6h-3.8v-7.6zm22.8 22.8h3.8V511h-7.6v-3.8h3.8v-3.8h-3.8v3.8h-3.8v-3.8h-3.8v3.8h-3.8v-3.8H864v-3.8h3.8v-11.3h3.8v3.8h7.6v-3.8h-7.6v-3.8h-3.8v-7.6h3.8v3.8h15.2v3.8H883v15.2zm-19-11.4v-3.8h3.8v3.8H864zm3.8 22.7H864v-3.8h3.8v3.8zm11.4-11.4v-3.8h-7.6v3.8h7.6zm-3.8 11.4h-3.8v-3.8h3.8v3.8zm15.2-22.7H902v3.8h-11.4v-3.8zm26.5-3.8v3.8h-15.2v-3.8h15.2zm-15.2 19h11.4v3.8h-11.4v-3.8zm15.2 0h-3.8v-3.8h3.8v3.8zm0-15.2h3.8v11.4h-3.8v-11.4zm15.2-7.6h3.8v26.5h-3.8v-26.5zm19 3.8h7.6v3.8H955v19h-3.8v-15.2h-11.4v-3.8h11.4l.1-3.8zm-3.8-7.6h3.8v7.6h-3.8v-7.6zm3.7 34.1h-3.8v-3.8h3.8v3.8zm34.1-11.3h3.8v3.8h-3.8v3.8h-3.8v-3.8H974v-3.8h7.6v-3.8h-11.4v-3.8h11.4v-3.8H974v-3.8h7.6v-7.6h3.8v3.8h7.6v3.8h-7.6v3.8h7.6v3.8h-7.6l-.1 7.6zm-15.1 7.5v-3.8h3.8v3.8h-3.8zm3.8 3.8v-3.8h7.6v3.8H974zm15.2-3.8v-3.8h3.8v3.8h-3.8zm3.7 3.8v-3.8h3.8v3.8h-3.8zm22.8-18.9h3.8v3.8h-3.8v11.4h-3.8v-11.4h-7.6v-3.8h7.6v-11.4h3.8v11.4zm0 19v-3.8h15.2v3.7l-15.2.1zm11.4-22.8h7.6v3.8h-7.6v11.4h-7.6v-3.8h3.8v-7.6h-3.8v-3.8h3.8v-7.6h3.8v7.6zm18.9 7.6h3.8v11.4h-3.8v-11.4zm7.6-7.6h7.6v3.8h-7.6v3.8h-3.8v-11.4h3.8v3.8zm3.8-11.4v7.6h-3.8v-7.6h3.8zm7.6 15.2v11.4h-3.8v-11.4h3.8zm0 15.2v-3.8h7.6v3.8h-7.6zm7.5-3.8v-3.8h3.8v3.8h-3.8zm15.2 0v3.8h-3.8v-3.8h3.8zm3.8-3.8v3.8h-3.8v-3.8h3.8zm0 7.5v3.8h-3.8v-3.8h3.8zm3.8-3.7v3.8h-3.8v-3.8h3.8zM784.4 287.4h3.8v7.6h-3.8v-7.6z" style="fill:#78716c"/><path d="M409.1 99.7h3.8v19h-3.8v-19zm15.1 15.2v-7.6h3.8v7.6h-3.8zm3.8-11.4h7.6v7.6h-3.8v-3.8H428v-3.8zm7.6 15.1H428v-3.8h7.6v3.8zm11.4-15.1v3.8h3.8v11.4h-11.4v-7.6h3.8v3.8h3.8v-3.8h-3.8v-3.8h-3.8v-3.8h7.6zm7.6 0h7.6v3.8h-3.8v11.4h-3.8v-15.2zm7.6 3.8h3.8v11.4h-3.8v-11.4zm15.1 0h3.8v3.8h3.8v3.8h3.8v3.8h-7.6v-3.8h-3.8v-7.6zm3.8-3.8h7.6v7.6h-3.8v-3.8h-3.8v-3.8zm19 0v3.8h3.8v11.4h-11.4v-7.6h3.8v3.8h3.8v-3.8h-3.8v-3.8h-3.8v-3.8h7.6zm15.1 3.8h-3.8v7.6h-3.8V99.7h3.8v3.8h3.8v3.8zm0 7.6v3.8h-3.8v-3.8h3.8zm15.2-11.4h7.6v19h-3.8v-3.8h-7.6v-11.4h3.8v7.6h3.8v-7.6h-3.8v-3.8zm-3.8 22.7v-3.8h7.6v3.8h-7.6zm15.2-30.3h3.8v22.8h-3.8V95.9zm15.1 7.6v3.8h3.8v11.4h-11.4v-7.6h3.8v3.8h3.8v-3.8h-3.8v-3.8h-3.8v-3.8h7.6zm15.2 0v3.8h-3.8v3.8h-3.8v-7.6h7.6zm-7.6 15.1v-3.8h3.8V111h3.8v7.6h-7.6zm19-15.1v3.8h-3.8v3.8h-3.8v-7.6h7.6zm-7.6 15.1v-3.8h3.8V111h3.8v7.6h-7.6zm26.5-15.1v3.8h3.8v11.4h-11.4v-7.6h3.8v3.8h3.8v-3.8h-3.8v-3.8h-3.8v-3.8h7.6zm7.6 0h7.6v3.8h-3.8v11.4H610v-15.2zm7.6 3.8h3.8v11.4h-3.8v-11.4zm15.2-11.4h3.8v22.8h-11.4v-11.4h3.8v7.6h3.8v-7.6H629v-3.8h3.8v-7.6zm15.1 3.8v-3.8h3.8v3.8h-3.8zm0 3.8h3.8v15.2h-3.8v-15.2zm15.2 3.8h-3.8v7.6h-3.8V99.7h3.8v3.8h3.8v3.8zm0 7.6v3.8h-3.8v-3.8h3.8zm18.9-19h3.8v22.8h-11.4v-11.4h3.8v7.6h3.8v-7.6h-3.8v-3.8h3.8v-7.6zm11.4 11.4v7.6h3.8v3.8h-7.6v-11.4h3.8zm0-3.8h7.6v11.4h-3.8v-7.6h-3.8v-3.8zm11.4 3.8h3.8v3.8h3.8v3.8h3.8v3.8h-7.6v-3.8h-3.8v-7.6zm3.8-3.8h7.6v7.6h-3.8v-3.8h-3.8v-3.8zm18.9 0v3.8h-3.8v3.8H720v-7.6h7.5zm-7.5 15.1v-3.8h3.8V111h3.8v7.6H720zm11.3-15.1h7.6v3.8h-3.8v11.4h-3.8v-15.2zm7.6 3.8h3.8v11.4h-3.8v-11.4zm7.6-11.4h3.8v7.6h-3.8v-7.6zm15.2 11.4h-3.8v7.6h-3.8V99.7h3.8v3.8h3.8v3.8zm0 7.6v3.8h-3.8v-3.8h3.8zm15.1-11.4h3.8v3.8h-3.8v11.4H773V95.9h3.8v7.6zm3.8 3.8h3.8v11.4h-3.8v-11.4zm11.4-3.8v11.4h-3.8v-11.4h3.8zm3.8 0h3.8v15.2H792v-3.8h3.8v-11.4zm7.6 3.8h3.8v11.4h-3.8v-11.4zm3.8 0v-3.8h3.8v3.8h-3.8zm15.1 0h-3.8v7.6h-3.8V99.7h3.8v3.8h3.8v3.8zm0 7.6v3.8h-3.8v-3.8h3.8zm11.4-11.4h7.6v3.8h-3.8v11.4h-3.8v-15.2zm7.6 3.8h3.8v11.4h-3.8v-11.4zm3.8 0v-3.8h3.8v3.8h-3.8zm3.8 0h3.8v11.4h-3.8v-11.4zm7.6 0h3.8v3.8h3.8v3.8h3.8v3.8h-7.6v-3.8h-3.8v-7.6zm3.7-3.8h7.6v7.6H864v-3.8h-3.8v-3.8zm11.4 15.1v-3.8h3.8v3.8h-3.8zm-612.3 19v3.8h3.8v3.8h-3.8v11.4h-3.8v-19h3.8zm3.8 15.2v-7.6h3.8v7.6h-3.8zm7.6-11.4v-3.8h3.8v19h-3.8v-11.4h-3.8v-3.8h3.8zm22.8 3.8h-3.8v7.6h-3.8v-7.6h-3.8v11.4h-3.8v-15.2h15.2v3.8zm0 7.6v3.8h-3.8v-3.8h3.8zm3.7-7.6h3.8v7.6h-3.8v-7.6zm3.8-3.8h3.8v3.8H301v-3.8zm3.8 15.2H301v-3.8h3.8v3.8zm0-11.4h3.8v7.6h-3.8v-7.6zm11.4 0v7.6h3.8v3.8h-3.8v7.6h-3.8v-19h3.8zm0-3.8h3.8v3.8h-3.8v-3.8zm3.8 3.8h3.8v7.6H320v-7.6zm7.6 0h3.8v7.6h-3.8v-7.6zm3.8-3.8h3.8v3.8h-3.8v-3.8zm3.8 15.2h-3.8v-3.8h3.8v3.8zm0-19v-3.8h3.8v3.8h-3.8zm0 15.1V149h3.8v3.8l-3.8-.1zm3.7-19V130h3.8v3.8l-3.8-.1zm0 11.4v-3.8h3.8v3.8h-3.8zm3.8 11.4h-3.8v-3.8h3.8v3.8zm0-11.4h3.8v7.6h-3.8v-7.6zm19-3.7v7.6h3.8v3.8h-3.8v3.8h-3.8v-15.2h3.8zm3.8 0h3.8v7.6h-3.8v-7.6zm7.6 3.8h3.8v7.6h-3.8v-7.6zm3.8-3.8h3.8v3.8h-3.8v-3.8zm3.7 15.2h-3.8v-3.8h3.8v3.8zm0-11.4h3.8v7.6h-3.8v-7.6zm3.8-3.8h3.8v3.8h-3.8v-3.8zm3.8 11.4v3.8h-3.8v-3.8h3.8zm15.2-11.4v11.4h-3.8v-11.4h3.8zm3.8 0h7.6v11.4H411v11.4h-3.8v-7.6h-3.8v-3.8h3.8v-11.4zm11.4 3.8h3.8v7.6h-3.8v-7.6zm3.8-7.6v-3.8h3.8v3.8h-3.8zm0 3.8h3.8v3.8h-3.8v-3.8zm3.7 15.2h-3.8v-3.8h3.8v3.8zm0-22.8V130h3.8v3.8h-3.8zm0 11.4h3.8v7.6h-3.8v-7.6zm3.8-3.8h3.8v3.8h-3.8v-3.8zm3.8 11.4v3.8h-3.8v-3.8h3.8zm3.8-7.6h3.8v7.6h-3.8v-7.6zm3.8-3.8h3.8v3.8h-3.8v-3.8zm3.8 15.2h-3.8v-3.8h3.8v3.8zm0-3.8V149h3.8v3.8h-3.8zm3.8-7.6v-3.8h3.8v3.8h-3.8zm3.8 11.4h-3.8v-3.8h3.8v3.8zm0-11.4h3.8v7.6h-3.8v-7.6zm15.1 0h3.8v7.6h-3.8v-7.6zm15.2-3.8v3.8h-3.8v7.6h-3.8v-7.6h-3.8v-3.8H483zm-7.6 15.2h-3.8v-3.8h3.8v3.8zm26.6-11.4h-3.8v7.6h-3.8v-7.6h-3.8v11.4h-3.8v-15.2H502v3.8zm0 7.6v3.8h-3.8v-3.8h3.8zm3.8-7.6h3.8v7.6h-3.8v-7.6zm3.8-3.8h3.8v3.8h-3.8v-3.8zm3.7 15.2h-3.8v-3.8h3.8v3.8zm0-11.4h3.8v7.6h-3.8v-7.6zm3.8-3.8h3.8v3.8h-3.8v-3.8zm3.8 11.4v3.8h-3.8v-3.8h3.8zm3.8-7.6h3.8v7.6h-3.8v-7.6zm15.2-3.8v3.8h-3.8v7.6h-3.8v-7.6h-3.8v-3.8h11.4zm-7.6 15.2h-3.8v-3.8h3.8v3.8zm15.2-3.8h3.8v3.8h-3.8v3.8h-3.8v-19h3.8v11.4zm7.5-11.4v11.4h-3.8v-11.4h3.8zm0 15.2v-3.8h3.8v3.8H555zm15.2-11.4v3.8h-3.8v3.8h-3.8v-11.4H574v3.8h-3.8zm-3.8-7.6v-3.8h3.8v3.8h-3.8zm7.6 19h-7.6v-3.8h7.6v3.8zm-3.8-22.8V130h3.8v3.8h-3.8zm11.4 7.6v7.6h3.8v3.8h-3.8v3.8h-3.8v-15.2h3.8zm3.8 0h3.8v7.6h-3.8v-7.6zm7.6 3.8h3.8v7.6H593v-7.6zm3.8-3.8h3.8v3.8h-3.8v-3.8zm3.8 15.2h-3.8v-3.8h3.8v3.8zm0-11.4h3.8v7.6h-3.8v-7.6zm3.8-3.8h3.8v3.8h-3.8v-3.8zm3.8 11.4v3.8h-3.8v-3.8h3.8zm15.1-11.4v11.4h-3.8v-11.4h3.8zm0 11.4h3.8v11.4h-3.8v-11.4zm3.8-11.4h3.8v11.4h-3.8v-11.4zm11.4 0v11.4h-3.8v-11.4h3.8zm3.7 15.2h-3.8v-3.8h3.8v3.8zm0-15.2h3.8v11.4h-3.8v-11.4zm7.6 3.8h3.8v7.6h-3.8v-7.6zm3.8-3.8h3.8v3.8h-3.8v-3.8zm3.8 15.2h-3.8v-3.8h3.8v3.8zm0-11.4h3.8v7.6h-3.8v-7.6zm3.8-3.8h3.8v3.8h-3.8v-3.8zm3.8 11.4v3.8h-3.8v-3.8h3.8zm3.8-15.2v-3.8h3.8v3.8h-3.8zm0 7.6h3.8v11.4h-3.8v-11.4zm3.8-7.6h3.8v7.6h-3.8v-7.6zm3.8 7.6h3.8v11.4h-3.8v-11.4zm11.3-3.8v11.4h-3.8v-11.4h3.8zm0 15.2v-3.8h3.8v3.8h-3.8zm7.6-11.4h3.8v7.6h-3.8v-7.6zm3.8-7.6v-3.8h3.8v3.8h-3.8zm0 3.8h3.8v3.8h-3.8v-3.8zm3.8 15.2h-3.8v-3.8h3.8v3.8zm0-22.8V130h3.8v3.8h-3.8zm0 11.4h3.8v7.6h-3.8v-7.6zm3.8-3.8h3.8v3.8h-3.8v-3.8zm3.8 11.4v3.8h-3.8v-3.8h3.8zm11.4-11.4h3.8v7.6h-3.8v-7.6zm0 11.4h3.8v11.4h-3.8v-11.4zm7.5 0h-3.8V149h3.8v3.8zm0-11.4h3.8v7.6h-3.8v-7.6zm0 22.7v-11.4h3.8v11.4h-3.8zm3.8-18.9h3.8v7.6h-3.8v-7.6zm3.8-3.8h3.8v3.8H737v-3.8zm3.8 15.2H737v-3.8h3.8v3.8zm0-3.8V149h3.8v3.8h-3.8zm3.8-7.6v-3.8h3.8v3.8h-3.8zm3.8 11.4h-3.8v-3.8h3.8v3.8zm0-11.4h3.8v7.6h-3.8v-7.6zm11.4 0v7.6h3.8v3.8h-3.8v7.6H756v-19h3.8zm0-3.8h3.8v3.8h-3.8v-3.8zm3.8 3.8h3.8v7.6h-3.8v-7.6zm7.5-7.6v-3.8h3.8v3.8h-3.8zm3.8 3.8v11.4h-3.8v-11.4h3.8zm0-7.6V130h3.8v3.8h-3.8zm0 22.8v-3.8h3.8v3.8h-3.8zm7.6-3.8v-7.6h3.8v7.6h-3.8zm3.8-7.6v-3.8h3.8v3.8h-3.8zm3.8 7.6v3.8h-3.8v-3.8h3.8zm0 11.3h-3.8v-3.8h3.8v3.8zm3.8-19v3.9h-3.8v-3.8l3.8-.1zm0 11.4v3.8h-3.8v-3.8h3.8zm15.2-15.1v7.6h3.8v3.8h-3.8v3.8h-3.8v-15.2h3.8zm3.7 0h3.8v7.6h-3.8v-7.6zm7.6 3.8h3.8v7.6h-3.8v-7.6zm3.8-3.8h3.8v3.8h-3.8v-3.8zm3.8 15.2h-3.8v-3.8h3.8v3.8zm0-11.4h3.8v7.6H828v-7.6zm3.8-3.8h3.8v3.8h-3.8v-3.8zm3.8 11.4v3.8h-3.8v-3.8h3.8zm26.5-7.6h-3.8v7.6h-3.8v-7.6h-3.8v11.4H847v-15.2h15.2l-.1 3.8zm0 7.6v3.8h-3.8v-3.8h3.8zm3.8-7.6h3.8v7.6h-3.8v-7.6zm3.8-7.6v-3.8h3.8v3.8h-3.8zm0 3.8h3.8v3.8h-3.8v-3.8zm3.8 15.2h-3.8v-3.8h3.8v3.8zm0-22.8V130h3.8v3.8h-3.8zm0 11.4h3.8v7.6h-3.8v-7.6zm3.8-3.8h3.8v3.8h-3.8v-3.8zm3.8 11.4v3.8h-3.8v-3.8h3.8zm11.4-11.4v-3.8h3.8v15.2h-3.8v-7.6h-3.8v7.6h-3.8v-15.2h3.8v3.8h3.8zm-3.8-7.6h3.8v3.8h-3.8v-3.8zm3.8 22.8h-3.8v-3.8h3.8v3.8zm7.5-11.4h3.8v7.6H900v-7.6zm3.8-3.8h3.8v3.8h-3.8v-3.8zm3.8 15.2h-3.8v-3.8h3.8v3.8zm0-3.8V149h3.8v3.8h-3.8zm3.8-7.6v-3.8h3.8v3.8h-3.8zm3.8 11.4h-3.8v-3.8h3.8v3.8zm0-11.4h3.8v7.6h-3.8v-7.6zm26.6 0H938v7.6h-3.8v-7.6h-3.8v-3.8h11.4v3.8zm0 7.6v3.8H938v-3.8h3.8zm3.7-15.2v-3.8h3.8v3.8h-3.8zm3.8 3.8v11.4h-3.8v-11.4h3.8zm0-7.6V130h3.8v3.8h-3.8zm0 22.8v-3.8h3.8v3.8h-3.8zm22.8-11.4h-3.8v7.6h-3.8v-7.6h-3.8v11.4h-3.8v-15.2h15.2v3.8zm0 7.6v3.8h-3.8v-3.8h3.8zm3.8-7.6h3.8v7.6h-3.8v-7.6zm3.8-3.8h3.8v3.8h-3.8v-3.8zm3.7 15.2h-3.8v-3.8h3.8v3.8zm0-11.4h3.8v7.6h-3.8v-7.6zm19 0h-3.8v7.6h-3.8v-7.6H991v-3.8h11.4v3.8zm0 7.6v3.8h-3.8v-3.8h3.8zm3.8-7.6h3.8v7.6h-3.8v-7.6zm3.8-3.8h3.8v3.8h-3.8v-3.8zm3.8 15.2h-3.8v-3.8h3.8v3.8zm0-11.4h3.8v7.6h-3.8v-7.6zm3.8-3.8h3.8v3.8h-3.8v-3.8zm3.8 11.4v3.8h-3.8v-3.8h3.8zm3.8 3.8v-3.8h3.8v3.8h-3.8zm-652.1 26.5v-3.8h3.8v3.8h-3.8zm3.8 11.4h-3.8v-3.8h3.8v3.8zm11.3-19v18.9h-3.8v-7.6h-3.8v3.8h-3.8V183h7.6v-3.8h-7.6v-3.8l11.4.1zm15.2 3.8v3.8h3.8v3.8h-3.8v7.6h-3.8v-15.2h3.8zm3.8 15.2v-7.6h3.8v7.6h-3.8zm7.6-11.4v-3.8h3.8v15.2h-3.8v-7.6H411v-3.8h3.8zm11.3 0v7.6h3.8v3.8h-7.6v-11.4h3.8zm0-3.8h7.6v11.4h-3.8v-7.6h-3.8v-3.8zm22.8 0v3.8h-7.6v11.4h-3.8v-15.2h11.4zm7.6 0v11.4h-3.8v-11.4h3.8zm0 22.8h-3.8v-3.8h3.8v3.8zm0-3.8v-7.6h3.8v7.6h-3.8zm3.8-19h3.8v11.4h-3.8v-11.4zm15.1 3.8h3.8v3.8h3.8v3.8h3.8v3.8h-7.6v-3.8h-3.8v-7.6zm3.8-3.8h7.6v7.6H483v-3.8h-3.8v-3.8zm11.4 11.4v-7.6h3.8v7.6h-3.8zm3.8-11.4h7.6v7.6h-3.8v-3.8h-3.8v-3.8zm7.6 15.2h-7.6v-3.8h7.6v3.8zm15.1-15.2v3.8h-3.8v11.4h-3.8v-11.4h-3.8v-3.8h11.4zm7.6 3.8h7.6v7.6h-3.8v-3.8h-3.8v3.8h3.8v3.8h-7.6v-15.2h3.8v3.8zm19 7.6v-7.6h3.8v7.6h-3.8zm3.8-11.4h7.5v7.6h-3.8v-3.8h-3.8l.1-3.8zm7.5 15.2h-7.6v-3.8h7.6v3.8zm15.2-15.2v3.8h-3.8v11.4h-3.8v-11.4h-3.8v-3.8h11.4zm3.8 3.8h3.8v3.8h3.8v3.8h3.8v3.8h-7.6v-3.8H574v-7.6zm3.8-3.8h7.6v7.6h-3.8v-3.8h-3.8v-3.8zm15.2 0v3.8h3.8v3.8H593v7.6h-3.8v-15.2h3.8zm3.8 0h3.8v3.8h-3.8v-3.8zm3.8 15.2h-3.8v-7.6h3.8v7.6zm7.5 0h-3.8v-3.8h3.8v3.8zm11.4-15.2v15.2h-3.8v-11.4h-3.8v7.6h-3.8v-11.4h11.4zm7.6 3.8v7.6h3.8v3.8h-7.6v-11.4h3.8zm0-3.8h7.6v11.4h-3.8v-7.6h-3.8v-3.8zm11.4 19v-3.8h3.8v3.8h-3.8zm3.7-3.8v-3.8h3.8v3.8h-3.8zm19-11.4v7.6h3.8v3.8h-7.6v-11.4h3.8zm0-3.8h7.6v11.4H665v-7.6h-3.8v-3.8zm19 3.8v-3.8h3.8v15.2h-3.8v-7.6h-3.8v7.6h-3.8v-15.2h3.8v3.8h3.8zm11.3 0v7.6h3.8v3.8h-7.6v-11.4h3.8zm0-3.8h7.6v11.4h-3.8v-7.6h-3.8v-3.8zm22.8 0v3.8h3.8v3.8h-3.8v7.6h-3.8v-15.2h3.8zm3.8 15.2v-7.6h3.8v7.6h-3.8zm7.6-11.4v-3.8h3.8v15.2h-3.8v-7.6h-3.8v-3.8h3.8zm15.1 0v-3.8h3.8v15.2h-3.8v-7.6H737v7.6h-3.8v-15.2h3.8v3.8h3.8zm7.6 0h3.8v3.8h3.8v3.8h3.8v3.8h-7.6v-3.8h-3.8v-7.6zm3.8-3.8h7.6v7.6H756v-3.8h-3.8v-3.8zm26.5 3.8v-3.8h3.8v15.2h-3.8v-7.6h-3.8v7.6h-3.8v-15.2h3.8v3.8h3.8zm7.6 0h3.8v3.8h3.8v3.8h3.8v3.8h-7.6v-3.8h-3.8v-7.6zm3.8-3.8h7.6v7.6h-3.8v-3.8h-3.8v-3.8zm26.5 7.6h-3.8v3.8h3.8v3.8H809v-15.2h7.6v7.6zm0 3.8v-3.8h3.8v3.8h-3.8zm19-11.4v11.4h-3.8v-7.6H828v7.6h3.8v3.8H828v7.6h-3.8v-22.7h11.4v-.1zm3.8 3.8h3.8v3.8h3.8v3.8h3.8v3.8h-7.6v-3.8h-3.8v-7.6zm3.8-3.8h7.6v7.6H847v-3.8h-3.8v-3.8zm26.5 0v18.9h-3.8v-3.8h-7.6v3.8h-3.8v-7.6h3.8v-11.4h11.4v.1zm-3.8 11.4v-7.6h-3.8v7.6h3.8zm11.4-11.4v7.6h3.8v3.8h-3.8v3.8h-3.8v-15.2h3.8zm7.6 3.8v-3.8h3.8v15.2h-3.8v-7.6h-3.8v-3.8h3.8zm18.9-3.8v3.8H900v11.4h-3.8v-11.4h-3.8v-3.8h11.4zm3.8 15.2v-3.8h3.8v3.8h-3.8zm-426.5 22.7h7.6v3.8h-7.6v7.6h-3.8V221h-7.6v3.8h3.8v3.8h-3.8v7.6h-7.6v-3.8h3.8v-3.8h-3.8v-3.8h3.8V221h-3.8v-3.8h3.8v-3.8h-3.8v-3.8h11.4v3.8h-3.8v3.8h7.6v-7.6h3.8v7.6zm-7.6 19v-3.8h7.6v3.8h-7.6zm11.4-7.6v3.8h-3.8v-3.8h3.8zm0-15.1v-3.8h3.8v3.8h-3.8zm0 11.3h3.8v3.8h-3.8v-3.8zm3.8 7.6v3.8h-3.8v-3.8h3.8zm7.6-19h3.8v-3.8h3.8v7.6h-11.4v-7.6h3.8v3.8zm-3.8 7.6h11.4v15.2h-3.8v-3.8h-3.8v3.8h-3.8V221zm3.8 7.6h3.8v-3.8h-3.8v3.8zm15.1-19v3.8h3.8v3.8h3.8v3.8h-7.6v-3.8h-3.8v-7.6h3.8zm-3.8 11.4h3.8v3.8h7.6v3.8h-7.6v3.8h-3.8V221zm11.4 15.2h-7.6v-3.8h7.6v3.8zm-3.8-26.6h3.8v3.8h-3.8v-3.8zm34.2 7.6v3.8h-3.8v3.8h-3.8V221h-11.4v3.8h-3.8V221h-3.8v-3.8h11.4v-3.8h-7.6v-3.8h19v3.8H538v3.8h11.4zm-26.6 11.4v-3.8h3.8v3.8h-3.8zm19 3.8v-3.8h3.8v7.6h-19v-7.6h3.8v3.8h11.4zm-11.4-3.8v-3.8h11.4v3.8h-11.4zm19-3.8v3.8h-3.8v-3.8h3.8zm30.3-15.2v3.8h-11.4v22.8h-3.8v-22.8h-11.4v-3.8h26.6zm-7.6 15.2V221h3.8v3.8h-3.8zm7.6 3.8h-3.8v-3.8h3.8v3.8zm30.3-15.2v3.8h-3.8v3.8h3.8v7.6h-3.8v-3.8h-3.8v3.8h-3.8v3.8h-3.8v-3.8H591v3.8h-7.6v-3.8h3.8v-3.8h-3.8V221h3.8v-3.8h-3.8v-3.8h19v-3.8h3.8v3.8h3.8zm-19 11.4h3.8v-7.6H591v7.6zm3.8 11.4H591v-3.8h3.8v3.8zm3.8-15.2h3.8v-3.8h-3.8v3.8zm3.8 15.2h-3.8v-3.8h3.8v3.8zm3.8-3.8h-3.8v-3.8h3.8v3.8zm3.8 0v3.8h-3.8v-3.8h3.8zm30.3-15.2h-3.8v7.6h-3.8v3.8h3.8v-3.8h3.8v11.4h-3.8v-3.8H629v3.8h-3.8v-3.8h-11.4v-3.8h3.8v-3.8h-3.8V221h3.8v-3.8h-3.8v-3.8H629v-3.8h3.8v3.8h7.6l-.1 3.8zm-15.1 0h-3.8v3.8h3.8v-3.8zm-3.8 7.6v3.8h3.8v-3.8h-3.8zm7.6-7.6v3.8h3.8v-3.8H629zm30.3-3.8v3.8h11.4v19h-7.6v-3.8h3.8V221h-3.8v11.4h-3.8V221h-3.8v11.4h-3.8V221h-3.8v15.2h-3.8v-19h11.4v-3.8h-11.4v-3.8h26.5v3.8h-11.3zm41.7-3.8v3.8h-7.6v3.8h-3.8v-3.8h-15.2v-3.8H701zm-26.5 19v-3.8h7.6v3.8h-7.6zm7.5-7.5h3.8v-3.8h3.8v19h-3.8v-11.5H682v-3.7zm11.4 3.7V221h3.8v3.8h-3.8zm7.6 3.8h-3.8v-3.8h3.8v3.8zm3.8-11.4h3.8v-3.8h3.8v22.8h-3.8V221h-3.8v-3.8zm7.6-7.6h3.8v3.8h-3.8v-3.8zm19 3.8v3.8h-3.8v3.8h3.8v15.2h-7.6v-3.8h3.8v-7.6h-3.8v7.6H720v-7.6h-3.8v-7.6h3.8v3.8h3.8v-3.8H720v-7.6h3.8v3.8h7.6zM720 236.2h-3.8v-3.8h3.8v3.8zm37.9-15.2h3.8v3.8h-3.8v11.4h-7.6v-3.8h3.8v-3.8h-3.8v3.8h-3.8v-3.8h-11.4v-3.8h3.8v-11.4h3.8v3.8h11.4v-3.8h-11.4v-3.8h15.2V221zm-22.8 11.4h11.4v3.8h-11.4v-3.8zm19-7.6V221h-11.4v3.8h11.4zm37.9-7.6h-7.6v3.8h3.8v3.8h-3.8v3.8h3.8v-3.8h3.8v7.6h-7.6v3.8h-3.8v-3.8H773v3.8h-3.8V221h-3.8v-3.8h3.8v-7.6h3.8v3.8h7.6v-3.8h3.8v3.8h7.6v3.8zm-15.2 11.4h3.8v-3.8h-3.8v-7.6H773v7.6h3.8v3.8zm22.8 3.8v-3.8h3.8v3.8h-3.8zm3.8-3.8v-3.8h3.8v3.8h-3.8zm0 7.6v-3.8h3.8v3.8h-3.8zm3.8-3.8v-3.8h3.8v3.8h-3.8zm-534.6 26.5v3.8h3.8v3.8h-3.8v7.6h-3.8v-3.8H265v-7.6h3.8v-3.8H265v-3.8h3.8v-3.8H265v-3.8h11.4v3.8h-3.8v3.8h3.8v3.8h-3.8zm15.2 11.4v-3.8h3.8v7.6h-15.2v-7.6h3.8v3.8h7.6zm-3.8-3.8h-3.8v-11.4h3.8v11.4zm3.8-19v7.6H284v-7.6h3.8zm7.5.1h3.8v26.5h-3.8v-26.5zm22.8 11.3v11.4h-3.8v-3.8h-7.6v-3.8h7.6v-3.8h-11.4v-3.8h11.4v-7.6h3.8v7.6h3.8v3.8h-3.8zm-15.2 11.4v-3.8h3.8v3.8h-3.8zm3.8 3.8v-3.8h7.6v3.8h-7.6zm15.2-3.8v3.8h-3.8v-3.8h3.8zm18.9-22.7h3.8v7.6H337v11.4h-3.8v-11.4h-7.6v-3.8h7.6v-3.8h3.8v3.8h3.8v-3.8zm-11.3 26.5h-3.8v-3.8h3.8v3.8zm3.7-3.8h-3.8v-3.8h3.8v3.8zm11.4-15.2h3.8v19h-7.6v-3.8h3.8v-15.2zm3.8-7.6h3.8v7.6h-3.8v-7.6zm30.4 7.6v11.4H375v-7.6h-19v-3.8h22.8zm-19-3.8v-3.8H375v3.8h-15.2zm0 19h11.4v3.8h-11.3l-.1-3.8zm15.1 0h-3.8v-3.8h3.9l-.1 3.8zm11.4 3.8v-3.8h7.6v3.8h-7.6zm22.8-22.8v7.6h-3.8v-3.8h-15.2v-3.8h19zm-11.4 19h-3.8v-3.8h3.8v3.8zm3.8-3.8h-3.8v-3.8h3.8v3.8zm0-3.7V259h3.8v3.8h-3.8zm3.8 3.7v-3.8h3.8v3.8h-3.8zm3.8 0h3.8v7.6h-3.8v-7.6zm11.4 0h-3.8v-3.8h3.8v3.8zm7.5-11.4v3.8h-3.8v-3.8h-3.8v-3.8h7.6v-3.8h3.8v3.8h7.6v3.8H428zm-3.8 7.6h-3.8v-3.8h3.8v3.8zm7.6 0h3.8v7.6h7.6v3.8h-19v-7.6h3.8v3.8h3.8v-3.8H428v-7.6h3.8v3.8zm11.4-3.8v3.8h-7.6v-3.8h7.6zm22.8-7.6h-3.8v3.8h3.8v11.4h-3.8v3.8h-3.8v-3.8h-3.8v3.8h3.8v3.8h-7.6v-15.2H447v-3.8h3.8v-3.8h3.8v3.8h3.8v-3.8h-3.8v-3.8H466v3.8zm-3.8 11.4v-3.8h-7.6v3.8h7.6zm0 11.4v-3.8h3.8v-3.8h3.8v3.8h3.8v3.8h-11.4zm3.8-19v-3.8h3.8v3.8H466zm7.6 0v3.8h-3.8v-3.8h3.8zm-3.8 7.6h3.8v3.8h-3.8v-3.8zm11.3 0h-3.8v-3.8h3.8v3.8zm3.8-3.8h-3.8v-3.8h3.8v3.8zm0-3.8v-3.8h3.8v3.8h-3.8zm3.8 3.8v-3.8h3.8v3.8h-3.8zm3.8-11.4h3.8v3.8h-3.8v-3.8zm0 15.2v-3.8h3.8v3.8h-3.8zm3.8 3.8v-3.8h3.8v3.8h-3.8zm3.8-19h3.8v7.6h-3.8v-7.6zm3.8 22.8h-3.8v-3.8h3.8v3.8zm11.3-15.2v7.6h3.8v3.8h-7.6v-11.4h3.8zm11.4-3.8h-11.4v-3.8h11.4v3.8zm3.8 19v3.8h-15.2v-3.8h15.2zm0-11.3v3.8H519V259h11.4zm0-7.6v3.8h-3.8v-3.8h3.8zm0 11.4h3.8v7.6h-3.8v-7.6zm18.9-15.2v7.6h3.8v3.8h-3.8v15.2h-3.8v-7.6h-3.8v-3.8h3.8V259H538v-3.8h7.6v-7.6h3.7zm-7.5 22.7H538v-3.8h3.8v3.8zm19 0H557v-15.2h-3.8v-3.8h7.6v19zm0 3.8v-3.8h3.8v3.8h-3.8zm34-19h-7.6v3.8h7.6v3.8h-7.6v3.8h3.8v3.8h-7.6v-3.8h-7.6v-3.8H572v-3.8h11.4v-3.8H572v-3.8h11.4v-3.8h3.8v3.8h7.6v3.8zm-22.7 15.2v-3.8h3.8v3.8h-3.8zm3.8 3.8v-3.8h7.6v3.8h-7.6zm19-3.8v3.8h-3.8v-3.8h3.8zm22.7-19h7.6v3.8h-7.6v15.2h-3.8v-3.8h-7.6v-3.8h7.6v-3.8h-7.6v-3.8h-7.6v-3.8h15.2v-3.8h3.8v3.8zm-15.2 11.4v-3.8h3.8v3.8h-3.8zm3.8 11.4v-3.8h7.6v3.8h-7.6zm26.6-3.8v-3.8h3.8v3.8h-3.8zm3.7-3.8v-3.8h3.8v3.8h-3.8zm0 7.6v-3.8h3.8v3.8h-3.8zm3.8-3.8v-3.8h3.8v3.8h-3.8zm38-15.2h7.6v3.8h-7.6v3.8h-7.6v-3.8h-11.4v-3.8h15.2v-3.8h-11.4v-3.8h19v3.8h-3.8v3.8zm-11.4 15.2v-7.6h3.8v7.6h-3.8zm3.8 3.8v-3.8H682v3.8h-11.3zm30.3-26.5v7.6h3.8v3.8H701v15.2h-3.8v-7.6h-3.8v-3.8h3.8V259h-7.6v-3.8h7.6v-7.6h3.8zm-7.6 22.7h-3.8v-3.8h3.8v3.8zm19 0h-3.8v-15.2h-3.8v-3.8h7.6v19zm0 3.8v-3.8h3.8v3.8h-3.8zm7.6-26.5h3.8v26.5H720v-26.5zm22.8 11.3v11.4H739v-3.8h-7.6v-3.8h7.6v-3.8h-11.4v-3.8H739v-7.6h3.8v7.6h3.8v3.8h-3.8zm-15.3 11.4v-3.8h3.8v3.8h-3.8zm3.8 3.8v-3.8h7.6v3.8h-7.6zm15.2-3.8v3.8h-3.8v-3.8h3.8zm11.4-11.4v3.8h3.8v3.8h-3.8v7.6h-3.8v-3.8h-3.8v-7.6h3.8v-3.8h-3.8v-3.8h3.8v-3.8h-3.8v-3.8h11.4v3.8h-3.8v3.8h3.8v3.8h-3.8zm15.1 11.4v-3.8h3.8v7.6h-15.1v-7.6h3.8v3.8h7.5zm-3.8-3.8h-3.8v-11.4h3.8v11.4zm3.8-19v7.6h-3.8v-7.6h3.8zm11.4 19h-3.8v-3.8h3.8v3.8zm7.6-11.4v3.8h-3.8v-3.8h-3.8v-3.8h7.6v-3.8h3.8v3.8h7.6v3.8H792zm-3.8 7.6h-3.8v-3.8h3.8v3.8zm7.6 0h3.8v7.6h7.6v3.8h-19v-7.6h3.8v3.8h3.8v-3.8H792v-7.6h3.8v3.8zm11.4-3.8v3.8h-7.6v-3.8h7.6zm11.3 7.6h7.6v3.8h-7.6v3.8h-3.8v-15.2H811v-3.8h3.8v-3.8h3.8l-.1 15.2zm0-19h3.8v3.8h-3.8v-3.8zm19 3.8v3.8h-3.8v3.8h3.8v15.2h-3.8v-3.8h-3.8v-3.8h3.8v-3.8h-3.8v3.8h-3.8v-3.8h-3.8v-11.4h3.8v-3.8h3.8v3.8h7.6zm-11.3 7.6h3.8v-3.8h-3.8v3.8zm3.8 15.2h-3.8v-3.8h3.8v3.8zm11.3-15.2v-3.8h7.6v3.8h-7.6zm22.7-7.6v3.8h-15.1v-3.8H864zm-11.4 15.2H864v3.8h-11.3l-.1-3.8zm11.4-11.4h3.8v11.4H864v-11.4zm11.4-7.5h3.8v22.7h-3.8v-22.7zm19 7.5h3.8v3.8h-3.8v11.4h-3.8v-11.4H883v-3.8h7.6v-7.6h3.8v7.6zm-3.8 19h-3.8v-3.8h3.8v3.8zm37.9-19h-7.6v3.8h7.6v3.8h-7.6v3.8h3.8v3.8h-7.6v-3.8h-7.6v-3.8h-3.8v-3.8h11.4v-3.8h-11.4v-3.8h11.4v-3.8h3.8v3.8h7.6v3.8zm-22.8 15.2v-3.8h3.8v3.8h-3.8zm3.8 3.8v-3.8h7.6v3.8h-7.6zm19-3.8v3.8h-3.8v-3.8h3.8zm22.7-15.2h7.6v3.8h-7.6v7.6h-7.6v-3.8h3.8v-3.8h-7.6v11.4H936v-11.4h-3.8v-3.8h3.8v-7.6h3.8v7.6h7.6v-7.6h3.8v7.6zm-11.4 19v-3.8H955v3.8h-15.2zm26.6 0h-3.8v-3.8h3.8v3.8zm0-3.8v-7.6h3.8v7.6h-3.8zm7.6-15.2v3.8h3.8v3.8h-7.6v-7.6h3.8zm3.8-7.5v7.6H974v-7.6h3.8zm0 15.1h3.8v7.6h-3.8v-7.6zm7.6 11.4h-3.8v-3.8h3.8v3.8zm0-3.8v-3.8h3.8v3.8h-3.8zm11.3 0v-3.8h3.8v3.8h-3.8zm3.8-3.8v-3.8h3.8v3.8h-3.8zm0 7.6v-3.8h3.8v3.8h-3.8zm3.8-3.8v-3.8h3.8v3.8h-3.8zM807.2 861.7h-11.4v3.8h3.8v11.4h-3.8v3.8h7.6v-15.2h7.5v-3.8h-3.7zm-72.1 7.6v-3.8h-3.8v11.4h3.8v-7.6zm-257.8-3.8v15.2h3.8v-19h-3.8v3.8zm265.4 0v-3.8h-7.6v3.8h7.6zm-170.6 3.8v11.4h3.8v-15.2h-3.8v3.8zm-37.9-7.6h-3.8v3.8h3.8v15.2h3.8v-15.2h3.8v-3.8h-7.6zm26.5 11.4v7.6h3.8v-11.4h-3.8v3.8zM466 861.7h-11.4v3.8h3.8v11.4h-3.8v3.8h7.6v-15.2h7.6v-3.8H466zm56.8 3.8v11.4h3.8v-15.2h-3.8v3.8zm-30.3-3.8h-7.6v3.8h11.4v-3.8h-3.8zm3.8 7.6v11.4h3.8v-15.2h-3.8v3.8zm7.6-3.8v7.6h3.8v-11.4h-3.8v3.8zm15.1 7.6v-3.8h-3.8v7.6h-3.7v3.8h11.3v-3.8H519v-3.8zm-3.8-11.4h-3.7v7.6h3.7v-7.6zm219.9 15.2v3.8h7.6v-3.8h-7.6zm102.4 0h3.8v3.8h-3.8v-3.8zm-68.3-15.2h-11.3v3.8h3.8v11.4h-3.8v3.8h7.6v-15.2h7.5v-3.8h-3.8zm49.3 3.8v15.2h3.8v-19h-3.8v3.8zm-30.3 0v7.6h3.8v-11.4h-3.8v3.8zm22.7 3.8v11.4h3.8v-15.2h-3.8v3.8zm-37.9 0v11.4h3.8v-15.2H773v3.8zm7.6-3.8v15.2h3.8v-19h-3.8v3.8zm-37.9 3.8v7.6h3.8v-11.4h-3.8v3.8zm94.8-3.8v3.8h3.8v-7.6h-3.8v3.8zm-7.6 0h3.8v3.8h-3.8v-3.8zm-360.1 3.8v11.4h3.7v-15.2h-3.7v3.8zm356.3 3.8v7.6h3.8v-11.4h-3.8v3.8zm0-11.4h3.8v3.8h-3.8v-3.8zm7.6 11.4v3.8h3.8v-7.6h-3.8v3.8zm-265.4-11.4h-7.6v3.8h11.4v-3.8h-3.8zm-18.9 7.6h-3.8v3.8h11.3v-3.8h-7.5zm75.8-7.6h-3.8v-7.6h-3.8v11.4H629v7.6h3.8v-11.4h-7.6zm18.9 0h3.8v3.8h-3.8v-3.8zm-41.7 7.6v-7.6h-3.8v15.2h3.8v-7.6zm22.8 7.6v3.8h3.8v-7.6h-3.8v3.8zm75.8-11.4v7.6h3.8v-11.4H701v3.8zm-56.9 7.6v7.6h3.8v-11.4h-3.8v3.8zm-37.9-11.4v3.8h3.8v11.4h3.8v-15.2h-7.6zm87.2 3.8v15.2h3.8v-19h-3.8v3.8zm-11.4-3.8h-11.3v3.8h3.8v11.4h-3.8v3.8h7.6v-15.2h7.5v-3.8H682zm-26.5 3.8v3.8h3.8v-7.6h-3.8v3.8zm-7.6 0h3.8v3.8h-3.8v-3.8zm-45.5 11.4v3.8h7.6v-3.8h-7.6zm49.3-3.8v3.8h3.8v-7.6h-3.8v3.8zm72.1-7.6v7.6h3.7v-11.4h-3.7v3.8zm-136.5-3.8h-7.6v3.8h11.4v-3.8h-3.8zm3.8 7.6v11.4h3.7v-15.2h-3.7v3.8zm64.4 7.6h3.8v3.8h-3.8v-3.8zm30.3-7.6v11.4h3.8v-15.2h-3.8v3.8zm-49.3-3.8v15.2h3.8v-19h-3.8v3.8zm79.7 3.8v7.6h-7.6v3.8H720v-15.2h-3.8v3.8zm-3.8-7.6h-3.8v3.8h7.6v-3.8h-3.8zm58.7-37.9V820h-3.8v11.4h3.8v-7.6zm-140.2 7.6v-15.2h-3.8v19h3.8v-3.8zm34.1-15.2h-3.8v3.8h7.6v-3.8H665zm117.5 11.4V820h-3.8v11.4h3.8v-3.8zm-109.9 3.8V820h-3.8v11.4h-7.6v3.8h11.4v-3.8zm-91 0v3.8h3.8v-7.6h-3.8v3.8zM778.7 820v-3.8h-7.6v3.8h7.6zm-140.2 3.8V820h-3.8v11.4h3.8v-7.6zm15.1-3.8v7.6h3.8v-11.4h-3.8v3.8zm-7.6 0v-3.8h-7.5v3.8h7.5zm0 11.4h-7.5v3.8h7.5v-3.8zm102.4-15.2h-3.8v3.8h7.6v-3.8h-3.8zM646 827.6v3.8h3.8V820H646v7.6zm113.8-7.6v7.6h3.8v-11.4h-3.8v3.8zm121.3 3.8v11.4h3.8V820h-3.8v3.8zm-22.8-7.6h-7.5v19h3.7V820h7.6v-3.8h-3.8zm3.8 7.6v11.4h3.8V820h-3.8v3.8zm-22.7 7.6v3.8h3.8v-7.6h-3.8v3.8zm0-15.2h-3.8v-7.6h-3.8V820h11.4v7.6h3.8v-11.4h-7.6zm-125.1 15.2v-7.6h-3.8v11.4h3.8v-3.8zm155.4-3.8v7.6h3.8v-11.4h-3.8v3.8zm-147.9 0v7.6h3.8V820h-3.8v7.6zm-18.9-7.6v15.2h3.8v-19h-3.8v3.8zm15.2-3.8h-7.6v3.8h11.3v-3.8h-3.7zm159.2 0h-7.6v3.8h11.4v-3.8h-3.8zM411 831.4v3.8h3.8v-7.6H411v3.8zm409.4 0v3.8h3.8v-7.6h-3.8v3.8zm-125.1 0h3.8v3.8h-3.8v-3.8zm-3.8-3.8v3.8h3.8v-7.6h-3.8v3.8zm121.3 0v15.2h3.8v-19h-3.8v3.8zm-15.1 0v7.6h3.8V820h-3.8v7.6zm0-11.4h-11.4v3.8h11.4v-3.8zm-7.6 15.2v-7.6h-3.8v11.4h3.8v-3.8zM695.3 820v3.8h3.8v-7.6h-3.8v3.8zm-7.6 0h3.8v3.8h-3.8V820zm-3.8-3.8h3.8v3.8h-3.8v-3.8zm0 11.4v7.6h3.8v-11.4h-3.8v3.8zm144.1-3.8v-7.6h-15.2v3.8h11.4v7.6h3.8v-3.8zm-56.9 7.6v3.8h7.6v-3.8h-7.6zm-276.7 0h3.8v3.8h-3.8v-3.8zm-3.8 0h3.8v-7.6h-3.8v7.6zm7.6-11.4v-3.8h-3.8v7.6h3.8V820zm-11.4 0h3.8v3.8h-3.8V820zm19 3.8v-7.6H502v11.4h3.8v-3.8zm15.1 3.8v7.6h3.8V820h-3.8v7.6zm-34.1 3.8v-7.6H483v11.4h3.8v-3.8zm265.4-7.6v7.6h-7.6v3.8H756V820h-3.8v3.8zM483 816.2h3.8v3.8H483v-3.8zm-15.1 11.4v7.6h3.7V820h-3.7v7.6zM737 820v7.6h3.8v-11.4H737v3.8zm-257.8 11.4v-15.2h-3.8v19h3.8v-3.8zM619.5 820v7.6h3.8v-11.4h-3.8v3.8zm-22.7-3.8H593v7.6h3.8v-7.6zm-49.3 19h3.7v-11.4h-3.7v11.4zm7.5-19h-7.5v3.8h11.3v-3.8H555zm3.8 11.4v7.6h3.8V820h-3.8v7.6zm26.6-7.6v7.6h3.8v-11.4h-11.4v-7.6H574V820h11.4zm-49.3 11.4v3.8h3.8v-7.6h-3.8v3.8zm72-3.8v-11.4h-3.8v15.2h3.8v-3.8zm-3.8 7.6v-3.8h-3.8v-7.6h-3.7v7.6H593v3.8h11.3zm-68.2-19h-7.6v3.8h11.4v7.6h3.8v-11.4h-7.6zm-3.8 22.8v-15.2h-3.8v19h3.8V839zm-15.2-19h3.8v-3.8h-11.4v3.8h7.6zm-60.6 7.6v3.8h-3.8v3.8h7.6V820h7.6v-3.8h-15.2v3.8h3.8v7.6zm-19-7.6v11.4h3.8v-15.2h-3.8v3.8zm-7.6 11.4h-3.8v3.8h11.4v-3.8h-7.6zm0-3.8v-3.8h-3.8v-7.6h-3.7v15.2h3.7v-3.8h3.8zm3.8-7.6v-3.8h-3.8v7.6h3.8V820zm-22.7-3.8h-3.8v-7.6h-3.8V820h11.4v7.6h3.8v-11.4H411zm56.9-22.7v-3.8h7.5v-3.8h-11.3v11.4h3.8v-3.8zm18.9 0H483v3.8h11.4v-3.8h-7.6zm22.7 0h3.8v3.8h-3.8v-3.8zm-7.5 0h3.8v3.8H502v-3.8zm178.2-15.2h-3.8v7.6h3.8v-7.6zm-3.8-7.6h3.8v3.8h-3.8v-3.8zm15.1 3.8h3.8v3.8h-3.8v-3.8zm-219.9 3.8h-3.7v3.8h7.5v-3.8h-3.8zm3.8 3.8h3.8v3.8h-3.8v-3.8zm284.4-3.8v-3.8h-7.6v3.8h7.6zm-201 7.6v-11.4h-7.6v3.8h3.8v3.8h-3.8v-3.8h-3.7v7.6h7.5v3.8h11.4v-3.8h-7.6zm-3.8-19h3.8v3.8H555v-3.8zm-22.7 0v22.8h3.8v-26.5h-3.8v3.7zm219.9 0h3.8v3.8h-3.8v-3.8zm-250.2 19h-3.8v-3.8h-3.8v3.8h-3.8v-3.8h-3.8v7.6h7.6v3.8h3.8v-3.8h11.3v-3.8H502zm45.5-19h3.8v3.8h-3.8v-3.8zm-56.9 11.4h3.8v3.8h-3.8v-3.8zm22.7 0h-3.8v7.6h3.8v-7.6zm3.8 11.4h11.4v-26.5h-3.8v22.7h-11.4v3.8h3.8zm53.1-11.4h-3.8v7.6h3.8v-7.6zm159.2 15.2h-7.6v3.8h7.6v-3.8zM646 766.9v22.8h3.8v-26.5H646v3.7zm87.2 22.8h30.3v-11.4h-3.7v7.6h-11.4v-3.8h-3.8v-18.9h-3.8v22.7h-7.6v-7.6h-3.8v15.2h3.8v-3.8zm-140.2 0v-11.4h-3.8v7.6h-11.4v-3.8H574v3.8h-3.8v3.8H593zm94.7-11.4h3.8v3.8h-3.8v-3.8zm22.8 0h3.8v3.8h-3.8v-3.8zm-41.7 7.6H665v-22.7h-3.8v26.5h15.2v-3.8h-7.6zm45.5 11.4v-3.8h-11.4v3.8h11.4zm-102.4-19h-3.8v3.8h7.6v-3.8h-3.8zm106.2 11.4v-7.6h-3.8v3.8h-3.8v-3.8h-3.8v7.6h7.6v3.8h3.8v-3.8zm-110-3.8h-7.6v-22.7h-3.8v26.5h19v-3.8h-7.6zm7.6-15.2h3.8v3.8h-3.8v-3.8zm-37.9 7.6h3.8v3.8h-3.8v-3.8zm117.5 3.8h-3.8v3.8h-11.3v3.8h18.9v-11.4h-3.8v3.8zm53.1-3.8h3.8v3.8h-3.8v-3.8zm-56.9-11.4h3.8v3.8h-3.8v-3.8zm-60.6 22.8h11.3v-26.5h-3.7v22.7h-11.4v-3.8h-11.4v3.8h7.6v3.8h7.6zm-41.7-11.4v-3.8h-7.6v3.8h7.6zm-134.6-53.1h3.8v3.8h-3.8v-3.8zm405.6 0h3.8v3.8h-3.8v-3.8zM466 729h3.8v3.8H466V729zm447.3 11.4v-22.7h-3.8v26.5h3.8v-3.8zm-436-11.4v-11.3h-3.8v15.1h3.8V729zm3.8-7.5v22.7h3.8v-26.5h-3.8v3.8zm-37.9 3.7h3.8v3.8h-3.8v-3.8zm26.5 15.2v-3.8H466v3.8h-3.8v3.8h15.1v-7.6h-3.8v3.8h-3.8zm432.2-15.2h3.8v3.8h-3.8v-3.8zm-432.2 7.6h3.8v3.8h-3.8v-3.8zm-7.5-7.6h3.8v3.8h-3.8v-3.8zM466 748h3.8v3.8H466V748zm3.7 11.4h3.8v-3.8H466v-3.8h-3.8v7.6h7.5zm-34.1-34.2h3.8v3.8h-3.8v-3.8zm174.4 0h3.8v3.8H610v-3.8zm49.3-3.7v22.7h3.8v-26.5h-3.8v3.8zm-91 18.9v-3.8h-3.8V748h3.8v-7.6zm3.8 7.6h-3.8v3.8h11.4V748h-7.6zm113.7 3.8h7.6V748h-15.2v3.8h7.6zm-83.4-11.4h-3.8v3.8H610v-3.8h-7.6zm-15.1 0h-3.8v-7.6h-3.8V748h3.8v-3.8h11.3v-3.8h-7.5zm90.9 0h-3.7v7.6h3.7v-7.6zm-79.6-7.6h-3.8v7.6h3.8v-7.6zm102.4 7.6v3.8h7.6v3.8h3.8v-11.4h-3.8v3.8h-3.8v-3.8H701v3.8zm22.8 11.4V748h-7.6v3.8h7.6zm-170.6-11.4h-11.4v-7.6H538v7.6h-7.6v3.8h22.8v-3.8zm151.6-7.6h3.8v3.8h-3.8v-3.8zm22.7 11.4v-11.4h-3.7V748h3.7v-3.8zm-37.9-7.6h3.8v-3.8H682v3.8h7.6zm-75.8-3.8H610v7.6h3.8v-7.6zm64.4 3.8h3.8v3.8h-3.8v-3.8zm0-7.6h-3.7v3.8h7.5V729h-3.8zm22.8 19h-3.8v3.8h11.4V748H701zm-182-7.6h-11.4v3.8h3.8v3.8h3.8v-3.8h11.4v-3.8H519zm227.5 7.6h-3.8v3.8h11.4V748h-7.6zm-242.6 0h-3.8v3.8h11.3V748h-7.5zm272.9-15.2V729h-7.6v3.8h7.6zm-155.4 7.6h-7.6v3.8H629v-3.8h-7.6zm121.3 0v-3.8h-3.8V748h3.8v-7.6zm-193.3-7.6V729h-7.6v3.8h7.6zm-19 0v-15.1h-3.8v22.7h3.8v-7.6zm-30.3 7.6v-3.8h-3.8V748h3.8v-7.6zm155.4 3.8v-26.5h-3.8v22.7h-11.4v-3.8H629v3.8h7.5v3.8h19zm-30.3-11.4h-3.8v3.8h7.6v-3.8h-3.8zM594.8 748h3.8v3.8h-3.8V748zm-18.9-22.8h3.8v3.8h-3.8v-3.8zm11.4 22.8h3.8v3.8h-3.8V748zm163-22.8h3.8v3.8h-3.8v-3.8zm7.6 19h22.7v-3.8h-11.4v-7.6h-3.7v7.6h-7.6v-7.6h-3.8V748h3.8v-3.8zM386.3 729h3.8v3.8h-3.8V729zm45.5 11.4H428v-7.6h-3.8V748h3.8v-3.8h11.4v-3.8h-7.6zm11.4-7.6h-3.8v7.6h3.8v-7.6zm15.2 11.4v-11.4h-3.8v7.6h-11.4v3.8h15.2zm348.8 3.8h3.8v3.8h-3.8V748zm-428.4-19h3.8v3.8h-3.8V729zm485.2 7.6v3.8h-15.2v3.8h19v-11.4H864v3.8zm-68.2 56.9h3.8v3.8h-3.8v-3.8zM416.7 748v3.8h7.5V748h-7.5zm398 0h3.8v3.8h-3.8V748zm-26.5 45.5h3.8v3.8h-3.8v-3.8zm45.5-60.7h-3.8v7.6h3.8v-7.6zm34.1-7.6h3.8v3.8h-3.8v-3.8zm-30.3 15.2h-3.8v3.8h11.4v-3.8h-7.6zm11.3-7.6v3.8h3.8V729h-11.3v7.6h3.8v-3.8h3.7zm-3.7 3.8h3.8v3.8h-3.8v-3.8zm-60.6 49.3h-3.8v3.8H792v-3.8h-7.5zm41.6-37.9h3.8v3.8h-3.8V748zm-18.9-7.6h-3.8v-7.6h-3.8V748h3.8v-3.8h11.3v-3.8h-7.5zm15.1 0h-3.8v3.8h11.4v-3.8h-7.6zM792 748v3.8h7.6V748H792zm26.5-15.2h-3.8v7.6h3.8v-7.6zm-37.8 45.5v-3.8h-3.8v11.4h3.8v-7.6zm34.1-7.6h3.8v3.8h-3.8v-3.8zm-428.5-30.3H375v3.8h18.9v-3.8h-7.6zm11.4-7.6h-3.8v7.6h3.8v-7.6zm11.4 3.8v3.8h-11.4v3.8h15.2v-11.4h-3.8v3.8zM811 774.5h3.8v3.8H811v-3.8zm3.8-11.3h3.8v3.8h-3.8v-3.8zM375 732.8h-3.8v7.6h3.8v-7.6zm443.6 45.5h-3.8v3.8h-11.4v3.8h19v-11.4h-3.8v3.8zm87.1-37.9v-7.6h-3.8v7.6h-11.4V729H883v3.8h3.8v3.8H883v-3.8h-3.8v7.6h7.6v3.8h18.9v-3.8zm-117.5 37.9v3.8h3.8v3.8h3.8v-7.6H792v-3.8h-3.8v3.8zm125.1-22.7h-3.8v-3.8h-3.8v7.6h11.4v-3.8h-3.8zm-109.9 18.9h-3.8v7.6h3.8v-7.6zM909.5 748h3.8v3.8h-3.8V748zm-113.7 22.7H792v3.8h7.6v-3.8h-3.8zm-386.7-45.5h3.8v3.8h-3.8v-3.8zm-9.5-189.5v3.8h-11.4v22.8h-7.6v-3.8h3.8v-19H373v-3.8h26.6zm15.2 7.6v15.2H411v-3.8h-7.6v-15.2h3.8v11.4h3.8v-7.6h3.8zm-11.4 15.1h7.6v3.8h-7.6v-3.8zm3.8-22.7h7.6v3.8h-7.6v-3.8zm11.4 3.8H430v15.2h-7.6v7.6h-3.8v-22.8zm7.5 11.3v-7.6h-3.8v7.6h3.8zm7.6 3.8h3.8v7.6h-3.8v-7.6zm11.4-11.3v-7.6h11.4v3.8h-7.6v3.8h7.6v11.4h-3.8v7.6h-3.8v-7.6h-3.8v7.6h-3.8v-7.6h-3.8v-11.4h7.6zm7.6 7.6v-3.8h-11.4v3.8h11.4zm3.8 3.7h3.8v7.6h-3.8v-7.6zm18.9-18.9v3.8h3.8v-3.8h3.8v3.8h7.6v3.8h-3.8v3.8h3.8v3.8h-3.8v3.8h3.8v3.8h-3.8v3.8H483v-3.8h-7.6v-3.8h7.6v-3.8h-7.6v3.8h-3.8v-7.6h3.8v-3.8h-3.8v-3.8h-3.8v3.8h3.8v3.8h-3.8v7.6h3.8v3.8h-3.8v3.8H464v-26.5l11.4-.1zm7.6 11.4v-3.8h-3.8v3.8h3.8zm30.3-11.4v3.8h7.6v3.8h-7.6v3.8h3.8v3.8h-3.8v3.8h3.8v-3.8h3.8v7.6h-7.6v3.8h-3.8v-3.8H502v3.8h-3.8v-15.2h-3.8v-3.8h3.8v-7.6h3.8v3.8h7.6v-3.8h3.7zm-7.5 15.1v3.8h3.8v-3.8h-3.8v-7.6H502v7.6h3.8zm41.7-15.1v11.4h3.8v3.8h-3.8v3.8h-7.6v3.8h11.4v3.8h-19v-3.8h3.8v-7.6h-11.3v-3.8h3.8v-11.4h18.9zm-22.8 22.7h3.8v3.8h-3.8v-3.8zm3.8-3.8h3.8v3.8h-3.8v-3.8zm15.2-7.5v-3.8h-11.4v3.8h11.4zm37.9 0v3.8H555v-3.8h26.6zm11.4-7.6v-3.8h3.8v3.8h3.8v3.8h-3.8v3.8h3.8v3.8h-3.8v3.8h3.8v3.8h-3.8v3.8h-7.6v-3.8h3.8v-7.6h-7.6v-3.8h3.8v-3.8h-3.8v-3.8h7.6zm-7.6 15.1h3.8v3.8h-3.8v-3.8zm15.2-11.3h3.8v3.8h-3.8v-3.8zm0 15.1h3.8v3.8h-3.8v-3.8zm3.8-22.7h3.8v3.8h3.8v3.8h-7.6v-7.6zm0 11.4h3.8v11.4h-3.8v-11.4zm3.8 11.3h3.8v3.8h-3.8v-3.8zm7.5-18.9h3.8v22.8h-3.8v-22.8zm7.6-3.8v3.8h-3.8v-3.8h3.8zm0 3.8h3.8v-3.8h11.4v3.8h3.8v7.6h-3.8v-3.8h-3.8v3.8h3.8v3.8h-3.8v3.8h3.8v3.8h-3.8v3.8h-7.6v-3.8h3.8v-3.8h-3.8v-3.8h-3.8v-11.4zm0 15.1h3.8v3.8h-3.8v-3.8zm7.6-7.5v-3.8h-3.8v3.8h3.8zm7.6 3.7h3.8v3.8h-3.8v-3.8zm0 7.6h3.8v3.8h-3.8v-3.8zm7.5-15.1h3.8v-3.8h7.6v-3.8h3.8v3.8h7.6v3.8h3.8v3.8H665v3.8h3.8v7.6H665v-3.8h-3.8v7.6h-7.6v-3.8h3.8v-3.8h-3.8v3.8h-3.8v-7.6h3.8v-3.8H646v-3.8zm3.8 15.1v3.8H646v-3.8h3.8zm19 0h3.8v3.8h-3.8v-3.8zm7.6 0h3.8v3.8h-3.8v-3.8zm22.7-22.7v22.8h3.8v3.8h-7.6v-7.6h-3.8v-3.8h3.8v-3.8h-3.8v-3.8h3.8v-3.8h-11.4v3.8h3.8v3.8h-3.8v3.8h3.8v3.8h-3.8v3.8h-3.8v-22.7l19-.1zm-11.4 11.4h3.8v3.8h-3.8v-3.8zm19 11.3V547h3.8v-3.8h-3.8v-3.8h3.8v-3.8h3.8v3.8h3.8v3.8h-3.8v3.8h3.8v3.8h-3.8v11.4h-3.8v-3.8h-3.8zm11.4-15.1h3.8v3.8h-3.8v-3.8zm0 7.6h3.8v-3.8h3.8v3.8h7.6v3.8h-3.8v7.6h-11.4v-11.4zm3.7-15.2h3.8v3.8h3.8v7.6h-3.8v-3.8h-3.8v-7.6zm3.8 22.7v-3.8h-3.8v3.8h3.8zm19-22.7v3.8h3.8v3.8h3.8v3.8h-3.8v15.2H737v-19h3.8v3.8h3.8v-3.8h-3.8v-7.6h3.8zm0 22.7v-7.6h-3.8v7.6h3.8zm7.6-22.7h3.8v3.8h7.6v22.8H756v-3.8h3.8v-15.2h-7.6v-7.6zm0 11.4h3.8v7.6h-3.8v-7.6zm26.5 11.3v-3.8h3.8v3.8h3.8v3.8h-18.9v-3.8h11.3zm-7.6-19h3.8v3.8h-3.8v-3.8zm0 11.4h7.6v3.8h-7.6v-3.8zm3.8-15.2h15.2v7.6h-3.8v-3.8h-11.4v-3.8zm0 7.6h3.8v3.8h-3.8v-3.8zm3.8 3.8h3.8v-3.8h3.8v3.8h7.6v7.6h-3.8v-3.8h-11.4V547zm7.6 7.6h3.8v3.8h-3.8v-3.8zm11.4-11.3h7.6v11.4h3.8v-3.8h3.8v-3.8H809v-3.8h3.8v-3.8H809v-3.8h15.2v3.8h-7.6v3.8h7.6v19H809v-3.8h-3.8v3.8h-3.8v-15.2h-3.8l.1-3.8zm7.6-7.6v3.8h-3.8v-3.8h3.8zm15.1 22.7v-3.8h-7.6v3.8h7.6zm0-7.6V547h-3.8v3.8h3.8zm19-11.3v-3.8h3.8v3.8h11.4v3.8H828v-3.8h11.4zm-7.6 11.3h3.8V547H847v3.8h3.8v11.4h-19v-11.4zm15.2 7.6v-3.8h-11.4v3.8H847zm26.5-7.6V547h-7.6v-3.8h-3.8v3.8h-3.8v-7.6h11.4v-3.8h3.8v3.8h11.4v7.6h-3.8v-3.8h-3.8v7.6h7.6v3.8h-11.4v7.6h-7.6v-3.8h3.8v-3.8h-11.4v-3.8h15.2zm34.1-15.1v3.8h7.6v3.8h-7.6v3.8h3.8v3.8h-3.8v3.8h3.8v-3.8h3.8v7.6h-7.6v3.8h-3.8v-3.8h-7.6v3.8h-3.8v-15.2h-3.8v-3.8h3.8v-7.6h3.8v3.8h7.6v-3.8h3.8zm-7.6 15.1v3.8h3.8v-3.8H900v-7.6h-3.8v7.6h3.8zm-341.2 41.7h3.8v11.4h-11.4v-7.6h3.8v3.8h3.8v-3.8H555v-3.8h-3.8v-3.8h7.6v3.8zm7.6-3.7h3.8v7.6h-3.8v-7.6zm7.6 7.5v7.6h-3.8v-7.6h3.8zm0-7.5h3.8v7.6H574v-7.6zm15.2 3.7h3.8v11.4h-11.4v-7.6h3.8v3.8h3.8v-3.8h-3.8v-3.8h-3.8v-3.8h7.6v3.8zm11.3-11.3v3.8h-3.8v-3.8h3.8zm-3.7 7.6h3.8V604h-3.8v-15.2zm11.3-7.6v22.7h-3.8v-22.7h3.8zm11.4 11.3h3.8v11.4h-11.4v-7.6h3.8v3.8h3.8v-3.8h-3.8v-3.8h-3.8v-3.8h7.6v3.8zm11.4-11.3v7.6h7.6v11.4h-3.8v-7.6h-3.8v7.6h3.8v3.8h-7.6v-22.7l3.8-.1zm15.1 0v22.7h-3.8v-22.7h3.8zm7.6 11.3v3.8h3.8v3.8h3.8v3.8h-7.6v-3.8h-3.8v-7.6h3.8zm0-3.7h7.6v7.6h-3.8v-3.8h-3.8v-3.8zm22.8-7.6v3.8h-3.8v-3.8h3.8zm-3.8 7.6h3.8V604h-3.8v-15.2zm15.1 3.7h-3.8v11.4h-3.8v-15.2h7.6v3.8zm0 0h3.8v11.4h-3.8v-11.4zm26.6-7.5v7.6h-3.8v-3.8h-7.6V585h11.4zm-7.6 7.6h3.8V604h-3.8v-11.4zm22.7-3.8v11.4h-3.8v-7.6h-3.8v7.6h3.8v3.8h-3.8v7.6H718v-22.7l11.4-.1zm3.8 0h3.8v3.8h-3.8v-3.8zm3.8 7.5v7.6h-3.8v-7.6h3.8zm0-3.7h3.8v3.8H737v-3.8zm3.8-3.8h3.8v3.8h-3.8v-3.8zm0 7.5h3.8v7.6h-3.8v-7.6zm22.8-3.8h3.8v11.4H756v-7.6h3.8v3.8h3.8v-3.8h-3.8v-3.8H756v-3.8h7.6v3.8zm15.1 0h-3.8v11.4h-3.8v-15.2h7.6v3.8zm0 0h3.8v11.4h-3.8v-11.4zm15.2-3.7v-7.6h3.8v22.7h-11.4v-11.4h3.8v7.6h3.8v-7.6h-3.8v-3.8l3.8.1zm18.9 0v3.8h3.8v-3.8h-3.8V585h7.6v15.2h-3.8v-3.8H809v-7.6h3.8zm-3.7 11.3h7.6v3.8h-7.6v-3.8zm26.5-11.3v11.4h-3.8v-7.6H828v7.6h3.8v3.8H828v7.6h-3.8v-22.7l11.4-.1zm3.8 0h3.8v3.8h-3.8v-3.8zm3.8 7.5v7.6h-3.8v-7.6h3.8zm0-3.7h3.8v3.8h-3.8v-3.8zm3.8-3.8h3.8v3.8H847v-3.8zm0 7.5h3.8v7.6H847v-7.6zm-483.4 49.3h3.8v3.8h-3.8v-3.8zm3.8-11.4v-3.8h19v3.8h-3.8v3.8h-3.8v-3.8h-11.4zm0 7.6h3.8v3.8h-3.8v-3.8zm0 7.6h19v3.8h-18.9l-.1-3.8zm18.9-3.8h3.8v3.8h-3.8v-3.8zm7.6-7.6h3.8v7.6h-3.8V638zm3.8-3.8h3.8v3.8h-3.8v-3.8zm0 11.4h3.8v3.8h-3.8v-3.8zm3.8-11.4v-3.8h11.4v3.8h-3.8v7.6h-3.8v-7.6h-3.8zm0 7.6h3.8v3.8h-3.8v-3.8zm3.8 7.6h7.6v3.8h-7.6v-3.8zm7.6-15.2h3.8v3.8h-3.8v-3.8zm0 11.4h3.8v3.8h-3.8v-3.8zm3.8-7.6h3.8v7.6h-3.8V638zm30.3-7.5v11.4h-3.8v-7.6h-19v-3.8H447zm-19 19h7.6v3.8H428v-3.8zm7.6-3.8h3.8v3.8h-3.8v-3.8zm3.8-3.8h3.8v3.8h-3.8v-3.8zm30.4-3.9v-3.8h3.8v3.8h3.8v3.8h-3.8v11.4H466v-3.8h3.8v-3.8H466v-3.8h-7.6V638h11.4zm-11.4 7.6h7.6v3.8h-7.6v-3.8zm30.3-15.1h7.6v3.8h-7.6v-3.8zm11.4 19v3.8h-11.4v-3.8h11.4zm-3.8-15.2h3.8v3.7h-3.8v-3.7zm3.8 11.4h3.8v3.8h-3.8v-3.8zm3.8-3.8h3.8v3.8h-3.8v-3.8zm3.8-3.8h3.8v3.8h-3.8v-3.8zm18.9-11.4V638h7.6v3.8h-7.6v11.4h-3.8v-26.5h3.8zm7.6 15.1h3.8v3.8h-3.8v-3.8zm15.2-15.1v26.5h-3.8v-26.5h3.8zm3.7 7.5h11.4v-7.6h3.8v7.6h3.8v3.8h-3.8v11.4h-3.8v-3.8h-7.6v-3.8h7.6V638h-11.4v-3.8zm0 11.4h3.8v3.8h-3.8v-3.8zm3.8 3.8h7.6v3.8h-7.6v-3.8zm11.4 0h3.8v3.8h-3.8v-3.8zm19-15.2v11.4h-3.8v-11.4h3.8zm0-3.7h7.6v3.8h-7.6v-3.8zm0 15.1h7.6v3.8h-7.6v-3.8zm7.6-11.4h3.8v11.4h-3.8v-11.4zm18.9 0v11.4H610V638h-3.8v7.6h3.8v3.8h-3.8v7.6h-3.8v-22.8h11.4zm7.6 3.8v3.8h3.8v3.8h3.8v3.8h-7.6v-3.8h-3.8V638h3.8zm0-3.8h7.6v7.6h-3.8V638h-3.8v-3.8zm18.9 3.8h-3.8v11.4h-3.8v-15.1h7.6v3.7zm0 0h3.8v11.4h-3.8V638zm19-7.5v3.8h-7.6v15.2h-3.8v-15.2h-3.8v-3.8h15.2zm7.6 3.7v11.4h-3.8v-11.4h3.8zm-3.8 19h3.8v3.8h-3.8v-3.8zm3.8-7.5h3.8v7.6h-3.8v-7.6zm3.8-11.4h3.8v11.4h-3.8v-11.4zm18.9-.1v11.4h-3.8V638H682v7.6h3.8v3.8H682v7.6h-3.8v-22.8h11.4zm7.6 3.8v3.8h3.8v3.8h3.8v3.8h-7.6v-3.8h-3.8V638h3.8zm0-3.8h7.6v7.6H701V638h-3.8v-3.8zm41.7-3.7v11.4h-3.8v-7.6h-19v-3.8h22.8zm-18.9 19h7.6v3.8H720v-3.8zm7.5-3.8h3.8v3.8h-3.8v-3.8zm3.8-3.8h3.8v3.8h-3.8v-3.8zm30.4-3.9v-3.8h3.8v3.8h3.8v3.8h-3.8v11.4h-7.6v-3.8h3.8v-3.8h-3.8v-3.8h-7.6V638h11.4zm-11.4 7.6h7.6v3.8h-7.6v-3.8zm30.3-15.1h7.6v3.8h-7.6v-3.8zm11.4 19v3.8h-11.4v-3.8H792zm-3.8-15.2h3.8v3.7h-3.8v-3.7zm3.8 11.3h3.8v3.8H792v-3.8zm3.8-3.8h3.8v3.8h-3.8v-3.8zm3.8-3.8h3.8v3.8h-3.8V638zm18.9-11.3V638h7.6v3.8h-7.6v11.4h-3.8v-26.5h3.8zm7.6 15.1h3.8v3.8h-3.8v-3.8zm15.2 3.8h3.8v3.8h-3.8v-3.8zm7.6-19V638h-3.8v-11.3l3.8-.1zm-3.8 15.2h3.8v3.8h-3.8v-3.8zm0 7.6h19v3.8h-19v-3.8zm3.8-11.4h7.6v3.8h-7.6V638zm7.5-3.8h7.6v3.8h-7.6v-3.8zm19-7.5v22.8h-3.8v-22.8h3.8zm0 22.7h11.4v3.8h-11.4v-3.8zm11.4-3.8h3.8v3.8h-3.8v-3.8zm22.7-15.1v3.8h-11.4v-3.8h11.4zm-3.8 7.5h3.8v11.4h-3.8V638zm3.8-11.4h15.2v3.8h-7.6v3.8h-3.8v-3.8h-3.8v-3.8zm0 7.6h3.8v3.8h-3.8v-3.8zm0 15.2h11.4v3.8h-11.4v-3.8zM407.2 676v3.8h3.8v3.8h-3.8v7.6h-3.8V676h3.8zm3.8 11.3h3.8v-7.6H411V676h3.8v-3.8h3.8v3.8h7.6v3.8h-7.6v7.6h7.6v3.8h-7.6v3.8h-3.8v-3.8H411v-3.9zm0 7.6h3.8v3.8H411v-3.8zm15.2-15.2h3.8v7.6h-3.8v-7.6zm15.1-3.7v-3.8h3.8v3.8h3.8v3.8h-3.8v3.8h-3.8v-3.8h-7.6V676h7.6zm-7.6 19h3.8v3.8h-3.8V695zm3.8-11.4h3.8V695h-3.8v-11.4zm7.6 7.6h3.8v3.8h-3.8v-3.8zm3.8-11.4h11.4v3.8h-11.4v-3.8zm0 7.6h3.8v3.8h-3.8v-3.8zm0 7.6h11.4v3.8h-11.4V695zm22.7-15.3v-7.6h3.8v7.6h3.8v3.8h-3.8v3.8h-3.8v-3.8H464v-3.8h7.6zm-7.5 15.2h3.8v3.8h-3.8v-3.8zm3.8-7.6h3.8v7.6h-3.8v-7.6zm3.7 7.6h7.6v3.8h-7.6v-3.8zm7.6-11.4h3.8v11.4h-3.8v-11.4zm3.8-3.8h3.8v3.8H483v-3.8zm3.8 3.8h3.8v7.6h-3.8v-7.6zM502 676v-3.8h3.8v3.8h3.8v3.8h-3.8v3.8H502v-3.8h-7.6V676h7.6zm-7.6 11.4h3.8v3.8h-3.8v-3.8zm3.8-3.8h3.8v3.8h-3.8v-3.8zm3.8 7.6h3.8v3.8H502v-3.8zm3.8-3.8h7.6v-3.8h3.8v7.6h3.8v3.8h-7.6v-3.8h-7.6v-3.8zm0 7.6h7.6v3.8h-7.6V695zm7.6-19h3.8v3.8h-3.8V676zm3.8 3.8h3.8v3.8h-3.8v-3.8zm11.3-3.8v-3.8h3.8v3.8h3.8v3.8h-3.8v3.8h3.8v3.8h-3.8v7.6h3.8v3.8h-7.6V695h-3.8v-11.4h3.8v-3.8h-3.8V676h3.8zm7.6-3.8h3.8v3.8h-3.8v-3.8zm0 7.6h3.8v3.8h-3.8v-3.8zm0 7.6h3.8v-3.8h3.8v3.8h3.8v-3.8h3.8v7.6h-3.8v3.8h-3.8v-3.8h-3.8v3.8h-3.8v-7.6zm3.8-11.4h3.8v3.8h-3.8V676zm0 19h3.8v3.8h-3.8V695zm3.8-22.8h3.8v3.8h-3.8v-3.8zm0 7.6h3.8v3.8h-3.8v-3.8zm3.8-3.8h3.8v3.8h-3.8V676zm0 19h3.8v3.8h-3.8V695zm11.3-22.8v3.8h3.8v-3.8h3.8v7.6H555v-7.6h3.8zm-3.7 11.3h11.4v15.2h-3.8v-3.8h-3.8v3.8h-3.8v-15.2zm7.5 7.6v-3.8h-3.8v3.8h3.8zm7.6-19h3.8v3.9h3.8v3.8h3.8v3.8H574v-3.8h-3.8v-7.7zm0 11.4h3.8v3.8h7.6v3.8H574v3.8h-3.8v-11.4zm3.8 11.4h7.6v3.8H574v-3.8zm3.8-22.7h3.8v3.8h-3.8v-3.8zm7.6 15.1h3.8v3.8h-3.8v-3.8zm11.4-11.3v-3.8h3.8v3.8h7.6v3.8h-11.4v3.8H593v-3.8h-3.8V676h7.6zm-7.6 7.6h3.8v3.8h-3.8v-3.8zm3.8 7.6h3.8v3.8h3.8v-3.8h-3.8v-7.6h3.8v3.8h3.8v7.6h7.6v3.8h-19v-7.6zm11.3-7.6h7.6v3.8h-7.6v-3.8zm15.2-3.9v-7.6h3.8v7.6h7.6v-7.6h3.8v7.6h7.6v3.8h-7.6v11.4h-3.8v-11.4h-7.6v7.6h-3.8v-7.6h-3.8v-3.8h3.8zm7.6 15.2h3.8v3.8h-3.8v-3.8zm30.3-15.2v-7.6h3.8v3.8h3.8v3.8h3.8v3.8h-7.6v15.1h-7.6v-3.8h3.8v-11.4H646v-3.8h11.4v.1zM646 691.1h3.8v3.8H646v-3.8zm3.8-3.8h3.8v3.8h-3.8v-3.8zm15.2-15.1h3.8v3.8H665v-3.8zm0 15.1h3.8v3.8H665v-3.8zm3.8-11.3h3.8v3.8h-3.8V676zm0 15.2h3.8v3.8h-3.8v-3.8zm30.3-7.7v3.8h-19v-3.8h19zm19-11.3v11.4h7.6v3.8h-7.6v11.4h-3.8v-26.5h3.8v-.1zm7.5 15.1h3.8v3.8h-3.8v-3.8zm19-15.1V695h-3.8v-22.8h3.8zm0 22.7H756v3.8h-11.4v-3.8zm11.4-3.8h3.8v3.8H756v-3.8zm22.7-15.1v3.8h-11.4V676h11.4zm-3.8 7.6h3.8V695h-3.8v-11.4zm3.8-11.4h15.2v3.8h-7.6v3.8h-3.8V676h-3.8v-3.8zm0 7.6h3.8v3.8h-3.8v-3.8zm0 15.2h11.4v3.8h-11.4V695zm22.8-19v19h-3.8v-19h3.8zm0 19h7.6v3.8h-7.6V695zm7.5-3.8h3.8v3.8H809v-3.8zm7.6-15.2h3.8v3.8h-3.8V676zm3.8 3.8h3.8V695h-3.8v-15.2zm26.6-7.6v3.8h7.6v3.8H847v3.8h7.6v3.8H847v3.8h3.8v3.8h-7.6v-3.8h-7.6v-3.8h-3.8v-3.8h11.4v-3.8h-11.4V676h11.4v-3.8h3.8zm-15.2 19h3.8v3.8h-3.8v-3.8zm3.8 3.7h7.6v3.8h-7.6v-3.8zm15.2 0h3.8v3.8h-3.8v-3.8zm22.7-18.9v-3.8h3.8v3.8h7.6v3.8h-7.6V695h-3.8v-3.8h-7.6v-3.8h7.6v-3.8h-7.6v-3.8h-7.6V676h15.2zm-11.4 7.6h3.8v3.8h-3.8v-3.8zm3.8 11.4h7.6v3.8h-7.6V695zM445.1 588.8v3.8h-3.8v3.8h-3.8v-7.6h7.6zm-7.6 15.1v-3.8h3.8v-3.8h3.8v7.6h-7.6zm15.2-15.1h7.6v22.7h-3.8v-7.6h-7.6v-11.4h3.8v7.6h3.8v-7.6h-3.8v-3.7zm15.2 0v11.4h-3.8v-11.4h3.8zm3.7 0h3.8V604h-7.6v-3.8h3.8v-11.4zm15.2 0v3.8h3.8V604h-11.4v-7.6h3.8v3.8h3.8v-3.8H483v-3.8h-3.8v-3.8h7.6zm7.6 3.7h3.8v11.4h-3.8v-11.4zm3.8 0v-3.8h3.8v3.8h-3.8zm7.6 0h3.8v3.8h3.8v3.8h3.8v3.8h-7.6v-3.8h-3.8v-7.6zm3.8-3.7h7.6v7.6h-3.8v-3.8h-3.8v-3.8zm11.3-7.6h3.8v22.7h-3.8v-22.7zm11.4 7.6v11.4h-3.8v-11.4h3.8zm0 22.7h-3.8v-3.8h3.8v3.8zm0-3.8v-7.6h3.8v7.6h-3.8zm3.8-19h3.8v11.4h-3.8v-11.4z" style="fill:#040404"/></svg>