<svg xmlns="http://www.w3.org/2000/svg" viewBox="0 0 1280 960"><path d="M253.9 330.3v2.7h-2.7v2.6h-2.6V333h-5.3v2.6h-2.6V333h-5.3v-2.6h8v-2.7h2.7v2.7l7.8-.1zm-18.6 8v-2.6h5.3v2.6h-5.3zm0 8V341h2.6v5.3h-2.6zm8-2.7h8v2.6h-10.7V341h2.6l.1 2.6zm2.7-8v2.6h-2.7v-2.6h2.7zm2.6 2.7v2.7h-2.7v-2.7h2.7zm5.3-2.7v2.6h-2.7v-2.6h2.7zm0 8h-2.7V341h2.6l.1 2.6zm21.2-13.3v2.7h-2.6v2.6h2.6v2.6h-2.6v8h-13.3v-8h-2.6v-2.6h2.6V333h-2.6v-2.6h5.3v-2.7h2.6v2.7h2.6v-2.7h2.7v2.7l5.3-.1zm-5.3 5.3V333h-8v2.6h8zm0 5.3v-2.7h-8v2.7h8zm10.6 5.3h-2.7v-2.6h2.7v2.6zm0-15.9h2.6v2.7h13.3v5.3h-2.6v-2.6h-5.3v5.3h-2.6v-5.3H283v8h-2.6v-13.4zm2.6 0v-2.7h13.3v2.7H283zm0 15.9v-2.6h5.3v2.6H283zm8-2.6h-2.6V341h2.6v2.6zm2.7-2.7H291v-2.7h2.7v2.7zm2.6 5.3H291v-2.6h5.3v2.6zm18.6-18.5v2.7h2.7v5.3h-2.7V333h-2.6v2.6h2.6v2.6h-2.6v2.7h2.6v2.6h-2.6v2.6H307v-2.6h2.6V341h-2.7v-2.7h-2.6v2.7h2.6v2.6h-2.6v2.6H299v-2.6h2.6v-5.3H299v-2.6h2.6V333h2.7v2.6h2.6V333h-2.6v-2.6H299v-2.7h8v2.7h2.6v-2.7h5.3zm2.6 10.6v2.7h-2.7v-2.7h2.7zm0 5.3v2.6h-2.7v-2.6h2.7zm21.2-13.3v2.7h-2.6v2.6h2.6v2.6h-2.6v8h-13.3v-8h-2.6v-2.6h2.6V333h-2.6v-2.6h5.3v-2.7h2.7v2.7h2.6v-2.7h2.6v2.7l5.3-.1zm-5.3 10.6v-2.7h-8v2.7h8zm-2.6-5.3V333h-2.6v2.6h2.6zm29.1-5.3v2.7h-2.6v2.6h2.6v10.6h-10.6v-8h-2.6v8h-5.3v-2.6h2.6V341h-2.6v-2.7h2.6v-2.6h-2.6V333h2.6v-2.6h5.3v-2.7h2.7v2.7h2.6v-2.7h2.6v2.7l2.7-.1zm-18.5 0v-2.7h2.6v2.7h-2.6zm5.3 2.7v2.6h2.6V333h-2.6zm5.3 2.6h2.6V333H352v2.6zm5.3 8V341H352v2.6h5.3zm15.9-13.3h-2.6v2.7h2.6v2.6h8v5.3h-2.6v-2.7h-2.7v2.7h-2.7v-2.7h-2.6v-2.6h-5.3v2.6h-2.7V333h5.3v-2.6h-5.3v-2.7h10.6v2.6zm-2.6 8v2.7h2.6v2.6h-2.6v2.6h-2.7v-2.6h-5.3V341h2.7v-2.7h5.3zm5.3-5.3h-2.6v-2.6h2.6v2.6zm0 13.2h-2.6v-2.6h2.6v2.6zm0-18.5h5.3v5.3h-2.6v-2.6h-2.7v-2.7zm2.6 15.9h-2.7V341h2.7v2.6zm2.7 0v2.6h-2.6v-2.6h2.6zm58.3-8h-2.6v2.6h2.6v2.7h-13.3v-2.7h8v-2.6h-8v-5.3h2.6v2.7h2.6v-2.6h-2.6v-2.7h8v2.7h-2.7v2.6h5.3v2.6zm-10.6 10.6h-2.6v-2.6h2.6v2.6zm5.3 0h-2.6v-2.6h2.6v2.6zm5.3 0h-2.6v-2.6h2.6v2.6zm2.7-18.5v2.7h2.6v5.3h-2.6V333h-2.6v-5.3h2.6zm0 10.6h-2.6v-2.6h2.6v2.6zm2.6 0v2.7h-2.6v-2.7h2.6zm0 8h-2.6v-2.6h2.6v2.6zm15.9-10.7h2.7v2.6h-2.7v2.7h-2.6v-2.7h-2.6v-2.6h-2.6v2.6h2.6v2.7h-2.6v2.6h2.6v2.6h-5.3v-2.6h-2.7v-5.3h2.7v-2.6h-2.7V333h2.7v-2.6h-2.7v-2.7h8v2.7h-2.6v2.6h2.6v-2.6h2.6v-2.7h2.6v7.9zm-2.6 8h-2.6V341h2.6v2.6zm5.3-2.6v2.6h-2.7V341h2.7zm0-10.6h2.6v5.3h-2.6v-5.3zm2.6 13.2v2.6h-2.6v-2.6h2.6zm191-13.3v5.3h-2.7V333h-8v2.6h-2.7V333H641v2.6h-2.7v-5.3h8v-2.7h2.6v2.7h8.1zm-18.6 8h2.7v-2.6h2.7v8h2.7v2.6h-5.3V341h-2.7v-2.7zm8-2.7h2.6v5.3h-2.7l.1-5.3zm5.3 8H649V341h2.7v2.6zm0-2.6v-5.3h2.7v5.3h-2.7zm5.3 5.3h-5.3v-2.6h5.3v2.6zm2.6-13.3v-2.6h2.7v2.6h-2.7zm10.6-2.6h2.7v2.6h2.7v13.3h-13.3V333h2.7v-2.6h-2.7v-2.7h8l-.1 2.7h-2.7v2.6h2.7v-2.6zm-2.6 5.2h-2.7v2.6h2.7v-2.6zm-2.7 5.4v2.6h2.7V341h-2.7zm5.3-2.7h2.7v-2.6h-2.7v2.6zm0 5.3h2.7V341h-2.7v2.6zm2.7-15.9h5.3v5.3h-2.7v-2.6h-2.7v-2.7zm10.6 13.2h-2.7v-2.7h2.7v2.7zm0 5.3h-2.7v-2.6h2.7v2.6zm10.6-18.5v2.7h2.7v2.7h-2.7v2.6h-2.7V333h-5.3v2.6h5.3v5.3h-5.3v-2.7h-2.7v-8h8v-2.7l2.7.2zm-2.6 13.2h2.7v2.6h2.7v2.6h-10.6v-2.6h5.3v-2.6zm5.3-2.6h-2.7v-2.6h2.7v2.6zm0-10.6h2.7v2.7h-2.7v-2.7zm2.6 5.3v2.6h-2.7V333h2.7zm0 10.6h-2.7v-5.3h2.7v5.3zm63.7-13.3v5.3h-2.7V333h-2.7v2.6H755v2.6h8v2.7h-8v5.3h-5.3v-2.6h2.7V341h-8v-2.7h8v-2.6h-2.7V333H747v2.6h-2.7v-5.3h8v-2.7h2.7v2.7h8.1zm7.9 2.7v-5.3h2.7v18.6H771v-2.6h-2.7V341h2.7v-5.3h-5.3V333h5.3zm-2.7 13.3h-2.7v-2.6h2.7v2.6zm10.7-10.7v8h-2.7v-16h2.7v5.3h2.7v2.6l-2.7.1zm5.3 10.6H779v-2.6h2.7V341h2.7l-.1 5.2zm-2.7-15.9h2.7v2.7h-2.7v-2.7zm10.6 2.7v5.3h2.7v2.7h-2.7v5.3h-2.7v-2.6H787v-8h2.7V333H787v-2.6h2.7v-2.7h2.7v2.7h2.7v2.6h-2.9zm8-2.6v5.3h5.3v8h-2.7v-5.3h-8v-2.6h2.7v-5.3h-2.7v-2.7h10.6v2.7l-5.2-.1zm-2.6 15.9v-2.6h5.3v2.6h-5.3zm31.8-18.6h2.6v2.7h-2.7l.1-2.7zm0 8V333h2.6v2.6l-2.6.1zm0 2.6h2.6v8h-2.7l.1-8zm18.6-10.6v2.7h-2.7v2.7h-2.7v2.6h2.7V333h2.7v13.3h-2.7v-2.6h-10.6v-5.3H832v-2.6h2.7v-5.3h2.7v-2.7l10.6-.1zm-10.6 8h2.6V333h-2.7l.1 2.7zm0 2.6v2.7h2.6v-2.7h-2.6zm7.9 2.7v-2.7h-2.7v2.7h2.7zm106.1-.1h2.6v2.6h-5.3v2.6H946v-2.6h-2.7v2.6h-2.7v-2.6h-5.3v-2.6h2.7v-5.3h2.7v-5.3h2.7v2.7h2.7v-2.6h-2.7v-2.7h5.3v8h2.7v5.2zm-10.6-2.6v2.7h2.7v-2.7h-2.7zm5.3 0v2.7h2.7v-2.7h-2.7zm61 2.6h-2.7v2.6h2.7v2.6h-8v-8h2.7v-2.6h-2.7v-8h18.6v2.7h-2.7v2.8h-2.7v-2.6h-2.7v2.6h-2.7v2.6h-2.7v2.6h2.7l.2 2.7zm-2.7-10.6h-2.7v2.7h2.7v-2.7zm5.3 5.3V333h2.7v2.6h5.3v2.6h-5.3v2.7h2.6v2.6h-2.7v2.6h-2.7v-2.6h-2.7V341h2.7v-2.7h-2.7v-2.6l2.8-.1zm8 8v2.6h-2.7v-2.6h2.7zm-702.8 15.9h2.7v2.6h-2.7v5.3h-13.3v-5.3H299v-2.6h2.6v-8h2.7v-2.6h2.6v2.6h2.6v-2.6h2.6v2.6h2.6l.2 8zm-8-5.3h-2.6v2.6h2.6v-2.6zm5.2 10.6v-2.7h-8v2.7h8zm0-8v-2.6h-2.6v2.6h2.6zm111.5-5.3v2.7H421v2.6h-5.3v2.6h5.3v8h-5.3v-2.7h2.6V362H413v2.7h-2.7V362h-2.6v-2.6h5.3v-2.6h-5.3v-2.6H405v-2.7h5.3v-2.6h2.7v2.6h2.6v-2.6h2.6v2.6h5.4zm-18.6 8v-2.6h2.6v2.6H405zm0 8v-2.7h5.3v2.6l-5.3.1zm18.6-10.6v2.6H421v-2.6h2.6zm76.9 2.6v2.6h2.6v2.7h-2.6v2.6h-5.3v-2.6h2.7v-5.3h-2.7v5.3h-2.6v-2.7h-2.7v-2.6h2.6v-5.3h2.6v2.6h8v-2.6h-8v-5.3h2.7v2.6h8v8h2.6v2.6h-5.3v-2.6h-2.6zm-8 8h-2.6v-2.7h2.6v2.7zm15.9 0h-5.3v-2.7h5.3v2.7zm2.7-10.7v-2.6h2.7v2.6h-2.7zm2.7 10.6h-2.6v-2.6h2.6v2.6zm0-18.5h2.7v2.6h2.7v10.6h-2.7v-2.6h-2.7v-2.6h2.7v-2.6h-2.7v-5.4zm2.6 15.9h-2.7v-2.7h2.7v2.7zm8-10.6h2.6v2.6h-2.7v10.6h-2.7v-18.6h2.7l.1 5.4zm2.7 5.3v-2.6h2.7v2.6h-2.7zm15.8-2.7h5.3v-2.6h2.7v5.3h-2.7v5.3h2.7v2.6H535v-2.6h-2.7v-8h2.7v-2.6h-2.7v-2.7h2.7v-2.6h2.7v2.6h2.7v2.7h-2.7v2.6h2.7v-2.6h2.7l-.2 2.6zm-5.3 8h2.7v-5.3h-2.7v5.3zm8-15.9v2.6h2.7v2.7H543v-2.7h-2.7v-2.6h5.3zm-2.6 13.3h2.7v-2.6H543v2.6zm5.3-13.3h2.7v2.6h-2.7v-2.6zm90.1 2.6h2.7v15.9h-2.7v-15.9zm2.7-2.6h2.7v2.6h-2.7v-2.6zm2.6 5.3h2.7v8h-2.7v-8zm5.3 0v-2.7h2.7v2.7H649zm0 5.3v-2.6h2.7v2.6H649zm0 8v-2.7h5.3v2.6l-5.3.1zm2.7-18.6h5.3v5.3h-2.7v-2.7h-2.7l.1-2.6zm2.6 8h-2.7v-2.6h2.7v2.6zm0 5.3h-2.7v-2.6h2.7v2.6zm2.7-5.3v2.6h-2.7v-2.6h2.7zm0 5.3v2.7h-2.7v-2.7h2.7zm106.1-13.3v5.3h-2.7v-2.7h-2.7v2.7h2.7v2.6h2.7v5.3h-2.7v-2.6h-2.7v2.6h2.7v2.7h2.7v2.6h-10.6v-2.6h-2.7v2.6h-5.3v-5.3h2.7v-2.6h2.7v-2.6h2.7v-2.6h2.7v-2.7h-2.7v2.7h-2.7v-2.7h-5.3V349h18.5zm-13.3 5.3v2.6h-2.7v2.6h-2.7v-5.3h5.4zm2.7 7.9h2.7v-2.6h-2.7v2.6zm50.4-7.9h2.7v13.3h-5.3v-2.7h2.7v-2.7h-2.7v2.7h-2.7v2.6h-2.7v-5.3h-2.7v5.3h-2.7v-2.6H787v-8h2.7v-2.6H787v-2.7h2.7v-2.6h2.7v2.6h2.7v2.7h-2.7v5.3h2.7v-5.3h5.3v-2.7h-2.7v-2.6h5.3l-.1 5.3zm-2.7 5.3h2.7v-2.6h-2.7v2.6zm21.2-8h5.3v8H824v-5.3h-5.3v2.6h2.7v2.6h-2.7v2.6h2.7v2.7h-2.7v2.6H816v-2.7h-8v-2.7h2.7v-10.6H808v-2.6h13.3l.1 2.8zm-7.9 0v2.7h2.7v-2.7h-2.7zm0 8h2.7v-2.6h-2.7v2.6zm10.6 2.7h-2.7v-2.6h2.7v2.6zm2.6 0v2.7H824v-2.7h2.7zm10.6-5.4v2.6h-2.7v2.6h2.7v2.7h-2.7v2.6H832V362h-2.7v-2.6h2.7v-2.6h-2.7v-5.3h2.7v2.7h2.7v2.6h2.6zm0-8v2.6H832v-2.6h5.3zm0 5.3h2.7v2.6h-2.7v-2.6zm2.7 10.7v2.6h-2.7v-2.6h2.7zm8-10.6h-8v-5.3h2.7v2.6h5.3v2.7zm-8 7.9h2.7v2.7H840v-2.7zm5.3-5.3v5.3h-2.7v-5.3h2.7zm2.7 10.7h-2.7v-5.3h2.7v5.3zm15.9-16v5.3h2.7v2.6h-2.7v5.3h-2.7v-13.3h-5.3v2.7h2.7v10.6h-2.7V362h-2.7v-2.6h2.7v-2.6h-2.7v-5.3h-2.7v-2.6h18.6v2.6h-5.2zm-13.3 8v-2.6h2.7v2.6h-2.7zm0 8v-2.7h5.3v2.6l-5.3.1zm18.6 0h-5.3v-2.7h2.7v-2.7h2.7l-.1 5.4zm-2.7-13.2h2.7v2.6h-2.7v-2.6zm5.3-5.4h2.7v2.6h-2.7v-2.6zm0 8v-2.6h2.7v2.6h-2.7zm0 2.6h2.7v8h-2.7v-8zm18.6-10.6v2.6h-2.7v2.7H885v2.6h2.7v-2.6h2.7v13.3h-2.7v-2.7h-10.6v-5.3h-2.7v-2.6h2.7v-5.3h2.7V349l10.6-.1zm-10.6 8h2.7v-2.6h-2.7v2.6zm0 2.7v2.6h2.7v-2.6h-2.7zm8 2.6v-2.6h-2.7v2.6h2.7zm53-8v2.6h2.7v2.6h-2.7v8h-2.7v-2.7h-2.7v-8h2.7v-2.6h-2.7v-2.7h2.7v-2.6h2.7v2.6h2.7v2.7l-2.7.1zm5.3 0v2.6h-2.7v-2.6h2.7zm2.6 5.3h5.3v2.6h-2.7v5.3h-8v-8h2.7v-2.6h2.7v2.7zm2.7-2.7h-2.7v-2.6H946v-5.3h2.7v2.6h2.7v5.3zm-5.3 8h2.7v-2.7h-2.7v2.7zm10.6 2.7v-5.3h2.7v5.3h-2.7zm15.9-5.4H970v2.7h2.7v2.6H962v-5.3h-2.7v-10.6h2.7v2.7h8v-2.7h-8v-2.6h10.6v13.2zm-10.6-5.3v2.6h8v-2.6h-8zm2.7 5.3v2.7h2.7v-2.7h-2.7zm8 2.7v-2.7h2.7v2.7h-2.7zm21.1-10.6h2.7v5.3h-2.7v-2.6h-2.7v2.6h2.7v2.6h2.7v2.7h-8v2.6h-2.7v-2.6h-8v-2.7h2.7v-2.6h2.7v-2.6h-2.7v2.6h-2.6v-5.3h2.7v-5.3h13.3v5.3zm-2.6 0v-2.7h-8v2.7h8zm23.8 0v2.6h-2.7v2.6h2.7v2.6h-2.7v2.7h-2.7v-8h-2.7v5.3h-2.7v-5.3h-5.3v-2.6h5.3v-5.3h2.7v5.3l8.1.1zm-13.3 13.3H999v-2.7h2.7v2.7zm2.7-2.7h-2.7v-2.7h2.7v2.7zm5.3 2.7h-2.7v-2.7h2.7v2.7zm2.6-16v-2.6h2.7v2.6h-2.7zm5.4 16h-5.3v-2.7h5.3v2.7zm-2.7-16h2.7v2.7h-2.7v-2.7zm2.7 5.3v2.6h-2.7v-2.6h2.7zm18.5 2.7h2.7v2.6h-2.7v5.3H1023v-5.3h-2.7v-2.6h2.7v-5.3h2.7v2.6h8v-2.6h2.7l-.2 5.3zm-2.6-5.3h-8v-2.7h-2.6v-2.6h13.3v2.6h-2.7v2.7zm0 10.6v-2.7h-8v2.7h8zm10.6-13.3h-2.7v-2.6h2.7v2.6zm0 5.3h-2.7v-2.6h2.7v2.6zm-2.6 2.7h2.7v8h-2.7v-8zm18.5-8v2.7h-2.7v2.6h-2.7v-2.6h-2.7v2.6h-2.7v-2.6h-2.7v-2.7h5.3v-2.6h2.7v2.6h5.5zm-5.3 5.3v2.6h2.7v-2.6h2.7v5.3h-5.3v5.3h-2.7v-5.3h-5.3v-5.3h2.7v2.6h2.7v-2.6h2.5zm-737.3 16v15.9h-5.3V386h2.6v-2.6h-2.6v-2.6h-2.6v2.6h2.6v2.6h-5.3v2.7h-2.6V386H299v-10.6h5.3v-2.6h2.6v-2.6h2.6v2.6h8zm-15.9 10.6h2.7v-5.3h-2.7v5.3zm13.3-5.3v-2.7h-8v2.7h8zm106 2.6v2.6h-2.6v2.6h5.3v2.7h-15.9V386H405v-5.3h2.6v-2.6H405v-2.7h2.6v-5.3h2.6v5.3h2.7v2.7h-2.7v7.9h5.3v-2.6H413v-5.3h2.6v-2.7H413v-2.6h2.6v-2.6h2.6v2.6h2.6v2.6h-2.6v2.7h5.3v2.6h-2.6zm42.5-7.9v5.3h2.6v5.3h-2.6v-2.6h-2.7v5.3h5.3v2.7h-13.2V386h-2.6v-8h-2.7v-2.6h5.3v2.7h5.3v-2.7h-5.3v-2.6h2.6v-2.6h2.6v2.6h5.4zm-13.3 15.9h-2.7V386h2.7v2.7zm0-15.9v-2.6h2.6v2.6h-2.6zm5.3 13.2h2.6v-2.6h-2.6v-2.6h-2.6v2.6h2.6v2.6zm8-15.9h2.6v2.6h-2.6v-2.6zm37.1 5.3v2.7h2.6v2.6h-2.6v8h-2.6v-10.6h-2.7v10.6h-5.3v-13.3h5.3v-2.6h-5.3v-2.6h10.6v2.6h-2.6v2.6h2.6zm5.3-2.6v-2.6h2.6v18.6h-5.3V386h2.6v-2.6h-2.6v-2.6h2.6v-5.3h-5.3v-2.6h5.4zm42.4-2.7v2.6h2.7v5.3h-2.7v-2.7h-2.7v2.7h-8v-2.7H535v2.7h-2.7v-5.3h2.7v-2.6h2.7v2.6h2.7v-2.6h2.7v2.6h2.7v-2.6h2.4zm-15.9 18.6V386h5.3v2.7h-5.3zm2.7-10.6h2.7v5.3H535v-5.3zm5.3 7.9h-2.7v-2.6h2.7v2.6zm0-2.6v-2.6h2.7v2.6h-2.7zm5.3 0v2.6h2.7v-2.6h2.7v5.3h-8v-5.3h2.6zm0 0v-5.3h2.7v5.3h-2.7zm50.4-10.6v-2.6h2.7v2.6H596zm0 2.6h2.7v-2.6h2.7v15.9H596V386h2.7v-2.6H596v-2.6h2.7v-2.6H596v-2.8zm18.6-5.3v8h-2.7v-2.7h-5.3v2.7h5.3v2.6h-5.3v5.3h2.7v2.7H604v-15.9h-2.7v-2.6h13.3zm-2.7 15.9h-2.7v-2.6h2.7v2.6zm2.7-5.3v2.6h-2.7v-2.6h2.7zm0 5.3v2.7h-2.7V386h2.7zm13.2-10.6v2.7h5.3v2.6h2.7v8h-18.6v-8h2.7v-2.6h5.3v-2.7h-8v-2.6h5.3v-2.6h2.7v2.6h2.7v-2.6h2.7v2.6h5.3v2.6h-8.1zm-7.9 8v2.6h2.7v-2.6h-2.7zm5.3 0v2.6h2.7v-2.6h-2.7zm5.3 2.6h2.7v-2.6h-2.7v2.6zm26.5-13.2v2.6h-2.7v2.7h-2.7v2.6h2.7v-2.6h2.7v5.3h-10.6v2.6H657v2.7h-13.3V386H641v-2.6h-2.7v-2.6h2.7v-2.6h-2.7v-2.7h2.7v-2.6h5.3v-2.6h2.6v2.6h8.1zm-15.9 15.9h-2.7V386h2.7v2.7zm5.3-8h2.6V378h-2.7v-2.6h-2.7v2.7h2.7l.1 2.6zm29.1-2.6h2.7v2.6h-2.7v8h-2.6v-8h-5.3v5.3h-2.7v-5.3h-5.3v-2.6h5.3v-2.7h-2.7v-2.6h5.3v5.3h5.3v-5.3h2.7v5.3zm-10.6 10.6h-2.7V386h2.7v2.7zm2.7-18.6h2.7v2.6h-2.7v-2.6zm29.2 5.3v-2.6h2.7v5.3h-5.3v2.6h5.3v8h-2.7v-5.3h-2.7v5.3h-5.3V386h-8v-13.2h5.3v2.6h-2.7v8h2.7v-8h2.7v-2.6h2.7v-2.6h2.7v5.3h2.6zm-8 5.3h2.7v-2.6h-2.7v2.6zm61 0v2.6h-2.7V378h-2.7v-2.7h5.3v-2.6H747v-2.6h13.3v2.6h-2.7v2.6h5.3v2.7h-2.7v5.3h-2.7v-2.6h-7.7zm-5.3 8V386h5.3v2.7h-5.3zm13.3-5.3v2.6h5.3v2.7h-8V386h-5.3v-2.6h8zm-2.7-10.6h-2.7v2.6h2.7v-2.6zm21.2 2.6h2.7v2.7h2.7v10.6h-13.3v-8h-2.7v-8h2.7v5.3h2.6v-2.6h2.7v2.7h2.7l-.1-2.7zm-2.6-5.3v2.6h-5.3v-2.6h5.3zm0 10.6H771v2.6h2.7v-2.6zm10.6-10.6v8h-2.7v-2.7H779v-2.6h-2.7v-2.6h8zm-8 13.3h2.7v-2.6h-2.7v2.6zm50.4-10.6v2.6H824v2.7h2.7v5.3H824v-2.6h-2.7v2.6h-2.7v2.6h2.7v2.7h-8V386h2.7v-2.6h-2.7v2.6h-2.7v2.7h-2.7v-8h2.7v-5.3h-2.7v-2.6h5.3v-2.6h2.7v2.6h2.7v5.3h2.7v-8h2.7v2.6l2.7.1zm-10.6 2.6h-2.7v2.7h2.7v-2.7zm8 10.6h-2.7v-2.6h2.7v2.6zm2.7 0v2.7h-2.7V386h2.7zm34.4-15.9v2.6h-5.3v2.6h5.3v5.3h-2.7V378h-5.3v-5.3h-2.7v-2.6h10.7zm-10.6 10.6v-2.6h2.7v2.6h-2.7zm0 8V386h5.3v2.7h-5.3zm2.6-5.3v-2.6h5.3v5.2h-2.7v-2.6h-2.6zm13.3-13.3h2.7v18.6h-5.3V386h2.7v-2.6h-2.7v-8h2.7l-.1-5.3zm53.1 5.3v5.3h2.7v2.6h-2.7v5.3h-2.7V386h-2.7v-2.6h2.7v-5.3h-2.7v-2.7h5.4zm-2.7-5.3h2.7v2.6h-2.7v-2.6zm10.6 15.9h-2.7v-15.9h2.7V386zm2.7 0v-2.6h2.7v5.3h-5.3V386h2.6zm5.3-13.2h2.7v15.9h-2.7v-15.9zm2.6 0v-2.6h2.7v2.6h-2.7zm15.9-2.7v8h-2.7v2.6h-2.7v2.6H946v-2.6h-5.3v-8h2.7v2.6h2.7v-2.6h-2.7v-2.6H954zm-10.6 18.6h-2.7V386h2.7v2.7zm2.7-2.7h-2.7v-2.6h2.7v2.6zm2.6-10.6h2.7v-2.6h-2.7v2.6zm0 13.3v-5.3h2.7v2.6h2.6v2.7h-5.3zm5.3-8v2.6h-2.7v-2.6h2.7zm39.8-7.9v5.3h2.7v2.6h-2.7v2.6h-2.7v-2.6h-2.7v2.6h2.7v5.3h-5.3v-8h-2.7v8h-5.3V386h2.7v-2.6h-2.7v-2.6h2.7v-5.3h-2.7v-2.6h2.7v-2.6h2.7v2.6h10.6zm-10.6 2.6v2.7h2.7v-2.7h-2.7zm5.3 2.7h2.7v-2.7h-2.7v2.7zm5.3-8h2.7v2.6h-2.7v-2.6zm2.7 18.5h-2.7v-5.3h2.7v5.3zm18.5-10.5v2.6h-2.7v2.6h-2.7v-2.6h-2.7v2.6h2.7v2.6h2.7v-2.6h2.7v2.6h2.7v2.7h-13.3V386h-5.3v-8h2.7v5.3h2.7V378h-2.7v-5.3h-2.7v-2.6h8v2.6h-2.7v2.6h2.7v2.7h7.9zm-5.3-5.3v2.6h-2.7v-2.6h2.7zm0-2.7h2.7v2.6h-2.7v-2.6zm5.3 2.7v2.6h-2.7v-2.6h2.7zm2.7 2.6v2.7h-2.7v-2.7h2.7zm0 5.3v2.6h-2.7v-2.6h2.7zm-710.8 21.2v2.6h2.6v2.6h-5.3V394h-5.3v-2.6h10.6v2.6h-2.6v5.3h2.6v-2.6h2.6v5.3l-5.2-.1zm-5.3 5.3h2.7v2.6H299v-13.3h2.6v10.7zm10.6 2.7h-2.6v-2.6h2.6v2.6zm2.6-18.6v2.7h2.7v8h-2.7v-5.3h-2.6v-5.3l2.6-.1zm-2.6 15.9v-5.3h2.6v5.3h-2.6zm5.3 0v2.6h-2.7v-2.6h2.7zm87.5-10.6V394h2.6v2.6H405zm5.3 10.6h2.7v2.6h-5.3v-8H405v-2.7h2.6v-2.6h2.6v10.7zm-2.7-15.9h2.6v2.7h-2.6v-2.7zm16 2.7v2.6H421v2.6h2.6v5.3H421V402h-2.6v2.6h-2.6v2.6H413V394h5.3v-2.6h2.6v2.6h2.7zm-8 5.3h2.6v-2.6h-2.6v2.6zm2.7 10.6h-2.6v-2.6h2.6v2.6zm2.6-2.6h-2.6v-2.6h2.6v2.6zm2.7 0v2.6H421v-2.6h2.6zm31.8-5.4v2.6h-2.6v2.6h-2.6v-8h-2.7v-2.6h5.3v5.3l2.6.1zm-5.3 8h-2.7v-2.6h2.7v2.6zm0-15.9v-2.6h2.6v2.7l-2.6-.1zm13.3 0v-2.6h2.6v5.3h-5.3v2.6h2.7v2.7h-2.7v5.3h5.3v2.6h-13.2v-2.6h5.3V402h-2.6v-5.3h-2.6V394h5.3v-2.6h2.6v2.6h2.6zm2.6 8v2.6h-2.6V402h2.6zm23.9-8h2.6v2.6h-2.6V394zm2.6 13.3h-2.6v-2.6h2.6v2.6zm2.7-2.7h-2.6V402h2.6v2.6zm0-5.3v-2.6h2.7v2.6h-2.7zm2.7-5.3h2.6v2.6h-2.6V394zm2.6 2.7h2.6v2.6h2.6v8h-2.6V402h-5.3v-2.7h2.6v-2.6zm-2.6 10.6v-2.6h2.6v2.6h-2.6zm2.6-15.9h2.6v2.6h-2.6v-2.6zm2.7 18.5h-2.6v-2.6h2.6v2.6zm2.6-15.9v2.6h-2.6V394h2.6zm0 5.3v-2.6h2.6v2.6h-2.6zm34.5 0v8h-2.7v-2.6H535v2.6h2.7v2.6h-5.3v-18.6h8v5.3h2.7v2.6h-2.8zm-2.7-5.3H535v2.6h2.7l-.1-2.6zm-2.6 5.3v2.7h2.7v-2.7H535zm8 10.6h-2.7v-2.6h2.7v2.6zm2.6-18.6v5.3H543v-5.3h2.6zm-2.6 8h8v10.6h-5.3v-2.6h2.7V402h-2.7v5.3H543v-8zm5.3-8h2.7v5.3h-2.7v-5.3zm53 15.9h2.7v2.6h-5.3v-10.6H596v-2.6h5.3v10.6zm-2.7-15.9h2.7v2.7h-2.7v-2.7zm15.9 8h-2.6v5.3h-2.7v2.6h2.7v-2.6h2.7v5.3h-8v-2.6h-2.7V394h2.7v2.6h2.7V394h-2.7v-2.6h5.3v5.3h2.7l-.1 2.6zm-7.9 0v2.7h2.7v-2.7h-2.7zm76.9-5.3h-2.7v-2.6h2.7v2.6zm0 5.3h-2.7v-2.6h2.7v2.6zm-2.6 2.7h2.7v8h-2.7v-8zm13.2-8h5.3v5.3h-2.7v-2.6H694v2.6h-2.7v-2.6h-2.7v2.6h-2.7V394h5.3v-2.6h2.7l.2 2.6zm-2.6 8h2.7v-2.7h2.7v2.7h2.7v2.6h-2.7v5.3h-8v-5.3h-2.7V402h2.7v-2.7h2.7l-.1 2.7zm0 5.3h2.7v-2.6h-2.7v2.6zm63.6-13.3v2.6h8v13.3h-5.3v-2.6h2.7v-8h-5.3v2.7h-2.7v-2.7h-5.3v10.6h-2.7v-13.2h8V394h-8v-2.6h18.6v2.6h-8zm-2.6 10.6h-2.7V402h2.7v2.6zm5.3-2.6v2.6h-2.7V402h2.7zm47.7-8v2.6h-2.7v2.6h-2.7v-2.6h-2.7v2.6h2.7v2.7h2.7v8h-8v-2.6h-5.3V402h2.7v2.6h2.7V402h-2.7v-2.7h-2.6v2.7H787v-5.3h2.7v-5.3h2.7v5.3h2.7v-5.3h8v2.6h2.4zm-15.9 15.9H787v-2.6h2.7l-.1 2.6zm8-2.7h2.7v-2.6h-2.7v2.6zm8-8v2.7h-2.7v-2.7h2.7zm21.1-5.2v2.6H824v2.6h2.7v2.7H824v2.6h2.7v2.6h-5.3v2.6h-2.7v-2.6H816V402h-2.7v8h-2.7v-2.6h-2.7v-8h2.7v-2.6h-2.7V394h2.7v-2.6h2.7v2.6h5.3v-2.6h2.7v2.6h5.4zm-13.2 2.6v2.6h2.7v-2.6h-2.7zm5.3 2.7h2.7v-2.6h-2.7v2.6zm23.8-8v2.7h-5.3v2.6H832V394h-2.7v-2.6l13.3-.1zm-13.2 8v-2.6h2.6v2.6h-2.6zm2.6 0h2.7v2.7h2.7v2.6h-8V402h2.7l-.1-2.7zm0 10.6h-2.7v-2.6h2.6l.1 2.6zm5.3 0h-2.7v-2.6h2.7v2.6zm2.7-8h-2.7v-5.3h2.7v5.3zm2.6 8H840v-2.6h2.7l-.1 2.6zm2.7-15.9v-2.6h2.7v13.3h-5.3V402h2.7v-2.7h-2.7V394h2.6zm2.7 15.9h-2.7v-2.6h2.7v2.6zm13.2-13.3h2.7v2.6h2.7v5.3h-2.7v-2.6h-8v2.6h-2.7v-5.3h-2.6V394h2.7v2.6h5.3v2.6h2.7v-2.6zm-2.6-5.3v2.7h-5.3v-2.6l5.3-.1zm-5.4 18.6v-2.6h5.3v2.6h-5.3zm8-2.7h-2.7v-2.6h2.7v2.6zm8-15.9v8h-2.7v-2.6h-2.7V394h-2.7v-2.6l8.1-.1zm-2.7 18.6h-2.7v-2.6h2.7v2.6zm23.9-15.9v5.3h-2.7v-2.6H885v5.3h5.3v2.6h-2.7v5.3h-13.3v-5.3h-2.7V402h5.3v-5.3h-2.7v2.6h-2.7V394h8v-2.6h2.7v2.6h8.2zm-5.3 13.3v-2.6h-8v2.6h8zm53-.1h8v2.6h-10.7v-18.6H946v2.7h-2.7v5.3h-2.7V394h-2.7v5.3h2.7v2.7h-2.7l.2 5.2zm5.3-5.3v2.6h-2.7v-2.6h2.7zm2.7-2.6v-2.6h2.7v2.6h-2.7zm2.6 8H946v-2.6h2.7v2.6zM954 394v2.6h-5.3v-5.3h2.7v2.6h2.6zm-2.7 10.6h-2.7v-5.3h2.7v5.3zm2.7 5.3h-2.7v-5.3h2.7v5.3zm42.5-10.6v2.7h-2.7v2.6h-2.7V402h-2.7v2.6h2.7v2.6h-2.7v2.6h-2.7v-2.6H983v-2.6h2.7V402H983v2.6h-2.7V402h-2.7v-2.7h5.3v-2.6h-2.7V394h2.7v-2.6h2.7v2.6h2.7v-2.6h2.7v2.6h2.7v2.6H991v2.6l5.5.1zm-18.6 8v-2.6h2.7v2.6h-2.7zm5.3 2.6h-2.7v-2.6h2.7v2.6zm2.7-13.2v2.6h2.7v-2.6h-2.7zm8 13.2h-2.7v-2.6h2.7v2.6zm2.6-5.3v2.6h-2.7v-2.6h2.7zm21.2-13.3v10.6h-2.7v2.6h2.7v2.6h-2.7v2.6h-2.7v-2.6h-5.3v2.6h-2.7v-5.3h-2.7v5.3h-2.7v-18.6h2.7v5.3h2.7v-5.3h2.7v2.7h2.7v2.6h2.7V394h-2.7v-2.6l8-.1zm-5.3 13.3V402h-5.3v-2.7h-5.3v2.7h5.3v2.6h5.3zm7.9-10.6h2.7v2.6h-2.7V394zm0 13.3V402h2.7v5.3h-2.7zm2.7-8h2.6v2.7h-2.6v-2.7zm10.6-5.3h5.3v2.6h-2.7v5.3h-2.7v8h-5.3v-2.6h2.7V402h-2.7v-5.3h-2.7V394h5.3v-2.6h2.7l.1 2.6zm-8 13.2v-2.6h2.7v2.6h-2.7zm5.3-8h2.7v-2.6h-2.6l-.1 2.6zm8 8h-2.7v-2.6h2.7v2.6zm-732 13.3h-2.6v2.6h2.6v2.7h-2.6v5.3h-2.7v-2.6H299v-5.3h2.6v-2.6H299V418h2.6v-2.6H299v-2.7h8v2.7h-2.6v2.6h2.6l-.1 2.5zm10.6-5.3h-2.7v5.3h2.7v2.6h-2.7v8h-2.6v-8h-5.3v-2.6h5.3v-5.3h-2.6v-2.7h8l-.1 2.7zm92.8 2.6v2.6h2.7v2.6h-2.7v5.3h-2.6v-8H405v-2.6l5.3.1zm-2.6 13.3H405v-2.6h2.6l.1 2.6zm0-18.6h2.6v2.7h-2.6v-2.7zm2.6 18.6v-2.6h13.3v2.6h-13.3zm13.3-18.6v2.7h-5.3v10.6h-2.6v-5.3H413v-2.6h2.6v-2.6H413v-2.7h10.6zm0 10.6H421v-2.6h2.6v2.6zm5.3-5.3v-5.3h2.6v18.6h-2.6v-10.6h-2.6v-2.6h2.6zm8-2.6h5.3v2.6h-2.6v2.6H437v-2.6h-2.7v-5.3h2.7l-.1 2.7zm-2.7 7.9v-2.6h2.7v2.6h-2.7zm0 8v-2.6h5.3v2.6h-5.3zm2.7-5.3v-2.7h2.6v2.7h-2.6zm5.3-2.6h-2.6v-2.6h2.6v2.6zm0 5.3h-2.6v-2.7h2.6v2.7zm0-15.9h2.6v2.7h-2.6v-2.7zm2.6 5.3v2.6h-2.6v-2.6h2.6zm0 5.3v2.7h-2.6v-2.7h2.6zm0 5.3v2.6h-2.6v-2.6h2.6zm8-10.7v5.3h2.6v2.7h-2.6v5.3h-2.6v-2.6h-2.7v-8h2.7v-2.6h-2.7v-2.6h2.7v-2.7h2.6v2.7h2.6v2.6l-2.6-.1zm13.2-2.6h-2.6v5.3h2.6v2.6h-2.6v8h-2.7v-8h-5.3v-2.6h5.3v-5.3H458v-2.7h8v2.7zm23.9 0h2.6v2.6h-2.6v-2.6zm0 13.3v-5.3h2.6v5.3h-2.6zm2.6-5.4v-2.6h2.6v2.6h-2.6zm16-5.3v2.6h-2.6v2.6h2.6v2.7h-5.3V423h-2.6v2.7h-5.3V423h2.7v-2.6h-2.7v-2.6h5.3v-2.6H498v-2.7h8v2.7h-2.6v2.6h5.1zm-13.3 13.3v-2.6h5.3v2.6h-5.3zm8-2.6h-2.6v-2.7h2.6v2.7zm5.3 2.6h-5.3v-2.6h5.3v2.6zm5.3 0h-2.6v-2.6h2.6v2.6zm15.9-13.3h-5.3v2.6h5.3V431h-13.3v-2.6h-2.7v-13.3h8v-2.7h2.7v2.7h5.3v2.7zm-8 2.7v-2.6h-5.3v2.6h5.3zm-2.6 5.3v2.6h2.7v-2.6h-2.7zm5.3 2.6h2.6v-2.6h-2.7l.1 2.6zm18.5-5.3v-2.6h2.7v2.6h5.3v2.7h-2.7v2.6h-2.6v2.6h-2.7v-2.6h-2.7v2.6h-2.7v-2.6H535v-2.7h-2.7v-10.6h2.7v2.6h2.7v-2.6H535v-2.7h5.3v2.7h2.7v5.3h-2.7v2.6l2.6.1zm-8 8h-2.7v-2.6h2.7v2.6zm2.7-10.6H535v2.6h2.7l-.1-2.6zm8 0v-5.3h-2.7v-2.7h5.3v5.3h2.7v2.6h-5.3zm5.3 8v2.6h-2.7v-2.6h2.7zm58.3-16h5.3v18.6h-2.6v-8h-2.7v8h-2.7v-8h-2.7v8h-2.7v-2.6H596v-2.7h2.7v-2.7H596v-2.6h2.7v-2.6H596v-2.6h5.3v-2.7h5.3v2.7H604v5.3h2.7v-5.3h2.7v5.3h2.7v-5.3h-2.7l-.2-2.8zm21.3 13.3h-2.7v-2.7h-5.3v8h-2.7v-8h-2.7v-2.6h2.7v-5.3h-2.7v-2.7h8v2.7h-2.7v5.3h5.3v-5.3h2.7l.1 10.6zm2.6-13.3h2.7v18.6h-5.3v-2.6h2.7l-.1-16zm21.2 5.3v2.6h-2.7v2.6H649v8h-2.7v-8h-2.7v-2.6h-5.3v-2.6h8v-5.3h2.6v5.3h5.4zm-13.2 10.6h-2.7v-2.6h2.7v2.6zm2.6-2.6H641v-2.7h2.7v2.7zm8-10.6v-2.7h2.7v2.7h-2.7zm2.6 7.9v2.7h-2.7v-2.7h2.7zm0-7.9h2.7v2.6h-2.7v-2.6zm2.7 10.6v2.6h-2.7v-2.6h2.7zm18.5-2.7h2.7v2.7h-5.3v-2.7h-2.7v-2.6h-2.7v-2.6h-2.7v-2.6h-2.7v2.6h-2.7v-5.3h8v2.7h2.7v-2.7h2.7v2.7h2.7v7.8zm-10.6-5.3v2.6h2.7v2.6h-2.7v2.7h-2.7V423h-2.7v-2.6h2.7v-2.6h2.7zm-2.6 13.3h-2.7v-2.6h2.7v2.6zm5.3 0h-2.7v-2.6h2.7v2.6zm2.6-5.3h-2.7v-2.7h2.7v2.7zm2.7 5.3h-2.7v-2.6h2.7v2.6zm5.3 0h-2.7v-2.6h2.7v2.6zm21.2-18.6v2.7h-2.7v2.6h2.7v8h-2.7v-2.7H694v2.7h2.7v2.6h2.7v2.6h-18.6v-13.3h2.7v10.6h2.7v-10.6h2.7v-2.6h-2.7v-2.7h13.2zm-18.5 0h2.7v2.7h-2.7v-2.7zm7.9 13.3h2.7v-2.7h-2.7v2.7zm2.7-8h2.7v-2.6h-2.7v2.6zm71.6-5.3v2.7h-2.7v2.6h2.7v8h-2.7v5.3h-5.3v-2.6h2.7v-2.7h-2.7v2.6h-2.7v-5.3h-2.7v8h-5.3v-2.6h2.7v-2.7h-2.7v-2.7h2.7v-5.3h-2.7v-2.6h2.7v-2.7h2.7v2.7h2.7v2.6h-2.7v2.6h2.7v-2.6h2.7v2.6h2.7v-2.6h-2.7v-2.6h-2.7v-2.7h10.6zm26.5 18.6H787v-2.6h2.7l-.1 2.6zm15.9-18.6v2.7h-2.7v2.6h-5.3v-2.6h-5.3v13.3h-2.6v-15.9h15.9zm-10.6 18.6h-2.7v-2.6h2.7v2.6zm2.7-10.6h5.3v-2.6h2.7v5.3h-2.7v2.7h2.7v2.6h-2.7v2.6h-5.3v-2.6h2.7v-5.3H795v-5.3h2.7v2.6zm-2.7 8v-2.7h2.7v2.6l-2.7.1zm74.3-5.4v8h-18.6v-8h18.6zm-16-2.6v-8h13.3v8h-13.3zm13.3 8v-2.7h-13.3v2.6l13.3.1zm-10.6-13.3v2.6h8v-2.6h-8zm87.5 5.3h-2.7v2.6h2.7v2.7h-2.7v5.3H938v-2.6h-2.7v-5.3h2.7v-2.6h-2.7V418h2.7v-2.6h-2.7v-2.7h8v2.7h-2.7v2.6h2.7l.1 2.5zm0 0h5.3v2.6h-5.3v-2.6zm2.7 5.3h2.7v2.6h2.7v2.6h-8v-2.6h2.7l-.1-2.6zm0-8v-2.6h2.7v2.6h-2.7zm2.6-5.3h5.3v5.3h-2.7v-2.6h-2.7l.1-2.7zm2.7 8h-2.7v-2.6h2.7v2.6zm-2.7 5.3v-2.7h2.7v-2.6h2.6v8h-2.7v-2.7h-2.6zm26.5-10.6v2.6h-2.7v2.6h2.7v2.6h-2.7v2.7H970V423h-5.3v5.3h2.7v2.6H962v-5.3h-2.7v5.3h-2.7v-18.6h8v8h5.4v-2.6h-2.7v-2.6h2.7v-2.7h2.7v2.7l2.5.1zm-13.2 0h-2.7v2.6h2.7v-2.6zm-2.7 5.3v2.6h2.7v-2.6h-2.7zm10.6 8h-2.6v-2.7h2.7l-.1 2.7zm5.3 2.6h-2.6v-5.3h2.7l-.1 5.3zm37.2-8v-2.6h2.6v2.6h2.7v2.7h-8v5.3h-2.7v-5.3h-8v-2.7h2.7v-2.6h2.7v2.6h2.7v-5.3h2.7v5.3h2.6zm-13.3-2.6v-2.6h2.7v2.6h-2.7zm2.7-5.3h2.7v2.6h-2.7v-2.6zm10.6 0h-8v-2.7h8v2.7zm2.6 0v2.6h-2.7v-2.6h2.7zm2.7 2.6v2.6h-2.7v-2.6h2.7zm42.4-2.6h-5.3v2.6h5.3v8h-5.3v2.6h5.3v2.6h-18.6v-18.6h18.6v2.8zm-7.9 2.6v-2.6h-8v13.3h8v-8h-2.7v5.3h-2.7v-8h5.4zm5.3 5.3v-2.6h-2.7v2.6h2.7zm-750.6 21.3v2.6h-2.6v-2.6H299v-2.6h8v-2.6h-5.3v-2.6h5.3v-2.7h2.6v2.7h5.3v2.6h-5.3v2.6h8v2.6h-10.7zm-5.3 2.6h2.7v2.7h8v2.6h-10.6V447zm10.6 0h2.6v2.7h-2.6V447zm5.3 2.7v2.6h-2.7v-2.6h2.7zM466 436.4v2.6h-2.6v2.6h-2.7V439H458v2.6h2.6v2.6h-8v-2.6h2.6V439h-2.6v2.6H450V439h-2.7v-2.6h5.3v-2.7h2.6v2.7h2.6v-2.7h2.6v2.7h5.6zm-15.9 8h-2.7v-2.6h2.7v2.6zM466 447v2.7h-2.6v2.6h-2.7v-2.6H458v2.6h-2.6v-2.6h-2.6v2.6h-2.6v-2.6h-2.7V447H466zm0-5.3v2.6h-2.6v-2.6h2.6zm37.2 0v2.6h2.6v-2.6h2.6v10.6h-10.6v-2.6h2.6V447h-2.6v2.7h-2.7V447h-2.6v2.7h2.6v2.6h-5.3v-18.6h5.3v2.7h-2.6v2.6h2.6v2.6h-2.6v2.6h2.6v-2.6h2.7v2.6h2.6v-2.6h2.8zm5.3-5.3v2.6h-2.6v2.6h-2.6V439h-2.6v2.6h-2.6V439h-2.7v-2.6h2.7v-2.7h2.6v2.7h2.6v-2.7h2.6v2.7h2.6zm-5.3 13.3h2.6V447h-2.6v2.7zm87.5-15.9h2.7v18.6H588v-2.6h2.7V447H588v-2.6h-2.7v8h-10.6V447h2.7v2.7h5.3V447h-5.3v-2.6h-2.7v-2.6h2.7v-2.6h-2.7v-2.6h5.3v-2.7h2.7v2.7h5.3v2.6h-2.7v2.6h2.7v-2.6h2.7v-5.4zm-8 5.3H580v2.6h2.7v-2.6zm50.4-2.7v-2.7h2.7v5.3h-2.7v2.6h2.7v2.6h-2.7v2.6h2.7v2.7h-2.7v2.6h-2.7v-2.6h-8V447h-5.3v-10.6h2.7v2.6h2.7v-2.6h-2.7v-2.7h5.3v2.7h2.7v-2.7h2.7v2.7h2.6zm-15.9 15.9v-2.6h5.3v2.6h-5.3zm10.6-10.6h2.7v-2.6h-5.3v7.9h5.3v-2.6h-2.7v-2.7zm50.4 0v2.6h-2.7v2.6h2.7v2.7h-8v2.6h-2.6v-2.6h-8V447h2.7v-2.6h-2.7v-2.6h5.3v-2.6h-2.7v-2.6h5.3v-2.7h2.7v2.7h5.3v2.6h-2.6v2.6l5.3-.1zm-5.3 5.3v-2.6h-8v2.6h8zm-2.7-8h-2.7v2.6h2.7V439zm47.8-5.2h2.7v18.6H718v-8h-2.7v8h-2.7v-2.6H710V447h-5.3v2.7h5.3v2.6h-8v-13.2h2.7v-2.6H702v-2.7h10.6v2.7H710v2.6h2.7v-2.6h2.7v5.3h2.7v-8zm-10.6 8v2.6h2.6v-2.6h-2.6zm37.1-2.7h2.7v-2.6h2.7v15.9h-2.7v-10.6h-2.7v-2.7zm5.3-5.3h2.7v2.7h-2.7v-2.7zm13.3 2.6v2.6h-2.7v2.6h2.7v2.6h-2.7v2.6h-2.7v-2.6h-5.3v-2.6h5.3V439H755v-2.6h2.7v-2.7h2.7v2.7h2.7zm-8 15.9v-2.6h5.3v2.6h-5.3zm8-5.3v2.7h-2.7V447h2.7zm21.2-10.6v2.6h-2.7v2.6h2.7v10.6h-18.6v-10.6h2.7V439h-2.7v-2.6h8v-2.7h2.7v2.7h7.9zm-2.7 13.3v-5.3h-13.3v5.3h2.6V447h8v2.7h2.7zm-7.9-10.6H771v2.6h2.7v-2.6zm2.6 2.6h2.7v-2.6h-2.7v2.6zm31.9-5.3v-2.7h2.7v2.7h-2.7zm2.6 5.3h-2.7v-2.6h2.7v2.6zm-2.6 10.6V447h2.7v5.3h-2.7zm5.3-13.2h-2.7v-2.6h2.7v2.6zm0 7.9h-2.7v-2.6h2.7v2.6zm13.2-7.9h-5.3v2.6h2.7v2.6h2.7v8h-10.6v-10.6h2.7v-2.6h-2.7v-2.6h2.7v-2.7h2.7v2.7h5.3l-.2 2.6zm-2.6 10.6V447h-5.3v2.7h5.3zm23.9-15.9v2.7h-2.7v2.6h2.7v13.3h-2.7v-2.6h-2.7v2.6h-5.3v-2.6h-2.7v2.6h-5.3v-2.6h2.6V447h-2.7v-2.6h2.7v-5.3h-2.7v-2.6h2.7v-2.7h2.7v2.7h2.7v-2.7h2.7v2.7h2.7v-2.7h5.3zm-10.6 5.3h-2.7v2.6h2.7v-2.6zm-2.7 5.3v2.6h2.7v-2.6h-2.7zm5.3-2.7h2.7v-2.6H840v2.6zm0 2.7v2.6h2.7v-2.6H840zm23.9-8h5.3v2.6h-5.3v13.3h-5.3v-2.6h2.7v-5.3h-2.7v-5.3h-8v-2.6h10.6v-2.7h2.7v2.6zm-13.3 13.3V447h5.3v2.7h-5.3zm8-2.7h-2.7v-2.6h2.7v2.6zm31.8-10.6v5.3h-2.7v-2.6H885v2.6h-8v-2.6h-2.7v2.6h-2.7v-5.3h8v-2.7h2.7v2.7h8.1zm-13.3 8h8v5.3h5.3v2.6h-18.6v-2.6h5.3V447h-2.7v-5.3h2.7v2.7zm10.6 0H885v-2.6h2.7v2.6zm2.7 0v2.6h-2.7v-2.6h2.7zm58.3 0v-2.6h2.7v2.6h2.6v2.6h-5.3v2.7H946V447h-2.7v2.7h-2.7V447h-5.3v-2.6h2.7v-2.6h2.7v2.6h2.7v-5.3h-5.3v-2.6h5.3v-2.7h2.7v2.7h5.3v2.6h-5.3v5.3h2.6zm-13.2-2.7v-2.6h2.7v2.6h-2.7zm0 10.6v-2.6h5.3v2.6h-5.3zm18.5 0h-5.3v-2.6h5.3v2.6zm0-13.2v2.6h-2.7v-2.6h2.7zm8 2.6v5.3h2.7v2.7h-8V447h2.7v-5.3h-2.7v-2.6h2.7v-5.3h2.6v5.3h2.7v2.6H962zm13.3-8v5.3h-2.7v-2.6h-8v-2.7h10.7zm-8 13.3h-2.7v-2.6h2.7v2.6zm0-5.3h2.7V439h2.7v5.3h2.7v2.7h-2.7v5.3H970v-8h-2.7v-2.6zm15.9-2.6v2.6h2.7v2.6h-2.7v8h-2.7v-2.6h-2.7v-8h2.7v-2.6h-2.7v-2.6h2.7v-2.7h2.7v2.7h2.7v2.6h-2.7zm13.3 0v2.6h-2.7v2.6h2.7v2.6h-2.7v2.7h2.7v2.6h-10.6v-2.6h5.3V447h-5.3v-2.6h5.3v-2.6h-5.3v-2.6l10.6-.1zm-5.3-5.3h2.7v2.7h-2.7v-2.7zm26.5 0V447h-5.3v2.7h-2.7V447h-2.7v2.7h-2.7V447H999v-2.6h5.3v-2.6H999v-2.6h2.7v-2.6h2.7v-2.7h2.7v2.7h2.7v5.3h-2.7v2.6h2.7v-2.6h2.7v2.6h2.6v-2.6h-2.7v-5.3h-2.7v-2.7l8-.1zm-18.6 18.5v-2.6h5.3v2.6h-5.3zm18.6 0h-5.3v-2.6h5.3v2.6zm21.2-15.9v13.3h-8v2.6h-2.7v-2.6h-8v-13.3h8v-2.7h2.8v2.7h7.9zm-15.9 2.7v2.6h5.3v-2.6h-5.3zm0 7.9h5.3v-2.6h-5.3v2.6zm13.3-5.3v-2.6h-5.3v2.6h5.3zm0 5.3v-2.6h-5.3v2.6h5.3zm21.2-7.9h2.7v5.3h-2.7v-2.6h-2.7v2.6h2.7v2.6h2.7v2.7h-7.9v2.6h-2.7v-2.6h-8V447h2.7v-2.6h2.7v-2.6h-2.7v2.6h-2.7v-5.3h2.7v-5.3h13.3l-.1 5.3zm-2.7 0v-2.6h-8v2.6h8zM277.7 455h2.7v2.6h-2.7V455zm0 8v-2.6h2.7v2.6h-2.7zm0 2.6h2.7v8h-2.7v-8zm2.7-2.6h2.6v2.6h-2.6V463zm7.9 0h2.7v5.3h2.7v2.6H291v2.7h-2.6v-5.3h-2.6v-8H283v-2.7h2.6V455h2.6v2.6h2.7V455h2.7v5.3h2.6v2.6H291v-2.6h-2.6l-.1 2.7zm-5.3 10.5v-5.3h2.6v5.3H283zm10.6-8h2.6v2.6h-2.6v-2.6zm2.7 5.3v2.7h-2.6v-2.7h2.6zm5.3-10.5H299v-2.7h2.6v2.7zm-2.7 5.3V463h5.3v2.6h-5.3zm0 8v-5.3h2.6v5.3h-2.6zm18.6-18.6v10.6h-2.7v-5.3h-2.6v-2.7h-2.6v2.7h-2.7v-2.7h-5.3V455h15.9zm-13.3 8v-2.6h2.6v2.6h-2.6zm2.7 8h8v2.7h-10.6v-5.3h2.6v2.6zm0-5.3V463h2.6v2.6h-2.6zm5.3-5.3v2.6h-2.6v-2.6h2.6zm-2.7 8v-2.6h5.3v2.6h-5.3zm8 0v2.6h-2.7v-2.6h2.7zm106.1-10.8v2.7H421v2.6h2.6v2.6H421v2.6h-2.6v2.6h2.6v-2.6h2.6v5.3h-8v-2.7H413v-5.3h-2.7v5.3h2.7v2.7h-5.3v-10.6H405v-2.6h5.3v2.6h2.7v-2.6h-2.7v-2.7h2.7V455h2.6v2.6h2.6V455h2.6v2.6h2.8zm-15.9 0V455h2.6v2.6h-2.6zm8 5.3h2.6v-2.6h-2.6v2.6zm13.2-2.6h-2.6v-2.7h2.6v2.7zm-2.7 8V463h2.6v2.6h2.6v2.6h-5.2zm0 5.3v-2.7h5.3v2.7h-5.3zm5.3-15.9h-2.6V455h2.6v2.7zm0 2.6v2.6h-2.6v-2.6h2.6zm10.7-5.3v5.3h-2.6v-2.7h-5.3V455h7.9zm-8 8v-2.6h5.3v2.6h-5.3zm5.3 5.3v2.6h5.3v2.7h-10.6v-2.7h2.7v-2.6h-2.7v-2.6h8v2.6h-2.7zm2.6-5.3v-2.6h2.6v2.6h-2.6zm53.1-8v2.6h-5.3V455h5.3zm0 5.3v2.6h-5.3v-2.6h5.3zm2.7 5.3V463h2.6v2.6h8v2.6h-5.3v2.6h-2.6v2.7H498v-2.7h-2.7v-2.6H490v-2.6h7.9zm-8 8v-2.7h5.3v2.7h-5.3zm18.6-18.6v8h-2.6v-5.3h-2.6v5.3h-2.6v-2.6h-2.6v-2.7h2.6V455h7.8zm0 18.6h-5.3v-2.7h5.3v2.7zM588 455h5.3v18.6h-2.7v-5.3H588v2.6h-2.7v2.7h-2.7v-2.7h-8v-13.3h8V455h2.7v2.6h2.7v2.7h2.7v-2.7H588V455zm-10.6 13.3h2.7v-8h-2.7v8zm8-5.3v-2.6h-2.7v2.6h2.7zm-2.7 2.6v2.6h2.7v-2.6h-2.7zm5.3 0h2.7V463H588v2.6zm47.8-10.6v2.6h-2.7v2.7h2.7v13.3h-5.3v-2.7h2.7v-8h-2.7v8h-2.7v-2.6h-2.7v2.6h2.7v2.7h-5.3V463h-2.7v10.6h-2.7v-15.9h2.7v2.7h5.3v-2.7h2.7v2.7h2.7v-2.7h-2.7V455h8zm-10.6 0v2.6h-5.3V455h5.3zm53 0v18.6h-2.7v-2.7h-2.7v-2.6h-2.7v2.6h2.7v2.7h-5.3v-5.3h-2.7v5.3h-2.7v-2.7h-2.7v-5.3h2.7V463h-2.7v-2.6h2.7v-2.7h-2.7V455h18.8zm-10.6 2.6h-2.7v2.7h2.7v-2.7zm-2.7 5.4v2.6h2.7V463h-2.7zm8-2.7h2.7v-2.7h-2.7v2.7zm0 5.3h2.7V463h-2.7v2.6zm42.4-8h5.3v13.3h-5.3v2.7h-2.7v-5.3H710V463h-2.7v5.3h2.7v2.6h-2.7v2.7h-2.7v-2.7H702v-5.3h2.7V463H702v-2.6h2.7V455h2.7v5.3h2.7V455h2.7v5.3h2.7v8h2.7v-8h-2.7l-.2-2.7zm37.2 5.3v-2.6h-2.7v2.6h-2.7v-2.6h-2.7v-2.7h5.3V455h2.7v2.6h5.3v2.7H755v2.6h-2.5zm-8 5.3v-2.6h5.3v5.3h-2.7v-2.6h-2.6zm2.6 5.3h-2.7v-2.7h2.7v2.7zm2.7-8v-2.6h2.7v2.6h-2.7zm2.6 0h5.3v2.6H755v5.3h-2.7l.1-7.9zm8-10.5h2.7v18.6h-5.3v-2.7h2.7v-5.3h-2.7v-5.3h2.7V455zm90.2 7.9v-2.6h2.7v2.6h-2.7zm18.6-8v5.3h-2.7v-2.7h-2.7v2.7h2.7v2.6h-2.7v5.3h2.7v-5.3h2.7v8h-5.3v2.7h-2.7v-2.7h-2.7v-5.3h-5.3v-2.6h2.7v-2.6h2.7v2.6h2.7v-2.6h-2.7v-2.7h2.7V455l7.9-.1zm-16 2.7h2.7v2.7h-2.7v-2.7zm0 13.2v-2.6h2.7v2.6h-2.7zm2.7-15.8h2.7v2.6h-2.7V455zm2.7 18.6h-2.7v-2.7h2.7v2.7zm92.8-13.3v2.6h-2.7v2.6h2.7v2.6h2.6v2.6h-5.3v2.7H946v-2.7h-5.3v2.7H938v-8h-2.7v-2.6h2.7v-2.6h2.7v8h2.7v-2.6h2.7V463h-2.7v-2.6h2.7v-2.7h-2.7V455h8v2.6h-2.7v2.7h2.7zm-15.9 0v-2.7h2.7v2.7h-2.7zm2.6-5.3h2.7v2.6h-2.7V455zm15.9 2.6v2.7h-2.7v-2.7h2.7zm50.4 2.7h2.7v2.6h-2.7v10.6h-2.7v-5.3H999v-8h2.7V455h2.7v5.3zm2.7-2.7h2.7v2.7h-2.7v-2.7zm2.6 2.7h2.7v2.6h2.6v8h-2.7v-5.3h-5.3V463h2.7v-2.7zm-2.6 10.6v-2.6h2.7v2.6h-2.7zm2.6-15.9h2.7v2.6h-2.7V455zm2.7 18.5h-2.7v-2.7h2.7v2.7zm2.6-15.9v2.7h-2.7v-2.7h2.7zm0 5.3v-2.6h2.7v2.6h-2.7zm-739.9 37.2v2.6h-2.6v2.6h-2.6v-2.6h-2.7v2.6h2.7v2.6h-2.7v2.7h-2.6V508H262v2.7h2.6v2.6H262v2.7h-2.6v-2.7h-2.6v-8h2.6v-2.6h-2.6V500h2.6v-2.6h2.6v2.6h5.3v-2.6h2.7v2.6l5.1.1zm-13.3 5.3h2.6v-2.6h-2.6v2.6zm5.3 10.6h-2.6v-2.7h2.6v2.7zm2.7-2.7h-2.7v-2.6h2.7v2.6zm2.6-2.6h-2.6V508h2.6v2.7zm2.7 5.3h-5.3v-2.7h5.3v2.7zm0-10.6v2.6h-2.6v-2.6h2.6zm116.7 2.6h2.6v-2.6h2.6v5.3h-2.6v5.3h-5.3v-2.7h2.6v-2.6h-2.6v-5.3h-2.7v5.3h2.7v2.6h-2.7v2.7h-2.6v-18.6h10.6v2.6h-8v2.6h8v2.6h-2.6v2.8zm8-10.6v2.6h2.7v16h-5.3v-2.7h2.6v-8h-2.6v-2.6h-2.6V500h2.6v-2.6h2.6zm71.5 8h-2.6v-2.6h2.6v2.6zm2.7-8v2.6h2.6v2.6h-5.3v-5.3h2.7zm-2.7 8h2.7v5.3h2.6v2.7H474v2.7h-2.7v-10.7zm8-2.7v2.6h-2.6v-2.6h2.6zm0 10.6v2.7h-2.6v-2.7h2.6zm8-10.6h-8v-5.3h2.6v2.6h5.3l.1 2.7zm-8 8h2.6v2.7h-2.6v-2.7zm5.3-5.3v5.3H482v-5.3h2.6zm2.6 10.6h-2.7v-5.3h2.7v5.3zm275.9-15.9v2.6h-2.7v2.6h2.7v2.6h-2.7v2.7h2.7v2.6h-5.3v2.7h-2.7v-2.7h-2.7V508h-2.7v8H747v-2.7h-2.7v-8h2.7v-2.6h-2.7V500h2.7v-2.6h2.7v2.6h5.3v-2.6h2.7v2.6l5.4.1zm-13.3 2.6v2.6h2.7v-2.6h-2.7zm5.3 2.7h2.7v-2.6h-2.7v2.6zM169 518.6v18.6h-15.9v-5.3h-2.6v-2.7h2.6v-2.7h-2.6v-5.3h2.6v2.7h2.6v-2.7h2.6v5.3h-2.6v2.7h2.6v2.7h-2.6v2.7h5.3v-5.3h-2.7v-2.7h2.7v-5.3h-2.7v-2.7H169zm-15.9 0h2.6v2.7h-2.6v-2.7zm13.2 8v-5.3h-2.6v5.3h2.6zm0 8v-5.3h-2.6v5.3h2.6zm23.9-16v2.7h-2.6v2.7h2.6v5.3h-2.6v-2.7h-2.7v2.7h2.6v8h-10.6v-10.6h-2.6v2.7h-2.7v-8h2.7v2.7h2.6v-2.7h-2.6v-2.7h5.3v2.7h2.6v2.7h2.7v-2.7h-2.7v-2.7l8-.1zm-10.6 10.6h2.6v-2.7h-2.6v2.7zm5.3 5.3v-2.7h-5.3v2.7h5.3zm18.6-7.9h-2.6v2.7h2.6v2.7h-2.6v5.3h-2.6v-2.7h-2.7v-2.7H193v-5.3h2.6v2.7h2.7v-2.7h-2.7v-2.7h2.7v-2.7h2.6v2.7h2.6v2.7zm-10.6-2.7v-2.7h2.6v2.7h-2.6zm2.6 13.3h-2.6v-2.7h2.6v2.7zm0-18.6h2.7v2.7h-2.7v-2.7zm15.9 0v18.6h-5.3v-2.7h2.7v-2.7h-2.7v-2.7h2.7v-2.7h-2.7v-2.7h2.7V521h-8v-2.7l10.6.3zm-8 10.6v-2.7h2.6v2.7h-2.6zm183.1-7.9h-2.6v-2.7h2.6v2.7zm-2.7 2.6h2.6v13.3h-2.6v-13.3zm18.6-5.3v18.6h-2.7v-15.9h-2.6v5.3h-2.6v-2.7h-2.6v-2.7h-2.6v-2.7l13.1.1zm-10.6 8h-2.6V524h2.6v2.6zm0 5.3h2.6v-2.7h2.6v5.3h-8v-5.3h2.6l.2 2.7zm249.3 5.3h-2.7v-2.7h2.7v2.7zm10.6-13.3h5.3v8h-2.7v-5.3H649v2.7h2.7v5.3H649v-2.7h-2.7v-5.3h-2.7v8H641v-13.4h2.7v2.7h5.3v-2.7h-5.3v-2.7h10.6v2.7h-2.7l.1 2.7zm-2.7 13.3h-2.7v-2.7h2.7v2.7zm8 0h-2.7v-2.7h2.7v2.7zm21.2-15.9h-2.7v5.3h2.7v2.7h-2.7v8h-2.7v-8h-2.7v5.3h-2.7v-2.7h-2.7v-5.3H662v-5.3h-2.7v-2.7h18.6l.3 2.7zm-15.9 10.6h2.7v2.7h-5.3v-8h2.7l-.1 5.3zm5.3-10.6h-2.7v2.7h2.7v-2.7zm0 15.9h-2.7v-2.7h2.7v2.7zm2.7-10.6h2.7v-5.3h-2.7v5.3zm29.1-8v5.3h-2.7v-2.7H694v2.7h2.7v2.7H694v5.3h2.7v-5.3h2.7v8h-5.3v2.7h-2.7v-2.7h-2.7v-2.7H686v2.7h2.7v2.7h-5.3v-2.7h-2.7v-2.7h2.7v-2.7h-2.7v-2.7h5.3V524h-5.3v-2.7h5.3v-2.7h2.7v2.7h2.7v-2.7h8zm-10.6 8h2.7V524h-2.7v2.6zm116.7-8v2.7h-2.7v2.7h2.7v8h-2.7v-2.7h-2.7v-2.7h-2.7v2.7h2.7v2.7h-5.3v2.7h10.6v2.7h-13.3v-2.7h-2.7v2.7H787v-18.6h5.3v2.7h-2.7v2.7h2.7v-2.7h2.7v2.7h5.3v-2.7H795v-2.7h10.5zm-15.9 13.3h2.7v-5.3h-2.7v5.3zM169 553.1h-5.3v2.7H161v2.7h-2.7v-2.7h-2.6v-2.7h-5.3v-2.7h2.6v-8h5.3v-2.7h8v2.7h-2.6v2.7h-8v2.7h8v-2.7h2.6v5.3h2.7v2.7zm-18.6 5.3v-2.7h5.3v2.7h-5.3zm18.6 0h-5.3v-2.7h5.3v2.7zm61-15.9v-2.7h2.7v5.3H230v5.3h2.7v2.7H230v2.7h-2.6v-5.3h-2.6v5.3H222v-5.3h-2.7v5.3h-2.6v-2.7H214v-13.3h8v2.7h2.6v-2.7h2.6v2.7h2.8zm-13.3 15.9h-2.6v-2.7h2.6v2.7zm0-10.6h2.6v-5.3h-2.6v5.3zm5.3 10.6h-2.7v-2.7h2.7v2.7zm2.6-10.6h2.6v-2.7h-2.6v2.7zm2.7 10.6h-2.6v-2.7h2.6v2.7zm5.3-2.6v2.7H230v-2.7h2.6zm39.8-10.6h2.6v8h-2.6v-5.3h-5.3v2.7h2.7v5.3h-2.7v-2.7h-2.6v2.7h-5.3v2.7h-2.6V540h5.3v2.7h-2.6v2.7h2.6v2.7h-2.6v5.3h2.6v-5.3h2.6v-2.7h-2.6v-2.7h2.6V540h8l-.1 5.2zm-5.3 13.2h-2.6v-2.7h2.6v2.7zm0-15.9v2.7h2.7v-2.7h-2.7zm8 15.9h-2.6v-2.7h2.6v2.7zm29.1-15.9h5.3v2.7h-5.3v2.7h2.6v2.7h-2.6v8h-5.3v-2.7h2.6v-2.7h-2.6v-2.7h2.6v-5.3h-2.6v-2.7h2.6v-2.7h2.7v2.7zm2.7 15.9v-8h10.6v8h-10.6zm8-18.6v2.7h-5.3v-2.7h5.3zm0 8h-5.3v-2.7h5.3v2.7zm0 5.3h-5.3v2.7h5.3v-2.7zm2.7-10.6v2.7h-2.7v-2.7h2.7zm21.1 0v2.7h-2.6v2.7h-2.6v2.7h2.6v-2.7h2.6v5.3h-2.6v2.7h-2.6v2.7h-2.6v-2.7h-2.6v2.7h-2.7v-2.7H323v-2.7h-2.6v-2.7h2.6v-2.6h2.6v-2.7H323v2.7h-2.6v-5.3h2.6v-2.7h2.6v2.7h5.3v-2.7h2.6v2.7h5.2zm-15.9 15.9h-2.6v-2.7h2.6v2.7zm5.3-8h2.6v-2.6h-2.6v2.6h-2.7v2.7h2.7v-2.7zm10.6 5.3v2.7h-2.6v-2.7h2.6zm58.4-5.2v-2.7h2.6v2.7h2.7v2.7h-8v5.3h-2.6v-5.3h-8v-2.7h2.6v-2.6h2.7v2.7h2.6v-5.3h2.6v5.3h2.8zm-13.3-2.7v-2.7h2.6v2.7h-2.6zm2.7-5.3h2.7v2.7h-2.7v-2.7zm10.6 0h-8v-2.7h8v2.7zm2.6 0v2.7h-2.6v-2.7h2.6zm2.7 2.6v2.7h-2.7v-2.7h2.7zm42.4.1h-5.3v2.7h5.3v10.6h-5.3v-2.7h2.6v-5.3h-2.6v5.3h-2.6v-10.6h-5.3v-2.7h-2.7v2.7h2.6v2.7h-2.6v5.3h2.6v-5.3h2.6v8h-5.3v2.7h-2.6V540h8v2.7h5.3V540h2.6v2.7h2.6v2.5zm-7.9 13.2h-2.7v-2.7h2.7v2.7zm31.8-18.6h2.6v2.7h-2.6v-2.7zm0 5.4h2.6v2.7h-2.6v-2.7zm0 13.2v-5.3h2.6v5.3h-2.6zm2.6-5.3v-2.7h2.7v2.7h-2.7zm10.6-10.6h5.3v5.3h-2.7v-2.7h-5.3v2.7h5.3v5.3h2.7v2.7h-2.7v2.7h-2.6v-2.7h-2.6v2.7h-2.6v-2.7H474v-2.7h2.6v-5.3H474v-5.3h5.3v-2.7h2.6v2.7zm0 10.6v-2.7h-2.6v2.7h2.6zm55.7-2.6v2.7h2.7v2.7h-2.7v2.7H535v-5.3h-2.7v-2.7h2.7V548h-2.7v-5.3h2.7v2.7h2.7v2.7h2.7v2.7h-2.8zm-2.6-10.7h2.7v2.7H535v-2.7zm13.3 2.7v-2.7h2.7v8h-5.3v-2.7H543v2.7h-2.7v-2.7h-2.7v-2.7h2.7v-2.7h5.3v2.7l2.7.1zm-8 8h2.7v-2.7h2.7v2.7h5.3v2.7h-5.3v2.7h5.3v2.7h-10.6v-2.7h2.7v-2.7h-2.7l-.1-2.7zm31.8-10.7v2.7h-2.7v2.7h2.7v13.3h-13.3v-2.7h-5.3v-13.3h5.3v2.7h-2.7v2.7h2.7v-2.7h2.7v-2.7h-2.7v-2.7h13.3zm-15.9 10.7v2.7h2.7v-2.7h-2.7zm13.3 5.3v-2.7h-2.7v-5.3h-2.7v5.3h-2.7v2.7h8.1zm-5.3-10.6h2.7v-2.7h-2.7v2.7zm92.8-5.4v18.6h-10.6v-5.3h-2.7v5.3H641v-2.7h-2.7V553h2.7v-5.3h-2.7V545h8v2.7h-2.7v2.7h2.7v-2.7h2.6v-5.3h-2.7v-2.7l10.8.1zm-15.9 0h2.7v2.7h-2.7v-2.7zm13.3 13.3v-2.7H649v2.7h5.4zm-2.7-8h2.7v-2.7h-2.7v2.7zm55.7.1v5.3h2.6v2.7h-2.7v5.3h-2.7v-2.7H702v-8h2.7v-2.7H702v-2.7h2.7v-2.7h2.7v2.7h2.7v2.7l-2.7.1zm8-2.7v5.3h5.3v8H718v-5.3h-8v-2.7h2.7v-5.3H710v-2.7h10.6v2.7h-5.2zm-2.7 15.9v-2.7h5.3v2.7h-5.3zm47.7-13.2v8h-5.3v-2.7h2.7v-2.7h-2.7v-2.7h-5.3v8h5.3v2.7h-8v-2.7h-2.7v-2.7h2.7v-2.6h-2.7v-2.7h2.7v-2.7h8v-2.7h2.7v2.7h5.3v2.7l-2.7.1zm-13.2 13.2h-2.7v-2.7h2.7v2.7zm8-8h-2.7v-2.6h2.7v2.6zm2.6 5.3v2.7h-2.7v-2.7h2.7zm5.3-2.6v2.7h-2.7v-2.6l2.7-.1zm42.4-7.9h-5.3v2.7h5.3v10.6h-10.6v-5.3h-2.7v5.3h-2.7v-2.7H787v-5.3h2.7v-2.7H787v-2.7h2.7v-2.7h2.7v2.7h2.7v2.7h-2.7v2.7h2.7v-2.7h2.7v-8h2.7v2.7h5.3l-.3 2.7zm-18.5-2.7v-2.7h2.7v2.7H787zm5.3-2.7h2.7v2.7h-2.7v-2.7zm10.6 10.6h-5.3v5.3h5.3v-5.3zm21.2-2.6h2.7v2.7h-2.7v8h-5.3v-2.7h2.7v-2.7h-2.7v2.7h-2.7v-2.7h-8v-2.7h2.7v-8h2.7v2.7h8v-2.7h-8v-2.7H824l.1 8.1zm-15.9 8h8v2.7h-8v-2.7zm13.2-5.3v-2.7h-8v2.7h8zm47.8-10.7v2.7h-2.7v2.7h2.7v2.7h-2.7v2.7h2.7v2.7h-2.7v2.7h-2.7v-8h-2.7v8h2.7v2.7h-5.3V556h-2.7v2.7h-2.7V556h-2.7v-2.7h2.7V548h-2.7v-2.7h5.3v-2.7H853v-2.7h8v2.7h-2.7v2.7h5.3V540l5.6-.2zm-13.3 10.7h2.7v-2.7h-2.7v2.7zm13.3 5.3v2.7h-2.7v-2.7h2.7zm7.9-8v2.7h2.7v2.7h-2.7v2.7h-5.3v-2.7h2.7v-2.7h-2.7v-2.6h2.7v-2.7h-2.7v-2.7h5.3v2.7h2.7v2.7h-2.7zm13.3-5.3v2.7h-2.7v2.7h2.7v2.7h-2.7v2.7h2.7v2.7h-2.7v2.7H885v-5.3h-2.7v-2.7h-2.7v-2.6h5.3v-2.7h-5.3v-5.3h2.7v2.7h2.7v-2.7h2.7v2.7h2.7zm-8 13.3h-2.7v-2.7h2.7v2.7zm34.5-8h-2.7v-2.7h2.7v2.7zm2.7-2.7h-2.7v-2.7h2.7v2.7zm-2.7 10.6v-8h2.7v2.7h5.3v2.7h-5.3v2.7l-2.7-.1zm10.6-15.9v2.7h-8v-2.7h8zm-8 18.6v-2.7h8V553h2.7v5.3h-10.7zm5.3-10.6h2.7v2.7h-2.7v-2.7zm2.7-2.7v-2.7h2.7v2.7h-2.7zm2.6 2.7v-2.7h2.7v2.7h-2.7zm55.8 5.3h-2.7v2.7h2.7v2.7h-5.3v-2.7h-2.7v-5.3h2.7v-2.7h-2.7v-2.7h2.7v-2.7h-2.7v-2.7h8v2.7h-2.7v2.7h2.7v2.7h-2.7v2.7h2.7v2.6zm2.6-10.6v2.7h-2.7v-2.7h2.7zm-2.6 13.3v-2.7h2.7v2.7h-2.7zm8-10.6h2.7v8h-2.7v2.7h2.7v2.7h-8v-2.7h2.7v-2.7h-2.7v-2.7h5.3v-2.6h-5.3v-2.7h2.7v-2.7h-2.7v-2.7h5.3v5.4zm21.1 0h2.7v8h-5.3v2.7h5.3v2.7h-8v-2.7h-2.7v-2.7h-2.7v2.7h2.7v2.7h-8v-2.7h2.7v-2.7H999v-8h2.7v-5.3h2.7v5.3h2.7v-5.3h8v5.3zm-13.3 2.6v2.7h2.7v-2.7h-2.7zm8 0h-2.7v2.7h2.7v-2.7zm2.7-5.3h-2.7v2.7h2.7v-2.7zm0 8h2.6v-2.7h-2.7l.1 2.7zm63.6 2.6v2.7h-13.3v-2.7h13.3zm2.7-5.3h2.7v10.6h-5.3v-2.7h2.7v-5.3h-13.3v-5.3h2.7v2.7h8v-5.3h-10.6v-2.7h13.3l-.2 8zm13.3-8h2.7v2.7h2.7v2.7h-5.3v2.7h-2.7v-2.7h-5.3v-2.7h2.7v-2.7h2.7v2.7h2.7v-2.7zm-8 18.6v-5.3h2.7v5.3h-2.7zm2.7-5.3v-5.3h2.7v5.3h-2.7zm2.6 5.3v-2.7h5.3v2.7h-5.3zm5.3-5.3h-2.6v-5.3h8v5.3h-2.7v-2.7h-2.7v2.7zm2.7 2.7h-2.7v-2.7h2.7v2.7zm0-13.3v-2.7h2.7v2.7h-2.7zm5.3 15.9h-5.3v-2.7h5.3v2.7zm0-15.9v2.7h-2.7v-2.7h2.7zm2.6 0h2.7v13.3h-2.7v-13.3zm8-2.7v5.3h2.7v2.7h-2.7v2.7h10.6v8h-13.3v-18.6l2.7-.1zm2.7 15.9v-2.6h-2.7v2.7l2.7-.1zm5.3-10.6v2.7h-2.7v-2.7h-2.7v-5.3h2.7v2.7h5.3v2.7h-2.6zm0 10.6v-2.6h-2.7v2.7l2.7-.1zm-968.1 10.7h-2.6v-2.7h2.6v2.7zm-2.7 5.3V569h2.6v-2.7h2.6v13.3H153v-8l-2.6.1zm5.3-8h-2.6V561h2.6v2.7zm5.3 0h-2.7V561h2.6l.1 2.7zm0 5.3h-2.7v-2.7h2.6l.1 2.7zm-2.6 2.6h2.6v8h-2.7l.1-8zm5.3-10.6h5.3v2.7h-5.3V561zm0 8v-2.7h5.3v13.3h-5.3V577h2.6v-8h-2.6zm61 0h5.3v-2.7h2.7v8H230v2.7h2.7v2.7h-5.3V577h-2.6v-2.7H222V569h-2.7v5.3h2.7v2.7h-8v-2.7h2.6V569H214v-2.7h2.6V561h2.6v5.3h5.3l.2 2.7zm8-8v2.7H230v2.7h-5.3v-2.7H222V561h10.7zm-8 18.6H222V577h2.6l.1 2.6zm47.7-13.2h2.6v13.3h-5.3V577h2.6v-8h-2.6v8H267v2.7h-10.6v-5.3h2.6v2.7h5.3v-2.7h2.6v-2.7h-5.3v2.7H259v-2.7h-2.6V569h2.6v-2.7h-2.6v-2.7h2.6V561h2.6v2.7h5.3v2.7h-5.3v2.7h5.3v-2.7h2.7V561h2.6l.2 5.4zm45.1-5.3v2.7h-2.7v2.7h2.7v5.3h-2.7V569h-2.6v2.7h2.6v8h-2.6V577h-2.6v-2.7h-2.7v-2.7h2.6V569h-2.6v2.7h-2.6v8h-2.7V577H299v-8h2.6v-2.7H299v-2.7h2.6V561h2.7v5.3h2.6V561l10.6.1zm-8 18.5h-2.6V577h2.6v2.6zm0-13.2h2.6v-2.7h-2.6v2.7zM344 569h2.6v-2.7h2.6V577h-8v-13.3h5.3v2.7H344v2.6zm0 5.3h2.6v-2.7H344v2.7zm15.9-8h-5.3v2.7h5.3v2.7h-5.3v2.7h5.3v2.7h-5.3v2.7H352v-13.3h-2.7v-5.3h2.7v2.7h8l-.1 2.4zm42.5.1V577h-8v2.7h-2.6v-5.3h2.6v-2.7h-2.6v2.7h-2.6v-2.7h-5.3v-5.3h2.6v2.6h2.7v-2.7h-2.7V561h2.7v2.7h5.3v2.7h-2.6v2.7h2.6v-2.7h7.9zm-15.9 13.2h-2.6V577h2.6v2.6zm2.6-2.6h-2.7v-2.7h2.7v2.7zm10.6-2.7V569h-2.6v5.3h2.6zM413 569h-2.7v2.7h2.7v2.7h-2.7v5.3h-2.6V577H405v-5.3h2.6V569H405v-2.7h2.6V561h2.6v5.3h2.7v2.7zm10.6-8v5.3H421v-2.7h-2.6v2.7H413V561h10.6zm-5.3 8v-2.7h2.6v2.7h2.6v2.7H421v2.7h-2.6v2.7h-2.6v-5.3H413V569h5.3zm-2.6 10.6H413V577h2.6l.1 2.6zm2.6 0V577h2.6v-2.7h2.6v5.3h-5.2zm68.9-15.9V577h-8v2.7H474V577h2.6v-8H474v8h-2.7v-8h-2.6v-2.7h5.3V561h2.6v5.3h2.6v-2.7l8 .1zm-15.9 15.9h-2.6V577h2.6v2.6zm13.3-13.2H482v8h2.6v-8zm31.8 2.6v2.7h2.7v2.7h-2.7v5.3h-2.7V577h-2.6v-5.3h2.6V569h-2.6v-2.7h2.6V561h2.7v5.3h2.7v2.7h-2.7zm13.3-5.3v2.7H527v2.7h2.7v2.7H527v2.7h2.7v2.7H527v2.7h-2.7v-5.3h-2.7v-2.7H519V569h5.3v-2.7H519V561h2.7v2.7h2.7V561h2.7v2.7h2.6zm-8 13.3H519v-2.7h2.7v2.7zm50.4-15.9v2.7h-2.7v2.7h2.7v5.3h-2.7v2.7h-2.7V569H564v8h-2.7v-5.3h-2.7v8h-5.3V577h2.7v-2.7h-2.7v-2.7h2.7v-5.3h-2.7v-2.7h2.7v-2.7h2.7v2.7h5.3v2.7h2.7v-2.7H564v-2.7l8.1.2zm-13.2 5.3v2.6h2.7v-2.7l-2.7.1zm5.3 10.6h5.3v-2.7h2.7v5.3h-8V577zm74.2-13.3h2.7v2.7h-2.7v-2.7zm0 13.3v-5.3h2.7v5.3h-2.7zm2.7-5.3V569h2.7v2.7h-2.7zm15.9-5.3h-2.7v5.3h-2.7v2.7h2.7v2.7H649v-5.3h-2.7v-5.3h-2.7v-2.7h5.3v-2.7h2.7v2.7h5.3v2.6zm-10.6 8h-2.7v-2.7h2.7v2.7zm-2.7 5.3V577h5.3v2.7h-5.3zm13.3-8v2.7h-2.7v-2.7h2.7zm0 5.3v2.7h-2.7V577h2.7zm18.5-2.7h-2.6v2.7h2.7v2.7H665v-5.3h2.7v2.7h2.7v-2.7h-2.7V569H665v5.3h-2.7v-2.7h-2.7V569h2.7v-2.7h-2.7v-2.7h2.7V561h2.7v2.7h2.7V561h8v13.3zm-15.9 5.3v-5.3h2.7v5.3h-2.7zm13.3-13.2v-2.7h-2.7v2.7h2.7zm0 2.6h-2.7v2.7h2.7V569zm2.7 8v-2.7h2.7v2.6l-2.7.1zm7.9-15.9h2.7v2.7h2.7v2.7h-2.7v2.6h2.7v2.7h-2.7v8h-5.3V577h2.7v-2.7h-2.7v-2.7h2.7v-5.3h-2.7v-2.7h2.7l-.1-2.5zm15.9 0v18.6h-10.6V577h8v-5.3h-5.3V569h5.3v-5.3h-8V561l10.6.1zm63.7 5.3h-2.7v5.3h2.7v8h-5.3V577h2.7v-2.7h-2.7v2.7h-2.7v-2.7h-2.7v2.7h-2.7v-5.3h8V569h-5.3v-2.7h-2.7v2.7H747v-2.7h-2.7v-2.7h5.3V561h2.7v2.7h2.7V561h2.7v2.7h5.3v2.7zm-18.6 5.3h2.7v2.7h-2.7v-2.7zm0 8V577h5.3v2.7h-5.3zm10.6 0h-2.7V577h2.7v2.7zM787 569h2.7v2.7H787V569zm5.3 8h8v2.7H787V577h2.7v-2.7h2.7l-.1 2.7zm-2.7-10.6h2.7v2.6h-2.7v-2.6zm5.3-5.3v5.3h-2.7v-5.3h2.7zm-2.6 10.6h2.7v2.7h-2.7v-2.7zm2.6-2.7h2.7v2.7h-2.7V569zm5.3-5.3v5.3h-2.7v-5.3h2.7zm0 8h2.7v5.3h-2.7v-5.3zm2.7 8V577h2.7v2.7h-2.7zm66.3-13.3v2.6h-2.7v2.7h-2.7V569h-2.7v2.7h2.7v2.7h-2.7v2.7h2.7v2.7h-13.3V577h8v-2.7h-2.7v-2.7h2.7V569h-2.7v2.7h-2.7V569h-2.7v-2.7h8v-2.7h-5.3V561h13.3v2.7h-5.3v2.7h8.1zm-16 8h-2.7v-2.7h2.7v2.7zm13.3 2.6h-2.7v-2.7h2.7v2.7zm2.7-5.3v2.7h-2.7v-2.7h2.7zm0 5.3v2.7h-2.7V577h2.7zm42.4-10.6v2.6H909v2.7h2.7v2.7H909v2.7h2.7v2.7h-13.3V577h2.7v-5.3h-8v-5.3h2.7v2.6h2.7v-5.3h-2.7V561h5.3v8h2.7v2.7h2.7V569h-2.7v-2.7l7.8.1zm-18.6 8h5.3v2.6H893v-2.6zm10.6 2.6h2.7v-2.7h-2.7v2.7zm2.7-15.9h2.7v2.7h-2.7v-2.7zm47.7 2.6v2.7h-2.7v2.6h2.7v2.7h-2.7v2.7h-2.7v5.3h-5.3V577h2.7v-2.7h-2.7v-2.7h-2.7v8h-2.7V569h-2.7v-2.7h2.7v-2.7h2.7V561h2.7v2.7h2.7V561h2.7v2.7h5.3zm-13.3 2.7v2.6h2.7v-2.7l-2.7.1zm5.3 2.6h2.7v-2.7H946v2.7zm71.7-7.9v2.7h-2.7v2.7h2.7v13.3h-2.7V577h-2.7v2.7h-2.7V577h-2.7v-2.7h-8v-10.6h2.7v2.7h2.7v-2.7h2.7V561h10.7zM999.1 577h8v2.7h-8V577zm2.7-15.9h2.7v2.7h-2.7v-2.7zm8 5.3h2.7v-2.7h-2.7v2.7zm0 5.3v2.7h2.7v-2.7h-2.7zm23.8-5.3v8h5.3v2.6h-2.7v2.7h-2.7V577h-8v2.7h-2.6V577h-2.7v-2.7h5.3v-8h-5.3v-2.7h5.3V561h2.7v2.7h2.7V561h2.7v2.7h5.3v2.7h-5.3zm-2.7 0h-2.7v2.6h2.7v-2.6zm-2.6 8h2.7v-2.7h-2.7v2.7zm50.4-.1h2.7v2.7h-2.7v2.7h-2.7V577h-8v2.7h-2.7V577h-2.7v-2.7h2.7v-10.6h-2.7V561h18.6v2.7h-2.7l.2 10.6zm-8-8h-2.7v2.7h2.7v-2.7zm-2.7 5.3v2.7h2.7v-2.7h-2.7zm5.3-2.6h2.7v-2.7h-2.7v2.7zm0 5.3h2.7v-2.7h-2.7v2.7zm50.5-13.2v2.7h-2.7v2.7h2.7v5.3h-2.7V569h-2.7v2.7h2.7v2.7h-5.3v2.7h5.3v-2.7h2.7v5.3h-10.6V577h-2.7v2.7h-2.7V577h-2.7v-2.7h2.7v-2.7h-2.7V569h2.7v-2.7h-2.7v-2.7h2.7V561h2.7v2.7h5.3v2.7h2.7v-2.7h-2.7V561l8 .1zm-10.6 5.3h-2.7v2.6h2.7v-2.6zm-2.7 5.3v2.7h2.7v-2.7h-2.7zM169 582.3v10.6h-2.6v-2.7h-2.6v2.7h2.6v2.7h-2.6v2.7h5.3v2.7h-18.6v-2.7h5.3v-2.7h-2.6v-2.7h-2.6v-8h2.6v-2.7h2.6v2.7h5.3v-2.7l7.9.1zm-10.6 10.6h2.6v-5.3h-8v2.7h5.3l.1 2.6zm5.3-5.3h2.6v-2.7h-2.6v2.7zm31.8 0h-2.6v-2.7h2.6v2.7zm0 5.3h-2.6v-2.7h2.6v2.7zm0 8h-2.6v-2.7h2.6v2.7zm2.7-15.9h-2.7v-2.7h2.7v2.7zm0 2.6v2.7h-2.7v-2.7h2.7zm0 10.6h-2.7v-5.3h2.7v5.3zm13.2-13.2h-5.3v2.7h5.3v8h-2.6v-5.3h-5.3v2.7h2.6v5.3h-2.6v-2.7h-2.6v-8h2.6V585h-2.6v-2.7h10.6l-.1 2.7zm-8 15.9h-2.6v-2.7h2.6v2.7zm8 0h-2.6v-2.7h2.6v2.7zm45.1-16h2.6v2.7h-2.6v-2.7zm2.7 13.3h-2.6v-2.7h2.6v2.7zm0-5.3h2.6v2.7h-2.6v-2.7zm5.3-2.7h-2.6v-2.7h2.6v2.7zm0 10.6h-2.6v-2.7h2.6v2.7zm10.6-15.9v5.3h-2.6v-2.7h-8v-5.3h2.6v2.7h8zm-8 13.3h-2.6v-2.7h2.6v2.7zm0-8h2.7v5.3h-2.7v-5.3zm2.6 8v-2.7h2.6v2.7h-2.6zm5.3 2.6h-2.6v-2.7h2.6v2.7zm42.5-15.9v2.7h-2.7v2.7h2.7v2.7h-2.7v2.7h2.7v5.3h-10.6v-2.7h-2.6v2.7h-2.7v-5.3H299V593h2.6v-2.7H299V585h2.6v2.7h2.7V585h2.6v-2.7h2.6v2.7h2.6v-2.7h2.6v2.7l2.8-.1zm-15.9-2.6h2.7v2.7h-2.7v-2.7zm2.6 13.2h2.6v-5.3h-2.6v5.3zm5.3-5.3h2.6v-2.7h-2.6v2.7zm0 5.3h2.6v-2.7h-2.6v2.7zm34.5 5.3h-2.6v-2.7h2.6v2.7zm8-13.2v8h-2.7v2.7h2.7v2.7h-5.3v-2.7H344V585h8v-2.7h2.6v2.7h5.3v2.7H352zm-2.7 0h-2.6v2.7h2.6v-2.7zm5.3 13.2v-2.7H352v-2.7h2.6v-5.3h5.3v8h-2.6v2.7h-2.7zm31.9 0h-2.6v-2.7h2.6v2.7zm15.9-15.9v8h-13.3v5.3h-2.7v-13.3h5.3v-2.7h2.6v2.7h8.1zm-2.7 5.3v-2.7h-10.6v2.7h10.6zm39.8-5.3v5.3h2.6v5.3h-2.6v-2.7h-8v2.7h-2.6v-5.3h2.6v-5.3h-5.3v-2.7h18.6v2.7h-5.3zm-13.3 5.3v-2.7h2.6v2.7h-2.6zm0 10.6v-2.7h5.3v2.7h-5.3zm5.3-5.3h8v2.7h-8v-2.7zm2.7-5.3h2.7v-5.3h-2.7v5.3zm10.6 10.6h-5.3v-2.7h5.3v2.7zm-2.6-13.2h2.6v2.7h-2.6v-2.7zm45-5.3v18.6h-5.3v-2.7h2.6v-13.3h-2.6v13.3h-2.6v-5.3h-2.6v-2.7H474v2.7h2.6v5.3H474v2.7h-2.7v-5.3h-2.6v-2.7h2.6v-2.7h-2.6v-5.3h2.6v-2.7h2.7v2.7h2.6v2.7h2.6v-2.7h-2.6v-2.7h10.6zm-8 18.5h-2.6v-2.7h2.6v2.7zm50.5-18.5v5.3H527v-2.7h-5.3v2.7h5.3v2.7h-2.7v2.7h5.3v2.7H527v2.7h-5.3v2.7H519v-2.7h-5.3v-2.7h-2.6V593h5.3v-2.7h-2.7v-2.7h5.3v-2.7h-5.3v2.7h-2.6v-5.3h18.6zm-10.6 10.6h2.7v-2.7h-2.7v2.7zm15.9-8h-2.7v-2.7h2.7v2.7zm0 5.3h-2.7v-2.7h2.7v2.7zm-2.7 2.7h2.7v8h-2.7v-8zm18.6-10.6v18.6h-2.7v-2.7h-2.7v2.7h-2.7v-2.7h-2.7v2.7h-2.7v-13.3h2.7v-2.7h2.7v-2.7h8.1zm-13.2 2.6v-2.7h2.7v2.7h-2.7zm2.6 8v2.7h2.7v-2.7h-2.7zm5.3-5.3h2.7V585h-2.7v2.6zm0 8h2.7V593h-2.7v2.6zm95.5 5.2h-2.7v-2.7h2.7v2.7zm15.9-15.9v8h-13.3v5.3H641v-13.3h5.3v-2.7h2.6v2.7h8.1zm-2.7 5.3v-2.7h-10.6v2.7h10.6zm55.7 5.3h-2.7v2.7h2.7v2.7h-8v-8h2.7v-2.7H702v-8h18.6v2.7H718v2.7h-2.7v-2.7h-2.7v2.7H710v2.7h-2.7v2.7h2.7v2.5zm-2.7-10.6h-2.7v2.7h2.7v-2.7zm5.3 5.3v-2.7h2.7v2.7h5.3v2.7h-5.3v2.7h2.7v2.7h-2.7v2.7h-2.7v-2.7H710v-2.7h2.7v-2.7H710v-2.7h2.6zm8 8v2.7H718v-2.7h2.6zm39.8-15.9v2.7h2.7v8h-5.3v2.7h5.3v2.7h-5.3v2.7h-2.7v-2.7h-5.3v-2.7h-5.3v-8h5.3V585h2.7v-2.7h2.7v2.7h2.7v-2.7h2.5zm-15.9 0h5.3v2.7h-5.3v-2.7zm0 18.5v-2.7h5.3v2.7h-5.3zm8-5.3h2.7v-2.7h-2.7v-2.7h2.7v-2.7h-2.7v2.7h-5.3v2.7h5.3v2.7zm5.3-5.3h2.7v-2.7h-2.7v2.7zm42.4-5.3v5.3h5.3v2.7h-2.7v5.3h2.7v2.7h-5.3v-2.7h-2.7v-5.3h-5.3v8H787v-2.7h2.7v-2.7H787v-2.7h2.7v-5.3H787V585h2.7v-2.7h2.7v2.7h2.7v2.7h-2.7v2.7h5.3V585H795v-2.7h10.6v2.7l-5.4-.1zm-2.6 15.9h-2.7v-2.7h2.7v2.7zm58.3-2.6h-2.7v-8h-2.7v-2.7h5.3l.1 10.7zm-2.7 2.6h-2.7v-2.7h2.7v2.7zm0-18.5h2.7v2.7h-2.7v-2.7zm10.7 2.6h5.3v10.6h-2.7v-2.7h-5.3v2.7h5.3v2.7h2.7v2.7h-13.3v-2.7h2.7v-13.3h2.7v-2.7h2.7l-.1 2.7zm2.6 5.3v-2.7h-5.3v2.7h5.3zm45.1-5.3v2.7H909v2.7h2.7v2.7H909v2.7h-2.7V593h-2.7v-2.7h2.7v-2.7h-8v2.7h2.6v5.3h-2.7v-2.7h-2.7v2.7H893v-5.3h2.7v-2.7H893v-2.7h5.3v-2.7h2.7v2.7h2.7v-2.7h2.7v2.7h5.2zm-15.9 15.9H893v-2.7h2.7v2.7zm2.6-2.6h-2.7v-2.7h2.7v2.7zm2.7 0v2.7h-2.7v-2.7h2.7zm5.3-2.7v2.7h2.7v-2.7h2.7v5.3h-8v-5.3h2.6zm47.7-13.2v13.3h-8v5.3h-2.7v-5.3h-8v-13.3H954zm-15.9 2.6v2.7h5.3v-2.7h-5.3zm0 8h5.3v-2.7h-5.3v2.7zm13.3-5.3V585h-5.3v2.7h5.3zm0 5.3v-2.7h-5.3v2.7h5.3zm29.2-5.3v-5.3h2.7v18.6h-2.7v-10.6h-2.7v-2.7h2.7zm8-2.7h-2.7v-2.7h2.7v2.7zm-2.7 2.7h2.7v13.3h-2.7v-13.3zm5.3-5.3h5.3v18.6h-5.3v-2.7h2.7v-13.3h-2.7v-2.6zm29.1 2.6v-2.7h2.7v2.7h-2.7zm2.7 5.3h-2.7v-2.7h2.7v2.7zm-2.7 10.6v-5.3h2.7v5.3h-2.7zm18.6-18.5v10.6h-2.7v2.7h-2.7v2.7h5.3v2.7h-13.3v-2.7h5.4v-2.7h-2.7v-2.7h-2.7v-5.3h-2.7v-2.7h2.7v-2.7l13.4.1zm-13.3 13.2h-2.6v-2.7h2.7l-.1 2.7zm10.6-8v-2.7h-8v2.7h8zm45.1-2.6v2.7h-2.7v2.7h2.7v10.6h-10.6v-2.7h-2.7v-2.7h-2.7v2.7h2.7v2.7h-5.3v-13.3h2.7v-2.7h-2.7v-2.7h10.6v2.7h2.6v-2.7h2.7v2.7h2.7zm-10.6 0h-2.7v2.7h2.7v-2.7zm2.7 5.3h2.6v-2.7h-2.7l.1 2.7zm5.3 8v-2.7h-5.3v2.7h5.3zm31.8-5.3v5.3h2.7v2.7h-8v-2.7h2.7v-5.3h-2.7v-8h2.7v-2.7h2.7v2.7h2.7v8h-2.8zm0-5.3h-2.7v2.7h2.7v-2.7zm13.3-2.7v2.7h-2.7v2.7h2.7v2.7h-2.7v2.7h2.7v2.7h-2.7v2.7h-2.7v-2.7h-5.3v-2.7h5.3V593h-2.7v-2.7h2.7v-2.7h-2.7v-2.7h2.7v-2.7h2.7v2.7h2.7zm-957.5 23.9v8h2.7v2.7h-2.6v2.7h-2.6v-2.7H161v2.7h-2.7v-2.7h-2.6v2.7H153v-2.7h-2.6v-8h2.6v-2.7h-2.6v-2.7h2.6v-2.6h2.6v2.7h2.6v-2.7h2.7v2.7h2.6v-2.7h2.6v2.7h2.7v2.7l-2.5-.1zm-8 0h-2.6v2.7h2.6v-2.7zm-2.6 5.3v2.7h2.6v-2.7h-2.6zm8-2.7v-2.6H161v2.7l2.7-.1zm26.5-5.2v2.7h-2.6v2.7h-2.7v2.7h2.6v-2.7h2.6v5.3h-2.6v2.7h-2.6v-2.7h-2.7v2.7h2.7v2.7h-8v-2.7h2.6v-2.7h-2.6v2.7h-2.6v-5.3h-2.7v-2.7h2.7V609h-2.7v-5.3h2.7v2.7h5.3v-2.7h8v2.7h2.6zm-15.9 15.9h-2.7v-2.7h2.7v2.7zm5.3-8h2.6v-2.7h-2.6v-2.6H177v2.7h2.6v2.6zm10.6 5.3v2.7h-2.6v-2.7h2.6zm84.9-10.6h-2.6v5.3h-2.6v2.7h2.6v2.7h2.6v2.7h-8v-8h-2.6v2.7h-5.3v2.7h5.3v2.7h-8v-8h2.6V609h-2.6v-2.7h5.3v-2.6h2.6v2.7h2.6v-2.7h2.7v2.7h5.3l.1 2.4zm-5.3 2.7v-2.7h-8v2.7h8zm5.3 2.6v2.7h-2.6v-2.7h2.6zm42.4-7.9v8h-5.3v2.7h-2.6v-2.7h-2.7v2.7h-2.6v-2.7H299v-8h8v-2.6h2.6v2.7h7.9zm-15.9 2.6v2.7h2.7v-2.7h-2.7zm0 13.3v-2.7h5.3v2.7h-5.3zm13.3-10.6v-2.7h-8v2.7h8zm-5.3 8h-2.7v-2.7h2.6l.1 2.7zm5.3 2.6h-5.3v-2.7h5.3v2.7zm39.7-5.3H352v2.7h2.6v2.7h-8v-2.7h2.6v-2.7h-2.6v-5.3H344v5.3h-2.6v-8h2.6v-5.3h2.6v5.3h2.6v-2.7h2.7v-2.6h2.6v2.7h2.6v8h-2.6v-2.7H352v2.7h2.6v2.6zm-10.6 5.3h-2.6v-2.7h2.6v2.7zm0-2.7v-2.7h2.6v2.7H344zm10.6 0v-2.7h2.6v2.7h-2.6zm5.3-5.3v2.7h-2.6v-2.7h2.6zm0 5.3v2.7h-2.6v-2.7h2.6zm42.5-15.9v5.3h-2.7v-2.7h-5.3v2.7h5.3v2.7h-2.6v2.7h2.6v-2.7h2.7v5.3h-2.7v2.7h2.7v2.7h-8v-2.7h2.6v-2.7h-2.6v2.7h-2.6v-5.3h-2.6v5.3h2.6v2.7h-8v-2.7h2.6v-2.7h-2.6v-2.7h2.6v-5.3h-2.6v-2.7h2.6v-2.6h2.7v2.7h2.6v-2.7h10.7zm-13.3 8h2.6v-2.7h-2.6v2.7zm55.7-2.7h-5.3v2.7h-2.6v-2.7h-2.7v2.7h2.7v5.3h2.6v2.7h-2.6v2.7h-2.7v-2.7h-2.6v2.7h-5.3v-18.6h5.3v2.7h8v-2.7h2.6v2.7h2.6v2.5zm-2.6 5.3h-2.6v-2.7h5.3V622h-5.3v-2.7h2.6v-5.2zm39.7-7.9h5.3v2.7h-2.7v5.3h-2.6v-2.7h-5.3v-2.7H474v10.6h-2.7v-2.7h-2.6V614h2.6v-2.7h-2.6v-2.6h2.6V606h8v-2.6h2.6v2.8zm-10.6 15.9h-2.6v-2.7h2.6v2.7zm8-2.7v-5.3h2.6v8h-5.3v-2.7h2.7zm55.7 2.7h-2.7v-2.7h2.7v2.7zm15.9-18.6v8h-13.3v8H535v-16h15.9zm-2.7 5.3v-2.7h-10.6v2.7h10.6zm8 0h-2.7v-2.7h2.7v2.7zm8 2.7h2.7v-2.7h2.7v2.7h2.7v5.3h-2.7v-2.7h-2.7v2.7h2.7v2.7h2.7v2.7H567v-2.7h-2.7v-5.3h-2.7v2.7h-2.7v-2.7h-5.3v-2.7h8v-2.6h2.7l-.1 2.6zm-8 10.6h-2.7v-2.7h2.7v2.7zm8-18.6v2.7h-2.7v2.7h-2.7v-2.7h-2.7v-2.7h8.1zm-5.3 15.9h-2.7v-2.7h2.7v2.7zm5.3 2.7h-2.7v-2.7h2.7v2.7zm2.7-15.9v2.7h-2.7v-2.7h2.7zm0-2.7h5.3v5.3h-2.7v-2.7h-2.7v-2.6zm90.1 5.3v5.3h-2.7v-2.7h-2.7v2.7h2.7v5.3h-2.7v-2.7H649v5.3h-5.3v-2.7h2.7v-2.7h-2.7v2.7H641V614h2.7v-2.7H641v2.7h-2.7v-5.3h8V606H641v-2.6h13.3v2.7H649v2.7h8zm-15.9 13.3h-2.7v-2.7h2.7v2.7zm15.9-2.7v2.7h-2.7v-2.7h2.7zm2.6-13.2v-2.7h2.7v2.7h-2.7zm2.7 5.3h-2.7v-2.7h2.7v2.7zm-2.7 10.6v-5.3h2.7v5.3h-2.7zm2.7-13.3v-2.7h2.7v2.7h-2.7zm0 8v-2.7h2.7v2.7h-2.7zm15.9-13.3v2.7h-2.7v2.7h2.7v5.3h-2.7v2.7h2.7v2.7h-5.3v2.7h-2.7v-2.7h-5.3v-2.7h2.7v-2.7h-2.7v-5.3h2.7v-2.7h-2.7v-2.6l13.3-.1zm-8 5.3h2.7v-2.7h-2.7v2.7zm26.6-5.3v2.7h2.7v8h-2.7v2.7h-2.7v2.7h2.7v-2.7h2.7v5.3h-8v-2.7h-2.7v-2.7h2.7v-2.7h-2.7v2.7h-2.7v-2.7h-2.7v2.7h-2.7v-10.6h2.7v-2.7h13.4zm-13.3 13.3h2.7v2.7h2.7v2.7h-8v-2.7h2.7l-.1-2.7zm0-8v2.7h2.7v-2.6l-2.7-.1zm10.6 2.6h2.7v-2.6h-2.7v2.6zm69-5.2h-2.7v5.3h2.7v5.3h-2.7v-2.7h-2.7v5.3H755v-5.3h-2.7v5.3h2.7v2.7h-5.3v-5.3H747v5.3h-2.7v-18.6h5.3v2.7h-2.7v2.7h2.7v-2.7h2.7v-2.7h10.6v2.7zm-15.9 5.3v2.7h2.7v-2.7h-2.7zm5.3-2.7v2.7h2.7v-2.7h-2.7zm10.6 13.3h-5.3v-2.7h5.3v2.7zm61-18.6v2.7h2.7v5.3h-2.7v-2.7h-2.7v2.7h2.7v5.3h-2.7v-2.7h-2.7v5.3H816v-5.3h-2.7v2.7h-2.7v-5.3h2.7v-2.6h-2.7v2.7h-2.7v-5.3h2.7v-2.7h2.7v2.7h2.7v-2.7h2.7v2.7h2.7v-2.7h2.7zm-13.3 18.6v-2.7h5.3v2.7h-5.3zm5.3-10.6h2.7v-2.7h-2.7v2.7zm8 10.6h-2.7v-2.7h2.7v2.7zm39.8-13.3v2.7h2.7v-2.7h2.7v5.3h-2.7v2.7h-5.3v2.7h8v2.7h-18.6v-2.7h2.7v-2.7h2.7v2.7h2.7v-5.3h-8v-2.7h2.7v-2.6h2.7v-2.7h-2.7v2.7h-2.6v-5.3h8v2.7h2.7v2.7h-2.7v2.7h2.7V609h2.3zm5.3-5.3v2.7h-2.7v2.7h-2.7v-2.7h-2.7v-2.7h8.1zm26.5 18.6H893v-2.7h2.7v2.7zm10.6-15.9h5.3v5.3H909v2.7h2.7v8h-8v-8h2.7v-2.7h-2.7v2.7H901v-2.7h-2.7v2.7h2.7v8h-2.7v-2.7h-2.7v-13.3h8v-2.7h2.7v2.7zm42.4 0h5.3v8h-2.7v2.7h-2.7v-2.7H946v2.7h-2.7v2.7h-2.7v2.7h-2.7v-2.7h-2.7v-8h2.7V609h-2.7v-5.3h2.7v2.7h2.7v-2.7h2.7v2.7h2.7v-2.7h2.7v2.5zm-10.6 8v2.7h2.7v-2.7h-2.7zm5.3-5.3v2.7h2.7v-2.7h-2.7zm2.7 13.2h-2.7v-2.7h2.7v2.7zm2.6-2.6H946v-2.7h2.7v2.7zm0-8h2.7v-2.7h-2.7v2.7zm5.3 10.6h-5.3v-2.7h5.3v2.7zm42.5-15.9v2.7h-2.7v2.7h2.7v2.7h-2.7v2.7h2.7v2.7h-5.3v2.7h-2.7v-2.7h-2.7V617h-2.7v-5.3h2.7V609h-2.7v2.7h-2.7v5.3h2.7v2.7h-2.7v2.7h-2.7v-18.6h5.3v2.7h5.3v-2.7h2.7v2.7h5.5zm-8 5.3h2.7v-2.7h-2.7v2.7zm29.2-8v18.6h-18.6v-18.6h18.6zm-15.9 15.9h2.7v-8h2.7v-2.6h-2.7v-2.7h-2.7v13.3zm5.3-2.6v2.7h2.7v-2.7h-2.7zm5.3-8h2.6v-2.7h-2.7l.1 2.7h-2.7v2.7h2.7v8h2.7v-8h-2.7v-2.7zm23.8 5.3h2.7v2.7h-5.3v-2.7h-2.6v-2.7h-2.7v-2.6h-2.7v2.7h2.7v2.7h-2.7v2.7h-5.3v-2.7h2.6v-5.3h-2.7v-2.7h2.7v-2.6h2.7v2.7h5.3v-2.7h2.7v2.7h2.7l-.1 7.8zm-13.2 8h-2.7v-2.7h2.7v2.7zm5.3 0h-2.7v-2.7h2.7v2.7zm2.7-5.3h-2.7v-2.7h2.7v2.7zm2.6 5.3h-2.6v-2.7h2.7l-.1 2.7zm5.3 0h-2.7v-2.7h2.7v2.7zm42.4-18.6v18.6h-18.6v-18.6h18.6zm-15.9 10.6h2.7v-2.7h2.7v-2.6h-2.7v-2.7h-2.7v8zm0 5.3h5.3v-2.7h-5.3v2.7zm13.3-13.3h-2.7v2.7h-2.7v2.7h2.7v2.7h2.7v-8.1zm-5.3 10.7v2.7h2.6v-2.7h-2.6zm23.8-10.6h5.3v2.7h-8v2.7h5.3v10.6h-13.3v-10.6h5.4v-2.7h-8v-2.7h5.3v-2.6h2.7v2.7h2.7v-2.7h2.7l-.1 2.6zm0 13.2v-2.7h-8v2.7h8zm-18.5 13.3h2.7v10.6h-2.7v-2.7h-2.7V638h2.7v-2.7h-2.7v2.7h-2.7v-2.7h-2.7v-2.7h-2.7v2.7h2.7v2.7h-2.7v2.7h2.7v2.7h-5.3V638h-2.7v-2.7h2.7v-2.7h-2.7v-5.3h2.7v2.6h2.7v-2.7h2.7v-2.7h8v8.2zm-13.3-8h2.7v2.7h-2.7v-2.7zm5.3 15.9V638h2.7v2.7l-2.7-.1zm5.3-10.6v-2.7h-2.7v2.7h2.7zm0 13.3h-2.7v-2.7h2.7v2.7zm5.3 2.6v10.6h-2.7v2.7h2.7v2.7h-2.7v2.7h-2.7v-2.7h-5.3v2.7h-2.7v-5.3h-2.7v5.3h-2.7V646h8v2.7h2.7v2.7h2.6v-2.7h-2.7V646h8.2zm-13.2 2.7h-2.7v2.7h2.7v-2.7zm-2.7 5.3v2.7h2.7v-2.7h-2.7zm10.6 5.3v-2.7h-5.3v2.7h5.3z" style="fill:#fbfbfb"/></svg>