<svg xmlns="http://www.w3.org/2000/svg" viewBox="0 0 1280 960"><path d="M1181.6 236.4H96.1m1085.5-58.1H96.1m1085.5-9.7H96.1m1085.5-9.7H96.1m1085.5 225.9H96.1m1085.5-67.7H96.1m1085.5-9.7H96.1m1085.5-9.7H96.1m1085.5-9.7H96.1" style="fill:none;stroke:#78716c;stroke-width:.5;stroke-miterlimit:10"/><path d="M163.7 178.3v9.7H154v9.7h9.7v9.7H154v19.4h-9.7v-19.3H125v9.7h-9.7v-9.7H96v-9.7h19.4V188h-9.7v-9.7h29v-9.7h9.7v9.7h19.3zm-48.4 48.4h-9.7V217h9.7v9.7zm0-67.7h9.7v9.7h-9.7V159zm29 38.7V188H125v9.7h19.3zm0-38.7h9.7v9.7h-9.7V159zm77.5 0v9.7h9.7v9.7h-9.7v9.6h9.7v-9.7h9.7v19.4h-9.7v29h-48.4v-29h-9.7V159h9.7v9.7h19.4v9.7h-19.4v9.6h29v-29h9.7zm0 48.4v-9.7h-29v9.7h29zm9.7-48.4h9.7v9.7h-9.7V159zm77.4 38.7v9.7h-9.7v9.7h19.4v9.7h-58.1V188h-9.7v-9.7h9.7v-9.7h9.7V188h19.4v-9.7h-9.7v-9.7h9.7V159h9.7v9.7h9.7v9.7h-9.7v9.6h19.4v9.7h-9.8zM270.2 159h9.7v9.7h-9.7V159zm19.4 58.1v-9.7h-9.7v-9.7h-9.7v19.4h19.4zm58-19.4V188H338v9.7h-9.7v-19.4h9.7V159h9.7v19.4H367V159h9.7v48.4H367V188h-9.7v9.7h-9.7zm-9.6 29h-9.7V217h9.7v9.7zm9.6-29v9.7h9.7v9.7H338v-19.4h9.6zm9.7 29V217h19.4v9.7h-19.4zm29-9.7h-9.7v-9.7h9.7v9.7zm0-29v-9.7h9.7v9.7h-9.7zm9.7 19.4h-9.7v-9.7h9.7v9.7zm58.1-29.1h9.7V217h-9.7v-9.7h-19.4v9.7H425v-29h9.7v9.7h19.4v-19.4zm-19.3 0h9.7v9.7h-9.7v-9.7zm9.7-9.7h9.7v9.7h-9.7v-9.7zm38.7 38.8h19.4v9.7h-29v-48.4h9.7l-.1 38.7zm38.7 0h19.4v9.7h-29v-48.4h9.7l-.1 38.7zm87.1-38.8v9.7h-19.3V217H580v-38.7h-9.7v-9.7H609zm9.7 19.4v19.4h9.7v9.7H609v-29l9.7-.1zm0-9.7H638v29.1h-9.7V188h-9.7v-9.7h.1zm38.7 0h19.4v48.4h-9.7V217h-19.4v-29h9.7v19.4h9.7V188h-9.7v-9.7zm-9.7 58.1v-9.7h19.4v9.7h-19.4zm38.8-48.4h9.7v9.7h9.7v9.7h9.7v9.7h-19.4v-9.7h-9.7V188zm9.6-9.7h19.4v19.4h-9.7V188h-9.7v-9.7zm48.4 9.7h-9.7v19.4h-9.7v-38.7h9.7v9.7h9.7v9.6zm0 19.4v9.7h-9.7v-9.7h9.7zm19.4-29.1h9.7v9.7h-9.7v29h-9.7v-58h9.7v19.3zm9.7 9.7h9.7v29h-9.7v-29zm19.3 0h9.7v9.7h9.7v9.7h9.7v9.7h-19.4v-9.7h-9.7V188zm9.7-9.7H822v19.4h-9.7V188h-9.7v-9.7zm29.1 9.7h9.7v29h-9.7v-29zm9.6 0v-9.7h9.7v9.7h-9.7zm48.4 19.4h9.7v9.7H880v-38.7h9.7v29zm0-38.8h19.4v38.7h-9.7v-29h-9.7v-9.7zm38.8 9.7v-9.7h9.7V217h-9.7v-29h-9.7v-9.7h9.7zm29-9.7h19.4v9.7h-19.4v-9.7zm0 29.1h9.7v9.7h19.4v9.7h-29l-.1-19.4zm9.7-9.7h9.7v9.7h-9.7V188zm9.6-9.7h9.7v9.7h-9.7v-9.7zm48.4-9.7V188h-9.7v-9.7h-19.4v-9.7h29.1zm-29 48.5v-9.7h19.4v9.7h-19.4zm19.4-19.4h-9.7V188h9.7v9.7zm9.7 0v9.7h-9.7v-9.7h9.7zm29 0V188h9.7v29h-9.7v-9.7H1035v-29h9.7v19.4h9.6zm-9.7-29.1h9.7v9.7h-9.7v-9.7zm58.1 9.7h-19.4v9.7h19.4v19.4h-9.7v-9.7h-19.4v-29h29l.1 9.6zm-29 38.8v-9.7h19.3v9.7h-19.3zm38.7-38.8h9.7v9.7h19.4v19.4h-9.7v-9.7h-9.7v9.7h9.7v9.7h-19.4v-38.8zm29-9.7v9.7H1122v-9.7h19.4zm38.7 0V188h-9.7v-9.7H1151v-9.7h29.1zm-19.3 19.4h9.7v29h-9.7v-29zM123.4 455.3h-14v7h14v7h-14v14h-7v-35h21v7zm14 0v21h-7v-21h7zm14-7v7h-14v-7h14zm-14 35v-7h14v7h-14zm14-28h7v21h-7v-21zm13.9-7h7v14h-7v-14zm0 35v-14h7v14h-7zm7-14v-7h14v7h-14zm14-21h7v14h-7v-14zm7 35h-7v-14h7v14zm27.9-35v7h7v7h-7v21h-7v-35h7zm14 0h7v35h-7v-14h-7v-7h7v-14zm14 0h7v14h-7v-14zm7 14h7v21h-7v-21zm14 0h-7v-7h7v7zm0-7v-7h7v7h-7zm20.9-7v7h7v7h-7v21h-7v-35h7zm7 28v-14h7v14h-7zm14-21v-7h7v35h-7v-21h-7v-7h7zm21 0v7h14v7h-14v14h-7v-35h21v7h-14zm14 7v-7h7v7h-7zm34.9-14h7v35h-7v-14h-14v14h-7v-35h7v14h14v-14zm14 13.9v-7h7v7h-7zm0 14h21v7h-21v-7zm21-28v7h-14v-7h14zm-14 14h14v7h-14v-7zm14 14v-7h7v7h-7zm-307.6 35h14v35h-7v-7h-14v-21h7v14h7v-14h-7v-7zm-7 41.9v-7h14v7h-14zm28-34.9h7v21h-7v-21zm7 0v-7h7v7h-7zm27.9-7v7h7v21h-21v-14h7v7h7v-7h-7v-7h-7v-7h14zm21 0h14v21h-7v-14h-7v14h7v7h-14v-42h7v14zm41.9 0h14v41.9h-7v-14h-14v-21h7v14h7v-14h-7v-6.9zm28 0v21h-7v-21h7zm7 0h7v28h-14v-7h7v-21zm14-7v-7h7v7h-7zm0 7h7v28h-7v-28zm13.9 21v-14h7v14h-7zm7-21h14v14h-7v-7h-7v-7zm14 28h-14v-7h14v7zm14-21h7v7h-7v14h-7v-42h7v21zm7-7h7v7h-7v-7zm7 28h-7v-14h7v14zm7-21h14v7h-14v-7zm20.9 34.9h-7v-7h7v7zm0-48.9v-7h7v7h-7zm0 7h7v35h-7v-35zm14-7v-7h7v7h-7zm0 7h7v28h-7v-28zm14 0h7v14h-7v-14zm7 28v-14h7v14h-7zm7-28h7v14h-7v-14zm14 7h7v7h7v7h7v7h-14v-7h-7v-14zm7-7h14v14h-7v-7h-7v-7zm34.9-14h7v41.9h-21v-21h7v14h7v-14h-7v-7h7v-13.9zm-363.5 69.9h7v14h-7v-14zm7 28v-14h7v14h-7zm7-28h7v14h-7v-14zm7 28v-14h7v14h-7zm7-28h7v14h-7v-14zm28 14v-7h7v21h-7v-7h-7v7h-7v-21h7v7h7zm-7-14h7v7h-7v-7zm27.9 21h7v7h-14v-28h7v21zm35-21v7h-7v21h-7v-21h-7v-7h21zm27.9 7h-7v7h-7v-7h-7v-7h21v7zm-21 7h7v7h14v7h-21v-14zm28 14v-7h7v7h-7zM130.4 652v7h-28v-7h28zm0 28v7h-28v-7h28zm-7-14v7h-14v-7h14zm35-7.1h-14v7h14v7h-14v7h14v7h-21V652h21v6.9zm34.9 0h-14v7h-7v-7h-7v-7h28v7zm-28 21h7v-7h7v7h14v7h-28v-7zm21-14v7h-7v-7h7zm21 0h7v7h-7v14h-7V652h7v13.9zm7-7h7v7h-7v-7zm7 14v7h-7v-7h7zm0-21h7v7h-7v-7zm7 28v7h-7v-7h7zm27.9-21h-14v7h14v7h-14v7h14v7h-21V652h21v6.9zm34.9-6.9v34.9h-7v-28h-14v28h-7V652h28zm28 6.9h7v28h-7v-7h-14v7h-7v-21h7v7h14v-14zm-14 0h7v7h-7v-7zm7-7h7v7h-7v-7zm42 .1v14h-7v-7h-14v-7h21zm-21 34.9v-14h7v7h14v7h-21zm14-14h-7v-7h7v7zm13.9 0v-14h7v14h-7zm0 14v-7h7v-7h7v14h-14zm28-34.9v7h-21v-7h21zm-7 34.9v-14h7v7h7v7h-14zm7-27.9h7v14h-7v-14zm-265.6 62.8h-7v14h-7v-14h-7v-7h21v7zm0 14v7h-7v-7h7zm7-14v-7h7v7h-7zm7 0h7v21h-7v-21zm7-7h14v41.9h-7v-34.9h-7v-7zm27.9 0v14h7v7h-7v7h-7v-28h7zm7 0h7v14h-7v-14zm35 0v21h-7v-21h7zm14-7v7h7v21h-7v21h-7v-14h-7v-7h7v-28h7zm20.9 7v21h-7v-21h7zm7 28h-7v-7h7v7zm0-28h7v21h-7v-21zm14 0h7v14h-7v-14zm0 21h7v21h-7v-21zm14 0h-7v-7h7v7zm0-21h7v14h-7v-14zm0 42v-21h7v21h-7zm13.9-35h7v14h-7v-14zm7-7h7v7h-7v-7zm7 28h-7v-7h7v7zm0-21h7v14h-7v-14zm21-7v21h-7v-21h7zm7 0h14v21h-7v21h-7v-14h-7v-7h7v-21zm34.9 0v-7h7v28h-7v-14h-7v14h-7v-28h7v7h7zm-7-14h7v7h-7v-7zm7 42h-7v-7h7v7zm14-21h7v14h-7v-14zm7-14v-7h7v7h-7zm0 7h7v7h-7v-7zm7 28h-7v-7h7v7zm0-41.9v-7h7v7h-7zm0 21h7v14h-7v-14zm21-.1v14h7v7h-7v14h-7v-35h7zm0-7h7v7h-7v-7zm7 7h7v14h-7v-14zm13.9 0h7v14h-7v-14zm7-7h7v7h-7v-7zm7 28h-7v-7h7v7zm0-21h7v14h-7v-14zm7-7h7v7h-7v-7zm7 21v7h-7v-7h7zm-356.5 49h-7v7h7v7h-14v-28h14v14zm0 7v-7h7v7h-7zm28-.1v-7h7v14h-21v-14h7v7h7zm0-21v14h-7v-14h7zm27.9 7.1v7h-7v7h14v7h-21v-28h21v7h-7zm14 20.9v-14h7v14h-7zm7-28h7v14h-7v-14zm7 14h7v14h-7v-14zm14-6.9v-7h7v7h-7zm7 0h7v21h-7v-21zm7 0v-7h7v7h-7zm13.9-7h14v7h-7v21h-7v-28zm28 0v7h7v7h-7v14h-7v-28h7zm7 28v-14h7v14h-7zm14-21v-7h7v28h-7v-14h-7v-7h7zm20.9 0h-7v-7h7v7zm7-7h7v28h-7v-28zm28 14v-7h7v21h-7v-7h-7v7h-7v-21h7v7h7zm-7-14h7v7h-7v-7zm20.9 27.9v-7h7v7h-7z" style="fill:#fbfbfb"/><path d="M162.7 336.4h19.4v9.7h-19.4v29H153v-29h-29v19.4h-9.7v-19.4H95v-9.7h19.4V317h-9.7v-9.7H124v-9.7h9.7v9.7h9.7v-9.7h9.6v9.7h19.4v9.7h-9.7v19.4zm-48.4 38.7h-9.7v-9.7h9.7v9.7zm0-77.4V288h9.7v9.7h-9.7zm38.7 38.7V317h-29v19.4h29zm0-48.4h9.7v9.7H153V288zm96.8 29.1h19.4v-9.7h9.7v19.4h-9.7v48.4h-67.8v-48.4h-9.7V288h9.7v9.7h29v9.7h-29v9.7h29v9.7h19.4v-9.7zm9.7 29v-9.7h-48.4v9.7h48.4zm0 19.3v-9.7h-48.4v9.7h48.4zm-9.7-67.7h19.4v9.7h-19.4v9.7h-9.7v-29h9.7v9.6zm19.4-9.7h9.7v9.7h-9.7V288zm19.4 29.1h9.7v-9.7h9.7v67.8h-9.7v-48.4h-9.7v-9.7zm29-29v19.4h-9.7V288l9.7.1zm58.1 38.7h-19.3v9.7h9.7v9.7h-9.7v19.4h19.4v9.7h-58.1v-9.7h29v-19.4h-19.3v-9.7h19.4v-9.7h-29v-9.7h29v-9.7h-19.4v-9.7h19.4V288h9.7v9.7h9.7v9.7h-9.7v9.7h19.4l-.2 9.7zm38.7-9.7h-9.7v9.7H395v-9.7h-9.7v-9.7h19.4V288h9.7v19.4h9.7v19.4h9.7v9.7h-9.7v9.7h-9.7v-29.1zm-29 19.3v-9.7h9.7v9.7h-9.7zm9.7 38.7h-9.7v-9.7h9.7v9.7zm0-29v-9.7h9.7v9.7h-9.7zm9.7 19.4h-9.7v-9.7h9.7v9.7zm0-9.7v-9.7h9.7v9.7h-9.7zm9.6 9.7v-9.7h9.7v9.7h-9.7zm9.7 0h29v9.7h-29v-9.7zm19.4-19.3v-19.4h-9.7v-19.4h9.7V288h9.7v58.1l-9.7.1zm19.3 19.3h-9.7v-9.7h9.7v9.7zm0-58.1h9.7v19.4h-9.7v-19.4zm0 48.4v-19.4h9.7v19.4h-9.7zm87.1-19.4v-9.7h9.7v38.7h-9.7V346h-29v19.4h-9.7v-38.7h9.7v9.7h29zm-19.3-29v19.4h-9.7v-19.4h9.7zm0-9.6h9.7v9.7h-9.7v-9.7zm19.3 29h-9.7v-19.4h9.7v19.4zm58.1 29v9.7h-38.7v-67.8h9.7v58.1h29zm48.4 0v9.7h-38.7v-67.8h9.7v58.1h29zm87.1-58.1v9.7h-19.4v58.1h-9.7v-58.1H695v-9.7h48.5zm9.7 29.1v29h-9.7v-29h9.7zm19.4-9.7v9.7h-19.4v-9.7h19.4zm-19.4 48.4v-9.7h19.4v9.7h-19.4zm19.4-38.7h9.7v29h-9.7v-29zm29 0v29h-9.7v-29h9.7zm-9.7 48.3h29v9.7h-29v-9.7zm38.8-58v58.1H821v-9.7h-19.4v-9.7H821v-29h-19.4v-9.7h29.1zm38.7 19.3v-9.7h9.7v19.4h-29v9.7h-9.7v-29h9.7v9.7l19.3-.1zm0-19.3v9.7H850v-9.7h19.4zM850 365.5v-9.7h29v9.7h-29zm58.1-38.7v29h-9.7v-29h-9.7v-9.7h9.7v-19.4h9.7v19.4h19.4v9.7h-19.4zm19.4 38.7h-19.4v-9.7h19.4v9.7zm19.3-48.4h19.4v9.7h-19.4v38.7h-9.7V288h9.7v29.1zm19.4 9.7h9.7v38.7h-9.7v-38.7zm48.4 9.6v-9.7h9.7v19.4h-29v9.7h-9.7v-29h9.7v9.7l19.3-.1zm0-19.3v9.7h-19.4v-9.7h19.4zm-19.4 48.4v-9.7h29v9.7h-29zm38.7-38.7h9.7v38.7h-9.7v-38.7zm9.7-9.7h19.4v9.7h-19.4v-9.7zM518 454.8h5.4v10.9H518v-10.9zm5.4 10.9h16.4v5.4h-10.9v5.4H518v-5.4h5.4v-5.4zm5.5-21.8v10.9h-5.4v-10.9h5.4zm0-5.4h5.4v5.4h-5.4v-5.4zm0 43.5v-5.4h16.3v5.4h-16.3zm16.3-49v5.4h-10.8V433h10.8zm-5.4 16.3h5.4v16.3h-5.4v-16.3zm5.4-10.9h5.4v10.9h-5.4v-10.9zm5.5 21.8h5.4v5.4h5.4v5.4h-10.9l.1-10.8zm10.9 0h-5.4v-16.3h5.4v16.3zm0 0h5.4v-5.4h5.4v16.3H567v-5.4h-5.4v-5.5zm10.8-16.3h5.4v10.9h-5.4v-10.9zm5.5 27.2v-10.9h5.4v5.4h16.3v5.4h-21.7v.1zm10.9-21.7v5.4h10.9v5.4h-16.3v-10.9h5.4v.1zm10.8-5.5v5.4h-10.9v-5.4h10.9zm0 10.9v-5.4h5.4v5.4h-5.4zm5.5 16.3v-10.9h5.4v5.4h5.5v5.4h-10.9v.1zm5.4-27.2h5.5v16.3h-5.4l-.1-16.3zm5.5-16.3h5.4v16.3H616v-16.3zm32.6 38.1h5.4v5.4h-10.8v-27.2h5.4v21.8zm5.4 0v-10.9h5.4v10.9H654zm5.5-21.8h5.4v10.9h-5.4v-10.9zm5.4 27.2v-10.9h5.4v5.4h5.4v5.4h-10.8v.1zm5.4-27.2h5.4v16.3h-5.4v-16.3zm5.5-5.4V433h5.4v5.4l-5.4.1zm16.3-5.5h5.4v16.3h-5.4v10.9h-5.4v-10.8h-5.4V444h10.9l-.1-11zm-10.9 38.1v-10.8h5.4v5.4h5.4v5.4h-10.8zm16.3-10.9h5.5v5.4h5.4v5.4h-10.9v-10.8zm10.9 0H703v-16.3h5.4v16.3zm0 0h5.4v-5.4h5.4v16.3h-5.4v-5.4h-5.4v-5.5zm10.9-16.3h5.4v10.9h-5.4v-10.9zm0 43.5v-10.9h5.4v10.9h-5.4zm10.9-27.2v5.4h10.9v5.4h-10.9v5.4h-5.4v-16.3h5.4v.1zm10.9-5.4h-5.4v5.4h-5.4v-16.3h5.4v5.4h5.4v5.5zm0-10.9H752v10.9h-5.4v-5.4h-5.4l-.1-5.5zm0 21.8v-10.9h5.4v10.9h-5.4zm10.9 5.4v-10.9h5.4v5.4h16.3v5.4H752v.1zm10.9-21.7v5.4h10.9v5.4h-16.4v-10.9h5.5v.1zm10.9-5.5v5.4h-10.9v-5.4h10.9zm0 10.9v-5.4h5.4v5.4h-5.4zm5.4 16.3v-10.9h5.4v10.9h-5.4zm5.4-27.2h5.4v5.4h5.4v5.4H790v5.4h-5.4v-16.2zm10.9 0h10.9v10.9H801v-5.4h-5.4l-.1-5.5zm10.8 16.3h5.4v5.4h5.4v5.4h-10.9l.1-10.8zm10.9-10.8v10.9h-5.4v-10.9h5.4zm16.3-5.5v10.9h-5.4v-5.4h-10.9V444h16.3v-.1zm-16.3 16.3h5.4v-5.4h5.4v16.3h-5.4v-5.4h-5.4v-5.5zm21.8 0v5.4h10.9v5.4h-16.3v-10.9h5.4v.1zm10.9-5.4h-5.4v5.4H839v-16.3h5.4v5.4h5.4v5.5h.1zm0-10.9h-5.4v-16.3h5.4v16.3zm0 0h10.9v10.9h-5.5v-5.4h-5.4v-5.5zm0 21.8v-10.9h5.4v10.9h-5.4zm10.8 5.4v-10.9h5.4v5.4h5.4v5.4h-10.8v.1zm5.5-27.2h5.4v16.3h-5.4v-16.3zm5.4-5.4V433h5.4v5.4l-5.4.1zm5.5 32.6v-10.9h5.4v5.4h5.4v5.4h-10.8v.1zm5.4-27.2h5.4v16.3h-5.4v-16.3zm5.4-16.3h5.4v16.3h-5.4v-16.3zm5.5 43.5v-10.9h5.4v5.4h16.3v5.4h-21.7v.1zm10.9-21.7v5.4h10.9v5.4h-16.3v-10.9h5.4v.1zm10.8-5.5v5.4h-10.9v-5.4h10.9zm0 10.9v-5.4h5.4v5.4h-5.4zm27.2 16.3h-5.4v-5.4h5.4v5.4zm10.9-27.2v5.4h5.4v5.4h-5.4v10.9h5.4v5.4h-10.9v-5.4h-5.4v-5.4h5.4v-10.9h-5.4v-5.4h10.9zm5.5 5.5V444h5.4v5.4h-5.4zm5.4 21.7v-10.9h5.4v5.4h16.3v5.4h-21.7v.1zm10.9-21.7v5.4h10.9v5.4h-16.3v-10.9h5.4v.1zm10.9-5.5v5.4H975v-5.4h10.9zm0 10.9v-5.4h5.4v5.4h-5.4zm5.4 16.3v-10.9h5.4v10.9h-5.4zm10.9-27.2v5.4h5.4v5.4h-5.4v5.4h-5.4v-16.3l5.4.1zm5.4 0h10.9v10.9h-5.4v-5.4h-5.4l-.1-5.5zm0 10.9h5.4v16.3h-5.4v-16.3zm16.3 5.4v5.4h10.9v5.4h-16.3v-10.9h5.4v.1zm5.5-10.8v10.9h-5.4v-10.9h5.4zm10.8-5.5v5.4h-10.9v-5.4h10.9zm-5.4 21.8v-10.9h5.4v10.9h-5.4zm5.4-10.9v-5.4h5.4v5.4h-5.4zm5.5 10.9h5.4v21.8h-10.9V482h5.4l.1-16.3zm10.9-21.8V433h5.4v10.9h5.4v5.4h-10.9v16.3h-5.4v-21.7h5.5zm5.4-16.3h10.9v10.9h-5.4V433h-5.4l-.1-5.4zm10.9 32.6v5.4h10.9v5.4h-16.3v-10.9h5.4v.1zm5.4-10.8v10.9h-5.4v-10.9h5.4zm10.9-5.5v5.4h-10.9v-5.4h10.9zm-5.4 21.8v-10.9h5.4v10.9h-5.4zm5.4-10.9v-5.4h5.4v5.4h-5.4zm10.9 5.4v5.4h10.9v5.4h-16.3v-10.9h5.4v.1zm10.9-5.4h-5.4v5.4h-5.4v-16.3h5.4v5.4h5.4v5.5zm0-10.9h-5.4v-16.3h5.4v16.3zm0 0h10.9v10.9h-5.4v-5.4h-5.4l-.1-5.5zm0 21.8v-10.9h5.4v10.9h-5.4zm16.3-5.5v5.4h10.9v5.4h-16.3v-10.9h5.4v.1zm5.4-10.8v10.9h-5.4v-10.9h5.4zm10.9-5.5v5.4h-10.9v-5.4h10.9zm-5.4 21.8v-10.9h5.4v10.9h-5.4zm5.4-10.9v-5.4h5.4v5.4h-5.4zM518 531h5.4v-5.4h5.4v5.4h10.9v5.4H518V531zm27.2-21.8v5.4h-5.4v5.4h-5.4v-5.4h-10.9v-5.4h21.7zm-10.9 16.4h-5.4v-5.4h5.4v5.4zm10.9 10.8v-10.9h5.4v5.5H567v5.4h-21.8zm10.9-21.8v5.4H567v5.4h-16.3v-10.9l5.4.1zm10.9-5.4v5.4h-10.9v-5.4H567zm0 10.9v-5.4h5.4v5.4H567zm5.4 16.3v-10.9h5.4v5.5h5.4v5.4h-10.8zm5.5-27.2h5.4v16.3h-5.4v-16.3zm5.4-16.3h5.4v16.3h-5.4v-16.3zm5.5 32.6h5.4v5.5h5.4v5.4h-10.9l.1-10.9zm10.8-10.9v10.9h-5.4v-10.9h5.4zm16.4-5.4v10.9h-5.4v-5.4h-10.9v-5.4l16.3-.1zm-16.3 16.3h5.4v-5.4h5.4v16.3h-5.4V531h-5.4v-5.5zm16.3 10.9v-10.9h5.4v10.9H616zm10.9-27.2v5.4h5.4v5.4h-5.4v5.4h-5.5v-16.3l5.5.1zm5.4 0h10.9v10.9h-5.4v-5.4h-5.4l-.1-5.5zm0 10.9h5.4v16.3h-5.4v-16.3zm27.2-21.8h5.4v16.3h-5.4v10.9H654v-10.9h-5.4v-5.4h10.9v-10.9zm-10.9 38.1v-10.9h5.4v5.5h5.4v5.4h-10.8zm16.3 0v-10.9h5.4v5.5h16.3v5.4h-21.7zm10.9-21.8v5.4h10.9v5.4h-16.3v-10.9l5.4.1zm10.9-5.4v5.4h-10.9v-5.4h10.9zm0 10.9v-5.4h5.4v5.4h-5.4zm21.7 5.4h5.4v5.5h5.4v5.4h-10.9l.1-10.9zm10.9-10.9v10.9h-5.4v-10.9h5.4zm16.3-5.4v10.9h-5.4v-5.4h-10.9v-5.4l16.3-.1zm-16.3 16.3h5.4v-5.4h5.4v16.3h-5.4V531h-5.4v-5.5zm21.8 0v5.5H752v5.4h-16.4v-10.9h5.5zm0-5.4v-5.4h5.4v5.4h-5.4zm16.3-10.9v5.4h-10.9v-5.4h10.9zm-5.4 10.9v5.4h-5.4v-5.4h5.4zm5.4 5.4v5.5H752v-5.4l5.4-.1zm10.9 0v5.5h10.9v5.4h-16.3v-10.9h5.4zm0-5.4v-5.4h5.4v5.4h-5.4zm16.3-10.9v5.4h-10.9v-5.4h10.9zm-5.4 10.9v5.4h-5.4v-5.4h5.4zm5.4 5.4v5.5h-5.4v-5.4l5.4-.1zm5.4 0h5.4v5.5h5.4v5.4H790v-10.9zm10.9-10.9v10.9h-5.4v-10.9h5.4zm16.3-5.4v10.9h-5.4v-5.4h-10.9v-5.4l16.3-.1zm-16.3 16.3h5.4v-5.4h5.4v16.3h-5.4V531h-5.4v-5.5zm16.3 16.3v5.4h10.9v5.4h-16.3v-10.9l5.4.1zm5.5-16.3v5.5h5.4v5.4h-10.9v-10.9h5.5zm5.4-10.9v10.9h-5.4v-10.9h5.4zm16.3-5.4v10.9H839v-5.4h-10.9v-5.4l16.3-.1zm-16.3 16.3h5.4v-5.4h5.5v16.3h-5.4V531h-5.4l-.1-5.5zm0 21.8v-10.9h5.4v10.9h-5.4zm16.3-5.5v5.4h10.9v5.4H839v-10.9l5.4.1zm5.5-16.3v5.5h5.4v5.4h-10.9v-10.9h5.5zm5.4-10.9v10.9h-5.4v-10.9h5.4zm16.3-5.4v10.9h-5.4v-5.4h-10.9v-5.4l16.3-.1zm-16.3 16.3h5.4v-5.4h5.4v16.3h-5.4V531h-5.4v-5.5zm0 21.8v-10.9h5.4v10.9h-5.4zm16.3-10.9v-10.9h5.4v5.5h5.4v5.4h-10.8zm5.5-27.2h5.4v16.3h-5.4v-16.3zm5.4-5.4v-5.4h5.4v5.4h-5.4zm5.4 21.7h5.4v5.5h5.4v5.4h-10.9l.1-10.9zm10.9-10.9v10.9h-5.4v-10.9h5.4zm16.3-5.4v10.9h-5.4v-5.4h-10.9v-5.4l16.3-.1zm-16.3 16.3h5.4v-5.4h5.4v16.3h-5.4V531h-5.4v-5.5zm32.7 10.9v-10.9h5.4v5.5h5.4v5.4h-10.8zm5.4-27.2h5.4v16.3h-5.4v-16.3zm5.4-5.4v-5.4h5.4v5.4h-5.4zm5.5 32.6v-10.9h5.4v5.5h5.4v5.4h-10.8zm5.4-27.2h5.4v16.3h-5.4v-16.3zm5.5-16.3h5.4v16.3h-5.4v-16.3zm43.5 38.1h5.4v5.4h-10.9V531h-5.4v5.4h-5.4v-27.2h5.4v16.3h5.4v-16.4h5.4l.1 21.9zm5.4 0v-10.9h5.4V531h-5.4zm5.4-21.8h5.4v10.9h-5.4v-10.9zm5.5 27.2v-10.9h5.4v10.9h-5.4zm10.9-27.2v5.4h5.4v5.4h-5.4v5.4h-5.4v-16.3l5.4.1zm5.4 0h-5.4v-16.3h5.4v16.3zm0 0h10.9v10.9h-5.4v-5.4h-5.4l-.1-5.5zm0 10.9h5.4v16.3h-5.4v-16.3zm10.9 16.3v-10.9h5.4v5.5h5.4v5.4h-10.8zm5.4-27.2h5.4v16.3h-5.4v-16.3zm5.5-5.4v-5.4h5.4v5.4h-5.4zm10.8 21.7v5.5h10.9v5.4H1062v-10.9h5.4zm0-5.4v-5.4h5.4v5.4h-5.4zm16.4-10.9v5.4h-10.9v-5.4h10.9zm-5.5 10.9v5.4h-5.4v-5.4h5.4zm5.5 5.4v5.5h-5.4v-5.4l5.4-.1zm5.4 10.9v-10.9h5.4v10.9h-5.4zm10.9-27.2v10.9h5.4V531h5.5v5.4h-10.9v-10.9h-5.4v-16.3h5.4zm5.4 0h-5.4v-16.3h5.4v16.3zm5.5 10.9h-5.4v-5.4h5.5l-.1 5.4zm0-5.5v-5.4h5.4v5.4h-5.4zm5.4 27.2v5.4h10.9v5.4H1111v-10.9l5.4.1zm5.4-16.3v5.5h5.4v5.4h-10.9v-10.9h5.5zm5.5 0h-5.4v-16.3h5.4v16.3zm0 0h5.4v-5.4h5.4v16.3h-5.4V531h-5.4v-5.5zm0 21.8v-10.9h5.4v10.9h-5.4zm10.9-38.1h5.4v10.9h-5.4v-10.9zM518 601.7v-10.9h5.4v5.4h16.4v5.4l-21.8.1zm10.9-21.8v5.4h10.9v5.4h-16.3v-10.9l5.4.1zm10.9-5.4v5.4H529v-5.4h10.8zm0 10.8v-5.4h5.4v5.4h-5.4zm5.4 5.5h5.4v5.4h5.4v5.4h-10.9l.1-10.8zm10.9-10.9v10.9h-5.4v-10.9h5.4zm10.9-5.4V569h5.4v16.3H567v-5.4h-10.9v-5.4H567zm-10.9 16.3h5.4v-5.4h5.4v16.3h-5.4v-5.4h-5.4v-5.5zm16.3-32.7h5.4V569h-5.4v-10.9zm16.4 43.6v-10.9h5.4v5.4h16.3v5.4l-21.7.1zm10.8-21.8v5.4h10.9v5.4h-16.3v-10.9l5.4.1zm10.9-5.4v5.4h-10.9v-5.4h10.9zm0 10.8v-5.4h5.5v5.4h-5.5zm10.9 5.5v5.4h10.9v5.4H616v-10.9l5.4.1zm0-5.5v-5.4h5.4v5.4h-5.4zm16.3-10.8v5.4h-10.9v-5.4h10.9zm-5.4 10.8v5.4h-5.4v-5.4h5.4zm5.4 5.5v5.4h-5.4v-5.4h5.4zm5.5 10.9v-10.9h5.4v5.4h16.3v5.4l-21.7.1zm5.4-10.9v-10.9h5.4v10.9h-5.4zm21.8-16.3v10.9H665V580h-11v-5.4h16.4v-.1zm0 27.2v-10.9h5.4v5.4h5.4v5.4l-10.8.1zm5.4-27.2h5.4v16.3h-5.4v-16.3zm5.4-16.4h5.4v16.3h-5.4v-16.3zm5.5 32.7h5.4v5.4h5.4v5.4h-10.9l.1-10.8zm10.8-10.9v10.9h-5.4v-10.9h5.4zm16.4-5.4v10.9h-5.4V580h-10.9v-5.4h16.3v-.1zm-16.4 16.3h5.5v-5.4h5.4v16.3H703v-5.4h-5.4l-.1-5.5zm16.4 10.9v-10.9h5.4v10.9h-5.4zm5.4-27.2h5.4v5.4h5.4v5.4h-5.4v5.4h-5.4v-16.2zm21.8 0v5.4h5.4v5.4h-5.4v5.4h-5.4v-10.9h-5.4v-5.4l10.8.1zm-10.9 27.2v-10.9h5.4v10.9h-5.4zm16.3-27.2h10.9v10.9H752V580h-5.4l-.1-5.5zm0 10.8h5.5v16.3h-5.4l-.1-16.3zm10.9 5.5h5.4v5.4h5.4v5.4h-10.9l.1-10.8zm10.9-10.9v10.9h-5.4v-10.9h5.4zm16.3-5.4v10.9h-5.4V580h-10.9v-5.4h16.3v-.1zm-16.3 16.3h5.4v-5.4h5.4v16.3h-5.4v-5.4h-5.4v-5.5zm16.3 5.4h5.4v5.4h-5.4v-5.4zm5.4-16.3h5.4v5.4H790v-5.4zm21.8 10.9h5.4v5.4h5.4v5.4h-10.9l.1-10.8zm10.9-10.9v10.9h-5.4v-10.9h5.4zm16.3-5.4v10.9h-5.4V580h-10.9v-5.4H839v-.1zm-16.3 16.3h5.4v-5.4h5.4v16.3H828v-5.4h-5.4l.1-5.5zm16.3 10.9v-10.9h5.4v5.4h5.4v5.4l-10.8.1zm5.4-27.2h5.4v16.3h-5.4v-16.3zm5.5-16.4h5.4v16.3h-5.4v-16.3zm5.4 43.6v-10.9h5.4v5.4h5.4v5.4l-10.8.1zm5.4-27.2h5.4v16.3h-5.4v-16.3zm5.5-16.4h5.4v16.3h-5.4v-16.3zm5.4 43.6v-10.9h5.4v5.4h16.3v5.4l-21.7.1zm10.9-21.8v5.4h10.9v5.4h-16.3v-10.9l5.4.1zm10.9-5.4v5.4h-10.9v-5.4h10.9zm0 10.8v-5.4h5.4v5.4h-5.4zm5.4 16.4v-10.9h5.4v5.4h5.4v5.4l-10.8.1zm5.5-27.2h5.4v16.3h-5.4v-16.3zm5.4-16.4h5.4v16.3h-5.4v-16.3zm5.4 32.7h5.4v5.4h5.4v5.4H915v-10.8h.1zm10.9 0h-5.4v-16.3h5.4v16.3zm0 0h5.4v-5.4h5.4v16.3h-5.4v-5.4H926v-5.5zm10.9-16.3h5.4v10.9h-5.4v-10.9zm-5.4 38v-5.4h5.4v5.4h-5.4zm10.8 0v-10.9h5.4V618h-10.9v-5.4l5.5-.1zm5.5-32.6v-5.4h10.9v10.9h-5.4V580h-5.5v-.1zm0 5.4h5.4v16.3h-5.4v-16.3zm5.4-16.3v-5.4h5.4v5.4h-5.4zm5.5 21.8h5.4v5.4h5.4v5.4h-10.9l.1-10.8zm10.8-10.9v10.9h-5.4v-10.9h5.4zm16.4-5.4v10.9h-5.4V580h-10.9v-5.4h16.3v-.1zm-16.4 16.3h5.5v-5.4h5.4v16.3H975v-5.4h-5.4l-.1-5.5zm21.8 10.9h-5.4v-5.4h5.4v5.4zm0-10.9v-10.9h5.4v10.9h-5.4zm5.4-27.2h5.4v16.3h-5.4v-16.3zM545.2 674.1v5.4h-5.4v5.4h5.4v5.4h-5.4v10.9h-5.4v-10.9H529v10.9h-5.4v-10.9H518V685h5.4v-5.4H518v-5.4h5.4v-10.9h5.4v10.9h5.4v-10.9h5.4v10.9l5.6-.1zM528.9 685h5.4v-5.4h-5.4v5.4zm81.6-21.7v10.9h-5.4v-5.4h-5.4V696h5.4v5.4h-16.3V696h5.4v-27.2h-5.4v5.4h-5.4v-10.9h27.1zm16.3 16.3h5.4v5.4h-5.4v16.3H616v-5.4h5.4v-32.6H616v-5.4h10.9l-.1 21.7zm5.5 0v-5.4h5.4v5.4h-5.4zm5.4 0h5.4v21.8h-5.4v-21.8zm32.6 5.4v-5.4h5.4v10.9h-16.3v5.4H654v-16.3h5.4v5.4h10.9zm0-10.9v5.4h-10.9v-5.4h10.9zm-10.8 27.2v-5.4h16.3v5.4h-16.3zm59.8-21.7v16.3h-5.4v-16.3h5.4zm16.3 27.2h5.4v5.4h-16.3v-5.4h5.4v-10.9h-5.4v-5.4h5.4v-10.9h-10.9v-5.4H741v5.4h-5.4v27.2zm-10.8-5.5h-5.4v-5.4h5.4v5.4zm27.2-5.4h-5.4v-21.8h5.4v21.8zm5.4 5.4H752v-5.4h5.4v5.4zm10.9-21.7v16.3h5.4v5.4h-10.9v-5.4h-5.4v-5.4h5.4v-16.3h10.9v5.4h-5.4zm32.6 16.3h5.4v5.4h-21.8v-5.4h10.9v-16.3h-10.9v-5.4h16.3l.1 21.7zm-5.4-38.1h5.4v5.4h-5.4v-5.4zm21.7 21.8h5.4v16.3h-5.4v-16.3zm21.8-5.5V685h-5.4v-5.4h-10.9v-5.4l16.3-.1zm-16.3 27.2v-5.4H839v5.4h-16.3zm32.6-16.3h5.4v5.4h-5.4v10.9h-10.9v-5.4h5.4v-32.6h-5.4v-5.4h10.9V685zm5.4-5.4h5.4v5.4h-5.4v-5.4zm5.5 10.8v5.4h-5.4v-5.4h5.4zm0-16.3h5.4v5.4h-5.4v-5.4zm5.4 21.8v5.4h-5.4v-5.4h5.4zm49 0h10.9v5.4h-21.8v-5.4h5.4v-32.6h-5.4v-5.4h10.9v21.8h5.4v5.4h-5.4v10.8zm5.4-21.8h5.4v5.4H926v-5.4zm5.4 5.5h5.4v16.3h-5.4v-16.3zm10.9 0v-5.4h5.4v5.4h-5.4zm5.5 0h5.4v16.3h5.4v5.4h-16.3v-5.4h5.4l.1-16.3zm5.4-5.5h10.9v5.4h-10.9v-5.4zm10.9 10.9v-5.4h5.4v5.4h-5.4zm21.7-5.4v16.3h-5.4v-16.3h5.4zm10.9-5.5v5.4h-10.9v-5.4h10.9zm-10.9 27.2v-5.4h10.9v5.4h-10.9zm10.9-21.7h5.4v16.3h-5.4v-16.3zm16.3 16.3h-5.4v-21.8h5.4v21.8zm5.5 5.4h-5.4v-5.4h5.4v5.4zm5.4-21.7v16.3h-5.4v-16.3h5.4zm5.5 21.7h-5.4v-5.4h5.4v5.4zm0-27.2h5.4v21.8h-5.4v-21.8zm21.7 0v5.4h5.4v5.4h-5.4v16.3h-10.9v-5.4h5.4v-16.3h-5.4v-5.4h10.9zm5.5 5.5v-5.4h5.4v5.4h-5.4zm5.4 0h5.4v21.8h-5.4v-21.8zm54.4-5.5v-10.9h5.4v10.9h10.9v5.4h-10.9v16.3h5.4v5.4H1111v-5.4h5.4v-16.3h-10.9v-5.4h10.9zm5.4-16.3h10.9v10.9h-5.4v-5.4h-5.4l-.1-5.5zm27.2 21.8v16.3h-5.4v-16.3h5.4zm10.9-5.5v5.4H1149v-5.4h10.9zm-10.9 27.2v-5.4h10.9v5.4H1149zm10.9-21.7h5.4v16.3h-5.4v-16.3zm10.9-5.5h5.4v5.4h-5.4v-5.4zm0 21.8h5.4v5.4h-5.4v-5.4zm5.4-16.3h5.4v5.4h-5.4v-5.4zm0 10.9h5.4v5.4h-5.4v-5.4zm5.5-5.5h5.4v5.4h-5.4V685zm5.4-5.4h5.4v5.4h-5.4v-5.4zm0 10.9h5.4v5.4h-5.4v-5.4zm5.5-16.4h5.4v5.4h-5.4v-5.4zm0 21.8h5.4v5.4h-5.4v-5.4zM518 772.1v-5.4h5.4v5.4H518zm5.4-32.7h16.4V772h-5.4v-27.2h-10.9l-.1-5.4zm0 38.1v-5.4h10.9v5.4h-10.9zm10.9-49v-5.4h5.4v5.4h-5.4zm21.8 32.7h-5.4v-21.8h5.4v21.8zm5.5 5.4h-5.4v-5.4h5.4v5.4zm10.8-21.7v16.3h5.4v5.4H567v-5.4h-5.4v-5.4h5.4v-16.3h10.9v5.4h-5.5zm10.9-5.5h10.9v5.4h-5.4v21.8h-5.4l-.1-27.2zm10.9 5.5h5.4v21.8h-5.4v-21.8zm5.4 0v-5.4h5.4v5.4h-5.4zm5.5 0h5.4v21.8h-5.4v-21.8zm21.7 16.3h10.9v5.4h-10.9v5.4h5.4v5.4H616V772h5.4v-27.2H616v-5.4h10.9v5.4h5.4v5.4h-5.4l-.1 11zm5.5-21.8h5.4v5.4h-5.4v-5.4zm5.4 5.5h5.4v16.3h-5.4v-16.3zm10.9 5.4v-5.4h5.4v5.4h-5.4zm21.7 10.9v5.4h-21.8v-5.4h21.8zm0-16.3H654v-5.4h16.3v5.4zm0 5.4v5.4H654v-5.4h16.3zm0 10.9v-5.4h5.4v5.4h-5.4zm54.5-16.3v16.3h-5.4v-16.3h5.4zm10.8-5.5v5.4h-10.9v-5.4h10.9zm-10.8 27.2v-5.4h10.9v5.4h-10.9zm10.8-21.7h5.4v16.3h-5.4v-16.3zm10.9-5.5h5.5v10.9h-5.4l-.1-10.9zm5.5 10.9h5.4v10.9H752v-10.9zm10.9 16.3h-5.4v-5.4h5.4v5.4zm0-5.4v-10.9h5.4v10.9h-5.4zm5.4-21.8h5.4v10.9h-5.4v-10.9zm32.6 10.9v-5.4h5.4v10.9H790v5.4h-5.4v-16.3h5.4v5.4h10.9zm0-10.9v5.4H790v-5.4h10.9zM790 766.6v-5.4h16.3v5.4H790zm21.8-21.7v-5.4h5.4v5.4h-5.4zm5.4 0h5.4v16.3h5.4v5.4h-16.3v-5.4h5.4l.1-16.3zm5.5-5.5h10.9v5.4h-10.9v-5.4zm10.8 10.9v-5.4h5.5v5.4h-5.5zm21.8-10.9h5.4v5.4h-5.4v-5.4zm0 21.8h5.4v5.4h-5.4v-5.4zm-195.8 48.9v16.3H654v-16.3h-5.4v-5.4h5.4v-10.9h5.4v10.9h10.9v5.4h-10.8zm0 21.8v-5.4h10.9v5.4h-10.9zm10.8-5.4V821h5.4v5.4l-5.4.1zm21.8-16.4h5.4v5.4h-5.4v16.3h-10.9v-5.4h5.4v-32.6h-5.4v-5.4h10.9v21.7zm5.4 0v-5.4h5.5v5.4h-5.5zm5.5 0h5.4v21.8H703v-21.8zm32.6 5.5v-5.4h5.4V821h-16.3v5.4h-5.4v-16.3h5.4v5.4l10.9.1zm0-10.9v5.4h-10.9v-5.4h10.9zm-10.8 27.2v-5.4h16.3v5.4h-16.3zm76.1-5.4h5.4v5.4h-21.8v-5.4h10.9v-32.6h-10.9v-5.4h16.3l.1 38zm10.9 0V821h5.4v5.4l-5.4.1zm5.4-21.8h10.9v5.4h-10.9v-5.4zm16.3 21.8h5.5v5.4h-21.8v-5.4h10.9V821h-10.9v-5.4h10.9v-5.4h5.4v16.3zm32.7-21.8v10.9h-5.4v-5.4h-10.9v5.4h-5.4v-10.9h21.7zm-21.8 21.8h5.4V821h5.4v5.4h10.9v5.4h-21.8l.1-5.3zm16.3-5.5h-5.4v-5.4h5.4v5.4zm27.2 5.5h-5.4v-16.3h-5.4v-5.4H888l-.1 21.7zm-5.4 10.8h16.3v5.4h-16.3v-5.4zm10.9-5.4H888v-5.4h5.4v5.4zm5.4-27.2h5.4v32.6h-5.4v-10.9h-5.4V821h5.4v-16.3zm49 5.4v16.3h-5.4v-16.3h5.4zm16.3 16.4h5.4v5.4h-10.9v-5.4h-5.4V821h5.4v-10.9h-10.9v-5.4h10.9v-16.3h10.9v5.4h-5.4v32.7zm-10.9 5.4h-5.4v-5.4h5.4v5.4zm32.6-21.8v16.3h-5.4v-16.3h5.4zm10.9-5.4v5.4h-10.9v-5.4h10.9zm-10.9 27.2v-5.4h10.9v5.4h-10.9zm10.9-21.8h5.4v16.3h-5.4v-16.3zm10.9 0h5.4V821h-5.4v-10.9zm21.8 27.2v5.4h-21.8v-5.4h21.8zm-5.5-27.2H1013v-5.4h21.8v5.4h-5.4V821h-5.4l-.1-10.9zM1013 821h10.9v5.4h5.4v5.4h-10.9v-5.4h-5.4V821zm21.8 10.9v5.4h-5.4v-5.4h5.4zm16.3 5.4h-5.4v-5.4h5.4v5.4zm0-27.2v-5.4h5.4v5.4h-5.4zm0 21.8V821h5.4v10.9h-5.4z" style="fill:#a8a29e"/><path d="M1181.6 217H96.1m232.3-58.1h77.4v77.4h-77.4v-77.4zm853.2 206.6H96.1M385.4 288h96.8v96.8h-96.8V288z" style="fill:none;stroke:#fbfbfb;stroke-miterlimit:10"/></svg>