<svg xmlns="http://www.w3.org/2000/svg" viewBox="0 0 1280 960"><path d="M374.8 219.2v6.4h-6.4v-6.4H343v-6.4h25.4v-12.7h-19v-6.4h44.5v6.4h-19.1v12.7h25.4v6.4h-25.4zM343 251v-6.4h12.7v6.4H343zm19.1-6.4h-6.4v-6.4h6.4v6.4zm0-6.3v-12.7h6.4v12.7h-6.4zm19 0h-6.4v-12.7h6.4v12.7zm6.4 0v6.4h-6.4v-6.4h6.4zm12.7 12.7h-12.7v-6.4h12.7v6.4zm50.9-44.5h12.7v25.4h-6.4v-19.1H451v19.1h-6.4v-12.7h-6.4v25.4H432v-6.4h-12.7v-19.1h-12.7v-6.4h12.7v-19.1h6.4v19.1h6.4V200h6.4v12.7h6.4v-19.1h6.4l-.2 12.9zm-44.5 38.1v-6.4h12.7v6.4h-12.7zm25.4-12.7v-12.7h-6.4v12.7h6.4zm6.4 19.1v-6.4h19.1v-6.4h6.4V251h-25.5zm57.2-38.1v6.4h-6.4v-6.4h-19.1v-6.4h25.4v-6.4h6.4v6.4h25.4v6.4h-31.7zm-12.7 31.7v-6.4h12.7v6.4h19.1v6.4h-44.5v-6.4h12.7zm0-19v-6.4h6.4v6.4h19.1v6.4H502v6.4h-6.4V232h-19.1v-6.4h6.4zm6.3-25.5v-6.4h6.4v6.4h-6.4zm19.1 19.1h6.4v6.4h-6.4v-6.4zm6.3 19.1h6.4v6.4h-6.4v-6.4zm12.7 6.3v6.4H521v-6.4h6.3zm63.6-38.1h-12.7v6.4h12.7v6.4h-6.3v19.1h-6.4V232h-12.7v6.4h12.7v6.4h-31.8v-6.4h12.7V232h-12.7v6.4h-6.3v-19.1h-6.4v-6.4h12.7v-6.4h-12.7v-6.4h12.7v-6.4h6.4v6.4h19.1v-6.4h6.3v6.4h12.7v6.4zM533.7 251v-6.4h12.7v6.4h-12.7zm12.7-25.4h12.7v-6.4h-12.7v6.4zm25.4-12.7v-6.4h-19.1v6.4h19.1zm6.4 12.7v-6.4h-12.7v6.4h12.7zm12.7 25.4h-12.7v-6.4h12.7v6.4zm-190.7 14.8v12.7h-6.4v-6.4h-44.5v6.4H343v-12.7h25.4v-6.4h6.4v6.4h25.4zm0 25.4v6.4h-25.4v19.1h-12.7v-6.4h6.4v-12.7H343v-6.4h25.4v-6.4h-12.7v-6.4h31.8v6.4h-12.7v6.4h25.4zm63.6-25.4v12.7h-6.4v-6.4h-19.1v6.4h19.1v38.1h-44.5v-38.1H432v-6.4h-19.1v6.4h-6.4v-12.7H432v-6.4h6.4v6.4h25.4zm-44.5 19.1v6.4H432v-6.4h-12.7zm0 25.4H432v-12.7h-12.7v12.7zm31.8-25.4h-12.7v6.4h12.7v-6.4zm0 25.4v-12.7h-12.7v12.7h12.7zm19-44.5v-6.4h6.4v6.4h-6.4zm6.4 12.7h-6.4v-6.4h6.4v6.4zm-6.4 19.1h6.4v19.1h-6.4v-19.1zm12.8-25.4h-6.4v-6.4h6.4v6.4zm0 6.3v6.4h-6.4v-6.4h6.4zm0 19.1h-6.4v-6.4h6.4v6.4zm31.7-6.4h12.7v6.4h-38.1v-6.4h6.4v-12.7h-6.4v-6.4h6.4v-12.7h6.4v12.7h6.4v-12.7h6.3v12.7h6.4v6.4h-6.4l-.1 12.7zm-19 25.5h-6.4v-6.4h6.4v6.4zm6.3-6.4h-6.4V304h6.4v6.3zm0-19.1h6.4v-12.7h-6.4v12.7zm6.4 19.1V304h6.4v6.4l-6.4-.1zm12.7 6.4h-6.4v-6.4h6.4v6.4zm69.9-44.5h-12.7v6.4h12.7v6.4h-44.5v6.4h38.1v6.4h-6.4v12.7h6.4V304h6.3v12.7h-19.1v-19.1h-6.4v19.1h-6.4v-19.1h-6.3v12.7h-6.4v-12.7h-6.3v-12.7h-6.4v-6.4h12.7v-6.4h-12.7v-6.4h12.7v-6.4h6.4v6.4h19.1v-6.4h6.3v6.4h12.7v6.5h.2zm-57.2 44.5v-6.4h12.7v6.4h-12.7zm19.1-44.5v6.4h6.3v-6.4h-6.3zm12.7 6.3h6.4v-6.4h-6.4v6.4zm-171.6 46.6v57.2h-38.1v-57.2h38.1zm-6.4 6.4h-25.4v19.1h25.4v-19.1zm0 25.4h-25.4V376h25.4v-19.1zm31.8 25.4h-6.4V376h6.4v6.3zm38.1-57.2v57.2h-12.7V376h6.4v-12.7h-25.4V376h-6.4v-50.9h38.1zm-6.3 12.7v-6.4h-25.4v6.4h25.4zm0 19.1v-12.7h-25.4v12.7h25.4zM521 376h6.3v6.4h-57.2V376h6.4v-19.1h6.4v-6.4h6.4v6.4h6.4v-6.4h6.4v6.4h6.4v-6.4h6.3v6.4h6.4V376h-.2zm-50.9-19.1v-6.4h6.4v6.4h-6.4zm25.5-6.3h-6.4v-6.4h-6.4v-12.7h-6.4v-6.4h38.1v12.7h6.4v12.7h-6.4v-6.4h-6.4v-12.7H489v6.4h12.7v6.4h-6.4l.3 6.4zm-19.1-6.4h6.4v6.4h-6.4v-6.4zm6.4 31.8h6.4v-12.7h-6.4V376zm12.7 0h6.4v-12.7h-6.4V376zm12.7 0h6.4v-12.7h-6.4V376zm25.4 6.3v-12.7h6.4v12.7h-6.4zm12.7-12.7h-6.3v-44.5h44.5v6.4h-38.1l-.1 38.1zm0 12.7V376h12.7v6.4l-12.7-.1zm12.7-6.3v-12.7h6.4V376h-6.4zm12.7-12.7h-6.4v-25.4h6.4v25.4zm0 0h6.3V376h-6.3v-12.7zm6.4 12.7h12.7v6.4h-12.7V376zm-228.8 72H343v-6.4h6.4v6.4zm31.8-25.4v12.7h-6.4v-12.7h-6.4v19.1h6.4v6.3h-12.7v-25.4h-6.4v19.1h-6.4v-50.9h44.5v6.4h-38.1v19.1h44.5v6.4l-19-.1zm12.7-19.1v6.4h-31.8v-6.4h31.8zm-6.4 31.8v6.4h-6.4v-6.3l6.4-.1zm0-6.4h6.4v6.4h-6.4v-6.4zm12.7 19.1h-12.7v-6.4h12.7v6.4zm63.6-50.8v12.7h-6.4v-6.4h-31.8v6.4h31.8v6.4H451v6.4h-19v-6.4h-12.7v-12.7h-6.4v6.4h-6.4v-12.7H432v-6.4h6.4v6.4l25.4-.1zm-57.2 25.4h6.4v-6.4h6.4V448H413v-19.1h-6.4v-6.3zm44.5 6.3v-6.4h6.4V448h-31.8v-25.4h6.4v6.4l19-.1zm0 12.8v-6.4H432v6.4h19.1zm38.1-44.5v6.4h12.7v19.1h-6.4V410h-12.7v-12.7h-12.7v-6.4h38.1v6.4h-19v-.1zm-12.7 25.4h-6.4v-6.4h6.4v6.4zm-6.4 25.4v-6.4h12.7v6.4h-12.7zm6.4-31.8v-6.4h6.4v6.4h-6.4zm6.4 6.4v-6.4h6.4v6.4h-6.4zm6.3 19h-6.4v-6.3h6.4v6.3zm0-6.3v-12.7h6.4v12.7h-6.4zm25.4-6.4h-6.4v-25.4h6.4v25.4zm6.4-38.1h6.3V448h-12.7v-6.4h6.4v-50.8zm19.1 25.4v6.4h12.7v19.1h-6.4V429h-12.7v-19.1h12.7v-12.7h-12.7v-6.4h19.1v25.4h-12.7zm-6.4 31.8v-6.4h12.7v6.4h-12.7zm44.5-25.4v12.7h-6.3v-12.7h-6.4v19.1h6.4v6.3h-12.7v-25.4h-6.3v-6.4h6.3v-25.4h6.4v12.7h6.4v6.4h-6.4v6.4H591v6.4l-12.8-.1zm-6.4-25.5h6.3v6.4h-6.3v-6.4zm6.4-6.3h6.4v6.4h-6.4v-6.4zm6.3 44.5v6.4h-6.4v-6.3l6.4-.1zm6.4 6.3v6.4h-6.3v-6.4h6.3zm-488.3 89.9h-5.1v-5.2h5.2l-.1 5.2zm-5.2 5.1h15.4v15.5h-5.1v-5.2h-5.2v5.2h5.2v5.1H97.4v-20.6zm0 30.9v-5.2h10.3v5.2H97.4zm5.2-41.2v-5.2h10.3v10.3h-5.1v-5.2l-5.2.1zm10.2 30.9v5.2h-5.1v-5.2h5.1zm20.6-36v5.2h5.1v5.2h5.1v5.1h-5.1v5.2h-5.1v5.2h-5.1v-5.2h-5.2v-5.2H118v-5.1h10.3v-5.2h-5.2v-5.2h10.3zM118 546.9v-5.2h5.2v5.2H118zm10.3 5.2h5.1v-5.2h5.1v10.3h5.1v5.2h-5.1v5.2h-5.1v-5.2h-10.3v-5.2H118V552h5.2v-5.1h5.2l-.1 5.2zm-5.1 15.4H118v-5.2h5.2v5.2zm15.4-46.3h5.1v5.2h-5.1v-5.2zm5.1 20.6v5.2h-5.1v-5.2h5.1zm5.2-15.5v-5.2h5.1v5.2h-5.1zm5.1 10.3h-5.1v-5.1h5.1v5.1zm-5.1 15.4h5.1v15.4h-5.1V552zm10.2-20.5H154v-5.2h5.1v5.2zm0 5.1v5.2H154v-5.2h5.1zm0 15.4H154v-5.1h5.1v5.1zm30.9-30.8v5.2h5.1v10.3H190v5.2h-5.1v-5.2h-10.2v5.2h-5.1v-5.2h-5.1v-10.3h5.1v-5.2h5.1v5.2h5.1v5.2h5.1v-10.3l5.1-.1zm-25.7 25.7v-5.2h5.1v5.2h-5.1zm20.6 5.2v-5.2h5.1v20.6h-20.6v-20.6h5.1v5.2h10.4zm0-5.2h-10.3v-5.2h10.3v5.2zm0 15.4v-5.2h-10.3v5.2h10.3zm10.3-20.5v5.2h-5.1v-5.2h5.1zm25.8-20.6v41.2h-5.1V547h-5.1v-5.2h5.1v-15.4h-15.5v-5.2H221zm-15.4 36h-5.1V552h5.1v5.2zm0-25.8h5.1v5.1h-5.1v-5.1zm5.1 20.6h-5.1v-5.1h5.1v5.1zm-5.1 15.5v-5.2h10.3v5.2h-10.3zm41.1-46.4v41.2h-5.1v-15.4h-5.2v-5.2h5.1v-15.4h-15.4v-5.2h20.6zm-15.4 36h-5.2V552h5.1l.1 5.1zm0-25.7h5.1v5.1h-5.1v-5.1zm5.1 20.6h-5.1v-5.1h5.1v5.1zm-5.1 15.4v-5.2h10.3v5.2h-10.3zm30.8-25.6v5.2h5.1v5.2h-5.1v10.3H257V552h-5.1v-5.1h5.1v-5.2h-5.1v-5.2h5.1v-5.1h-5.1v-10.3h5.1v5.2h5.1v-5.2h5.1v10.3h-5.1v5.1h5.1v5.2h-5.1v.1zm-5.1 25.7h-5.1v-5.2h5.1v5.2zm15.4-36v5.1h-5.1v-5.1h5.1zm0 25.7h-5.1v-5.1h5.1v5.1zm10.3-5.1h5.1v5.1h-5.1v10.3h-10.3v-5.2h5.1V552h-5.1v-5.1h5.1v-20.6h-5.1v-5.2h10.3v10.3h5.1v5.1h-5.1v15.6zm5.2-30.9h10.3v46.3h-10.3v-5.2h5.1V552h-5.1v-5.1h5.1v-20.6h-5.1v-5.1zM133.4 655h10.3v5.2h-10.3v20.6h-10.3v-5.2h5.1v-15.4H118v5.2h-5.2v-15.5h-5.1v5.2h-5.2v-5.2h-5.1v-5.1h10.3v-10.3h5.1v10.3h5.1V655h10.3v-10.3h5.1l.1 10.3zm-36 5.2V655h5.2v5.2h-5.2zm5.2 20.5h-5.2v-5.2h5.2v5.2zm0-15.4v-5.2h5.2v5.2h-5.2zm5.2 10.3h-5.2v-5.2h5.2v5.2zm5.1-5.2h-5.1v-5.1h5.1v5.1zm5.1 0v5.2h-5.2v-5.2h5.2zm20.6-36v10.3h-5.1v-5.2H118v-5.2l20.6.1zm56.6 5.2h-10.3v5.2h5.1v15.4h5.1v5.2H190v15.4h-10.3v-5.2h5.1v-10.3h-10.3v-5.2h-5.1v10.3h-5.1v5.2h-5.1v-5.2H154v5.2h5.1v5.2h-10.2V655h5.1v-10.3h5.1v-5.2h-10.2v-5.2h46.3v5.3zm-30.9 25.7v-5.2H154v5.2h10.3zm0-15.5h-5.1v5.2h5.1v-5.2zm5.2-10.2h-5.1v5.2h5.1v-5.2zm0 36v5.2h-5.1v-5.2h5.1zm0-25.8v5.2h5.1v-5.2h-5.1zm5.1-5.1h5.1v-5.2h-5.1v5.2zm0 30.9v-5.2h5.1v5.2h-5.1zm5.2-20.6h5.1v-5.2h-5.1v5.2zm61.8-15.4v41.2h-36v-36h5.1v5.1h25.7v-5.1h-25.7v-5.2h5.1v-5.2h5.2v5.2h20.6zm-5.2 20.6V655h-25.7v5.2h25.7zm0 15.4v-10.3h-25.7v10.3h25.7zm15.4 5.1v-10.3h5.2v10.3h-5.2zm46.4-41.1v5.2H293v5.1h5.1v5.1H293v5.2h-5.1V655h-5.1v5.2h-5.1v5.2h5.1v-5.2h5.1v5.2h5.1v5.1h5.1v5.2H293v5.2h-5.1v-5.2h-5.1v5.2h-5.1v-5.2h-5.1v5.2h-5.1v-5.2h-5.1v-5.2h5.1v-5.1h5.1v-5.2h-5.1V655h-5.1v5.2h5.1v5.2h-5.1v5.1H257v-30.9h20.6v-5.2h5.1v5.2h15.5zm-36 5.1v5.1h10.3v-5.1h-10.3zm25.7 5.2v-5.1h-10.3v5.1h10.3zm10.3 10.3v5.2H293v-5.2h5.2zm-173 96.5v-8.2h8.1v32.8h-8.1v-16.4H101v16.4h-8.1v-32.8h8.1v8.2h24.2zM109 732.1v16.4h-8v-16.4h8zm0-8.2h8.1v8.2H109v-8.2zm16.2 24.6h-8.1v-16.4h8.1v16.4zm16.1-8.2h8.1v32.8h-8.1v-32.8zm16.2 0h-8.1v-8.2h8.1v8.2zm-8.1 41v-8.2h24.2v-16.4h-8.1v-8.2h16.1v32.8h-32.2zm8.1-57.4h16.1v8.2h-16.1v-8.2zm24.2 8.2v8.2h-8.1v-8.2h8.1zm40.4-8.2h8.1v57.4h-8.1v-24.6h-24.2v24.6h-8.1v-57.4h8.1v24.6h24.2v-24.6zm64.5 24.6h8.1v32.8h-8.1v-8.2h-16.1v8.2h-8.1v-24.6h8.1v8.2h16.1v-16.4zm-16.1 0h8.1v8.2h-8.1v-8.2zm8.1-8.2h8.1v8.2h-8.1v-8.2zm32.3 8.2v24.6h-8.1v-24.6h8.1zm24.2 0h-24.2v-8.2h24.2v8.2zm-24.2 32.8v-8.2H327v-8.2h-8v-8.2h16.1v24.6h-24.2zm56.5-41h8.1v41h-8.1v-16.4h-16.2v16.4h-8.1v-41h8.1v16.4h16.1l.1-16.4zm314.8-529.5h52.3v5.8h-52.3v-5.8zm58.1 23.3h52.3v5.8h-52.3v-5.8zm5.8-40.7h40.7v5.8h-40.7v-5.8zm52.3 40.7h52.3v5.8h-52.3v-5.8zm5.8-46.5h40.7v5.8h-40.7v-5.8zm5.8 23.2h29v5.8h-29v-5.8zm46.5-23.2h52.3v52.3h-52.3v-52.3zm5.8 46.5H903v-40.7h-11.7v23.2h5.8v5.8h-11.6v-29h-5.8v23.2h-5.8v-23.3h-11.6v40.8zm5.8-17.5h5.8v5.8h-5.8v-5.8zm52.3-29h40.7v5.8h-17.4V205h11.6v29h11.6v5.8h-52.3V234h11.6v-11.6h5.8V234h17.4v-23.2h-11.6v11.6H932v-11.6h-11.6V205h17.4v-11.6h-17.4v-5.8zm52.3 17.4h52.3v5.8h-52.3V205zm0 29h5.8v5.8h-5.8V234zm5.8-5.8h5.8v5.8h-5.8v-5.8zm5.8-11.6h5.8v11.6h-5.8v-11.6zm5.8-29h5.8v5.8h-5.8v-5.8zm5.8 5.8h5.8v5.8h-5.8v-5.8zm11.6 23.2h5.8v5.8h-5.8v-5.8zm5.8 5.8h5.8v5.8h-5.8v-5.8zm5.9 5.8h5.8v11.6h-5.8v-11.6zm11.6-17.4h17.4v-23.2h5.8v23.2h5.8v5.8h-5.8V234h-5.8v-17.4h-17.4v-5.8zm23.2 23.3h17.4v-5.8h5.8v11.6H1054v-5.8zm5.8-29h23.2v5.8h-23.2v-5.8zm29.1 29h5.8v5.8h-5.8v-5.8zm5.8-5.8h5.8v5.8h-5.8v-5.8zm5.8-17.5h5.8v17.4h-5.8v-17.4zm5.8 0v-17.4h5.8v17.4h-5.8zm11.6-23.2h5.8v23.2h-5.8v-23.2zm5.8 23.2h5.8v17.4h-5.8v-17.4zm5.8 17.5h5.8v5.8h-5.8v-5.8zm5.9 5.8h5.8v5.8h-5.8v-5.8zm11.6 0h11.6v5.8H1147v-5.8zm5.8-34.9h11.6v-11.6h5.8v11.6h17.4v34.9h-5.8V205h-11.6v17.4h-5.8V205h-11.6v-5.8zm5.8 23.3h5.8v11.6h-5.8v-11.6zm29.1 11.6h5.8v-5.8h5.8v11.6h-11.6v-5.8zm-412.5 40.6v5.8h-40.7v-5.8h40.7zm5.8 17.5h40.7v5.8H781v-5.8zm34.8-29.1v5.8h-29v-5.8h29zm11.6 29.1h40.7v5.8h-40.7v-5.8zm34.9-34.9v5.8h-29v-5.8h29zm-29 17.4h29v5.8h-29v-5.8zm81.3-17.4V298h-40.7v-40.7h40.7zm-5.8 34.9v-5.8h-11.6v-23.2h-5.8v17.4h-5.8v-17.4h-5.8v17.4h5.8v5.8h-5.8v5.8h29zm0-11.7v-17.4H903v17.4h5.8zm46.4-23.2v5.8h-11.6v11.6h11.6v17.4h5.8v5.8h-40.7v-5.8H932v-11.6h-5.8v-5.8h11.6v-11.6h-11.6v-5.8h29zm-5.8 34.9v-11.6h-11.6v11.6h11.6zm58.1-17.5h-40.7v-5.8h17.4v-5.8h5.8v5.8h17.4l.1 5.8zm-40.6 17.5h5.8v5.8h-5.8v-5.8zm5.8-11.7h5.8v11.6h-5.8v-11.6zm5.8-23.2h5.8v5.8h-5.8v-5.8zm17.4 23.2h5.8v5.8h-5.8v-5.8zm5.8 5.9h5.8V298h-5.8v-11.6zm23.3-11.7v-17.4h5.8v17.4h5.8v5.8h-5.8v11.6h-5.8v-11.6h-11.6v-5.8h11.6zm5.8 17.5h17.4v-5.8h5.8V298h-23.2v-5.8zm5.8-23.3h17.4v5.8h-17.4v-5.8zm23.2 23.3h5.8v5.8h-5.8v-5.8zm5.8-11.7h5.8v11.6h-5.8v-11.6zm11.7-17.4v17.4h-5.8v-17.4h5.8zm5.8-5.8h5.8v23.2h-5.8v-23.2zm5.8 23.2h5.8v11.6h-5.8v-11.6zm5.8 11.7h5.8v5.8h-5.8v-5.8zm29-34.9v11.6h11.6v23.2h-5.8v-17.4h-5.8v11.6h-5.8v-11.6h-11.6v-5.8h11.6v-11.6h5.8zm-17.4 34.9h5.8v5.8h-5.8v-5.8zm5.8-5.8h5.8v5.8h-5.8v-5.8zm23.2 5.8h5.8v-5.8h5.8V298h-11.6v-5.8zM682.2 420v-40.7h5.8V420h-5.8zm5.8-46.5h5.8v5.8H688v-5.8zm0 46.5h5.8v5.8H688V420zm5.8-23.2h29v5.8h-29v-5.8zm29-23.3h5.8v5.8h-5.8v-5.8zm0 46.5h5.8v5.8h-5.8V420zm5.8-40.7h5.8V420h-5.8v-40.7zm11.7 0h5.8V420h-5.8v-40.7zm5.8-5.8h5.8v5.8h-5.8v-5.8zm0 46.5h5.8v5.8h-5.8V420zm5.8-5.8H781v5.8h-29.1v-5.8zm5.8-29.1h17.4v5.8h-17.4v-5.8zm23.3-11.6h5.8v5.8H781v-5.8zm0 46.5h5.8v5.8H781V420zm5.8 0v-40.7h5.8V420h-5.8zm11.6-40.7h5.8V420h-5.8v-40.7zm5.8-5.8h5.8v5.8h-5.8v-5.8zm0 46.5h5.8v5.8h-5.8V420zm5.8-5.8h29v5.8h-29v-5.8zm5.8-34.9h17.4v5.8h-17.4v-5.8zm0 17.4h17.4v5.8h-17.4v-5.8zm23.3-23.2h5.8v5.8h-5.8v-5.8zm0 46.5h5.8v5.8h-5.8V420zm5.8 0v-40.7h5.8V420h-5.8zm11.6-40.7h5.8V420h-5.8v-40.7zm5.8-5.8h5.8v5.8h-5.8v-5.8zm0 46.5h5.8v5.8h-5.8V420zm5.8-40.7h29V420h-29v-40.7zm23.2 34.9v-11.6h-5.8v-5.8h5.8v-11.6h-5.8v11.6h-5.8v-11.6h-5.8v11.6h5.8v5.8h-5.8v11.6h17.4zm5.9-40.7h5.8v5.8h-5.8v-5.8zm0 46.5h5.8v5.8h-5.8V420zm5.8 0v-40.7h5.8V420H903zm11.6-40.7h5.8V420h-5.8v-40.7zm5.8-5.8h5.8v5.8h-5.8v-5.8zm0 46.5h5.8v5.8h-5.8V420zm5.8-5.8h5.8v-17.4h-5.8V391h11.6v-5.8h-11.6v-5.8h29v5.8h-11.6v5.8h5.8v23.2h5.8v5.8h-29v-5.8zm17.4 0v-17.4h-5.8v17.4h5.8zm11.6-40.7h5.8v5.8h-5.8v-5.8zm0 46.5h5.8v5.8h-5.8V420zm5.9 0v-40.7h5.8V420h-5.8zm11.6-40.7h5.8V420h-5.8v-40.7zm5.8-5.8h5.8v5.8h-5.8v-5.8zm0 46.5h5.8v5.8h-5.8V420zm5.8-29.1h29v5.8h-29v-5.8zm0 23.3h5.8v5.8h-5.8v-5.8zm5.8-11.7h5.8v11.6h-5.8v-11.6zm5.8-23.2h5.8v5.8h-5.8v-5.8zm5.8 23.2h5.8v5.8h-5.8v-5.8zm5.8 5.9h5.8V420h-5.8v-11.6zm5.8-34.9h5.8v5.8h-5.8v-5.8zm0 46.5h5.8v5.8h-5.8V420zm5.9 0v-40.7h5.8V420h-5.8zm11.6-40.7h5.8V420h-5.8v-40.7zm5.8 0v-5.8h5.8v5.8h-5.8zm0 40.7h5.8v5.8h-5.8V420zm5.8-23.3h5.8v-17.4h5.8v17.4h5.8v5.8h-5.8v11.6h-5.8v-11.6h-5.8v-5.8zm11.6 17.5h11.6v-5.8h5.8V420H1054v-5.8zm5.8-23.3h11.6v5.8h-11.6v-5.8zm11.6-17.4h5.8v5.8h-5.8v-5.8zm0 46.5h5.8v5.8h-5.8V420zm5.8-40.7h5.8V420h-5.8v-40.7zm11.7 0h5.8V420h-5.8v-40.7zm5.8 0v-5.8h5.8v5.8h-5.8zm0 40.7h5.8v5.8h-5.8V420zm5.8-11.7h5.8V420h-5.8v-11.7zm5.8-29h5.8v29h-5.8v-29zm11.6 0h5.8v29h-5.8v-29zm5.8 29h5.8V420h-5.8v-11.7zm5.8-34.8h5.8v5.8h-5.8v-5.8zm0 46.5h5.8v5.8h-5.8V420zm5.9-40.7h5.8V420h-5.8v-40.7zm11.6 0h5.8V420h-5.8v-40.7zm5.8-5.8h5.8v5.8h-5.8v-5.8zm0 46.5h5.8v5.8h-5.8V420zm5.8-34.9h5.8v-5.8h5.8v5.8h11.6v29h5.8v5.8H1176v-29.1h-5.8V414h-5.8v-23.2h-5.8v-5.7zm0 29.1h5.8v5.8h-5.8v-5.8zm29.1-40.7h5.8v5.8h-5.8v-5.8zm0 46.5h5.8v5.8h-5.8V420zm5.8 0v-40.7h5.8V420h-5.8zm-511.3 34.8h5.8v29h-5.8v-29zm5.8-5.8h5.8v5.8H688V449zm0 34.9h5.8v5.8H688v-5.8zm5.8-40.7h29v5.8h-29v-5.8zm0 23.2h29v5.8h-29v-5.8zm0 23.3h29v5.8h-29v-5.8zm29-40.7h5.8v5.8h-5.8V449zm0 34.9h5.8v5.8h-5.8v-5.8zm5.8-29.1h5.8v29h-5.8v-29zm11.7 0h5.8v29h-5.8v-29zm5.8-5.8h5.8v5.8h-5.8V449zm0 34.9h5.8v5.8h-5.8v-5.8zm5.8-40.7H781v5.8h-29.1v-5.8zm0 34.9H781v5.8h-29.1v-5.8zm0 11.6H781v5.8h-29.1v-5.8zm5.8-34.9h17.4v5.8h-17.4v-5.8zM781 449h5.8v5.8H781V449zm0 34.9h5.8v5.8H781v-5.8zm5.8-29.1h5.8v29h-5.8v-29zm11.6 0h5.8v29h-5.8v-29zm5.8-5.8h5.8v5.8h-5.8V449zm0 34.9h5.8v5.8h-5.8v-5.8zm5.8-40.7h29v5.8h-29v-5.8zm0 34.9h29v5.8h-29v-5.8zm0 11.6h29v5.8h-29v-5.8zm5.8-34.9h17.4v5.8h-17.4v-5.8zm0 11.7h17.4v5.8h-17.4v-5.8zm23.3-17.5h5.8v5.8h-5.8V449zm0 34.9h5.8v5.8h-5.8v-5.8zm5.8-29.1h5.8v29h-5.8v-29zm11.6 0h5.8v29h-5.8v-29zm5.8-5.8h5.8v5.8h-5.8V449zm0 34.9h5.8v5.8h-5.8v-5.8zm5.8-40.7h29v5.8h-29v-5.8zm0 11.6h29v29h-29v-29zm0 34.9h29v5.8h-29v-5.8zm23.2-11.7v-5.8h-5.8v-5.8h5.8v-5.8h-5.8v5.8h-5.8v-5.8h-5.8v5.8h5.8v5.8h-5.8v5.8h17.4zm5.9-29h5.8v5.8h-5.8V449zm0 34.9h5.8v5.8h-5.8v-5.8zm5.8-29.1h5.8v29H903v-29zm11.6 0h5.8v29h-5.8v-29zm5.8-5.8h5.8v5.8h-5.8V449zm0 34.9h5.8v5.8h-5.8v-5.8zm5.8-40.7h29v5.8h-29v-5.8zm0 34.8h5.8v-5.8h-5.8v-5.8h11.6v-5.8h-11.6v-5.8h29v5.8h-11.6v5.8h5.8V478h5.8v5.8h-29V478zm0 11.7h29v5.8h-29v-5.8zm17.4-11.7v-5.8h-5.8v5.8h5.8zm11.6-29h5.8v5.8h-5.8V449zm0 34.9h5.8v5.8h-5.8v-5.8zm5.9-29.1h5.8v29h-5.8v-29zm11.6 0h5.8v29h-5.8v-29zm5.8-5.8h5.8v5.8h-5.8V449zm0 34.9h5.8v5.8h-5.8v-5.8zm5.8-40.7h29v5.8h-29v-5.8zm0 17.4h11.6v-5.8h5.8v5.8h11.6v5.8h-29v-5.8zm0 17.5h5.8v5.8h-5.8v-5.8zm0 11.6h29v5.8h-29v-5.8zm5.8-17.4h5.8v5.8h-5.8v-5.8zm11.6 0h5.8v5.8h-5.8v-5.8zm5.8 5.8h5.8v5.8h-5.8v-5.8zm5.8-29.1h5.8v5.8h-5.8V449zm0 34.9h5.8v5.8h-5.8v-5.8zm5.9-29.1h5.8v29h-5.8v-29zm11.6 0h5.8v29h-5.8v-29zm5.8-5.8h5.8v5.8h-5.8V449zm0 34.9h5.8v5.8h-5.8v-5.8zm5.8-40.7h29v5.8h-29v-5.8zm0 23.3h5.8v-11.6h5.8v11.6h5.8v5.8h-5.8v5.8h11.6v-5.8h5.8v11.6h-23.2v-11.6h-5.8v-5.8zm0 23.2h29v5.8h-29v-5.8zm17.4-29.1h11.6v5.8h-11.6v-5.8zm11.6-11.6h5.8v5.8h-5.8V449zm0 34.9h5.8v5.8h-5.8v-5.8zm5.9-29.1h5.8v29h-5.8v-29zm11.6 0h5.8v29h-5.8v-29zm5.8-5.8h5.8v5.8h-5.8V449zm0 34.9h5.8v5.8h-5.8v-5.8zm5.8-40.7h29v5.8h-29v-5.8zm0 29.1h5.8v11.6h-5.8v-11.6zm0 17.4h29v5.8h-29v-5.8zm5.8-34.9h5.8v17.4h-5.8v-17.4zm11.6 0h5.8v17.4h-5.8v-17.4zm5.8 17.5h5.8v11.6h-5.8v-11.6zm5.8-23.3h5.8v5.8h-5.8V449zm0 34.9h5.8v5.8h-5.8v-5.8zm5.9-29.1h5.8v29h-5.8v-29zm11.6 0h5.8v29h-5.8v-29zm5.8-5.8h5.8v5.8h-5.8V449zm0 34.9h5.8v5.8h-5.8v-5.8zm5.8-40.7h29.1v5.8h-29.1v-5.8zm0 17.4h5.8v-5.8h5.8v5.8h11.6V478h5.8v5.8H1176v-17.4h-5.8V478h-5.8v-11.6h-5.8v-5.8zm0 17.5h5.8v5.8h-5.8v-5.8zm0 11.6h29.1v5.8h-29.1v-5.8zm29-40.7h5.8v5.8h-5.8V449zm0 34.9h5.8v5.8h-5.8v-5.8zm5.9-29.1h5.8v29h-5.8v-29z" style="fill:#78716c"/><path d="M128.5 217.6v6.4h-6.3v-6.3h-19v-6.3h19v-12.7h-12.7v-6.3h31.7v6.3h-12.7v12.7h19v6.3l-19-.1zm-25.3 19v-6.3h12.7v6.3h-12.7zm19-6.3h-6.3V224h6.3v6.3zm12.6-6.3v6.3h-6.3V224h6.3zm12.7 12.7h-12.7v-6.3h12.7v6.3zm44.4-31.8h6.3v12.7h-6.3v6.4h-6.3v-12.7h-6.3v19H173V224h-6.3v6.3H154V224h6.3v-12.7H154V205h6.3v-12.7h6.3V205h6.3v-6.3h6.3v6.3h6.3v-12.7h6.3l.1 12.6zm-25.4 12.7h6.3v-6.3h-6.3v6.3zm12.7 12.7h12.7V224h6.3v12.7h-19v-6.4zm44.4-25.4v12.7h-12.7v-6.3h6.3V205h-12.7v-6.3h19v-6.3h6.3v6.3h19v6.3h-25.2v-.1zm-6.4 25.4V224h6.3v6.3h12.7v6.3h-31.7v-6.3h12.7zm12.7-12.7v6.4h-6.3v-6.3l6.3-.1zm0-6.3h6.3v6.3h-6.3v-6.3zm6.3 12.7h6.3v6.3h-6.3V224zm12.7 6.3v6.3h-6.3v-6.3h6.3zm50.7-12.7h-6.3v12.7h-31.7v-12.7h-6.3v-6.3H268V205h-6.3v-6.3h6.3v-6.3h6.3v6.3h6.3v-6.3h6.3v6.3h6.3v6.3h-6.3v6.3h12.7v6.3zm-38 19h-6.3v-6.3h6.3v6.3zm6.3-19v6.4h6.3v-6.3l-6.3-.1zm12.7-12.7h-6.3v6.3h6.3v-6.3zm0 12.7v6.4h6.3v-6.3l-6.3-.1zm19 12.7v6.3h-6.3v-6.3h6.3zm-152.1 19V262h-6.3v-6.3h-6.3v6.3h-6.3v6.3h19v6.3h-19v12.7h-12.7V281h6.3v-6.3h-19v-6.3h19V262h-6.3v-6.3h-6.3v6.3h-6.3v-12.7h19V243h6.3v6.3h18.9zm50.7 0V262h-6.3v-6.3h-12.7v6.3h12.7v25.4h-31.7V262h12.7v-6.3h-12.7v6.3h-6.3v-12.7h19V243h6.3v6.3h19zm-31.7 25.3v6.4h6.3v-6.3l-6.3-.1zm12.7 6.4h6.3v-6.3h-6.3v6.3zm31.7-31.7h-6.3V243h6.3v6.3zm0 12.7h-6.3v-6.3h6.3v6.3zm-6.4 6.3h6.3v19h-6.3v-19zm44.4-19v6.3h-6.3v6.4h6.3v6.3h-31.7V262h6.3v-6.3h-6.3v-6.4h6.3V243h6.3v6.3h6.3V243h6.3v6.3h6.5zm-25.3 38h-6.3V281h6.3v6.3zm6.3-6.3h-6.3v-6.3h6.3v6.3zm0-19h6.3v-6.3h-6.3v6.3zm6.3 19v-6.3h6.3v6.4l-6.3-.1zm12.7 6.3h-6.3V281h6.3v6.3zm19-25.3v6.3h25.4V281h6.3v6.3h-12.7v-12.7h-6.3v12.7h-6.3v-12.7H268v6.4h-6.3v-25.4h-6.3v-6.3h12.7V243h6.3v6.3h6.3V243h6.3v6.3h12.7v6.3h-6.3v6.3l-25.5.1zm-6.3 25.4h-6.3V281h6.3v6.4zm-120.4 6.3V338h-31.7v-44.3h31.7zm-6.4 19V300h-19v12.7h19zm0 19V319h-19v12.7h19zm25.4 6.3h-6.3v-6.3h6.3v6.3zm31.7-44.4V338h-12.7v-6.3h6.3v-6.3h-19v6.3h-6.3v-38l31.7-.1zm-6.4 12.7V300h-19v6.3h19zm0 12.7v-6.3h-19v6.3h19zm44.4-6.3h6.3v6.3h6.3v12.7h6.3v6.3h-44.4v-6.3h6.3V319h6.3v-6.3h6.3v6.3h6.3l.3-6.3zm-25.4 6.3v-6.3h6.3v6.3h-6.3zm38-25.3v6.3h6.3v19h-6.3v-12.7h-12.6V300h-6.3v6.3h-6.3V300H211v-6.3h31.5zm-31.6 12.6h6.3v6.3h-6.3v-6.3zm6.3 19v6.3h6.3v-6.3h-6.3zm12.7-19v6.3h-6.3v-6.3h6.3zm0 25.4h6.3v-6.3h-6.3v6.3zm31.7 6.3h-6.3v-6.3h6.3v6.3zm25.3-38v19h-6.3v-19h-12.7v31.7h-6.3v-38h38v6.3h-12.7zm-12.7 38h-6.3v-6.3h6.3v6.3zm0-6.3V319h6.3v12.7h-6.3zm19 0h-6.3V319h6.3v12.7zm6.4 0v6.3h-6.3v-6.3h6.3zM115.8 357v-6.3h-6.3v12.7h38V376h-6.3v-6.3h-6.3v6.3h-6.3v-6.3h-6.3v12.7h6.3v6.3h-12.7v-19h-6.3v19h-6.3v-44.4h44.4v6.3h-6.3v6.3h-25.6v.1zm25.4 25.4h-6.3V376h6.3v6.4zm6.3 0v6.3h-6.3v-6.3h6.3zm50.7-31.7v12.7h-6.3V357h-6.3v6.3h-6.3V357H173v6.3h-6.3V357h-6.3v6.3h-6.3v-12.6h19v-6.3h6.3v6.3h18.8zm-44.3 19h6.3v-6.3h6.3v25.4h-6.3V376h-6.3v-6.3zm25.3 0h6.3v-6.3h6.3v25.4h-19v-25.3h6.3l.1 6.2zm0 12.7h6.3V376h-6.3v6.4zm50.7-38v6.3h-12.7v6.3h12.7v12.7h-6.3v-6.3h-12.7v-12.7h-6.3v-6.3h25.3zm-25.4 25.3v-6.3h6.3v6.3h-6.3zm0 19v-6.3h12.7v6.3h-12.7zm6.4-12.7v-6.3h12.7v12.7h-6.3V376h-6.4zm31.7-31.7h6.3v44.4h-12.7v-6.3h6.3V376h-6.3v-19h6.3l.1-12.7zm19 19.1v6.3h12.7v12.7H268V376h-12.7v-19H268v-6.3h-12.7v-6.3h19v19h-12.7zm-6.4 25.3v-6.3h12.7v6.3h-12.7zm38-38v6.3h-6.3v6.3h12.7v6.3h-6.3v12.7H287v6.3h-6.3v-19h-6.3v-6.3h6.3v-19h6.3v6.3l6.2.1zm0-6.3h6.3v6.3h-6.3v-6.3zm6.4 38v6.3h-6.3v-6.3h6.3zM123.2 490.3v-5.1h5.2V480h5.1v10.3h-5.1v5.1h5.1v5.1h-5.1v5.1h-5.2v-5.1H118v-5.1h-5.2v5.1h-5.1v-5.1H97.4v-20.6h5.2v5.2h10.3v5.1h5.1v5.1l5.2.1zm-25.8 15.4v-5.1h10.3v5.1H97.4zm15.5-36v5.1h-10.3v-5.1h10.3zm10.3 0v5.1h5.1v5.1h-5.2v5.1H118v-5h-5.2v-5.1h5.2v-5.1l5.2-.1zm-5.2 36h-5.2v-5.1h5.1l.1 5.1zm10.3-36h5.1v5.1h-5.1v-5.1zm10.3 5.1v-5.1h5.1v5.1h-5.1zm0 10.3V480h5.1v5.1h-5.1zm0 5.2h5.1v15.5h-5.1v-15.5zm25.7-20.6h10.3V480h-5.1v5.1h-5.1V480h-5.1v5.1H154V480h-10.3v-5.1h5.1v-5.1h10.3v5.1h5.1l.1-5.2zm0 15.4v5.1h5.1v-5.1h5.1v20.6h-25.7v-15.5h-5.1v-5.1H154v5.1h5.1v-5.1h5.2zm5.2 15.5v-5.1H154v5.1h15.5zm10.3-30.9h15.4v36h-10.3v-5.1h5.1v-10.3h-5.1v-5.1h5.1v-10.3h-10.3l.1-5.2zm0 15.4V480h5.1v5.1h-5.1zm5.1 10.3h-5.1v-5.1h5.1v5.1zm30.9-25.7v36h-10.3v-5.1h5.1v-10.3h-5.1v-5.1h5.1v-10.3h-10.3v-5.1l15.5-.1zm-15.4 15.4V480h5.1v5.1h-5.1zm5.1 10.3h-5.1v-5.1h5.1v5.1zm15.5-20.6v-5.1h5.1v5.1H221zm10.3 10.3v5.1h5.1v5.1h-5.1v5.1h-5.2v-5.1H221v-5.1h5.1v-5.1H221V480h5.1v-5.1h5.1v5.1h5.1v5.1h-5zm-5.2 20.6H221v-5.1h5.1v5.1zm5.2-36h5.1v5.1h-5.1v-5.1zm15.4 0H257v36h-5.1v-10.3h-5.2v10.3h-5.1v-5.1h-5.2v-5.1h5.1v-5.1h-5.1v-5.1h5.1V480h-5.1v-5.1h10.3v5.1h5.1v-5.1h-5.1v-5.2zm0 20.6h5.1v-5.1h-5.2l.1 5.1zM123.2 598.4v-5.2h5.2v5.2h5.1v5.1h-5.1V619H118v-5.2h5.2v-10.3h-10.3v5.2h-5.1v-10.3h-5.2v10.3h-5.1v-15.4h5.2V583h5.2v10.3h5.1v5.2l10.2-.1zM102.6 619h-5.1v-5.2h5.2l-.1 5.2zm5.1-5.2h-5.2v-5.2h5.2v5.2zm5.1 0v5.2h-5.1v-5.2h5.1zm20.6-30.8v10.3h-5.1v-5.2h-15.5V583h20.6zm41.2 5.1h-5.1v10.3H154v10.3h-10.3v5.2H154v5.2h-15.4v-25.8h5.1v-5.2h-5.1v-5.2h36v5.2zm-30.9 15.4h5.1v-5.1h-5.1v5.1zm5.2-15.4v5.2h5.1v-5.2h-5.1zm10.3 25.7H154v-5.2h5.1l.1 5.2zm0-25.7v5.2h5.1v-5.2h-5.1zm0 15.4h10.3v-5.1h5.1V619h-5.1v-10.3h-10.3v-5.2zm5.1 10.3v5.2h-5.1v-5.2h5.1zm36.1-25.7h10.3V619H185v-30.9h5.1v5.2h10.3v-5.2zm0-5.2v5.2h-10.3v-5.2h10.3zm5.1 20.6v-5.1h-15.4v5.1h15.4zm0 10.3v-5.2h-15.4v5.2h15.4zm51.5-30.9v5.2h-5.1v5.2h5.1v10.3h-5.1v-5.1h-5.2v5.1h-5.1v-5.1h-5.2v5.1h-5.1v-5.1h-5.1V619H221v-36l36-.1zm-30.9 10.3h10.3V588h-10.3v5.2zm10.3 25.8h-5.1v-5.2h5.1v5.2zm5.1-10.3h5.1v-5.2h5.1v10.3h-5.1v5.2h-5.1v-5.2h-5.2v-10.3h5.1l.1 5.2zm0-15.4h5.1v-5.2h-5.1v5.2zm15.5 20.5v5.2h-5.1v-5.2h5.1zm87.8-99.1h4.9v-4.9h4.9v24.5h-4.9v-14.7h-4.9v-4.9zm9.8-14.7h4.9v9.8h-4.9V500zm24.4 4.9v29.3h-14.6v-29.3H379zm-4.9 4.9h-4.9v19.6h4.9v-19.6zm9.8 0h4.9v24.4h-4.9v-24.4zm4.9-4.9V500h4.9v4.9h-4.9zm4.9 0h4.9v29.3h-4.9v-29.3zm9.8 19.6h14.7v4.9h-14.7v-4.9zm4.9-19.6h9.8v4.9h-9.8v-4.9zm29.3 9.8h-4.9v9.8h4.9v4.9h-4.9v4.9h-4.9v-4.9H423v-9.8h4.9v-4.9H423v-4.9h4.9V500h4.9v9.8h4.9v4.9zm9.8 4.9h-4.9v-4.9h4.9v4.9zm0-14.7h4.9v9.8h-4.9v-9.8zm4.9 9.8h4.9v19.6h-4.9v-19.6zm14.6 0h4.9v4.9H467v14.7h-4.9V500h4.9v14.7zm4.9 9.8v-4.9h4.9v4.9h-4.9zm39.1-19.6v9.8h4.9v4.9H511v9.8h-4.9v-9.8h-4.9v-4.9h4.9v-4.9h-4.9v-4.9h9.8zm-4.9 29.3h-4.9v-4.9h4.9v4.9zM511 500h4.9v4.9H511V500zm14.7 19.6h-4.9V500h4.9v19.6zm4.9 14.6h-4.9v-4.9h4.9v4.9zm0-34.2h4.9v29.3h-4.9V500zm24.4 0v19.6h-4.9v-14.7h-9.8V500H555zm-14.7 9.8h4.9v9.8h-4.9v-9.8zm4.9 24.4h-4.9v-4.9h4.9v4.9zm0-4.9v-9.8h4.9v9.8h-4.9zm9.8 0v4.9h-4.9v-4.9h4.9zm14.7-4.8h4.9v4.9h-9.8v4.9h-4.9V505h4.9v-5h4.9v24.5zm24.5-24.5v19.6h-4.9v-4.9h-9.8v-4.9h9.8v-4.9h-9.8V500h14.7zm-9.8 34.2h-4.9v-4.9h4.9v4.9zm0-4.9v-9.8h4.9v9.8h-4.9zm-224.9 19.6v19.5h-4.9v-14.7h-4.9v9.8h-4.9v-14.7h14.7v.1zm-9.8 34.2h-4.9v-4.9h4.9v4.9zm0-4.9v-9.8h4.9v9.8h-4.9zm24.4-29.3v4.9h4.9v29.3h-4.9v-14.7h-4.9v-9.8h-4.9v-4.9h4.9v-4.9h4.9v.1zm-9.7 19.6h4.9v14.7h-4.9v-14.7zm34.2-19.6v34.2h-14.7v-4.9h9.8v-9.8h-9.8v-4.9h9.8v-9.8h-9.8v-4.9h14.7v.1zm4.9 14.7v-4.9h4.9v4.9h-4.9zm4.9 19.5h-4.9v-4.9h4.9v4.9zm4.9-34.2v4.9h4.9v19.5h-4.9v-4.9h-4.9v-4.9h4.9v-4.9h-4.9v-9.8l4.9.1zm0 29.3h-4.9v-4.9h4.9v4.9zm14.6 0h4.9v4.9H423v-34.2h4.9v29.3zm4.9 0v-4.9h4.9v4.9h-4.9zm9.8-24.4v-4.9h4.9v4.9h-4.9zm4.9 29.3h-4.9v-4.9h4.9v4.9zm4.9-29.3v-4.9h4.9v24.4h-4.9v-9.8h-4.9v-9.8l4.9.1zm0 24.4h-4.9v-4.9h4.9v4.9zm34.2-19.5v9.8h-4.9v-9.8h4.9zm0-9.8h4.9v4.9h-4.9v-4.9zm4.9 34.2h-4.9v-4.9h4.9v4.9zm0-24.4h4.9v19.6h-4.9v-19.6zm19.5-9.8v4.9h4.9v9.8H511v-4.9h-9.8v-4.9h4.9v-4.9h4.9zm-9.8 19.6h4.9v-4.9h4.9v9.8h4.9v4.9H511v4.9h-4.9v-9.8h-4.9v-4.9zm29.4-9.8h4.9v4.9h-4.9v14.7h-4.9v-14.7h-4.9v-4.9h4.9v-9.8h4.9v9.8zm-4.9 24.4h-4.9v-4.9h4.9v4.9zm29.3-34.2v4.9h-14.6v-4.9H555zm-14.7 9.8H555v19.6h-4.9v-14.7h-9.8v-4.9zm0 24.4v-4.9h9.8v4.9h-9.8zm29.4-14.6h4.9v14.7h-14.7v-19.6h4.9v14.7h4.9v-9.8zm0-4.9h-4.9v-14.7h4.9v14.7zm-215.1 34.2v4.9h4.9v24.4h-4.9v-19.5h-4.9v4.9h-4.9v-9.8h4.9v-4.9h4.9zm0 34.2h-4.9v-4.9h4.9v4.9zm9.8-19.5h4.9v-4.9h4.9V632h-4.9v-14.7h-4.9v-4.8zm9.7-14.7h4.9v9.8h-4.9v-9.8zm14.7 34.2h-4.9v-4.9h4.9v4.9zm0-4.9v-9.8h4.9v9.8h-4.9zm4.9-29.3h4.9v19.5h-4.9v-19.5zm19.5 4.9v-4.9h4.9V632h-9.8v-4.9h4.9v-9.8h-4.9v-4.9h4.9v-4.9h-9.8v-4.9l9.8.1zm-4.8 19.5h-4.9v-4.9h4.9v4.9zm19.5-9.7H423v-4.9h4.9v4.9zm4.9-14.7v4.9h4.9v24.4h-4.9v-19.5h-4.9v-9.8h4.9zm0 34.2h-4.9v-4.9h4.9v4.9zm19.6-34.2v4.9h4.9v19.5h-4.9v9.8h-4.9v-24.4h-4.9v-4.9h4.9v-4.9h4.9zm24.4 4.9v19.5h-4.9v-14.7h-9.8v-4.9h14.7v.1zm-14.7 19.5v-4.9h4.9v4.9h-4.9zm9.8 4.9H467v-4.9h4.9v4.9zm4.9 0v4.9h-4.9v-4.9h4.9zm29.3-19.5h9.8v4.9H511v14.7h-4.9v-9.8h-4.9v-19.5h4.9v9.7zm0 24.4h-4.9v-4.9h4.9v4.9zm29.4-29.3v19.5h-4.9v-14.7h-9.8v-4.9h14.7v.1zm-9.8 29.3h-4.9v-4.9h4.9v4.9zm4.9-4.9h-4.9v-4.9h4.9v4.9zm24.4-24.4V632h-14.6v-4.9h9.8v-19.5h-9.8v-4.9H555zm14.7 24.4h4.9v4.9h-14.7v-4.9h4.9v-19.5h-4.9v-4.9h14.7v4.9h-4.9v19.5zm24.5-29.3v4.9h-14.7v-4.9h14.7zm-14.7 9.8h14.7v4.9h-4.9v14.7h-4.9v-14.7h-4.9v-4.9zm4.9 24.4h-4.9v-4.9h4.9v4.9zm-224.9 14.7v19.6h-4.9v9.8h-4.9v-19.5h4.9v-4.9h-9.8v-4.9l14.7-.1zm-9.8 34.2h-4.9V676h4.9v4.9zm24.4-34.2h4.9V676h-4.9v-14.6h-4.9v9.8h-4.9v-24.5h4.9v9.8h4.9v-9.8zm0 34.2h-4.9V676h4.9v4.9zm24.5-24.4h-4.9v9.8h4.9v4.9h-4.9v9.8h-4.9v-5h-4.9v-4.9h4.9v-9.8h-4.9v-4.9h4.9v-9.8h4.9v4.9h4.9v5zm14.6 19.5h4.9v4.9h-14.7V676h4.9v-19.5h-4.9v-4.9h9.8V676zm9.8-14.6v-4.9h4.9v4.9H423zm0 19.5v-9.8h4.9v9.8H423zm4.9-9.8v-9.8h4.9v9.8h-4.9zm4.9-24.4h4.9v14.7h-4.9v-14.7zm4.9 24.4v4.9h-4.9v-4.9h4.9zm19.5-19.5v4.9h-14.7v-4.9h14.7zm-4.8 9.8v4.9h-9.8v-4.9h9.8zm-9.8 9.7h9.8v4.9h-9.8v-4.9zm14.6 9.8h-4.9V676h4.9v4.9zm4.9-29.3v-4.9h4.9v4.9h-4.9zm0 4.9h4.9v4.9h-4.9v-4.9zm0 24.4V676h9.8v4.9h-9.8zm4.9-29.3h4.9v4.9H467v-4.9zm4.9 9.8v4.9H467v-4.9h4.9zm0 14.6v-4.9h4.9v4.9h-4.9zm39.1 0h4.9v4.9h-14.6V676h4.9v-19.5h-4.9v-4.9H516v4.9h-5V676zm19.6-9.8h-4.9v9.8h-4.9v-29.3h4.9v14.7h4.9v4.8zm4.9 14.7h-9.8V676h9.8v4.9zm-4.9-24.4h4.9v4.9h-4.9v-4.9zm24.4-4.9h-4.9v9.8h4.9v4.9h-4.9v9.7h4.9v4.9h-9.8v-14.6h-4.9v-4.9h4.9v-9.8h-4.9v-4.9H555v4.9zm9.8 4.9h9.8v14.7h-4.9v-9.8h-4.9V676h9.8v4.9h-14.7v-34.2h4.9v9.8zm29.4-4.9v9.8h-4.9v-4.9h-9.8v-4.9h14.7zm-14.7 29.3v-9.8h4.9v9.8h-4.9zm4.9-9.8v-9.8h4.9v9.8h-4.9zm9.8 9.8h-4.9v-9.8h4.9v9.8zM432 748.5h8.1v32.8H432v-8.2h-16.2v8.2h-8.1v-24.6h8.1v8.2H432v-16.4zm-16.1 0h8.1v8.2h-8.1v-8.2zm8-8.2h8.1v8.2h-8.1v-8.2zm32.3 8.2v24.6h-8.1v-24.6h8.1zm24.2 0h-24.2v-8.2h24.2v8.2zm-24.2 32.8v-8.2h16.1v-8.2h-8.1v-8.2h16.1v24.6h-24.1zm56.5-41h8.1v41h-8.1v-16.4h-16.1v16.4h-8.1v-41h8.1v16.4h16.1v-16.4zm48.5 24.6v-8.2h8.1v24.6h-8.1v-8.2h-8.1v8.2H545v-24.6h8.1v8.2h8.1zm-8.1-16.4h8.1v8.2h-8.1v-8.2zm24.2 8.2h8.1v16.4h-8.1v-16.4zm24.2-8.2v8.2h-16.1v-8.2h16.1zm0 32.8h-16.1v-8.2h8.1v-8.2h8.1l-.1 16.4zm24.3-24.6v-8.2h8.1v32.8h-8.1v-16.4h-8.1v16.4h-8.1v-32.8h8.1v8.2h8.1zm149.4-238v29h-5.8v5.8h-29v-5.8h-5.8v-29h5.8v-5.8h29v5.8h5.8zm-5.9 17.5v-5.8h-29v5.8h29zm17.5-17.5v-5.8h29v5.8h5.8v29h-5.8V542h-29v5.8H781v-29l5.8-.1zm0 29h29v5.8h-29v-5.8zm23.2-23.2v-5.8h-17.4v5.8H810zm23.2-5.8v-5.8h29v5.8h5.8v29h-5.8V542h-29v5.8h-5.8v-29l5.8-.1zm0 29h29v5.8h-29v-5.8zm23.3-23.2v-5.8h-17.4v5.8h17.4zm0 11.6v-5.8h-17.4v5.8h17.4zm23.2-17.4v29h-5.8v-29h5.8zm0-5.8h29v5.8h-29v-5.8zm0 34.9h29v5.8h-29v-5.8zm5.8-23.3h5.8v5.8h-5.8v-5.8zm0 11.7h5.8v-5.8h5.8v5.8h5.8v5.8h-17.5v-5.8h.1zm11.7-11.7h5.8v5.8h-5.8v-5.8zm11.6-5.8h5.8v29h-5.8v-29zm23.2 17.5v5.8h-5.8v5.8h-5.8v-29h5.8v5.8h11.6v5.8h-11.6v5.8h5.8zm-5.8-23.3h29v5.8h-29v-5.8zm0 34.9h29v5.8h-29v-5.8zm11.6-11.6h5.8v5.8h-5.8v-5.8zm5.8-11.7h11.6v-5.8h5.8v29h-5.8V542h-5.8v-11.7h-5.8v-5.8zm29.1-5.8v-5.8h29v5.8h5.8v29h-5.8V542h-5.8v-5.8h-5.8v5.8h5.8v5.8h5.8v5.8h-29v-5.8h5.8V542h5.8v-5.8h-5.8v5.8h-5.8v5.8h-5.8v-29l5.8-.1zm29 11.6v-5.8h-11.6v-5.8h-5.8v5.8h-11.6v5.8h29zm40.7 5.9v5.8h-11.6v-5.8h5.8v-5.8h11.6v-5.8h-11.6v5.8h-5.8v-11.7h-5.8v11.6h-5.8v5.8h5.8v11.6h23.2v5.8h-29v-5.8h-5.8v-29h5.8V513h29v5.8h5.8v29h-5.8v-11.6h-5.8zm52.3-17.5h5.8v29h-5.8v-11.6h-5.8v-17.4h-5.8v17.4h5.8v11.6h5.8v5.8h-29v-5.8h5.8v-11.6h5.8v-17.4h-5.8v17.4h-5.8v11.6h-5.8v-29h5.8V513h29v5.7zm11.6 0h5.8v-5.8h29.1v5.8h5.8v29h-5.8V542h-5.8v-17.5h-11.6v-5.8h-5.8v5.8h-5.8v5.8h5.8V542h-5.8v5.8h-5.8l-.1-29.1zm23.2 11.6v17.4h11.6v5.8H1112v-5.8h5.8V542h5.8v-11.7h5.9zm-395 46.5h5.8v29h-5.8v-29zm11.6-5.8v5.8h-5.8V571h5.8zm-5.8 34.9h5.8v5.8h-5.8v-5.8zm5.8-17.5h17.4v5.8h-17.4v-5.8zm17.4-17.4h5.8v5.8h-5.8V571zm0 34.9h5.8v5.8h-5.8v-5.8zm5.8-29h5.8v29h-5.8v-29zm11.7-.1h5.8v29H781v-29zm11.6-5.8v5.8h-5.8V571h5.8zm-5.8 34.9h5.8v5.8h-5.8v-5.8zm5.8-23.3H810v5.8h-17.4v-5.8zm0 17.4H810v5.8h-17.4V600zm17.4-29h5.8v5.8H810V571zm0 34.9h5.8v5.8H810v-5.8zm5.8-29h5.8v29h-5.8v-29zm11.6-.1h5.8v29h-5.8v-29zm11.7-5.8v5.8h-5.8V571h5.8zm-5.9 34.9h5.8v5.8h-5.8v-5.8zm5.9-29h17.4v5.8h-17.4v-5.8zm0 11.6h17.4v5.8h-17.4v-5.8zm0 11.6h17.4v5.8h-17.4v-5.8zm17.4-29.1h5.8v5.8h-5.8V571zm0 34.9h5.8v5.8h-5.8v-5.8zm5.8-29h5.8v29h-5.8v-29zm11.6-.1h5.8v29h-5.8v-29zm11.6-5.8v5.8h-5.8V571h5.8zm-5.8 34.9h5.8v5.8h-5.8v-5.8zm5.8-29H903v29h-17.5v-29zm11.7 23.2v-5.8h-5.8v5.8h5.8zM903 571h5.8v5.8H903V571zm0 34.9h5.8v5.8H903v-5.8zm5.8-29h5.8v29h-5.8v-29zm11.6-.1h5.8v29h-5.8v-29zM932 571v5.8h-5.8V571h5.8zm-5.8 34.9h5.8v5.8h-5.8v-5.8zm5.8-5.9h5.8v-5.8H932v-5.8h5.8v-5.8H932v-5.8h17.4v5.8h-5.8v5.8h5.8v17.4H932V600zm17.4-29h5.8v5.8h-5.8V571zm0 34.9h5.8v5.8h-5.8v-5.8zm5.8-29h5.8v29h-5.8v-29zm11.7-.1h5.8v29h-5.8v-29zm11.6-5.8v5.8h-5.8V571h5.8zm-5.8 34.9h5.8v5.8h-5.8v-5.8zm5.8-23.3h5.8v-5.8h5.8v5.8h5.8v5.8h-17.4v-5.8zm0 11.6h5.8v11.6h-5.8v-11.6zm11.6 0h5.8v11.6h-5.8v-11.6zm5.8-23.2h5.8v5.8h-5.8V571zm0 34.9h5.8v5.8h-5.8v-5.8zm5.8-29h5.8v29h-5.8v-29zm11.6-.1h5.8v29h-5.8v-29zm11.7-5.8v5.8h-5.8V571h5.8zm-5.8 34.9h5.8v5.8h-5.8v-5.8zm5.8-17.5h5.8v-11.6h5.8v5.8h5.8v5.8h-5.8V600h5.8v5.8h-11.6v-11.6h-5.8v-5.8zm17.4-17.4h5.8v5.8h-5.8V571zm0 34.9h5.8v5.8h-5.8v-5.8zm5.8-29h5.8v29h-5.8v-29zm11.6-.1h5.8v29h-5.8v-29zm11.6-5.8v5.8h-5.8V571h5.8zm-5.8 34.9h5.8v5.8h-5.8v-5.8zm5.8-17.4h5.8v17.4h-5.8v-17.4zm5.9-11.7h5.8v5.8h-5.8v-5.8zm5.8 5.8h5.8v23.2h-5.8v-23.2zm5.8-11.6h5.8v5.8h-5.8V571zm0 34.9h5.8v5.8h-5.8v-5.8zm5.8-29h5.8v29h-5.8v-29zm11.6-.1h5.8v29h-5.8v-29zm11.6-5.8v5.8h-5.8V571h5.8zm-5.8 34.9h5.8v5.8h-5.8v-5.8zm5.8-23.3h5.8v-5.8h5.8v5.8h5.8v23.2h-5.8V600h-5.8v-11.6h-5.8v-5.8zm0 17.5h5.8v5.8h-5.8v-5.8zm17.4-29.1h5.8v5.8h-5.8V571zm0 34.9h5.8v5.8h-5.8v-5.8zm5.9-29h5.8v29h-5.8v-29zM734.5 693h5.8v-5.8h29v5.8h5.8v29h-5.8v5.8h-29V722h-5.8v-29zm17.4 11.6V722h5.8v-29h-5.8v5.8h-5.8v5.8h5.8zM781 693h5.8v-5.8h29v5.8h5.8v29h-5.8v5.8h-29V722H781v-29zm29 29v-5.8h-11.6v-5.8h5.8v-5.8h5.8v-5.8h-5.8V693h-11.6v5.8h11.6v5.8h-5.8v5.8h-5.8V722H810zm17.4-29h5.8v-5.8h29v5.8h5.8v29h-5.8v5.8h-29V722h-5.8v-29zm23.3 29v-5.8h5.8v-5.8h-5.8v-5.8h5.8V693h-17.4v5.8h11.6v5.8h-5.8v5.8h5.8v5.8h-11.6v5.8h11.6zm23.2-29h5.8v-5.8h29v5.8h5.8v29h-5.8v5.8h-29V722h-5.8v-29zm23.3 23.2v5.8h5.8v-17.4h-5.8v5.8h-5.8v-11.6h5.8V693h-5.8v5.8h-5.8v17.4h11.6zm23.2-23.2h5.8v-5.8h29v5.8h5.8v29h-5.8v5.8h-29V722h-5.8v-29zm23.2 17.4v5.8H932v5.8h11.6v-5.8h5.8v-11.6h-11.6v-5.8h11.6V693H932v17.4h11.6zm23.3-17.4h5.8v-5.8h29v5.8h5.8v29h-5.8v5.8h-29V722h-5.8v-29zm23.2 29v-5.8h5.8v-11.6h-11.6v-5.8h11.6V693h-11.6v5.8h-5.8V722h11.6zm-5.8-11.6h5.8v5.8h-5.8v-5.8zm29-17.4h5.8v-5.8h29v5.8h5.8v29h-5.8v5.8h-29V722h-5.8v-29zm23.3 29v-17.4h5.8V693H1025v5.8h11.6v5.8h-5.8V722h5.8zm23.2-29h5.8v-5.8h29v5.8h5.8v29h-5.8v5.8h-29V722h-5.8v-29zm17.5 11.6v5.8h-5.8V722h11.6v-5.8h5.8v-5.8h-5.8v-5.8h5.8V693h-11.6v5.8h-5.8v5.8h5.8zm0-5.8h5.8v5.8h-5.8v-5.8zm0 11.6h5.8v5.8h-5.8v-5.8zm29-17.4h5.8v-5.8h29.1v5.8h5.8v29h-5.8v5.8h-29.1V722h-5.8v-29zm23.2 17.4v5.8h-11.6v5.8h11.6v-5.8h5.8V693h-11.6v5.8h-5.8v11.6h11.6zm-5.8-11.6h5.8v5.8h-5.8v-5.8zm-366 46.5V786h-5.8v-40.7h5.8zm34.9 5.8h5.8v29h-5.8v-29zm23.2-5.8V786H810v-40.7h5.8zm17.4 5.8h5.8v29h-5.8v-29zm11.7 0h5.8v29h-5.8v-29zm17.4-5.8V786h-5.8v-40.7h5.8zm11.6 34.9h11.6v5.8h-11.6v-5.8zm11.6-29h5.8v5.8h-5.8v-5.8zm0 23.2h5.8v5.8h-5.8v-5.8zm5.8-17.4h5.8v5.8h-5.8V757zm0 11.6h5.8v5.8h-5.8v-5.8zm5.9-5.8h5.8v5.8h-5.8v-5.8zm5.8-5.8h5.8v5.8H903V757zm0 11.6h5.8v5.8H903v-5.8zm11.6-23.2V757h-5.8v-11.7l5.8.1zm-5.8 29h5.8V786h-5.8v-11.6zm17.4-23.3h5.8v5.8h-5.8v-5.8zm5.8 11.6v17.4h-5.8v-17.4h5.8zm0-17.4h5.8v5.8H932v-5.8zm0 11.6h11.6v5.8H932v-5.8zm0 23.3h17.4v5.8H932v-5.8zm11.6-29h5.8v5.8h-5.8v-5.8zm0 11.6h5.8v5.8h-5.8v-5.8zm5.8-17.4h5.8v5.8h-5.8v-5.8zm0 23.2h5.8v11.6h-5.8v-11.6zm40.7-23.3v17.4h17.4v5.8h-40.7v-5.8h17.4v-17.4h5.9zm40.7 0h5.8v11.6h17.4v5.8h-40.7v-5.8h17.4l.1-11.6zm-11.6 29.1h29.1v5.8h-29l-.1-5.8zm63.9-29.1v11.6h17.4v5.8h-40.7v-5.8h17.4v-11.6h5.9zm-23.3 34.9h40.7v5.8h-40.7v-5.8zm5.8-11.7h29v5.8h-29v-5.8zm40.7-5.8h5.8v5.8h-5.8v-5.8zm11.6 23.3h-11.6v-5.8h11.6v5.8zm-5.8-29h5.8v5.8h-5.8V757zm5.8-11.7h5.8v5.8h17.4v5.8h-5.8v11.6h-5.8v-11.6h-11.6v-11.6zm0 17.5h5.8v5.8h-5.8v-5.8zm0 11.6h5.8v5.8h-5.8v-5.8zm5.8-5.8h5.8v5.8h-5.8v-5.8zm5.8 5.8h5.8v5.8h-5.8v-5.8zm5.9 5.8h5.8v5.8h-5.8v-5.8z" style="fill:#040404"/></svg>