<svg xmlns="http://www.w3.org/2000/svg" viewBox="0 0 1280 960"><path d="M103.7 447.5v-3h-3v-3h5.9v12h-3v-3h-5.8v-6h3v3h2.9zm-5.9 6h5.9v3h-5.9v-3zm14.8-6h5.9v3h-5.9v6h-3v-15h8.9v3h-5.9v3zm5.9-3h3v3h-3v-3zm5.9 3v-6h2.9v6h-2.9zm0 3h2.9v6h-2.9v-6zm2.9-3h5.9v3h-5.9v-3zm6-6h3v6h-3v-6zm0 9h3v6h-3v-6zm-20.7 36.2v-9.1h3v9.1h8.9v3h-8.9v6h-3v-6h-5.9v3h2.9v3h-2.9v9.1h-5.9v-3h3v-3h-5.9v-3h5.9v-6h-5.9v-3h5.9v-3h-3v-3h5.9v6l5.9-.1zm-5.9-9h2.9v3h-2.9v-3zm2.9 24.1h5.9v3h-5.9v-3zm5.9-6h2.9v6h-2.9v-6zm3-18.1h3v3h-3v-3zm0 15.1h3v3h-3v-3zm0 9h3v-3h3v6h-5.9l-.1-3zm3-21.1h3v3h-3v-3zm5.8 6h5.9v12.1h3v3h-3v3h-2.9v-15.1h-3v-3zm3.1-6v-3h2.9v3h-2.9zm5.8 3h8.9v-3h3v3h2.9v9.1h-3v9.1h3v-3h3v6h-8.9v-12.1h-2.9v9.1h-3v-9.1h-3v-9.1zm0 18.1h3v3h-3v-3zm3-24.1h3v3h-3v-3zm8.8 12.1v-3h-8.9v3h8.9zm0-12.1h3v3h-3v-3zm8.9 9h5.9v15.1h-3v-12.1h-3l.1-3zm0 15.1h3v3h-3v-3zm3-24.1h3v3h-3v-3zm3 27.2v-3h2.9v-15.1h5.9v-3h-8.9v-3h5.9v-3h3v3h3v-3h2.9v3h5.9v3h-8.9v3h5.9v15.1h2.9v3h-20.5zm14.7-12.1v-3h-8.9v3h8.9zm0 6v-3h-8.9v3h8.9zm11.8-9v-3h3v3h-3zm0 9h3v3h-3v-3zm11.8-3v-18.1h8.9v3h-5.9v15.1h-3zm14.8-12.1v-3h2.9v3H216zm0 3h5.9v3H216v-3zm2.9-9.1h5.9v3h-5.9v-3zm3 6h2.9v3h-2.9v-3zm0 6.1h14.8v9.1h-11.9v3h-2.9v-12.1zm3-9.1h8.9v3h-8.9v-3zm3 15.1v-3h-3v3h3zm-3 6.1h11.8v-3h3v6h-14.9l.1-3zm8.9-6.1v-3h-3v3h3zm0-18.1h5.9v3h-5.9v-3zm0 6h2.9v3h-2.9v-3zm2.9 3h5.9v3h-5.9v-3zm3-6.1h2.9v3h-2.9v-3zm5.8 3.2v-3h3v3h-3zm0 3h5.9v3h-5.9v-3zm3-9.1h5.9v3h-5.9v-3zm3 6h2.9v3h-3l.1-3zm0 6.1h14.8v9.1h-11.9v3h-3l.1-12.1zm2.9-9.1h8.9v3h-8.9v-3zm3 15.1v-3h-3v3h3zm-3 6.1h11.8v-3h3v6h-14.9l.1-3zm8.9-6.1v-3h-3v3h3zm0-18.1h5.9v3h-5.9v-3zm0 6h3v3h-3v-3zm3 3h5.9v3h-5.9v-3zm2.9-6.1h3v3h-3v-3zm8.8 21.4h3v3h-3v-3zm3 0v-6.1h3v6l-3 .1zm8.8-15.2h3v-3h3v21.2h-3v-15.1h-3v-3.1zm5.9-3v-6h3v6h-3zm3 3h3v3h-3v-3zm0 12.1h3v3h-3v-3zm2.9-21.1h3v3h11.8v9.1h-3v-6h-8.9v3h-3l.1-9.1zm0 15.1h3v6h-3v-6zm3 9h3v-15.1h3v6h3v3h-3v9.1h-5.9l-.1-3zm8.9-6h3v6h-3v-6zm8.8-15.1h8.9v-3h3v3h8.9v3h-8.9v3H346v3h-11.8v3h8.9v3h-8.9v6H346v3h-17.7v-3h3v-12h-11.8v-3h11.8v-3h-8.9v-3h-.1zm-3 18.1h3v6h-3v-6zm3-6h3v6h-3v-6zm3 6h3v3h-3v-3zm23.6-18.1h8.9v18.1h-8.9v-18.1zm3 15.1h3v-12.1h-3v12.1zm8.8-18.1h14.8v15.1h-11.9v9.1h-3l.1-24.2zm5.9 12.1v-9.1h-3v9.1h3zm-3 12h8.9v-6h3v9.1h-11.9v-3.1zm8.9-12v-9.1h-3v9.1h3zm8.9 12.1v-3h3v3h-3zm3-6.1h3v3h-3v-3zm0 6.1h3v3h-3v-3zm2.9-3h3v3h-3v-3zm8.8 3h5.9v-15.1h3v18.1h-8.9v-3zm16.1-15.2h3v-3h3v21.2h-3v-15.1h-3v-3.1zm5.9-3v-6h3v6h-3zm3 6.1h2.9v-9.1h3v6h3v-9.1h3v6h5.9v12.1h-3v-9.1h-3v9.1h-3v-6h-3v12.1H424v-9.1h-3l.1-2.9zm5.9 12.1h8.9v-3h3v6H427v-3zm14.7-18.2v-3h5.9v-3h3v3h5.9v-3h11.8v15.1h-3v-3h-5.9v3h5.9v3h-3v3h-5.9v3h11.8v3h-26.5v-3h11.8v-3h-5.9v-3h-3v-3h11.8v-9.1h-8.9v3h5.9v3h-8.9v-6h-2.8zm23.6 3v-3h-5.9v3h5.9zm5.9-6h8.9v-3h3v3h14.8v3h-17.7v3h-3v-3h-5.9l-.1-3zm11.9 24.2v-6h-11.8v-3h11.8v-3h-8.9v-6h3v3h5.9v-3h2.9v3h8.9v3H486v3h11.8v3H486v6h-2.9zm17.7-18.2h3v3h-3v-3zm0 15.1h5.9v3h-5.9v-3zm3-18.1h3v3h-3v-3zm11.8-3v12.1h-3v-9.1h-5.9v-6h3v3h5.9zm-8.9 9.1h3v3h-3v-3zm0 9h3v3h-3v-3zm3-6h3v6h-3v-6zm8.8-15.1h3v9.1h3v3h-3v15.1h-3v-27.2zm6 12.1h3v6h-3v-6zm8.8-9.1H548v3h3v3h5.9v3h-3v15.1h-17.7v-9h-3v-3h3v-3h-5.9v-3h8.9v-3h-5.9v-3.1zm-3 15.1h3v3h-3v-3zm20.7-3v-3h-11.8v3H551zm0 6v-3h-11.8v3H551zm-3-21.2h5.9v3H548v-3zm14.8.1h20.7v3h-3v3h-3v-3h-14.7v-3zm5.9 24.2h3v-15.1h3v18.1h-5.9l-.1-3zm5.9-18.2h3v3h-3v-3zm17.7-3h14.8v3h3v3h5.9v3h-3v15.1h-17.7v-9h-3v-3h3v-3h-5.9v-3h8.9v-3h-5.9l-.1-3.1zm-3 15.1h3v3h-3v-3zm20.7-3v-3h-11.8v3H610zm0 6v-3h-11.8v3H610zm-3-21.2h6v3h-5.9l-.1-3zm14.9 24.3h3v3h-3v-3zm3 0v-6.1h3v6l-3 .1zm8.8-15.2h5.9v12.1h3v3h-3v3h-3v-15.1h-3l.1-3zm2.9-6v-3h3v3h-3zm5.9 3h8.9v-3h3v3h3v9.1h-3v9.1h3v-3h3v6h-8.9v-12.1h-3v9.1h-3v-9.1h-3v-9.1zm0 18.1h3v3h-3v-3zm3-24.1h3v3h-3v-3zm8.9 12v-3h-8.9v3h8.9zm0-12h3v3h-3v-3zm11.8 12.1v-3h3v3h-3zm0 9h3v3h-3v-3zM97.8 541.1V523h8.9v3h-5.9v15.1h-3zm29.5-9V523h3v9.1h8.9v3h-8.9v6h-3v-6h-5.9v3h3v3h-3v9.1h-5.9v-3h2.9v-3h-5.9v-3h5.9v-6h-5.9v-3h5.9v-3h-2.9v-3h5.9v6l5.9-.1zm-5.9-9.1h3v3h-3v-3zm3 24.2h5.9v3h-6l.1-3zm6-6h2.9v6h-2.9v-6zm2.9-18.2h3v3h-3v-3zm0 15.1h3v3h-3v-3zm0 9.1h3v-3h3v6h-5.9l-.1-3zm3-21.2h3v3h-3v-3zm6.1-3H169v6h-3v-3h-5.9v12.1h8.9v3h-8.9v3h-3v-3h-14.7v-3h5.9v-3h3v3h5.9V526h-5.9v3h-3v-3h-5.9v-3zm0 24.2h8.9v3h-8.9v-3zm3-15.1h2.9v3h-3l.1-3zm6-3h2.9v3h-2.9v-3zm0 15.1h5.9v3h-5.9v-3zm8.8 0h5.9v3h-5.9v-3zm3-15.1h2.9v3h-2.9v-3zm3 18.1h3v3h-3v-3zm6.1 3v-3h2.9v3h-2.9zm3-9.1h3v6h-3v-6zm3-18.1H193v24.2h-3V526h-8.9v15.1h-2.9l.1-18.1zm14.7 24.2h3v-6h2.9v9.1H193v-3.1zm9.2-15.1h5.9v3h-5.9v-3zm5.9-3h2.9v3h-2.9v-3zm2.9-3h3v3h-3v-3zm3-3h3v3h-3v-3zm0 27.1V532h3v18.1l-3 .1zm3-24.1h2.9v3H217v-3zm2.9 3h3v3h-3v-3zm3 3h5.9v3h-5.9v-3zm9.1-3.1h5.9v-6h2.9v6h3v3h-3v3h3v3h-3v12.1h-2.9V541h-3v-6h3v-3H232v-3zm0 12.1h3v6h-3v-6zm11.8-9.1h5.9v3h3v-3h-3v-3h-5.9v-3h3v-3h8.9v3h3v3h-3v6h3v15.1h-5.9v-3h2.9v-3h-2.9v-3h2.9v-3h-2.9v3h-3v-3h-3v-3h-3V532zm0 6.1h3v3h2.9v3h-3v6h-3l.1-12zm5.9 6h3v3h-3v-3zm38.8-9v3h-11.8v12.1h-5.9v-3h3v-9.1h-11.9v-3h11.8v-3h3v3h11.8zM264.9 523h20.7v3h-3v3h-3v-3h-14.7v-3zm11.8 6h3v3h-3v-3zm15.1 6.1h11.8v-6h-8.9v-3h8.9v-3h3v3h8.9v3h-8.9v6h11.8v3h-14.8v6h-3v-6h-8.9l.1-3zm3 12.1h3v-3h3v3h8.9v3h-14.9v-3zm14.7-6h3v6h-3v-6zm3 6h3v3h-3v-3zm11.7 0v-3h3v3h-3zm3-6h3v3h-3v-3zm0 6h3v3h-3v-3zm3-3h3v3h-3v-3zm20.6-12.1h3v-3h3v21.2h-3v-15.1h-3v-3.1zm5.9-3v-6h3v6h-3zm3 3h3v3h-3v-3zm0 12.1h3v3h-3v-3zm3-21.2h3v3h11.8v9.1h-3v-6h-8.9v3h-3l.1-9.1zm0 15.1h3v6h-3v-6zm2.9 9.1h3v-15.1h3v6h3v3h-3.1v9.1h-5.9v-3zm8.9-6h3v6h-3v-6zm6.2-15.2h8.9v-3h3v3h3v3h-14.8v-3h-.1zm0 21.2h3v3h-3v-3zm3-15.2h11.8v9.1h-3v3h5.9v6h-3v-3h-2.9v3h-5.9v-3h3v-6h-5.9V532zm0 12.1h3v3h-3v-3zm8.8-6v-3h-5.9v3h5.9zm3-9h3v-6h3v6h5.9v3h-5.9v3h3v12.1h3v3h-5.9v-6h-3v-12.1h-3l-.1-3zm8.8-6h3v3h-3v-3zm6.2 2.9h8.9v-3h3v3h14.8v3h-17.8v6h-3v-6h-5.9v-3zm0 15.1h3v-6h3v15.1h-3v-6h-3v-3.1zm8.9 6h5.9v-6h-5.9v-3h5.9v-6h3v6h5.9v3h-5.9v6h8.9v3h-17.8v-3zm21 .1h3V529h3v18.1h3v3h-8.9l-.1-2.9zm8.9-24.2h3v9.1h3v3h-3v9.1h3v3h-5.9l-.1-24.2zm14.7 9.1v3h-3v12.1h-3V523h3v9.1h3zm-3 15.1h3v-6h3v9.1h-5.9l-.1-3.1zm3-21.2h3v6h-3v-6zm6.3 6.1h5.9V523h3v9.1h3v-6h2.9v6h3V523h3v6h5.9v12.1h-3V532h-3v9.1h-3v-6h-3v12.1h-3v-3h-5.9v-9.1h-5.9l.1-3zm0 12.1h5.9v3h-5.9v-3zm11.8-3v-6h-3v6h3zm2.9 6h8.9v-3h3v6H485v-3zm17.8 0h3v3h-3v-3zm3 0v-6h3v6h-3zm23.5-24.2h26.6v3H547v3h-3v-3h-14.7v-3zm0 15.1h5.9v3h-5.9v-3zm5.9-3h3v3h-3v-3zm6 15.1v-15.1h-3v-3h3v-3h3v21.2l-3-.1zm5.9-15.1h5.9v3h-5.9v-3zm5.9 3h3v3h-3v-3zm6.2 0h8.9v-3h-5.9V526h-3v-3h26.6v3h-3v9.1H571v3h14.8v3h-5.9v3h-3v-3H568v3h-3v-3h-5.9l.1-3zm3 9.1h5.9v3h-5.9v-3zm5.9-15.1v-3h-3v3h3zm0 12.1h8.9v3h-8.9v-3zm5.9-12.1v-3h-3v3h3zm5.9 0v-3h-3v3h3zm-3 15.1h5.9v3h-5.9v-3zM592 526h8.9v-3h3v3h8.9v3h-8.9v3h11.8v3h-11.8v3h8.9v3h-8.9v6h11.8v3H598v-3h3v-11.9h-11.9v-3h11.8v-3H592V526zm-3 18.1h3v6h-3v-6zm3-6h3v6h-3v-6zm3 6h3v3h-3v-3zm23.9-9h14.8v3h-5.9v6h-3v-6h-5.9v-3zm0 12.1h3v-3h3v3h5.9v3h-11.9v-3zm3-21.2h8.9v3h-8.9v-3zm8.9 18.2h3v3h-3v-3zm3-12.1v-3h3v-6h3v6h5.9v21.2h-5.9v-3h3v-15.2h-3v15.1h-3v-15.1h-3zm0 15.1h3v3h-3v-3zm17.6 0v-3h3v3h-3zm3-6h3v3h-3v-3zm0 6h3v3h-3v-3zm3-3h3v3h-3v-3zm8.8 3h5.9v-15.1h3v18.1h-8.9v-3zm-553.6 30.2v-9.1h3v9.1h8.9v3h-8.9v6h-3v-6h-5.9v3h2.9v3h-2.9v9.1h-5.9v-3h3v-3h-5.9v-3h5.9v-6h-5.9v-3h5.9v-3h-3v-3h5.9v6l5.9-.1zm-5.9-9.1h2.9v3h-2.9v-3zm2.9 24.2h5.9v3h-5.9v-3zm5.9-6h2.9v6h-2.9v-6zm3-18.1h3v3h-3v-3zm0 15.1h3v3h-3v-3zm0 9h3v-3h3v6h-5.9l-.1-3zm3-21.1h3v3h-3v-3zm9-.1h14.8v3h2.9v3h5.9v3h-2.9v15.1h-17.7v-9.1h-3v-3h3v-3h-5.9v-3h8.9v-3h-5.9v-3h-.1zm-2.9 15.2h2.9v3h-2.9v-3zm20.7-3v-3h-11.8v3h11.8zm0 6v-3h-11.8v3h11.8zm-3-21.2h5.9v3h-5.9v-3zm12.1 0h14.8v27.2h-5.9v-3h2.9v-6h-5.9v6h-3v-6h-2.9v-3h5.9v-6h-5.9v-3h5.9v-3h-5.9v-3.2zm0 24.2h2.9v3h-2.9v-3zm11.8-18.1v-3h-2.9v3h2.9zm0 9v-6h-2.9v6h2.9zm5.9-15.1h8.9v9.1h-3v-6h-3v6h3v3h-3v6h3v-6h2.9v9.1H178v6h-2.9v-27.2zm12 9.1h5.9v15.1h-3v-12.1h-3l.1-3zm0 15.1h3v3h-3v-3zm3-24.2h3v3h-3v-3zm3 3h3v3h-3v-3zm0 21.2h20.7v3H193l.1-3zm3-6h2.9v3h-3l.1-3zm3-9.1v-3h3v-6h2.9v6h5.9v15.1H205v-3h3v-9.1h-3v6h-3.1v-6h-2.8zm0 6h3v3h-3v-3zm20.8 12.1v-3h3v3h-3zm3-27.2h17.7v27.2h-5.9v-3h3v-6h-11.9v6h-2.9v-24.2zm14.7 6v-3h-11.9v3h11.9zm0 9.1v-6h-11.9v6h11.9zm9.1-6h3v-3h3v3h14.8v3h-20.8v-3zm3 6h20.6v12.1h-20.7l.1-12.1zm3-12.1h2.9v3h-2.9v-3zm14.7 21.2v-6h-14.9v6h14.9zm-11.8-24.2h3v3h-3v-3zm11.8 6h3v3h-3v-3zm3 3h3v3h-3v-3zm6-2.9h3v-3h3v3h5.9v3h3v3h-3v15.1h-11.9v-21.1zm8.9 9v-6h-5.9v6h5.9zm0 9.1v-6h-5.9v6h5.9zm-3-24.2h3v3h-3v-3zm8.9 0h3v6h8.8v18.2h-3v-15.1h-8.9l.1-9.1zm0 12.1h3v3h-3v-3zm3 6v-3h3v3h-3zm0 6h5.9v3h-5.9v-3zm15-12h3v-3h-3v-3h3v-6h3v6h3v3h-3v3h3v3h-3v12.1h-3v-6h-3v-9.1zm8.8-3h3v-9.1h5.9v3h-3v6h3v-6h3v6h3v-6h-3v-3h5.9v27.2h-3v-15.1h-3v15.1h-3v-15.1h-3v12.1H321v-12.1h-3v-3zm0 18.1v-3h3v3h-3zm23.9-21.1h5.9v-6h3v6h3v3h-3v6h3v3h-3v9.1h-3v-9.1h-3v-6h3v-3h-5.9v-3zm0 12.1h3v6h-3v-6zm11.8 6h14.8v3h-14.8v-3zm3-24.2h3v3h-3v-3zm0 6h5.9v-3h3v3h3v3h-11.9v-3zm0 9h8.9v3h-8.9v-3zm8.9-15.1h3v3h-3v-3zm9 9.2h3v3h-3v-3zm0 15.1h5.9v3h-5.9v-3zm3-18.1h3v3h-3v-3zm11.8-3v12.1h-3v-9.1h-5.9v-6h3v3h5.9zm-8.8 9h3v3h-3v-3zm0 9.1h3v3h-3v-3zm3-6h3v6h-3v-6zm8.8-15.1h3v9.1h3v3h-3v15.1h-3v-27.2zm5.9 12h3v6h-3v-6zm9-9.1h8.9v-3h3v3H434v3h-17.7v3H431v18.1h-3v-3h-11.8v3h-3v-12h-3v-3h3v-6h-5.9v-3.1zm0 12.1h3v3h-3v-3zm20.7 0v-3h-11.8v3H428zm0 6.1v-3h-11.8v3H428zm12.1 6v-3h3v3h-3zm3-9h3v6h-3v-6zm3-18.2h14.8v24.2h-3v-21.2H449v15.1h-3l.1-18.1zm14.7 24.2h3v-6h3v9.1h-5.9l-.1-3.1zm9-15.1h5.9v3h-5.9v-3zm5.9-3h3v3h-3v-3zm3-3h3v3h-3v-3zm3-3h3v3h-3v-3zm0 27.2v-18.2h3v18.1l-3 .1zm3-24.2h3v3h-3v-3zm2.9 3h3v3h-3v-3zm3 3h5.9v3h-5.9v-3zm9 9.1h5.9v-3h3v3h5.9v-6h-3v3h-3v-3h-3v3h-3v-3h-3v-3h11.8v-3h-5.9v-3h5.9v-3h3v3h5.9v3h-5.9v3H526v6h-3v-3h-5.9v6h8.9v3h-5.9v3h-3v-3h-3v3h-3v-3h-11.6v-3h.1zm3 6h8.9v3h-8.9v-3zm17.7 0h3v3h-3v-3zm9.1-21.2h8.9v-3h3v3H556v3h-17.8v3h-3v-3h-5.9l.1-3zm0 18.2h3v3h-3v-3zm8.8 3h3v-9.1h-8.9v-6h3v3h5.9v-3h3v3h8.8v3h-8.9v12.1h-5.9v-3zm-5.9-6h3v3h-3v-3zm17.7 0h3v3h-3v-3zm3 3h3v3h-3v-3zm6.1-15.1h8.9v-3h-8.9v-3h26.6v3h-8.9v3h8.9v21.2h-26.6v-21.2zm23.7 18.1v-6h-5.9v-3h5.9v-6h-5.9v6h-3v-6H571v6h-3v-6h-5.9v9.1h3v3h-3v3l20.7-.1zm-17.7-9.1h3v3h-3v-3zm8.8-9v-3H571v3h2.9zm15 0h3v-3h3v3h5.9v3h3v3h-3v15.1h-11.9v-21.1zm8.9 9v-6h-5.9v6h5.9zm0 9.1v-6h-5.9v6h5.9zm-3-24.2h3v3h-3v-3zm8.9 0h3v6h8.9v18.2h-3v-15.1h-8.9v-9.1zm0 12.1h3v3h-3v-3zm3 6v-3h3v3h-3zm0 6h5.9v3h-5.9v-3zm26.8.1h3v-3h-8.9v3h-3v-3h-3v-3h14.8v-3h-17.7v-3h11.8v-3h-8.9v-3h3v-3h-3v-3h8.9v3h-3v3h3v-3h3v3h3v-3h-3v-3h11.8v3h-5.9v3h3v3h-8.9v3h11.8v3h-5.9v3h3v3h-3v6h-5.9v-3zm-14.8-21.2h3v3h-3v-3zm47.5 0v-3h3v3h3v3h-5.9v3h8.7v3h-3v15.1h-17.6v-9.1h-3v-3h3v-3h-5.9v-3h8.9v-3h-5.9v-3h3v-3h3v3h8.7zm-17.7 15.2h3v3h-3v-3zm20.6-3v-3h-11.8v3h11.8zm0 6v-3h-11.8v3h11.8zM97.8 640.8v-6h3v6h-3zm3-27.1h11.8v3h-8.9v3h8.9v3h3v9.1h-3v-3h-3v-6h-2.9v6h2.9v3h-2.9v6h2.9v3h-5.9v-6h-3l.1-21.1zm8.9 21.1h3v3h-3v-3zm3 3h3v3h-3v-3zm3-18.1h2.9v-3h-2.9v-3h8.9v3h-3v3h3v12.1h-3v3h-3v-9.1h3v-3h-5.9v-3zm0 15.1h2.9v3h-2.9v-3zm5.9 0h3v6h-3v-6zm7.3-12.1v-6h11.8v-3h3v3h11.8v6h-3v-3h-3v6h-3v-3h-5.9v3h5.9v3h-8.8v-6h-3v-3h-3v3h-2.8zm0 6h8.9v3h8.9v-3h8.9v3h-5.9v9.1h-14.8v-9.1H129l-.1-3zm3-6h3v3h-3v-3zm14.8 15.1v-3h-8.9v3h8.9zm14.7 0v-3h2.9v3h-2.9zm3-6h3v3h-3v-3zm0 6h3v3h-3v-3zm3-3h3v3h-3v-3zm23.6-18.1h8.9v-3h3v3h8.9v3h-8.9v3h11.8v3h-11.9v3h8.9v3h-8.9v6h11.8v3h-17.7v-3h2.9v-11.9H188v-3h11.8v-3H191v-3.1zm-3 18.1h3v6h-3v-6zm3-6h2.9v6H191v-6zm2.9 6h3v3h-3v-3zm25.2-21.1h14.8v3H228v3h-3v-3h-5.9v-3zm0 15.1h5.9v-3h-5.9v-3h3v-3h2.9v3h5.9v-3h2.9v6H228v3h5.9v3H228v3h5.9v3H225v-6h-5.9v-3zm0 9h5.9v3h-5.9v-3zm17.8-18.1h3v12.1h-3v-12.1zm3 18.1h2.9v-24.2h3v27.2h-6l.1-3zm10.3-24.1H265v27.2h-5.9v-3h3v-6h-5.9v6h-2.9v-6h-3v-3h5.9v-6h-5.9v-3h5.9v-3h-5.9l-.1-3.2zm0 24.1h3v3h-3v-3zm11.9-18.1v-3h-3v3h3zm0 9.1v-6h-3v6h3zm5.9-15.1h8.9v9.1h-3v-6h-3v6h3v3h-3v6h3v-6h3v9.1H271v6h-3v-27.2zm13.4 9h5.9v15.1h-3v-12.1h-3l.1-3zm0 15.1h3v3h-3v-3zm3-24.1h3v3h-3v-3zm2.9 3h3v3h-3v-3zm0 21.1H308v3h-20.7v-3zm3-6h3v3h-3v-3zm3-9.1v-3h3v-6h3v6h5.8v15.1h-5.9v-3h3v-9.1h-3v6h-3v-6h-2.9zm0 6h3v3h-3v-3zm22.1 12.1v-3h3v3h-3zm3-27.1h17.7v27.2h-5.9v-3h3v-6h-11.9v6h-3l.1-24.2zm14.8 6v-3h-11.8v3h11.8zm0 9v-6h-11.8v6h11.8zm10.4-6h3v-3h3v3h14.8v3h-20.7l-.1-3zm3 6h20.7v12.1h-20.7v-12.1zm3-12.1h3v3h-3v-3zm14.7 21.2v-6h-14.8v6h14.8zm-11.8-24.2h3v3h-3v-3zm11.8 6h3v3h-3v-3zm3 3h3v3h-3v-3zm8.8 15.2h3v3h-3v-3zm3 0v-6h3v6h-3zm23.6-18.1h5.9v3h-5.9v-3zm0 6h5.9v3h-5.9v-3zm0 15.1v-3h3v3h-3zm3-6h3v3h-3v-3zm2.9-21.2h3v6h-3v-6zm0 9.1h3v3h-3v-3zm0 6h3v6h-3v-6zm5.9-9.1h5.9v-3h-5.9v-3h14.8v3h-5.9v3h5.9v12.1h-3v-9.1h-8.9v9.1h-3l.1-12.1zm0 18.2h3v3h-3v-3zm3-3h3v3h-3v-3zm2.9-9.1h3v9.1h-3v-9.1zm3 9.1h3v3h-3v-3zm3 3h3v3h-3v-3zm7.4-21.1h11.8v-3h3v3h11.8v6h-3v-3h-3v3h-3v-3h-8.9v3h-2.9v-3h-3v3h-3l.2-6zm0 24.1v-3h5.9v3h-5.9zm2.9-12h3v-3h3v3h5.9v-3h-5.9v-3h8.9v6h5.9v3h-5.9v9.1h-6v-3h3v-6h-3v3h-3v-3h-5.9v-3.1zm0-6h3v3h-3v-3zm3 12h3v3h-3v-3zm14.8-12h3v3h-3v-3zm10.4-.1h5.9v15.1h-3v-12.1h-3l.1-3zm0 15.1h3v3h-3v-3zm3-24.1h3v3h-3v-3zm3 3h3v3h-3v-3zm0 21.1h20.7v3h-20.7v-3zm5.9-21.1h8.9v-3h3v3h3v3h-3v15.1h-5.9v-3h3v-12.1h-8.9l-.1-3zm0 6h3v3h-3v-3zm3 3h3v3h-3v-3zm28-3v3h-5.9v3h3v3h-3v3h3v3h-3v3h-3v-9.1h-3v-3h3v-3h-3v-6h3v3l8.9.1zm-8.8-9h3v3h3v3h-6v-6zm5.9 24.1h5.9v3h-5.9v-3zm3-9h5.9v-6h-5.9v-6h3v3h2.9v-6h3v6h5.9v3h-6v6h5.9v3h-5.9v3h-3v-3h-5.9l.1-3zm3 6h2.9v3h-3l.1-3zm5.9 0h3v3h-3v-3zm3 3h3v3h-3v-3zm7.4-15.1h5.9v15.1h-3v-12.1h-3l.1-3zm0 15.1h3v3h-3v-3zm3-24.1h3v3h-3v-3zm2.9 27.1v-3h3v-15.1h5.9v-3h-8.9v-3h5.9v-3h3v3h3v-3h3v3h5.9v3H545v3h5.9v15.1h3v3h-20.8zm14.8-12v-3H539v3h8.9zm0 6v-3H539v3h8.9zm11.7 3h3v3h-3v-3zm3 0v-6h3v6h-3zm23.6-18.1h5.9v3h-5.9v-3zm0 6h5.9v3h-5.9v-3zm0 15.1v-3h3v3h-3zm3-6h3v3h-3v-3zm3-21.2h3v6h-3v-6zm0 9.1h3v3h-3v-3zm0 6h3v6h-3v-6zm5.9-9.1h5.9v-3h-6v-3h14.8v3h-5.9v3h5.9v12.1h-3v-9.1H601v9.1h-3l.1-12.1zm0 18.2h3v3h-3v-3zm3-3h3v3h-3v-3zm3-9.1h3v9.1h-3v-9.1zm2.9 9.1h3v3h-3v-3zm3 3h3v3h-3v-3zm19.2 0v-9.1h-3v-3h3v-3h-3v3h-3v3h3v3h-3v3h3v3h-3v3h-5.9v-12h3v-3h-3v-12.1h8.9v6h3v-6h3v24.2h-3zm-6-15.1v-6h-3v6h3zm3 15.1h3v3h-3v-3zm8.9-24.1h3v6h3v3h-3v3h3v3h-3v9.1h3v-3h3v6h-8.9l-.1-27.1zm5.9 3h3v3h-3v-3zm0 12h3v3h-3v-3zm16.3 12.1v-24.2h-8.9v-3H675v3h-14.7v24.2h-3zm5.9-18.1h5.9v3h-5.9v-3zm5.9 3h3v3h-3v-3zM97.8 671.1h11.8v-6h-8.9v-3h8.9v-3h3v3h8.9v3h-8.9v6h11.8v3h-14.8v6h-2.9v-6h-8.9v-3zm3 12.1h3v-3h3v3h8.9v3h-14.9v-3zm14.8-6h2.9v6h-2.9v-6zm2.9 6h3v3h-3v-3zm10.2 0h8.9v3h-8.9v-3zm3-24.2h20.7v9h-3v-6h-17.7v-3zm0 6h3v3h-3v-3zm3 3h2.9v6h-2.9v-6zm2.9 6h3v3h-3v-3zm0 6h3v3h-3v-3zm3-3h3v3h-3v-3zm3-3h3v3h-3v-3zm0 6h3v3h-3v-3zm3-12.1h3v6h-3v-6zm0 15.1h8.9v3h-8.9v-3zm13-2.9h3v6h-3v-6zm5.9-15.1v12.1h3v9.1h-3v-6h-2.9V662h5.9v3h-3zm3-6h5.9v3h-5.9v-3zm0 6h3v12.1h-3V665zm3 12.1h3v6h-3v-6zm3-15.1h11.8v9.1h-8.9v6h-2.9V662zm0 21.1h11.8v3h-11.9l.1-3zm3-6h5.9v-3h3v6h-8.9v-3zm5.9-9v-3h-2.9v3h2.9zm7.1 15.1h8.9V659h2.9v9h11.8v3h-11.8v12.1h14.8v3h-26.6v-2.9zm30.9-12.1h11.8v-6h-8.9v-3h8.9v-3h3v3h8.8v3h-8.9v6H248v3h-14.8v6h-2.9v-6h-8.9v-3zm3 12.1h3v-3h2.9v3h8.9v3h-14.9l.1-3zm14.8-6h2.9v6h-2.9v-6zm2.9 6h3v3h-3v-3zm11.8 0v-3h3v3h-3zm2.9-6h3v3h-3v-3zm0 6h3v3h-3v-3zm3-3h3v3h-3v-3zm20.7-12.2h3v3h-3v-3zm0 15.1h8.9v3h-8.9v-3zm3-18.1h3v3h-3v-3zm3-6h3v6h-3v-6zm0 9h3v6h-3v-6zm2.9 6h3v3h-3v-3zm0 6h3v3h-3v-3zm3-3h3v3h-3v-3zm3-3h3v3h-3v-3zm0 6h3v3h-3v-3zm2.8-21h3v3h-3v-3zm0 9.1h3v6h-3v-6zm0 15.1h8.8v3h-8.9l.1-3zm2.9-21.2h3v3h-3v-3zm3 3h3v6h-3v-6zm7.3 3h8.9v-3h-3v-3h5.9v-3h3v3h5.9v3h-3v3h8.9v3h-11.7v3h8.9v3h-3v3h-3v-3h-3v9.1h-5.9v-3h3v-6h-3v3h-3v-3h-3v-3h8.9v-3h-11.7l-.1-3.1zm3 12.1h3v3h-3v-3zm11.7-12.1v-3h-3v3h3zm5.9 12.1h3v3h-3v-3zm10.2 3.1h5.9v3h-5.9v-3zm3-12.1h3V659H363v12.1h3v3h-9v3h5.9v3H357v3h11.8v3h-17.7v-3h3V674h-8.9v-2.9zm3 6h3v6h-3v-6zM360 665v-3h-8.9v3h8.9zm0 6v-3h-8.9v3h8.9zm13.1.1h26.6v3h-26.6v-3zM404 668h5.9v3H404v-3zm5.9-3h3v3h-3v-3zm3-3h3v3h-3v-3zm2.9-3h3v3h-3v-3zm0 27.2V668h3v18.1l-3 .1zm3-24.2h3v3h-3v-3zm3 3h3v3h-3v-3zm2.9 3h5.9v3h-5.9v-3zm10.2 12.1h3v6h-3v-6zm3-21.1h8.9v3h3v3h-3v3h5.9v-9h3v6h3v3h3v3h-5.9v3h5.9v3h-5.9v9.1h-3V677h-5.9v9.1H441v-3h3v-6h-3v3h-3V659h-.1zm3 3v3h3v-3h-3zm2.9 12.1v-6h-3v6h3zm8.9 0v-3h-5.9v3h5.9zm5.8-12.1h3v3h-3v-3zm33.9 9.1v3h-11.8v12.1h-5.9v-3h3v-9.1h-11.8v-3h11.8v-3h3v3h11.7zM468.8 659h20.7v3h-3v3h-3v-3h-14.8l.1-3zm11.8 6h3v3h-3v-3zm17.7 18.2h3v3h-3v-3zm3 0v-6h3v6h-3zm26.5-21.2h8.9v-3h3v3h8.9v3h-8.9v3h11.8v3h-11.8v3h8.9v3h-8.9v6h11.8v3h-17.7v-3h3v-11.9h-11.9v-3h11.8v-3h-8.9V662zm-3 18.1h3v6h-3v-6zm3-6h3v6h-3v-6zm3 6h3v3h-3v-3zm25-12.1h5.9v15.1h-3v-12h-3l.1-3.1zm0 15.1h3v3h-3v-3zm3-24.2h3v3h-3v-3zm2.9 3h3v3h-3v-3zm0 21.2h20.7v3h-20.7v-3zm5.9-21.1h8.9v-3h3v3h3v3h-3v15.1h-6v-3h3V665h-8.9v-3zm0 6h3v3h-3v-3zm3 3h3v3h-3v-3zm16.1.1h11.8v-6h-8.9v-3h8.9v-3h3v3h8.9v3h-8.9v6h11.8v3h-14.8v6h-3v-6h-8.9l.1-3zm3 12.1h3v-3h3v3h8.9v3h-14.9v-3zm14.7-6h3v6h-3v-6zm3 6h3v3h-3v-3zm30.8-15.2v-3h-14.8v-3h3v-3h3v3h11.8v24.2h-20.7V665h3v3h14.7zm0 6v-3h-14.8v3h14.8zm0 9.1v-6h-14.8v6h14.8zm10.3-18.1v-3h3v3h-3zm0 3h3v-3h3v6h-5.9l-.1-3zm0 6h5.9v3h-5.9v-3zm0 9.1h3v3h-3v-3zm2.9-24.1h8.9v6h5.9v-6h3v6h5.8v3h-5.9v3h-3v-3h-5.9v3h-3v-9h-5.9l.1-3zm0 21.2h3v3h-3v-3zm3-9.1h3v3h-3v-3zm3 9.1h3v3h-3v-3zm3-6h3v3h-3v-3zm0 9h3v3h-3v-3zm3-12.1h3v3h-3v-3zm0 9.1h3v3h-3v-3zm3 3h3v3h-3v-3zm3-12.1h3v3h-3v-3zm0 9.1h3v3h-3v-3zm3-21.2h3v3h-3v-3zm0 15.1h3v3h-3v-3zm0 9.1h3v3h-3v-3zM97.8 719.4h8.9v-3h-5.9v-9.1h-3v-3h26.6v3h-3v9.1h-11.8v3h14.8v3h-5.9v3h-2.9v-3h-8.9v3h-3v-3h-5.9v-3zm3 9.1h5.9v3h-5.9v-3zm5.9-15.1v-3h-3v3h3zm0 12.1h8.9v3h-8.9v-3zm5.9-12.1v-3h-3v3h3zm5.9 0v-3h-2.9v3h2.9zm-2.9 15.1h5.9v3h-5.9v-3zm16.3-21.2h5.9v-3h2.9v3h3v-3h2.9v3h5.9v6h3v6h-3v-3h-5.9v3h5.9v6h-3v-3h-5.9v3h-3v-3h-5.9v3h-3v-6h3v-3h-5.9v-3h8.9v-3h-5.9l.1-3zm0 21.2h5.9v3h-5.9v-3zm11.8-9.1v-3h-5.9v3h5.9zm-5.9 6h2.9v3h-2.9v-3zm5.9-12.1v-3h-3v3h3zm5.9 0v-3h-3v3h3zm-3 12.1h3v3h-3v-3zm3 3h3v3h-3v-3zm10.5-21.1h11.8v-3h2.9v3h11.8v3h-5.9v3h3v6h3v3h-3v6h-8.9v3h-2.9v-3H163v-3h8.9v-3h-11.8v-3h11.8v-3H163v-3h3v-3h-5.9v-3zm11.8 6v-3h-3v3h3zm5.9 0v-3h-3v3h3zm2.9 6v-3h-5.9v3h5.9zm0 6v-3h-5.9v3h5.9zm10.5-15h3v9.1h3v3h-5.9l-.1-12.1zm0 18.2h26.6v3h-26.6v-3zm5.9-24.2h3v6h3v3h-3v3h3v3h-5.9l-.1-15zm0 18.1h11.8v-3h5.9v-3h3v6h-5.9v3h-14.8v-3zm8.8-18.1h3v6h5.9v3h-5.9v6h-3v-15zm8.9 6v-3h3v3h-3zm8.9 18.2v-3h3v3h-3zm3-6.1h2.9v3h-2.9v-3zm0 6.1h2.9v3h-2.9v-3zm2.9-3h3v3h-3v-3zm35.4-12.1v-9.1h3v9.1h8.9v3H268v6h-3v-6h-5.9v3h3v3h-3v9.1h-5.9v-3h2.9v-3h-5.9v-3h5.9v-6h-5.9v-3h5.9v-3h-2.9v-3h5.9v6l5.9-.1zm-5.9-9.1h3v3h-3v-3zm3 24.2h5.9v3h-5.9v-3zm5.9-6.1h3v6h-3v-6zm2.9-18.1h3v3h-3v-3zm0 15.1h3v3h-3v-3zm0 9.1h3v-3h3v6H271l-.1-3zm3-21.2h3v3h-3v-3zm7.5 3h11.8v-6h3v6H308v3h-8.9v3h-3v6h5.9v3h-5.9v6h-3v-6h-5.9v-3h5.9v-6h-3v-3h-8.9l.2-3zm0 15.2v-3h3v3h-3zm3-6h3v3h-3v-3zm2.9-3h3v3h-3v-3zm11.8 0h3v3h-3v-3zm3 3h2.9v3h-3l.1-3zm3 3h3v3h-3v-3zm7.4-12.2v-3h11.8v-3h3v3h11.8v3h-3v3h-3v-3h-5.9v6h3v-3h3v3h5.9v3h-8.9v3h-3v9.1h-3v-9.1h-3v-3h-8.9v-3h5.9v-3h3v3h3v-6h-5.9v3h-3v-3h-2.8zm0 15.2h5.9v3h-5.9v-3zm5.9-3h3v3h-3v-3zm11.8 0h3v3h-3v-3zm3 3h5.9v3h-5.9v-3zm10.4-6.1h8.9v-3h-5.9v-9.1h-3v-3h26.6v3h-3v9.1h-11.8v3h14.8v3h-5.9v3h-3v-3h-8.9v3h-3v-3h-5.9l.1-3zm3 9.1h5.9v3h-5.9v-3zm5.9-15.1v-3h-3v3h3zm0 12.1h8.9v3h-8.9v-3zm5.9-12.1v-3h-3v3h3zm5.9 0v-3h-3v3h3zm-3 15.1h5.9v3h-5.9v-3zm13.4-12.1h11.8v-6h-8.9v-3h8.9v-3h3v3h8.9v3h-8.9v6h11.8v3h-14.8v6h-3v-6h-8.9v-3h.1zm3 12.1h3v-3h3v3h8.9v3h-14.8v-3h-.1zm14.7-6.1h3v6h-3v-6zm3 6.1h3v3h-3v-3zm10.4-18.2h3v-3h3v3h5.9v3h3v3h-3v15.2h-11.9v-21.2zm8.9 9.1v-6h-5.9v6h5.9zm0 9.1v-6h-5.9v6h5.9zm-3-24.2h3v3h-3v-3zm8.9 0h3v6h8.9v18.1h-3v-15.1h-8.9v-9zm0 12.1h3v3h-3v-3zm3 6v-3h3v3h-3zm0 6h5.9v3h-5.9v-3zm14.7.1h3v3h-3v-3zm3 0v-6h3v6h-3zm23.6-15.1h3v-3h3v21.1h-3v-15.1h-3v-3zm5.9-3v-6h3v6h-3zm3 6h3v-9.1h3v6h3v-9h3v6h5.9v12.1h-3v-9.1h-3v9.1h-3v-6h-3v12.1h-3v-9.1h-3l.1-3zm5.9 12.1h8.9v-3h3v6h-11.8l-.1-3zm16.3-24.2h26.6v3h-8.9v3h-2.9v-3H496v-3zm0 15.1h5.9v3H496v-3zm5.9-3h3v3h-3v-3zm5.9 15.1v-15.1h-3v-3h3v-3h3v21.1h-3zm5.9-15.1h5.9v3h-5.9v-3zm5.9 3h3v3h-3v-3zm22.3-6h11.8v3h-5.9v15.1h-3v-3H536v3h-3v-15.1h-5.9v-3h5.9v-6h3v6h3v-9.1h3v3h5.9v3H542l-.1 3.1zm3 6v-3H536v3h8.9zm0 6v-3H536v3h8.9zm14.7 3.1h3v3h-3v-3zm3 0v-6h3v6h-3zm23.6 0h3v3h-3v-3zm3-24.2h20.7v15.1h-20.7v-15.1zm0 21.2h3v3h-3v-3zm3-9.1H607v-9.1h-14.8v9.1zm0 6h3v3h-3v-3zm11.8 0h3v3h-3v-3zm2.9 3h3v3h-3v-3zm3 3h3v3h-3v-3zm7.4-18.1h5.9v-6h3v6h3v6h5.9v-6h3v6h5.9v3h-6v12.2h-5.9v-3h3v-9.1h-5.9v3h-3v-9.1h-3v3h-3v-3h-3l.1-3zm0 6h3v3h-3v-3zm0 15.2v-3h3v3h-3zm3-12.1h3v3h-3v-3zm0 6h3v3h-3v-3zm3-3h3v3h-3v-3zm3 3h3v3h-3v-3zm2.9-21.2H641v6h-3v-3h-8.9l.1-3zm25.2 24.3v3h-3v-15.1h-3v-3h5.9v12.1h3v3h-2.9zm-3-24.2h3v3h-3v-3zm3 3h3v3h-3v-3zm3 21.2h5.9v-24.2h3v9.1h5.9v3h-5.9v12.1h8.7v3h-17.7l.1-3zm0-6.1h3v3h-3v-3zM97.8 758.7h3v-3h3v21.2h-3v-15.1h-3v-3.1zm5.9-3v-6h3v6h-3zm3 6h2.9v-9.1h3v6h3v-9.1h2.9v6h5.9v12.1h-3v-9.1h-3v9.1h-2.9v-6h-3v12.1h-3v-9.1h-2.9l.1-2.9zm5.9 12.1h8.9v-3h3v6h-11.9v-3zm14.7-12.1h11.8v-6h-8.9v-3h8.9v-3h3v3h8.8v3H142v6h12v3h-14.8v6h-3v-6h-8.9v-3zm3.1 12.1h2.9v-3h3v3h8.9v3h-14.9l.1-3zm14.7-6h3v6h-3v-6zm3 6h2.9v3h-3l.1-3zm11.7 0v-3h3v3h-3zm3-6h2.9v3h-3l.1-3zm0 6h2.9v3h-3l.1-3zm3-3h2.9v3h-2.9v-3z" style="fill:#a8a29e"/><path d="M97.8 210.6h8.9v6.1h-3v-3h-5.9v-3.1zm5.9 6v6h-3v-6h3zm11.8-6v3h-3v3h3v-3h2.9v6h-5.9v3h-3v-12h6zm5.9 3v-3h3v3h-3zm0 6h3v3h-3v-3zm3-6h2.9v6h-3l.1-6zm3-3h3v3h-3v-3zm0 9.1h3v3h-3v-3zm-20.7 21.1v3h-3v3h5.9v-6h3v6h5.9v3h-5.9v6h-3v-6h-5.9v3h3v3h-3v6h-5.9v-3h3v-3h-3v-3h3v-3h-3v-3h3v-3h-3v-3h8.9zm0 18.1h5.9v3h-5.9v-3zm5.9-3h3v3h-3v-3zm3-15.1h2.9v3h-2.9v-3zm0 12.1h2.9v3h-2.9v-3zm0 6h2.9v3h-2.9v-3zm6-12.1h5.9v9.1h3v3h-3v3h-2.9v-12h-3v-3.1zm5.9-6v3h-2.9v-3h2.9zm3 3h3v-3h2.9v3h3v3h-5.9v3h5.9v-3h3v6h-3v6h3v3h-5.9v-3h-2.9v-6h-3l-.1-9zm0 15.1h3v3h-3v-3zm8.8-18.1h3v3h-3v-3zm6 6h5.9v12.1h-3v-9.1h-3l.1-3zm0 12.1h3v3h-3v-3zm3-18.1h3v3h-3v-3zm17.7 18.1v3h-14.8v-3h3v-9.1h2.9v-3h-5.9v-3h3v-3h2.9v3h3v-3h2.8v3h3v3H160v3h2.9v9.1h3.1zm-5.9 0v-3h-3v3h3zm17.7-12.1v3h-3v-3h3zm-3 9.1h3v3h-3v-3zm26.6-12.1h-5.9v12.1h-3v-15.1h8.9v3zm3 0h2.9v3h-2.9v-3zm5.9 6.1v-3h2.9v3h2.9v-3h3v3h5.8v3H222v3h-3v-3h-3v3h3v3h5.9v3h-17.7v-9.1h-2.9v-3l6 .1zm-3-9.1h5.9v3h-5.9v-3zm5.9 15.1v-3h-2.9v3h2.9zm0-12.1h2.9v3h-2.9v-3zm2.9-3h5.9v3h-5.9v-3zm5.9 3h3v3h-2.9l-.1-3zm6.1 0h3v3h-3v-3zm5.9 6.1v-3h3v3h3v-3h3v3h5.9v3h-3v3H243v-3h-3v3h3v3h5.9v3h-17.8v-9.1h-3v-3l5.9.1zm-2.9-9.1h5.9v3h-5.9v-3zm5.9 15.1v-3h-3v3h3zm0-12.1h3v3h-3v-3zm3-3h5.9v3H240v-3zm5.9 3h3v3h-3v-3zm8.8 15.1h3v3h-2.9l-.1-3zm5.9-6v6h-3v-6h3zm14.8-3v-3h3v-3h3v12h3v3h-3v3h-3v-12h-3zm5.9-9.1h3v3h-3v-3zm2.9 6h3v3h-3v-3zm0 6h3v3h-3v-3zm3-12.1h3v3h5.8v6.1h-3v-3h-5.9l.1-6.1zm0 18.1h3v-9.1h3v3h2.8v6h-3v3h-5.9l.1-2.9zm20.8-8.9v-3h-6v-3h6v-3h3v3h5.9v3h-6v3h8.9v3h-3v3h-5.9v3h8.9v3H305v-3h3v-6h-8.9v-3h8.9zm-8.9 9h3v3h-3v-3zm3-3h2.9v3h-3l.1-3zm23.7-9.1v9.1h3v3h-5.9v-15.1h8.9v-3h11.8v12.1h-8.9v6h-3v-3h-3v-9.1h-2.9zm11.8 3v-6.1h-3v6.1h3zm-3 9.1h5.9v-3h3v6h-8.9v-3zm14.8-3h3v3h-3v-3zm5.9-3v3h-3v-3h3zm-3 6h3v3h-3v-3zm3-3h3v3h-3v-3zm17.7-9.1v15.1h-8.9v-3h5.9v-12.1h3zm8.9 3.1v-3h3v-3h3v6.1h3v-6.1h3v3h3v-6h3v6h3v6h-3v3h-3v-6h-3v9.1h-3v-6h-3v9.1h-3V250l-3-.1zm5.9-9.1h3v3h-3v-3zm5.9 18.1h5.9v-3h3v6h-8.9v-3zm11.9 0h5.9v-3h-3v-3h-3v-9.1h3v-3h3v3h5.9v-3h8.9v12.1h-3v-3h-3v3h3v3h-3v3h5.9v3h-20.6v-3zm3-12.1v3h5.9v3h3v-6h-8.9zm14.8 0v-3h-3v3h3zm26.6 12.1h-8.9v3h-3v-3h-8.9v-3h8.9v-3h-8.9v-3h3v-3h-3v-3h5.9v-3h3v3H450v3h-8.9v3h5.9v3h-5.9v3h8.9v3zm-11.8-9v-3h-3v3h3zm17.8-3.1v3h-3v-3h3zm-3 12.1h3v3h-3v-3zm3-9h3v-3h-3v-6h3v3h3v12h-3v-3h-3v-3zm0 6h3v3h-3v-3zm8.9-15.1h3v6h3v3h-3v12.1h-3v-21.1zm5.9 9h3v3h-3v-3zm11.9-3v-3h-3v-3h14.8v3h-2.9v3h5.9v3h-3v12.1h-11.8v-9.1h-3v-3h-3v-3h6zm-5.9 6h3v3h-3v-3zm14.8 0v-3h-5.9v3h5.9zm0 6v-3h-5.9v3h5.9zm29.6-18v3h-3v3h-3v-3h-14.7v-3h20.7zm-14.7 18.1h3v-9.1h2.9v12.1h-5.9v-3zm5.9-12.1h3v3h-3v-3zm17.8 0v-3h-3v-3H542v3h-3v3h6v3h-3v12.1h-11.8v-9.1h-3v-3h-3v-3h6zm-5.9 6h3v3h-3v-3zm14.8 0v-3h-5.9v3h5.9zm0 6v-3h-5.9v3h5.9zm11.8.1h3v3h-3v-3zm5.9-6v6h-3v-6h3zm14.8-6.1h5.9v9.1h3v3h-3v3h-3v-12h-3l.1-3.1zm5.9-6v3h-3v-3h3zm3 3h3v-3h3v3h3v3h-5.9v3h5.9v-3h3v6h-3v6h3v3h-5.9v-3h-3v-6h-3l-.1-9zm0 15.1h3v3h-3v-3zm8.8-18.1h3v3h-3v-3zm14.7 6v3h-3v-3h3zm-3 9.1h3v3h-3v-3zm26.7-12.1h-5.9v12.1h-3v-15.1h8.9v3zm11.8-3v3h-3v3h5.9v-6h3v6h5.9v3h-5.9v6h-3v-6h-5.9v3h3v3h-3v6h-5.9v-3h3v-3h-3v-3h3v-3h-3v-3h3v-3h-3v-3h8.9zm0 18.1h5.9v3h-5.9v-3zm5.9-3h3v3h-3v-3zm3-15.1h3v3h-3v-3zm0 12.1h3v3h-3v-3zm0 6h3v3h-3v-3zm26.6-18.1v6h-3v-3h-3v9.1h6v3h-3v3h-3v-3h-3v3h-3v-3h-8.9v-3h3v-3h3v3h5.9v-9.1h-3v3h-3v-3h-5.9v-3H675zm-20.7 6h3v3h-3v-3zm0 12.1h8.9v3h-8.9v-3zm17.7 0h3v3h-3v-3zm-571.2 36.3v3h-3v-3h3zm0-18.2h11.8v18.1h3v-3h2.9v6h-8.9V280h-5.9v15.1h-3l.1-18.1zm23.7 9.1v3h-3v-3h3zm0-3h3v3h-3v-3zm3-3h3v3h-2.9l-.1-3zm2.9-3h3v3h-3v-3zm0 9.1h3v12h-3v-12zm3-6.1h2.9v3h-2.9v-3zm3 3h3v3h-3v-3zm3 3h3v3h-3v-3zm8.8 0v-3h-3v-3h3v-3h2.9v3h3v-3h8.9v3h3v6h-3v3h3v9.1h-6v-3h3v-3h-3v3h-3v3h-2.9v-9.1h-3v9.1h-2.9v-3h-3v-9.1h3zm8.8 0v3h3v-3h-3v-3h-5.9v3h5.9zm20.8 9.1v-6h-8.9v-3h8.9v-3h3v3h8.9v3h-8.9v9.1h-5.9v-3l2.9-.1zm-5.9-18.2h14.8v3h-3v3h-3v-3h-8.9l.1-3zm29.6 3.1v-3h3v3h5.9v3h-5.9v3h8.9v3h-11.9v3h-3v-3h-5.9v-3h8.9v-3h-5.9v-3h5.9zm-5.9 12.1h2.9v3h8.9v3h-11.8v-6zm11.8 0h2.9v3h-3l.1-3zm3 3h3v3h-3v-3zm8.8-3h3v3h-3v-3zm5.9-3v3h-3v-3h3zm-3 6h3v3h-3v-3zm3-3h2.9v3h-2.9v-3zm14.8-6.1v-3h3v-3h3v12.1h2.9v3h-3v3h-3v-12.1h-2.9zm5.9-9.1h2.9v3h-2.9v-3zm3 6.1h2.9v3h-2.9v-3zm0 6h2.9v3h-2.9v-3zm2.9-12.1h3v3h5.9v6h-3v-3h-5.9v-6zm0 18.1h3V286h3v3h3v6h-3v3h-6v-2.9zm17.8-15v-3h3v3h3v-3h3v6h5.9v3h-5.9v3h3v6h3v3h-5.9v-6h-3v-3h-3v3h3v3h-3v3h-5.9v-3h3v-6h-3v-6h-3v-3h5.8zm-5.9 12.1h3v3h-3v-3zm8.8-6v-3h-2.9v3h2.9zm8.9-9.1h3v3h-3v-3zm14.9 3v-3h3v3h8.9v3h-5.9v3h3v3h-3v6h5.9v3h-17.8v-6h-3v-3h3v-3h3v9.1h5.9v-6h-3v-3h3v-3h-3v3h-3v-3h-5.9v-3l8.9-.1zm14.8 3h3v12.1h3v3h-6v-15.1zm14.8-6v9.1h3v3h-3v6h3v-3h3v6h-8.9v-3H317V277h3v6h3v-6l2.8.1zm-3 15.1v-6h-3v6h3zm5.9-12.1h3v6h-3v-6zm9 3v-6h3v6h3v-3h3v3h3v-6h3v6h3v6h-3v3h-3v-6h-3v9.1h-3v-3h-3v3h-5.9v-3h3v-6h-3v-3l2.9-.1zm5.9 6v-3h-3v3h3zm3 6h5.9v-3h3v6h-8.9v-3zm14.7.1h3v3h-3v-3zm5.9-6v6h-3v-6h3zm35.4-12.2v3h-5.9v3h-3v-3H382v-3h20.6zM382 289.1h5.9v3H382v-3zm5.9-3h3v-3h3v15.1h-3v-9.1h-3v-3zm8.9 0h3v3h-3v-3zm2.9 3h3v3h-3v-3zm26.6-12.1v3h-3v6h-8.9v3h11.8v3h-5.9v3h-3v-3h-3v3h3v3h-8.9v-3h3v-3h-5.9v-3h5.9v-3h-3v-6h-3v-3h20.9zm-8.8 6.1v-3h-3v3h3zm2.9 12.1h3v3h-3v-3zm17.8-9.1v-3h-5.9v-3h5.9v-3h3v3h5.9v3h-5.9v3h8.8v3h-3v3h-5.9v3h8.9v3h-14.7v-3h3v-6h-8.9v-3h8.8zm-8.8 9.1h3v3h-3v-3zm2.9-3h3v3h-3v-3zm20.8 3v-3h2.9v-3h-3v-3h8.9v3H459v3h3v3h-8.9zm2.9-15.1h5.9v3H456v-3zm5.9 3h5.9v-6h3v6h3v15.1h-5.9v-3h3v-9.1h-3v9.1h-3v-9.1h-3v-3zm0 12h3v3h-3v-3zm17.7-2.9h3v3h-3v-3zm6-3v3h-3v-3h3zm-3 6h3v3h-3v-3zm3-3h3v3h-3v-3zm17.7-9.1v15.1h-8.9v-3h5.9v-12.1h3zM521 277v3h-3v3h6v-6h3v6h5.9v3H527v6h-3v-6h-5.9v3h3v3h-3v6h-5.9v-3h3v-3h-3v-3h3v-3h-3v-3h3v-3h-3v-3h8.8zm0 18.2h5.9v3H521v-3zm5.9-3h3v3h-3v-3zm3-15.1h3v3h-3v-3zm0 12.1h3v3h-3v-3zm0 6h3v3h-3v-3zm11.9-12.1v-3h-3v-3h14.8v3h-3v3h5.9v3h-3v12.1h-11.7v-9.1h-3v-3h-3v-3h6zm-6 6h3v3h-3v-3zm14.8 0v-3h-5.9v3h5.9zm0 6v-3h-5.9v3h5.9zm8.9-6h3v-3h-3v-3h3v-3h-3v-3h8.9v3h-3v3h3v-3h3v-3h8.9v6h-3v-3h-3v3h3v3h-3v6h3v-6h3v9.1h-5.9v3h-3v-3h-3v-3h-3v3h-3v-3h-3l.1-3.1zm3 6v3h-3v-3h3zm6-6v-3h-3v3h3zm-3 6h3v3h-3v-3zm17.7-12h5.9v12.1h-3v-9.1h-3l.1-3zm0 12.1h3v3h-3v-3zm3-18.2h3v3h-3v-3zm3 18.2H604v3h-14.9l.1-3zm8.8-15.1v-3h3v3h3v12.1h-6v-3h3v-6h-3v6h-3v-6h-3v-3l6-.1zm-5.9 9h3v3h-3v-3zm17.8 6.1v3h-3v-3h3zm0-18.2h14.8v21.2h-5.9v-3h3v-3h-8.9v3h-3V277zm11.8 6.1v-3h-8.9v3h8.9zm0 6v-3h-8.9v3h8.9zm9-6h3v-3h3v3h8.9v3h-14.8v-3h-.1zm17.7 6v9.1h-14.8v-9.1h14.8zM636.6 277h3v3h-3v-3zm8.8 18.1v-3h-8.9v3h8.9zm0-15.1h3v3h-3v-3zm3 3h3v3h-3v-3zm11.9-6v3h3v3h3v3h-3v12.2h-8.9v-15.1h3v3h3v-3h-3v-6l2.9-.1zm0 18.2v-6h-3v6h3zm5.9-18.2h3v3h5.8v18.2h-5.9v-3h3v-12.1h-5.9V277zm0 9.1h3v6h-3v-6zM97.8 331.4v-9.1h3v-3h-3v-3h3v-3h3v3h3v6h2.9v-6h3v6h3v-6h-3v-3h5.9v21.2h-2.9v-9.1h-3v9.1h-3v-9.1h-2.9v6h-3v3h-3v-3h-3zm8.9-18.1h2.9v3h-2.9v-3zm18.4 0h2.9v3h3v3h-3v3h3v3h-3v9.1h-2.9v-3h-3v-9.1h3v-3h-3v-3h3v-3zm5.9 0h3v3h-3v-3zm0 6.1h5.9v-3h3v3h2.9v3H131v-3zm0 12h11.8v3H131v-3zm2.9-6h5.9v3H134l-.1-3zm6-12.1h2.9v3h-2.9v-3zm9.5 6.1v3h-3v-3h3zm-3 12h3v3h-3v-3zm3-9h3v-3h-3v-6h3v3h2.9v12.1h-2.9v-3h-3v-3.1zm0 6h3v3h-3v-3zm8.9-15.1h2.9v6h2.9v3h-2.9v12.1h-2.9v-21.1zm5.9 9h3v3h-3v-3zm15.4-6v-3h3v3h8.9v3h-3v15.1h-3v-3h-5.9v3h-2.9v-6h-3v-6h3v-3h-5.9v-3l8.8-.1zm-8.8 12.1h2.9v3h-2.9v-3zm14.7-6v-3h-5.9v3h5.9zm0 6v-3h-5.9v3h5.9zm12.5 3v3h-2.9v-3h2.9zm0-18.1h11.8v18.1h2.9v-3h2.9v6h-8.8v-18.2H201v15.1h-3v-18zm24.4 9.1v3h-3v-3h3zm0-3h2.9v3h-2.9v-3zm2.9-3h3v3h-3v-3zm3-3h2.9v3h-2.9v-3zm0 9.1h2.9v12.1h-2.9v-12.1zm3-6.1h2.9v3h-2.9v-3zm2.9 3h3v3h-3v-3zm3 3h3v3h-3v-3zm24.2-9.1v3h-5.9v3h8.9v6h-3v-3h-3v6h5.9v3h-3v3h-3v-3h-3v3h-8.9v-3h-3v-3h3v-3h2.9v3h5.9v-6h-3v3h-3v-3h-2.9v-3h5.9v-3h-5.9v-3h15.1zm-17.7 9.1h3v3h-3v-3zm24.3-6.1h6v-3h3v3h11.8v3h-8.9v3h5.9v3h-5.9v9.1H274v-3h3v-6h-6v-6h-3v-3.1zm0 15.1h3v3h-3v-3zm3 0v-3h3v3h-3zm5.9-9v-3H274v3h2.9zm5.9 6h3v3h-3v-3zm2.9 3h3v3h-3v-3zm27.3-18.1v3h-5.9v3h5.9v15.1h-20.6v-15.1h5.9v-3h-5.9v-3H313zm-3 18.1v-3h-5.9v-6h-3v3h-3v-3h-3v3h3v3h-3v3H310zm-5.9-12v-3h-3v3h3zm5.9 6v-3h-3v3h3zm12.6-12.1v3h3v3h3v3h-3v12.1h-8.9v-15h3v3h3v-3h-3v-6h2.9v-.1zm0 18.1v-6h-3v6h3zm5.9-18.1h3v3h5.9v18.1h-5.9v-3h3v-12.1h-5.9l-.1-6zm0 9.1h3v6h-3v-6zm21.4 3v-3H344v-3h3v-3h-3v-3h8.9v3h-3v3h3v-3h3v3h3v3H353v3h8.9v3h-3v6H353v-3h3v-3h-8.9v3H344v-3h-3v-3h8.9zm-8.9-9.1h3v3h-3v-3zm5.9 15.1h3v3h-3v-3zm8.9-18.1h5.9v6h-3v-3h-3l.1-3zm9.5 9.1h5.9v-3h-3v-3h3v-3h3v3h3v-3h3v3h2.9v3h-3v3h6v3h-3v9.1h-11.8v-6h-3v-3h-3v-3.1zm3 6v3h-3v-3h3zm11.8 0v-3h-5.9v3h5.9zm18.4-12.1h-5.9v3h5.9v6h-3v3h3v3h-5.9v3h-3v-21h8.9v3zm2.9 3h3v-3h-3v-3h8.9v3h-3v3h3v9.1h-3v3h-3v-3h-3l.1-9.1zm0 12.1h3v3h-3v-3zm6-6v-3h-3v3h3zm0 6h3v3h-3v-3zm6.6-3v-3h5.9v-3h3v3h3v-3h-3v-3h-6v3H414v-6h8.9v-3h3v3h8.9v6h-3v-3h-3v6h5.9v3h-3v6h-14.8v-6H414zm14.8 3v-3h-8.9v3h8.9zm11.7-3h3v3h-3v-3zm5.9-3v3h-3v-3h3zm-2.9 6h3v3h-3v-3zm2.9-3h3v3h-3v-3zm23.7-6v-3h-5.9v-3h5.9v-3h2.9v3h5.9v3H473v3h8.9v3h-3v3H473v3h8.9v3h-14.8v-3h3v-6h-8.9v-3h8.9zm-8.9 9h3v3h-3v-3zm3-3h3v3h-3v-3zm21.3-3h5.9v-3h-5.9v-3h3v-3h-3v-3h14.8v3h-3v6h-3v3h3v6h-5.9v-3h-5.9v-3zm0 6h5.9v3h-5.9v-3zm8.9-12.1v-3h-3v3h3zm8.8 0v-6h3v21.2h-5.9v-3h3v-3h-3v-9.1l2.9-.1zm6.6 6.1h2.9v-3h-3v-3h3v-3h-3v-3h8.9v3h-3v3h3v-3h3v-3h8.9v6h-3v-3h-3v3h3v3h-3v6h3v-6h3v9.1h-5.9v3h-3v-3h-2.9v-3h-3v3h-3v-3h-3l.1-3.1zm3 6v3h-3v-3h3zm5.9-6v-3h-3v3h3zm-3 6h3v3h-3v-3zm18.5-12h5.9v12.1h-3v-9.1h-3l.1-3zm0 12h3v3h-3v-3zm3-18.1h3v3h-3v-3zm2.9 18.1h14.8v3h-14.8v-3zm8.9-15.1v-3h3v3h3v12.1h-5.9v-3h3v-6h-3v6H546v-6h-3v-3l6-.1zm-6 9.1h3v3h-3v-3zm18.4 6v3h-3v-3h3zm0-18.1h14.8v21.2h-5.9v-3h3v-3h-8.9v3h-3v-18.2zm11.8 6.1v-3h-8.9v3h8.9zm0 6v-3h-8.9v3h8.9zm9.6-6h3v-3h3v3h8.9v3h-14.9v-3zm17.7 6v9.1h-14.8v-9l14.8-.1zm-11.8-12.1h3v3h-3v-3zm8.9 18.1v-3h-8.9v3h8.9zm0-15.1h3v3h-3v-3zm3 3h3v3h-3v-3zm8.8 12.1h3v3h-3v-3zm5.9-6v6h-3v-6h3zm14.7-9.1h3v3h-3v-3zm0 6.1h3v3h-3v-3zm0 9h3v3h-3v-3zm6-18.1v3h-3v-3h3zm-3 6.1h3v3h-3v-3zm0 6h3v6h-3v-6zm5.9-6h3v-3h-3v-3h11.8v3h-5.9v3h5.9v9.1h-3v-6h-5.9v3h3v6h-3v-3h-3l.1-9.1zm0 12h3v3h-3v-3zm8.9 0h3v3h-3v-3zm15.4-15.1v-3h3v3h8.8v6h-3v-3h-3v3h-8.9v-3h-3v3h-3v-6h9.1zm-8.8 9.1h3v-3h3v3h8.9v-3h3v3h3v3h-3v6h-5.9v-3h3v-3h-5.9v3h-3v-3h-5.9l-.2-3zm0 6h5.9v3h-5.9v-3zM97.8 355.6h5.9v12.1h-3v-9.1h-3l.1-3zm0 12.1h3v3h-3v-3zm3-18.1h3v3h-3v-3zm11.8 15.1v-9.1h-5.9v-3h5.9v-3h3v3h2.9v3h-2.9v12.1h2.9v3h-14.9v-3h5.9v-3h3.1zm-5.9-6h2.9v3h-2.9v-3zm15.5 6v-3h3v-3h-3v-6h3v3h3v-3h3v-3h2.8v3h3v-3h2.9v3h2.9v3h-2.9v3h2.9v3h-2.9v3H137v-3h-5.9v-3h5.9v-3h-5.9v3h-3v6h3v3h-3v3h-3v-6h-2.9zm3-15.1h3v3h-3v-3zm5.9 18.1h2.9v3h-2.9v-3zm3-3h3v3h-3v-3zm5.9 0h2.9v6H140v-6zm6.6-9.1h5.9v12.1h-3v-9.1h-2.9v-3zm0 12.1h2.9v3h-2.9v-3zm3-18.1h3v3h-3v-3zm17.7 18.1v3h-14.8v-3h3v-9.1h3v-3h-5.9v-3h3v-3h3v3h2.9v-3h3v3h2.9v3h-5.9v3h3v9.1h2.8zm-5.9 0v-3h-2.9v3h2.9zm11.8 0h3v3h-3v-3zm5.9-6v6h-2.9v-6h2.9zm14.8-9.1h3v3h-3v-3zm0 6h3v3h-3v-3zm0 9.1h3v3h-3v-3zm5.9-18.2v3h-2.9v-3h2.9zm-3 6.1h2.9v3h-2.9v-3zm0 6h2.9v6h-2.9v-6zm5.9-6h3v-3h-3v-3h11.8v3h-5.9v3h5.9v9.1h-3v-6h-5.9v3h2.9v6h-2.9v-3h-3l.1-9.1zm0 12.1h3v3h-3v-3zm8.9 0h3v3h-3v-3zm15.5-18.1v6h-2.9v-3h-3v3h3v3h2.9v3h-2.9v3h2.9v3h-2.9v3h-5.9v-9.1h2.9v-3h-2.9v-9.1l8.8.2zm0 12.1h3v-3h-3v-3h3v-3h3v-3h3v6h2.9v3h-3v3h2.9v3H236v3h2.9v3H233v-3h-3v-3h-3l.1-3zm0 6h3v3h-3v-3zm36.2-18.1v3h-8.9v18.1h-2.9v-18.1h-8.9v-3h20.7zm-5.9 9h3v3h-3v-3zm3 3h3v3h-3v-3zm15.5-9v-3h3v3h5.9v3h-5.9v3h8.9v3H276v3h-3v-3h-6v-3h8.9v-3H270v-3h5.9zm-5.9 12.1h3v3h8.9v3H270v-6zm11.8 0h3v3h-3v-3zm3 3h3v3h-3v-3zm6.7 0h5.9v3h-5.9v-3zm17.7-18.1v9.1h-3v-6h-11.8v-3l14.8-.1zm-14.8 6h3v3h-3v-3zm3 3h3v3h-3v-3zm0 6h3v3h-3v-3zm3-3h3v3h-3v-3zm2.9-3h3v3h-3v-3zm0 6h3v3h-3v-3zm3 3h5.9v3h-5.9v-3zm12.5-15v-3h5.9v3h-3v12.1h-3v6h-3v-18.1h3.1zm3 12.1h3v3h-3v-3zm3-12.1h3v3h3v-3h-3v-3h8.9v9.1h-8.9v3h8.9v3h-11.9v-12.1zm0 15.1h11.8v3h-11.9l.1-3zm24.3 0v-18.1h3v6h5.9v3h-5.9v9.1h8.9v3h-20.7v-3h8.8zm24.4-15.1v-3h3v3h5.9v3h-5.9v3h8.9v3h-11.9v3h-3v-3h-5.9v-3h8.9v-3h-5.9v-3h5.9zm-5.9 12.1h3v3h8.9v3h-11.8v-6h-.1zm11.8 0h3v3h-3v-3zm3 3h3v3h-3v-3zm8.8-3h3v3h-3v-3zm5.9-3v3h-2.9v-3h2.9zm-2.9 6h3v3h-2.9l-.1-3zm2.9-3h3v3h-3v-3zm17.8-9.1v3h-3v-3h3zm-3 12.1h5.9v3h-5.9v-3zm3-15.1h3v3h-3v-3zm3-3h3v3h-3v-3zm0 6h3v6h-3v-6zm0 9.1h3v3h-3v-3zm2.9-3h3v3h-3v-3zm3-12.1h3v3h-3v-3zm0 6.1h3v6h-3v-6zm0 9h3v3h-3v-3zm3-12.1h3v3h-3v-3zm0 15.1h5.9v3h-5.9v-3zm3-12h3v3h-3v-3zm15.4 12v-3h-5.9v-3h-3v-3h5.9v-3h-3v-3h5.9v-3h3v3h5.9v3h-3v3h6v3h-3v3h-5.9v6h-5.9v-3h3zm-8.9 0h3v3h-3v-3zm11.8-9.1v-3h-3v3h3zm3 9.1h5.9v3h-5.9v-3zm27.3-18.1v9.1h3v3h-3v3h-5.9v3h8.9v3h-14.8v-3h3v-6h-8.9v-3h3v-9.1h14.7zm-17.7 18.1h3v3h-3v-3zm3-3h3v3h-3v-3zm11.8-6v-3h-8.9v3h8.9zm30.3-.1v3h-20.7v-3h20.7zm6.7 0v3h-3v-3h3zm0-3h3v3h-3v-3zm2.9-3h3v3h-3v-3zm3-3h3v3h-3v-3zm0 9.1h3v12.1h-3v-12.1zm3-6h3v3h-3v-3zm3 3h3v3h-3v-3zm3 3h3v3h-3v-3zm12.4-9.1v3h-3v3h3v-3h3v9.1h5.9v-3h-3v-3h3v-6h5.9v3h-3v3h3v3h-3v3h3v3h-3v6h-3v-6h-5.9v6h-3v-6h-3v6h-3v-21.1h6.1zm0 12.1v-3h-3v3h3zm3-12.1h3v3h-3v-3zm24.4 18.1v-6h-8.9v-3h8.9v-3h3v3h8.8v3h-8.9v9.1h-5.9v-3l3-.1zm-5.9-18.1H576v3h-3v3h-3v-3h-8.9l.2-3zm23.6 18.1h3v3h-3v-3zm5.9-6v6h-3v-6h3zm23.6-3.1v-3h-5.9v-3h5.9v-3h3v3h5.9v3h-5.9v3h8.9v3h-3v3h-5.9v3h8.9v3h-14.8v-3h3v-6h-8.9v-3h8.8zm-8.8 9.1h3v3h-3v-3zm2.9-3h3v3h-3v-3zm21.5-9.1h5.9v12.1h-3v-9.1h-3l.1-3zm0 12.1h3v3h-3v-3zm3-18.1h3v3h-3v-3zm11.8 15.1v-9.1h-5.9v-3h5.9v-3h3v3h3v3h-3v12.1h3v3h-14.9v-3h5.9v-3h3zm-5.9-6h3v3h-3v-3zm24.3-6.1v-3h3v3h5.9v3h-5.9v3h8.8v3h-11.8v3h-3v-3h-5.9v-3h8.9v-3h-5.9v-3h5.9zm-5.9 12.1h3v3h8.9v3h-11.8l-.1-6zm11.8 0h3v3h-3v-3zm3 3h3v3h-3v-3zm-571.3 21.2h3v3h5.9v-3h5.9V407h-14.8v-18.1zm8.8 0h-5.9v-3h5.9v3zm3 9v-3h-8.9v3h8.9zm0 6v-3h-8.9v3h8.9zm8.8-15h3v3h-3v-3zm0 9h5.9v3h-5.9v-3zm0 6h3v3h-3v-3zm20.7-9h-5.9v3h-3v-3h-2.9v3h-3v-3h-2.9v-3h2.9v-3h-2.9v-3h5.9v6h2.9v-6h3v6h5.9v3zm-14.8 9.1h3v3h-3v-3zm3.1-6h2.9v3h-2.9v-3zm2.9 6h3v3h-3v-3zm3-6h5.9v3h-5.9v-3zm3-12.1h3v3h-3v-3zm0 18.1h3v3h-3v-3zm26.5-18.2v3h-2.9v6H154v3h11.8v3h-5.9v3h-3v-3H154v3h2.9v3H148v-3h3v-3h-5.9v-3h5.9v-3h-3v-6h-3v-3h20.8zm-8.9 6.1v-3H154v3h2.9zm3 12.1h3v3h-3v-3zm11.8-6.1h3v-3h-6v-3h5.9v-3h-3v-3h14.8v6h3v6h-3v-3h-2.9v3h2.9v6h3v3h-8.9v-3h2.9v-3h-2.9v3h-3v-3h-2.9v3h2.9v3h-8.8v-3h3v-6zm8.8-6v-3h-3v3h3zm0 6v-3h-3v3h3zm20.7 3v-3h-8.9v-3h2.9v-3h-2.9v-3h8.9v-3h2.9v3h8.9v3h-2.9v6h2.9v3h-2.9v3h-5.9v3h-5.9v-3h-5.9v-3h8.8zm0-6v-3h-2.9v3h2.9zm5.9 0v-3h-3v3h3zm0 6v-3h-3v3h3zm8.9-12h2.9v6h3v-9.1h2.9v3h3v-3h3v3h3v3h-3v3h-3v-3h-3v3h3v3h3v-3h5.9v3h-2.9v3h-14.9v-3H216v-8.9zm20.6 15.1v3H216v-3h20.6zm-2.9-18.1h2.9v3h-2.9v-3zm8.8 15h3v3h-3v-3zm5.9-3v3h-3v-3h3zm-3 6h3v3h-3v-3zm3-3h3v3h-3v-3zm23.7-15.1v3h-3v3h5.9v-6h3v6h5.9v3H278v6h-3v-6h-5.9v3h3v3h-3v6.2h-5.9v-3h3v-3h-3v-3h3v-3h-3v-3h3v-3h-3v-3l8.9-.2zm0 18.2h5.9v3h-5.9v-3zm5.9-3h3v3h-3v-3zm2.9-15.1h3v3h-3v-3zm0 12h3v3h-3v-3zm0 6h3v3h-3v-3zm14.8-15v-3h3v3h8.9v3h-5.9v3h-3v6h3v3h-3v3h-3v-3h-3v-3h3v-6h-3v-3h-5.9v-3h8.9zm-8.9 12h3v3h-3v-3zm3-6h3v6h-3v-6zm11.9 0h3v6h-3v-6zm2.9 6h3v3h-3v-3zm14.7-12v-3h3v3h8.9v3h-3v3h3v3h-5.9v3h-3v6.1h-3v-6h-3v-3h-5.9v-3h3v-3h-3v-3l8.9-.1zm-8.8 12h5.9v3h-5.9v-3zm8.8-6v-3h-3v3h3zm5.9 0v-3h-3v3h3zm0 6h5.9v3h-5.9v-3zm29.6-15.1v3h-3v6H343v3h11.8v3h-5.9v3h-3v-3h-3v3h3v3H337v-3h2.9v-3H334v-3h5.9v-3h-3v-6H334v-3h20.8zm-8.9 6.1v-3h-3v3h3zm3 12.1h3v3h-3v-3zm17.7-15.1v-3h3v3h5.9v3h-5.9v3h8.9v3h-11.9v3h-3v-3h-5.9v-3h8.9v-3h-5.9v-3h5.9zm-5.9 12h3v3h8.9v3h-11.8v-6h-.1zm11.8 0h3v3h-3v-3zm3 3h3v3h-3v-3zm11.8-18.1v3h3v3h3v3h-3V407h-8.9v-15.1h3v3h3v-3h-3v-6l2.9-.1zm0 18.2v-6h-3v6h3zm5.9-18.2h3v3h5.9V407h-5.9v-3h3v-12.1h-5.9l-.1-6.1zm0 9.1h3v6h-3v-6zm14.7 9.1h3v3h-3v-3zm5.9-6v6h-3v-6h3zm14.8-3.1v-3h3v-3h3v6h3v-6h3v3h3v-6h3v6h3v6h-3v3h-3v-6h-3v9.1h-3v-6h-3v9h-3v-12.1h-3zm5.9-9.1h3v3h-3v-3zm5.9 18.2h5.9v-3h3v6h-8.9v-3zm32.5-18.2v3H467v3h-3v-3h-11.8v-3h20.7zm-20.7 12.1h5.9v3h-5.9v-3zm5.9-3h3v-3h3V407h-3v-9.1h-3v-3zm8.9 0h3v3h-3v-3zm3 3h3v3h-3v-3zm8.8-6v-6h3v6h3v-6h8.9v3h-5.9v3h8.9v3h-3V407h-5.9v-3h3v-3h-3v-3h3v-3h-3v3h-5.9v3h5.9v3h-5.9v3h-3v-12.1h-3v-3h2.9zm23.7 12.1h3v3h-3v-3zm5.9-6v6h-3v-6h3zm14.7 6h3v3h-3v-3zm17.7-18.1V398H526v-12.1h14.8zM526.1 401h2.9v3h-3l.1-3zm11.8-6v-6H529v6h8.9zm0 6h3v3h-3v-3zm3 3h3v3h-3v-3zm5.9-12.1h3v-6h3v6h3v3h5.9v-3h3v3h3v3h-3v9.1h-5.9v-3h3v-6h-5.9v3h-3v-6h-3v6h-3l-.1-9.1zm0 12.1h3v3h-3v-3zm3 0v-3h3v3h-3zm3 0h3v3h-3v-3zm3-18.2h11.8v6h-3v-3h-8.9v-3h.1zm14.6 6.1h5.9v9.1h3v3h-3v3h-3v-12h-3l.1-3.1zm5.9-6.1v3h-3v-3h3zm3 18.2h3v-18.1h3v6h5.9v3h-5.9v9.1h5.9v3h-11.9v-3zm14.7-9.1v-3h3v-3h3v6h3v-6h3v3h3v-6h3v6h3v6h-3v3h-3v-6h-3v9.1h-3v-6h-3v9h-3v-12.1h-3zm5.9-9.1h3v3h-3v-3zm5.9 18.2h5.9v-3h3v6h-8.9v-3zm20.7-15.1v-3h3v3h5.9v3h-5.9v3h8.9v3h-11.9v3h-3v-3h-5.9v-3h8.9v-3h-5.9v-3h5.9zm-5.9 12h3v3h8.9v3h-11.8l-.1-6zm11.8 0h3v3h-3v-3zm3 3h3v3h-3v-3zm8.8-3h3v3h-3v-3zm5.9-3v3h-3v-3h3zm-3 6h3v3h-3v-3zm3-3h3v3h-3v-3zm337.1-102.8h6.3v-25.2h-6.3v25.2zm-18.9 6.3h6.3v-6.3h6.3v-25.2h-6.3v12.6h-6.3v18.9zm-6.3-25.2h6.3v-6.3H962v6.3zm-12.6 6.3h6.3v-6.3h-6.3v6.3zm-44.1 0h6.3v-6.3h-6.3v6.3zm-6.3-12.6h6.3v-6.3h63V254H962v6.3h-6.3V254h-18.9v6.3h-25.2V254H899v18.9zm0 31.5h25.2v-6.3H962v-12.6h-6.3v6.3h-12.6v-6.3h-12.6v6.3h-6.3v-6.3h-6.3v12.6h-12.6v-6.3H899v12.6zm-12.6-37.8h6.3v-25.2h-6.3v25.2zm0 31.5h6.3v-25.2h-6.3v25.2zm-18.9 6.3h6.3v-6.3h6.3v-25.2h-6.3v12.6h-6.3v18.9zm-18.9-18.9h6.4v-6.3h-6.3l-.1 6.3zm-6.3-18.9h37.8v-25.2h-6.3v18.9h-6.3v-12.6h-6.3v12.6H855V254h-12.6l-.1 12.6zm0 44.1h6.3v-6.3h-6.3v6.3zm-12.6 0h6.3v-6.3h-6.3v6.3zm-12.6-6.3h6.3v-6.3h37.8v-12.6H855v6.3h-12.6v-6.3h-6.3v6.3h-6.3v-6.3h-12.6l-.1 18.9zm182.7 138.5h6.3v-31.5h-6.3v31.5zm-25.2 6.3h6.3v-6.3h12.6v-31.5h-6.3v25.2h-6.3v-6.3h-6.3v18.9zm-6.3-31.5h6.3v-6.3h-6.3v6.3zm0 37.8h6.3v-6.3h-6.3v6.3zm-12.6-25.2h6.3V424h-6.3v6.3zm-37.8 18.9h6.3v-6.3h44.1v-12.6H962v6.3h-12.6V424h-12.6v6.3h6.3v6.3h-6.3v-6.3h-6.3v6.3h-6.3v-6.3h-6.3v18.9zm-12.6-18.9h6.3V424h-6.3v6.3zm-6.3 25.2h18.9v-6.3H899v6.3zm-6.3-37.8h6.3v-12.6h75.5v-18.9h-6.3v12.6h-12.6v-6.3h-6.3v6.3H943v-6.3h-6.3v6.3h-6.3v-6.3h-6.3v6.3h-12.6v-12.6H899v6.3h6.3v6.3H899v-6.3h-6.3v25.2zm0 31.5h6.3v-12.6h-6.3v12.6zm-12.6-44.1h6.3v-31.5h-6.3v31.5zm0 37.8h6.3v-31.5h-6.3v31.5zm-25.1 6.3h6.3v-6.3h12.6v-31.5h-6.3v25.2h-6.3v-6.3H855v18.9zm-6.3 6.3h6.3v-6.3h-6.3v6.3zm-12.6-25.2h6.3V424h-6.3v6.3zm-6.3-25.2h44.1v-31.5h-6.3v25.2h-6.3v-18.9H855v18.9h-6.3v-12.6h-12.6v6.3h6.3v6.3h-6.3v-6.3h-6.3v12.6zm0 50.4h6.3v-6.3h-6.3v6.3zm-12.6 0h6.3v-6.3h-6.3v6.3zm-18.9 0h6.3v-12.6h44.1v-12.6h-6.3v6.3h-12.6v-6.3h-6.3v6.3h-6.3V424h-12.6v6.3h6.3v6.3h-6.3v-6.3h-6.3v25.2zm271.6-66.3h5.9v5.9h-5.9v-5.9zm23.7-6h-17.7v6h11.8v5.9h-11.8v5.9h17.7v-11.8h5.9v-6h-5.9zm5.9 11.9v11.8h5.9v-17.7h-5.9v5.9zm0 41.3h5.9v-11.8h-5.9v11.8zm0 53.2v5.9h5.9v-17.7h-5.9v11.8zm-11.8 5.9h-17.8v6h29.6v-6h-11.8zm-23.7-5.9h-5.9v5.9h11.8v-5.9h-5.9zm23.7-82.7h-11.8v5.9h11.8v23.6h-11.8v6h11.8v5.9h-11.8v5.9h11.8v5.9h-11.8v5.9h11.8v17.7h-11.8v5.9h17.7v-11.8h5.9v-5.9h-5.9v-17.7h5.9v5.9h5.9v-11.8h-11.8v-5.9h5.9v-6h-5.9v-11.8h5.9v-5.9h-5.9v-5.9h5.9v-5.9h-11.8zm-23.7 5.9v5.9h11.9v-5.9H1064zm11.9 59.1h-6v11.8h6v-11.8zm65-206.8h5.9v5.9h-5.9v-5.9zm35.4-23.7h-5.9v5.9h-23.6v5.9h11.8v5.9h-11.8v6h11.8v5.9h-11.8v5.9h11.8v5.9h-11.8v5.9h11.8v5.9h-11.8v5.9h23.6v-5.9h-5.9v-41.4h11.8v-11.8zm0 11.8v11.9h5.9v-11.9h-5.9zm-35.4 47.3h5.9v5.9h-5.9v-5.9zm-5.9 11.8h5.9v5.9h-5.9v-5.9zm23.6 0h-11.8v5.9h11.8v6h-11.8v5.9h11.8v5.9h-11.8v5.9h11.8v5.9h-11.8v5.9h11.8v5.9h5.9v-41.4h5.9v-5.9h-11.8zm11.8 0h5.9v-11.8h-5.9v11.8zm-35.4 11.9h5.9v5.9h-5.9v-5.9zm11.8 35.4v5.9h11.8v-5.9h-11.8zm35.4-5.9v-5.9h-5.9v11.8h5.9v-5.9zm-41.3-11.8h5.9v5.9h-5.9v-5.9zm23.6 29.5h11.8v-11.8h-5.9v5.9h-11.8v5.9h5.9zM1064 253.2h5.9v5.9h-5.9v-5.9zm29.6 41.4v-47.3h-23.7v5.9h6v5.9h-6v6h11.9v-11.9h5.9V271h-11.8v5.9h11.8v11.8h-11.8v5.9h11.8v5.9h-11.8v5.9h17.7v-11.8zm-29.6-17.7v5.9h11.9v-5.9H1064zm35.5 35.4v-5.9h-5.9v11.8h-17.7v6h11.8v5.9h5.9v-5.9h5.9v-11.9zm-29.6-5.9h5.9v5.9h-5.9v-5.9zm0 17.8h5.9v5.9h-5.9v-5.9zm17.8 11.8h-11.8v5.9h11.8v17.7h-5.9v5.9h11.8v-23.6h5.9V336h-11.8zm-23.7 5.9v5.9h11.9v-5.9H1064zm35.5-11.8v5.9h5.9v-11.8h-5.9v5.9zM935.1 619.5h4.9v-9.7h-4.8l-.1 9.7zm-4.8-9.7h4.8V605h-4.8v4.8zm-4.8 4.9h4.8v-4.8h-4.8v4.8zm0 14.5H940v-4.8h-4.8v-4.8h-4.8v4.8h-4.8l-.1 4.8zm-9.7 0h4.8v-19.3h-4.8v19.3zm-4.8-19.4h4.8V605H911v4.8zm-4.8 14.5h4.8v-14.5h-4.8v14.5zm-9.7 4.9h9.7v-4.8h-9.7v4.8zm-4.8-4.9h4.8v-14.5h-4.8v14.5zm-4.9-14.5h4.8V605h-4.8v4.8zm-4.8 19.4h4.8v-19.3H882v19.3zm-4.8-19.4h4.8V605h-4.8v4.8zm-4.9 19.4h4.8v-19.3h-4.8v19.3zm-9.7 33.8h4.8v-53.2h-4.8V663zm-4.8-53.2h4.8V605h-4.8v4.8zm-4.8 19.4h4.8v-19.3H853v19.3zm-4.8-19.4h4.8V605h-4.8v4.8zm-4.9 19.4h4.8v-19.3h-4.8v19.3zm-9.6 0h4.8v-19.3h-4.8v19.3zm-4.9-19.4h4.8V605h-4.8v4.8zm-4.8 19.4h4.8v-19.3H824v19.3zm-4.8-19.4h4.8V605h-4.8v4.8zm-4.9 14.5h4.8v-14.5h-4.8v14.5zm-9.6 4.9h9.7v-4.8h-9.7v4.8zm-4.9-4.9h4.8v-14.5h-4.8v14.5zm-4.8-14.5h4.8V605H795v4.8zm-4.8 0v19.3h4.8v-19.3h-4.8zm159.4 9.7h4.8v-9.7h-4.8v9.7zm-4.8-9.7h4.8V605h-4.8v4.8zm9.7 14.5h-9.7v4.8h14.5v-9.7h-4.8v4.9zm232 4.9h4.8v-19.3h-4.8v19.3zm-4.8-19.4h4.8V605h-4.8v4.8zm-4.9 14.5h4.8v-14.5h-4.8v14.5zm-9.6 4.9h9.7v-4.8h-9.7v4.8zm-4.9-4.9h4.8v-14.5h-4.8v14.5zm-4.8-14.5h4.8V605h-4.8v4.8zm-4.8 19.4h4.8v-19.3h-4.8v19.3zm-4.9-19.4h4.8V605h-4.8v4.8zm-4.8 19.4h4.8v-19.3h-4.8v19.3zm-9.7 24.1h4.8V605h-4.8v48.3zm-14.5-43.5h4.8V605h-4.8v4.8zm0 53.2h9.7v-4.8h4.8v-4.8h-4.8v-43.5h-4.8v48.3h-4.8l-.1 4.8zm-4.8-33.8h4.8v-19.3h-4.8v19.3zm-9.7-19.4h9.7V605h-9.7v4.8zm-14.5 19.4h4.8v-4.8h4.8v4.8h9.7v-9.7h-4.8v-9.7h-4.8v9.7h-4.8v-9.7h-4.8l-.1 19.4zm-4.8-19.4h4.8V605h-4.8v4.8zm-4.8 19.4h4.8v-19.3h-4.8v19.3zm-9.7 0h4.8v-19.3h-4.8v19.3zm0 29h4.8v-19.3h-4.8v19.3zm-4.8-48.4h4.8V605h-4.8v4.8zm-9.7 19.4h9.7v-19.3h-4.8v14.5h-4.8l-.1 4.8zm0 14.5h4.8v-4.8h-4.8v4.8zm-4.8 4.8h4.8v-4.8h-4.8v4.8zm-4.9-9.7h9.7V634h-9.7v4.8zm0 24.2h24.2v-4.8h-24.2v4.8zm-4.8-33.8h9.7v-4.8h4.8v-4.8h-4.8v-9.7h-4.8v9.7h-4.8l-.1 9.6zm0 29h4.8v-19.3h-4.8v19.3zm-4.8-48.4h9.7V605h-9.7v4.8zm-4.9 19.4h4.8v-19.3h-4.8v19.3zm-9.6 0h4.8v-19.3h-4.8v19.3zm-4.9-19.4h4.8V605h-4.8v4.8zm-4.8 19.4h4.8v-19.3h-4.8v19.3zm-4.8-19.4h4.8V605h-4.8v4.8zm-4.9 14.5h4.8v-14.5h-4.8v14.5zm-9.6 4.9h9.7v-4.8h-9.7v4.8zm-4.9-4.9h4.8v-14.5h-4.8v14.5zm-4.8-14.5h4.8V605h-4.8v4.8zm-4.8 0v19.3h4.8v-19.3h-4.8zM1172 721h4.8v-4.8h-4.8v4.8zm-9.7-9.7h4.8v-4.8h-4.8v4.8zm-9.6-9.6h4.8v-4.8h-4.8v4.8zm-4.9 4.8h4.8v-4.8h-4.8v4.8zm0 9.7h14.5v-4.8h-14.5v4.8zm0 9.6h24.2V721h-24.2v4.8zm-9.6 0h4.8v-24.2h-4.8v24.2zm-9.7 33.9h4.8v-53.2h-4.8v53.2zm-4.8-53.2h4.8v-4.8h-4.8v4.8zm-4.9 43.5h4.8v-43.5h-4.8V750zm-4.8 4.8h4.8V750h-4.8v4.8zm-4.8-29h4.8v-19.3h-4.8v19.3zm-4.9-19.3h4.8v-4.8h-4.8v4.8zm-4.8 14.5h4.8v-14.5h-4.8V721zm-4.8 24.2h4.8v-4.8h-4.8v4.8zm0 14.5h19.3v-4.8h-19.3v4.8zm-4.9-33.9h9.7V721h-9.7v4.8zm0 29h4.8v-9.7h-4.8v9.7zM1085 721h4.8v-14.5h-4.8V721zm-4.8-14.5h4.8v-4.8h-4.8v4.8zm-4.9 19.3h4.8v-19.3h-4.8v19.3zm-9.6 0h4.8v-19.3h-4.8v19.3zm0 29h4.8v-19.3h-4.8v19.3zm-4.9-48.3h4.8v-4.8h-4.8v4.8zm-4.8 19.3h4.8v-19.3h-4.8v19.3zm-4.8 14.5h4.8v-4.8h-4.8v4.8zm-4.9-33.8h9.7v-4.8h-9.7v4.8zm0 14.5h4.8v-9.7h-4.8v9.7zm0 24.2h4.8v-4.8h-4.8v4.8zm-4.8-33.9h4.8v-4.8h-4.8v4.8zm0 24.2h9.7v-4.8h-9.7v4.8zm0 24.2h24.2v-4.8h-24.2v4.8zm-4.8-33.9h9.7V721h-9.7v4.8zm0 29h4.8v-19.3h-4.8v19.3zm-4.9-33.8h4.8v-14.5h-4.8V721zm-4.8-14.5h4.8v-4.8h-4.8v4.8zm-4.8 19.3h4.8v-19.3h-4.8v19.3zm-9.7 33.9h4.8v-53.2h-4.8v53.2zm-4.8-53.2h4.8v-4.8h-4.8v4.8zm-4.9 19.3h4.8v-19.3h-4.8v19.3zm-4.8-19.3h4.8v-4.8H998v4.8zm-4.8 19.3h4.8v-19.3h-4.8v19.3zm-9.7 0h4.8v-19.3h-4.8v19.3zm-4.8-19.3h4.8v-4.8h-4.8v4.8zm-4.9 19.3h4.8v-19.3h-4.8v19.3zm-4.8-19.3h4.8v-4.8H969v4.8zm-4.8 4.8h4.8v-4.8h-4.8v4.8zm-4.9-24.1h9.7v-4.8h-9.7v4.8zm0 9.6h14.5v-9.7H969v4.8h-9.7v4.9zm0 9.7h4.8v-4.8h-4.8v4.8zm-4.8-14.5h4.8v-4.8h-4.8v4.8zm0 19.3h4.8v-4.8h-4.8v4.8zm-4.9 14.5h9.7v-9.7h-4.8v4.8h-4.8l-.1 4.9zm-4.8-4.8h4.8v-14.5h-4.8V721zm-4.8-14.5h4.8v-4.8H940v4.8zm-4.8 19.3h4.8v-19.3h-4.8v19.3zm-9.7 0h4.8v-19.3h-4.8v19.3zm-4.8-19.3h4.8v-4.8h-4.8v4.8zm-4.9 19.3h4.8v-19.3h-4.8v19.3zm-9.6-19.3h9.7v-4.8h-9.7v4.8zm-4.9-19.3h9.7v-4.8h-9.7v4.8zm0 9.6h14.5v-9.7H911v4.8h-9.7v4.9zm-4.8-4.8h4.8v-4.8h-4.8v4.8zm-4.9 33.8h4.8V721h4.8v4.8h9.7v-9.7h-4.8v-9.7h-4.8v9.7h-4.8v-9.7h-4.8l-.1 19.4zm-4.8-19.3h4.8v-4.8h-4.8v4.8zm-4.8 19.3h4.8v-19.3H882v19.3zm-9.7 0h4.8v-19.3h-4.8v19.3zm-4.8-29h9.7V692h-9.7v4.8zm-4.8 9.7h9.7v-4.8h-9.7v4.8zM853 721h4.8v4.8h9.7v-9.7h-4.8v-9.7h-4.8v9.7H853v4.9zm-4.8-33.8h9.7v-4.8h-9.7v4.8zm0 9.6h14.5v-9.7h-4.8v4.8h-9.7v4.9zm-4.9-4.8h4.8v-4.8h-4.8v4.8zm-4.8 14.5h4.8v19.3h9.7V721h-4.8v-14.5h4.8v-4.8h-14.5v4.8zM824 725.8h4.8v-24.2H824v24.2zm-9.7-19.3h4.8v-4.8h-4.8v4.8zm-4.8-4.8h4.8v-4.8h-4.8v4.8zm-4.8 14.5h14.5v-4.8h-14.5v4.8zm-4.9-4.9h4.8v-4.8h-4.8v4.8zm-4.8 14.5h24.2V721H795v4.8zm-4.9-4.8h4.9v-4.8h-4.8l-.1 4.8zm43.5-14.5v19.3h4.8v-19.3h-4.8z" style="fill:#fbfbfb"/></svg>