<svg xmlns="http://www.w3.org/2000/svg" viewBox="0 0 1280 960"><path d="M418.4 194.7c-.1-.7.4-1.4 1.1-1.5h.4c2.3 0 9.8 2.6 9.8 4.6 0 1-1.3 2.2-2.8 3.2v8.7h28.6c2.2-2.4 4.5-4.6 7-6.7.9-.8 2.2-.8 3.2 0 2.2 1.6 4.2 3.4 6 5.5.8.7.8 1.9 0 2.7-1.3 1-3 1.6-4.7 1.6h-17.7c2.5 1.2 4.9 2.8 4.9 3.9s-1.6 1.7-3.7 2.3c-4.6 11.9-11.9 22.5-21.4 31 13 8.3 28.5 12.5 44.5 15v1.8c-4.4 1.7-4.8 2.3-5.5 4.2-.9 2.6-3.1 2.8-8.2 1.5-12.3-3.2-25.3-8.7-36.5-17.8-13.3 9.8-30.1 16-49.5 19.3l-.7-2.1c16.9-5 32.5-12.1 44.8-22-10.5-10.2-18-23-21.7-37.1-13.1 0-17.9.3-20.4.8-.5.2-1.1-.1-1.3-.6-.5-1-.7-2.1-.8-3.3 0-.6.3-.8 1-.7 2.7.4 8.5.6 22.1.6h21.8v-6.8c.2-2.6.1-5.4-.3-8.1zm4.6 51c9.5-9 16.5-19.8 19.8-32.8h-42.1c4.9 14.4 12.7 25 22.3 32.8zm84.1 4.9c-4.1-3-8.4-5.6-12.9-7.9l-1.3 2.8c-1 2.1-4.7 2.1-6.3 1.4-1.2-.4-1.4-1.2-.9-2.4 4.3-9.8 7.8-19.9 10.5-30.2-7.3 0-10.5.3-12.8.8-.5.2-1.1-.1-1.3-.5-.4-1-.7-2.1-.6-3.2 0-.5.3-.8 1-.6 2.6.4 6.5.5 14.5.5 1.3-5.5 2.3-11 2.8-16.6.1-1.3.4-1.8 1.7-1.6 2.5.2 8.3 2.4 8.3 4 0 1-1.4 2-3 2.5-.5 3.6-1.3 7.5-2.3 11.7H519c1.2-1.4 2.5-2.8 3.9-4 .8-.7 2-.8 2.8-.1 1.7 1.3 3.3 2.8 4.7 4.5.7.8.6 1.9-.1 2.6-.1.1-.1.1-.2.1-.9.6-1.9 1.1-3 1.4-1.5 12.2-4.5 23.4-10.6 32.9 5.7 2.9 9.7 5.7 11.3 7.5 2.7 3.2 3.5 8.8 1.8 10.9-1 1.2-2.7 1.3-4.2-.3-4-4.5-8.5-8.7-13.3-12.4-6.9 8.1-16.6 14.7-30.8 19.6l-.8-2c12.4-6.9 20.7-13.7 26.6-21.4zm3.3-4.8c5.5-8.8 8.2-19 9.7-31.4h-16.3c-2.3 8.9-5.1 17.5-8.6 26 5.2 1.5 10.2 3.3 15.2 5.4zm28.9-44.4c1.8 0 6.4 2 8.3 3.8h18.1c1.2-1.4 2.5-2.8 3.9-4 .8-.7 2-.8 2.8-.1 1.7 1.3 3.3 2.8 4.7 4.5.7.8.6 1.9-.1 2.6-.1.1-.1.1-.2.1-.5.5-1.2.8-1.8 1v51.8c0 3.4-3.1 9.3-5.2 9.3-1.8 0-3.8-3.4-4.6-6h-19.4v4.1c0 2.3-3.7 3.5-5.9 3.5-1.1 0-1.4-.4-1.4-1.4v-58.7c0-7-.3-8.3-.3-9.3-.1-.6.4-1.1 1-1.2h.1zm26.5 59.9c1.3 0 1.8-.6 1.8-2.4v-50.6h-20.1c-.5.7-1.1 1.3-1.7 1.9v51.2h20zm40.8-67.1c.2-1.1.4-1.4 1.5-1.3 2.3.2 9.1 2.1 9.1 3.7 0 1.1-1.8 2.1-3.2 2.5-1 3.2-2.4 6.4-4 9.4h10.9c1.9-2.1 3.9-4.1 6-5.9.8-.6 1.9-.7 2.7-.1 1.9 1.5 3.6 3.1 5.2 4.9.7.6.8 1.7.1 2.4-.1.1-.2.2-.3.2-1.3.9-2.9 1.5-4.6 1.5h-21.8c-2.5 4.1-5.4 7.9-8.7 11.4h.2c4.6.5 9.2.7 13.9.5h5.7c1.7-2 3.5-3.8 5.6-5.4.7-.6 1.8-.7 2.6-.1 1.7 1.3 3.3 2.8 4.8 4.5.7.6.7 1.7.1 2.3l-.2.2c-1.2.9-2.7 1.5-4.2 1.5h-14.1c2.2 1 4.4 2.4 4.4 3.5 0 .8-1 1.5-2.5 2.5v8.3h5.3c1.7-2 3.5-3.8 5.6-5.5.7-.6 1.8-.7 2.6-.1 1.7 1.3 3.3 2.8 4.8 4.5.7.6.7 1.7.1 2.4-.1.1-.1.1-.2.1-1.2.9-2.7 1.5-4.2 1.5h-14v16.6c6.4-2.2 13-4.5 18.7-6.8l.7 1.3c-7.6 5.5-18.7 11.2-28.4 15.7-.4 1.8-1.1 3.1-2 3.1-1.6 0-3.9-5.6-4.4-7.6-.1-.9.2-1.2 1.2-1.4 2.3-.6 4.7-1.3 7.2-2.1v-18.7c-7.3 0-11 .3-13.5.8-.5.1-1-.1-1.2-.5-.5-.9-.7-2-.8-3.1 0-.6.3-.8 1-.7 2.7.4 7.3.6 14.6.6v-6.7c.1-2.5 0-5-.3-7.5-2.5 0-5 .2-7.5.6-.5.2-1.1-.1-1.3-.5-.5-.9-.7-2-.8-3-2.1 2.2-4.5 4.3-6.9 6.2l-1.3-1.2c7.9-10.8 13.6-23.7 15.8-34.5zm30.8 43.2c2.8.4 5.3 1.7 7.4 3.5h14.5v-2.7c.1-2.5-.1-5-.3-7.4h-13.1v.9c0 2-3.5 3.2-5.5 3.2-1 0-1.3-.3-1.3-1.3v-23.4c0-5.3-.3-6.6-.3-7.5s.3-1.1 1.1-1.1c2.8.4 5.3 1.7 7.4 3.5h8.1c1.4-3.4 2.1-7 2.2-10.6 0-1.1.4-1.4 1.5-1.3 2.5.2 8.7 1.9 8.7 3.4 0 1.1-1.8 1.7-3.2 2.1-1.7 2.6-4 4.8-6.5 6.4h19.3c1.1-1.3 2.3-2.6 3.6-3.7.7-.6 1.6-.6 2.3 0 1.6 1.2 3 2.5 4.4 3.9.6.6.6 1.6 0 2.2-.1.1-.2.2-.3.2-.4.3-.9.6-1.4.8v19c0 2.8-2.7 7.4-4.5 7.4-1.5 0-3.3-2.2-4.2-4h-12.5c2 1 3.8 2.3 3.8 3.2s-1 1.6-2.5 2.5v4.5h14.6c1.1-1.3 2.3-2.6 3.6-3.7.7-.5 1.6-.5 2.3 0 1.6 1.2 3 2.5 4.4 3.9.6.6.6 1.6 0 2.2-.1.1-.2.2-.3.2-.5.4-1 .7-1.6.9v16.5c0 3.3-7 9.5-9.5 9.5-1.1 0-1.7-.7-1.7-2.1 0-2.4-.2-2.5-7.3-5.9l.4-1.2c2.8.4 5.7.7 8.5.8 1.8 0 2.7-.8 2.7-3.6V244h-16.1v27.6c0 2.1-3.5 3.2-5.6 3.2-1 0-1.3-.3-1.3-1.4v-29.3h-14.5c-.4.6-.9 1.1-1.4 1.6V267c0 2-3.5 3.2-5.5 3.2-1 0-1.3-.3-1.3-1.3v-22.6c0-5.4-.3-6.7-.3-7.5s.4-1.4 1.2-1.4zm41.8-21.1V208h-31.9c-.4.6-.9 1.1-1.4 1.6v6.6l33.3.1zm-1.4 11.5c1.1 0 1.4-.6 1.4-2v-6.6h-33.3v8.6h31.9zM720 195c.3-1.6.5-1.9 1.8-1.8 2.4.2 8.9 2.3 8.9 4 0 1.1-1.5 2-3.5 2.5-2.2 7.2-5.7 14-10.2 20.1 2.7 1 5.9 2.8 5.9 4.1 0 .9-.9 1.6-2.4 2.5v44.7c0 2.2-3.8 3.3-5.9 3.3-1.1 0-1.4-.4-1.4-1.5v-48.2c-4 4.7-8.5 8.9-13.5 12.6l-1.1-1.2c10.9-13 18.9-28.7 21.4-41.1zm8.2 62.6c2.5-1.2 5.1-2.6 7.8-4v-45c0-6.1-.3-7.5-.3-8.4 0-.6.4-1.1 1-1.1h.2c2.1 0 8.7 2.3 8.7 4.3 0 .8-.9 1.9-2.5 3.3v43.1c7.3-4.3 14.7-8.7 21.2-13l1.1 1.3c-8.1 7.9-19.9 17.1-30.1 24.4 0 2-.4 3.4-1.3 3.7-1.6.4-5.7-4.9-6.4-6.9-.5-.8-.3-1.3.6-1.7zm48.1-8.6c5.6-8.1 6.9-16 6.9-32.7 0-18.9-.8-18.8-.8-20.2-.1-.5.2-1.1.7-1.2h.5c2.5 0 9.8 2.5 9.8 4.6 0 1-1.2 2.4-2.7 3.7V218c0 17.6-1.3 26.1-8.1 34.8 8.6 2.9 14.7 6.9 16.5 9.3 2.3 3.2 1.8 8.6-.1 10.4-1.4 1.2-3.7.9-5-1.5-3.5-6.1-7.9-11.5-13.1-16.1-8 8.4-24.9 15.8-45.2 19l-.4-1.9c19.2-6 34.9-14.2 41-23zm-22.6-43.9c8.7 3.2 15.4 7.8 16.7 10.5 2 3.9 1 8.7-1.2 10-1.5.9-3.2.2-4.2-1.9-3-6.5-7.1-12.4-12.2-17.5l.9-1.1zm85-10.4c.7-1.1 1.1-1.3 2.1-1 2.1.8 7.5 3.8 7.5 5.3 0 1.2-1.8 1.8-4.6 2.1-3.1 3.6-6.6 6.9-10.2 9.9 2.3 1.1 4.6 2.6 4.6 3.7 0 .9-1.1 1.8-2.7 2.6v19.8c0 2.3-3.8 3.4-6 3.4-1.1 0-1.4-.4-1.4-1.5v-23.8c-5.9 4-12.3 7.3-19 9.8l-.8-1.5c13-8.5 23.7-18.3 30.5-28.8zm-28.6 54.5c2.7.4 8.5.6 22.5.6h23v-4.6c0-6.4-.3-7.7-.3-8.7-.1-.6.3-1.2 1-1.3h.3c2.4 0 9.6 2.5 9.6 4.7 0 .9-1 2.1-2.8 3.6v6.3h29.9c2.2-2.4 4.5-4.6 7-6.7.9-.8 2.2-.8 3.2 0 2.2 1.6 4.2 3.4 6 5.5.8.7.8 1.9 0 2.7-1.3 1-3 1.6-4.7 1.6h-41.3v18.8c0 1.9-4 2.9-6.2 2.9-1.2 0-1.5-.4-1.5-1.5v-20.2h-23c-14 0-18.9.3-21.4.8-.5.2-1.1-.1-1.3-.5-.5-1-.7-2.1-.8-3.3-.2-.6.1-.8.8-.7zm74.7-20.3c12.4 0 13.8-.9 14.3-2.9.9-3.9 1.5-8 1.8-12h1.8c.4 4 1.1 8 2 12 .1 1 .9 1.7 1.8 1.9 1.2.3 1.9 1 1.9 1.7 0 1.3-1.6 2.8-4.5 4-2.6 1.1-6.7 1.7-19.6 1.7-17.1 0-20.2-3-20.2-13.1-7.8 2.7-15.8 4.5-24 5.5l-.4-1.6c8.4-2.4 16.5-5.4 24.4-9v-15.2c0-5-.3-6.4-.3-7.3-.1-.6.4-1.1 1-1.2h.2c2.3 0 9.2 2.4 9.2 4.4 0 .9-1 2.1-2.7 3.5v12.3c9.3-4.8 16.9-9.9 21.7-14.7 1-1 1.4-1.1 2.4-.6 1.8 1 6.4 4.9 6.2 6.4-.1 1.1-2 1.3-4.6 1.1-8 5.7-16.6 10.4-25.8 14v1.8c-.1 6.3 1.2 7.3 13.4 7.3zM373.2 335.8c2.7.4 8.5.5 22.6.5h23.6V335c0-5-.3-6.4-.3-7.4-.1-.6.4-1.2 1-1.3h.3c1.7.2 3.4.6 5 1.3 4.7-2.8 9.1-6.1 13-9.9h-27.8c-9.3 0-13 .3-15.5.8-.5.2-1.1-.1-1.3-.5-.4-1-.7-2.1-.6-3.2 0-.5.3-.8 1-.7 2.7.4 7.2.5 16.5.5h29.1c1.5-1.6 3.1-3.2 4.8-4.6.8-.7 2.1-.7 3-.1 2 1.4 3.7 3 5.4 4.8.8.7.8 1.9.1 2.6l-.2.2c-1.2.8-2.6 1.2-4 1.4-6.5 4.1-13.5 7.4-20.8 9.8 1.2.7 2 1.4 2 2.1 0 .9-1 2-2.5 3.3v2.3h30c2.2-2.4 4.5-4.6 7-6.7.9-.8 2.2-.8 3.2 0 2.2 1.6 4.2 3.4 6 5.5.8.7.8 1.9 0 2.7-1.3 1-3 1.6-4.7 1.6h-41.6V358c0 4-8.7 10.8-12.1 10.8-1.3 0-2.1-.6-2.1-2.3 0-2.9-.3-3.2-10.4-7.5l.3-1.3c4.2.6 8.5 1 12.8 1.1 2.3 0 3.6-1.1 3.6-4.4v-14.9H396c-14.1 0-19 .3-21.5.8-.5.2-1.1-.1-1.3-.5-.5-1-.7-2.1-.8-3.3-.1-.6.2-.8.8-.7zm12.5-43.3 1.7-.1c.4 2.1.8 4.1 1 6h30.8v-3.6c0-2.4-.1-4.7-.4-7.1 0-.9.4-1.2 1.3-1.2 2.4 0 9.4 2.3 9.4 4.1 0 1.1-1.3 2.2-2.7 3.2v4.6h31.1c1.5-1.7 3.1-3.3 4.8-4.8.7-.6 1.8-.7 2.6-.1 2.1 1.5 4 3.3 5.8 5.2.6.7.5 1.8-.3 2.4-.1 0-.1.1-.2.1-1 .5-2 .8-3.1 1l-11.3 11.9-1.3-.9 4-11.7h-70.2c0 1.8-.2 3.6-.6 5.4-1.2 4.3-4.2 7.2-7.8 7.8-2.3.3-3.9-.5-4.5-2.6-.5-2.4.7-4.8 2.8-6 3.9-2.3 6.6-7.9 7.1-13.6zm96 18.3c7.3.4 13.4 2.3 15.4 4.2 2.3 2.3 2.6 6.9.9 8.6-1.3 1.1-3.3 1-4.4-.3-.1-.2-.3-.4-.4-.6-3.1-4.4-7.2-8-11.9-10.7l.4-1.2zm4.4 31.5 6.3 2.2c1.5.5 2.2.4 2.8-1.2 1-2.4 14.4-40.3 14.4-40.3l2.2.7c-3.8 13.5-8.3 30.2-11.4 42.7-1 3.7-1.1 7.5-.3 11.2.5 2.1.1 4.3-1.1 6.1-1.5 2-4.1 3.3-6.3 3-1.8-.4-2.9-2.2-2.5-4 0-.2.1-.3.1-.5 1.2-3.4 1.5-7 .9-10.5-.7-3.4-2.5-5.3-6-7.9l.9-1.5zm2-53c8 .9 14.2 3.3 15.7 5.2 1.9 2.3 2.2 6.4.3 8.3-1.2 1.2-3.4 1.1-4.9-1.2-3.1-4.4-7.1-8.1-11.6-11l.5-1.3zm25.7 15c2.2 0 8.8 2.3 8.8 4.3 0 .8-.9 2-2.6 3.4v53.1c0 2-3.6 3.1-5.7 3.1-1.1 0-1.4-.4-1.4-1.4v-52.5c0-6.5-.3-7.9-.3-8.8 0-.9.4-1.2 1.2-1.2zm-.6-16.3.5-1.2c8.6 1.6 14.5 4.2 16 6.4 1.8 2.6 1.8 7.4-.3 8.8-1.3.9-3.2.4-4.2-1.3-3.3-4.8-7.3-9.2-12-12.7zm10.7 59.1c2.7.4 7.5.5 15 .5h1.3v-16c-3.9-.1-7.8.2-11.7.8-.5.2-1.1-.1-1.3-.5-.5-1-.7-2.1-.8-3.2 0-.5.3-.8 1-.6 4.2.5 8.5.7 12.8.5v-7.3c.1-2.3-.1-4.7-.3-7-4.4-.1-8.8.1-13.1.8-.5.2-1.1 0-1.3-.5-.5-1-.7-2.1-.8-3.2 0-.5.3-.8 1-.7 2.7.4 7.4.5 14.5.5h10.1c1.7-2 3.5-3.7 5.6-5.4.7-.6 1.8-.7 2.6-.1 1.7 1.3 3.3 2.8 4.8 4.5.7.6.7 1.7.1 2.3l-.2.2c-1.2.9-2.7 1.5-4.2 1.5h-13.9c2 .9 3.8 2.2 3.8 3.1s-.8 1.5-2.2 2.3v8.9h3.4c1.5-1.7 3.1-3.3 4.9-4.8.7-.6 1.8-.7 2.5-.1 1.5 1.2 3 2.6 4.3 4.1.6.6.6 1.6 0 2.2l-.2.2c-1.2.8-2.6 1.3-4 1.4h-10.8v16h5.1c1.7-2 3.5-3.7 5.6-5.4.7-.6 1.8-.7 2.6-.1 1.7 1.3 3.3 2.8 4.8 4.5.7.6.7 1.7.1 2.3l-.2.2c-1.2.9-2.7 1.5-4.2 1.5H539c-4.6-.1-9.3.1-13.9.8-.5.2-1.1-.1-1.3-.5-.5-1-.7-2.1-.8-3.2-.1-.3.3-.5.9-.5zm15.2-52.8c2.7.4 6.5.5 14 .5h12.6c1.2-1.4 2.5-2.8 3.9-4 .8-.7 2-.8 2.8-.1 1.7 1.3 3.3 2.8 4.7 4.5.7.8.6 1.9-.1 2.6-.1.1-.1.1-.2.1-.6.5-1.3.8-2.1 1.1v58.4c0 3.9-8.3 10.9-11.5 10.9-1.3 0-2.1-.8-2.1-2.3 0-3.2-.2-3.4-9.8-7.7l.3-1.3c5.8.6 9.9 1 12.3 1 2.2 0 3.5-1 3.5-4.5V298H553c-7.4 0-10.5.3-13 .8-.5.2-1.1 0-1.3-.5-.5-1-.7-2.1-.7-3.2.1-.6.4-.8 1.1-.8zm60 2.1c.1-1.5.4-1.9 1.6-1.8 2.1.1 8.4 1.8 8.4 3.4 0 .9-1.3 1.9-3.2 2.6-.5 2.9-1.2 5.7-2.2 8.4h7.9v-11.8c0-7.1-.3-8.4-.3-9.4 0-.8.3-1.1 1.2-1.1 2.2 0 8.8 2.3 8.8 4.2 0 .9-.9 2-2.6 3.4v14.6h1.7c1.7-2 3.6-3.7 5.6-5.3.7-.6 1.8-.7 2.6-.1 1.7 1.3 3.3 2.8 4.8 4.5.7.6.7 1.7.1 2.3l-.2.2c-1.2.9-2.7 1.5-4.3 1.5h-10.4v19.4c5.1-1.8 10.2-3.6 14.8-5.5l.8 1.4c-4.6 2.8-9.9 5.7-15.6 8.5v29c0 2.1-3.6 3.2-5.7 3.2-1.1 0-1.4-.4-1.4-1.4v-27.4c-4.6 2.1-9.2 4-13.5 5.8-.4 1.9-1.1 3-2 3-1.6 0-3.9-5.5-4.2-7.5-.1-.8.2-1.1 1.2-1.3 5.7-1.5 12.1-3.4 18.5-5.5v-21.8h-9c-2.3 6.1-5.7 11.8-10 16.8l-1.4-.9c4.6-9.7 7.2-20.4 8-31.4zm50.9 9.5h-6.8c-3.6 7.4-8.9 13.9-15.5 18.9l-1.3-1.1c8.1-10.3 13.2-22.7 14.7-35.7.1-1.2.4-1.5 1.6-1.4 2.2.2 8.6 2.1 8.6 3.7 0 .9-1.2 1.9-3.5 2.5-.8 3.3-1.8 6.6-3.1 9.8h30.9c1.2-1.4 2.5-2.8 3.9-4 .8-.7 2-.8 2.8-.1 1.7 1.3 3.3 2.8 4.7 4.5.7.9.6 2.1-.3 2.8-.7.5-1.6.9-2.4 1.2 0 15-.8 30-2.3 45-.4 3.5-1.1 5.5-4 8.3-3.8 3.6-10.2 6.7-13.1 6.7-1.5 0-2.2-.7-2.2-2.5s-.2-2.4-1.4-3.4c-2.1-1.5-4.4-2.8-6.8-3.8l.4-1.3c4.2.7 8.5 1.2 12.8 1.3 4.3 0 6.3-1.6 7-5.7 1.4-8.8 2.4-28.1 2.4-45.6h-6.5c2 .9 3.7 2.1 3.7 2.8s-.9 1.4-2.8 2.1c-3.6 24-13.8 41-39.9 54.4l-1-1.4c23-17 32.2-35.4 34.3-57.9H656c1.7.8 3.3 1.8 3.3 2.5s-1.2 1.5-2.9 2.1c-4 15-11.9 28.5-29.9 38.6l-1-1.3c15-13.2 22-27 24.5-42zm91.4 19.5h-14.8c-13.1 0-17.9.3-20.4.8-.5.2-1.1 0-1.3-.5-.5-1-.7-2.1-.8-3.3 0-.5.3-.8 1-.7 2.7.4 8.4.5 21.5.5H742c.7-4 1-8.1 1-12.1v-4.3c.1-2.4-.1-4.9-.4-7.3h-11.9c-11.8 0-16.4.3-18.9.8-.5.2-1.1-.1-1.3-.5-.5-1-.7-2.1-.8-3.3 0-.5.3-.8 1-.7 2.7.4 8.2.5 20 .5h43.8c2.2-2.4 4.5-4.6 7-6.7.9-.8 2.2-.8 3.2 0 2.2 1.6 4.2 3.4 6 5.5.8.7.8 2 0 2.7-1.3 1-3 1.6-4.7 1.6h-36.8c2.3 1.1 4.4 2.5 4.4 3.5s-1.3 2-2.5 2.7v5.9c0 3.9-.3 7.7-.9 11.6h30.7c2.2-2.4 4.5-4.6 7-6.7.9-.8 2.2-.8 3.2 0 2.2 1.6 4.2 3.4 6 5.5.8.7.8 1.9 0 2.7-1.3 1-3 1.6-4.7 1.6h-30.6c2.2 1.1 4.1 2.4 4.1 3.5 0 .9-1.1 1.6-2.6 2.6v17.8c0 8.1 1.6 9 12.3 9 11.8 0 13.9-.7 14.7-3.2s1.5-7.3 2.2-13.4h1.8c.4 4.4 1 8.8 2 13.2.2 1 .9 1.8 1.9 2.1 1.1.2 1.9 1 2 2.1 0 1.4-2.1 3.3-5.1 4.4s-7.4 2-21.4 2c-14.8 0-18-4.1-18-14.7v-17.7c0-2.5-.1-5-.3-7.5h-5.6c-4.4 20.2-18.7 34-47.7 42.4l-.7-1.8c23.9-11.3 35.9-23.4 40-40.6zm81.2 6.8c0-7.7-.3-10-.3-11.1 0-.8.4-1.2 1.3-1.2 1.5 0 5.9 1.7 8 3.3h56.7c1.2-1.4 2.5-2.8 3.9-4 .8-.7 2-.8 2.8-.1 1.7 1.3 3.3 2.8 4.7 4.5.7.8.6 1.9-.2 2.6-.1 0-.1.1-.2.1-.6.4-1.1.7-1.7 1v12.6c0 3.3-3.3 8.7-5.3 8.7-1.9 0-3.8-2.8-4.6-5.2h-58c-1.6 10.6-7 18.2-21 25.6l-1.1-1.5c13.6-11.7 15-21.4 15-35.3zM809.4 297c2.7.4 8.6.5 22.7.5h23.2v-2c0-5.4-.3-6.8-.3-7.8 0-.8.4-1.2 1.3-1.2 2.3 0 9.5 2.5 9.5 4.6 0 1-1 2.2-2.8 3.7v2.6h30.9c2.1-2.4 4.4-4.7 6.9-6.8.9-.8 2.2-.8 3.2 0 2.2 1.6 4.2 3.4 6 5.5.8.7.8 1.9 0 2.7-1.3 1-3 1.6-4.7 1.6H863v10.3h22.3c2-2.3 4.1-4.4 6.4-6.3.9-.8 2.2-.8 3.2 0 2 1.5 3.8 3.2 5.5 5 .8.7.8 1.9 0 2.7-1.3 1-3 1.6-4.7 1.6h-56.3c-12 0-16.6.3-19.1.8-.5.2-1.1 0-1.3-.5-.5-1-.7-2.1-.8-3.2 0-.5.3-.8 1-.7 2.7.4 8.2.5 20.2.5h16v-10.2h-23.2c-14.1 0-19.1.3-21.6.8-.5.2-1.1 0-1.3-.5-.5-1-.7-2.1-.8-3.2 0-.4.3-.6.9-.5zm46.8 43.3v-7.2c0-2.3-.1-4.6-.3-6.9h-24c-.5.6-1 1.1-1.5 1.5v5.8c0 2.3-.1 4.5-.3 6.8h26.1zm9.8-10.9c0 .8-.9 1.6-2.4 2.5v8.4h24.6c1.3 0 1.8-.7 1.8-2.4v-11.7h-27.6c1.9 1 3.6 2.2 3.6 3.2zM511.4 445.6c0 .9-.6 1.9-2.7 2-.9.1-2.6 0-4.2 0-.1 0-.2.1-.1.2l.1.1c.6.7.8 1.7.3 2.6-.2.4-.6.8-1 1-.1 0-.1.1-.1.2 0 1-.5 2-1.3 2.5-.1 0-.2.1-.4.2l-.1.1c0 .9-.5 1.7-1.2 2.2-.6.4-1.3.6-2 .6h-.7c-1 .2-2 .4-3 .4-.9 0-1.9-.1-2.8-.2-2.4-.4-4.8-1.1-7-2.2-.2-.1-.4-.1-.7-.1l-2.5.3c-.2 0-.3-.1-.4-.2 0-.1-.1-.1-.1-.2v-9.6c0-.2.2-.4.4-.5h.1l2.4.3h.3c4.3-1.8 8.1-2.9 10.6-2.9 4.5.1 9 .5 13.5 1.1 1.1.1 2.6.6 2.6 2.1zm-15.5 11.1s.1-.1 0 0c-.9-.5-1.7-1.1-2.4-1.8-.5-.7-.7-1.6-.6-2.4.1-.9-.5-1.7-1.4-1.8h-.4c-1.3.2-2.6.1-3.9-.2-.3-.1-.5-.3-.5-.5s.3-.4.5-.4c1.5-.1 2.9-.4 4.2-1.1 1-.4 1.9-1.1 2.6-1.9.1-.2.3-.2.5-.1.4.2 2.6.9 4.4 1.4 1.1.3 2 .2 2.3-.4.1-.2 0-.6-.6-1.2-.8-.8-1.7-1.5-2.7-2.2-1-.7-2.3-1.1-3.5-1-1.9 0-5.7 1.1-9.5 2.8-.1.1-.3.1-.4.1l-1.7-.2c-.2 0-.3.1-.3.3v8c0 .2.2.3.4.3l2-.3c.1 0 .3 0 .4.1 2.3 1.1 4.7 1.9 7.2 2.3 1 .2 2.2.3 3.4.2zm5.2-2c0-.1-.1-.1-.1-.1-.4 0-.8.1-1.1.1-1.7-.2-3.3-.7-4.7-1.6-.4-.3-.9-.4-1.1.2-.1.4 0 .9.3 1.2 1.2 1.1 2.7 1.8 4.3 1.9.5 0 1.1-.1 1.6-.4.4-.3.7-.7.8-1.3zm1.7-2.8c0-.1-.1-.2-.1-.2-.3.1-.7.1-1 .1-1.5 0-2.9-.3-4.3-.8-.6-.3-1.3-.6-1.9-.9-.2-.1-.5-.1-.7 0-.2.2-.3.5-.3.8 0 .6.4 1 1.4 1.6 1.2.8 2.5 1.2 3.9 1.3.7 0 1.5-.1 2.1-.4.5-.3.8-.8.9-1.5zm1.2-3.4c-.4-.4-.9-.7-1.5-.9-.2-.1-.4 0-.5.2-.2.6-.8 1.1-1.5 1.2-.7.1-1.3.1-2-.1l-2.2-.6c-.2-.1-.4 0-.5.2-.1.4 0 .8.3 1 .5.4 1 .7 1.5.9 1 .4 2 .6 3 .7.7.1 1.4.1 2.1-.1.5-.1 1.2-.3 1.4-.8.3-.6.3-1.2-.1-1.7zm6.6-2.9c0-.3 0-1-2-1.4-1.6-.3-6.1-.7-9.6-1 0 0-.1 0-.1.1v.5s0 .1.1.1c.6.5 1.6 1.3 2.3 2 .3.3.7.5 1.2.6.4.1.9.1 1.3.1 1.6 0 4 .1 4.9 0 1.6 0 1.9-.5 1.9-1zM514 463c1.9-1.8 3.5-4 4.5-6.5l1.4.4c-1.1 2.5-2.7 4.8-4.6 6.8l-1.3-.7zm24.8-8.8H518v-9.6h9.4v-9.9h1.5v3.8h12.5v1.4h-12.5v4.7h10l-.1 9.6zm-1.5-8.2h-17.8v6.7h17.8V446zm-12.1 11.1c.4 2 .7 4 .8 6l-1.5.2c0-2.1-.3-4.1-.7-6.1l1.4-.1zm6.5-.2c1 1.9 1.8 3.9 2.3 6l-1.5.4c-.5-2.1-1.3-4.1-2.3-6l1.5-.4zm6.5-.6c1.7 1.9 3.1 4.1 4.3 6.4l-1.4.6c-1.1-2.3-2.6-4.5-4.2-6.4l1.3-.6zm23 3.8h8.5v-8.5h1.5v12.1h-1.5v-2h-20.3v-10h1.6v8.5h8.6v-11.4h-12.8v-1.5h12.8v-5.8h-10.4V440h10.4v-5.2h1.6v5.2h10.6v1.5h-10.6v5.8h12.9v1.5h-12.9v11.3zm43.3-22.1c-3.3 3.4-7.1 6.3-11.3 8.4v14.8c0 1.3-.4 1.8-1.4 2s-3 .3-6.4.3c-.1-.5-.4-1.1-.6-1.6 2.9.1 5.3.1 6 0s.9-.2.9-.8v-15.4c3.6-1.8 6.9-4.1 9.9-6.9h-21.9v-1.5H603l.3-.1 1.2.8zm18.7 23.6c0 .9-.2 1.3-.7 1.5-1.1.3-2.2.4-3.3.3-.1-.5-.2-.9-.5-1.4h2.7c.3 0 .5-.1.5-.4v-5.7h-3.5v6.2H617v-6.2h-3.8c-.2 2.7-1 5.4-2.4 7.8-.4-.3-.7-.6-1.2-.8 2.1-3.4 2.4-8.2 2.4-11.8v-6.9c-.4.5-.8 1.1-1.2 1.6l-1.2-.9c2.5-3 4.3-6.5 5.2-10.3l1.4.3c-.2.8-.5 1.7-.8 2.5h5l.3-.1 1 .6c-.6 1.6-1.3 3.2-2.2 4.7h3.6l.1 19zm-8.2-22.9c-.5 1.3-1.2 2.6-1.9 3.9h4.9c.7-1.2 1.3-2.6 1.8-3.9H615zm2 15.9v-4.8h-3.5v1.4c0 1.1 0 2.2-.1 3.5h3.6zm-3.5-6.1h3.5V444h-3.5v4.5zm4.7 0h3.5V444h-3.5v4.5zm3.6 6.1v-4.8h-3.5v4.8h3.5zm9.3-17c-.6 3.8-2.2 7.1-5.9 8.9-.3-.4-.6-.8-1-1.1 3.4-1.6 4.8-4.6 5.4-7.9h-4.9v-1.4H638v.7c-.3 5.4-.6 7.4-1.2 8.1-.4.5-1 .7-1.6.6-1.1.1-2.2 0-3.3-.1-.1-.5-.2-.9-.4-1.3 1.4.1 2.8.1 3.3.1s.7 0 .9-.3c.4-.5.7-2.1 1-6.5h-5.6zm7.8 19.4h-6v6.6h-1.5V457h-6.8v-1.4h6.8v-4.5h-3.8c-.5 1.2-1.1 2.4-1.9 3.5-.4-.3-.8-.5-1.3-.7 1.5-2.2 2.6-4.7 3.1-7.4l1.4.3c-.2 1-.5 2-.8 2.9h3.3v-3.4h1.5v3.4h5.1v1.4h-5.2v4.5h6l.1 1.4zm8.5-21.9c-.4 1.2-.8 2.4-1.3 3.5h7.5v1.5h-8.3c-.7 1.4-1.6 2.7-2.7 3.9-.3-.5-.6-.9-.9-1.3 2-2.3 3.4-5.1 4.3-8l1.4.4zm1.4 15.5h4.5v1.4h-4.5v7.9l3.9-2.2c.1.4.2.8.4 1.2-5.2 3.2-6 3.7-6.4 4.2-.2-.4-.5-.8-.9-1.1.9-.6 1.5-1.7 1.6-2.8V452h-5v-1.4h5v-5.1h-3.6v-1.4h8.9v1.4h-3.9v5.1zm21 9.1c0 .9-.1 1.3-.8 1.5-1.2.2-2.4.3-3.6.2-.1-.5-.3-.9-.5-1.4h3c.4 0 .5-.1.5-.4v-6.9H663v10.8h-1.5v-10.8h-5.1v9h-1.5v-10.5h6.5v-3.1h-6v-10.6h4.4c.3-1 .6-2.1.8-3.1l1.8.3c-.3.9-.7 2-1 2.8h7.7v10.6h-6.2v3.1h6.8l.1 8.5zM657 442.3h10.7V439h-10.8l.1 3.3zm0 4.7h10.7v-3.4h-10.8l.1 3.4zm45.5 8.8h-13.4v7.8h-1.6v-7.8h-13.4v-1.5h13.4v-3.9h1.6v3.9h13.4v1.5zM680 441c-1.4 1.4-2.9 2.7-4.5 3.9-.4-.4-.8-.8-1.2-1.1 3.6-2.4 6.7-5.5 9-9.2l1.4.5c-.9 1.5-2 3-3.2 4.4v11H680V441zm9.6 2c-1.6.5-3.3 1-5 1.4-.1-.4-.3-.8-.5-1.2 1.8-.5 3.7-1 5.5-1.6V435h1.5v6.1c3.1-.9 6.1-2.3 8.9-4l1.3 1.1c-3.2 1.9-6.6 3.3-10.1 4.4v4.3c0 .9.3 1.2 1.9 1.2h6.1c1.3 0 1.5-.6 1.7-3.7.4.3.9.5 1.4.6-.2 3.5-.7 4.5-3 4.5H693c-2.7 0-3.4-.5-3.4-2.6V443zm19.1 12.4v3.1h-1.5v-21.8h10v18.7h-8.5zm0-17.2v7h7.1v-7h-7.1zm7.1 15.8v-7.4h-7.1v7.4h7.1zm18 7.2c0 1.2-.3 1.8-1.2 2.1-1.8.3-3.6.3-5.4.3-.1-.5-.3-1.1-.6-1.5 2.3.1 4.3 0 4.9 0s.8-.2.8-.8v-7.9h-10.6c-.6 4.1-2.7 7.9-5.9 10.5-.3-.4-.7-.8-1.1-1.1 5.4-4.3 6-10.3 6-15.4V436h13.1v25.2zm-1.5-9.3v-6.6h-10.1v2c0 1.5-.1 3-.2 4.5l10.3.1zm-10.1-14.4v6.4h10.1v-6.4h-10.1zm23.9 20.3v5.8h-1.5v-5.8h-6.7v-1.4h6.7v-3.1h-5.3V443h5.3v-3.1h-6.2v-1.4h6.2v-3.8h1.5v3.8h6.5v1.4h-6.5v3.1h5.5v10.3h-5.5v3.1h6.7v1.4h-6.7zm-5.4-10.4h9.4v-3.2h-9.4v3.2zm0 4.6h9.4v-3.3h-9.4v3.3zm24.8 9.5c0 1-.3 1.6-1 1.9-1.4.3-2.9.3-4.3.2-.2-.5-.3-1-.6-1.5h3.8c.5 0 .7-.2.7-.6V453h-8.2c-.5 3.8-1.7 7.7-4.8 10.7-.3-.4-.7-.7-1.1-1 4.2-4 4.7-9.6 4.7-14.2v-12.3h11l-.2 25.3zm-1.5-9.9v-6.3h-8v3.2c0 1 0 2-.1 3.1h8.1zm-8-14v6.2h8v-6.2h-8zm22.4-2.5c-.8 2.5-1.8 4.8-3 7.1v21.3H774v-18.7c-.9 1.6-2 3.1-3.2 4.5-.3-.5-.6-.9-1-1.4 3.2-3.9 5.7-8.4 7.2-13.2l1.4.4zM790 443c2 5.6 5.5 11.2 9.2 13.9l-1.2 1.2c-3.7-3-7.2-8.9-9.2-14.8v12.6h5.6v1.4h-5.6v6.1h-1.5v-6.1h-5.9v-1.4h5.9v-12.5c-2.1 6-5.7 11.8-9.4 14.8-.3-.4-.7-.8-1.1-1.1 3.6-2.8 7.2-8.4 9.3-14.1h-8.3v-1.5h9.6v-6.8h1.5v6.8h10v1.5H790zm-402.2 90c.2-1.1.4-1.4 1.5-1.3 2.3.2 9.1 2.1 9.1 3.7 0 1.1-1.8 2.1-3.2 2.5-1 3.2-2.4 6.4-4 9.4h10.9c1.9-2.1 3.9-4.1 6-5.9.8-.6 1.9-.7 2.7-.1 1.9 1.5 3.7 3.1 5.2 4.9.7.6.8 1.7.1 2.4l-.2.2c-1.3.9-2.9 1.5-4.6 1.5h-21.9c-2.5 4.1-5.4 8-8.7 11.5h.2c4.6.5 9.2.7 13.9.5h5.7c1.7-2 3.5-3.8 5.6-5.5.7-.6 1.8-.7 2.6-.1 1.7 1.3 3.3 2.8 4.8 4.5.7.6.7 1.7.1 2.3l-.2.2c-1.2.9-2.7 1.5-4.2 1.5h-14.1c2.2 1 4.4 2.4 4.4 3.5 0 .8-1 1.5-2.5 2.5v8.3h5.3c1.7-2 3.6-3.8 5.6-5.5.7-.6 1.8-.7 2.6-.1 1.7 1.4 3.3 2.8 4.8 4.5.7.6.7 1.7.1 2.4-.1.1-.1.1-.2.1-1.2.9-2.7 1.5-4.3 1.5H397V599c6.4-2.2 13-4.5 18.6-6.8l.7 1.3c-7.6 5.5-18.7 11.2-28.4 15.7-.4 1.7-1.1 3-2 3-1.6 0-3.9-5.6-4.4-7.6-.1-.9.2-1.2 1.2-1.4 2.3-.7 4.7-1.3 7.2-2.1v-18.7c-7.3 0-11 .3-13.5.8-.5.2-1.1 0-1.3-.5-.5-.9-.7-2-.8-3 0-.5.3-.8 1-.7 2.7.4 7.3.5 14.6.5v-6.7c.1-2.5 0-5-.3-7.5-2.5 0-5 .2-7.5.7-.5.2-1.1-.1-1.3-.5-.5-.9-.7-2-.8-3-2.1 2.2-4.4 4.3-6.9 6.2l-1.3-1.2c8.1-10.8 13.8-23.7 16-34.5zm30.8 43.2c2.8.4 5.3 1.7 7.4 3.5h14.5V577c.1-2.5-.1-5-.3-7.4h-13.1v.9c0 2-3.5 3.2-5.5 3.2-1 0-1.3-.3-1.3-1.3V549c0-5.3-.3-6.7-.3-7.5s.3-1.1 1.1-1.1c2.8.4 5.3 1.7 7.4 3.5h8.1c1.4-3.4 2.1-7 2.2-10.6 0-1.1.4-1.4 1.5-1.3 2.5.2 8.7 1.9 8.7 3.4 0 1.1-1.9 1.7-3.2 2.1-1.7 2.6-3.9 4.8-6.5 6.4h19.3c1.1-1.3 2.3-2.6 3.6-3.7.7-.6 1.6-.6 2.3 0 1.6 1.2 3 2.5 4.4 3.9.6.6.7 1.5.1 2.2-.1.1-.2.2-.3.2-.4.3-.9.6-1.4.8v19c0 2.8-2.7 7.4-4.5 7.4-1.5 0-3.3-2.2-4.1-4h-12.5c2 1 3.8 2.3 3.8 3.2s-1 1.6-2.5 2.5v4.5H462c1.1-1.3 2.3-2.6 3.6-3.7.7-.6 1.6-.6 2.3 0 1.6 1.2 3 2.5 4.4 3.9.6.6.6 1.6 0 2.2-.1.1-.2.2-.3.2-.5.4-1 .7-1.6.9v16.5c0 3.3-7 9.5-9.5 9.5-1.1 0-1.8-.7-1.8-2.1 0-2.4-.2-2.5-7.3-5.9l.4-1.2c2.8.4 5.7.7 8.5.8 1.8 0 2.7-.8 2.7-3.6v-14.6h-16.2v27.6c0 2.1-3.5 3.2-5.6 3.2-1 0-1.3-.3-1.3-1.4v-29.3H426c-.4.6-.9 1.1-1.4 1.6v21.3c0 2-3.5 3.2-5.5 3.2-1 0-1.3-.3-1.3-1.3v-22.6c0-5.3-.3-6.7-.3-7.5s.3-1.4 1.1-1.4zm41.8-21.2v-8.3h-31.8c-.4.6-.9 1.1-1.4 1.6v6.6h33.2zm-1.4 11.6c1.1 0 1.4-.5 1.4-2V558h-33.3v8.6H459zm51.8-33.2c.6-1.1 1.1-1.3 2.1-1 2.1.8 7.5 3.8 7.5 5.3 0 1.2-1.8 1.8-4.6 2.1-3.1 3.6-6.6 6.9-10.3 9.9 2.3 1.1 4.6 2.6 4.6 3.7 0 .9-1.1 1.7-2.7 2.6v19.8c0 2.3-3.8 3.4-6 3.4-1.1 0-1.4-.4-1.4-1.5v-23.8c-5.9 4-12.3 7.3-19 9.8l-.8-1.5c13.1-8.5 23.8-18.2 30.6-28.8zM482.2 588c2.7.4 8.5.5 22.5.5h23V584c0-6.4-.3-7.7-.3-8.7-.1-.6.4-1.2 1-1.3h.3c2.4 0 9.6 2.5 9.6 4.7 0 .9-1 2.1-2.8 3.6v6.3h29.9c2.2-2.4 4.5-4.6 7-6.7.9-.8 2.2-.8 3.2 0 2.2 1.6 4.2 3.4 6 5.5.8.7.8 1.9 0 2.7-1.3 1-3 1.6-4.7 1.6h-41.3v18.8c0 1.8-4 2.9-6.2 2.9-1.2 0-1.5-.4-1.5-1.5v-20.2h-23c-14 0-18.9.3-21.4.8-.5.2-1.1 0-1.3-.5-.5-1-.7-2.1-.8-3.3-.2-.6.1-.9.8-.7zm74.7-20.3c12.4 0 13.7-.9 14.3-3 .9-3.9 1.5-8 1.8-12h1.7c.4 4 1.1 8 2 12 .1 1 .9 1.7 1.8 1.9 1.2.3 1.8 1 1.8 1.7 0 1.3-1.6 2.8-4.5 4-2.6 1.1-6.7 1.8-19.6 1.8-17.1 0-20.2-3.1-20.2-13.1-7.8 2.7-15.8 4.5-24 5.5l-.4-1.6c8.4-2.4 16.5-5.4 24.4-9v-15.3c0-5-.3-6.4-.3-7.3-.1-.6.4-1.1 1-1.2h.2c2.3 0 9.2 2.4 9.2 4.4 0 .9-1 2.1-2.7 3.5v12.3c9.3-4.8 16.9-9.9 21.7-14.7 1-1 1.4-1.1 2.4-.5 1.8 1 6.4 4.9 6.2 6.4-.1 1.1-2 1.3-4.6 1.1-8 5.7-16.6 10.4-25.8 14v1.7c.1 6.4 1.4 7.4 13.6 7.4zm42.2-30.7c1.8 0 6.3 1.9 8.2 3.7h14.5c1.2-1.4 2.5-2.8 3.9-4 .8-.7 2-.8 2.8-.1 1.7 1.3 3.3 2.8 4.7 4.5.7.8.6 1.9-.2 2.6-.1 0-.1.1-.2.1-.7.5-1.4.8-2.2 1.1v40.5c0 3-3 8-4.8 8-1.6 0-3.4-2.4-4.3-4.5h-16.1v6.8c0 2.2-3.8 3.5-5.9 3.5-1.1 0-1.4-.4-1.4-1.5v-50.3c0-6.8-.3-8.1-.3-9.1-.1-.6.4-1.1 1-1.2.2-.1.3-.1.3-.1zm24.5 25.4v-18.6h-16.2c-.6.7-1.2 1.4-1.8 2v16.7l18-.1zm-1.6 23.4c1.2 0 1.5-.5 1.5-2.1v-18.3h-18v20.4H622zm21.2-16.8v-19.5c.1-4.3-.1-8.7-.5-13-.1-.5.2-1.1.7-1.2h.5c2 0 6.4 2.1 8.4 3.8h21.3c1.2-1.4 2.5-2.8 3.9-4 .8-.7 2-.8 2.8-.1 1.7 1.3 3.3 2.8 4.7 4.5.7.8.6 1.9-.1 2.6-.1.1-.1.1-.2.1-.6.4-1.1.7-1.8 1V602c0 3.8-8.3 10.7-11.5 10.7-1.3 0-2.1-.7-2.1-2.3 0-3.1-.3-3.2-9.8-7.4l.3-1.3c4.1.5 8.1.9 12.2 1 2.2 0 3.4-1 3.4-4.4v-16.7h-26c-2.9 14.5-12.2 23.8-33.3 32l-.8-1.6c21.5-13.6 27.9-23.6 27.9-43zm32.3 9.5v-16.7h-24.9v7.4c0 3.1-.2 6.2-.5 9.3h25.4zm0-19.8v-16.6h-23c-.5.7-1.2 1.3-1.8 2v14.6h24.8zm24.2 33.1c2.7.4 7.8.5 16.5.5h7.4V588c0-2.3-.1-4.7-.3-7h-9.6v1.3c0 2-3.5 3.2-5.6 3.2-1 0-1.3-.3-1.3-1.4v-23c0-5.6-.3-6.9-.3-7.7s.3-1.1 1.1-1.1c1.6 0 6 1.8 7.7 3.6h8.3v-9h-5.8c-8.6 0-12.7.3-15.2.8-.5.2-1.1 0-1.3-.5-.5-1-.7-2.1-.8-3.2 0-.5.3-.8 1-.7 2.7.4 7.6.5 16.3.5h5.8V540c0-4.8-.3-6.1-.3-7 0-.7.3-1.1 1.2-1.1 2.1 0 8.5 2.3 8.5 4.2 0 .9-.9 1.8-2.5 3.3v4.5h9.3c1.7-2 3.5-3.7 5.6-5.3.7-.6 1.8-.7 2.6-.1 1.7 1.3 3.3 2.8 4.8 4.5.7.6.7 1.7.1 2.3l-.2.2c-1.2.9-2.7 1.5-4.2 1.5h-17.9v9h8.3c1.1-1.3 2.3-2.6 3.6-3.7.7-.6 1.6-.6 2.3 0 1.5 1.2 3 2.5 4.3 3.9.6.6.7 1.5.1 2.2-.1.1-.2.2-.3.2-.5.4-1.1.7-1.6.9v18.3c0 2.9-2.8 7.7-4.7 7.7-1.5 0-3.3-2.3-4.2-4.4h-8.7c1.9 1 3.4 2.1 3.4 2.9s-1 1.5-2.4 2.4v6h8.9c1.7-2 3.5-3.7 5.6-5.3.7-.6 1.8-.7 2.6-.1 1.7 1.3 3.3 2.8 4.8 4.5.7.6.7 1.7.1 2.3l-.2.2c-1.2.9-2.7 1.5-4.3 1.5h-17.5V610c0 2.1-3.6 3.2-5.7 3.2-1 0-1.3-.3-1.3-1.4v-16.3h-7.4c-8.7 0-12.9.3-15.4.8-.5.2-1.1-.1-1.3-.5-.5-1-.7-2.1-.8-3.2 0-.7.3-.9.9-.8zm40.5-25.1v-8h-24.9c-.5.6-1 1.2-1.6 1.8v6.2h26.5zm-1.5 11.3c1.2 0 1.5-.5 1.5-2v-6.4h-26.5v8.4h25zm19.2-9.9v-18.3c0-8.7-.5-12.1-.5-13.1-.1-.6.4-1.1 1-1.2h.2c2.2 0 6.5 2.1 8.2 3.8h17.6c1.1-1.3 2.3-2.6 3.6-3.7.7-.5 1.6-.5 2.3 0 1.6 1.2 3 2.5 4.4 3.9.6.7.6 1.7 0 2.3l-.2.2c-.4.2-.9.5-1.3.8v59c0 3.8-7.7 10.7-10.7 10.7-1.3 0-2-.7-2-2.3 0-3.1-.2-3.3-8.7-7.3l.4-1.3c4.8.5 8.4.9 10.6.9 2 0 3.2-1 3.2-4.1v-17.9h-21.3c-1.4 14.4-6.8 22.8-23.1 32.6l-1.1-1.6c15.1-14.4 17.4-23.9 17.4-43.4zm27.9 9.3v-16H765v6.9c0 3.3-.1 6.3-.2 9.2l21-.1zm0-19.1v-15.9h-19.1c-.5.7-1.1 1.4-1.8 2v14l20.9-.1zm44.5-24.5c.3-1.6.5-2 1.8-1.9 2.4.2 9.6 2.4 9.6 4.3 0 1-1.5 1.8-3.5 2.5-2.4 7.7-6.1 14.9-10.7 21.5 2.6 1 5.5 2.7 5.5 3.9 0 .9-.9 1.6-2.4 2.5v43.2c0 2.2-3.8 3.4-5.9 3.4-1.1 0-1.4-.4-1.4-1.5v-45.8c-4.3 5.1-9.2 9.8-14.5 13.9l-1.2-1.3c11.8-14.7 19.9-30.5 22.7-44.7zm30.1 19.8h-4.7c-10.7 0-15 .3-17.6.8-.5.2-1.1-.1-1.3-.5-.5-1-.7-2.1-.8-3.2 0-.5.3-.8 1-.7 2.7.4 8 .5 18.7.5h10.9v-8c0-7.2-.3-8.5-.3-9.5-.1-.6.4-1.1 1-1.2h.2c2.3 0 9.2 2.4 9.2 4.4 0 .9-1 2.1-2.7 3.5v10.8h18.1c2-2.3 4.2-4.4 6.4-6.3.9-.8 2.2-.8 3.2 0 2 1.5 3.8 3.2 5.5 5 .8.7.8 2 0 2.7-1.3 1-3 1.6-4.7 1.6h-25.8c6.2 16.4 17.6 28.7 34 37.6l-.3 1.6c-4.5.2-5.2.8-6.1 2.2-1 1.6-2.7 2.3-6.3-.7-9.1-7.3-19.2-23-24-39.6v36.7h5.1c1.7-2 3.6-3.8 5.6-5.5.7-.6 1.8-.7 2.6-.1 1.7 1.3 3.3 2.8 4.8 4.5.7.6.7 1.7.1 2.3l-.2.2c-1.2.9-2.7 1.5-4.3 1.5H874V610c0 2.2-3.8 3.3-5.9 3.3-1.1 0-1.4-.4-1.4-1.4v-17.5h-2.9c-7.8 0-11.7.3-14.2.8-.5.2-1.1 0-1.3-.5-.5-1-.7-2-.8-3.1 0-.5.3-.8 1-.7 2.7.4 7.5.5 15.3.5h2.9v-32.8c-5.5 16.9-17.1 31.1-32.5 39.8l-1.1-1.6c13.6-12.1 24.1-28.9 27.3-43.2zm-433.2 121c2.7.4 8.5.5 22.6.5h23.6v-1.4c0-5-.3-6.4-.3-7.4-.1-.6.4-1.2 1-1.3h.3c1.7.2 3.4.6 5 1.3 4.7-2.8 9.1-6.1 13-9.9h-27.8c-9.3 0-13 .3-15.5.8-.5.2-1.1-.1-1.3-.5-.5-1-.7-2.1-.7-3.2 0-.5.3-.8 1-.7 2.7.4 7.2.5 16.5.5h29.1c1.5-1.6 3.1-3.2 4.8-4.6.8-.7 2.1-.7 3-.1 2 1.4 3.7 3 5.3 4.8.8.7.8 1.9.1 2.6l-.2.2c-1.2.8-2.6 1.2-4 1.4-6.5 4.1-13.5 7.4-20.8 9.8 1.2.7 2 1.4 2 2.1 0 .9-1 2-2.5 3.3v2.3h30c2.2-2.4 4.5-4.6 7-6.7.9-.8 2.2-.8 3.2 0 2.2 1.6 4.2 3.4 6 5.5.8.7.8 1.9 0 2.7-1.3 1-3 1.6-4.7 1.6h-41.5v18.4c0 4-8.7 10.8-12.1 10.8-1.3 0-2.1-.7-2.1-2.3 0-2.9-.3-3.2-10.4-7.5l.3-1.3c4.2.6 8.5 1 12.8 1.1 2.3 0 3.6-1.1 3.6-4.4v-14.8h-23.6c-14.1 0-19 .3-21.5.8-.5.2-1.1-.1-1.3-.5-.5-1-.7-2.1-.8-3.3-.1-.5.2-.7.9-.6zm12.4-43.3 1.7-.1c.4 2.1.8 4.2 1 6h30.8v-3.6c0-2.4-.1-4.7-.4-7.1 0-.9.4-1.2 1.3-1.2 2.4 0 9.4 2.3 9.4 4.2 0 1.1-1.3 2.2-2.7 3.2v4.6h31.1c1.5-1.7 3.1-3.3 4.8-4.8.7-.6 1.8-.7 2.6-.1 2.1 1.5 4 3.3 5.8 5.2.6.7.5 1.8-.2 2.4-.1.1-.1.1-.2.1-1 .5-2 .8-3.1 1L510.1 653l-1.3-.9 4-11.7h-70.3c0 1.8-.2 3.7-.6 5.5-1.2 4.3-4.3 7.2-7.8 7.8-2.3.3-3.9-.5-4.5-2.6-.5-2.4.7-4.8 2.8-6 4.1-2.6 6.8-8.2 7.2-13.8zm118-3.8c.3-1.6.5-2 1.8-1.8 2.4.2 9.6 2.4 9.6 4.2 0 1-1.5 1.9-3.5 2.5-2.4 7.7-6 14.9-10.7 21.5 2.6 1 5.5 2.7 5.5 3.9 0 .9-.9 1.6-2.4 2.5v43.2c0 2.2-3.8 3.4-5.9 3.4-1.1 0-1.4-.4-1.4-1.5v-45.8c-4.3 5.1-9.2 9.8-14.5 13.8l-1.2-1.3c11.8-14.6 19.8-30.4 22.7-44.6zm30.1 19.8H583c-10.7 0-15 .3-17.6.8-.5.2-1.1-.1-1.3-.5-.5-1-.7-2.1-.8-3.2 0-.5.3-.8 1-.7 2.7.4 8 .5 18.7.5h10.9v-8c0-7.2-.3-8.5-.3-9.5-.1-.6.4-1.1 1-1.2h.2c2.3 0 9.2 2.4 9.2 4.4 0 .9-1 2.1-2.7 3.5v10.8h18.1c2-2.2 4.2-4.4 6.4-6.3.9-.8 2.3-.8 3.2 0 2 1.5 3.8 3.2 5.5 5 .8.7.8 1.9 0 2.7-1.3 1-3 1.6-4.7 1.6H604c6.2 16.4 17.6 28.7 34 37.6l-.3 1.6c-4.5.2-5.2.8-6.1 2.2-1 1.6-2.7 2.3-6.3-.7-9.1-7.3-19.2-23-24-39.6V685h5.1c1.7-2 3.6-3.8 5.6-5.5.7-.6 1.8-.7 2.6-.1 1.7 1.4 3.3 2.9 4.8 4.5.7.6.7 1.7.1 2.3l-.2.2c-1.2.9-2.7 1.5-4.2 1.6h-13.8v15.7c0 2.2-3.8 3.3-5.9 3.3-1.1 0-1.4-.4-1.4-1.4V688h-3c-7.8 0-11.7.3-14.2.8-.5.2-1.1 0-1.3-.5-.5-.9-.7-2-.8-3 0-.5.3-.8 1-.7 2.7.4 7.5.5 15.3.5h2.9v-32.8c-5.5 16.9-17.1 31.1-32.5 39.8l-1.1-1.6c13.6-12.1 24.1-28.9 27.4-43.2zm80.3 17.6c0-2.6-.1-5.2-.4-7.7 0-1 .4-1.3 1.4-1.3 2.7 0 10.2 2.7 10.2 4.8 0 1-1.5 2.2-3.4 3.3v2.2c0 1.8-.1 3.6-.3 5.5 8.7 4.2 16.5 9.6 18.1 12.2 2.6 4 2.4 9.5.5 11-1.3 1.1-3.2.7-4.4-1.6-4-7-8.9-13.5-14.7-19.1-2.5 13.8-12.1 25.4-30.4 32.8l-.9-1.6c17.1-11.2 24.3-24.8 24.3-40.5zm23-38.4c1.1-1.6 1.4-1.6 2.6-1.3 1.8.4 7.9 3.4 7.9 5 0 1.2-2.1 1.9-4.2 2.1 13.5 11.5 30.2 18.3 49.1 21.9v1.3c-3.3 1.4-3.7 2.2-4.2 4s-2 2.5-6.5 1.2c-12.1-3.5-28.4-13.5-40.5-26.4-11.3 12.8-29.5 23.1-50.6 28.6l-.7-1.8c20.4-8.7 38.2-21.2 47.1-34.6zm26.1 49.8c-3.5 15.8-15.4 25.8-31.6 30.7l-.9-1.6c17.2-9.7 25.8-21.9 25.8-40.5 0-5.8-.4-7.3-.4-8.5s.4-1.4 1.4-1.4c2.7 0 10.2 2.7 10.2 4.8 0 1-1.5 2.2-3.4 3.3v2.7c.8 16.7 14.2 29.1 27.9 34.6l-.1 1.4c-3.8.8-4.4 1.3-5.1 2.7-1.1 2-2.9 2.2-6-.1-9.1-7-15.4-16.9-17.8-28.1zm38.8-4.6c2.7.4 8.5.5 22.2.5h8.7c1.6-2.5 3.1-5 4.5-7.6h-5.9c-11.6 0-16.1.3-18.7.8-.5.2-1.1-.1-1.3-.5-.5-1-.7-2.1-.8-3.2 0-.5.3-.8 1-.7 2.7.4 8.2.5 19.7.5h7.3c1-2.5 1.9-5 2.6-7.5h-12.7c-12.4 0-17.1.3-19.6.8-.5.2-1.1-.1-1.3-.5-.5-1-.7-2.1-.8-3.2 0-.5.3-.8 1-.7 2.7.4 8.3.5 20.7.5h13.4c.7-2.6 1.1-5.2 1.3-7.9.1-1.1.5-1.4 1.4-1.3 1.9.4 3.7.9 5.5 1.6 5-6 8.3-11.7 9.8-16.3.4-1.3.8-1.6 1.8-1.4 2.7.5 8.1 2.7 8.1 4.2 0 1.1-2.1 1.6-3.7 2-.9 1.2-1.9 2.4-3 3.5H838c1.7-2 3.5-3.7 5.6-5.3.7-.6 1.8-.7 2.6-.1 1.7 1.3 3.3 2.8 4.8 4.5.7.6.7 1.7.1 2.4-.1.1-.1.1-.2.1-1.2.9-2.7 1.5-4.2 1.5H825c3.7 1 6.9 2.4 7.7 3.9 1.3 2.3.8 5.3-.8 6.5-1.3 1-2.8.2-3.6-1.4-1.6-3.4-3.9-6.5-6.8-9.1h-7.7c-2.6 2.1-5.4 4-8.3 5.7 1 .4 1.5 1 1.5 1.4 0 1-1.2 1.8-3.2 2.4l-.5 3h30.9c1.7-2 3.5-3.7 5.6-5.3.7-.6 1.8-.7 2.6-.1 1.7 1.4 3.3 2.9 4.8 4.5.7.6.7 1.7.1 2.3l-.2.2c-1.2.9-2.7 1.5-4.2 1.5h-40.3c-.7 2.6-1.5 5.1-2.5 7.5h30.2c1.7-2 3.5-3.7 5.6-5.3.7-.6 1.8-.7 2.6-.1 1.7 1.3 3.3 2.8 4.8 4.5.7.6.7 1.7.1 2.3l-.2.2c-1.2.9-2.7 1.5-4.3 1.5h-40.1c-1.2 2.6-2.6 5.2-4.1 7.6h44.7c1.9-2.1 3.9-4.1 6-5.9.8-.6 1.9-.7 2.7-.1 1.9 1.5 3.7 3.1 5.2 4.9.7.6.8 1.7.1 2.4-.1.1-.2.2-.3.2-1.3.9-2.9 1.5-4.6 1.5h-21.4c2.5.5 6.5 2.3 6.5 3.7 0 .8-.8 1.7-2.2 2.9v1.6h5.8c1.7-2 3.6-3.7 5.6-5.3.7-.6 1.8-.7 2.6-.1 1.7 1.4 3.3 2.9 4.8 4.5.7.6.7 1.7.1 2.4-.1.1-.1.1-.2.1-1.2.9-2.7 1.5-4.3 1.5H832V697c0 3.7-8.1 10.2-11 10.2-1.2 0-2-.7-2-2.2 0-2.6-.2-2.8-9.6-6.7l.3-1.3c5.7.7 9.7 1 12.1 1 2.2 0 3.4-.9 3.4-4.1v-7.1h-42.7c-7.9 6.7-16.9 11.9-26.6 15.4l-.9-1.6c12.5-7.2 22.6-15.6 29.7-25.1h-6.5c-13.7 0-18.7.3-21.2.8-.5.2-1.1-.1-1.3-.5-.5-1-.7-2.1-.8-3.2 0-.8.4-1 1-.9zm15.7-44.6c.4-1.2.8-1.5 1.8-1.3 2.7.5 8.3 2.8 8.3 4.4 0 1.1-2.1 1.6-3.7 2-.8 1.2-1.7 2.3-2.6 3.4h17.9c1.7-2 3.5-3.7 5.6-5.3.7-.6 1.8-.7 2.6-.1 1.7 1.3 3.3 2.8 4.8 4.5.7.6.7 1.7.1 2.3l-.2.2c-1.2.9-2.7 1.5-4.2 1.5h-19.1c3.8 1.1 6.9 2.6 7.8 4.2 1.3 2.3.8 5.3-.8 6.5-1.3 1-3 .2-3.7-1.3-1.9-3.4-4.2-6.6-7-9.4h-6.4c-4.5 4.6-9.7 8.5-15.4 11.4l-1-1.3c7.6-7.3 12.9-15.4 15.2-21.7zm14.1 62.9c6.9.8 13.6 2.6 15.5 4.2 2.5 2.3 2.6 6.9 1.1 8.4-1 1-2.7.9-4.2-.9-3.8-4.1-8.1-7.7-12.9-10.7l.5-1zm39.5-6.3v-1.6c0-2-.1-3.9-.3-5.9 0-.3.1-.6.3-.9h-32.3c-2.2 2.9-4.5 5.7-7.1 8.3l39.4.1zM527.8 796.8c-12.2-1.6-20.2-5.3-24.5-13.7-4 5.1-8.7 9.7-13.8 13.7-.3 1.8-.9 2.8-1.5 3.2s-1.5 0-2.6-1.4c-1.4-1.7-2.5-3.6-3.4-5.6-.4-1.1-.3-1.5.6-1.9 5.3-1.7 10.2-4.2 14.7-7.4v-27.4h-4.5c-3.3-.1-6.6.1-9.9.7-.5.2-1 0-1.2-.4-.4-.9-.7-2-.7-3 0-.5.3-.8.9-.7 3.6.5 7.3.6 10.9.5h2.8c1.3-1.5 2.7-2.9 4.1-4.2.8-.6 1.8-.6 2.6-.1 1.8 1.4 3.4 2.8 4.9 4.5.6.8.5 1.9-.2 2.5-.7.6-1.6 1.1-2.5 1.4v21.7c2 3.9 5.3 7 9.3 8.8 9.7-8.3 12.8-15 13.6-25.3-10.2 0-14.2.3-16.5.7-.5.2-1 0-1.2-.4-.4-.9-.6-2-.7-3 0-.4.2-.7.9-.5 2.5.3 7.4.4 17.7.4.1-2.3.1-4.7.1-7.4v-1.8c-.1-.2-.1-.5-.1-.8v-9.3c-8.5 0-12.2.3-14.3.7-.5.2-1 0-1.2-.4-.4-1-.7-2-.7-3.1 0-.4.2-.7.9-.5 2.3.3 6.7.4 15.3.4v-8.2c0-5.9-.3-7.1-.3-8.1-.1-.6.4-1.1 1-1.2h.2c2.3 0 9.1 2.4 9.1 4.4 0 .9-.9 2-2.7 3.4v9.7h17.5v-7.3c0-7-.3-8.3-.3-9.3-.1-.6.4-1.1 1-1.2h.2c2.3 0 9.2 2.4 9.2 4.4 0 .9-.9 2.1-2.7 3.5v9.9h5.6c1.8-2 3.8-3.9 5.9-5.7.8-.8 2.1-.8 3 0 1.8 1.3 3.5 2.9 5 4.6.7.7.7 1.8 0 2.5-1.3.9-2.8 1.5-4.4 1.5h-15v19.2h7.3c2-2.2 4.1-4.3 6.4-6.1.8-.7 2-.7 2.8 0 2 1.5 3.9 3.1 5.6 5 .7.7.7 1.8 0 2.5a7.1 7.1 0 0 1-4.4 1.5h-17.8v23c0 2.1-3.8 3.2-5.9 3.2-1.1 0-1.4-.4-1.4-1.5v-24.6h-17.8c-1.3 12.4-6.1 20-18.5 26.2 3.7 1.1 7.5 1.9 11.3 2.2 12.5 1 38.5.4 55.4-2.1l.3 1c-2.5 2-2.8 3.2-2.9 4.9-.2 2.7-1.8 3-5.2 3.3-16.2.5-35.9 0-47.3-1.5zm-41.4-74.6c8.4 1.7 15.2 4.7 17 6.9 2.3 2.4 2.7 7.4 1 9.3-1 1.1-2.7 1.3-3.8.3-.2-.2-.4-.4-.6-.7-4-5.5-8.7-10.4-14-14.6l.4-1.2zm66 37.6v-19.2H535v4.9h.1v8.9c0 1.9 0 3.6-.1 5.3l17.4.1zm67.8-18.6c.9-1.3 1.3-1.5 2.4-1.1 2.5 1 7.4 4.3 7.4 5.9 0 1.2-2.2 1.6-4.2 1.8-3.6 3.7-7.5 7-11.7 9.9 2.4 1 4.6 2.5 4.6 3.6 0 .8-1 1.6-2.5 2.5v33.3c0 2.2-3.8 3.4-6 3.4-1.1 0-1.4-.4-1.4-1.5v-33.1c0-2 0-3.5-.1-4.6-5.9 3.6-12.3 6.4-19 8.4l-.7-1.5c12.7-7.2 24.8-17.3 31.2-27zm-2.5-20.6c.9-1.2 1.3-1.3 2.3-.9 2.3 1 7 4.2 7 5.8 0 1.2-2.1 1.5-4 1.6-9 9.1-20.2 15.8-32.4 19.6l-.7-1.5c11.8-7 21.5-15.9 27.8-24.6zm13.7 30.4c2.7.4 7.9.5 17.3.5h26.5c2.1-2.5 4.5-4.7 7-6.8.9-.8 2.2-.8 3.2 0 2.2 1.6 4.2 3.4 6 5.5.8.7.8 1.9 0 2.7-1.3 1-3 1.6-4.7 1.6h-15.3c2.5 1.1 4.9 2.6 4.9 3.8 0 .9-1 1.8-2.5 2.6v28.4c0 4-9 11-12.5 11-1.4 0-2.2-.8-2.2-2.4 0-3-.3-3.3-11.2-7.8l.4-1.4c6.5.8 11.3 1.2 14.1 1.2 2.4 0 3.8-1.1 3.8-4.7v-22.7c0-5.5-.3-6.8-.3-7.9h-17.1c-9.5 0-13.8.3-16.2.8-.7.1-1 0-1.3-.5-.5-1-.7-2.1-.8-3.2 0-.5.3-.8.9-.7zm4.3-23.8c2.7.4 7.6.5 16 .5H670c2-2.2 4.1-4.4 6.4-6.3.9-.8 2.3-.8 3.2 0 2 1.5 3.8 3.2 5.5 5 .8.7.8 1.9 0 2.7-1.3 1-3 1.6-4.7 1.6h-28.7c-8.4 0-12.4.3-15 .8-.5.2-1.1-.1-1.3-.5-.5-1-.7-2.1-.8-3.2.1-.4.4-.6 1.1-.6zm73.1 6.3c2 0 7.1 2.1 8.9 4.1h27.7v-6.4c0-8-.3-9.4-.3-10.5-.1-.6.4-1.2 1-1.3h.3c2.5 0 10.1 2.7 10.1 4.9 0 .9-1.1 2.2-2.9 3.7v9.6h27.8c1.4-1.6 2.9-3.2 4.5-4.6.8-.7 2-.7 2.8-.1 2 1.4 3.7 3 5.3 4.8.7.8.6 2.1-.2 2.8-.7.5-1.4.9-2.2 1.3v23.8c0 3.3-3.4 9-5.5 9s-3.9-3-4.8-5.3h-27.8V797c0 2.4-4.4 3.5-6.7 3.5-1.2 0-1.5-.4-1.5-1.6v-29.6h-29.7v2c0 2.3-4.2 3.6-6.3 3.6-1.2 0-1.5-.4-1.5-1.5V744c0-6.8-.3-8.2-.3-9.2s.5-1.3 1.3-1.3zm36.6 32.6v-25.3h-27.7c-.6.8-1.3 1.5-2 2.2v23.1h29.7zm36.6 0c1.3 0 1.8-.7 1.8-2.4v-22.9h-30.1v25.3H782z" style="fill:#040404"/></svg>