<svg xmlns="http://www.w3.org/2000/svg" viewBox="0 0 1280 960" style="enable-background:new 0 0 1280 960" xml:space="preserve"><path d="M253.9 299.1v2.6h-2.7v2.6h-2.6v-2.6h-5.3v2.6h-2.6v-2.6h-5.3v-2.6h8v-2.7h2.7v2.7h7.8zm-18.6 8v-2.6h5.3v2.6h-5.3zm0 8v-5.3h2.6v5.3h-2.6zm8-2.7h8v2.6h-10.7v-5.3h2.6l.1 2.7zm2.7-8v2.6h-2.7v-2.6h2.7zm2.6 2.7v2.6h-2.7v-2.6h2.7zm5.3-2.7v2.6h-2.7v-2.6h2.7zm0 8h-2.7v-2.7h2.6l.1 2.7zm21.2-13.3v2.6h-2.6v2.6h2.6v2.6h-2.6v8h-13.3v-8h-2.6v-2.6h2.6v-2.6h-2.6v-2.6h5.3v-2.7h2.6v2.7h2.6v-2.7h2.7v2.7h5.3zm-5.3 5.3v-2.6h-8v2.6h8zm0 5.3v-2.6h-8v2.6h8zm10.6 5.3h-2.7v-2.6h2.7v2.6zm0-15.9h2.6v2.6h13.3v5.3h-2.6v-2.6h-5.3v5.3h-2.6v-5.3H283v8h-2.6v-13.3zm2.6 0v-2.7h13.3v2.7H283zm0 15.9v-2.6h5.3v2.6H283zm8-2.6h-2.6v-2.7h2.6v2.7zm2.7-2.7H291v-2.6h2.7v2.6zm2.6 5.3H291v-2.6h5.3v2.6zm18.6-18.5v2.7h2.7v5.3h-2.7v-2.6h-2.6v2.6h2.6v2.6h-2.6v2.6h2.6v2.7h-2.6v2.6H307v-2.6h2.6v-2.7h-2.7v-2.6h-2.6v2.6h2.6v2.7h-2.6v2.6H299v-2.6h2.6v-5.3H299v-2.6h2.6v-2.6h2.7v2.6h2.6v-2.6h-2.6v-2.6H299v-2.7h8v2.7h2.6v-2.7h5.3zm2.6 10.6v2.6h-2.7v-2.6h2.7zm0 5.3v2.6h-2.7v-2.6h2.7zm21.2-13.3v2.6h-2.6v2.6h2.6v2.6h-2.6v8h-13.3v-8h-2.6v-2.6h2.6v-2.6h-2.6v-2.6h5.3v-2.7h2.7v2.7h2.6v-2.7h2.6v2.7h5.3zm-5.3 10.6v-2.6h-8v2.6h8zm-2.6-5.3v-2.6h-2.6v2.6h2.6zm29.1-5.3v2.6h-2.6v2.6h2.6V315h-10.6v-8h-2.6v8h-5.3v-2.6h2.6v-2.7h-2.6v-2.6h2.6v-2.6h-2.6v-2.6h2.6v-2.6h5.3v-2.7h2.7v2.7h2.6v-2.7h2.6v2.7h2.7zm-18.5 0v-2.7h2.6v2.7h-2.6zm5.3 2.7v2.6h2.6v-2.6h-2.6zm5.3 2.6h2.6v-2.6H352v2.6zm5.3 8v-2.7H352v2.7h5.3zm15.9-13.3h-2.6v2.6h2.6v2.6h8v5.3h-2.6V307h-2.7v2.6h-2.7V307h-2.6v-2.6h-5.3v2.6h-2.7v-5.3h5.3v-2.6h-5.3v-2.7h10.6v2.7zm-2.6 8v2.6h2.6v2.7h-2.6v2.6h-2.7v-2.7h-5.3v-2.7h2.7V307l5.3.1zm5.3-5.3h-2.6v-2.6h2.6v2.6zm0 13.3h-2.6v-2.7h2.6v2.7zm0-18.6h5.3v5.3h-2.6v-2.6h-2.7v-2.7zm2.6 15.9h-2.7v-2.7h2.7v2.7zm2.7 0v2.6h-2.6v-2.7l2.6.1zm58.3-8h-2.6v2.6h2.6v2.6h-13.3V307h8v-2.6h-8v-5.3h2.6v2.6h2.6v-2.6h-2.6v-2.7h8v2.7h-2.7v2.6h5.3v2.7zM428.9 315h-2.6v-2.6h2.6v2.6zm5.3 0h-2.6v-2.6h2.6v2.6zm5.3 0h-2.6v-2.6h2.6v2.6zm2.7-18.5v2.7h2.6v5.3h-2.6v-2.6h-2.6v-5.3h2.6zm0 10.6h-2.6v-2.6h2.6v2.6zm2.6 0v2.6h-2.6v-2.6h2.6zm0 8h-2.6v-2.7h2.6v2.7zm15.9-10.7h2.7v2.6h-2.7v2.6h-2.6V307h-2.6v-2.6h-2.6v2.6h2.6v2.6h-2.6v2.7h2.6v2.6h-5.3v-2.6h-2.7V307h2.7v-2.6h-2.7v-2.6h2.7v-2.6h-2.7v-2.7h8v2.7h-2.6v2.6h2.6v-2.6h2.6v-2.7h2.6v7.9zm-2.6 8h-2.6v-2.7h2.6v2.7zm5.3-2.6v2.7h-2.7v-2.7h2.7zm0-10.6h2.6v5.3h-2.6v-5.3zm2.6 13.2v2.6h-2.6v-2.6h2.6zm191-13.3v5.3h-2.7v-2.6h-8v2.6h-2.7v-2.6H641v2.6h-2.7v-5.3h8v-2.7h2.6v2.7h8.1zm-18.6 8h2.7v-2.6h2.7v8h2.7v2.6h-5.3v-5.3h-2.7v-2.7zm8-2.7h2.6v5.3h-2.7l.1-5.3zm5.3 8H649v-2.7h2.7v2.7zm0-2.6v-5.3h2.7v5.3h-2.7zm5.3 5.3h-5.3v-2.7h5.3v2.7zm2.6-13.3v-2.6h2.7v2.6h-2.7zm10.6-2.7h2.7v2.6h2.7V315h-13.3v-13.3h2.7v-2.6h-2.7v-2.7h8l-.1 2.7h-2.7v2.6h2.7v-2.6zm-2.6 5.3h-2.7v2.6h2.7v-2.6zm-2.7 5.3v2.7h2.7v-2.7h-2.7zm5.3-2.6h2.7v-2.6h-2.7v2.6zm0 5.3h2.7v-2.7h-2.7v2.7zm2.7-15.9h5.3v5.3h-2.7v-2.6h-2.7v-2.7zm10.6 13.2h-2.7v-2.6h2.7v2.6zm0 5.3h-2.7v-2.6h2.7v2.6zm10.6-18.5v2.7h2.7v2.6h-2.7v2.6h-2.7v-2.6h-5.3v2.6h5.3v5.3h-5.3v-2.6h-2.7v-8h8v-2.7l2.7.1zm-2.6 13.2h2.7v2.7h2.7v2.6h-10.6v-2.6h5.3v-2.7zm5.3-2.6h-2.7v-2.6h2.7v2.6zm0-10.6h2.7v2.7h-2.7v-2.7zm2.6 5.3v2.6h-2.7v-2.6h2.7zm0 10.6h-2.7v-5.3h2.7v5.3zm63.7-13.3v5.3h-2.7v-2.6h-2.7v2.6H755v2.6h8v2.6h-8v5.3h-5.3v-2.6h2.7v-2.7h-8V307h8v-2.6h-2.7v-2.6H747v2.6h-2.7v-5.3h8v-2.7h2.7v2.7h8.1zm7.9 2.7v-5.3h2.7v18.6H771v-2.7h-2.7v-2.7h2.7v-5.3h-5.3v-2.6h5.3zm-2.7 13.3h-2.7v-2.7h2.7v2.7zm10.7-10.7v8h-2.7v-16h2.7v5.3h2.7v2.6H779zm5.3 10.6H779v-2.6h2.7v-2.7h2.7l-.1 5.3zm-2.7-15.9h2.7v2.6h-2.7v-2.6zm10.6 2.7v5.3h2.7v2.6h-2.7v5.3h-2.7v-2.6H787v-8h2.7v-2.6H787v-2.6h2.7v-2.7h2.7v2.7h2.7v2.6h-2.9zm8-2.7v5.3h5.3v8h-2.7v-5.3h-8v-2.6h2.7v-5.3h-2.7v-2.7h10.6v2.7l-5.2-.1zm-2.6 16v-2.7h5.3v2.6l-5.3.1zm31.8-18.6h2.6v2.7h-2.7l.1-2.7zm0 8v-2.6h2.6v2.6h-2.6zm0 2.6h2.6v8h-2.7l.1-8zm18.6-10.6v2.7h-2.7v2.6h-2.7v2.6h2.7v-2.6h2.7v13.3h-2.7v-2.7h-10.6v-5.3H832v-2.6h2.7v-5.3h2.7v-2.7H848zm-10.6 8h2.6v-2.6h-2.7l.1 2.6zm0 2.6v2.6h2.6v-2.6h-2.6zm7.9 2.7v-2.6h-2.7v2.6h2.7zm106.1-.1h2.6v2.7h-5.3v2.6H946v-2.6h-2.7v2.6h-2.7v-2.6h-5.3v-2.7h2.7v-5.3h2.7v-5.3h2.7v2.6h2.7v-2.6h-2.7v-2.7h5.3v8h2.7v5.3zm-10.6-2.6v2.6h2.7v-2.6h-2.7zm5.3 0v2.6h2.7v-2.6h-2.7zm61 2.6h-2.7v2.7h2.7v2.6h-8v-8h2.7v-2.6h-2.7v-8h18.6v2.7h-2.7v2.6h-2.7v-2.6h-2.7v2.6h-2.7v2.6h-2.7v2.6h2.7l.2 2.8zm-2.7-10.6h-2.7v2.6h2.7v-2.6zm5.3 5.3v-2.6h2.7v2.6h5.3v2.6h-5.3v2.6h2.6v2.7h-2.7v2.6h-2.7v-2.6h-2.7v-2.7h2.7V307h-2.7v-2.6h2.8zm8 8v2.6h-2.7v-2.7l2.7.1zm-702.8 15.9h2.7v2.7h-2.7v5.3h-13.3V331H299v-2.6h2.6v-8h2.7v-2.6h2.6v2.6h2.6v-2.6h2.6v2.6h2.6l.2 7.9zm-8-5.3h-2.6v2.6h2.6V323zm5.2 10.6V331h-8v2.6h8zm0-7.9V323h-2.6v2.6l2.6.1zm111.5-5.3v2.6H421v2.6h-5.3v2.6h5.3v8h-5.3v-2.7h2.6V331H413v2.6h-2.7V331h-2.6v-2.6h5.3v-2.6h-5.3V323H405v-2.7h5.3v-2.6h2.7v2.6h2.6v-2.6h2.6v2.6h5.4zm-18.6 8v-2.6h2.6v2.6H405zm0 8v-2.7h5.3v2.7H405zm18.6-10.7v2.6H421v-2.6h2.6zm76.9 2.6v2.7h2.6v2.6h-2.6v2.7h-5.3v-2.7h2.7v-5.3h-2.7v5.3h-2.6V331h-2.7v-2.6h2.6V323h2.6v2.6h8V323h-8v-5.3h2.7v2.6h8v8h2.6v2.6h-5.3v-2.6h-2.6zm-8 8h-2.6v-2.7h2.6v2.7zm15.9 0h-5.3v-2.7h5.3v2.7zm2.7-10.6V323h2.7v2.6l-2.7.1zm2.7 10.6h-2.6v-2.7h2.6v2.7zm0-18.6h2.7v2.6h2.7V331h-2.7v-2.6h-2.7v-2.6h2.7V323h-2.7v-5.3zm2.6 15.9h-2.7V331h2.7v2.6zm8-10.6h2.6v2.6h-2.7v10.6h-2.7v-18.6h2.7l.1 5.4zm2.7 5.3v-2.6h2.7v2.6h-2.7zm15.8-2.6h5.3V323h2.7v5.3h-2.7v5.3h2.7v2.7H535v-2.7h-2.7v-8h2.7V323h-2.7v-2.7h2.7v-2.6h2.7v2.6h2.7v2.6h-2.7v2.6h2.7V323h2.7l-.2 2.7zm-5.3 7.9h2.7v-5.3h-2.7v5.3zm8-15.9v2.6h2.7v2.6H543v-2.7h-2.7v-2.6h5.3zm-2.7 13.3h2.7v-2.6h-2.7v2.6zm5.3-13.3h2.7v2.6h-2.7v-2.6zm90.2 2.7h2.7v15.9h-2.7v-15.9zm2.7-2.7h2.7v2.6h-2.7v-2.6zm2.6 5.3h2.7v8h-2.7v-8zm5.3 0v-2.7h2.7v2.6l-2.7.1zm0 5.3v-2.6h2.7v2.6H649zm0 8v-2.7h5.3v2.7H649zm2.7-18.6h5.3v5.3h-2.7v-2.7h-2.7l.1-2.6zm2.6 8h-2.7V323h2.7v2.7zm0 5.3h-2.7v-2.6h2.7v2.6zm2.7-5.3v2.6h-2.7v-2.6h2.7zm0 5.3v2.6h-2.7V331h2.7zm106.1-13.3v5.3h-2.7v-2.7h-2.7v2.7h2.7v2.6h2.7v5.4h-2.7v-2.6h-2.7v2.6h2.7v2.6h2.7v2.7h-10.6v-2.7h-2.7v2.7h-5.3V331h2.7v-2.6h2.7v-2.6h2.7V323h2.7v-2.7h-2.7v2.7h-2.7v-2.7h-5.3v-2.6h18.5zm-13.3 5.3v2.6h-2.7v2.6h-2.7V323h5.4zm2.7 8h2.7v-2.6h-2.7v2.6zm50.4-8h2.7v13.3h-5.3v-2.7h2.7V331h-2.7v2.6h-2.7v2.7h-2.7V331h-2.7v5.3h-2.7v-2.7H787v-8h2.7V323H787v-2.7h2.7v-2.6h2.7v2.6h2.7v2.6h-2.7v5.3h2.7V323h5.3v-2.7h-2.7v-2.6h5.3l-.1 5.3zm-2.7 5.3h2.7v-2.6h-2.7v2.6zm21.2-7.9h5.3v8H824V323h-5.3v2.6h2.7v2.6h-2.7v2.7h2.7v2.6h-2.7v2.7H816v-2.7h-8V331h2.7v-10.6H808v-2.6h13.3l.1 2.6zm-7.9 0v2.6h2.7v-2.7l-2.7.1zm0 8h2.7v-2.6h-2.7v2.6zm10.6 2.6h-2.7v-2.6h2.7v2.6zm2.6 0v2.6H824V331h2.7zm10.6-5.3v2.6h-2.7v2.7h2.7v2.6h-2.7v2.7H832V331h-2.7v-2.6h2.7v-2.6h-2.7v-5.3h2.7v2.6h2.7v2.6h2.6zm0-8v2.6H832v-2.6h5.3zm0 5.3h2.7v2.6h-2.7V323zm2.7 10.6v2.7h-2.7v-2.7h2.7zm8-10.6h-8v-5.3h2.7v2.6h5.4l-.1 2.7zm-8 8h2.7v2.6H840V331zm5.3-5.3v5.3h-2.7v-5.3h2.7zm2.7 10.6h-2.7V331h2.7v5.3zm15.9-15.9v5.3h2.7v2.6h-2.7v5.3h-2.7v-13.3h-5.3v2.6h2.7v10.6h-2.7V331h-2.7v-2.6h2.7v-2.6h-2.7v-5.3h-2.7v-2.7h18.6v2.6h-5.2zm-13.3 8v-2.6h2.7v2.6h-2.7zm0 8v-2.7h5.3v2.7h-5.3zm18.6 0h-5.3v-2.7h2.7V331h2.7l-.1 5.4zm-2.7-13.4h2.7v2.6h-2.7V323zm5.3-5.3h2.7v2.6h-2.7v-2.6zm0 8V323h2.7v2.6l-2.7.1zm0 2.7h2.7v8h-2.7v-8zm18.6-10.7v2.6h-2.7v2.6H885v2.6h2.7V323h2.7v13.3h-2.7v-2.7h-10.6v-5.3h-2.7v-2.6h2.7v-5.3h2.7v-2.6l10.6-.1zm-10.6 8h2.7V323h-2.7v2.7zm0 2.7v2.6h2.7v-2.6h-2.7zm8 2.6v-2.6h-2.7v2.6h2.7zm53-8v2.6h2.7v2.6h-2.7v8h-2.7v-2.7h-2.7v-8h2.7V323h-2.7v-2.7h2.7v-2.6h2.7v2.6h2.7v2.6h-2.7zm5.3 0v2.6h-2.7V323h2.7zm2.6 5.3h5.3v2.7h-2.7v5.3h-8v-8h2.7v-2.6h2.7v2.6zm2.7-2.7h-2.7V323H946v-5.3h2.7v2.6h2.7v5.3zm-5.3 8h2.7V331h-2.7v2.6zm10.6 2.7V331h2.7v5.3h-2.7zm15.9-5.3H970v2.6h2.7v2.7H962V331h-2.7v-10.6h2.7v2.6h8v-2.7h-8v-2.6h10.6V331zm-10.6-5.3v2.6h8v-2.6h-8zm2.7 5.3v2.6h2.7V331h-2.7zm8 2.6V331h2.7v2.6h-2.7zm21.1-10.6h2.7v5.3h-2.7v-2.6h-2.7v2.6h2.7v2.7h2.7v2.6h-8v2.7h-2.7v-2.7h-8V331h2.7v-2.6h2.7v-2.6h-2.7v2.6h-2.6V323h2.7v-5.3h13.3v5.3zm-2.6 0v-2.7h-8v2.7h8zm23.8 0v2.6h-2.7v2.6h2.7v2.7h-2.7v2.6h-2.7v-8h-2.7v5.3h-2.7v-5.3h-5.3V323h5.3v-5.3h2.7v5.3h8.1zm-13.3 13.3H999v-2.7h2.7v2.7zm2.7-2.7h-2.7V331h2.7v2.6zm5.3 2.7h-2.7v-2.7h2.7v2.7zm2.6-16v-2.6h2.7v2.6h-2.7zm5.4 16h-5.3v-2.7h5.3v2.7zm-2.7-15.9h2.7v2.6h-2.7v-2.6zm2.7 5.3v2.6h-2.7v-2.6h2.7zm18.5 2.6h2.7v2.7h-2.7v5.3H1023V331h-2.7v-2.6h2.7V323h2.7v2.6h8V323h2.7l-.2 5.3zm-2.6-5.3h-8v-2.7h-2.6v-2.6h13.3v2.6h-2.7v2.7zm0 10.6V331h-8v2.6h8zm10.6-13.2h-2.7v-2.6h2.7v2.6zm0 5.3h-2.7V323h2.7v2.7zm-2.6 2.6h2.7v8h-2.7v-8zm18.5-8v2.7h-2.7v2.6h-2.7V323h-2.7v2.6h-2.7V323h-2.7v-2.7h5.3v-2.6h2.7v2.6h5.5zm-5.3 5.3v2.6h2.7v-2.6h2.7v5.4h-5.3v5.3h-2.7V331h-5.3v-5.3h2.7v2.6h2.7v-2.6l2.5-.1zm-737.3 16v15.9h-5.3v-2.6h2.6v-2.6h-2.6v-2.6h-2.6v2.6h2.6v2.6h-5.3v2.6h-2.6v-2.6H299v-10.6h5.3v-2.6h2.6v-2.6h2.6v2.6h8zm-15.9 10.6h2.7v-5.3h-2.7v5.3zm13.3-5.3v-2.7h-8v2.7h8zm106 2.6v2.6h-2.6v2.6h5.3v2.6h-15.9v-2.6H405v-5.3h2.6v-2.6H405v-2.7h2.6v-5.3h2.6v5.3h2.7v2.7h-2.7v8h5.3v-2.6H413v-5.3h2.6v-2.7H413v-2.6h2.6V339h2.6v2.6h2.6v2.6h-2.6v2.7h5.3v2.6h-2.6zm42.5-7.9v5.3h2.6v5.3h-2.6v-2.6h-2.7v5.3h5.3v2.6h-13.2v-2.6h-2.6v-8h-2.7v-2.7h5.3v2.7h5.3v-2.7h-5.3v-2.6h2.6V339h2.6v2.6h5.4zm-13.3 15.9h-2.7v-2.6h2.7v2.6zm0-15.9V339h2.6v2.6h-2.6zm5.3 13.2h2.6v-2.6h-2.6v-2.6h-2.6v2.6h2.6v2.6zm8-15.9h2.6v2.6h-2.6v-2.6zm37.1 5.3v2.7h2.6v2.6h-2.6v8h-2.6v-10.6h-2.7v10.6h-5.3v-13.3h5.3v-2.6h-5.3V339h10.6v2.6h-2.6v2.6h2.6zm5.3-2.6V339h2.6v18.6h-5.3V355h2.6v-2.6h-2.6v-2.6h2.6v-5.3h-5.3v-2.6l5.4-.3zm42.4-2.7v2.6h2.7v5.3h-2.7v-2.7h-2.7v2.7h-8v-2.7H535v2.7h-2.7v-5.3h2.7v-2.6h2.7v2.6h2.7v-2.6h2.7v2.6h2.7v-2.6h2.4zm-15.9 18.6v-2.6h5.3v2.6h-5.3zm2.7-10.6h2.7v5.3H535v-5.3zm5.3 7.9h-2.7v-2.6h2.7v2.6zm0-2.6v-2.6h2.7v2.6h-2.7zm5.3 0v2.6h2.7v-2.6h2.7v5.3h-8v-5.3h2.6zm0 0v-5.3h2.7v5.3h-2.7zm50.4-10.6V339h2.7v2.6H596zm0 2.6h2.7v-2.6h2.7v15.9H596v-2.6h2.7v-2.6H596v-2.6h2.7v-2.6H596v-2.9zm18.6-5.3v8h-2.7v-2.7h-5.3v2.7h5.3v2.6h-5.3v5.3h2.7v2.6H604v-15.9h-2.7v-2.6h13.3zm-2.7 15.9h-2.7v-2.6h2.7v2.6zm2.7-5.3v2.6h-2.7v-2.6h2.7zm0 5.3v2.6h-2.7v-2.6h2.7zm13.2-10.6v2.7h5.3v2.6h2.7v8h-18.6v-8h2.7v-2.6h5.3v-2.7h-8v-2.6h5.3V339h2.7v2.6h2.7V339h2.7v2.6h5.3v2.6h-8.1zm-7.9 8v2.6h2.7v-2.6h-2.7zm5.3 0v2.6h2.7v-2.6h-2.7zm5.3 2.7h2.7v-2.6h-2.7v2.6zm26.5-13.3v2.6h-2.7v2.7h-2.7v2.6h2.7v-2.6h2.7v5.3h-10.6v2.6H657v2.6h-13.3v-2.6H641v-2.6h-2.7v-2.6h2.7V347h-2.7v-2.7h2.7v-2.6h5.3v-2.6h2.6v2.6h8.1zm-15.9 15.9h-2.7v-2.6h2.7v2.6zm5.3-8h2.6v-2.6h-2.7v-2.7h-2.7v2.7h2.7l.1 2.6zm29.1-2.6h2.7v2.6h-2.7v8h-2.6v-8h-5.3v5.3h-2.7v-5.3h-5.3v-2.6h5.3v-2.7h-2.7v-2.6h5.3v5.3h5.3v-5.3h2.7v5.3zm-10.6 10.6h-2.7v-2.6h2.7v2.6zm2.7-18.6h2.7v2.6h-2.7v-2.6zm29.2 5.3v-2.6h2.7v5.3h-5.3v2.6h5.3v8h-2.7v-5.3h-2.7v5.3h-5.3v-2.6h-8v-13.3h5.3v2.6h-2.7v8h2.7v-8h2.7v-2.6h2.7V339h2.7v5.3h2.6zm-8 5.3h2.7v-2.6h-2.7v2.6zm61 0v2.6h-2.7v-5.3h-2.7v-2.7h5.3v-2.6H747v-2.6h13.3v2.6h-2.7v2.6h5.3v2.7h-2.7v5.3h-2.7v-2.6h-7.7zm-5.3 8v-2.6h5.3v2.6h-5.3zm13.3-5.3v2.6h5.3v2.6h-8v-2.6h-5.3v-2.6h8zm-2.7-10.6h-2.7v2.6h2.7v-2.6zm21.2 2.6h2.7v2.7h2.7v10.6h-13.3v-8h-2.7v-8h2.7v5.3h2.6v-2.7h2.7v2.7h2.7l-.1-2.6zm-2.6-5.3v2.6h-5.3v-2.6h5.3zm0 10.6H771v2.6h2.7v-2.6zm10.6-10.6v8h-2.7v-2.7H779v-2.6h-2.7V339l8-.1zm-8 13.3h2.7v-2.6h-2.7v2.6zm50.4-10.6v2.6H824v2.7h2.7v5.3H824v-2.6h-2.7v2.6h-2.7v2.6h2.7v2.6h-8v-2.6h2.7v-2.6h-2.7v2.6h-2.7v2.6h-2.7v-8h2.7v-5.3h-2.7v-2.6h5.3v-2.6h2.7v2.6h2.7v5.3h2.7v-8h2.7v2.6l2.7.2zm-10.6 2.6h-2.7v2.7h2.7v-2.7zm8 10.6h-2.7v-2.6h2.7v2.6zm2.7 0v2.6h-2.7v-2.6h2.7zm34.4-15.9v2.6h-5.3v2.6h5.3v5.3h-2.7v-2.6h-5.3v-5.3h-2.7v-2.6h10.7zm-10.6 10.6v-2.6h2.7v2.6h-2.7zm0 8v-2.6h5.3v2.6h-5.3zm2.6-5.3v-2.6h5.3v5.3h-2.7v-2.6h-2.6zm13.3-13.2h2.7v18.6h-5.3V355h2.7v-2.6h-2.7v-8h2.7l-.1-5.4zm53.1 5.2v5.3h2.7v2.6h-2.7v5.3h-2.7v-2.6h-2.7v-2.6h2.7v-5.3h-2.7v-2.7h5.4zm-2.7-5.3h2.7v2.6h-2.7v-2.6zm10.6 15.9h-2.7v-15.9h2.7v15.9zm2.7 0v-2.6h2.7v5.3h-5.3v-2.6h2.6zm5.3-13.2h2.7v15.9h-2.7v-15.9zm2.6 0V339h2.7v2.6h-2.7zm15.9-2.7v8h-2.7v2.6h-2.7v2.6H946v-2.6h-5.3v-8h2.7v2.6h2.7v-2.6h-2.7v-2.6H954zm-10.6 18.6h-2.7v-2.6h2.7v2.6zm2.7-2.7h-2.7v-2.6h2.7v2.6zm2.6-10.6h2.7v-2.6h-2.7v2.6zm0 13.3v-5.3h2.7v2.6h2.6v2.6h-5.3zm5.3-8v2.6h-2.7v-2.6h2.7zm39.8-7.9v5.3h2.7v2.6h-2.7v2.6h-2.7v-2.6h-2.7v2.6h2.7v5.3h-5.3v-8h-2.7v8h-5.3v-2.6h2.7v-2.6h-2.7v-2.6h2.7v-5.3h-2.7v-2.6h2.7v-2.6h2.7v2.6h10.6zm-10.6 2.6v2.7h2.7v-2.7h-2.7zm5.3 2.7h2.7v-2.7h-2.7v2.7zm5.3-8h2.7v2.6h-2.7v-2.6zm2.7 18.5h-2.7v-5.3h2.7v5.3zm18.5-10.5v2.6h-2.7v2.6h-2.7v-2.6h-2.7v2.6h2.7v2.6h2.7v-2.6h2.7v2.6h2.7v2.6h-13.3v-2.6h-5.3v-8h2.7v5.3h2.7v-5.3h-2.7v-5.3h-2.7v-2.6h8v2.6h-2.7v2.6h2.7v2.7l7.9.2zm-5.3-5.3v2.6h-2.7v-2.6h2.7zm0-2.7h2.7v2.6h-2.7v-2.6zm5.3 2.7v2.6h-2.7v-2.6h2.7zm2.7 2.6v2.7h-2.7v-2.7h2.7zm0 5.3v2.6h-2.7v-2.6h2.7zm-710.8 21.3v2.6h2.6v2.6h-5.3v-13.3h-5.3v-2.6h10.6v2.6h-2.6v5.3h2.6v-2.6h2.6v5.3h-5.2zm-5.3 5.2h2.7v2.6H299v-13.3h2.6V376zm10.6 2.7h-2.6V376h2.6v2.7zm2.6-18.6v2.6h2.7v8h-2.7v-5.3h-2.6v-5.3h2.6zm-2.6 15.9v-5.3h2.6v5.3h-2.6zm5.3 0v2.6h-2.7V376h2.7zm87.5-10.6v-2.6h2.6v2.6H405zm5.3 10.6h2.7v2.6h-5.3v-8H405v-2.7h2.6v-2.6h2.6V376zm-2.7-15.9h2.6v2.6h-2.6v-2.6zm16 2.7v2.6H421v2.6h2.6v5.3H421v-2.6h-2.6v2.6h-2.6v2.6H413v-13.3h5.3V360h2.6v2.6l2.7.2zm-8 5.3h2.6v-2.6h-2.6v2.6zm2.7 10.6h-2.6V376h2.6v2.7zm2.6-2.7h-2.6v-2.6h2.6v2.6zm2.7 0v2.6H421V376h2.6zm31.8-5.2v2.6h-2.6v2.6h-2.6v-8h-2.7v-2.6h5.3v5.3l2.6.1zm-5.3 7.9h-2.7v-2.6h2.7v2.6zm0-15.9v-2.6h2.6v2.6h-2.6zm13.3 0v-2.6h2.6v5.3h-5.3v2.6h2.7v2.7h-2.7v5.3h5.3v2.6h-13.2V376h5.3v-5.3h-2.6v-5.3h-2.6v-2.6h5.3v-2.6h2.6v2.6h2.6zm2.6 8v2.6h-2.6v-2.6h2.6zm23.9-8h2.6v2.6h-2.6v-2.6zm2.6 13.3h-2.6v-2.7h2.6v2.7zm2.7-2.7h-2.6v-2.6h2.6v2.6zm0-5.3v-2.6h2.7v2.6h-2.7zm2.7-5.3h2.6v2.6h-2.6v-2.6zm2.6 2.6h2.6v2.6h2.6v8h-2.6v-5.3h-5.3V368h2.6v-2.6zm-2.6 10.7v-2.7h2.6v2.6l-2.6.1zm2.6-16h2.6v2.6h-2.6v-2.6zm2.7 18.6h-2.6v-2.6h2.6v2.6zm2.6-15.9v2.6h-2.6v-2.6h2.6zm0 5.3v-2.6h2.6v2.6h-2.6zm34.5 0v8h-2.7v-2.7H535v2.6h2.7v2.6h-5.3V360h8v5.3h2.7v2.6h-2.8zm-2.7-5.3H535v2.6h2.7l-.1-2.6zm-2.6 5.3v2.7h2.7v-2.7H535zm8 10.6h-2.7V376h2.7v2.7zm2.6-18.6v5.3H543v-5.3h2.6zm-2.6 8h8v10.6h-5.3v-2.6h2.7v-5.3h-2.7v5.3H543v-8zm5.3-8h2.7v5.3h-2.7v-5.3zm53 15.9h2.7v2.6h-5.3V368H596v-2.6h5.3V376zm-2.7-15.9h2.7v2.6h-2.7v-2.6zm15.9 8h-2.6v5.3h-2.7v2.6h2.7v-2.6h2.7v5.3h-8V376h-2.7v-13.3h2.7v2.6h2.7v-2.6h-2.7v-2.6h5.3v5.3h2.7l-.1 2.7zm-7.9 0v2.7h2.7v-2.7h-2.7zm76.9-5.3h-2.7v-2.6h2.7v2.6zm0 5.3h-2.7v-2.6h2.7v2.6zm-2.6 2.7h2.7v8h-2.7v-8zm13.2-8h5.3v5.3h-2.7v-2.6H694v2.6h-2.7v-2.6h-2.7v2.6h-2.7v-5.3h5.3v-2.6h2.7l.2 2.6zm-2.6 8h2.7v-2.7h2.7v2.7h2.7v2.6h-2.7v5.3h-8v-5.3h-2.7v-2.6h2.7v-2.7h2.7l-.1 2.7zm0 5.2h2.7v-2.6h-2.7v2.6zm63.6-13.2v2.6h8v13.3h-5.3v-2.6h2.7v-8h-5.3v2.7h-2.7v-2.7h-5.3v10.6h-2.7v-13.3h8v-2.6h-8v-2.6h18.6v2.6h-8zm-2.6 10.6h-2.7v-2.6h2.7v2.6zm5.3-2.6v2.6h-2.7v-2.6h2.7zm47.7-8v2.6h-2.7v2.6h-2.7v-2.6h-2.7v2.6h2.7v2.7h2.7v8h-8v-2.6h-5.3v-5.3h2.7v2.6h2.7v-2.6h-2.7v-2.7h-2.6v2.7H787v-5.3h2.7v-5.3h2.7v5.3h2.7v-5.3h8v2.6h2.4zm-15.9 15.9H787v-2.6h2.7l-.1 2.6zm8-2.6h2.7v-2.7h-2.7v2.7zm8-8v2.7h-2.7v-2.7h2.7zm21.1-5.3v2.6H824v2.6h2.7v2.7H824v2.6h2.7v2.6h-5.3v2.6h-2.7V376H816v-5.3h-2.7v8h-2.7v-2.6h-2.7v-8h2.7v-2.6h-2.7v-2.6h2.7v-2.6h2.7v2.6h5.3v-2.6h2.7v2.6l5.4-.1zm-13.2 2.6v2.6h2.7v-2.6h-2.7zm5.3 2.7h2.7v-2.6h-2.7v2.6zm23.8-8v2.6h-5.3v2.6H832v-2.6h-2.7v-2.6h13.3zm-13.2 8v-2.6h2.6v2.6h-2.6zm2.6 0h2.7v2.7h2.7v2.6h-8v-2.6h2.7l-.1-2.7zm0 10.6h-2.7v-2.6h2.6l.1 2.6zm5.3 0h-2.7v-2.6h2.7v2.6zm2.7-7.9h-2.7v-5.3h2.7v5.3zm2.6 7.9H840v-2.6h2.7l-.1 2.6zm2.7-15.9v-2.6h2.7v13.3h-5.3v-2.6h2.7v-2.7h-2.7v-5.3h2.6zm2.7 15.9h-2.7v-2.6h2.7v2.6zm13.2-13.3h2.7v2.6h2.7v5.3h-2.7v-2.6h-8v2.6h-2.7V368h-2.6v-5.3h2.7v2.6h5.3v2.6h2.7v-2.5zm-2.6-5.3v2.6h-5.3v-2.6h5.3zm-5.4 18.6v-2.6h5.3v2.6h-5.3zm8-2.6h-2.7v-2.7h2.7v2.7zm8-16v8h-2.7v-2.6h-2.7v-2.6h-2.7v-2.6l8.1-.2zm-2.7 18.6h-2.7v-2.6h2.7v2.6zm23.9-15.9v5.3h-2.7v-2.6H885v5.3h5.3v2.6h-2.7v5.3h-13.3v-5.3h-2.7v-2.6h5.3v-5.3h-2.7v2.6h-2.7v-5.3h8v-2.6h2.7v2.6h8.2zm-5.3 13.3v-2.7h-8v2.6l8 .1zm53-.1h8v2.6h-10.7V360H946v2.6h-2.7v5.3h-2.7v-5.3h-2.7v5.3h2.7v2.7h-2.7l.2 5.4zm5.3-5.2v2.6h-2.7v-2.6h2.7zm2.7-2.7v-2.6h2.7v2.6h-2.7zm2.6 8H946v-2.7h2.7v2.7zm5.3-13.3v2.6h-5.3v-5.3h2.7v2.6h2.6zm-2.6 10.6h-2.7v-5.3h2.7v5.3zm2.6 5.3h-2.7v-5.3h2.6l.1 5.3zm42.5-10.6v2.7h-2.7v2.6h-2.7v-2.6h-2.7v2.6h2.7v2.6h-2.7v2.6h-2.7V376H983v-2.6h2.7v-2.6H983v2.6h-2.7v-2.6h-2.7v-2.7h5.3v-2.6h-2.7v-2.6h2.7v-2.6h2.7v2.6h2.7v-2.6h2.7v2.6h2.7v2.6H991v2.6h5.5zm-18.6 8v-2.7h2.7v2.6l-2.7.1zm5.3 2.6h-2.7v-2.6h2.7v2.6zm2.7-13.2v2.6h2.7v-2.6h-2.7zm8 13.2h-2.7v-2.6h2.7v2.6zm2.6-5.3v2.6h-2.7v-2.7l2.7.1zm21.2-13.3v10.6h-2.7v2.6h2.7v2.6h-2.7v2.6h-2.7V376h-5.3v2.6h-2.7v-5.3h-2.7v5.3h-2.7V360h2.7v5.3h2.7V360h2.7v2.6h2.7v2.6h2.7v-2.6h-2.7V360h8zm-5.3 13.3v-2.6h-5.3v-2.7h-5.3v2.7h5.3v2.6h5.3zm7.9-10.6h2.7v2.6h-2.7v-2.6zm0 13.3v-5.3h2.7v5.3h-2.7zm2.7-8h2.6v2.7h-2.6v-2.7zm10.6-5.3h5.3v2.6h-2.7v5.3h-2.7v8h-5.3V376h2.7v-5.3h-2.7v-5.3h-2.7v-2.6h5.3v-2.6h2.7l.1 2.6zm-8 13.2v-2.6h2.7v2.6h-2.7zm5.3-8h2.7v-2.6h-2.6l-.1 2.6zm8 8h-2.7v-2.6h2.7v2.6zm-732 13.3h-2.6v2.7h2.6v2.7h-2.6v5.3h-2.7v-2.6H299V392h2.6v-2.6H299v-2.6h2.6V384H299v-2.7h8v2.7h-2.6v2.6h2.6l-.1 2.7zm10.6-5.3h-2.7v5.3h2.7v2.7h-2.7v8h-2.6v-8h-5.3v-2.6h5.3V384h-2.6v-2.7h8l-.1 2.7zm92.8 2.7v2.6h2.7v2.7h-2.7v5.3h-2.6v-8H405v-2.6h5.3zm-2.6 13.2H405v-2.6h2.6l.1 2.6zm0-18.5h2.6v2.6h-2.6v-2.6zm2.6 18.5v-2.6h13.3v2.6h-13.3zm13.3-18.5v2.6h-5.3v10.6h-2.6v-5.3H413v-2.6h2.6V384H413v-2.7l10.6.1zm0 10.6H421v-2.6h2.6v2.6zm5.3-5.3v-5.3h2.6V400h-2.6v-10.6h-2.6v-2.6h2.6zm8-2.7h5.3v2.6h-2.6v2.6H437v-2.6h-2.7v-5.3h2.7l-.1 2.7zm-2.7 8v-2.6h2.7v2.6h-2.7zm0 8v-2.6h5.3v2.6h-5.3zm2.7-5.3V392h2.6v2.7h-2.6zm5.3-2.7h-2.6v-2.6h2.6v2.6zm0 5.4h-2.6v-2.6h2.6v2.6zm0-16h2.6v2.6h-2.6v-2.6zm2.6 5.3v2.6h-2.6v-2.6h2.6zm0 5.3v2.7h-2.6V392h2.6zm0 5.3v2.6h-2.6v-2.6h2.6zm8-10.6v5.3h2.6v2.7h-2.6v5.3h-2.6v-2.6h-2.7v-8h2.7v-2.6h-2.7V384h2.7v-2.7h2.6v2.7h2.6v2.6l-2.6.1zM466 384h-2.6v5.3h2.6v2.7h-2.6v8h-2.7v-8h-5.3v-2.6h5.3V384H458v-2.7h8v2.7zm23.9 0h2.6v2.6h-2.6V384zm0 13.3V392h2.6v5.3h-2.6zm2.6-5.3v-2.6h2.6v2.7l-2.6-.1zm16-5.3v2.6h-2.6v2.7h2.6v2.7h-5.3V392h-2.6v2.7h-5.3V392h2.7v-2.6h-2.7v-2.6h5.3V384H498v-2.7h8v2.7h-2.6v2.6l5.1.1zm-13.3 13.2v-2.6h5.3v2.6h-5.3zm8-2.6h-2.6v-2.6h2.6v2.6zm5.3 2.6h-5.3v-2.6h5.3v2.6zm5.3 0h-2.6v-2.6h2.6v2.6zm15.9-13.2h-5.3v2.6h5.3v10.6h-13.3v-2.6h-2.7V384h8v-2.7h2.7v2.7h5.3v2.7zm-8 2.6v-2.6h-5.3v2.6h5.3zm-2.6 5.3v2.6h2.7v-2.6h-2.7zm5.3 2.7h2.6v-2.6h-2.7l.1 2.6zm18.5-5.3v-2.6h2.7v2.6h5.3v2.7h-2.7v2.6h-2.6v2.6h-2.7v-2.6h-2.7v2.6h-2.7v-2.6H535v-2.6h-2.7V384h2.7v2.6h2.7V384H535v-2.7h5.3v2.7h2.7v5.3h-2.7v2.7h2.6zm-8 8h-2.7v-2.6h2.7v2.6zm2.7-10.6H535v2.6h2.7l-.1-2.6zm8 0V384h-2.7v-2.7h5.3v5.3h2.7v2.6l-5.3.2zm5.3 8v2.6h-2.7v-2.6h2.7zm58.3-16h5.3V400h-2.6v-8h-2.7v8h-2.7v-8h-2.7v8h-2.7v-2.6H596v-2.6h2.7V392H596v-2.6h2.7v-2.6H596V384h5.3v-2.7h5.3v2.7H604v5.3h2.7V384h2.7v5.3h2.7V384h-2.7l-.2-2.6zm21.3 13.2h-2.7V392h-5.3v8h-2.7v-8h-2.7v-2.6h2.7V384h-2.7v-2.7h8v2.7h-2.7v5.3h5.3V384h2.7l.1 10.6zm2.6-13.2h2.7V400h-5.3v-2.6h2.7l-.1-16zm21.2 5.3v2.6h-2.7v2.7H649v8h-2.7v-8h-2.7v-2.6h-5.3v-2.6h8v-5.3h2.6v5.3l5.4-.1zm-13.2 10.6h-2.7v-2.6h2.7v2.6zm2.6-2.7H641V392h2.7v2.6zm8-10.6v-2.7h2.7v2.7h-2.7zm2.6 8v2.7h-2.7V392h2.7zm0-8h2.7v2.6h-2.7V384zm2.7 10.6v2.6h-2.7v-2.6h2.7zm18.5-2.6h2.7v2.7h-5.3V392h-2.7v-2.6h-2.7v-2.6h-2.7V384h-2.7v2.6h-2.7v-5.3h8v2.7h2.7v-2.7h2.7v2.7h2.7v8zm-10.6-5.3v2.6h2.7v2.6h-2.7v2.7h-2.7V392h-2.7v-2.6h2.7v-2.6h2.7zm-2.6 13.3h-2.7v-2.6h2.7v2.6zm5.3 0h-2.7v-2.6h2.7v2.6zm2.6-5.3h-2.7V392h2.7v2.7zm2.7 5.3h-2.7v-2.6h2.7v2.6zm5.3 0h-2.7v-2.6h2.7v2.6zm21.2-18.6v2.6h-2.7v2.6h2.7v8h-2.7V392H694v2.7h2.7v2.6h2.7v2.6h-18.6v-13.3h2.7v10.6h2.7v-10.6h2.7V384h-2.7v-2.7l13.2.1zm-18.5 0h2.7v2.6h-2.7v-2.6zm7.9 13.2h2.7V392h-2.7v2.6zm2.7-8h2.7V384h-2.7v2.6zm71.6-5.2v2.6h-2.7v2.6h2.7v8h-2.7v5.3h-5.3v-2.6h2.7v-2.6h-2.7v2.6h-2.7V392h-2.7v8h-5.3v-2.6h2.7v-2.6h-2.7V392h2.7v-5.3h-2.7V384h2.7v-2.7h2.7v2.7h2.7v2.6h-2.7v2.6h2.7v-2.6h2.7v2.6h2.7v-2.6h-2.7V384h-2.7v-2.7l10.6.1zm26.5 18.5H787v-2.6h2.7l-.1 2.6zm15.9-18.5v2.6h-2.7v2.6h-5.3V384h-5.3v13.3h-2.6v-15.9h15.9zm-10.6 18.5h-2.7v-2.6h2.7v2.6zm2.7-10.6h5.3v-2.6h2.7v5.3h-2.7v2.7h2.7v2.6h-2.7v2.6h-5.3v-2.6h2.7V392H795v-5.3h2.7v2.6zm-2.7 8v-2.6h2.7v2.6h-2.7zm74.3-5.3v8h-18.6v-8h18.6zm-16-2.6v-8h13.3v8h-13.3zm13.3 8v-2.6h-13.3v2.6h13.3zM855.9 384v2.6h8V384h-8zm87.5 5.3h-2.7v2.7h2.7v2.7h-2.7v5.3H938v-2.6h-2.7V392h2.7v-2.6h-2.7v-2.6h2.7V384h-2.7v-2.7h8v2.7h-2.7v2.6h2.7l.1 2.7zm0 0h5.3v2.7h-5.3v-2.7zm2.7 5.3h2.7v2.6h2.7v2.6h-8v-2.6h2.7l-.1-2.6zm0-8V384h2.7v2.6h-2.7zm2.6-5.3h5.3v5.3h-2.7V384h-2.7l.1-2.7zm2.7 8h-2.7v-2.6h2.7v2.6zm-2.7 5.3V392h2.7v-2.6h2.6v8h-2.7v-2.6l-2.6-.2zm26.5-10.6v2.6h-2.7v2.6h2.7v2.7h-2.7v2.7H970V392h-5.3v5.3h2.7v2.6H962v-5.3h-2.7v5.3h-2.7v-18.6h8v8h5.4v-2.6h-2.7V384h2.7v-2.7h2.7v2.7h2.5zm-13.2 0h-2.7v2.6h2.7V384zm-2.7 5.3v2.7h2.7v-2.6l-2.7-.1zm10.7 8h-2.7v-2.6h2.7v2.6zm5.3 2.6h-2.7v-5.3h2.7v5.3zm37.1-7.9v-2.6h2.6v2.6h2.7v2.7h-8v5.3h-2.7v-5.3h-8V392h2.7v-2.6h2.7v2.6h2.7v-5.3h2.7v5.3h2.6zm-13.3-2.6v-2.6h2.7v2.6h-2.7zm2.7-5.3h2.7v2.6h-2.7v-2.6zm10.6 0h-8v-2.7h8v2.7zm2.6 0v2.6h-2.7V384l2.7.1zm2.7 2.6v2.6h-2.7v-2.6h2.7zm42.4-2.7h-5.3v2.6h5.3v8h-5.3v2.6h5.3v2.6h-18.6v-18.6h18.6v2.8zm-7.9 2.6V384h-8v13.3h8v-8h-2.7v5.3h-2.7v-8h5.4zm5.3 5.3v-2.6h-2.7v2.7l2.7-.1zm-750.6 21.3v2.6h-2.6v-2.6H299v-2.6h8V408h-5.3v-2.7h5.3v-2.6h2.6v2.6h5.3v2.7h-5.3v2.6h8v2.6h-10.7zm-5.3 2.6h2.7v2.7h8v2.6h-10.6v-5.3zm10.6 0h2.6v2.7h-2.6v-2.7zm5.3 2.7v2.6h-2.7v-2.6h2.7zM466 405.2v2.7h-2.6v2.6h-2.7v-2.6H458v2.6h2.6v2.6h-8v-2.6h2.6v-2.6h-2.6v2.6H450v-2.6h-2.7v-2.7h5.3v-2.6h2.6v2.6h2.6v-2.6h2.6v2.6h5.6zm-15.9 8h-2.7v-2.6h2.7v2.6zm15.9 2.6v2.7h-2.6v2.6h-2.7v-2.6H458v2.6h-2.6v-2.6h-2.6v2.6h-2.6v-2.6h-2.7v-2.7H466zm0-5.3v2.6h-2.6v-2.6h2.6zm37.2 0v2.6h2.6v-2.6h2.6v10.6h-10.6v-2.6h2.6v-2.7h-2.6v2.7h-2.7v-2.7h-2.6v2.7h2.6v2.6h-5.3v-18.6h5.3v2.6h-2.6v2.7h2.6v2.6h-2.6v2.6h2.6v-2.6h2.7v2.6h2.6v-2.6h2.8zm5.3-5.3v2.7h-2.6v2.6h-2.6v-2.6h-2.6v2.6h-2.6v-2.6h-2.7v-2.7h2.7v-2.6h2.6v2.6h2.6v-2.6h2.6v2.6h2.6zm-5.3 13.3h2.6v-2.7h-2.6v2.7zm87.5-15.9h2.7v18.6H588v-2.6h2.7v-2.7H588v-2.6h-2.7v8h-10.6V416h2.7v2.7h5.3V416h-5.3v-2.6h-2.7v-2.6h2.7v-2.6h-2.7v-2.7h5.3v-2.6h2.7v2.6h5.3v2.7h-2.7v2.6h2.7v-2.6h2.7v-5.6zm-8 5.3H580v2.6h2.7v-2.6zm50.4-2.7v-2.6h2.7v5.3h-2.7v2.6h2.7v2.6h-2.7v2.6h2.7v2.7h-2.7v2.6h-2.7v-2.6h-8v-2.7h-5.3v-10.6h2.7v2.7h2.7v-2.7h-2.7v-2.6h5.3v2.6h2.7v-2.6h2.7v2.6h2.6zm-15.9 15.9v-2.6h5.3v2.6h-5.3zm10.6-10.6h2.7v-2.6h-5.3v8h5.3v-2.6h-2.7v-2.8zm50.4 0v2.6h-2.7v2.6h2.7v2.7h-8v2.6h-2.6v-2.6h-8v-2.7h2.7v-2.6h-2.7v-2.6h5.3v-2.6h-2.7v-2.7h5.3v-2.6h2.7v2.6h5.3v2.7h-2.6v2.6h5.3zm-5.3 5.3v-2.6h-8v2.6h8zm-2.7-7.9h-2.7v2.6h2.7v-2.6zm47.8-5.3h2.7v18.6H718v-8h-2.7v8h-2.7v-2.6H710v-2.7h-5.3v2.7h5.3v2.6h-8v-13.3h2.7v-2.7H702v-2.6h10.6v2.6H710v2.7h2.7v-2.7h2.7v5.3h2.7v-7.9zm-10.6 8v2.6h2.6v-2.6h-2.6zm37.1-2.7h2.7v-2.7h2.7v15.9h-2.7v-10.6h-2.7v-2.6zm5.3-5.3h2.7v2.6h-2.7v-2.6zm13.3 2.6v2.7h-2.7v2.6h2.7v2.6h-2.7v2.6h-2.7v-2.6h-5.3v-2.6h5.3v-2.6H755v-2.7h2.7v-2.6h2.7v2.6h2.7zm-8 15.9v-2.6h5.3v2.6h-5.3zm8-5.3v2.7h-2.7v-2.7h2.7zm21.2-10.6v2.7h-2.7v2.6h2.7v10.6h-18.6v-10.6h2.7v-2.6h-2.7v-2.7h8v-2.6h2.7v2.6h7.9zm-2.7 13.3v-5.3h-13.3v5.3h2.6v-2.7h8v2.7h2.7zm-7.9-10.6H771v2.6h2.7v-2.6zm2.6 2.6h2.7v-2.6h-2.7v2.6zm31.9-5.3v-2.6h2.7v2.6h-2.7zm2.6 5.3h-2.7v-2.6h2.7v2.6zm-2.6 10.6v-5.3h2.7v5.3h-2.7zm5.3-13.2h-2.7v-2.7h2.7v2.7zm0 7.9h-2.7v-2.6h2.7v2.6zm13.2-7.9h-5.3v2.6h2.7v2.6h2.7v8h-10.6v-10.6h2.7v-2.6h-2.7v-2.7h2.7v-2.6h2.7v2.6h5.3l-.2 2.7zm-2.6 10.6v-2.7h-5.3v2.7h5.3zm23.9-15.9v2.6h-2.7v2.7h2.7v13.3h-2.7v-2.6h-2.7v2.6h-5.3v-2.6h-2.7v2.6h-5.3v-2.6h2.6v-2.7h-2.7v-2.6h2.7V408h-2.7v-2.7h2.7v-2.6h2.7v2.6h2.7v-2.6h2.7v2.6h2.7v-2.6l5.3-.1zm-10.6 5.3h-2.7v2.6h2.7v-2.6zm-2.7 5.3v2.6h2.7v-2.6h-2.7zm5.3-2.7h2.7v-2.6H840v2.6zm0 2.7v2.6h2.7v-2.6H840zm23.9-8h5.3v2.7h-5.3v13.3h-5.3v-2.6h2.7v-5.3h-2.7V408h-8v-2.7h10.6v-2.6h2.7v2.5zm-13.3 13.3v-2.7h5.3v2.7h-5.3zm8-2.7h-2.7v-2.6h2.7v2.6zm31.8-10.6v5.3h-2.7v-2.6H885v2.6h-8v-2.6h-2.7v2.6h-2.7v-5.3h8v-2.6h2.7v2.6h8.1zm-13.3 8h8v5.3h5.3v2.6h-18.6v-2.6h5.3v-2.7h-2.7v-5.3h2.7v2.7zm10.6 0H885v-2.6h2.7v2.6zm2.7 0v2.6h-2.7v-2.6h2.7zm58.3 0v-2.6h2.7v2.6h2.6v2.6h-5.3v2.7H946v-2.7h-2.7v2.7h-2.7v-2.7h-5.3v-2.6h2.7v-2.6h2.7v2.6h2.7v-5.3h-5.3v-2.7h5.3v-2.6h2.7v2.6h5.3v2.7h-5.3v5.3h2.6zm-13.2-2.7v-2.6h2.7v2.6h-2.7zm0 10.6v-2.6h5.3v2.6h-5.3zm18.5 0h-5.3v-2.6h5.3v2.6zm0-13.2v2.6h-2.7v-2.6h2.7zm8 2.6v5.3h2.7v2.7h-8v-2.7h2.7v-5.3h-2.7v-2.6h2.7v-5.3h2.6v5.3h2.7v2.6H962zm13.3-8v5.3h-2.7v-2.7h-8v-2.6h10.7zm-8 13.3h-2.7v-2.6h2.7v2.6zm0-5.3h2.7v-2.6h2.7v5.3h2.7v2.6h-2.7v5.3H970v-8h-2.7v-2.6zm15.9-2.6v2.6h2.7v2.6h-2.7v8h-2.7v-2.6h-2.7v-8h2.7v-2.6h-2.7v-2.7h2.7v-2.6h2.7v2.6h2.7v2.7h-2.7zm13.3 0v2.6h-2.7v2.6h2.7v2.6h-2.7v2.7h2.7v2.6h-10.6v-2.6h5.3v-2.7h-5.3v-2.6h5.3v-2.6h-5.3v-2.6h10.6zm-5.3-5.3h2.7v2.6h-2.7v-2.6zm26.5 0v13.3h-5.3v2.7h-2.7v-2.7h-2.7v2.7h-2.7v-2.7H999v-2.6h5.3v-2.6H999v-2.6h2.7v-2.7h2.7v-2.6h2.7v2.6h2.7v5.3h-2.7v2.6h2.7v-2.6h2.7v2.6h2.6v-2.6h-2.7v-5.3h-2.7v-2.6l8-.2zm-18.6 18.5v-2.6h5.3v2.6h-5.3zm18.6 0h-5.3v-2.6h5.3v2.6zm21.2-15.9v13.3h-8v2.6h-2.7v-2.6h-8v-13.3h8v-2.6h2.8v2.6h7.9zm-15.9 2.7v2.6h5.3v-2.6h-5.3zm0 7.9h5.3v-2.6h-5.3v2.6zm13.3-5.3v-2.6h-5.3v2.6h5.3zm0 5.3v-2.6h-5.3v2.6h5.3zm21.2-7.9h2.7v5.3h-2.7v-2.6h-2.7v2.6h2.7v2.6h2.7v2.7h-7.9v2.6h-2.7v-2.6h-8v-2.7h2.7v-2.6h2.7v-2.6h-2.7v2.6h-2.7v-5.3h2.7v-5.3h13.3l-.1 5.3zm-2.7 0v-2.7h-8v2.7h8zm-777.1 15.9h2.7v2.6h-2.7v-2.6zm0 8v-2.7h2.7v2.7h-2.7zm0 2.6h2.7v8h-2.7v-8zm2.7-2.6h2.6v2.6h-2.6v-2.6zm7.9 0h2.7v5.3h2.7v2.6H291v2.7h-2.6v-5.3h-2.6v-8H283v-2.6h2.6v-2.6h2.6v2.6h2.7v-2.6h2.7v5.3h2.6v2.7H291v-2.7h-2.6l-.1 2.6zm-5.3 10.6V437h2.6v5.3H283zm10.6-8h2.6v2.6h-2.6v-2.6zm2.7 5.3v2.7h-2.6v-2.6l2.6-.1zm5.3-10.6H299v-2.6h2.6v2.6zm-2.7 5.3v-2.6h5.3v2.6h-5.3zm0 8v-5.3h2.6v5.3h-2.6zm18.6-18.6v10.6h-2.7v-5.3h-2.6v-2.6h-2.6v2.6h-2.7v-2.6h-5.3v-2.6l15.9-.1zm-13.3 8v-2.7h2.6v2.7h-2.6zm2.7 8h8v2.7h-10.6v-5.3h2.6v2.6zm0-5.3v-2.6h2.6v2.6h-2.6zm5.3-5.3v2.7h-2.6v-2.7h2.6zm-2.7 8v-2.8h5.3v2.6l-5.3.2zm8 0v2.6h-2.7v-2.6h2.7zm106.1-10.8v2.6H421v2.7h2.6v2.6H421v2.6h-2.6v2.6h2.6V437h2.6v5.3h-8v-2.7H413v-5.3h-2.7v5.3h2.7v2.7h-5.3v-10.6H405V429h5.3v2.7h2.7V429h-2.7v-2.6h2.7v-2.6h2.6v2.6h2.6v-2.6h2.6v2.6h2.8zm-15.9 0v-2.6h2.6v2.6h-2.6zm8 5.4h2.6v-2.7h-2.6v2.7zm13.2-2.7h-2.6v-2.6h2.6v2.6zm-2.7 8v-5.3h2.6v2.6h2.6v2.6h-5.2zm0 5.3v-2.7h5.3v2.7h-5.3zm5.3-15.9h-2.6v-2.6h2.6v2.6zm0 2.6v2.7h-2.6v-2.7h2.6zm10.7-5.3v5.3h-2.6v-2.6h-5.3v-2.6h7.9zm-8 8v-2.7h5.3v2.7h-5.3zm5.3 5.3v2.6h5.3v2.7h-10.6v-2.7h2.7v-2.6h-2.7v-2.7h8v2.6l-2.7.1zm2.6-5.3v-2.7h2.6v2.7h-2.6zm53.1-8v2.6h-5.3v-2.6h5.3zm0 5.3v2.7h-5.3v-2.7h5.3zm2.7 5.3v-2.6h2.6v2.6h8v2.6h-5.3v2.6h-2.6v2.7H498v-2.7h-2.7V437H490v-2.7h7.9zm-8 8v-2.7h5.3v2.7h-5.3zm18.5-18.6v8h-2.6v-5.3h-2.6v5.3h-2.6v-2.7H498v-2.6h2.6v-2.6l7.8-.1zm0 18.6h-5.3v-2.7h5.3v2.7zm79.6-18.6h5.3v18.6h-2.7v-5.3H588v2.6h-2.7v2.7h-2.7v-2.7h-8v-13.3h8v-2.6h2.7v2.6h2.7v2.6h2.7v-2.6H588v-2.6zm-10.6 13.3h2.7v-8h-2.7v8zm8-5.3v-2.7h-2.7v2.7h2.7zm-2.7 2.6v2.6h2.7v-2.7l-2.7.1zm5.3 0h2.7v-2.6H588v2.6zm47.8-10.6v2.6h-2.7v2.6h2.7v13.3h-5.3v-2.7h2.7v-8h-2.7v8h-2.7V437h-2.7v2.6h2.7v2.7h-5.3v-10.6h-2.7v10.6h-2.7v-15.9h2.7v2.6h5.3v-2.6h2.7v2.6h2.7v-2.6h-2.7v-2.6h8zm-10.6 0v2.6h-5.3v-2.6h5.3zm53 0v18.6h-2.7v-2.7h-2.7v-2.6h-2.7v2.6h2.7v2.7h-5.3v-5.3h-2.7v5.3h-2.7v-2.7h-2.7v-5.3h2.7v-2.6h-2.7v-2.7h2.7v-2.6h-2.7v-2.6l18.8-.1zm-10.6 2.6h-2.7v2.6h2.7v-2.6zm-2.7 5.4v2.6h2.7v-2.6h-2.7zm8-2.7h2.7v-2.6h-2.7v2.6zm0 5.3h2.7v-2.6h-2.7v2.6zm42.4-8h5.3v13.3h-5.3v2.7h-2.7v-5.3H710v-5.3h-2.7v5.3h2.7v2.6h-2.7v2.7h-2.7v-2.7H702v-5.3h2.7v-2.6H702v-2.7h2.7v-5.3h2.7v5.3h2.7v-5.3h2.7v5.3h2.7v8h2.7v-8h-2.7l-.2-2.7zm37.2 5.4v-2.7h-2.7v2.7h-2.7v-2.7h-2.7v-2.6h5.3v-2.6h2.7v2.6h5.3v2.6H755v2.7h-2.5zm-8 5.2v-2.6h5.3v5.3h-2.7V437h-2.6zm2.6 5.4h-2.7v-2.7h2.7v2.7zm2.7-8v-2.6h2.7v2.6h-2.7zm2.6 0h5.3v2.6H755v5.3h-2.7l.1-7.9zm8-10.6h2.7v18.6h-5.3v-2.6h2.7v-5.3h-2.7v-5.3h2.7v-5.4zm90.2 8v-2.7h2.7v2.7h-2.7zm18.6-8v5.3h-2.7v-2.6h-2.7v2.6h2.7v2.7h-2.7v5.3h2.7v-5.3h2.7v8h-5.3v2.7h-2.7v-2.6h-2.7v-5.3h-5.3V432h2.7v-2.7h2.7v2.7h2.7v-2.7h-2.7v-2.6h2.7v-2.6l7.9-.3zm-16 2.6h2.7v2.6h-2.7v-2.6zm0 13.3V437h2.7v2.6h-2.7zm2.7-15.9h2.7v2.6h-2.7v-2.6zm2.7 18.5h-2.7v-2.6h2.7v2.6zm92.8-13.2v2.7h-2.7v2.6h2.7v2.6h2.6v2.6h-5.3v2.7H946v-2.7h-5.3v2.7H938v-8h-2.7v-2.6h2.7V429h2.7v8h2.7v-2.7h2.7v-2.6h-2.7V429h2.7v-2.6h-2.7v-2.6h8v2.6h-2.7v2.6h2.7zm-15.9 0v-2.6h2.7v2.6h-2.7zm2.6-5.3h2.7v2.6h-2.7v-2.6zm15.9 2.6v2.6h-2.7v-2.6h2.7zm50.4 2.7h2.7v2.7h-2.7v10.6h-2.7V437H999v-8h2.7v-5.3h2.7v5.4zm2.7-2.7h2.7v2.6h-2.7v-2.6zm2.6 2.7h2.7v2.7h2.6v8h-2.7v-5.3h-5.3v-2.6h2.7v-2.8zm-2.6 10.6V437h2.7v2.6h-2.7zm2.6-15.9h2.7v2.6h-2.7v-2.6zm2.7 18.6h-2.7v-2.7h2.7v2.7zm2.6-16v2.6h-2.7v-2.6h2.7zm0 5.3V429h2.7v2.7h-2.7zm-739.9 37.2v2.6h-2.6v2.6h-2.6v-2.6h-2.7v2.6h2.7v2.6h-2.7v2.7h-2.6v-2.7H262v2.7h2.6v2.6H262v2.6h-2.6V482h-2.6v-8h2.6v-2.6h-2.6v-2.6h2.6v-2.6h2.6v2.6h5.3v-2.6h2.7v2.6l5.1.1zm-13.3 5.3h2.6v-2.6h-2.6v2.6zm5.3 10.6h-2.6v-2.6h2.6v2.6zm2.7-2.7h-2.7v-2.6h2.7v2.6zm2.6-2.6h-2.6v-2.7h2.6v2.7zm2.7 5.3h-5.3v-2.6h5.3v2.6zm0-10.6v2.6h-2.6v-2.6h2.6zm116.7 2.6h2.6v-2.6h2.6v5.3h-2.6v5.3h-5.3v-2.6h2.6v-2.6h-2.6v-5.3h-2.7v5.3h2.7v2.6h-2.7v2.6h-2.6v-18.6h10.6v2.6h-8v2.6h8v2.6h-2.6v2.8zm8-10.6v2.6h2.7v15.9h-5.3v-2.6h2.6v-8h-2.6v-2.6h-2.6v-2.6h2.6v-2.6l2.6-.1zm71.5 8h-2.6v-2.6h2.6v2.6zm2.7-8v2.6h2.6v2.6h-5.3v-5.3h2.7zm-2.7 8h2.7v5.3h2.6v2.6H474v2.6h-2.7v-10.5zm8-2.7v2.6h-2.6v-2.6h2.6zm0 10.6v2.6h-2.6v-2.6h2.6zm8-10.6h-8v-5.3h2.6v2.6h5.3l.1 2.7zm-8 8h2.6v2.6h-2.6v-2.6zm5.3-5.3v5.3H482v-5.3h2.6zm2.7 10.6h-2.7v-5.3h2.7v5.3zm275.8-15.9v2.6h-2.7v2.6h2.7v2.6h-2.7v2.7h2.7v2.6h-5.3v2.6h-2.7V482h-2.7v-5.3h-2.7v8H747v-2.6h-2.7v-8h2.7v-2.6h-2.7v-2.6h2.7v-2.6h2.7v2.6h5.3v-2.6h2.7v2.6h5.4zm-13.3 2.6v2.6h2.7v-2.6h-2.7zm5.3 2.7h2.7v-2.6h-2.7v2.6zM169 487.4V506h-15.9v-5.3h-2.6v-2.6h2.6v-2.7h-2.6v-5.3h2.6v2.6h2.6v-2.6h2.6v5.3h-2.6v2.6h2.6v2.6h-2.6v2.7h5.3V498h-2.7v-2.6h2.7v-5.3h-2.7v-2.7H169zm-15.9 0h2.6v2.7h-2.6v-2.7zm13.2 8v-5.3h-2.6v5.3h2.6zm0 8v-5.3h-2.6v5.3h2.6zm23.9-16v2.7h-2.6v2.6h2.6v5.3h-2.6v-2.6h-2.7v2.6h2.6v8h-10.6v-10.6h-2.6v2.6h-2.7v-7.9h2.7v2.6h2.6v-2.6h-2.6v-2.7h5.3v2.7h2.6v2.6h2.7v-2.6h-2.7v-2.7h8zM179.6 498h2.6v-2.6h-2.6v2.6zm5.3 5.4v-2.7h-5.3v2.7h5.3zm18.6-8h-2.6v2.6h2.6v2.6h-2.6v5.3h-2.6v-2.6h-2.7v-2.6H193v-5.3h2.6v2.6h2.7v-2.7h-2.7v-2.6h2.7v-2.6h2.6v2.6h2.6v2.7zm-10.6-2.6v-2.6h2.6v2.6h-2.6zm2.6 13.2h-2.6v-2.6h2.6v2.6zm0-18.6h2.7v2.7h-2.7v-2.7zm15.9 0V506h-5.3v-2.6h2.7v-2.6h-2.7v-2.6h2.7v-2.7h-2.7v-2.6h2.7v-2.6h-8v-2.7l10.6-.2zm-8 10.6v-2.6h2.6v2.6h-2.6zm183.1-7.9h-2.6v-2.7h2.6v2.7zm-2.7 2.7h2.6V506h-2.6v-13.2zm18.6-5.4V506h-2.7v-15.9h-2.6v5.3h-2.6v-2.6h-2.6v-2.6h-2.6v-2.7h13.1zm-10.6 8h-2.6v-2.6h2.6v2.6zm0 5.3h2.6v-2.6h2.6v5.3h-8v-5.3h2.6l.2 2.6zm249.3 5.3h-2.7v-2.6h2.7v2.6zm10.6-13.3h5.3v8h-2.7v-5.3H649v2.6h2.7v5.3H649v-2.6h-2.7v-5.3h-2.7v8H641v-13.3h2.7v2.6h5.3v-2.6h-5.3v-2.7h10.6v2.7h-2.7l.1 2.6zM649 506h-2.7v-2.6h2.7v2.6zm8 0h-2.7v-2.6h2.7v2.6zm21.2-15.9h-2.7v5.3h2.7v2.6h-2.7v8h-2.7v-8h-2.7v5.3h-2.7v-2.7h-2.7v-5.3H662V490h-2.7v-2.7h18.6l.3 2.8zm-15.9 10.6h2.7v2.7h-5.3v-8h2.7l-.1 5.3zm5.3-10.6h-2.7v2.6h2.7v-2.6zm0 15.9h-2.7v-2.6h2.7v2.6zm2.7-10.6h2.7v-5.3h-2.7v5.3zm29.1-8v5.3h-2.7v-2.6H694v2.6h2.7v2.6H694v5.3h2.7v-5.3h2.7v8h-5.3v2.6h-2.7v-2.6h-2.7v-2.6H686v2.7h2.7v2.6h-5.3v-2.6h-2.7v-2.6h2.7v-2.6h-2.7v-2.7h5.3v-2.6h-5.3v-2.6h5.3v-2.7h2.7v2.7h2.7v-2.7h8zm-10.6 8h2.7v-2.6h-2.7v2.6zm116.7-8v2.7h-2.7v2.6h2.7v8h-2.7v-2.6h-2.7v-2.7h-2.7v2.6h2.7v2.6h-5.3v2.7h10.6v2.6h-13.3v-2.6h-2.7v2.6H787v-18.6h5.3v2.7h-2.7v2.6h2.7V490h2.7v2.6h5.3V490H795v-2.7h10.5zm-15.9 13.3h2.7v-5.3h-2.7v5.3zM169 521.9h-5.3v2.7H161v2.7h-2.7v-2.7h-2.6v-2.7h-5.3v-2.7h2.6v-8h5.3v-2.6h8v2.6h-2.6v2.7h-8v2.7h8V514h2.6v5.3h2.7v2.6zm-18.6 5.3v-2.7h5.3v2.7h-5.3zm18.6 0h-5.3v-2.7h5.3v2.7zm61-15.9v-2.6h2.7v5.3H230v5.3h2.7v2.7H230v2.7h-2.6v-5.3h-2.6v5.3H222v-5.3h-2.7v5.3h-2.6V522H214v-13.3h8v2.6h2.6v-2.6h2.6v2.6h2.8zm-13.3 15.9h-2.6v-2.7h2.6v2.7zm0-10.6h2.6v-5.3h-2.6v5.3zm5.3 10.6h-2.7v-2.7h2.7v2.7zm2.6-10.6h2.6V514h-2.6v2.6zm2.7 10.6h-2.6v-2.7h2.6v2.7zm5.3-2.6v2.7H230v-2.7h2.6zm39.8-10.6h2.6v8h-2.6v-5.3h-5.3v2.7h2.7v5.3h-2.7V522h-2.6v2.7h-5.3v2.7h-2.6v-18.6h5.3v2.6h-2.6v2.7h2.6v2.7h-2.6v5.3h2.6v-5.3h2.6V514h-2.6v-2.6h2.6v-2.6h8l-.1 5.2zm-5.3 13.3h-2.6v-2.7h2.6v2.7zm0-15.9v2.6h2.7v-2.6h-2.7zm8 15.9h-2.6v-2.7h2.6v2.7zm29.1-16h5.3v2.7h-5.3v2.7h2.6v2.7h-2.6v8h-5.3v-2.7h2.6V522h-2.6v-2.7h2.6V514h-2.6v-2.6h2.6v-2.6h2.7v2.5zm2.7 15.9v-8h10.6v8h-10.6zm8-18.5v2.6h-5.3v-2.6h5.3zm0 8h-5.3V514h5.3v2.7zm0 5.3h-5.3v2.7h5.3V522zm2.7-10.7v2.7h-2.7v-2.6l2.7-.1zm21.1 0v2.7h-2.6v2.7h-2.6v2.7h2.6v-2.7h2.6v5.3h-2.6v2.7h-2.6v2.7h-2.6v-2.7h-2.6v2.7h-2.7v-2.7H323V522h-2.6v-2.7h2.6v-2.7h2.6V514H323v2.7h-2.6v-5.3h2.6v-2.6h2.6v2.6h5.3v-2.6h2.6v2.6l5.2-.1zm-15.9 15.9h-2.6v-2.7h2.6v2.7zm5.3-8h2.6v-2.7h-2.6v2.7h-2.7v2.7h2.7v-2.7zm10.6 5.3v2.7h-2.6v-2.7h2.6zm58.4-5.2v-2.7h2.6v2.7h2.7v2.7h-8v5.3h-2.6V522h-8v-2.7h2.6v-2.7h2.7v2.7h2.6V514h2.6v5.3h2.8zm-13.3-2.7V514h2.6v2.7l-2.6-.1zm2.7-5.3h2.7v2.7h-2.7v-2.7zm10.6 0h-8v-2.6h8v2.6zm2.6 0v2.7h-2.6v-2.6l2.6-.1zm2.7 2.7v2.7h-2.7V514h2.7zm42.4 0h-5.3v2.7h5.3v10.6h-5.3v-2.7h2.6v-5.3h-2.6v5.3h-2.6V514h-5.3v-2.6h-2.7v2.6h2.6v2.7h-2.6v5.3h2.6v-5.3h2.6v8h-5.3v2.7h-2.6v-18.7h8v2.6h5.3v-2.6h2.6v2.6h2.6v2.7zm-7.9 13.3h-2.7v-2.7h2.7v2.7zm31.8-18.6h2.6v2.6h-2.6v-2.6zm0 5.3h2.6v2.7h-2.6V514zm0 13.2v-5.3h2.6v5.3h-2.6zm2.6-5.3v-2.7h2.7v2.7h-2.7zm10.6-10.6h5.3v5.3h-2.7V514h-5.3v2.7h5.3v5.3h2.7v2.7h-2.7v2.7h-2.6v-2.7h-2.6v2.7h-2.6v-2.7H474V522h2.6v-5.3H474v-5.3h5.3v-2.6h2.6v2.5zm0 10.6v-2.7h-2.6v2.7h2.6zm55.7-2.6v2.7h2.7v2.7h-2.7v2.7H535v-5.3h-2.7v-2.7h2.7v-2.7h-2.7v-5.3h2.7v2.7h2.7v2.7h2.7v2.7l-2.8-.2zm-2.6-10.6h2.7v2.6H535v-2.6zm13.3 2.6v-2.6h2.7v8h-5.3V514H543v2.7h-2.7V514h-2.7v-2.6h2.7v-2.6h5.3v2.6l2.7-.1zm-8 8h2.7v-2.7h2.7v2.7h5.3v2.7h-5.3v2.7h5.3v2.7h-10.6v-2.7h2.7V522h-2.7l-.1-2.7zm31.8-10.6v2.6h-2.7v2.7h2.7v13.3h-13.3v-2.7h-5.3v-13.3h5.3v2.7h-2.7v2.7h2.7V514h2.7v-2.6h-2.7v-2.6l13.3-.1zm-15.9 10.6v2.7h2.7v-2.7h-2.7zm13.3 5.3v-2.7h-2.7v-5.3h-2.7v5.3h-2.7v2.7h8.1zm-5.3-10.6h2.7v-2.6h-2.7v2.6zm92.8-5.3v18.6h-10.6V522h-2.7v5.3H641v-2.7h-2.7v-2.7h2.7v-5.3h-2.7V514h8v2.7h-2.7v2.7h2.7v-2.7h2.6v-5.3h-2.7v-2.6l10.8-.1zm-15.9 0h2.7v2.6h-2.7v-2.6zm13.3 13.2v-2.7H649v2.7h5.4zm-2.7-8h2.7v-2.6h-2.7v2.6zm55.7.1v5.3h2.6v2.7h-2.7v5.3h-2.7v-2.7H702v-8h2.7V514H702v-2.6h2.7v-2.6h2.7v2.6h2.7v2.6h-2.7zm8-2.6v5.3h5.3v8H718v-5.3h-8v-2.7h2.7v-5.3H710v-2.6h10.6v2.6h-5.2zm-2.7 15.9v-2.7h5.3v2.7h-5.3zm47.7-13.3v8h-5.3v-2.7h2.7v-2.7h-2.7V514h-5.3v8h5.3v2.7h-8V522h-2.7v-2.7h2.7v-2.7h-2.7V514h2.7v-2.6h8v-2.6h2.7v2.6h5.3v2.6h-2.7zm-13.2 13.3h-2.7v-2.7h2.7v2.7zm8-8h-2.7v-2.7h2.7v2.7zm2.6 5.3v2.7h-2.7v-2.7h2.7zm5.3-2.7v2.7h-2.7v-2.7h2.7zm42.4-7.9h-5.3v2.7h5.3v10.6h-10.6V522h-2.7v5.3h-2.7v-2.7H787v-5.3h2.7v-2.7H787V514h2.7v-2.6h2.7v2.6h2.7v2.7h-2.7v2.7h2.7v-2.7h2.7v-8h2.7v2.6h5.3l-.3 2.7zm-18.5-2.7v-2.6h2.7v2.6H787zm5.3-2.6h2.7v2.6h-2.7v-2.6zm10.6 10.6h-5.3v5.3h5.3v-5.3zm21.2-2.7h2.7v2.7h-2.7v8h-5.3v-2.7h2.7V522h-2.7v2.7h-2.7V522h-8v-2.7h2.7v-8h2.7v2.7h8v-2.6h-8v-2.6H824l.1 7.8zm-15.9 8h8v2.7h-8v-2.7zm13.2-5.3v-2.7h-8v2.7h8zm47.8-10.6v2.6h-2.7v2.7h2.7v2.7h-2.7v2.7h2.7v2.7h-2.7v2.7h-2.7v-8h-2.7v8h2.7v2.7h-5.3v-2.7h-2.7v2.7h-2.7v-2.7h-2.7V522h2.7v-5.3h-2.7V514h5.3v-2.6H853v-2.6h8v2.6h-2.7v2.6h5.3v-5.3h5.6zm-13.3 10.6h2.7v-2.7h-2.7v2.7zm13.3 5.3v2.7h-2.7v-2.7h2.7zm7.9-8v2.7h2.7v2.7h-2.7v2.7h-5.3V522h2.7v-2.7h-2.7v-2.7h2.7V514h-2.7v-2.6h5.3v2.6h2.7v2.7l-2.7-.1zm13.3-5.3v2.7h-2.7v2.7h2.7v2.7h-2.7v2.7h2.7v2.7h-2.7v2.7H885V522h-2.7v-2.7h-2.7v-2.7h5.3V514h-5.3v-5.3h2.7v2.6h2.7v-2.6h2.7v2.6h2.7zm-8 13.3h-2.7v-2.7h2.7v2.7zm34.5-8h-2.7V514h2.7v2.6zm2.7-2.6h-2.7v-2.6h2.7v2.6zm-2.7 10.6v-8h2.7v2.7h5.3v2.7h-5.3v2.7l-2.7-.1zm10.6-15.9v2.6h-8v-2.6h8zm-8 18.5v-2.7h8v-2.7h2.7v5.3h-10.7zm5.3-10.6h2.7v2.7h-2.7v-2.7zm2.7-2.6v-2.6h2.7v2.7l-2.7-.1zm2.6 2.6V514h2.7v2.7l-2.7-.1zm55.8 5.3h-2.7v2.7h2.7v2.7h-5.3v-2.7h-2.7v-5.3h2.7v-2.7h-2.7V514h2.7v-2.6h-2.7v-2.6h8v2.6h-2.7v2.6h2.7v2.7h-2.7v2.7h2.7v2.5zm2.6-10.6v2.7h-2.7v-2.6l2.7-.1zm-2.6 13.3v-2.7h2.7v2.7h-2.7zm8-10.6h2.7v8h-2.7v2.7h2.7v2.7h-8v-2.7h2.7V522h-2.7v-2.7h5.3v-2.7h-5.3V514h2.7v-2.6h-2.7v-2.6h5.3v5.2zm21.1 0h2.7v8h-5.3v2.7h5.3v2.7h-8v-2.7h-2.7V522h-2.7v2.7h2.7v2.7h-8v-2.7h2.7V522H999v-8h2.7v-5.3h2.7v5.3h2.7v-5.3h8v5.3zm-13.3 2.7v2.7h2.7v-2.7h-2.7zm8 0h-2.7v2.7h2.7v-2.7zm2.7-5.4h-2.7v2.7h2.7v-2.7zm0 8h2.6v-2.7h-2.7l.1 2.7zm63.6 2.6v2.7h-13.3v-2.7h13.3zm2.7-5.3h2.7v10.6h-5.3v-2.7h2.7v-5.3h-13.3V514h2.7v2.7h8v-5.3h-10.6v-2.6h13.3l-.2 7.8zm13.3-7.9h2.7v2.6h2.7v2.7h-5.3v2.7h-2.7V514h-5.3v-2.6h2.7v-2.6h2.7v2.6h2.7v-2.7zm-8 18.5v-5.3h2.7v5.3h-2.7zm2.7-5.3v-5.3h2.7v5.3h-2.7zm2.6 5.3v-2.7h5.3v2.7h-5.3zm5.3-5.3h-2.6v-5.3h8v5.3h-2.7v-2.7h-2.7v2.7zm2.7 2.7h-2.7v-2.7h2.7v2.7zm0-13.3v-2.6h2.7v2.6h-2.7zm5.3 15.9h-5.3v-2.7h5.3v2.7zm0-15.9v2.7h-2.7v-2.6l2.7-.1zm2.6 0h2.7v13.3h-2.7v-13.3zm8-2.6v5.3h2.7v2.7h-2.7v2.7h10.6v8h-13.3v-18.6h2.7zm2.7 15.9v-2.7h-2.7v2.7h2.7zm5.3-10.6v2.7h-2.7V514h-2.7v-5.3h2.7v2.6h5.3v2.6l-2.6.1zm0 10.6v-2.7h-2.7v2.7h2.7zm-968.1 10.6h-2.6v-2.7h2.6v2.7zm-2.7 5.3v-2.7h2.6v-2.7h2.6v13.3H153v-8l-2.6.1zm5.3-8h-2.6v-2.7h2.6v2.7zm5.3 0h-2.7v-2.7h2.6l.1 2.7zm0 5.3h-2.7v-2.7h2.6l.1 2.7zm-2.6 2.7h2.6v8h-2.7l.1-8zm5.3-10.7h5.3v2.7h-5.3v-2.7zm0 8v-2.7h5.3v13.3h-5.3v-2.7h2.6v-8h-2.6zm61 0h5.3v-2.7h2.7v8H230v2.7h2.7v2.7h-5.3v-2.7h-2.6v-2.7H222v-5.3h-2.7v5.3h2.7v2.7h-8v-2.7h2.6v-5.3H214v-2.7h2.6v-5.3h2.6v5.3h5.3l.2 2.7zm8-8v2.7H230v2.7h-5.3v-2.7H222v-2.7h10.7zm-8 18.6H222v-2.7h2.6l.1 2.7zm47.7-13.2h2.6v13.3h-5.3v-2.7h2.6v-8h-2.6v8H267v2.7h-10.6v-5.3h2.6v2.7h5.3v-2.7h2.6v-2.7h-5.3v2.7H259v-2.7h-2.6v-2.7h2.6v-2.7h-2.6v-2.7h2.6v-2.7h2.6v2.7h5.3v2.7h-5.3v2.7h5.3v-2.7h2.7v-5.3h2.6l.2 5.4zm45.1-5.3v2.7h-2.7v2.7h2.7v5.3h-2.7v-2.7h-2.6v2.7h2.6v8h-2.6v-2.7h-2.6v-2.7h-2.7v-2.7h2.6v-2.7h-2.6v2.7h-2.6v8h-2.7v-2.7H299v-8h2.6v-2.7H299v-2.7h2.6V530h2.7v5.3h2.6V530l10.6-.1zm-8 18.5h-2.6v-2.7h2.6v2.7zm0-13.2h2.6v-2.7h-2.6v2.7zm34.5 2.6h2.6v-2.7h2.6v10.6h-8v-13.3h5.3v2.7H344v2.7zm0 5.3h2.6v-2.7H344v2.7zm15.9-8h-5.3v2.7h5.3v2.7h-5.3v2.7h5.3v2.7h-5.3v2.7H352v-13.2h-2.7v-5.3h2.7v2.7h8l-.1 2.3zm42.5.1v10.6h-8v2.7h-2.6v-5.3h2.6v-2.7h-2.6v2.7h-2.6v-2.7h-5.3v-5.3h2.6v2.7h2.7v-2.7h-2.7v-5.3h2.7v2.7h5.3v2.7h-2.6v2.7h2.6v-2.7l7.9-.1zm-15.9 13.2h-2.6v-2.7h2.6v2.7zm2.6-2.6h-2.7v-2.7h2.7v2.7zm10.6-2.7v-5.3h-2.6v5.3h2.6zm13.3-5.3h-2.7v2.7h2.7v2.7h-2.7v5.3h-2.6v-2.7H405v-5.3h2.6v-2.7H405v-2.7h2.6v-5.3h2.6v5.3h2.7v2.7zm10.6-8v5.3H421v-2.7h-2.6v2.7H413v-5.3h10.6zm-5.3 8v-2.7h2.6v2.7h2.6v2.7H421v2.7h-2.6v2.7h-2.6v-5.3H413v-2.7l5.3-.1zm-2.6 10.6H413v-2.7h2.6l.1 2.7zm2.6 0v-2.7h2.6V543h2.6v5.3l-5.2.1zm68.9-15.9v13.3h-8v2.7H474v-2.7h2.6v-8H474v8h-2.7v-8h-2.6v-2.7h5.3v-5.3h2.6v5.3h2.6v-2.7h8zm-15.9 15.9h-2.6v-2.7h2.6v2.7zm13.3-13.2H482v8h2.6v-8zm31.8 2.6v2.7h2.7v2.7h-2.7v5.3h-2.7v-2.7h-2.6v-5.3h2.6v-2.7h-2.6v-2.7h2.6v-5.3h2.7v5.3h2.7v2.7h-2.7zm13.3-5.3v2.7H527v2.7h2.7v2.7H527v2.7h2.7v2.7H527v2.7h-2.7v-5.3h-2.7v-2.7H519V538h5.3v-2.7H519V530h2.7v2.7h2.7V530h2.7v2.7l2.6-.2zm-8 13.3H519v-2.7h2.7v2.7zm50.4-15.9v2.7h-2.7v2.7h2.7v5.3h-2.7v2.7h-2.7V538H564v8h-2.7v-5.3h-2.7v8h-5.3V546h2.7v-2.7h-2.7v-2.7h2.7v-5.3h-2.7v-2.7h2.7v-2.7h2.7v2.7h5.3v2.7h2.7v-2.7H564v-2.7h8.1zm-13.2 5.3v2.7h2.7v-2.7h-2.7zm5.3 10.6h5.3v-2.7h2.7v5.3h-8v-2.6zm74.2-13.3h2.7v2.7h-2.7v-2.7zm0 13.3v-5.3h2.7v5.3h-2.7zm2.7-5.3v-2.7h2.7v2.7h-2.7zm15.9-5.3h-2.7v5.3h-2.7v2.7h2.7v2.7H649v-5.3h-2.7v-5.3h-2.7v-2.7h5.3v-2.7h2.7v2.7h5.3v2.6zm-10.6 8h-2.7v-2.7h2.7v2.7zm-2.7 5.3v-2.7h5.3v2.7h-5.3zm13.3-8v2.7h-2.7v-2.7h2.7zm0 5.3v2.7h-2.7v-2.7h2.7zm18.5-2.7h-2.6v2.7h2.7v2.7H665v-5.3h2.7v2.7h2.7v-2.7h-2.7v-5.3H665v5.3h-2.7v-2.7h-2.7v-2.7h2.7v-2.7h-2.7v-2.7h2.7v-2.7h2.7v2.7h2.7v-2.7h8v13.4zm-15.9 5.3v-5.3h2.7v5.3h-2.7zm13.3-13.2v-2.7h-2.7v2.7h2.7zm0 2.6h-2.7v2.7h2.7v-2.7zm2.7 8v-2.7h2.7v2.7h-2.7zm7.9-15.9h2.7v2.7h2.7v2.7h-2.7v2.7h2.7v2.7h-2.7v8h-5.3V546h2.7v-2.7h-2.7v-2.7h2.7v-5.3h-2.7v-2.7h2.7l-.1-2.7zm15.9 0v18.6h-10.6v-2.7h8v-5.3h-5.3v-2.7h5.3v-5.3h-8v-2.7l10.6.1zm63.7 5.3h-2.7v5.3h2.7v8h-5.3v-2.7h2.7v-2.7h-2.7v2.7h-2.7v-2.7h-2.7v2.7h-2.7v-5.3h8v-2.7h-5.3v-2.7h-2.7v2.7H747v-2.7h-2.7v-2.7h5.3v-2.7h2.7v2.7h2.7v-2.7h2.7v2.7h5.3v2.8zm-18.6 5.3h2.7v2.7h-2.7v-2.7zm0 8v-2.7h5.3v2.7h-5.3zm10.6 0h-2.7v-2.7h2.7v2.7zm31.9-10.7h2.7v2.7H787v-2.7zm5.3 8h8v2.7H787v-2.7h2.7v-2.7h2.7l-.1 2.7zm-2.7-10.6h2.7v2.7h-2.7v-2.7zm5.3-5.3v5.3h-2.7v-5.3h2.7zm-2.6 10.6h2.7v2.7h-2.7v-2.7zm2.6-2.7h2.7v2.7h-2.7v-2.7zm5.4-5.3v5.3h-2.7v-5.3h2.7zm0 8h2.7v5.3h-2.7v-5.3zm2.6 8v-2.7h2.7v2.7h-2.7zm66.3-13.3v2.7h-2.7v2.7h-2.7v-2.7h-2.7v2.7h2.7v2.7h-2.7v2.7h2.7v2.7h-13.3V546h8v-2.7h-2.7v-2.7h2.7v-2.7h-2.7v2.7h-2.7v-2.7h-2.7v-2.7h8v-2.7h-5.3v-2.7h13.3v2.7h-5.3v2.7h8.1zm-16 8h-2.7v-2.7h2.7v2.7zm13.3 2.6h-2.7v-2.7h2.7v2.7zm2.7-5.3v2.7h-2.7v-2.7h2.7zm0 5.3v2.7h-2.7v-2.7h2.7zm42.4-10.6v2.7H909v2.7h2.7v2.7H909v2.7h2.7v2.7h-13.3V546h2.7v-5.3h-8v-5.3h2.7v2.7h2.7v-5.3h-2.7v-2.7h5.3v8h2.7v2.7h2.7v-2.7h-2.7v-2.7l7.8-.2zm-18.6 8h5.3v2.7H893v-2.7zm10.6 2.6h2.7v-2.7h-2.7v2.7zm2.7-15.9h2.7v2.7h-2.7v-2.7zm47.7 2.6v2.7h-2.7v2.7h2.7v2.7h-2.7v2.7h-2.7v5.3h-5.3v-2.7h2.7v-2.7h-2.7v-2.7h-2.7v8h-2.7v-10.6h-2.7v-2.7h2.7v-2.7h2.7v-2.7h2.7v2.7h2.7v-2.7h2.7v2.7h5.3zm-13.3 2.7v2.7h2.7v-2.7h-2.7zm5.3 2.6h2.7v-2.7H946v2.7zm71.7-7.9v2.7h-2.7v2.7h2.7v13.3h-2.7v-2.7h-2.7v2.7h-2.7v-2.7h-2.7v-2.7h-8v-10.6h2.7v2.7h2.7v-2.7h2.7v-2.7h10.7zm-18.6 15.9h8v2.7h-8v-2.7zm2.7-15.9h2.7v2.7h-2.7v-2.7zm8 5.3h2.7v-2.7h-2.7v2.7zm0 5.3v2.7h2.7v-2.7h-2.7zm23.8-5.3v8h5.3v2.7h-2.7v2.7h-2.7v-2.7h-8v2.7h-2.6v-2.7h-2.7v-2.7h5.3v-8h-5.3v-2.7h5.3v-2.7h2.7v2.7h2.7v-2.7h2.7v2.7h5.3v2.7h-5.3zm-2.7 0h-2.7v2.7h2.7v-2.7zm-2.6 8h2.7v-2.7h-2.7v2.7zm50.4-.1h2.7v2.7h-2.7v2.7h-2.7v-2.7h-8v2.7h-2.7v-2.7h-2.7v-2.7h2.7v-10.6h-2.7v-2.7h18.6v2.7h-2.7l.2 10.6zm-8-8h-2.7v2.7h2.7v-2.7zm-2.7 5.4v2.7h2.7v-2.7h-2.7zm5.3-2.7h2.7v-2.7h-2.7v2.7zm0 5.3h2.7v-2.7h-2.7v2.7zm50.5-13.2v2.7h-2.7v2.7h2.7v5.3h-2.7v-2.7h-2.7v2.7h2.7v2.7h-5.3v2.7h5.3v-2.7h2.7v5.3h-10.6v-2.7h-2.7v2.7h-2.7v-2.7h-2.7v-2.7h2.7v-2.7h-2.7v-2.7h2.7v-2.7h-2.7v-2.7h2.7v-2.7h2.7v2.7h5.3v2.7h2.7v-2.7h-2.7v-2.7l8 .2zm-10.6 5.3h-2.7v2.7h2.7v-2.7zm-2.7 5.3v2.7h2.7v-2.7h-2.7zM169 551.1v10.6h-2.6V559h-2.6v2.7h2.6v2.7h-2.6v2.6h5.3v2.7h-18.6V567h5.3v-2.7h-2.6v-2.7h-2.6v-8h2.6V551h2.6v2.7h5.3V551h7.9zm-10.6 10.6h2.6v-5.3h-8v2.7h5.3l.1 2.6zm5.3-5.3h2.6v-2.7h-2.6v2.7zm31.8 0h-2.6v-2.7h2.6v2.7zm0 5.3h-2.6V559h2.6v2.7zm0 8h-2.6V567h2.6v2.7zm2.7-15.9h-2.7v-2.7h2.7v2.7zm0 2.6v2.7h-2.7v-2.7h2.7zm0 10.6h-2.7v-5.3h2.7v5.3zm13.2-13.2h-5.3v2.7h5.3v8h-2.6v-5.3h-5.3v2.7h2.6v5.2h-2.6v-2.7h-2.6v-8h2.6v-2.7h-2.6v-2.6h10.6l-.1 2.7zm-8 15.9h-2.6V567h2.6v2.7zm8 0h-2.6V567h2.6v2.7zm45.1-15.9h2.6v2.7h-2.6v-2.7zm2.7 13.2h-2.6v-2.7h2.6v2.7zm0-5.3h2.6v2.7h-2.6v-2.7zm5.3-2.7h-2.6v-2.6h2.6v2.6zm0 10.7h-2.6V567h2.6v2.7zm10.6-16v5.3h-2.6v-2.6h-8v-5.3h2.6v2.7l8-.1zm-8 13.3h-2.6v-2.7h2.6v2.7zm0-8h2.7v5.3h-2.7V559zm2.6 8v-2.7h2.6v2.6l-2.6.1zm5.3 2.7h-2.6V567h2.6v2.7zm42.5-15.9v2.7h-2.7v2.7h2.7v2.7h-2.7v2.7h2.7v5.3h-10.6V567h-2.6v2.7h-2.7v-5.3H299v-2.7h2.6V559H299v-5.3h2.6v2.7h2.7v-2.7h2.6v-2.6h2.6v2.7h2.6v-2.7h2.6v2.7h2.8zm-15.9-2.7h2.7v2.7h-2.7v-2.7zm2.6 13.3h2.6V559h-2.6v5.4zm5.3-5.4h2.6v-2.6h-2.6v2.6zm0 5.4h2.6v-2.7h-2.6v2.7zm34.5 5.3h-2.6V567h2.6v2.7zm8-13.3v8h-2.7v2.6h2.7v2.7h-5.3V567H344v-13.2h8v-2.7h2.6v2.7h5.3v2.7l-7.9-.1zm-2.7 0h-2.6v2.7h2.6v-2.7zm5.3 13.3V567H352v-2.7h2.6V559h5.3v8h-2.6v2.7h-2.7zm31.9 0h-2.6V567h2.6v2.7zm15.9-15.9v8h-13.3v5.2h-2.7v-13.2h5.3v-2.7h2.6v2.7h8.1zm-2.7 5.2v-2.6h-10.6v2.7l10.6-.1zm39.8-5.2v5.3h2.6v5.3h-2.6v-2.7h-8v2.7h-2.6V559h2.6v-5.3h-5.3V551h18.6v2.7h-5.3zm-13.3 5.2v-2.6h2.6v2.7l-2.6-.1zm0 10.7V567h5.3v2.7h-5.3zm5.3-5.3h8v2.6h-8v-2.6zm2.7-5.4h2.7v-5.3h-2.7v5.3zm10.6 10.7h-5.3V567h5.3v2.7zm-2.6-13.3h2.6v2.7h-2.6v-2.7zm45-5.3v18.6h-5.3V567h2.6v-13.2h-2.6V567h-2.6v-5.3h-2.6V559H474v2.7h2.6v5.3H474v2.7h-2.7v-5.3h-2.6v-2.7h2.6V559h-2.6v-5.3h2.6v-2.6h2.7v2.7h2.6v2.7h2.6v-2.7h-2.6v-2.7h10.6zm-8 18.6h-2.6V567h2.6v2.7zm50.5-18.6v5.3H527v-2.7h-5.3v2.7h5.3v2.7h-2.7v2.7h5.3v2.7H527v2.6h-5.3v2.7H519V567h-5.3v-2.7h-2.6v-2.7h5.3V559h-2.7v-2.6h5.3v-2.7h-5.3v2.7h-2.6v-5.3h18.6zm-10.6 10.6h2.7V559h-2.7v2.7zm15.9-7.9h-2.7v-2.7h2.7v2.7zm0 5.2h-2.7v-2.6h2.7v2.6zm-2.7 2.7h2.7v8h-2.7v-8zm18.6-10.6v18.6h-2.7V567h-2.7v2.7h-2.7V567h-2.7v2.7h-2.7v-13.2h2.7v-2.7h2.7v-2.7h8.1zm-13.3 2.7v-2.7h2.7v2.7h-2.7zm2.7 8v2.7h2.7v-2.7h-2.7zm5.3-5.4h2.7v-2.7h-2.7v2.7zm0 8h2.7v-2.7h-2.7v2.7zm95.5 5.3h-2.7V567h2.7v2.7zm15.9-15.9v8h-13.3v5.2H641v-13.2h5.3v-2.7h2.6v2.7h8.1zm-2.7 5.2v-2.6h-10.6v2.7l10.6-.1zm55.7 5.4h-2.7v2.6h2.7v2.7h-8v-8h2.7V559H702v-7.9h18.6v2.7H718v2.7h-2.7v-2.7h-2.7v2.7H710v2.7h-2.7v2.7h2.7v2.5zm-2.7-10.6h-2.7v2.7h2.7v-2.7zm5.3 5.2v-2.6h2.7v2.7h5.3v2.7h-5.3v2.7h2.7v2.6h-2.7v2.7h-2.7V567H710v-2.7h2.7v-2.7H710V559h2.6zm8 8v2.7H718V567h2.6zm39.8-15.9v2.7h2.7v8h-5.3v2.7h5.3v2.6h-5.3v2.7h-2.7V567h-5.3v-2.7h-5.3v-8h5.3v-2.7h2.7V551h2.7v2.7h2.7V551h2.5zm-15.9 0h5.3v2.7h-5.3v-2.7zm0 18.6V567h5.3v2.7h-5.3zm8-5.3h2.7v-2.7h-2.7V559h2.7v-2.6h-2.7v2.7h-5.3v2.7h5.3v2.6zm5.3-5.4h2.7v-2.6h-2.7v2.6zm42.4-5.2v5.3h5.3v2.7h-2.7v5.3h2.7v2.7h-5.3V567h-2.7v-5.3h-5.3v8H787V567h2.7v-2.7H787v-2.7h2.7v-5.3H787v-2.7h2.7v-2.7h2.7v2.7h2.7v2.7h-2.7v2.7h5.3v-5.3H795V551h10.6v2.7h-5.4zm-2.6 15.9h-2.7V567h2.7v2.7zm58.3-2.7h-2.7v-8h-2.7v-2.6h5.3l.1 10.6zm-2.7 2.7h-2.7V567h2.7v2.7zm0-18.6h2.7v2.7h-2.7v-2.7zm10.7 2.6h5.3v10.6h-2.7v-2.7h-5.3v2.7h5.3v2.6h2.7v2.7h-13.3V567h2.7v-13.2h2.7v-2.7h2.7l-.1 2.6zm2.6 5.3v-2.6h-5.3v2.7l5.3-.1zm45.1-5.2v2.7H909v2.7h2.7v2.7H909v2.7h-2.7v-2.7h-2.7v-2.7h2.7v-2.7h-8v2.7h2.6v5.3h-2.7v-2.7h-2.7v2.7H893v-5.3h2.7v-2.7H893v-2.7h5.3v-2.7h2.7v2.7h2.7v-2.7h2.7v2.7h5.2zm-15.9 15.9H893V567h2.7v2.7zm2.6-2.7h-2.7v-2.7h2.7v2.7zm2.7 0v2.7h-2.7V567h2.7zm5.3-2.6v2.6h2.7v-2.7h2.7v5.3h-8v-5.3l2.6.1zm47.7-13.3v13.3h-8v5.3h-2.7v-5.3h-8v-13.3H954zm-15.9 2.7v2.7h5.3v-2.7h-5.3zm0 8h5.3v-2.7h-5.3v2.7zm13.3-5.4v-2.7h-5.3v2.7h5.3zm0 5.4v-2.7h-5.3v2.7h5.3zm29.2-5.4v-5.3h2.7v18.6h-2.7V559h-2.7v-2.6h2.7zm8-2.6h-2.7v-2.7h2.7v2.7zm-2.7 2.6h2.7v13.3h-2.7v-13.3zm5.3-5.3h5.3v18.6h-5.3V567h2.7v-13.2h-2.7v-2.7zm29.1 2.7v-2.7h2.7v2.7h-2.7zm2.7 5.2h-2.7v-2.6h2.7v2.6zm-2.7 10.7v-5.3h2.7v5.3h-2.7zm18.6-18.6v10.6h-2.7v2.7h-2.7v2.6h5.3v2.7h-13.3V567h5.4v-2.7h-2.7v-2.7h-2.7v-5.3h-2.7v-2.7h2.7v-2.7h13.4zm-13.3 13.3h-2.6v-2.7h2.7l-.1 2.7zm10.6-8v-2.7h-8v2.7h8zm45.1-2.6v2.7h-2.7v2.7h2.7v10.6h-10.6V567h-2.7v-2.7h-2.7v2.7h2.7v2.7h-5.3v-13.2h2.7v-2.7h-2.7v-2.7h10.6v2.7h2.6v-2.7h2.7v2.7h2.7zm-10.6 0h-2.7v2.7h2.7v-2.7zm2.7 5.2h2.6v-2.6h-2.7l.1 2.6zm5.3 8v-2.7h-5.3v2.6l5.3.1zm31.8-5.3v5.3h2.7v2.7h-8V567h2.7v-5.3h-2.7v-8h2.7v-2.6h2.7v2.7h2.7v8l-2.8-.1zm0-5.3h-2.7v2.7h2.7v-2.7zm13.3-2.6v2.7h-2.7v2.7h2.7v2.7h-2.7v2.7h2.7v2.6h-2.7v2.7h-2.7V567h-5.3v-2.7h5.3v-2.7h-2.7V559h2.7v-2.6h-2.7v-2.7h2.7V551h2.7v2.7h2.7zm-957.5 23.8v8h2.7v2.7h-2.6v2.7h-2.6v-2.7H161v2.7h-2.7v-2.7h-2.6v2.7H153v-2.7h-2.6v-8h2.6v-2.7h-2.6V575h2.6v-2.7h2.6v2.7h2.6v-2.7h2.7v2.7h2.6v-2.7h2.6v2.7h2.7v2.7l-2.5-.1zm-8 0h-2.6v2.7h2.6v-2.7zm-2.6 5.3v2.7h2.6v-2.7h-2.6zm8-2.6v-2.7H161v2.7h2.7zm26.5-5.3v2.7h-2.6v2.7h-2.7v2.7h2.6v-2.7h2.6v5.3h-2.6v2.7h-2.6v-2.7h-2.7v2.7h2.7v2.7h-8v-2.7h2.6v-2.7h-2.6v2.7h-2.6V583h-2.7v-2.7h2.7v-2.7h-2.7v-5.3h2.7v2.7h5.3v-2.7h8v2.7h2.6zm-15.9 15.9h-2.7v-2.7h2.7v2.7zm5.3-8h2.6v-2.7h-2.6v-2.7H177v2.7h2.6v2.7zm10.6 5.3v2.7h-2.6v-2.7h2.6zm84.9-10.6h-2.6v5.3h-2.6v2.7h2.6v2.7h2.6v2.7h-8v-8h-2.6v2.7h-5.3v2.7h5.3v2.7h-8v-8h2.6v-5.3h-2.6V575h5.3v-2.7h2.6v2.7h2.6v-2.7h2.7v2.7h5.3l.1 2.6zm-5.3 2.7v-2.7h-8v2.7h8zm5.3 2.6v2.7h-2.6v-2.7h2.6zm42.4-7.9v8h-5.3v2.7h-2.6V583h-2.7v2.7h-2.6V583H299v-8h8v-2.7h2.6v2.7h7.9zm-15.9 2.7v2.7h2.7v-2.7h-2.7zm0 13.2v-2.7h5.3v2.7h-5.3zm13.3-10.6v-2.7h-8v2.7h8zm-5.3 8h-2.7v-2.7h2.6l.1 2.7zm5.3 2.7h-5.3v-2.7h5.3v2.7zm39.7-5.4H352v2.7h2.6v2.7h-8v-2.7h2.6v-2.7h-2.6v-5.3H344v5.3h-2.6v-8h2.6v-5.3h2.6v5.3h2.6V575h2.7v-2.7h2.6v2.7h2.6v8h-2.6v-2.7H352v2.7h2.6v2.6zm-10.6 5.3h-2.6v-2.7h2.6v2.7zm0-2.7v-2.7h2.6v2.7H344zm10.6 0v-2.7h2.6v2.7h-2.6zm5.3-5.3v2.7h-2.6v-2.7h2.6zm0 5.3v2.7h-2.6v-2.7h2.6zm42.5-15.9v5.3h-2.7V575h-5.3v2.7h5.3v2.7h-2.6v2.7h2.6v-2.7h2.7v5.3h-2.7v2.7h2.7v2.7h-8v-2.7h2.6v-2.7h-2.6v2.7h-2.6V583h-2.6v5.3h2.6v2.7h-8v-2.7h2.6v-2.7h-2.6V583h2.6v-5.3h-2.6V575h2.6v-2.7h2.7v2.7h2.6v-2.7h10.7zm-13.3 8h2.6v-2.7h-2.6v2.7zm55.7-2.7h-5.3v2.7h-2.6v-2.7h-2.7v2.7h2.7v5.3h2.6v2.7h-2.6v2.7h-2.7v-2.7h-2.6v2.7h-5.3v-18.6h5.3v2.7h8v-2.7h2.6v2.7h2.6v2.5zm-2.6 5.3h-2.6v-2.7h5.3v10.6h-5.3v-2.7h2.6v-5.2zm39.7-7.9h5.3v2.7h-2.7v5.3h-2.6v-2.7h-5.3v-2.7H474v10.6h-2.7v-2.7h-2.6v-2.7h2.6v-2.7h-2.6v-2.7h2.6V575h8v-2.7h2.6v2.7zm-10.6 15.9h-2.6v-2.7h2.6v2.7zm8-2.6V583h2.6v8h-5.3v-2.7h2.7zm55.7 2.6h-2.7v-2.7h2.7v2.7zm15.9-18.6v8h-13.3v8H535v-16h15.9zm-2.6 5.3V575h-10.6v2.7l10.6-.1zm7.9 0h-2.7V575h2.7v2.6zm8 2.7h2.7v-2.7h2.7v2.7h2.7v5.3h-2.7v-2.7h-2.7v2.7h2.7v2.7h2.7v2.7H567v-2.7h-2.7V583h-2.7v2.7h-2.7V583h-5.3v-2.7h8v-2.7h2.7l-.1 2.7zm-8 10.6h-2.7v-2.7h2.7v2.7zm8-18.6v2.7h-2.7v2.7h-2.7V575h-2.7v-2.7h8.1zm-5.3 15.9h-2.7v-2.7h2.7v2.7zm5.3 2.7h-2.7v-2.7h2.7v2.7zm2.6-15.9v2.7h-2.7V575h2.7zm0-2.7h5.3v5.3h-2.7V575h-2.7v-2.7zm90.2 5.3v5.3h-2.7v-2.7h-2.7v2.7h2.7v5.3h-2.7v-2.7H649v5.3h-5.3v-2.7h2.7v-2.7h-2.7v2.7H641v-5.3h2.7v-2.7H641v2.7h-2.7v-5.3h8V575H641v-2.7h13.3v2.7H649v2.7l8-.1zm-15.9 13.3h-2.7v-2.7h2.7v2.7zm15.9-2.7v2.7h-2.7v-2.7h2.7zm2.6-13.2v-2.7h2.7v2.7h-2.7zm2.7 5.3h-2.7v-2.7h2.7v2.7zm-2.7 10.6v-5.3h2.7v5.3h-2.7zm2.7-13.3V575h2.7v2.7l-2.7-.1zm0 8V583h2.7v2.7h-2.7zm15.9-13.2v2.6h-2.7v2.7h2.7v5.3h-2.7v2.7h2.7v2.7h-5.3v2.7h-2.7v-2.7h-5.3v-2.7h2.7V583h-2.7v-5.3h2.7V575h-2.7v-2.7l13.3.1zm-8 5.3h2.7V575h-2.7v2.7zm26.6-5.4v2.7h2.7v8h-2.7v2.7h-2.7v2.7h2.7v-2.7h2.7v5.3h-8v-2.7h-2.7v-2.7h2.7v-2.7h-2.7v2.7h-2.7v-2.7h-2.7v2.7h-2.7V575h2.7v-2.7h13.4zm-13.3 13.3h2.7v2.7h2.7v2.7h-8v-2.7h2.7l-.1-2.7zm0-8v2.7h2.7v-2.7h-2.7zm10.6 2.6h2.7v-2.7h-2.7v2.7zm69-5.2h-2.7v5.3h2.7v5.3h-2.7V583h-2.7v5.3H755V583h-2.7v5.3h2.7v2.7h-5.3v-5.3H747v5.3h-2.7v-18.6h5.3v2.7h-2.7v2.7h2.7V575h2.7v-2.7h10.6v2.7zm-15.9 5.3v2.7h2.7v-2.7h-2.7zm5.3-2.7v2.7h2.7v-2.7h-2.7zm10.6 13.3h-5.3v-2.7h5.3v2.7zm61-18.6v2.7h2.7v5.3h-2.7v-2.7h-2.7v2.7h2.7v5.3h-2.7V583h-2.7v5.3H816V583h-2.7v2.7h-2.7v-5.3h2.7v-2.7h-2.7v2.7h-2.7V575h2.7v-2.7h2.7v2.7h2.7v-2.7h2.7v2.7h2.7v-2.7h2.7zm-13.3 18.6v-2.7h5.3v2.7h-5.3zm5.3-10.6h2.7v-2.7h-2.7v2.7zm8 10.6h-2.7v-2.7h2.7v2.7zm39.8-13.3v2.7h2.7v-2.7h2.7v5.3h-2.7v2.7h-5.3v2.7h8v2.7h-18.6v-2.7h2.7v-2.7h2.7v2.7h2.7V583h-8v-2.7h2.7v-2.7h2.7V575h-2.7v2.7h-2.6v-5.3h8v2.7h2.7v2.7h-2.7v2.7h2.7v-2.7l2.3-.2zm5.3-5.3v2.7h-2.7v2.7h-2.7V575h-2.7v-2.7h8.1zm26.5 18.6H893v-2.7h2.7v2.7zm10.6-15.9h5.3v5.3H909v2.7h2.7v8h-8v-8h2.7v-2.7h-2.7v2.7H901v-2.7h-2.7v2.7h2.7v8h-2.7v-2.7h-2.7V575h8v-2.7h2.7v2.7zm42.4 0h5.3v8h-2.7v2.7h-2.7V583H946v2.7h-2.7v2.7h-2.7v2.7h-2.7v-2.7h-2.7v-8h2.7v-2.7h-2.7v-5.3h2.7v2.7h2.7v-2.7h2.7v2.7h2.7v-2.7h2.7v2.6zm-10.6 8v2.7h2.7V583h-2.7zm5.3-5.3v2.7h2.7v-2.7h-2.7zm2.7 13.2h-2.7v-2.7h2.7v2.7zm2.6-2.6H946v-2.7h2.7v2.7zm0-8h2.7v-2.7h-2.7v2.7zm5.3 10.6h-5.3v-2.7h5.3v2.7zm42.5-15.9v2.7h-2.7v2.7h2.7v2.7h-2.7v2.7h2.7v2.7h-5.3v2.7h-2.7v-2.7h-2.7v-2.7h-2.7v-5.3h2.7v-2.7h-2.7v2.7h-2.7v5.3h2.7v2.7h-2.7v2.7h-2.7v-18.6h5.3v2.7h5.3v-2.7h2.7v2.7h5.5zm-8 5.3h2.7v-2.7h-2.7v2.7zm29.2-8v18.6h-18.6v-18.6h18.6zm-15.9 15.9h2.7v-8h2.7v-2.7h-2.7V575h-2.7v13.2zm5.3-2.6v2.7h2.7v-2.7h-2.7zm5.3-8h2.6V575h-2.7l.1 2.6-2.7.1v2.7h2.7v8h2.7v-8h-2.7v-2.8zm23.8 5.3h2.7v2.7h-5.3v-2.7h-2.6v-2.7h-2.7v-2.7h-2.7v2.7h2.7v2.7h-2.7v2.7h-5.3v-2.7h2.6v-5.3h-2.7V575h2.7v-2.7h2.7v2.7h5.3v-2.7h2.7v2.7h2.7l-.1 7.9zm-13.2 8h-2.7v-2.7h2.7v2.7zm5.3 0h-2.7v-2.7h2.7v2.7zm2.7-5.3h-2.7V583h2.7v2.6zm2.6 5.3h-2.6v-2.7h2.7l-.1 2.7zm5.3 0h-2.7v-2.7h2.7v2.7zm42.4-18.6v18.6h-18.6v-18.6h18.6zm-15.9 10.6h2.7v-2.7h2.7v-2.7h-2.7V575h-2.7v7.9zm0 5.3h5.3v-2.7h-5.3v2.7zm13.3-13.2h-2.7v2.7h-2.7v2.7h2.7v2.7h2.7V575zm-5.3 10.6v2.7h2.6v-2.7h-2.6zm23.8-10.6h5.3v2.7h-8v2.7h5.3V591h-13.3v-10.6h5.4v-2.7h-8V575h5.3v-2.7h2.7v2.7h2.7v-2.7h2.7l-.1 2.7zm0 13.3v-2.7h-8v2.7h8zm-18.5 13.2h2.7v10.6h-2.7v-2.7h-2.7v-2.7h2.7V604h-2.7v2.7h-2.7V604h-2.7v-2.7h-2.7v2.7h2.7v2.7h-2.7v2.7h2.7v2.7h-5.3v-5.3h-2.7v-2.7h2.7v-2.7h-2.7v-5.3h2.7v2.7h2.7v-2.7h2.7v-2.7h8v8.1zm-13.3-8h2.7v2.7h-2.7v-2.7zm5.3 15.9v-2.7h2.7v2.7h-2.7zm5.3-10.6v-2.7h-2.7v2.7h2.7zm0 13.3h-2.7v-2.7h2.6l.1 2.7zm5.3 2.7v10.6h-2.7v2.6h2.7v2.7h-2.7v2.7h-2.7v-2.7h-5.3v2.7h-2.7V628h-2.7v5.3h-2.7v-18.5h8v2.7h2.7v2.7h2.6v-2.7h-2.7v-2.7h8.2zm-13.2 2.6h-2.7v2.7h2.7v-2.7zm-2.7 5.3v2.7h2.7v-2.7h-2.7zm10.6 5.3v-2.7h-5.3v2.7h5.3z" style="fill:#050404"/><path d="M474.4 666.7h4.2v4.2h-8.5v-21.2h12.7v4.2h-8.5v12.8zm8.5 0h-4.2v-4.2h4.2v4.2zm0-12.8h4.2v8.5h-4.2v-8.5zm21.2 0h-8.5v4.2h8.5v4.2h-8.5v4.2h8.5v4.2h-12.7v-21.2h12.7v4.4zm4.2 4.3V654h4.2v4.2h-4.2zm0 8.4H521v4.2h-12.7v-4.2zm12.8-17v4.2h-8.5v-4.2h8.5zm-8.5 8.5h8.5v4.2h-8.5v-4.2zm8.5 8.5v-4.2h4.2v4.2h-4.2zm8.4-16.9h4.2v21.2h-4.2v-21.2zm12.8 4.2v12.7H538v-12.7h4.3zm12.7 0h-12.7v-4.2H555v4.2zm-12.7 17v-4.2h8.5v-4.2h-4.2v-4.2h8.5V671l-12.8-.1zm21.2-21.2v4.2h4.2v4.2h-4.2v12.7h-4.2v-21.2h4.2zm8.5 0h4.2v21.2H572v-8.5h-4.2v-4.2h4.2v-8.5zm21.2 4.2h-8.5v4.2h8.5v4.2h-8.5v4.2h8.5v4.2h-12.7v-21.2h12.7v4.4zm8.5 12.8h4.2v4.2h-8.5v-21.2h12.7v4.2h-8.5v12.8zm8.5 0H606v-4.2h4.2v4.2zm0-12.8h4.2v8.5h-4.2v-8.5zm25.4 4.3h8.5v4.2h-8.5v4.2h8.5v4.2h-12.7v-21.2h12.7v4.2h-8.5v4.4zm12.8-4.3v4.2h-4.2v-4.2h4.2zm0 8.5v4.2h-4.2v-4.2h4.2zm4.2-12.7h4.2v8.5h-4.2v-8.5zm4.2 8.5h4.2v12.7h-4.2v-12.7zm8.5 0h-4.2V654h4.2v4.2zm0-4.3v-4.2h4.2v4.2h-4.2zm21.2-4.2h4.2v12.7h-4.2v-12.7zm12.8 17h4.2v4.2H695v-21.2h-4.2v-4.2h8.5v21.2zm8.5-12.7v12.7h-4.2v-12.8l4.2.1zm0-4.3v-4.2h4.2v4.2h-4.2zm4.2 21.2h-4.2v-4.2h4.2v4.2zm0-29.7h4.2v4.2H712v-4.2zm21.2 12.7h-12.7v4.2h-4.2v-4.2H712v-4.2h4.2v-4.2h4.2v4.2h12.7v4.2zM712 666.7v-8.5h4.2v8.5H712zm17-8.5v8.5h4.2v4.2h-8.5v-12.7h4.3zm12.7 8.5h8.5v4.2h-12.7v-4.2h-4.2v-4.2h4.2v-21.2h4.2V654h4.3v4.2h-4.2l-.1 8.5zm0-29.7h4.3v4.2h-4.2l-.1-4.2zm4.3 17v-12.8h4.2v12.7l-4.2.1zm12.7 12.7h8.5v4.2h-12.7v-4.2h-4.2v-4.2h4.2v-21.2h4.2V654h4.2v4.2h-4.2v8.5zm0-29.7h4.2v4.2h-4.2V637zm4.2 17v-12.8h4.2v12.7l-4.2.1zm8.5 12.7h-4.2v-4.2h4.2v4.2zm0-12.7v-4.2h17v4.2h-17zm8.5 12.7h8.5v4.2h-12.7v-8.5h-4.2v-4.2h8.5l-.1 8.5zm8.5-21.2h4.2v4.2h-4.2v-4.2zm25.5 21.2v4.2h-21.2v-4.2h-4.2v-8.5h4.2v4.2h4.2v4.2h17zm-21.3-25.5h4.2v4.2h-4.2v-4.2zm8.5 21.3h-4.2v-4.2h-4.2V654h8.5v8.5z" style="fill:#797070"/></svg>