<svg xmlns="http://www.w3.org/2000/svg" viewBox="0 0 1280 960" style="enable-background:new 0 0 1280 960" xml:space="preserve"><path d="M390.6 329c1.1-.1 2.1-.5 3.1-1.2s1.8-1.4 2.5-2.2c1.6-2 3.8-4.9 6.5-8.8 2.7-3.9 5.7-8.2 8.8-13 3.1-4.8 6.4-9.9 9.7-15.2 3.3-5.3 6.5-10.5 9.4-15.5 2.9-5 5.5-9.6 7.7-13.9 2.2-4.3 3.7-7.7 4.5-10.4.3-.8.4-1.5.4-2.2 0-1.5-1.8-2.2-5.4-2.2-1.6 0-3.4.1-5.4.2-2 .1-3.9.4-5.6.8l-.6-.2c.3-1.1.7-1.9 1.2-2.4 5.6-.3 11.1-.6 16.5-.9 5.4-.3 10-.8 13.9-1.5.7.4 1 .9 1 1.6 0 .3-.4.5-1.2.8-1.1.3-1.9.9-2.6 1.8-.7.9-1.3 2-2 3.2-2.8 5.2-6 11-9.5 17.4-3.5 6.4-7.3 13-11.3 19.9-4 6.9-8.1 13.7-12.3 20.5s-8.2 13.1-12.1 19c-1.1 1.5-2.3 2.6-3.6 3.4-1.3.8-2.6 1.3-3.8 1.6-1.5.3-3.1.4-4.8.5-1.7.1-3.3 0-4.6-.1-.3-.1-.4-.4-.4-1zM505 303.8c-2.4 3.3-5.2 6.7-8.3 10.1-3.1 3.4-6.5 6.4-10 9.1-3.5 2.7-7.1 4.9-10.8 6.6-3.7 1.7-7.2 2.6-10.7 2.6-1.6 0-3.1-.2-4.4-.7-1.3-.5-2-1.6-2-3.5s.7-4.2 2-7.1c1.3-2.9 2.9-5.9 4.7-9.1 1.8-3.2 3.7-6.5 5.6-9.8 1.9-3.3 3.5-6.4 4.7-9.2.3-.7.3-1.2.1-1.7-.2-.5-.6-.5-1.3-.1-1.5.9-3.2 2.2-5.2 3.8-2 1.6-4 3.3-6.1 5.1-2.1 1.8-4.1 3.6-6 5.5-1.9 1.9-3.5 3.5-4.7 5-2.1 3.3-4 6.4-5.5 9.2-1.5 2.8-3.4 5.9-5.7 9.4-.5.8-.9 1.2-1.2 1.2-.7 0-1.2-.7-1.7-2.2-.5-1.5-.7-2.4-.7-2.8 0-1.2.8-2.8 2.5-4.9 1.7-2.1 3.5-4.4 5.5-6.9 2.1-4.3 4.3-8.8 6.6-13.5 2.3-4.7 4.2-9 5.8-12.7.4-.7 1-1 1.8-1s1.5.3 2.2 1c.7.7 1 1.4 1 2.2 0 .5-1 2.4-2.9 5.5s-3.8 6.8-5.7 10.9c2.5-2.3 5.3-4.7 8.3-7.2 3-2.5 5.9-4.9 8.6-7 2.7-2.1 5.1-3.9 7.2-5.3 2.1-1.4 3.5-2.1 4.3-2.1.5 0 1 .3 1.5.9.5.6.7 1.2.7 1.7s-.3 1.3-1 2.4c-1.5 2.1-3.3 4.9-5.4 8.2-2.1 3.3-4.2 6.8-6.1 10.3-1.9 3.5-3.6 6.9-4.9 10.1-1.3 3.2-2 5.7-2 7.6 0 1.6.3 2.7 1 3.3.7.6 1.7.9 3.2.9 2.3 0 4.9-.9 8-2.6 3.1-1.7 6.2-3.9 9.5-6.5s6.4-5.5 9.3-8.7c2.9-3.2 5.3-6.3 7.2-9.2.3-.4.7-.5 1.2-.3s.5.7-.2 1.5z"/><path d="M621 196.6c0 .8-.4 1.6-1.2 2.4-.8.8-1.3 1.9-1.6 3.4-.3.9-.7 1.4-1.4 1.4-.4 0-.8-.1-1.2-.3-.4-.2-.9-.4-1.5-.7-.6-.3-1.3-.5-2.2-.7-.9-.2-2.1-.3-3.7-.3-2.3 0-4.5.3-6.8.9-2.3.6-4.3 1.5-6.2 2.7-3.7 2.4-7.8 5.8-12.1 10.2-4.3 4.4-8.3 9.2-11.9 14.4-8.9 12.8-16.8 24.8-23.5 35.9-6.7 11.1-12.4 21.1-16.9 29.9-4.5 8.8-7.9 16.3-10.2 22.5-2.3 6.2-3.4 10.8-3.4 13.7 0 2.3.5 4.1 1.5 5.6s2.6 2.2 4.9 2.2c3.6 0 7-1.1 10.3-3.4 3.3-2.3 6.4-5.1 9.3-8.5 2.9-3.4 5.6-7.2 8-11.3 2.4-4.1 4.5-8 6.2-11.6.3-.5.7-.7 1.3-.6.6.1.6.7-.1 1.6-2.4 4.8-5 9.4-7.7 13.7-2.7 4.3-5.6 8.1-8.6 11.4s-6.1 5.8-9.4 7.7c-3.3 1.9-6.5 2.8-9.7 2.8-3.6 0-6.3-1-8-2.9-1.7-1.9-2.6-4.4-2.6-7.5 0-3.2.6-6.6 1.9-10.3 1.3-3.7 3.2-8.2 5.9-13.5-3.7 4.5-7 8.3-9.8 11.4-2.8 3.1-5.3 5.5-7.4 7.2-2.1 1.7-4 3-5.5 3.7-1.5.7-2.9 1.1-4.1 1.1-1.9 0-3.1-.5-3.8-1.5-.7-1-1-2.3-1-3.9 0-1.2.3-2.8 1-4.7.7-1.9 1.6-3.8 2.8-5.7 4.9-8 10.4-14.5 16.5-19.6 6.1-5.1 13.6-8.4 22.5-10 6.4-11.2 12.5-21.3 18.4-30.2 5.9-8.9 12.3-17.7 19.2-26.2 5.7-7.2 11.4-13.5 17.1-19 5.7-5.5 11.5-9.6 17.5-12.4 4.5-2.1 8.5-3.2 11.8-3.2 1.6 0 2.9.2 3.9.6s1.5 1 1.5 1.6zm-91 91.8c-5.1.1-9 1.1-11.7 2.9-2.7 1.8-5.2 4-7.3 6.7-5.1 6.3-8.7 11.6-10.8 16.1-2.1 4.5-3.2 7.8-3.2 9.9 0 .7.3 1.1.8 1.4.5.3.9.4 1.2.4.9 0 2.6-1 5.1-3 2.5-2 5.2-4.7 8.2-8.1s6.1-7.4 9.3-11.9c3.2-4.5 6-9.3 8.4-14.4z"/><path d="M599 305.8c-2.3 2.8-5 5.7-8.1 8.7-3.1 3-6.5 5.7-10.2 8.2-3.7 2.5-7.5 4.5-11.4 6-3.9 1.5-7.8 2.3-11.7 2.3-6.3 0-9.4-2.8-9.4-8.4 0-3.7 1-7.8 2.9-12.1s4.4-8.3 7.5-12c3.1-3.7 6.4-6.7 10.1-9.2 3.7-2.5 7.2-3.7 10.5-3.7 1.9 0 3.2.3 3.9 1 .7.7 1.1 1.5 1.1 2.6 0 1.6-.5 3.3-1.5 5.2-1 1.9-2.5 3.6-4.5 5.3-2 1.7-4.5 3.1-7.6 4.2-3.1 1.1-6.7 1.7-11 1.7-.7 1.2-1.4 3.1-2.2 5.7-.8 2.6-1.2 5.2-1.2 7.9 0 5.5 2.5 8.2 7.4 8.2 3.1 0 6.2-.7 9.5-2.2 3.3-1.5 6.4-3.3 9.5-5.5 3.1-2.2 5.9-4.6 8.5-7.2 2.6-2.6 4.8-5 6.5-7.3.3-.3.6-.3.9-.2.3.2.5.4.5.8zm-21-15.6c0-1.7-.9-2.6-2.6-2.6-1.3 0-2.7.5-4.1 1.5s-2.8 2.3-4.1 3.9c-1.3 1.6-2.6 3.3-3.8 5.2-1.2 1.9-2.2 3.7-3 5.4.3.1.7.2 1.4.3.7.1 1.2.1 1.6.1 3.9 0 7.3-1.4 10.2-4.1 2.9-2.7 4.4-5.9 4.4-9.7z"/><path d="M647.8 298.2c-7.1 8.9-14.6 15.6-22.7 19.9-8.1 4.3-16.5 7.5-25.3 9.5-3.1.7-5.7 1.2-8 1.6-2.3.4-4.5.8-6.8 1.2-3.9 6.5-7.5 13-11 19.5s-6.9 12.9-10.4 19.3c-5.1 9.5-9.7 18.4-13.8 26.8-4.1 8.4-8.6 16.7-13.4 25-.9 1.6-2.2 2.8-3.8 3.7-1.6.9-3.5 1.6-5.6 2.3-2.1.7-4.6 1.3-7.4 2-2.8.7-5.9 1.6-9.2 2.8-.8.4-1.3.3-1.4-.3-.1-.6.2-1 1-1.3 3.5-1.3 6.4-2.6 8.8-3.9 2.4-1.3 4.6-2.8 6.5-4.5 1.9-1.7 3.8-3.8 5.5-6.2 1.7-2.4 3.7-5.4 6-9 2.3-3.7 5-8.4 8.3-13.9 3.3-5.5 6.9-11.6 10.9-18.3 4-6.7 8.2-13.8 12.6-21.3s8.9-15.1 13.4-22.7c-.8-.3-1.2-1-1.2-2.2 0-.8.4-1.3 1.3-1.4.9-.1 1.6-.3 2.1-.4l9.2-15c4.3-6.9 8.5-14.1 12.8-21.6 4.3-7.5 8.7-14.1 13.2-20 .5-.5 1.3-.9 2.2-1.2.3-.1.8-.3 1.6-.4.8-.1 1.6-.3 2.4-.4.8-.1 1.5-.2 2.2-.3.7-.1 1.1-.1 1.2-.1.4 0 .6.1.6.4 0 .4-.3.9-.8 1.4-2.8 2.5-5.3 5-7.4 7.3-2.1 2.3-4.1 4.6-6 6.8-1.9 2.2-3.6 4.4-5.3 6.7-1.7 2.3-3.4 4.7-5.1 7.4 1.3-1.5 2.8-3 4.4-4.6 1.6-1.6 3.2-3.1 4.8-4.4 1.6-1.3 3.2-2.4 4.8-3.3 1.6-.9 3.1-1.3 4.4-1.3 1.3 0 2.4.4 3.3 1.2.9.8 1.3 2.1 1.3 4 0 1.3-.6 3.4-1.7 6.2-1.1 2.8-3.1 5.9-5.8 9.4-2.7 3.5-6.4 7.1-10.9 10.8-4.5 3.7-10.2 7.2-17 10.4 3.6-.4 7.6-1 12.1-1.9 4.5-.9 9.1-2.3 13.9-4.4 4.8-2.1 9.6-4.9 14.4-8.4 4.8-3.5 9.3-8.1 13.6-13.7.1-.3.4-.4.7-.3.3.1.5.5.5 1.1zm-28-5.2c0-.5-.1-1.2-.3-2-.2-.8-.9-1.2-2.1-1.2-.7 0-1.6.4-2.9 1.1-1.3.7-2.7 1.7-4.3 3-1.6 1.3-3.3 2.8-5 4.7-1.7 1.9-3.4 3.9-5 6.2-2.3 3.2-4.5 6.6-6.6 10.3-2.1 3.7-4.3 7.4-6.4 11.3 4.4-1.2 8.6-3.2 12.5-6 3.9-2.8 7.4-5.9 10.4-9.2 3-3.3 5.4-6.7 7.1-10 1.7-3.3 2.6-6 2.6-8.2z"/><path d="M684 305.8c-2.3 2.8-5 5.7-8.1 8.7-3.1 3-6.5 5.7-10.2 8.2-3.7 2.5-7.5 4.5-11.4 6-3.9 1.5-7.8 2.3-11.7 2.3-6.3 0-9.4-2.8-9.4-8.4 0-3.7 1-7.8 2.9-12.1s4.4-8.3 7.5-12c3.1-3.7 6.4-6.7 10.1-9.2 3.7-2.5 7.2-3.7 10.5-3.7 1.9 0 3.2.3 3.9 1 .7.7 1.1 1.5 1.1 2.6 0 1.6-.5 3.3-1.5 5.2-1 1.9-2.5 3.6-4.5 5.3-2 1.7-4.5 3.1-7.6 4.2-3.1 1.1-6.7 1.7-11 1.7-.7 1.2-1.4 3.1-2.2 5.7-.8 2.6-1.2 5.2-1.2 7.9 0 5.5 2.5 8.2 7.4 8.2 3.1 0 6.2-.7 9.5-2.2 3.3-1.5 6.4-3.3 9.5-5.5 3.1-2.2 5.9-4.6 8.5-7.2 2.6-2.6 4.8-5 6.5-7.3.3-.3.6-.3.9-.2.3.2.5.4.5.8zm-21-15.6c0-1.7-.9-2.6-2.6-2.6-1.3 0-2.7.5-4.1 1.5s-2.8 2.3-4.1 3.9c-1.3 1.6-2.6 3.3-3.8 5.2-1.2 1.9-2.2 3.7-3 5.4.3.1.7.2 1.4.3.7.1 1.2.1 1.6.1 3.9 0 7.3-1.4 10.2-4.1 2.9-2.7 4.4-5.9 4.4-9.7z"/><path d="M737.4 303.8c-2.4 3.3-5.2 6.7-8.3 10.1-3.1 3.4-6.5 6.4-10 9.1-3.5 2.7-7.1 4.9-10.8 6.6-3.7 1.7-7.2 2.6-10.7 2.6-1.6 0-3.1-.2-4.4-.7-1.3-.5-2-1.6-2-3.5s.7-4.2 2-7.1c1.3-2.9 2.9-5.9 4.7-9.1 1.8-3.2 3.7-6.5 5.6-9.8 1.9-3.3 3.5-6.4 4.7-9.2.3-.7.3-1.2.1-1.7-.2-.5-.6-.5-1.3-.1-1.5.9-3.2 2.2-5.2 3.8-2 1.6-4 3.3-6.1 5.1-2.1 1.8-4.1 3.6-6 5.5-1.9 1.9-3.5 3.5-4.7 5-2.1 3.3-4 6.4-5.5 9.2-1.5 2.8-3.4 5.9-5.7 9.4-.5.8-.9 1.2-1.2 1.2-.7 0-1.2-.7-1.7-2.2-.5-1.5-.7-2.4-.7-2.8 0-1.2.8-2.8 2.5-4.9 1.7-2.1 3.5-4.4 5.5-6.9 2.1-4.3 4.3-8.8 6.6-13.5 2.3-4.7 4.2-9 5.8-12.7.4-.7 1-1 1.8-1s1.5.3 2.2 1c.7.7 1 1.4 1 2.2 0 .5-1 2.4-2.9 5.5s-3.8 6.8-5.7 10.9c2.5-2.3 5.3-4.7 8.3-7.2 3-2.5 5.9-4.9 8.6-7 2.7-2.1 5.1-3.9 7.2-5.3 2.1-1.4 3.5-2.1 4.3-2.1.5 0 1 .3 1.5.9.5.6.7 1.2.7 1.7s-.3 1.3-1 2.4c-1.5 2.1-3.3 4.9-5.4 8.2-2.1 3.3-4.2 6.8-6.1 10.3-1.9 3.5-3.6 6.9-4.9 10.1-1.3 3.2-2 5.7-2 7.6 0 1.6.3 2.7 1 3.3.7.6 1.7.9 3.2.9 2.3 0 4.9-.9 8-2.6 3.1-1.7 6.2-3.9 9.5-6.5s6.4-5.5 9.3-8.7c2.9-3.2 5.3-6.3 7.2-9.2.3-.4.7-.5 1.2-.3s.5.7-.2 1.5z"/><path d="M853.4 196.6c0 .8-.4 1.6-1.2 2.4-.8.8-1.3 1.9-1.6 3.4-.3.9-.7 1.4-1.4 1.4-.4 0-.8-.1-1.2-.3-.4-.2-.9-.4-1.5-.7-.6-.3-1.3-.5-2.2-.7-.9-.2-2.1-.3-3.7-.3-2.3 0-4.5.3-6.8.9-2.3.6-4.3 1.5-6.2 2.7-3.7 2.4-7.8 5.8-12.1 10.2-4.3 4.4-8.3 9.2-11.9 14.4-8.9 12.8-16.8 24.8-23.5 35.9-6.7 11.1-12.4 21.1-16.9 29.9-4.5 8.8-7.9 16.3-10.2 22.5-2.3 6.2-3.4 10.8-3.4 13.7 0 2.3.5 4.1 1.5 5.6s2.6 2.2 4.9 2.2c3.6 0 7-1.1 10.3-3.4 3.3-2.3 6.4-5.1 9.3-8.5 2.9-3.4 5.6-7.2 8-11.3 2.4-4.1 4.5-8 6.2-11.6.3-.5.7-.7 1.3-.6.6.1.6.7-.1 1.6-2.4 4.8-5 9.4-7.7 13.7-2.7 4.3-5.6 8.1-8.6 11.4s-6.1 5.8-9.4 7.7c-3.3 1.9-6.5 2.8-9.7 2.8-3.6 0-6.3-1-8-2.9-1.7-1.9-2.6-4.4-2.6-7.5 0-3.2.6-6.6 1.9-10.3 1.3-3.7 3.2-8.2 5.9-13.5-3.7 4.5-7 8.3-9.8 11.4-2.8 3.1-5.3 5.5-7.4 7.2-2.1 1.7-4 3-5.5 3.7-1.5.7-2.9 1.1-4.1 1.1-1.9 0-3.1-.5-3.8-1.5-.7-1-1-2.3-1-3.9 0-1.2.3-2.8 1-4.7.7-1.9 1.6-3.8 2.8-5.7 4.9-8 10.4-14.5 16.5-19.6 6.1-5.1 13.6-8.4 22.5-10 6.4-11.2 12.5-21.3 18.4-30.2 5.9-8.9 12.3-17.7 19.2-26.2 5.7-7.2 11.4-13.5 17.1-19 5.7-5.5 11.5-9.6 17.5-12.4 4.5-2.1 8.5-3.2 11.8-3.2 1.6 0 2.9.2 3.9.6s1.5 1 1.5 1.6zm-91 91.8c-5.1.1-9 1.1-11.7 2.9-2.7 1.8-5.2 4-7.3 6.7-5.1 6.3-8.7 11.6-10.8 16.1-2.1 4.5-3.2 7.8-3.2 9.9 0 .7.3 1.1.8 1.4.5.3.9.4 1.2.4.9 0 2.6-1 5.1-3 2.5-2 5.2-4.7 8.2-8.1s6.1-7.4 9.3-11.9c3.2-4.5 6-9.3 8.4-14.4z"/><path d="M831.4 305.8c-2.3 2.8-5 5.7-8.1 8.7-3.1 3-6.5 5.7-10.2 8.2-3.7 2.5-7.5 4.5-11.4 6-3.9 1.5-7.8 2.3-11.7 2.3-6.3 0-9.4-2.8-9.4-8.4 0-3.7 1-7.8 2.9-12.1s4.4-8.3 7.5-12c3.1-3.7 6.4-6.7 10.1-9.2 3.7-2.5 7.2-3.7 10.5-3.7 1.9 0 3.2.3 3.9 1 .7.7 1.1 1.5 1.1 2.6 0 1.6-.5 3.3-1.5 5.2-1 1.9-2.5 3.6-4.5 5.3-2 1.7-4.5 3.1-7.6 4.2-3.1 1.1-6.7 1.7-11 1.7-.7 1.2-1.4 3.1-2.2 5.7-.8 2.6-1.2 5.2-1.2 7.9 0 5.5 2.5 8.2 7.4 8.2 3.1 0 6.2-.7 9.5-2.2 3.3-1.5 6.4-3.3 9.5-5.5 3.1-2.2 5.9-4.6 8.5-7.2 2.6-2.6 4.8-5 6.5-7.3.3-.3.6-.3.9-.2.3.2.5.4.5.8zm-21-15.6c0-1.7-.9-2.6-2.6-2.6-1.3 0-2.7.5-4.1 1.5s-2.8 2.3-4.1 3.9c-1.3 1.6-2.6 3.3-3.8 5.2-1.2 1.9-2.2 3.7-3 5.4.3.1.7.2 1.4.3.7.1 1.2.1 1.6.1 3.9 0 7.3-1.4 10.2-4.1 2.9-2.7 4.4-5.9 4.4-9.7z"/><path d="M884.8 303.8c-2.4 3.3-5.2 6.7-8.3 10.1-3.1 3.4-6.5 6.4-10 9.1-3.5 2.7-7.1 4.9-10.8 6.6-3.7 1.7-7.2 2.6-10.7 2.6-1.6 0-3.1-.2-4.4-.7-1.3-.5-2-1.6-2-3.5s.7-4.2 2-7.1c1.3-2.9 2.9-5.9 4.7-9.1 1.8-3.2 3.7-6.5 5.6-9.8 1.9-3.3 3.5-6.4 4.7-9.2.3-.7.3-1.2.1-1.7-.2-.5-.6-.5-1.3-.1-1.5.9-3.2 2.2-5.2 3.8-2 1.6-4 3.3-6.1 5.1-2.1 1.8-4.1 3.6-6 5.5-1.9 1.9-3.5 3.5-4.7 5-2.1 3.3-4 6.4-5.5 9.2-1.5 2.8-3.4 5.9-5.7 9.4-.5.8-.9 1.2-1.2 1.2-.7 0-1.2-.7-1.7-2.2-.5-1.5-.7-2.4-.7-2.8 0-1.2.8-2.8 2.5-4.9 1.7-2.1 3.5-4.4 5.5-6.9 2.1-4.3 4.3-8.8 6.6-13.5 2.3-4.7 4.2-9 5.8-12.7.4-.7 1-1 1.8-1s1.5.3 2.2 1c.7.7 1 1.4 1 2.2 0 .5-1 2.4-2.9 5.5s-3.8 6.8-5.7 10.9c2.5-2.3 5.3-4.7 8.3-7.2 3-2.5 5.9-4.9 8.6-7 2.7-2.1 5.1-3.9 7.2-5.3 2.1-1.4 3.5-2.1 4.3-2.1.5 0 1 .3 1.5.9.5.6.7 1.2.7 1.7s-.3 1.3-1 2.4c-1.5 2.1-3.3 4.9-5.4 8.2-2.1 3.3-4.2 6.8-6.1 10.3-1.9 3.5-3.6 6.9-4.9 10.1-1.3 3.2-2 5.7-2 7.6 0 1.6.3 2.7 1 3.3.7.6 1.7.9 3.2.9 2.3 0 4.9-.9 8-2.6 3.1-1.7 6.2-3.9 9.5-6.5s6.4-5.5 9.3-8.7c2.9-3.2 5.3-6.3 7.2-9.2.3-.4.7-.5 1.2-.3s.5.7-.2 1.5z"/><path d="M919.2 256.6c-1.1.3-2.3.8-3.6 1.5-1.3.7-2.3 1.6-3 2.7-3.1 4.3-6 8.7-8.9 13.4-2.9 4.7-5.6 9.3-8.3 14h24.8c.4.3.6.5.6.8 0 .3-.1.5-.4.6-1.1 0-2.7 0-4.8.1-2.1.1-4.5.2-7 .3-2.5.1-5.1.3-7.8.4-2.7.1-5 .3-7 .4-3.7 6.7-6.6 12.3-8.6 17-2 4.7-3 8.7-3 12.2 0 4.8 2.2 7.2 6.6 7.2 2.1 0 4.6-.6 7.3-1.7s5.6-2.6 8.7-4.5c.4-.4.8-.4 1.2.1.4.5.3.8-.4 1.1-4.5 2.9-8.7 5.1-12.6 6.4-3.9 1.3-7.8 2-11.8 2-2.1 0-4-.6-5.6-1.9-1.6-1.3-2.4-3.4-2.4-6.5 0-2.7 1.2-6.6 3.6-11.8 2.4-5.2 5.9-11.6 10.6-19.2-1.6.1-3.6.3-5.9.5-2.3.2-3.7.3-4.1.3-.7 0-1-.3-1-.8.5-.9 1.4-1.9 2.6-2.8l10.2-.2c1.2-2 2.5-4.2 4-6.7s2.9-4.9 4.4-7.4c1.5-2.5 3-4.9 4.5-7.2s2.9-4.5 4.1-6.5c1.5-.7 3.5-1.5 6.1-2.6 2.6-1.1 4.9-1.9 6.9-2.6.3 0 .5.2.6.5.1.4-.1.7-.6.9zM342.8 403.4c-7.2 0-13.6.3-19.1 1-5.5.7-10.4 2.1-14.6 4.2-4.2 2.1-8 5.2-11.3 9.3-3.3 4.1-6.4 9.5-9.2 16.3-.3.5-.6.7-.9.5-.3-.2-.6-.7-.9-1.5 1.2-3.6 2.6-7.1 4.2-10.5 1.6-3.4 3.4-6.5 5.5-9.4 2.1-2.9 4.4-5.3 6.9-7.3s5.3-3.3 8.4-3.8c3.3-.7 7.1-1 11.2-.9 4.1.1 8.3.1 12.4.1 3.9 0 7.7 0 11.6.1 3.9.1 7.7.1 11.6.1h8.6c10.7-.1 19.2-1.9 25.6-5.4 2-1.1 4-2.7 6-4.8 2-2.1 3-4.5 3-7 0-.7-.1-1.1-.2-1.4-.1-.1-.2-.3-.2-.6 0-.5.2-.8.6-.8.1 0 .3.1.6.4 1.6 1.7 2.8 3.5 3.6 5.2.4.5.6 1.3.6 2.4 0 .8-.3 1.7-.8 2.8-2.3 3.7-5.6 6.4-10.1 8-4.5 1.6-9.9 2.5-16.3 2.8-2.3.1-4.7.2-7.2.1s-4.8 0-6.8.1c-1.9 0-3.3.7-4.2 2-7.5 11.3-14.4 22.4-20.7 33.2-6.3 10.8-12.1 20.9-17.3 30.4-1.2 2.3-2.2 4.4-2.9 6.3-.7 1.9-1.2 3.7-1.3 5.3 0 1.1.1 2.1.4 3.1.3 1 .9 1.9 1.8 2.6.9.7 2.3 1.3 4.1 1.8 1.8.5 4.2.7 7.1.7h2.4c.9 0 1.7-.1 2.4-.2.4.5.2 1.1-.6 1.6-2.3.3-4.8.4-7.6.5-2.8.1-5.4.1-7.8.1-2 0-3.9 0-5.7-.1-1.8-.1-3.4-.3-4.8-.8s-2.5-1.2-3.4-2.1c-.9-.9-1.3-2.3-1.3-4 0-1.1.3-2.3.8-3.6.5-1.3 1.3-2.7 2.2-4.2 3.6-5.9 7.2-11.9 10.9-18s7.3-12.2 10.8-18.3c3.5-6.1 7-12 10.3-17.8 3.3-5.8 6.4-11.4 9.2-16.7.7-1.2.3-1.8-1-1.8h-6.6z"/><path d="M357.2 487.4c-1.9 0-3.3-.4-4.4-1.2-1.1-.8-1.6-2-1.6-3.6 0-2.7 1.6-6.6 4.9-11.9 3.3-5.3 7.2-11.5 11.9-18.7.5-.7 1-1.2 1.3-1.5.3-.3.7-.6 1.1-.9.7-.1 1.6-.3 2.7-.5s1.8-.3 2.1-.3c.5 0 .8.2.8.6-4.8 8.4-8.8 15.2-12.1 20.5-3.3 5.3-4.9 9.4-4.9 12.3 0 1.6.7 2.4 2.2 2.4.7 0 1.5-.2 2.6-.6 1.1-.4 2.2-.9 3.4-1.6 1.2-.7 2.3-1.4 3.4-2.1 1.1-.7 1.9-1.4 2.4-2.1 1.2-1.2 3-4 5.3-8.5s5.2-9.7 8.5-15.7c1.6-2.9 3.1-5.4 4.5-7.4s2.6-3 3.5-3c.5.3 1 .9 1.5 2s.7 2.1.7 3.2c0 .5-.6 1.8-1.8 3.7-1.2 1.9-2.7 4.2-4.6 6.8-1.9 2.6-3.9 5.4-6.1 8.3-2.2 2.9-4.3 5.7-6.3 8.2-4.8 7.3-9.6 14.9-14.5 22.7-4.9 7.8-9.8 15.3-14.7 22.6-4.9 7.3-10 14.1-15.2 20.6-5.2 6.5-10.6 12.1-16.1 16.9-5.5 4.8-11.3 8.6-17.2 11.4-5.9 2.8-12.2 4.2-18.7 4.2-3.9 0-7.3-.9-10.4-2.8-3.1-1.9-4.6-5.1-4.6-9.8 0-1.1.1-2.2.3-3.3.2-1.1.4-2 .7-2.7.1-.4.3-.7.6-.8.3-.1.4.1.4.6 0 3.6 1.3 6.9 4 9.8 2.7 2.9 7.4 4.4 14.2 4.4 5.5 0 10.9-1.4 16.3-4.1 5.4-2.7 10.7-6.4 15.8-10.9 5.1-4.5 10.1-9.8 14.9-15.8 4.8-6 9.4-12.3 13.9-18.8s8.7-13.1 12.7-19.7 7.7-12.8 11-18.7c.3-.5.3-.7 0-.6-.3.1-.5.3-.6.4-1.5 1.2-3.5 2.5-6 3.9s-5.1 2.1-7.8 2.1zm100.6-29.2c-7.1 8.9-14.6 15.6-22.7 19.9-8.1 4.3-16.5 7.5-25.3 9.5-3.1.7-5.7 1.2-8 1.6-2.3.4-4.5.8-6.8 1.2-3.9 6.5-7.5 13-11 19.5s-6.9 12.9-10.4 19.3c-5.1 9.5-9.7 18.4-13.8 26.8-4.1 8.4-8.6 16.7-13.4 25-.9 1.6-2.2 2.8-3.8 3.7-1.6.9-3.5 1.6-5.6 2.3-2.1.7-4.6 1.3-7.4 2-2.8.7-5.9 1.6-9.2 2.8-.8.4-1.3.3-1.4-.3-.1-.6.2-1 1-1.3 3.5-1.3 6.4-2.6 8.8-3.9 2.4-1.3 4.6-2.8 6.5-4.5 1.9-1.7 3.8-3.8 5.5-6.2 1.7-2.4 3.7-5.4 6-9 2.3-3.7 5-8.4 8.3-13.9 3.3-5.5 6.9-11.6 10.9-18.3 4-6.7 8.2-13.8 12.6-21.3s8.9-15.1 13.4-22.7c-.8-.3-1.2-1-1.2-2.2 0-.8.4-1.3 1.3-1.4.9-.1 1.6-.3 2.1-.4l9.2-15c4.3-6.9 8.5-14.1 12.8-21.6 4.3-7.5 8.7-14.1 13.2-20 .5-.5 1.3-.9 2.2-1.2.3-.1.8-.3 1.6-.4.8-.1 1.6-.3 2.4-.4.8-.1 1.5-.2 2.2-.3.7-.1 1.1-.1 1.2-.1.4 0 .6.1.6.4 0 .4-.3.9-.8 1.4-2.8 2.5-5.3 5-7.4 7.3-2.1 2.3-4.1 4.6-6 6.8-1.9 2.2-3.6 4.4-5.3 6.7-1.7 2.3-3.4 4.7-5.1 7.4 1.3-1.5 2.8-3 4.4-4.6 1.6-1.6 3.2-3.1 4.8-4.4 1.6-1.3 3.2-2.4 4.8-3.3 1.6-.9 3.1-1.3 4.4-1.3 1.3 0 2.4.4 3.3 1.2.9.8 1.3 2.1 1.3 4 0 1.3-.6 3.4-1.7 6.2-1.1 2.8-3.1 5.9-5.8 9.4-2.7 3.5-6.4 7.1-10.9 10.8-4.5 3.7-10.2 7.2-17 10.4 3.6-.4 7.6-1 12.1-1.9 4.5-.9 9.1-2.3 13.9-4.4 4.8-2.1 9.6-4.9 14.4-8.4 4.8-3.5 9.3-8.1 13.6-13.7.1-.3.4-.4.7-.3.3.1.5.5.5 1.1zm-28-5.2c0-.5-.1-1.2-.3-2-.2-.8-.9-1.2-2.1-1.2-.7 0-1.6.4-2.9 1.1-1.3.7-2.7 1.7-4.3 3-1.6 1.3-3.3 2.8-5 4.7-1.7 1.9-3.4 3.9-5 6.2-2.3 3.2-4.5 6.6-6.6 10.3-2.1 3.7-4.3 7.4-6.4 11.3 4.4-1.2 8.6-3.2 12.5-6 3.9-2.8 7.4-5.9 10.4-9.2 3-3.3 5.4-6.7 7.1-10 1.7-3.3 2.6-6 2.6-8.2z"/><path d="M510 455.6c-2.3 3.1-5 5.8-8.3 8.3-3.3 2.5-7 3.7-11.1 3.7-2.3 0-4.5-.6-6.7-1.7s-4-2.8-5.3-5.1c-.9 2.1-2.1 4.6-3.6 7.3s-3.2 5.5-5.2 8.2c-2 2.7-4.2 5.2-6.7 7.5s-5.1 4.1-7.9 5.6c-2.4 1.1-4.4 1.6-6 1.6-4.8 0-7.2-2.1-7.2-6.4 0-2.4.4-4.9 1.3-7.4s2-5 3.3-7.4c1.3-2.4 2.8-4.7 4.3-6.8 1.5-2.1 3-3.9 4.3-5.2 2.8-3.1 6-5.7 9.6-7.8 3.6-2.1 7.5-3.4 11.6-3.8.3-1.1.7-2.3 1.2-3.7.5-1.4 1.5-2.2 2.8-2.5.7-.1 1.3-.3 2-.4.7-.1 1.3-.3 1.8-.6.4-.3.8-.3 1.2-.1.4.2.5.6.2 1.1-.9 1.5-1.6 3.3-2.1 5.6s-.7 4.7-.7 7.4c0 3.7.7 6.8 2.1 9.2 1.4 2.4 3.8 3.6 7.3 3.6s6.6-1.1 9.4-3.4c2.8-2.3 5.1-4.7 7-7.4.3-.7.7-.9 1.3-.6.6.3.6.7.1 1.2zm-33 1.4c-.3-1.2-.5-2.6-.6-4.2-.1-1.6-.2-3.1-.2-4.6 0-.7-.3-1-.8-1-1.5 0-3 .5-4.6 1.5s-3.2 2.3-4.8 4c-1.6 1.7-3.2 3.6-4.8 5.7-1.6 2.1-3.1 4.3-4.4 6.6-1.7 2.9-3.3 6.1-4.7 9.5-1.4 3.4-2 6.6-1.9 9.7 0 .9.2 1.8.5 2.6s1.1 1.2 2.3 1.2c2.3 0 4.7-1.3 7.4-3.8s5.2-5.5 7.6-8.9c2.4-3.4 4.4-6.8 6.1-10.3 1.7-3.4 2.6-6.1 2.9-8z"/><path d="M541.8 436.2c0 1.2-.3 2.4-1 3.6-6.7 12.4-12.7 23.4-18 32.9-5.3 9.5-10.4 18.3-15.2 26.4-4.8 8.1-9.5 15.9-14.2 23.4-4.7 7.5-9.6 15.6-14.8 24.1-4.3 6.8-8.9 13.2-13.9 19.1-5 5.9-10.5 11.1-16.6 15.4-6.1 4.3-12.7 7.7-19.8 10.2-7.1 2.5-15 3.7-23.5 3.7-6.3 0-11.4-.8-15.5-2.5s-7.3-3.9-9.6-6.7c-2.3-2.8-4-6-4.9-9.6-.9-3.6-1.4-7.3-1.4-11.2 0-1.6.1-3.3.4-5.1.3-1.8.6-3.2 1-4.3.1-.5.4-.8.8-.8s.6.3.6 1c-.3.9-.5 2-.8 3.3-.3 1.3-.4 2.6-.4 4.1 0 4.7 1 8.7 3 12.1 2 3.4 4.8 6.2 8.3 8.4 3.5 2.2 7.7 3.9 12.5 5s9.9 1.7 15.4 1.7c5.7 0 11.5-.9 17.3-2.8 5.8-1.9 11.6-5 17.3-9.3 5.7-4.3 11.4-10 16.9-16.9 5.5-6.9 11-15.5 16.3-25.6 3.5-6.4 7.1-13.2 11-20.4 3.9-7.2 7.6-14.1 11.2-20.7 3.6-6.6 6.8-12.5 9.7-17.8 2.9-5.3 5-9.1 6.3-11.5-2.7 3.6-5.3 7-7.8 10.2-2.5 3.2-4.9 6-7.1 8.4s-4.3 4.3-6.3 5.7-3.8 2.1-5.4 2.1c-1.2 0-2.2-.4-3-1.2s-1.2-2.1-1.2-3.8c0-2 .8-4.8 2.5-8.5s3.9-7.5 6.6-11.5c2.7-4 5.8-7.8 9.3-11.4 3.5-3.6 7-6.3 10.6-8 3.2-1.6 6.4-2.4 9.6-2.4.9 0 1.7.1 2.2.2 1.1-1.9 2.2-3.7 3.3-5.6 1.1-1.9 2.3-3.9 3.5-6 .9-1.7 1.8-2.6 2.6-2.6.5 0 1 .6 1.5 1.8.5 1.2.7 2.4.7 3.4zM529 448c-.4-.1-.9-.2-1.6-.2H526c-1.9 0-3.6.2-5.3.5-1.7.3-3.1 1-4.3 2.1-3.3 2.8-6.2 5.9-8.6 9.4-2.4 3.5-4.4 6.9-6 10.2-1.6 3.3-2.8 6.4-3.5 9.1-.7 2.7-1.1 4.7-1.1 5.9 0 1.5.4 2.2 1.2 2.2.8 0 2.4-1.1 4.8-3.4s5.1-5.3 8.1-9 6.1-7.9 9.3-12.6c3.2-4.6 6-9.4 8.4-14.2zm57 .8c-.8.9-1.6 2.1-2.5 3.4-.9 1.3-1.4 2.3-1.7 3-.1.4-.4.6-.8.6-.1 0-.3-.2-.6-.6-.3-.4-.6-.8-1.1-1.3-.5-.5-1.1-.9-1.9-1.3-.8-.4-1.9-.6-3.4-.6-1.7 0-3.7.6-5.8 1.8-2.1 1.2-4 2.5-5.6 4-2.5 2.1-4.8 4.5-6.7 7-1.9 2.5-3.8 5.2-5.5 7.9-1.7 2.7-3.4 5.5-5 8.4-1.6 2.9-3.3 5.8-5.2 8.7-.1.4-.5.6-1.2.6-.3 0-.8-.4-1.7-1.2-.9-.8-1.3-1.4-1.3-1.8 0-.8.5-2 1.4-3.6 2.1-3.7 4.3-7.5 6.5-11.3 2.2-3.8 4.3-7.4 6.2-10.7 1.9-3.3 3.6-6.2 5.1-8.7 1.5-2.5 2.5-4.3 3-5.5.7-1.2 1.1-1.8 1.4-1.8.3 0 .9.3 2 1s1.6 1.6 1.6 2.8c0 .4-.2 1.1-.7 2-.5.9-1 1.9-1.6 2.9-.6 1-1.2 2-1.7 2.9-.5.9-.9 1.6-1.2 2-.4.7-.5 1-.2 1s.6-.2 1-.6c1.3-1.3 3-2.8 4.9-4.4 1.9-1.6 4-3.1 6.1-4.5 2.1-1.4 4.2-2.6 6.3-3.5 2.1-.9 3.9-1.4 5.5-1.4 1.2 0 2.2.3 3.1.9.9.6 1.3 1.3 1.3 1.9zm61.4 13.4c-3.1 3.7-6.4 7.5-10.1 11.3-3.7 3.8-7.4 7.2-11.1 10.3-3.7 3.1-7.4 5.5-11.1 7.4-3.7 1.9-7 2.8-10.1 2.8-2.7 0-4.5-.7-5.6-2-1.1-1.3-1.6-3-1.6-5 0-1.9.6-4.4 1.7-7.5 1.1-3.1 2.8-6.5 5.1-10.1-1.7 2.3-3.7 4.7-6 7.2s-4.6 4.8-7 6.9c-2.4 2.1-4.8 3.8-7.2 5.2-2.4 1.4-4.5 2.1-6.4 2.1-2.8 0-4.2-1.4-4.2-4.2 0-3.1 1.2-6.9 3.6-11.6 2.4-4.7 5.6-9.2 9.7-13.5 4.1-4.3 8.7-8.1 13.9-11.2 5.2-3.1 10.6-4.7 16.2-4.7.7-1.3 1.3-2.3 1.8-2.8s1.1-.9 1.6-1.2l5.6-1.6.4.2c-.7.7-1.3 1.5-1.9 2.5-.6 1-1.2 2-1.9 3.1.7 0 1.7.1 3 .2s2.3.3 3 .4c.7.3 1 .6 1 1s-.2.6-.6.6c-.8-.3-2-.5-3.6-.6-1.6-.1-2.8-.2-3.6-.2-6.1 10.8-10.6 19.4-13.5 25.7-2.9 6.3-4.3 11-4.3 14.1 0 1.2.3 2.2.9 3 .6.8 1.8 1.2 3.7 1.2 2.1 0 4.7-.8 7.6-2.3 2.9-1.5 6.1-3.7 9.4-6.4 3.3-2.7 6.8-5.9 10.3-9.5 3.5-3.6 6.9-7.4 10.1-11.4.3-.4.5-.5.8-.3.3.2.4.5.4.9zM616.2 447c-4.5 0-8.9 1.6-13 4.8-4.1 3.2-7.8 7-11 11.3-3.2 4.3-5.8 8.6-7.7 12.9-1.9 4.3-2.9 7.4-2.9 9.4 0 1.1.4 1.6 1.2 1.6s2-.5 3.7-1.6c1.7-1.1 3.6-2.5 5.7-4.3 2.1-1.8 4.3-3.9 6.5-6.3s4.2-5 6.1-7.8c2.1-3.2 4.2-6.6 6.2-10.2 2-3.6 3.8-6.8 5.4-9.6l-.2-.2z"/><path d="M693.8 458.2c-7.1 8.9-14.6 15.6-22.7 19.9-8.1 4.3-16.5 7.5-25.3 9.5-3.1.7-5.7 1.2-8 1.6-2.3.4-4.5.8-6.8 1.2-3.9 6.5-7.5 13-11 19.5s-6.9 12.9-10.4 19.3c-5.1 9.5-9.7 18.4-13.8 26.8-4.1 8.4-8.6 16.7-13.4 25-.9 1.6-2.2 2.8-3.8 3.7-1.6.9-3.5 1.6-5.6 2.3-2.1.7-4.6 1.3-7.4 2-2.8.7-5.9 1.6-9.2 2.8-.8.4-1.3.3-1.4-.3-.1-.6.2-1 1-1.3 3.5-1.3 6.4-2.6 8.8-3.9 2.4-1.3 4.6-2.8 6.5-4.5 1.9-1.7 3.8-3.8 5.5-6.2 1.7-2.4 3.7-5.4 6-9 2.3-3.7 5-8.4 8.3-13.9 3.3-5.5 6.9-11.6 10.9-18.3 4-6.7 8.2-13.8 12.6-21.3s8.9-15.1 13.4-22.7c-.8-.3-1.2-1-1.2-2.2 0-.8.4-1.3 1.3-1.4.9-.1 1.6-.3 2.1-.4l9.2-15c4.3-6.9 8.5-14.1 12.8-21.6 4.3-7.5 8.7-14.1 13.2-20 .5-.5 1.3-.9 2.2-1.2.3-.1.8-.3 1.6-.4.8-.1 1.6-.3 2.4-.4.8-.1 1.5-.2 2.2-.3.7-.1 1.1-.1 1.2-.1.4 0 .6.1.6.4 0 .4-.3.9-.8 1.4-2.8 2.5-5.3 5-7.4 7.3-2.1 2.3-4.1 4.6-6 6.8-1.9 2.2-3.6 4.4-5.3 6.7-1.7 2.3-3.4 4.7-5.1 7.4 1.3-1.5 2.8-3 4.4-4.6 1.6-1.6 3.2-3.1 4.8-4.4 1.6-1.3 3.2-2.4 4.8-3.3 1.6-.9 3.1-1.3 4.4-1.3 1.3 0 2.4.4 3.3 1.2.9.8 1.3 2.1 1.3 4 0 1.3-.6 3.4-1.7 6.2-1.1 2.8-3.1 5.9-5.8 9.4-2.7 3.5-6.4 7.1-10.9 10.8-4.5 3.7-10.2 7.2-17 10.4 3.6-.4 7.6-1 12.1-1.9 4.5-.9 9.1-2.3 13.9-4.4 4.8-2.1 9.6-4.9 14.4-8.4 4.8-3.5 9.3-8.1 13.6-13.7.1-.3.4-.4.7-.3.3.1.5.5.5 1.1zm-28-5.2c0-.5-.1-1.2-.3-2-.2-.8-.9-1.2-2.1-1.2-.7 0-1.6.4-2.9 1.1-1.3.7-2.7 1.7-4.3 3-1.6 1.3-3.3 2.8-5 4.7-1.7 1.9-3.4 3.9-5 6.2-2.3 3.2-4.5 6.6-6.6 10.3-2.1 3.7-4.3 7.4-6.4 11.3 4.4-1.2 8.6-3.2 12.5-6 3.9-2.8 7.4-5.9 10.4-9.2 3-3.3 5.4-6.7 7.1-10 1.7-3.3 2.6-6 2.6-8.2z"/><path d="M810 357.8c0 2.1-.1 3.7-.3 4.8-.2 1.1-.4 1.8-.6 2.2-.2.4-.4.5-.6.3s-.3-.4-.3-.7c0-.9-.2-2.2-.7-3.8-.5-1.6-1.4-3.2-2.8-4.7s-3.4-2.9-5.9-4c-2.5-1.1-5.8-1.7-9.8-1.7-3.5 0-7 .5-10.7 1.5-3.7 1-7.6 2.9-11.9 5.8-4.3 2.9-8.8 6.8-13.7 11.9-4.9 5.1-10.2 11.6-15.9 19.7-5.7 8.1-12 17.9-18.7 29.4-6.7 11.5-14.1 25.2-22.1 40.9.9-.8 2.4-2 4.4-3.6 2-1.6 4.2-3.2 6.6-4.8 2.4-1.6 4.7-3 7-4.2 2.3-1.2 4.2-1.8 5.8-1.8 1.2 0 1.8.5 1.8 1.4 0 .8-.6 2-1.8 3.6-1.1 1.6-2.5 3.8-4.2 6.6-1.7 2.8-3.4 5.8-5.1 9-1.7 3.2-3.1 6.3-4.3 9.4-1.2 3.1-1.8 5.5-1.8 7.4 0 2.1.5 3.7 1.6 4.8 1.1 1.1 2.5 1.6 4.4 1.6 3.1 0 7.4-2 13-6s12-10.8 19.2-20.4c.3-.3.5-.4.8-.4.3 0 .4.3.4.8-2.5 3.6-5.5 7.2-8.9 10.8-3.4 3.6-6.9 6.9-10.4 9.8-3.5 2.9-7.1 5.3-10.6 7.1-3.5 1.8-6.8 2.7-9.7 2.7-2.3 0-4.1-.6-5.4-1.9-1.3-1.3-2-3-2-5.3 0-2.1.7-4.9 2.2-8.2 1.5-3.3 3.1-6.7 4.9-10.1 1.8-3.4 3.4-6.5 4.9-9.4 1.5-2.9 2.2-4.9 2.2-6.1 0-.7-.2-1-.6-1-1.2 0-3.4 1.1-6.5 3.4s-7 6.5-11.7 12.8c-1.9 3.3-3.8 6.8-5.8 10.4-2 3.6-3.7 6.8-5.2 9.6-1.1 2.1-2.1 3.2-3 3.2-.7 0-1.5-.2-2.6-.5s-1.6-1-1.6-1.9c0-.7.2-1.4.6-2.2 5.6-10.1 11.1-19.7 16.4-28.7 5.3-9 10.7-17.8 16.2-26.5 6.4-10 13-20.2 19.9-30.6 6.9-10.4 13.9-19.9 21.1-28.4 7.2-8.5 14.5-15.5 21.9-20.9 7.4-5.4 14.8-8.1 22.3-8.1 1.9 0 3.8.2 5.8.7 2 .5 3.9 1.2 5.7 2.3 1.8 1.1 3.3 2.6 4.4 4.5 1.1 2 1.7 4.5 1.7 7.5z"/><path d="M779.2 463.4c-3.2 4.1-6.9 8.1-11 11.8-4.1 3.7-7.9 6.7-11.4 9-2.7 1.7-5.4 3.1-8.2 4-2.8.9-5.3 1.4-7.6 1.4-.8 0-1.7-.1-2.8-.2-1.1-.1-2-.5-2.9-1-.9-.5-1.6-1.2-2.2-2.1-.6-.9-.9-2-.9-3.5 0-1.7.7-4.1 2-7.1s2.9-6.1 4.7-9.3c1.8-3.2 3.6-6.3 5.4-9.2 1.8-2.9 3.2-5.1 4.3-6.6.7-1.1 1.8-2 3.5-2.7 1.7-.7 2.8-1.1 3.3-1.1.7 0 1 .2 1 .6 0 .3-.1.7-.3 1.2-.2.5-.4.9-.7 1.2-1.7 2.7-3.5 5.6-5.3 8.8-1.8 3.2-3.4 6.3-4.9 9.3-1.5 3-2.6 5.8-3.5 8.3-.9 2.5-1.3 4.5-1.3 6 0 1.6.4 2.8 1.3 3.5.9.7 2 1.1 3.5 1.1 2.7 0 5.6-.9 8.8-2.7s6.4-4 9.5-6.5c3.1-2.5 6-5.2 8.7-8 2.7-2.8 4.7-5.2 6.2-7.2.7-.7 1-.8 1.1-.5.1.4 0 .9-.3 1.5zm-9-44.6c0 1.6-.7 3.2-2.1 4.8-1.4 1.6-3 2.4-4.7 2.4-1.6 0-2.4-.8-2.4-2.4 0-1.7.6-3.4 1.9-5 1.3-1.6 2.8-2.4 4.7-2.4 1.7 0 2.6.9 2.6 2.6z"/><path d="M821.2 462.8c-2 2.5-4.3 5.1-6.8 7.7-2.5 2.6-5.1 5.1-7.8 7.4-2.7 2.3-5.4 4.4-8.2 6.3-2.8 1.9-5.5 3.3-8 4.4-2 .8-3.8 1.4-5.5 1.7-1.7.3-3.2.5-4.7.5-7.3 0-11-3.1-11-9.2 0-2.4.5-4.9 1.6-7.6 2.5-6.3 6.1-11.8 10.7-16.7 4.6-4.9 9.6-8.4 14.9-10.7 1.6-.7 2.9-1 4-1 4.9 0 7.4 1.9 7.4 5.8 0 2-.5 3.5-1.4 4.6-.8.8-2.1 1.9-4 3.4l-.6-.2c.4-1.1.6-2.2.6-3.4 0-1.3-.5-2.6-1.5-3.8-1-1.2-2.6-1.8-4.7-1.8-2.5 0-5 .8-7.3 2.5s-4.4 3.9-6.2 6.6c-1.8 2.7-3.2 5.9-4.3 9.4-1.1 3.5-1.6 7.2-1.6 10.9 0 2.8.8 4.9 2.3 6.3 1.5 1.4 3.4 2.1 5.7 2.1 3.7 0 8.8-2.2 15.1-6.5 6.3-4.3 13.1-10.9 20.3-19.7.7-.7 1.2-.8 1.5-.5.3.4.2.9-.5 1.5zM954.6 498c-.5 2.7-1.8 5.2-3.7 7.7-1.9 2.5-4.4 4.7-7.3 6.6-2.9 1.9-6.3 3.5-10.2 4.7-3.9 1.2-8 1.8-12.4 1.8-5.7 0-11.5-.8-17.2-2.4-5.7-1.6-11.5-3.8-17.3-6.7-5.8-2.9-11.7-6.3-17.7-10.2-6-3.9-12.3-8.2-18.8-12.7-.5-.3-.9-.4-1.2-.5-.3-.1-.7.1-1.4.5-1.1.7-2 1.3-2.9 1.8-.9.5-1.9 1.2-3.1 2-1.1.7-1.8.6-2.2-.2-.4-.8-.1-1.5 1-2 6.1-2.9 11.9-6.1 17.4-9.5 5.5-3.4 10.2-6.6 14.3-9.6 4.1-3 7.3-5.5 9.7-7.6 2.4-2.1 3.6-3.2 3.6-3.5 0-.5-.3-.8-.8-.8-.5.1-1.3.4-2.4.7l-3.3.9c-1.1.3-2.3.5-3.4.7-1.1.2-2 .3-2.7.3-1.7 0-3.6-.6-5.5-1.9-1.9-1.3-2.9-3.5-2.9-6.7.3-1.1 1.1-2.3 2.6-3.8s3.3-2.9 5.4-4.2c.5 0 .8.3.8.8-1.2 1.2-1.8 3.1-1.8 5.6 0 2.3.8 4 2.3 5.3 1.5 1.3 3.5 1.9 5.9 1.9 3.1 0 6.2-1 9.4-3s6.3-4.5 9.4-7.4c.7-.7 1.3-.7 2-.1s.7 1.3 0 2.1c-2.3 1.6-4.7 3.4-7.2 5.4-2.5 2-4.5 3.7-6 5-3.2 2.8-7.4 6.1-12.6 10-5.2 3.9-11 7.9-17.4 12.2-.5.3-.9.6-1 .9-.1.3.2.8 1 1.3 6.7 4.4 13.3 8.6 19.8 12.6s12.8 7.5 18.7 10.6c5.9 3.1 11.4 5.5 16.5 7.3 5.1 1.8 9.4 2.7 13 2.7 6 0 11.4-1.6 16.2-4.9 4.8-3.3 8.9-8 12.2-14.1.5-.4.9-.2 1.2.4z"/><path d="M942.8 463.4c-3.2 4.1-6.9 8.1-11 11.8-4.1 3.7-7.9 6.7-11.4 9-2.7 1.7-5.4 3.1-8.2 4-2.8.9-5.3 1.4-7.6 1.4-.8 0-1.7-.1-2.8-.2-1.1-.1-2-.5-2.9-1-.9-.5-1.6-1.2-2.2-2.1-.6-.9-.9-2-.9-3.5 0-1.7.7-4.1 2-7.1s2.9-6.1 4.7-9.3c1.8-3.2 3.6-6.3 5.4-9.2 1.8-2.9 3.2-5.1 4.3-6.6.7-1.1 1.8-2 3.5-2.7 1.7-.7 2.8-1.1 3.3-1.1.7 0 1 .2 1 .6 0 .3-.1.7-.3 1.2-.2.5-.4.9-.7 1.2-1.7 2.7-3.5 5.6-5.3 8.8-1.8 3.2-3.4 6.3-4.9 9.3-1.5 3-2.6 5.8-3.5 8.3-.9 2.5-1.3 4.5-1.3 6 0 1.6.4 2.8 1.3 3.5.9.7 2 1.1 3.5 1.1 2.7 0 5.6-.9 8.8-2.7s6.4-4 9.5-6.5c3.1-2.5 6-5.2 8.7-8 2.7-2.8 4.7-5.2 6.2-7.2.7-.7 1-.8 1.1-.5.1.4 0 .9-.3 1.5zm-9-44.6c0 1.6-.7 3.2-2.1 4.8-1.4 1.6-3 2.4-4.7 2.4-1.6 0-2.4-.8-2.4-2.4 0-1.7.6-3.4 1.9-5 1.3-1.6 2.8-2.4 4.7-2.4 1.7 0 2.6.9 2.6 2.6z"/><path d="M995.4 463.8c-2.4 3.3-5.2 6.7-8.3 10.1-3.1 3.4-6.5 6.4-10 9.1-3.5 2.7-7.1 4.9-10.8 6.6-3.7 1.7-7.2 2.6-10.7 2.6-1.6 0-3.1-.2-4.4-.7-1.3-.5-2-1.6-2-3.5s.7-4.2 2-7.1c1.3-2.9 2.9-5.9 4.7-9.1 1.8-3.2 3.7-6.5 5.6-9.8 1.9-3.3 3.5-6.4 4.7-9.2.3-.7.3-1.2.1-1.7-.2-.5-.6-.5-1.3-.1-1.5.9-3.2 2.2-5.2 3.8-2 1.6-4 3.3-6.1 5.1-2.1 1.8-4.1 3.6-6 5.5-1.9 1.9-3.5 3.5-4.7 5-2.1 3.3-4 6.4-5.5 9.2-1.5 2.8-3.4 5.9-5.7 9.4-.5.8-.9 1.2-1.2 1.2-.7 0-1.2-.7-1.7-2.2-.5-1.5-.7-2.4-.7-2.8 0-1.2.8-2.8 2.5-4.9 1.7-2.1 3.5-4.4 5.5-6.9 2.1-4.3 4.3-8.8 6.6-13.5 2.3-4.7 4.2-9 5.8-12.7.4-.7 1-1 1.8-1s1.5.3 2.2 1c.7.7 1 1.4 1 2.2 0 .5-1 2.4-2.9 5.5s-3.8 6.8-5.7 10.9c2.5-2.3 5.3-4.7 8.3-7.2 3-2.5 5.9-4.9 8.6-7 2.7-2.1 5.1-3.9 7.2-5.3 2.1-1.4 3.5-2.1 4.3-2.1.5 0 1 .3 1.5.9.5.6.7 1.2.7 1.7s-.3 1.3-1 2.4c-1.5 2.1-3.3 4.9-5.4 8.2-2.1 3.3-4.2 6.8-6.1 10.3-1.9 3.5-3.6 6.9-4.9 10.1-1.3 3.2-2 5.7-2 7.6 0 1.6.3 2.7 1 3.3.7.6 1.7.9 3.2.9 2.3 0 4.9-.9 8-2.6 3.1-1.7 6.2-3.9 9.5-6.5s6.4-5.5 9.3-8.7c2.9-3.2 5.3-6.3 7.2-9.2.3-.4.7-.5 1.2-.3s.5.7-.2 1.5z"/><path d="M1035.2 465.8c-2.3 2.8-5 5.7-8.1 8.7-3.1 3-6.5 5.7-10.2 8.2-3.7 2.5-7.5 4.5-11.4 6-3.9 1.5-7.8 2.3-11.7 2.3-6.3 0-9.4-2.8-9.4-8.4 0-3.7 1-7.8 2.9-12.1s4.4-8.3 7.5-12c3.1-3.7 6.4-6.7 10.1-9.2 3.7-2.5 7.2-3.7 10.5-3.7 1.9 0 3.2.3 3.9 1 .7.7 1.1 1.5 1.1 2.6 0 1.6-.5 3.3-1.5 5.2-1 1.9-2.5 3.6-4.5 5.3-2 1.7-4.5 3.1-7.6 4.2-3.1 1.1-6.7 1.7-11 1.7-.7 1.2-1.4 3.1-2.2 5.7-.8 2.6-1.2 5.2-1.2 7.9 0 5.5 2.5 8.2 7.4 8.2 3.1 0 6.2-.7 9.5-2.2 3.3-1.5 6.4-3.3 9.5-5.5 3.1-2.2 5.9-4.6 8.5-7.2 2.6-2.6 4.8-5 6.5-7.3.3-.3.6-.3.9-.2.3.2.5.4.5.8zm-21-15.6c0-1.7-.9-2.6-2.6-2.6-1.3 0-2.7.5-4.1 1.5s-2.8 2.3-4.1 3.9c-1.3 1.6-2.6 3.3-3.8 5.2-1.2 1.9-2.2 3.7-3 5.4.3.1.7.2 1.4.3.7.1 1.2.1 1.6.1 3.9 0 7.3-1.4 10.2-4.1 2.9-2.7 4.4-5.9 4.4-9.7zM503.7 613.4c.3-.7.5-1.7.7-3.1s.3-2.6.3-3.7c0-2-.3-4.1-1-6.2-.7-2.1-1.9-4.1-3.7-5.8-1.8-1.7-4.2-3.1-7.2-4.2s-6.9-1.6-11.7-1.6c-3.9 0-7.5.8-10.8 2.3-3.3 1.5-6.5 3.4-9.4 5.5-3.3 2.4-7.1 5.9-11.3 10.6-4.2 4.7-8.2 9.9-11.9 15.7-3.7 5.8-6.8 11.9-9.3 18.4-2.5 6.5-3.7 12.8-3.7 18.9 0 3.3.6 6.1 1.8 8.2 1.2 2.1 2.8 3.8 4.7 5 1.9 1.2 4.2 2 6.7 2.5s5.1.7 7.8.7c11.2 0 21.4-3 30.6-8.9 9.2-5.9 17.9-14.6 26.2-25.9.4-.5.7-.8 1-.8.5 0 .8.9.8 2.8 0 1.1-.2 2-.5 2.7-.3.7-.7 1.4-1.1 2.1-6.1 9.2-14.2 16.4-24.3 21.7-10.1 5.3-21.1 7.9-33.1 7.9-3.9 0-7.6-.4-11.1-1.1-3.5-.7-6.7-2-9.4-3.8-2.7-1.8-4.9-4.2-6.5-7.2-1.6-3-2.4-6.8-2.4-11.3 0-5.1 1-10.3 2.9-15.6 1.9-5.3 4.4-10.5 7.5-15.4 3.1-4.9 6.5-9.5 10.3-13.8 3.8-4.3 7.6-7.9 11.5-10.8 4.8-3.7 10.1-6.7 16-8.9s12-3.3 18.4-3.3c4.8 0 9.7.5 14.7 1.5s9.6 2.8 13.9 5.3c1.1.5 1.6 1.3 1.6 2.4-.9 1.6-2.1 4.1-3.6 7.5-1.5 3.4-2.7 6.4-3.6 9.1l-1.8.6zm69.6 28.8c-2.3 3.1-5 5.8-8.3 8.3-3.3 2.5-7 3.7-11.1 3.7-2.3 0-4.5-.6-6.7-1.7s-4-2.8-5.3-5.1c-.9 2.1-2.1 4.6-3.6 7.3s-3.2 5.5-5.2 8.2c-2 2.7-4.2 5.2-6.7 7.5s-5.1 4.1-7.9 5.6c-2.4 1.1-4.4 1.6-6 1.6-4.8 0-7.2-2.1-7.2-6.4 0-2.4.4-4.9 1.3-7.4s2-5 3.3-7.4c1.3-2.4 2.8-4.7 4.3-6.8 1.5-2.1 3-3.9 4.3-5.2 2.8-3.1 6-5.7 9.6-7.8 3.6-2.1 7.5-3.4 11.6-3.8.3-1.1.7-2.3 1.2-3.7.5-1.4 1.5-2.2 2.8-2.5.7-.1 1.3-.3 2-.4.7-.1 1.3-.3 1.8-.6.4-.3.8-.3 1.2-.1.4.2.5.6.2 1.1-.9 1.5-1.6 3.3-2.1 5.6s-.7 4.7-.7 7.4c0 3.7.7 6.8 2.1 9.2 1.4 2.4 3.8 3.6 7.3 3.6s6.6-1.1 9.4-3.4c2.8-2.3 5.1-4.7 7-7.4.3-.7.7-.9 1.3-.6.6.2.6.6.1 1.2zm-33 1.4c-.3-1.2-.5-2.6-.6-4.2-.1-1.6-.2-3.1-.2-4.6 0-.7-.3-1-.8-1-1.5 0-3 .5-4.6 1.5s-3.2 2.3-4.8 4c-1.6 1.7-3.2 3.6-4.8 5.7-1.6 2.1-3.1 4.3-4.4 6.6-1.7 2.9-3.3 6.1-4.7 9.5-1.4 3.4-2 6.6-1.9 9.7 0 .9.2 1.8.5 2.6s1.1 1.2 2.3 1.2c2.3 0 4.7-1.3 7.4-3.8s5.2-5.5 7.6-8.9c2.4-3.4 4.4-6.8 6.1-10.3 1.7-3.5 2.6-6.2 2.9-8z"/><path d="M632.5 659c-1.9 2.1-4.1 4.5-6.7 7.2-2.6 2.7-5.4 5.2-8.3 7.6-2.9 2.4-6 4.4-9.1 6-3.1 1.6-6.2 2.4-9.1 2.4-2.7 0-4.5-.5-5.6-1.6-1.1-1.1-1.6-2.7-1.6-5 0-1.5.8-3.9 2.3-7.2 1.5-3.3 3.2-6.8 5.1-10.4 1.9-3.6 3.6-7 5.1-10.3 1.5-3.3 2.3-5.6 2.3-6.9 0-.8-.3-1.2-1-1.2-1.7.9-3.7 2.3-5.9 4.1-2.2 1.8-4.4 3.8-6.5 5.9-2.1 2.1-4.1 4.2-5.9 6.2s-3.2 3.7-4.1 5c-.9 1.3-1.9 2.9-2.8 4.8-.9 1.9-1.8 3.7-2.7 5.4-.9 1.7-1.7 3.2-2.6 4.4-.9 1.2-1.6 1.8-2.3 1.8-.7 0-1.3-.3-1.8-1s-.8-1.3-.8-2c0-.4.2-1.1.6-2.1s1.1-2.2 2.2-3.7c1.7-2.4 3.3-4.9 4.7-7.6 1.4-2.7 2.6-5.1 3.6-7.4 1-2.3 1.8-4.2 2.3-5.8.5-1.6.8-2.5.8-2.8 0-1.1-.3-1.6-.8-1.6-.8 0-2.2.8-4.1 2.5-1.9 1.7-4 3.7-6.3 6.1-2.3 2.4-4.5 4.9-6.7 7.6-2.2 2.7-4 5.1-5.5 7.2-1.9 2.8-3.5 5.3-4.8 7.4-1.3 2.1-2.3 3.2-3 3.2-1.1 0-1.7-.5-1.9-1.4-.2-.9-.3-1.9-.3-2.8 0-1.1.3-1.9.8-2.6 3.6-5.7 7.1-11.6 10.6-17.6 3.5-6 6.9-11.9 10.4-17.8.7-1.2 1.4-1.8 2.2-1.8.7 0 1.3.4 1.8 1.1.5.7.8 1.4.8 2.1-.9 2.7-2.5 5.9-4.8 9.8-2.3 3.9-4.3 7.4-6 10.6 5.3-6.1 9.8-10.8 13.4-13.9 3.6-3.1 6.5-4.7 8.8-4.7 1.5 0 2.2 1 2.2 3 0 1.3-.6 3.4-1.8 6.1-1.2 2.7-2.3 5-3.2 6.7-.3.5-.3.8-.1.7.2-.1.4-.2.7-.5 1.6-1.9 3.4-3.8 5.5-5.9 2.1-2.1 4.3-4 6.6-5.9 2.3-1.9 4.7-3.6 7-5.2s4.5-2.9 6.5-3.8c2 0 3 .9 3 2.8 0 .4-.1.8-.2 1.2-.1.4-.3.9-.6 1.4-.7 1.5-1.9 3.9-3.7 7.2-1.8 3.3-3.6 6.9-5.5 10.7-1.9 3.8-3.5 7.5-4.9 11-1.4 3.5-2.1 6.2-2.1 8.1 0 2.7 1.3 4 3.8 4 2.4 0 4.9-.8 7.6-2.4 2.7-1.6 5.3-3.5 8-5.8s5.1-4.6 7.4-7.1c2.3-2.5 4.2-4.6 5.8-6.5.5-.8 1.1-1.1 1.6-1 .5.1.4.8-.4 2z"/><path d="M673.7 650c-3.2 4.1-6.9 8.1-11 11.8-4.1 3.7-7.9 6.7-11.4 9-2.7 1.7-5.4 3.1-8.2 4-2.8.9-5.3 1.4-7.6 1.4-.8 0-1.7-.1-2.8-.2-1.1-.1-2-.5-2.9-1-.9-.5-1.6-1.2-2.2-2.1-.6-.9-.9-2-.9-3.5 0-1.7.7-4.1 2-7.1s2.9-6.1 4.7-9.3c1.8-3.2 3.6-6.3 5.4-9.2 1.8-2.9 3.2-5.1 4.3-6.6.7-1.1 1.8-2 3.5-2.7 1.7-.7 2.8-1.1 3.3-1.1.7 0 1 .2 1 .6 0 .3-.1.7-.3 1.2-.2.5-.4.9-.7 1.2-1.7 2.7-3.5 5.6-5.3 8.8-1.8 3.2-3.4 6.3-4.9 9.3-1.5 3-2.6 5.8-3.5 8.3-.9 2.5-1.3 4.5-1.3 6 0 1.6.4 2.8 1.3 3.5.9.7 2 1.1 3.5 1.1 2.7 0 5.6-.9 8.8-2.7s6.4-4 9.5-6.5c3.1-2.5 6-5.2 8.7-8 2.7-2.8 4.7-5.2 6.2-7.2.7-.7 1-.8 1.1-.5.1.3 0 .8-.3 1.5zm-9-44.6c0 1.6-.7 3.2-2.1 4.8-1.4 1.6-3 2.4-4.7 2.4-1.6 0-2.4-.8-2.4-2.4 0-1.7.6-3.4 1.9-5 1.3-1.6 2.8-2.4 4.7-2.4 1.7 0 2.6.8 2.6 2.6z"/><path d="M726.3 650.4c-2.4 3.3-5.2 6.7-8.3 10.1-3.1 3.4-6.5 6.4-10 9.1-3.5 2.7-7.1 4.9-10.8 6.6-3.7 1.7-7.2 2.6-10.7 2.6-1.6 0-3.1-.2-4.4-.7-1.3-.5-2-1.6-2-3.5s.7-4.2 2-7.1c1.3-2.9 2.9-5.9 4.7-9.1 1.8-3.2 3.7-6.5 5.6-9.8 1.9-3.3 3.5-6.4 4.7-9.2.3-.7.3-1.2.1-1.7-.2-.5-.6-.5-1.3-.1-1.5.9-3.2 2.2-5.2 3.8-2 1.6-4 3.3-6.1 5.1-2.1 1.8-4.1 3.6-6 5.5-1.9 1.9-3.5 3.5-4.7 5-2.1 3.3-4 6.4-5.5 9.2-1.5 2.8-3.4 5.9-5.7 9.4-.5.8-.9 1.2-1.2 1.2-.7 0-1.2-.7-1.7-2.2-.5-1.5-.7-2.4-.7-2.8 0-1.2.8-2.8 2.5-4.9 1.7-2.1 3.5-4.4 5.5-6.9 2.1-4.3 4.3-8.8 6.6-13.5 2.3-4.7 4.2-9 5.8-12.7.4-.7 1-1 1.8-1s1.5.3 2.2 1c.7.7 1 1.4 1 2.2 0 .5-1 2.4-2.9 5.5s-3.8 6.8-5.7 10.9c2.5-2.3 5.3-4.7 8.3-7.2 3-2.5 5.9-4.9 8.6-7 2.7-2.1 5.1-3.9 7.2-5.3 2.1-1.4 3.5-2.1 4.3-2.1.5 0 1 .3 1.5.9.5.6.7 1.2.7 1.7s-.3 1.3-1 2.4c-1.5 2.1-3.3 4.9-5.4 8.2-2.1 3.3-4.2 6.8-6.1 10.3-1.9 3.5-3.6 6.9-4.9 10.1-1.3 3.2-2 5.7-2 7.6 0 1.6.3 2.7 1 3.3.7.6 1.7.9 3.2.9 2.3 0 4.9-.9 8-2.6 3.1-1.7 6.2-3.9 9.5-6.5s6.4-5.5 9.3-8.7c2.9-3.2 5.3-6.3 7.2-9.2.3-.4.7-.5 1.2-.3s.5.7-.2 1.5z"/><path d="M763.9 622.8c0 1.2-.3 2.4-1 3.6-6.7 12.4-12.7 23.4-18 32.9-5.3 9.5-10.4 18.3-15.2 26.4-4.8 8.1-9.5 15.9-14.2 23.4-4.7 7.5-9.6 15.6-14.8 24.1-4.3 6.8-8.9 13.2-13.9 19.1-5 5.9-10.5 11.1-16.6 15.4-6.1 4.3-12.7 7.7-19.8 10.2-7.1 2.5-15 3.7-23.5 3.7-6.3 0-11.4-.8-15.5-2.5s-7.3-3.9-9.6-6.7c-2.3-2.8-4-6-4.9-9.6-.9-3.6-1.4-7.3-1.4-11.2 0-1.6.1-3.3.4-5.1.3-1.8.6-3.2 1-4.3.1-.5.4-.8.8-.8s.6.3.6 1c-.3.9-.5 2-.8 3.3-.3 1.3-.4 2.6-.4 4.1 0 4.7 1 8.7 3 12.1 2 3.4 4.8 6.2 8.3 8.4 3.5 2.2 7.7 3.9 12.5 5s9.9 1.7 15.4 1.7c5.7 0 11.5-.9 17.3-2.8 5.8-1.9 11.6-5 17.3-9.3 5.7-4.3 11.4-10 16.9-16.9 5.5-6.9 11-15.5 16.3-25.6 3.5-6.4 7.1-13.2 11-20.4 3.9-7.2 7.6-14.1 11.2-20.7 3.6-6.6 6.8-12.5 9.7-17.8 2.9-5.3 5-9.1 6.3-11.5-2.7 3.6-5.3 7-7.8 10.2-2.5 3.2-4.9 6-7.1 8.4-2.2 2.4-4.3 4.3-6.3 5.7-2 1.4-3.8 2.1-5.4 2.1-1.2 0-2.2-.4-3-1.2s-1.2-2.1-1.2-3.8c0-2 .8-4.8 2.5-8.5s3.9-7.5 6.6-11.5c2.7-4 5.8-7.8 9.3-11.4 3.5-3.6 7-6.3 10.6-8 3.2-1.6 6.4-2.4 9.6-2.4.9 0 1.7.1 2.2.2 1.1-1.9 2.2-3.7 3.3-5.6 1.1-1.9 2.3-3.9 3.5-6 .9-1.7 1.8-2.6 2.6-2.6.5 0 1 .6 1.5 1.8.5 1.2.7 2.3.7 3.4zm-12.8 11.8c-.4-.1-.9-.2-1.6-.2h-1.4c-1.9 0-3.6.2-5.3.5-1.7.3-3.1 1-4.3 2.1-3.3 2.8-6.2 5.9-8.6 9.4-2.4 3.5-4.4 6.9-6 10.2-1.6 3.3-2.8 6.4-3.5 9.1-.7 2.7-1.1 4.7-1.1 5.9 0 1.5.4 2.2 1.2 2.2.8 0 2.4-1.1 4.8-3.4s5.1-5.3 8.1-9 6.1-7.9 9.3-12.6c3.2-4.7 6-9.4 8.4-14.2zm128-39.6c-.5 1.3-1.2 3.1-1.9 5.2s-1.3 3.9-1.7 5.4c-.5.3-1 .1-1.4-.6.4-.8.6-1.8.6-3 0-2.4-1.2-4.7-3.5-6.8-2.3-2.1-6-3.2-11.1-3.2-5.3 0-9.7 1.6-13 4.7-3.3 3.1-5 7.3-5 12.5 0 4 .9 7.7 2.8 11.2 1.9 3.5 3.9 6.7 6.2 9.6 1.7 2.3 3.2 4.2 4.3 5.7 1.1 1.5 2 2.9 2.7 4.2.7 1.3 1.1 2.5 1.4 3.6.3 1.1.4 2.5.4 4.1 0 2.8-.6 5.5-1.9 8.2-1.3 2.7-2.9 5.1-5 7.4-2.1 2.3-4.3 4.3-6.8 6.1-2.5 1.8-4.9 3.2-7.3 4.3-6 2.7-12.7 4-20 4-3.1 0-6.1-.3-9.1-.8s-5.8-1.4-8.3-2.6c-.7-.4-1.3-.8-1.8-1.1-.5-.3-.9-.7-1-1.1.5-2.3 1.2-4.8 1.9-7.7.7-2.9 1.4-5.2 1.9-7.1 0-.3.2-.4.6-.4.4 0 .6.3.6 1-.4 1.2-.6 2.4-.6 3.6 0 3.7 1.5 7 4.6 9.9 3.1 2.9 7.8 4.3 14.2 4.3 2.4 0 4.8-.2 7.3-.7 2.5-.5 4.7-1.2 6.7-2.1 4.1-1.9 7.6-4.5 10.5-7.9 2.9-3.4 4.3-7.4 4.3-12.1 0-2.3-.5-4.6-1.6-6.9-1.1-2.3-3.1-5.4-6.2-9.3-2.7-3.5-4.7-6.5-6.1-9.2-1.4-2.7-2.1-5.7-2.1-9.2 0-3.5.8-6.9 2.3-10.4 1.5-3.5 3.4-6.5 5.7-9.2.8-.9 1.9-2 3.3-3.3 1.4-1.3 3.1-2.4 5-3.5s4.2-2 6.8-2.8c2.6-.8 5.5-1.2 8.7-1.2 2.1 0 4.2.3 6.2.9s3.8 1.8 5.4 3.5c.7.9 1 1.8 1 2.8zm56.8 47.2c-2.3 3.1-5 5.8-8.3 8.3-3.3 2.5-7 3.7-11.1 3.7-2.3 0-4.5-.6-6.7-1.7s-4-2.8-5.3-5.1c-.9 2.1-2.1 4.6-3.6 7.3s-3.2 5.5-5.2 8.2c-2 2.7-4.2 5.2-6.7 7.5s-5.1 4.1-7.9 5.6c-2.4 1.1-4.4 1.6-6 1.6-4.8 0-7.2-2.1-7.2-6.4 0-2.4.4-4.9 1.3-7.4s2-5 3.3-7.4c1.3-2.4 2.8-4.7 4.3-6.8 1.5-2.1 3-3.9 4.3-5.2 2.8-3.1 6-5.7 9.6-7.8 3.6-2.1 7.5-3.4 11.6-3.8.3-1.1.7-2.3 1.2-3.7.5-1.4 1.5-2.2 2.8-2.5.7-.1 1.3-.3 2-.4.7-.1 1.3-.3 1.8-.6.4-.3.8-.3 1.2-.1.4.2.5.6.2 1.1-.9 1.5-1.6 3.3-2.1 5.6s-.7 4.7-.7 7.4c0 3.7.7 6.8 2.1 9.2 1.4 2.4 3.8 3.6 7.3 3.6s6.6-1.1 9.4-3.4c2.8-2.3 5.1-4.7 7-7.4.3-.7.7-.9 1.3-.6.6.2.6.6.1 1.2zm-33 1.4c-.3-1.2-.5-2.6-.6-4.2-.1-1.6-.2-3.1-.2-4.6 0-.7-.3-1-.8-1-1.5 0-3 .5-4.6 1.5s-3.2 2.3-4.8 4c-1.6 1.7-3.2 3.6-4.8 5.7-1.6 2.1-3.1 4.3-4.4 6.6-1.7 2.9-3.3 6.1-4.7 9.5-1.4 3.4-2 6.6-1.9 9.7 0 .9.2 1.8.5 2.6s1.1 1.2 2.3 1.2c2.3 0 4.7-1.3 7.4-3.8s5.2-5.5 7.6-8.9c2.4-3.4 4.4-6.8 6.1-10.3 1.7-3.5 2.6-6.2 2.9-8z"/><path d="M985.9 642.2c-2.3 3.1-5 5.8-8.3 8.3-3.3 2.5-7 3.7-11.1 3.7-2.3 0-4.5-.6-6.7-1.7s-4-2.8-5.3-5.1c-.9 2.1-2.1 4.6-3.6 7.3s-3.2 5.5-5.2 8.2c-2 2.7-4.2 5.2-6.7 7.5s-5.1 4.1-7.9 5.6c-2.4 1.1-4.4 1.6-6 1.6-4.8 0-7.2-2.1-7.2-6.4 0-2.4.4-4.9 1.3-7.4s2-5 3.3-7.4c1.3-2.4 2.8-4.7 4.3-6.8 1.5-2.1 3-3.9 4.3-5.2 2.8-3.1 6-5.7 9.6-7.8 3.6-2.1 7.5-3.4 11.6-3.8.3-1.1.7-2.3 1.2-3.7.5-1.4 1.5-2.2 2.8-2.5.7-.1 1.3-.3 2-.4.7-.1 1.3-.3 1.8-.6.4-.3.8-.3 1.2-.1.4.2.5.6.2 1.1-.9 1.5-1.6 3.3-2.1 5.6s-.7 4.7-.7 7.4c0 3.7.7 6.8 2.1 9.2 1.4 2.4 3.8 3.6 7.3 3.6s6.6-1.1 9.4-3.4c2.8-2.3 5.1-4.7 7-7.4.3-.7.7-.9 1.3-.6.6.2.6.6.1 1.2zm-33 1.4c-.3-1.2-.5-2.6-.6-4.2-.1-1.6-.2-3.1-.2-4.6 0-.7-.3-1-.8-1-1.5 0-3 .5-4.6 1.5s-3.2 2.3-4.8 4c-1.6 1.7-3.2 3.6-4.8 5.7-1.6 2.1-3.1 4.3-4.4 6.6-1.7 2.9-3.3 6.1-4.7 9.5-1.4 3.4-2 6.6-1.9 9.7 0 .9.2 1.8.5 2.6s1.1 1.2 2.3 1.2c2.3 0 4.7-1.3 7.4-3.8s5.2-5.5 7.6-8.9c2.4-3.4 4.4-6.8 6.1-10.3 1.7-3.5 2.6-6.2 2.9-8z"/><path d="M1032.3 650.4c-2.4 3.3-5.2 6.7-8.3 10.1-3.1 3.4-6.5 6.4-10 9.1-3.5 2.7-7.1 4.9-10.8 6.6-3.7 1.7-7.2 2.6-10.7 2.6-1.6 0-3.1-.2-4.4-.7-1.3-.5-2-1.6-2-3.5s.7-4.2 2-7.1c1.3-2.9 2.9-5.9 4.7-9.1 1.8-3.2 3.7-6.5 5.6-9.8 1.9-3.3 3.5-6.4 4.7-9.2.3-.7.3-1.2.1-1.7-.2-.5-.6-.5-1.3-.1-1.5.9-3.2 2.2-5.2 3.8-2 1.6-4 3.3-6.1 5.1-2.1 1.8-4.1 3.6-6 5.5-1.9 1.9-3.5 3.5-4.7 5-2.1 3.3-4 6.4-5.5 9.2-1.5 2.8-3.4 5.9-5.7 9.4-.5.8-.9 1.2-1.2 1.2-.7 0-1.2-.7-1.7-2.2-.5-1.5-.7-2.4-.7-2.8 0-1.2.8-2.8 2.5-4.9 1.7-2.1 3.5-4.4 5.5-6.9 2.1-4.3 4.3-8.8 6.6-13.5 2.3-4.7 4.2-9 5.8-12.7.4-.7 1-1 1.8-1s1.5.3 2.2 1c.7.7 1 1.4 1 2.2 0 .5-1 2.4-2.9 5.5s-3.8 6.8-5.7 10.9c2.5-2.3 5.3-4.7 8.3-7.2 3-2.5 5.9-4.9 8.6-7 2.7-2.1 5.1-3.9 7.2-5.3 2.1-1.4 3.5-2.1 4.3-2.1.5 0 1 .3 1.5.9.5.6.7 1.2.7 1.7s-.3 1.3-1 2.4c-1.5 2.1-3.3 4.9-5.4 8.2-2.1 3.3-4.2 6.8-6.1 10.3-1.9 3.5-3.6 6.9-4.9 10.1-1.3 3.2-2 5.7-2 7.6 0 1.6.3 2.7 1 3.3.7.6 1.7.9 3.2.9 2.3 0 4.9-.9 8-2.6 3.1-1.7 6.2-3.9 9.5-6.5s6.4-5.5 9.3-8.7c2.9-3.2 5.3-6.3 7.2-9.2.3-.4.7-.5 1.2-.3s.5.7-.2 1.5z"/></svg>