<svg xmlns="http://www.w3.org/2000/svg" viewBox="0 0 1280 960"><path d="M377.6 421a56.6 56.6 0 0 1-13.2-21l10.6-15c1.8 12.5 4.7 21.6 8.8 27.4s8.6 8.7 13.5 8.7c3.4.1 6.6-1.7 8.4-4.6 2.1-3 3.1-7.9 3.1-14.5 0-4.6-.9-9.1-2.5-13.3-1.7-4.4-4.3-10.1-7.8-17.2l-2.9-5.7-15.4-30.8a90.4 90.4 0 0 1-5.7-15.8 61.4 61.4 0 0 1-2-14.8c0-7.3 2-12.9 6-16.8s9.6-5.8 16.8-5.8a33 33 0 0 1 24.2 10.5l-8.1 15c-3.7-13.8-9.5-20.7-17.7-20.7-2.5 0-4.9 1-6.7 2.7-1.9 1.8-2.8 4.6-2.8 8.2 0 6.9 3.4 16.8 10.4 29.6l15.8 30.2c8.1 15.2 12.2 27.9 12.2 38.2 0 11.4-2.9 19.6-8.6 24.7a28.8 28.8 0 0 1-19.6 7.6c-6.1.2-11.7-2.1-16.8-6.8zm71.6-88c4-3 8.9-4.6 13.9-4.5 5.8 0 10.5 1.7 14 5.2s5.3 8.4 5.3 14.9V426H468v-12.2c-1.7 4-4.2 7.5-7.5 10.4a17.4 17.4 0 0 1-11.2 3.9c-4.5 0-8-1.5-10.6-4.5s-3.9-7.7-3.9-14.2a41.3 41.3 0 0 1 3.9-18.3c2.2-4.9 5.7-9.1 10-12.3a22 22 0 0 1 12.8-4.4c2.2 0 4.4.4 6.5 1.2v-24.4c0-6.4-.5-10.9-1.5-13.6s-2.7-4.1-5.2-4.1c-2.9 0-5.2 1.8-7 5.4s-3.3 9.4-4.6 17.4l-11.2-9.5a38.3 38.3 0 0 1 10.7-13.8zm6 87.7c2.6 0 5-1.2 7.2-3.8 2.4-2.8 4.3-6.1 5.6-9.6v-23.2c-2.4-3.6-5.4-5.5-8.7-5.5-3.2 0-6 2.1-8.1 6.3a39.9 39.9 0 0 0-3.2 18.5c-.2 11.5 2.3 17.3 7.2 17.3zm59.8-90.2V346c3.5-11.5 8.5-17.3 15-17.3 2.7-.1 5.4.8 7.5 2.4l-4.7 14.8c-.8-1.8-2-3.4-3.5-4.7a6.7 6.7 0 0 0-4.3-1.6c-3.9 0-7.3 4.4-10.2 13.2V426h-14.4v-95.5H515zm36 5.7h-8.5v-5.7h8.5v-28.6h14.4v28.6h15.2v5.7h-15.2V399c0 7.7.5 13.3 1.5 16.9s2.8 5.3 5.4 5.3c3 0 6.2-2.7 9.7-8.1l2.2 2.6c-1.7 3.4-4 6.5-6.8 9.1-2.3 2-5.2 3.1-8.2 3-5.2.2-10.2-2.3-13.3-6.5-3.3-4.3-5-10.8-5-19.3l.1-65.8zm-316.1-11.8c-3.5 0-10.5 0-10.5-.6v-4.6h-42.8v-3l42.8-4.8 42.1-3.8c-22.1-4.1-35.5-9.3-35.5-18.5 0-7.4 14-12.3 27.2-13.7l3.2 2.1c-5.4 2-9.9 6-9.9 13.2 0 6.9 7.7 12.2 42.9 17v4.5L235 314c7.8 1.8 10.5 3.8 10.5 9.8-.1.6-7.2.6-10.6.6m0 16.8c-3.5 0-10.5 0-10.5-.6v-4.5h-42.8v-3l42.8-4.8v-4.5c0-.6 7.1-.6 10.5-.6s10.5 0 10.5.6v16.8c0 .6-7.1.6-10.5.6m-75.1 20.3c11-3.8 22.2-7.1 33.5-9.8l-11.6-3.9.9-1 20.7 2.7c6.6-1.5 13.4-2.9 20.9-4.4v-4.5c0-.6 7.1-.6 10.5-.6s10.5 0 10.5.6v23.6c0 .6-7.1.6-10.5.6s-10.5 0-10.5-.6v-14.4c-14.8 3.9-29 9.5-42.5 16.7l-21.9-5zm75.1 20.1c-3.5 0-10.5 0-10.5-.6v-4.5h-42.8v-3l42.8-4.8v-4.5c0-.6 7.1-.6 10.5-.6s10.5 0 10.5.6V381c0 .6-7.1.6-10.5.6m-31 29.2c-12.9 0-27.1-6.2-44-8.9a456.8 456.8 0 0 1 64.5-16.4V381c0-.6 7.1-.6 10.5-.6s10.5 0 10.5.6v29.6c0 .6-7.1.6-10.5.6s-10.5 0-10.5-.6v-19.8c-6.3 1.3-12.5 3-18.6 5.1 5.6 1.6 9.6 4.6 9.6 8.7-.1 3.9-4 6.2-11.5 6.2m-3.7-3.6c3.3 0 5-1.4 5-4.4 0-2.2-1-4.3-2.6-5.9-5.4 2-10.5 4.1-15.2 6.2 4.4 2.4 9 4.1 12.8 4.1m44.6 45.5-2.7-3c21.6-3.3 29.6-8.6 29.6-15 0-7.8-7.8-13.7-26.3-14.3v17.7a76 76 0 0 1-22.9 2c-17.4 0-42.5-1.4-42.5-10.8 0-7.1 14.3-11.9 44.4-12.5v-6.2c0-.6 7.1-.6 10.5-.6s10.5 0 10.5.6v6.3c27.5 1 44.3 5.9 44.3 18.6 0 10.2-14 15-44.9 17.2M224.3 437v-15.8c-12.9 1.4-24.8 4.2-24.8 9.3 0 3.9 5.9 5.7 24.8 6.5" style="fill:#882233"/><path d="m840.9 499.8 16.2 4-3.8 10.2a420.2 420.2 0 0 0 42.3 72.1l-14.8 10.2-5.6-11.5H840l10.5 5.9a216 216 0 0 1-24.8 38.5l37.7-17a560 560 0 0 0-5.2-22.4l1.3-.8a292.5 292.5 0 0 1 24.2 52l-13 9.7c-2.4-14.2-4.5-26-6.5-35.5l-45.6 34L811 636l9.4-4.3a308.8 308.8 0 0 0 15.1-46.9h-15.8V580h53.4a485 485 0 0 1-9.5-22.6h-31.8c-8 13.4-17 26.3-26.7 38.6l-1.1-.6a389.5 389.5 0 0 0 36.9-95.6zm20.7 52.9a293.4 293.4 0 0 1-10.2-34.3c-5 11.8-10.7 23.2-17 34.3h27.2zm88.5 4.6v77.1H939V628h-17.5v20.7h-11.6v-91.4h10.3v4.7h3.5v-59.5h11.1v23.7h17.3v4.8h-17.3v31h4.2v-4.8l11.1.1zm-11.1 66v-56.5h-17.5v56.4l17.5.1zm26.2-17.3c-3.6-16.6-6-36.2-7.3-58.8l-11.1 2.8-1.7-5.1 12.5-3.2a694 694 0 0 1-1-39.2h12.5c0 12.6.2 24.6.5 36.1l22.2-5.5 1.8 5.1-23.7 6c.7 15.9 1.8 29.3 3.2 40.4 3.8-10.9 7.7-23.8 11.8-38.6l10.7 7.2a462.5 462.5 0 0 1-19.9 46.4c2.2 10.4 4.9 18.9 7.9 25.6l8.1-58.3 2.2 1-3.8 68.5c1.5 1.8 3.1 3.6 4.8 5.2l-8.6 10.3c-7.2-5.8-13.2-17.2-18.1-34.2-6.5 11-13.7 21.5-21.8 31.4l-1.7-1.3c8-13.4 14.8-27.4 20.5-41.8zm10.1-103.7c4.1 3.7 7.9 7.7 11.4 11.9 3 3.4 5.6 7.2 7.8 11.1l-11.9 7.6a119.5 119.5 0 0 0-9.2-29.2l1.9-1.4zm56.6 66.3h-17.6v-4.8h35v-24.2h12.7v24.2h21.3l2.2-35.1H1027c-.7 11.9-1.6 22.8-2.5 32.7l-13.3-2.7a471.4 471.4 0 0 0 14.8-47.8l2.1.5-.6 12.6h25.3c-1.8-8.6-4.7-17-8.4-25l1.3-1.8a92 92 0 0 1 20 19.9l-9.2 6.8h29.6l.5-7.9 13.5 1.4-13.7 46.4h10.8v4.8H1070a818 818 0 0 0 15.2 34c5 10.2 10.5 20.1 16.5 29.7l-14.3 10.3a370.6 370.6 0 0 1-20.2-74h-5v80.1h-12.7v-80.1h-11.1l7.3 3.5a270.6 270.6 0 0 1-33.7 71l-1.8-.8a351.8 351.8 0 0 0 21.7-73.7zM632.8 421a56.6 56.6 0 0 1-13.2-21l10.6-15c1.8 12.5 4.7 21.6 8.8 27.4s8.6 8.7 13.5 8.7c3.4.1 6.6-1.7 8.4-4.6a26 26 0 0 0 3.2-14.5c0-4.6-.9-9.1-2.5-13.3-1.7-4.4-4.3-10.1-7.8-17.2l-2.8-5.7-15.5-30.8a90.4 90.4 0 0 1-5.7-15.8 61.4 61.4 0 0 1-2-14.8c0-7.3 2-12.9 6-16.8s9.6-5.8 16.8-5.8a33 33 0 0 1 24.2 10.5l-8.1 15c-3.7-13.8-9.5-20.7-17.7-20.7-2.5 0-4.9 1-6.7 2.7-1.9 1.8-2.8 4.6-2.8 8.2 0 6.9 3.5 16.8 10.4 29.6l15.8 30.2c8.1 15.2 12.2 27.9 12.2 38.2 0 11.4-2.9 19.6-8.6 24.7a28.8 28.8 0 0 1-19.6 7.6c-6.2.2-11.7-2.1-16.9-6.8zm71.6-88c4-3 8.9-4.6 13.9-4.5 5.8 0 10.5 1.7 14 5.2s5.3 8.4 5.3 14.9V426h-14.4v-12.2c-1.7 4-4.2 7.5-7.5 10.4a17.4 17.4 0 0 1-11.2 3.9c-4.5 0-8-1.5-10.6-4.5s-3.9-7.7-3.9-14.2a41.3 41.3 0 0 1 3.9-18.3c2.3-4.9 5.7-9.1 10-12.3a22 22 0 0 1 12.8-4.4c2.2 0 4.4.4 6.5 1.2v-24.4c0-6.4-.5-10.9-1.5-13.6s-2.7-4.1-5.2-4.1c-2.8 0-5.2 1.8-7 5.4s-3.4 9.4-4.6 17.4l-11.2-9.5a39.4 39.4 0 0 1 10.7-13.8zm6 87.7c2.6 0 5-1.2 7.2-3.8 2.4-2.9 4.3-6.1 5.6-9.6v-23.2c-2.4-3.6-5.3-5.5-8.7-5.5-3.2 0-6 2.1-8.1 6.3a41.2 41.2 0 0 0-3.2 18.5c-.1 11.5 2.3 17.3 7.2 17.3zm78.7-80.3c-1.4-4.1-3.4-6.2-6-6.2s-5 1.7-7.3 5.1a45.7 45.7 0 0 0-5.5 11.6V426h-14.4v-95.5h14.4v12.4c1.4-4 3.8-7.6 7-10.5 3.1-2.7 7.1-4.1 11.3-4 11.2 0 16.9 9.7 16.8 29V426h-14.2v-68c0-7.6-.7-13.5-2.1-17.6zM849 419c2.1-2.1 3.2-5.2 3.2-9.2 0-6.6-3.5-14.6-10.4-24l-12.2-16.9c-2.2-3.4-4-7-5.4-10.9-1.3-3.4-2-7-2.1-10.7a17.3 17.3 0 0 1 5.7-13.5c3.9-3.5 9-5.3 14.2-5.2a36.3 36.3 0 0 1 20.8 7.5l-9.4 13.8c-1.2-5.1-3-9.1-5.4-12s-5-4.3-8-4.3a8 8 0 0 0-6.1 2.3 8.3 8.3 0 0 0-2.2 6c.1 3.4 1 6.8 2.5 9.9 1.8 3.9 4 7.5 6.6 10.9l12.6 17.1c3.1 4 5.6 8.4 7.6 13 1.5 3.8 2.3 7.9 2.3 12a22 22 0 0 1-6.6 16.9 22 22 0 0 1-15.5 6.1c-9.9 0-18.5-5.9-26-17.7l10.2-13.2c3.4 16.8 8.9 25.2 16.7 25.2 2.5 0 5.1-1.1 6.9-3.1zm-428.3 75c4.5 4.7 6.8 12.1 6.8 22.2 0 9.9-2 18.5-6 26s-9 12.9-14.9 16.5l27.4 69.6-13.2 5.7-26.2-71.5c-3.1-.1-6.2-.7-9.1-1.8v70.5h-15.4V489h15.4v8.3A20.9 20.9 0 0 1 404 487c6.3-.1 12.4 2.4 16.7 7zm-28.5 62.4c7.6 0 12.8-2.7 15.7-8.1 2.9-5.4 4.4-14 4.4-25.8 0-20.4-4.2-30.7-12.6-30.7a13 13 0 0 0-7.6 2.7c-2.8 2.1-5 4.9-6.6 8v53.2c2.2.5 4.5.7 6.7.7zm56.2 68.1c-4.3-5.8-6.5-16.4-6.5-31.9 0-12.5 1.2-23.1 3.6-31.9a48.5 48.5 0 0 1 9.8-20c4.1-4.5 8.5-6.8 13.4-6.8 6.4 0 11.7 3.6 15.9 10.9a63 63 0 0 1 6.4 31.8h-34.3c-.3 6-.4 10.7-.4 14.2 0 11.8 1.2 20.6 3.6 26.5s5.7 8.8 9.8 8.8c8.1 0 14.2-4.5 18.3-13.6l2.8 1.2c-5.3 13-13.6 19.5-25.2 19.5-6.8.2-13.2-3.1-17.2-8.7zm30.3-53.6c-.1-10-1-17.8-2.5-23.3s-3.8-8.3-6.6-8.3-5.3 2.8-7.5 8.4a95.3 95.3 0 0 0-4.9 23.2h21.5zm27.1 73.2a102 102 0 0 1 15.9-20.4l2.8 1.8a56.4 56.4 0 0 0-7.8 14.5 44.2 44.2 0 0 0-2.5 15.3 29 29 0 0 0 4.5 16.2 13.8 13.8 0 0 0 21.3 3.2c3.2-2.8 5.7-6.3 7.3-10.2 1.9-4.7 2.9-9.7 2.8-14.7a27 27 0 0 0-9.4-20.9 78.4 78.4 0 0 0-31.2-14.3l5.3-16 5.5 1.8 3.5-9.3c-5.7-.4-11-3.2-14.6-7.6a27 27 0 0 1-5.7-18c0-10 2.5-17.8 7.5-23.5a24 24 0 0 1 18.9-8.4c4.4 0 8.7 1.2 12.4 3.5 2.2-6.1 5-12.1 8.3-17.7l10 10a42.1 42.1 0 0 0-14.6 10.8 27.3 27.3 0 0 1 6.9 19.5 34 34 0 0 1-6.3 22.1c-4.1 5.1-10 8.4-16.5 9.1l-4.7 11.4c11.8 4.7 20.2 10.5 25.4 17.3s7.7 14 7.7 21.7c.1 7.6-1.5 15-4.6 21.9a40 40 0 0 1-12.4 15.8 28 28 0 0 1-17.2 5.9c-7.8 0-13.7-2-17.7-6-3.9-4-5.9-9.7-5.9-17.2.2-6.1 2-12.2 5.1-17.6zm34-77.3a48 48 0 0 0-3.8-20.4c-2.5-5.3-5.8-8-9.8-8-3.1 0-5.5 1.9-7.1 5.6a40.3 40.3 0 0 0-2.4 15.5c0 7.9 1.1 14.2 3.2 19.2s5.4 7.4 9.7 7.4c6.8 0 10.2-6.4 10.2-19.3zm28.4 37.4v-68.4h14.4v68c0 7.6.7 13.4 2.1 17.5 1.4 4.1 3.5 6.1 6.2 6.1 2.6 0 5-1.7 7.4-5.1 2.4-3.5 4.3-7.3 5.6-11.3v-75.1h14.4v95.4H604v-12.8a26 26 0 0 1-7 10.6 16.8 16.8 0 0 1-11.3 4.1c-11.6-.2-17.5-9.8-17.5-29zm83.7-123.9v150.9h-14.4V480.3h14.4zm30.6 57.9c4-3 8.9-4.6 13.9-4.5 5.8 0 10.5 1.7 14 5.2s5.3 8.4 5.3 14.9v77.4h-14.4V619c-1.6 4-4.2 7.6-7.5 10.4a17.4 17.4 0 0 1-11.2 3.9c-4.5 0-8-1.5-10.6-4.5s-3.9-7.7-3.9-14.2a41.3 41.3 0 0 1 3.9-18.3c2.3-4.9 5.7-9.1 10-12.2a22 22 0 0 1 12.8-4.4c2.2 0 4.4.4 6.5 1.2v-24.4c0-6.4-.5-10.9-1.5-13.6-1-2.7-2.7-4.1-5.2-4.1-2.8 0-5.2 1.8-7 5.4a65.5 65.5 0 0 0-4.6 17.4l-11.2-9.5a37 37 0 0 1 10.7-13.9zm6 87.7c2.6 0 5-1.2 7.2-3.8 2.4-2.8 4.3-6.1 5.6-9.6v-23.1c-2.4-3.7-5.3-5.5-8.7-5.5-3.2 0-6 2.1-8.1 6.3s-3.3 10.4-3.2 18.5c-.2 11.4 2.3 17.2 7.2 17.2zm59.8-90.2v15.4c3.5-11.5 8.5-17.3 15-17.3 2.7-.1 5.4.8 7.5 2.4l-4.7 14.8c-.8-1.8-2-3.4-3.5-4.7a6.7 6.7 0 0 0-4.3-1.6c-3.9 0-7.3 4.4-10.2 13.2V631h-14.4v-95.4h14.6v.1zm-470.9-38.9-24.2-9.2-18.3.8c7.8 1.8 10.5 3.8 10.5 9.8 0 .6-7.1.6-10.5.6s-10.5 0-10.5-.6v-4.7h-42.8v-3l42.8-4.8 18.8-1.6c13.1-1.2 18.3-6.2 20.9-12l17.9 5c-2.9 5.6-8.9 9.8-22.9 10.4h-1.2l30.7 7.5c3.9 21.4 9.6 37.7 18.5 54.6l-24.6-7.7a264 264 0 0 1-5.1-45.1m-42.5 34.4c-3.5 0-10.5 0-10.5-.6v-4.5c-33.1-1.1-44.3-3.6-44.3-11.4 0-7.1 13.5-10.7 44.4-12v-4.5c0-.6 7.1-.6 10.5-.6s10.5 0 10.5.6v32.5c-.1.5-7.2.5-10.6.5m-10.5-8.1v-15.5c-20.1 1.4-24.8 5.7-24.8 8.6-.1 4.5 6.6 5.7 24.8 6.9m18.9 58.9-1.2-3c26-2 29.6-7.5 29.6-12.3 0-6.6-7.5-10.7-28.3-10.7a92.2 92.2 0 0 0-47.7 11.1l-14.8-8.6c14.2-3.4 28.7-5.6 43.3-6.5v-9.2h-42.8v-3l42.8-4.8v-4.5c0-.6 7.1-.6 10.5-.6s10.5 0 10.5.6v21.3c27.2.8 44.4 5 44.4 15.8.1 9-11.5 13.8-46.3 14.4m-68.7.3-1.8 8.7a108 108 0 0 0-18.8-10.4l.4-1.5c6.8.5 13.6 1.5 20.2 3.2m0 16.8-1.8 8.7a108 108 0 0 0-18.8-10.4l.4-1.5a125 125 0 0 1 20.2 3.2m60.3 9.5c-3.5 0-10.5 0-10.5-.6v-4.5h-42.8v-3l42.8-4.8v-9h-42.8v-3l42.8-4.8h21V608c-.1.6-7.1.6-10.5.6m0 32.5c-3.5 0-10.5 0-10.5-.6V636c-33.1-1.1-44.3-3.7-44.3-11.5 0-7.1 13.5-10.7 44.4-12V608c0-.6 7.1-.6 10.5-.6s10.5 0 10.5.6v32.5c-.1.6-7.2.6-10.6.6m-10.6-8.1v-15.5c-20.1 1.3-24.8 5.7-24.8 8.6 0 4.4 6.6 5.7 24.8 6.9m-21.2 23c-2.6 1.2-5 2.4-7.4 3.8l-14.8-8.6c14.2-3.2 28.7-5.3 43.3-6.2v-4.5c0-.6 7.1-.6 10.5-.6s10.5 0 10.5.6v8.1h-19.5c-5.5 1.2-11 2.8-16.2 4.8a648 648 0 0 1 69 12.5c.5-11.4 2-22.8 4.5-34l22.4-6a148.5 148.5 0 0 0-10.5 42.8l-16.5 7.8a361 361 0 0 0-75.3-20.5" style="fill:#fbfbfb"/></svg>