<svg xmlns="http://www.w3.org/2000/svg" viewBox="0 0 1280 960"><path d="M235.5 161.1c-1.1-1.7-1.6-4.5-1.6-8.5V148h-2.5v13.4h-4.8v-3.6h-6.2v-2.5h6.2V148h-6.2v-3h6.2v-5.3h-5.8v-2.5h5.8v-2.1h4.8v9.9h2.5v-25.3h-2.5v13.4h-4.8v-3.6h-6.2V127h6.2v-7.3h-1.5l-4.4 5.7q-.6-4.35-2.4-10.5v49.9h-6v-51.1c-1.9 16.2-4.3 30.7-7.4 43.4l-1.1-.2c1.9-17.9 3-34.8 3.3-50.5l5.2.7v-9.2H205v-2.6h7.3V82.7q-1.35.45-6.9 1.8l-.4-1.3c2.8-1.6 5.2-3.2 7.4-4.7 2.1-1.5 4.2-3.4 6.4-5.5l4.6 5.3q-4.5 2.25-9.3 3.9h4.3v13.1h1.4q5.1-10.35 7.5-22.8l7.5 2.9-2.4 4.5h12.1l1.1-3.2 7.3 3.7-10.2 9.5h7.5v-2.2h5.6v17.4h-5.6v-2.6h-3.5v9.1h4.9v-2.3h5v34.5l2.8-30.2 1.1.2-1.5 41.7h1.9v8.2h-20.3c-2.4 0-4.1-.9-5.1-2.6m-14.7-52.3h5.8v-2h4.8v9.9h2.5v-14.2h-3.3v2.6H225V90.7l-3.8 4.6h1.9v2.6h-4.8v13.7c2.3 1.6 4.2 3.3 5.8 5.1h2.5v-5.4h-5.8zm9.8-21.1v2.2H241l2.4-7h-12.9l-3.3 4.8zm3.3 11.8v-6.6h-3.3v6.6zm5.6 54.8c.3.8.9 1.2 1.6 1.2h.4V92.9H239v57c0 2.1.1 3.6.5 4.4m10.6-54.8v-6.6h-3.5v6.6zm1.4 25.1v-10h-4.9v10zm0 15v-12h-4.9v12zm0 3h-4.9v12.9h8.8l.9-9.8h-4.8zm61.9 17.6-18-13.4.9-.9 17.1 9v-36.1h-33.8v46h-8v-52h8v3h4.1V85.9h-14.1v-3h25c-.9-3.4-2.3-7.2-4.2-11.3l1-.6c4.4 2.4 8.5 5.4 12.4 8.9l-5.9 3h25.7v3h-14.1v29.9h3.9v-3h8.2v52h-8.2zm-27.9-36.5h6.3v2.8h9.5v-2.8h6.4V146h-6.4v-3.7h-9.5v10.2h-6.3zm17.3-30.3v-7.5h-12.5v7.5zm0 11v-7.9h-12.5v7.9zm0 11.4v-8.3h-12.5v8.3zm-1.5 23.4v-9.6h-9.5v9.6zm49.3-4.7c-3.5-5.8-7.2-11.3-11.3-16.4l.8-1.1c4.2 3.6 8.5 7.6 12.8 12 2-4.9 4-10.8 6-17.8l7.2 6.6c-2.5 5.3-5.3 10.7-8.5 16.2 3.3 3.6 7 8 11 13.1l-7.1 8.3c-2.6-5.6-5.1-10.7-7.6-15.3-5.5 8.8-11.7 17-18.8 24.7l-.9-.8c6.8-10.3 12.3-20.1 16.4-29.5m-6.8-62.1 9.4 2.7q-1.65 4.5-3.6 8.7h33.9v3h-35.3c-3.3 6.8-7.1 13.3-11.6 19.4l-1.1-.5c3.6-9.2 6.4-20.3 8.3-33.3m29.3 71.1c-1.9-8.4-3-19.6-3.3-33.7H339v-3h30.8v-3h8.2c0 10.1.3 18.7 1 25.6s1.8 12.9 3.4 17.8l3.5-44.6 1.4.2-2 51.7c1.1 1.9 2.1 3.7 3.1 5.2l-6.4 5.2c-4-5.9-7-13-8.9-21.4m-25.5-48.7h30.1v3h-30.1zm64.8 50.4c2.7-6.2 4.9-13.4 6.6-21.4l-3.3 4.1-2.6-6c-3.9 5.9-7.9 10.8-12.2 14.8l-.5-.5q5.85-8.25 10.2-18.9c-1.7-2.7-3.4-5.2-5.3-7.3l.5-.5c2.3 1.7 4.3 3.2 6 4.6.7-2 1.6-4.6 2.5-7.8l5.1 4.3c-1.3 2.6-2.6 4.9-3.7 7 1.7 1.7 3 3.1 3.7 4 1.8-9.5 2.9-20.8 3.3-34h-5.6l3.5 3-5.1 7.2q2.7 2.25 5.1 4.8l-3.4 4.8c-1.2-2.1-2.6-4.4-4.2-6.7-3 3.6-6.6 7-10.8 10.1l-.5-.5c3.5-3.9 6.6-8.2 9.1-12.7-1.8-2.3-3.9-4.6-6.3-7l.3-.7c3.1 2 5.5 3.7 7.3 5.1 1.1-2.2 2.2-4.7 3.3-7.4h-14v-3h21.4l.1-9.9h8.4l-.2 9.9h20.7v3h-7.7l3.7 3q-3.15 4.8-4.5 6.6c2.5 2 4.4 3.7 5.9 5.2l-3.8 5.1c-1.8-3.1-3.4-5.5-4.7-7.2-2.9 3.3-6.2 6.5-9.9 9.5l-.5-.5c3.5-4.4 6.1-8.5 7.9-12.2q-2.7-3.3-6-6.3l.4-.9c2.2 1.3 4.5 2.8 7 4.5.8-1.7 1.7-3.9 2.8-6.8H431c-.5 10.5-1.6 19.8-3.3 28 2.7 4.9 4.7 8.6 6.1 11 1.3-2.6 2.5-5.4 3.6-8.3q-2.25-3.75-5.1-7.2l.4-.7c2.1 1.5 4.1 3.1 5.8 4.6 1-2.8 1.8-5.8 2.5-9l5.3 4.3c-1.3 2.5-2.7 5.1-4.3 7.8 2.4 2.3 4.7 4.9 6.9 7.7l-4.5 5.8c-1.6-3.7-3.2-7-4.9-9.9-1.1 1.5-2.7 3.5-5 6.2 5.8 9.9 12.6 19.6 20.5 29.1l-8.1 7.4c-8.7-15.2-15.3-30.7-19.6-46.6-2.2 9.7-5.3 18.4-9.3 25.9s-9.1 14.6-15.2 21.2l-.9-.9c4.2-6.3 7.7-12.6 10.5-18.8m76.2-51.1c-4.8.2-9.2 1-13.1 2.3 2.4-3.2 5.1-5.8 8.2-7.9s6.4-3.5 9.8-4.2c-3.1 2.6-4.7 5.8-4.9 9.8m2.5 5.4c-.6-1.4-1.3-2.6-2.1-3.7-4.5 0-8.8.6-13 1.8 3.9 2.8 9.3 4.8 16.3 6-.2-1.4-.6-2.7-1.2-4.1m18.3-14.9q3.75 2.25 7.8 6c2.7 2.5 6.5 6.4 11.5 11.7 7.7 8.1 14.8 15.3 21.1 21.5s14 13.2 23 20.8l-1.3 2.4c-4.5-2.4-8.5-4.2-12.2-5.3s-6.8-1.7-9.1-1.7c-1.9 0-3.7.3-5.4 1q-2.4.9-6 3c-3.1 1.8-5.9 3.2-8.5 4.1-2.6 1-5.8 1.5-9.5 1.5q-13.5 0-19.8-9.6c-4.2-6.4-6.2-15.2-6.2-26.5 0-5.3-.4-9.2-1.1-11.8-.8-2.6-1.9-4.9-3.4-6.9 0-2.1.5-4.2 1.5-6 1-1.9 2.5-3.4 4.3-4.6s3.9-1.8 6.1-1.8c2.3 0 4.7.7 7.2 2.2m-12.6 1.8c-1.4 1-2.5 2.2-3.2 3.6s-1 2.7-1 3.9q2.25 2.85 3.9 6.9c1.65 4.05 1.9 6.5 2.4 11.3 1.1 9.9 3.5 17.9 7.3 23.9s9.3 9 16.6 9c2.7 0 5.1-.4 7.2-1.1q3.15-1.05 7.5-3.3c2.5-1.3 4.5-2.2 6.2-2.8s3.5-1 5.5-1c1.9 0 4 .3 6.4.8s4.8 1.3 7.3 2.3c-9.6-7.9-17.6-15.1-24-21.4q-9.6-9.45-18.6-19.5c-3.5-3.8-6.2-6.6-8-8.4s-3.6-3.2-5.3-4.2q-2.55-1.5-5.4-1.5-2.7 0-4.8 1.5m1 9.7c-.9-1-1.4-2.2-1.4-3.6 0-1.5.5-2.7 1.4-3.6s2.1-1.4 3.6-1.4 2.7.5 3.7 1.4 1.4 2.1 1.4 3.6-.5 2.7-1.4 3.6c-.9 1-2.2 1.5-3.7 1.5q-2.25 0-3.6-1.5m6.1-6.1c-.7-.7-1.6-1-2.6-1-.9 0-1.8.3-2.4 1-.7.7-1.1 1.5-1.1 2.5s.4 1.8 1.1 2.5 1.5 1 2.4 1c1 0 1.9-.3 2.6-1s1-1.5 1-2.5c.1-1-.3-1.8-1-2.5m-4.9 4.2c-.4-.4-.6-.9-.6-1.4s.2-1 .6-1.3c.4-.4.9-.6 1.4-.6s1 .2 1.4.6.6.8.6 1.3-.2 1-.6 1.4-.8.6-1.4.6-1-.2-1.4-.6m24.4 58.8 19.2-9.6 2.1 3.9-17 6.5q2.55.75 5.4 2.7l-1.3 2.5c-3.2-2.1-7.4-3.2-12.7-3.2-4.2.1-8.8 1.1-13.8 3.1l-1.2-2.5c5-2.3 10.2-3.5 15.5-3.6 1.8 0 3 0 3.8.2M208.1 255l6.6 3.3-2 8 3.2 11.6v-26.7h-12.1v-3h2.5c2.7-9.5 4.7-19.5 5.9-30.1h-6.1v-3h6.4q.6-5.85.9-11.7l6.4 1.3c-.7 4.1-1.3 7.5-1.9 10.4h3v-2.6h5.8v16.7c0 2.5.6 3.8 1.8 4l2.3-25.7.9.1-.6 25.7h1.4v3.9c2.3-8.8 4-19.8 5.1-32.9l7 2.8c-2.5 11.4-5.3 20.8-8.2 28.1h4.5v53.6h6.3v-23.3h-4.8v-3h4.8v-20h-4.8v-3h4.8v-16.4h-4.9v-3h6.5q-.6-6.6-3-16.5l.9-.5c3.3 3.7 6.2 8.3 8.6 13.6l-4.5 3.4h8.1v3h-5.5v16.4h4.8v3h-4.8v20h4.8v3h-4.8v23.3h6.2v3h-18.7v3.5h-6.3v-55.9c-1 2.3-2.5 5.2-4.4 8.8h1.6v3h-9.6v43.7h-6.3v-6.8l-3.8-19.7q-3.45 12.45-8.7 24.3l-1-.3c2.6-10.4 4.5-22.9 5.7-37.4m12.8-23.6v-13.3h-3.6c-2.3 10.7-5.6 20.7-9.8 30.1h8.4v-7.4h6.3v7.4h6.8c1.1-3.1 2-5.8 2.6-7.9h-5.2c-3.7 0-5.5-3-5.5-8.9m2.2 23.7.7-.5c3.9 6.2 7.2 13.2 9.7 21.1l-6.9 6c-.6-9-1.8-17.9-3.5-26.6m44.6 30.7 2.9-2.7v-37.3h5.8v32l1.9-1.8v-43.8h-2v7.1h-6v-32.5h6v2h9.1v-2h5.9v28.6h-4.6v-3.2h-2v13.7h5.4v3h-5.4v21.3l8.7-8v-13.4c-1.7 3.6-3.1 6.4-4.2 8.3l-.8-.4q6.3-18.15 8.7-39.9h-4.6v-2.7h4.9l.4-3.8 6.9 2.3q-1.95 9.45-3.6 15.3l4.3 8.5v-31.6h5.9v13.9l2.1 4.6c1.9-4.9 3.3-9.6 4.2-14.3l5.7 5.1c-3 3.9-6.1 7.4-9.4 10.3q4.8 9.6 11.4 18.6l-5.1 4.7h1.4v46.1h-6.7v-4h-14.8v4h-6.7v-30l-20.9 30.8zm17.7-56.6v-17.4h-9.1v17.4zm20 13.5-4.7-13.4c-2.1 6.9-4.3 13.1-6.8 18.4h6.2v3h14.8v-3h3.3q-4.05-10.95-6.9-25.2v25.9h-5.9zm9.5 24.4v-13.4h-14.8v13.4zm0 19.7v-16.7h-14.8v16.7zm36.2-.4-7.6 6.6q-.9-9.6-3.9-20.1l1-.9q6 6.3 10.5 14.4m26.6-81.9 8.9 2.1c-1.7 9.7-4.4 19.3-8.1 28.9h4.4v59.3H376v-53.3c-2.5 5.7-5.2 11.2-8.1 16.4l-1.2-.7c5.6-14.6 9.3-32.2 11-52.7M396 268h-11.2v-3h11.8c.5-3.1.9-6.2 1.2-9.4h-9.5v-3h9.7l.3-7.9h-12.1v-3h8.4c-.5-4.3-1.4-8.1-2.5-11.5h-7.6v-3h10.9v-8.7l-4.1 4.2c-.9-4.6-2.3-8.8-4-12.6l.7-.8c2.7 1.7 5.2 3.8 7.4 6.5v-11h5.7v22.4h3.6v-22.4h5.7v16.4c2.1-3.9 3.7-8.1 4.9-12.8l5.6 5.7c-2.5 2.8-6 5.7-10.5 8.6v4.5h9.7v3h-10l4.4 3.2c-1.7 2.5-4 5.2-7.1 8.3h11v3h-12.6c0 1.8-.1 4.4-.4 7.9h10.9v3h-11.2c-.4 3.1-1 6.3-1.8 9.4h16.5v3h-13.3c2.7 4.2 5.2 7.9 7.6 11.1s4.9 6.3 7.6 9.2l-7.4 7.4c-2.1-4.9-3.8-9.5-5.3-13.8s-2.7-9-3.8-13.9h-2.7c-3.2 10.4-8.9 19.7-17.2 27.9l-.9-.8c5.7-8.4 9.6-17.4 11.6-27.1m4.3-29.3-4.1 3h9.7c1.1-3.5 2-7.4 2.7-11.5H394c2.5 2.7 4.6 5.5 6.3 8.5m35.8-7.1 7.5.4c-.7 7.9-1.7 15.4-3 22.6 2.7-3.2 5.4-5.5 8-7 2.7-1.5 5.7-2.2 8.9-2.2 4 0 7.1 1.3 9.5 3.8 2.3 2.5 3.4 6.3 3.4 11.2q0 7.65-3.9 14.4c-2.6 4.5-6.6 8.1-11.9 10.8-5.4 2.7-12 4.1-20 4.1l-.4-1.5c9.5-.8 16.2-3.9 20.3-9.2s6.1-11.5 6.1-18.6c0-4.3-.5-7.3-1.5-8.9s-2.7-2.4-4.9-2.4c-2.1 0-4.4.7-6.6 2.2-2.3 1.4-4.9 3.8-7.7 7-.5 2.7-1.2 5.6-2 8.8l-7.2-1.6q4.2-16.8 5.4-33.9m26.7-16.1-2.9 7.4-1.8-1.3-12.3 5.5-.5-.9 10.1-6.4c-6-4-11.9-7-17.8-8.9l.5-1.2c8.8.9 17 2.8 24.7 5.8m38.5 35c-3.3 6.2-7.2 12.4-11.6 18.5.3 1 1 2.4 1.9 4.3l-6.5 4.7c-3.9-7.5-5.9-16.3-5.9-26.3 0-7.5 1.2-13.8 3.6-18.7q3.6-7.35 9.3-10.8c3.8-2.3 8-3.5 12.6-3.5 6.3 0 11.1 2 14.4 6.2 3.3 4.1 4.9 10.1 4.9 18.1 0 9.1-2 17.9-6.1 26.3s-9.8 15.4-17.2 20.9l-1.1-1.1q8.25-9.3 12-20.4c2.5-7.4 3.7-15.7 3.7-24.8 0-7.7-.9-13.3-2.8-16.9s-4.8-5.3-8.7-5.3c-2.6 0-5.2.7-7.8 2.2s-4.9 4.1-6.8 8.1-2.9 9.6-2.9 16.8c0 6.8.8 12.7 2.4 17.6 5.6-12.3 10-25.5 13.2-39.8l8 4.1c-2.4 7-5.3 13.6-8.6 19.8m37-8c2.4-5.6 4.9-12.1 7.5-19.4l6.4 5-3.8 7h8v-15.4H550v-3h6.4v-11.9h7.1v11.9h6.5v3h-6.5v15.4h8.1v3h-3.3l7.7 30.1v-35.3h-6.1v-3h17.2v3h-4.4v61.9H576v-10.4l-3.1-16.1-22.2 24.9-3.6-9 9.3-6.2v-19.6H549v-3h7.4v-15.3h7.1v15.3h5.4v3h-5.4v14.9l9.2-6.1-5.7-29.1h-19v-2.3c-1.8 3-3.8 6.2-6 9.7h3.5v49.3h-6.7v-44.7q-4.35 6.15-7.2 9.3l-1.4-.8c3-5.2 5.7-10.5 8.1-16.1m.2-25.7c1.3-4.1 2.4-8.5 3.2-13.2l7.4 3.8q-5.55 12.15-14.7 23.4l-1.3-.8q3.45-7.05 5.4-13.2m33.1-8h14.5v3h-14.5zM202.7 416.2l6.4-15.4v-35h-3.8v-3h3.8v-22h-4.3v-3h15.6v3h-4.8v22h3.9v3h-3.9v19.4l3.2-7.7 1.3.5-9.9 43.8zm17.3-23.3c1-11.2 1.6-24.6 1.6-40.2h-4.4v-3h10c-.7-5.6-1.8-11.3-3.4-17.1l.8-.9c2 2 3.9 4.3 5.8 6.8 1.8 2.5 3.4 5 4.6 7.5l-5.7 3.7h7.1v3h-8.2c0 4.4-.2 9.2-.5 14.4h2.4v-3.4h5.2c2.5-9.8 4-19.9 4.7-30.3l8.1 2.1-2.5 7h13.7v3h-14.8c-2.3 6.1-5.1 12.4-8.3 18.9q0 26.55-3.3 54.6l-6.2-.6 1-8.5-2.6-19.6c-1.9 11.7-5.2 23.2-9.7 34.5l-.9-.3c2.7-9.9 4.5-20.4 5.5-31.6m8.8 7c.7-8.8 1.2-18.7 1.4-29.7h-2.6c-.4 5.7-1 11.2-1.8 16.6zm11.8-43.7h13.1l.1-3.5 7 1.5-6.5 20.3-1.3-.2.6-15.1h-2.1v21h7v3h-7v28.1c3.3 1.9 6.2 3.3 8.6 4.4l-4 8.4c-5.9-5.3-11.4-11.4-16.3-18.2-1.3 6.5-3.1 13.1-5.3 19.7l-.8-.2c2.9-17.8 4.6-36.6 5-56.5l6.5 2.5c-1.4 12.7-3.1 23.6-5 32.6l5.5 3.8v-48.6h-5.1zm66.6 52.7v-67.1h-6.3c-.1 15.7-.8 28.5-2 38.7q-1.8 15.15-5.4 25.2c-2.3 6.7-5.4 13.3-9.3 19.9l-1.3-.4c2.7-7.2 4.8-14.2 6.2-20.9s2.4-15.7 3.1-26.8l-16.8 44.4-7.6-6.3 9.3-15.5v-34.2h-6.8v-3h6.8v-22h-7.3v-3h21v3h-6.4v22h5.6v3h-5.6V388l8-13.3c.5-11 .8-23.9.8-38.8h7.7v3h6.3v-3h7.3v70.5c0 4.7 1.3 7.1 3.8 7.2l3.9-58.2 1.3.3-1.4 57.9h2.1v9.3h-8.1c-6-.1-8.9-4.8-8.9-14m34.9-10.9 1.1.1c-.4 7.7-1.7 15.6-3.8 23.7l-7.1-5.1c3.9-5.6 7.2-11.9 9.8-18.7m-6.5-26.2h9.5v-37h7.6v3h17.8v-3h7.6v37h9.5v3H372c4.7 4.5 8.5 9.1 11.4 13.7l-6.9 5.3c-.7-3.1-1.6-6.7-2.9-10.6l-14.3 5.4q6 7.95 10.2 17.1l-8 4.5c-.6-6.3-1.8-13.4-3.7-21.1l-16.7 6.3-2.8-8.2 7.1-1.1c2.1-3.6 3.7-7.4 5-11.3h-14.8zm10.3 41.2v-16.7h6.9v13.5c0 3.5 1.9 5.3 5.6 5.3h13.4l2.7-17.6 1 .1.2 17.5h3.2v8.2h-22.1c-7.3 0-10.9-3.5-10.9-10.3m27.3-31.1c-.9-2.5-1.8-4.9-2.7-7.1h-17l4.8 3.4q-4.95 4.65-9.9 7.5zm-2.7-33.5v-7.6h-17.8v7.6zm0 10.9v-7.9h-17.8v7.9zm0 12.5v-9.5h-17.8v9.5zm7.4 23.8.9-.5c4.7 7.1 8.3 14.1 10.8 20.9l-6.8 4.6c-1-8.6-2.7-17-4.9-25m22.6-52.3h11.8l.6-10.4 8 1.5c-1.1 4-1.9 7-2.6 8.9h9.9v3h-11c-1.4 3.7-3.1 7.3-5 10.8h7.8v-3.3h6.5v12c4.1-10 7-20.9 8.7-32.8l8.3 2.5-1.8 4.8c4.4 7.1 9 13.6 13.9 19.3l-5.3 6.4-2.7-5.9v27.4l6-5.1 1.8 2.3-7.8 6.6v33.5h-6.9v-27.7l-14.5 12.3-1.9-2.3 16.4-13.8v-35.9h5.8c-2.1-5.1-4-10.3-5.5-15.5-3.1 7.7-6.6 14.5-10.5 20.5 3.7 2.9 6.6 5.8 8.8 8.8l-5.6 6c-.6-4.2-1.9-8.8-3.8-13.9l-3.4 4.9v8.3q6.15 4.35 10.2 9.3l-5.5 6.5c-.8-4.3-2.4-8.8-4.7-13.7v8.7h-6v-3.7h-2v14.3h10.6v3h-10.6v23.9h-7.1v-23.9h-11.9v-3h11.9v-14.3h-2.1v7.4h-6.7v-37.2h6.7v3.3h1.6q.75-5.85 1.2-10.8h-11.6zm19.5 25v-8.2h-10.7v8.2zm0 12.3v-9.3h-10.7v9.3zm51.2 25.6c.8-1 1.9-1.5 3.2-1.5s2.4.5 3.1 1.4 1 2.4 1 4.5c0 3-.6 5.9-1.9 8.6-1.2 2.7-2.8 5.1-4.6 7.1l-.8-.4c1.3-1.8 2.2-3.7 2.8-5.6s.9-3.8.9-5.5h-.5c-2.9 0-4.4-1.4-4.4-4.3.1-1.9.5-3.3 1.2-4.3m67.4 13.2-10.2-12.3.8-.9 9.8 8.7 1-12h-13.7l-1.7 14-6.6-.8q2.4-19.8 3.9-36.9h-4.2v-3h4.4l1.8-22.1c-2.5 4.7-5 9.2-7.6 13.3v44.1h-6.7v-4.2H505v12.5h-6.9v-81h6.9v3h4.6v-3h6.7v25.5c2.9-9.3 5.1-19.5 6.7-30.5l8.5 1.9-2.2 6h21.9v3h-23.1c-1.1 2.7-2.2 5.1-3.3 7.4l6 .3-.2 3.2h11.6v-3.2h7.2c0 8.9-.1 16.8-.4 23.8h3.1v3h-3.2q-.45 10.35-1.2 20.7h3.4v3h-3.6c-.3 4.5-1 11.7-1.9 21.6l-7.5-.6zm-29-48.1v-26.5H505v26.5zm0 33v-30H505v30zm22.5-4.4q0-9.6-1.8-17.4l.8-.7c3.3 4.1 5.9 8.6 7.8 13.7l-5.6 4.4h7c.3-4.6.8-11.5 1.3-20.7h-12.9l-2.1 20.7zm1.9-23.7c-.2-5.3-.8-10.3-1.9-15l.9-.7q4.05 4.95 7.2 12.3l-4.8 3.4h6.3c.3-7.7.4-13.5.5-17.6h-11.8l-1.5 17.6zm28.6-28.4h5.7v3h1.2c.7-6.3 1.2-12.1 1.4-17.4l6.9 2.3c-1.5 4.7-3.8 9.7-6.7 15.1h3.5v-3h6.5v64h-6.5v-4.2h-5.2v13.2h-6.8zm12 26.6v-20.6h-5.2v20.6zm0 30.2v-27.2h-5.2v27.2zm13.7-3.7c2-8.2 3.7-17.3 5-27.2h-3v12h-6.5v-44h6.5v2h2.3c.9-2.7 1.7-6.3 2.3-10.8l7.6 3q-3.15 4.35-7.8 7.8h12.1v-2h6.8v35h-6.8v-3h-7.5l-1.1 6h5.1v20.6l1.8-1.1c.8-6.7 1.4-13.7 1.8-20.8l4.6 2.7c-1.8 7.5-3.4 13.2-4.7 17.1l4-2.5-.6-4.3.6-.4c1.2 1.9 2.3 4.1 3.4 6.6l2.4-34.1 1 .1-1.4 50.3h1.3l-.1 8.8h-11.8c-5.5 0-8.3-4.8-8.3-14.4V384c-1.7 8-3.9 15.4-6.4 22.2s-5.6 13.4-9.1 19.7l-1.1-.3c3-8.2 5.6-16.5 7.6-24.7m6.6-43.7.6-10.4h-5.2v10.4zm-1.3 13.6 1-10.6h-4.3v10.6zm9.1-22.6-1 9h5.1v-10.4h-8.5zm4.1 22.6v-10.6h-5.5l-1.5 10.6zm-3.5 31.4v3.6c0 5.5 1.3 8.2 3.8 8.2h5.9l.9-12.9-2.6 2.6-.3-6.3-5.2 9.9zm22.9 12 8.4-15.6v-32.8h-6.8v-3h6.8v-22h-7.3v-3h20.6v3h-6.1v22h5.7v3h-5.7v19.5l8.3-15.4.9.7-17.8 51.2zm27.4-40.4c2.9-9.6 5.3-20.3 7.1-32h-10.6v-3h29.5v3H663l6.3 2.8c-2.4 8-4.7 15.1-7 21.2h4.3v58H659V374c-4.5 10.7-9.8 20.4-15.8 29.1l-.9-1c4.6-9.2 8.3-18.7 11.3-28.3m14.7-3.8 1-.8c4.7 6.1 8.9 12.9 12.7 20.3l-7.5 8.5c-1.5-9.5-3.6-18.8-6.2-28m35.1 23.3 1.1.5c-.8 9.9-2.5 20.3-5 31.4l-8.1-6.5c4.4-7.2 8.4-15.6 12-25.4m18 1.9h-.9v-30.8c-1.4 2.1-3 4.4-4.9 6.8v18.5h-6.4v-4.2h-7.8v10.9h-6.8v-61.1h6.8v3.5h7.8v-3.5h6.4v33.4c3.9-8.4 6.9-17.9 8.8-28.4h-6.1v-3h18.5l.2-2.6 7.1.4c-.4 8.4-1.2 17.1-2.5 26l-7.7-1.1.8-4.4-5.8-7.2c-1.9 4.7-4.4 9.6-7.5 14.6h5.5v2.7h9.2V363h7.1v32.2h-7.1v-5.1h-9.2v5.1h-4c3.8 8 6.9 15.8 9.3 23.3l-7.3 4.6c-.6-9.7-1.7-19-3.5-27.9m-12.2-36.8v-16.6h-7.8v16.6zm0 24.1v-21.1h-7.8v21.1zm2.2 22.5c0-2.3-.1-5.5-.2-9.8l1.1-.4c2.6 7.3 4.7 15.3 6.2 23.9l-7.9 4.6c.5-5.6.8-11.7.8-18.3m24.7-17.9v-18.4h-9.2v18.4zm-4.8-45.3-2 5.5 5.9 5c.7-4.7 1.1-8.7 1.4-12h-9.3zm.9 52 1.1-.5c2.9 4.7 5.5 9.1 7.7 13.3s4.1 8.8 5.8 13.6l-7.7 4.8q-2.4-17.1-6.9-31.2m-521.5 152 7.6-6.7v-19h-5.9v13h-6.8v-42.7h6.8v2.5h5.9v-9.8h-3.2v3h-6v-20.3h6v2h13.7v-2h6.2v20.3h-6.2v-3h-3.4v9.8h5.9v-2.5h6.7v31.4l2-1.8v-54.2h6.7v2h5.8l.1-2.2 7.7 1.2-6.8 20.4q4.8 12.45 4.8 25.5c0 5.3-.6 11.1-1.7 17.5l-6-1 .7-4.4-4.6-16.6v46.6H240v-32.9l-23.2 33.2zm7.6-41.5v-8.4h-5.9v8.4zm0 12.8v-9.8h-5.9v9.8zm10.5-37v-9.3h-13.7v9.3zm2.5 24.2v-8.4h-5.9v8.4zm0 12.8v-9.8h-5.9v9.8zm0 3h-5.9v12.8l11.1-9.8h-5.2zm20.7-2.3c.1-2.4.2-4.2.2-5.3 0-3.9-.4-7.8-1.1-11.6s-1.9-7.8-3.4-12.1l3.8-2 .8-16h-5.6v33.5zm20.5 27.4 6.1-1.1c3.3-6.3 5.9-13 7.8-20.3h-15.8v-3h9.5v-56h8v2h16.7v-2h8.3v56h9.5v3h-32.5l5.6 3.2c-3.6 5.5-8.4 11-14.4 16.7l27.2-4.7c-1.2-4-2.8-8.3-4.8-13l.8-.4c5.9 6.3 11.4 14.5 16.3 24.4l-7.7 6c-1.1-5.3-2.4-10.5-4.1-15.6l-32.9 15zm32.3-62.5v-12.8h-16.7v12.8zm0 18v-14.9h-16.7v14.9zm0 20.1v-17h-16.7v17zm32-31.9-3.6 5.6-.7-.6c2-5.3 3.6-10.5 4.9-15.4 1.3-5 2.4-10.3 3.3-16.1l7.7 2.9-2.7 6.5h7l.9-4.2 7.6 2.7-10.4 17.5h3.1v-2.2h5.3v4.8c2.9-6.3 5.1-13.3 6.7-21.2l1 .2-.1 6h6.2c-.3-3.6-1.1-7.8-2.5-12.5l.7-.6c3.1 2.9 5.9 6.2 8.4 10.1l-4.9 3h8.7l.5-4.6 7.1 2.4-8.5 23.2-1.2-.3 1.8-17.7h-16.4c-.3 6.1-1 12.2-2.1 18.2l-5.4-2.7v34.3h-5.3v-3h-11.1v10.1h-6zm-3.1 55.8 29-17 .6 1-26.4 25.1zm9.1-59.1v2.2h6.7l2.6-13h-7.7c-1.5 3.4-3.4 7-5.6 10.8zm3.2 17.7v-12.5h-3.2v12.5zm0 18.9v-15.9h-3.2v15.9zm7.9-18.9v-12.5h-3.2v12.5zm0 18.9v-15.9h-3.2v15.9zm18.1 1.5-2.8-6.7-3.1 8.6-5.5-2.7c2.2-5.8 4.4-12.5 6.5-20h-6.3v-3h7.1c1.7-6.3 3-12.3 4.1-18.1l6.2 1.5c-1.4 6.5-2.7 12-4 16.6h14.4v3h-7.4l4.3 3.5c-2.5 6.6-5.3 12.9-8.4 18.8 4.2 6.2 8.4 13.6 12.7 22.3l-7.5 7q-3.15-12.45-7.8-24.6c-5.2 9-11.4 17.4-18.6 25.3l-.8-.9c6.7-9.4 12.3-19.6 16.9-30.6m1.5-3.7c1.8-4.8 3.7-10.5 5.6-17.1h-5.7c-1.1 4.3-2.3 8.3-3.6 12.2zm28.3-30.3-2.6 4.7-.7-.6c1.6-5.3 2.9-10.4 4-15.3 1-4.9 1.9-10.3 2.8-16.1l7.1 2.9-2.3 6.5h8.1l1.1-4.2 7 2.7-10.9 17.5h3.4v-2.2h5.1v42.6h-5.1v-3h-11.1v10.1h-5.8v-45.6zm-3.1 55L425 529c1.1-12.4 1.6-31.5 1.6-57.4h6.2v2.7h7c-.7-3.8-1.9-7.7-3.5-11.8l.7-.5c3.6 2.3 6.5 5 8.6 7.9l-4 4.4h12v3h-20.8c-.1 8.8-.3 15.3-.4 19.4h6.3v-7.8h-4.9v-3h4.9v-6.3h5.7v6.3h2.9V484h5.3v12.7h1.9v3h-1.9V515h-5.3v-3.7h-2.9v12l2.4 3.5q2.4-5.55 3.3-10.2l4.4 4.2c-2.1 2.7-4.5 5-7 7 3.1 4.9 5.8 9.5 7.9 14l-5 5.9q-2.25-11.25-6-22.2v29.2h-5.7v-6.4l-3.8-13-5.5 13.2-3.4-5.5c-.9 3.3-2.4 7.2-4.3 11.7l-.9-.3c1.9-7.5 3.3-15.3 4-23.3l-22.9 22.7zm8.9-59.1v2.2h6.4l3.3-13h-8.5q-1.95 4.95-4.8 10.8zm3.4 17.7v-12.5h-3.4v12.5zm0 18.9v-15.9h-3.4v15.9zm7.7-18.9v-12.5h-3.2v12.5zm0 18.9v-15.9h-3.2v15.9zm12.2-3.8c-1 8.3-2.3 15.3-3.8 21.1l11.6-15.5v-12.7h-5.1v-3h5.1v-8.6h-6.4c-.3 6.1-.7 11.6-1.2 16.7 2.5 1.7 4.6 3.6 6.4 5.7l-3.7 5.1c-.6-2.6-1.5-5.6-2.9-8.8m7.8 23.9v-16.1l-3.4 8.1zm8.6-45.6v-7.8h-2.9v7.8zm0 11.6v-8.6h-2.9v8.6zm24.1-26.9c2-5 3.8-10.7 5.4-17l9.2 2.9-3.7 6.5h15.3l1.7-4.2 9.9 4.1-14.9 14.6h10.9v-2.2h7.4v49.7h-7.4v-4H479v4h-7.4v-46.5c-2.1 2.7-4.3 5.1-6.4 7.2l-1-.6c2.8-4.7 5.3-9.5 7.2-14.5m-5.8 67.3h52.2v3.1h-52.2zm13.4-62.6v2.2h12.9l4.6-11.5h-16c-1.9 3-4 6.1-6.4 9.3zm9.7 20.7v-15.5H479v15.5zm0 22v-19H479v19zm16.5-22v-15.5h-9.7v15.5zm0 22v-19h-9.7v19zm22.4 20.9h6v-39.3h7.8v3.3h30.4v-3.3h7.8v39.3h6v3.1h-58zm2-49.5h22.3V490h-17.3v-3h17.3v-9.4h-20.3v-3h12.6q-1.35-5.7-3.9-11.1l1.2-.9q6 3.45 10.8 8.7l-6.6 3.3h15.8c1.8-4.1 3.3-8.1 4.4-12.1l9.1 3.9c-2.9 2.8-6.5 5.5-11 8.2h17.6v3h-20.3v9.4h17.3v3h-17.3v10.2h22.3v3h-54zm18 49.5v-32.9h-6.2v32.9zm11.9 0v-32.9h-5.8v32.9zm12.3 0v-32.9h-6.2v32.9zm21.5-61.6.7-.9c2.5 1.9 4.7 3.7 6.4 5.3s3.4 3.4 4.9 5.3l-6.1 6.7c-1.4-6-3.4-11.5-5.9-16.4m40 5.3c-7.1 5.3-14.3 10-21.8 14l-6.7 47.3-8.6-5.7 20.2-82.2.9.2-1.6 11.1 8-2.1c-1.2-3.1-2.2-6.6-3-10.4l6.9-1.2c1.1 4.2 2 7.5 2.9 9.9l16.3-4.2.7 2.9-15.9 4.2c.9 2.4 2.3 5 4.1 7.8 3.1-3.3 5.9-6.7 8.4-10l4.8 4.9-2 1.9-.1 14.8 2.9 2.1-4.4 6.2c-4.6-3.3-8.6-7.1-12-11.5m-32.6-20.2c-.9-2.5-2-5.2-3.4-8.1l.9-.8c4.1 3.1 7.7 6.8 10.9 11.2l-6.2 5.9c-.6-3-1.3-5.7-2.2-8.2m16.1 60c1.9-7.2 3.4-15 4.4-23.2h-6.6v-3h31v3h-7.4v29c0 1.8.4 3.1 1 4 .7.9 1.7 1.3 3.1 1.3h1.9l3.4-29 1.1.1-1 28.9h2.3l-.1 8.4h-9.8c-5.5 0-8.3-3.6-8.3-10.9V510H624l5.1 1.9c-1.9 8-4.3 15.5-7.3 22.3-3 6.9-6.8 13.7-11.5 20.5l-.9-.6c3-6.7 5.5-13.7 7.4-20.9m14-43.2q-3.45-5.1-6-11.1l-9.6 2.5-3.4 24.2c7-4.9 13.3-10.1 19-15.6m13.3 4.4 1.6-11.4-6.9 6.1c1.5 1.8 3.3 3.5 5.3 5.3m31-31.4 1.2.2-.2 4h13.6c-.7-1.7-1.6-3.5-2.8-5.2l1-.9c4.1 1.6 6.9 3 8.5 4.2l-3.3 1.9h15.2l.4-2.1 6.7 2.1-6.4 6.3 3.6 1.8-4.4 3.2c-3.2-2.8-7.2-5.5-12.1-8.1l.5-.6h-12.9l3.8 2.3c-1.7.8-3.3 1.5-4.9 2.1l2.6 2.5c-1.3 3.3-3 6.7-4.9 10.3l2.9-.6.6-2.5 2.8 2.8c-2.2 4.9-4.3 8.9-6.4 12l4-1.3-.5-3.7.4-.5c1.1 2.1 2.1 4.5 2.9 7v-8.1h3.1v1h4.2v-1h3.2v7.2l.8-.3c1.4-3.7 2.6-7.3 3.6-10.9l-3.4 3.9-1.1-4.6 1-.2c.9-3 1.8-7.2 2.7-12.7l3.3 3.1c-1.2 2.8-2.8 5.9-4.9 9.3l2.9-.6.6-2.5 2.8 2.8c-2.2 4.9-4.3 8.9-6.4 12l4-1.3-.4-3.7.4-.5c1.5 3 2.6 5.3 3.2 6.8v-17.6h2.9v38.5h-2.9v-11.7c-1.5 2.2-3.2 4.3-5.2 6.2v1.1h4.5v2.2H703c1.3 3.8 3 7.9 5.3 12.2l-3 3.1c-.7-2.1-1.4-5-2.1-8.8l-3.7 8.7-2.4-3.7 1.5-1.5v-10h-1.3v-2.2h1.4v-12.2h2.7v9.8q1.95-4.35 3-7.8l2.2 1.7v-6.5l-2.7 2.2-.4-5.3-5 5.4-1-3.1v2.5h-3.2v-1.7h-4.2v1.7H687v-1.6l-2.4 2.2-.3-5-5 5.5-.8-2.7v28l1.7-1.9v-9H679v-2.2h1.2v-12.2h2.7v9.8q1.5-3 2.7-7.8l1.4 1.4v-1.8h6.3l.1-1.3 3.2.2-1 12.5-3.2-.2.7-8.9h-5.6l.7.7c-1.5 2.4-3.3 4.5-5.3 6.4v1.2h4v2.2h-2.8c.7 2.5 1.6 4.8 2.7 7.1v-1.5h6.5v2.2h-6.2l2.2 4.4-3.1 3.1c-.7-2.4-1.4-5.5-2.1-9.4l-3.8 9.3-1.8-2.8v3.9h-1.2q-.3 2.85-1.2 5.4c-.9 2.55-1.4 4-2.5 6.8l-4.7-4.5c2.6-2.3 5-4.9 7.3-7.7h-.8v-5.7l-3.4-12.8c-.5 5.1-1.1 9.5-1.9 13.1s-2 7.1-3.3 10.8v6.5c14 1.5 30.2 2.6 48.7 3.1l-3.3 7.9c-10.7-1.2-20.1-2.7-28.2-4.4-8.2-1.7-14.8-3.6-19.9-5.6-.8 3.8-1.9 7-3.2 9.7l-3.7-6.9c1.1-.7 2.5-2 4.2-3.7v-48.4h-3.8v-3.1h3.8V493h5.4v45.2c1.2-5.6 2-12.3 2.4-20s.7-21.1.7-40.2l-1.3.3-.3-.6c2.1-.9 4.1-1.9 6.1-3l-5.7-1.8c2.2-3 4.4-6.3 6.4-9.9m-15.7 5.7 1-.6c3.5 4.1 6.1 8.2 7.8 12.2l-5.6 4.9c-.4-4.6-1.5-10.1-3.2-16.5m13.7 8.8v1.4h2.3v-1.4h3.1v9.9l.7-.1c.8-2.9 1.7-7.2 2.6-12.8q-4.5 1.65-10.2 3zm2.3 46.6v-11.7h-3.1l-.2 2.6zm0-14.2v-13.2h-2.5c-.1 6.1-.3 10.5-.5 13.2zm0-15.7v-12.6h-2.3l-.1 12.6zm6.5-24.4h-6.1l-.5 4.3c2.6-1.6 4.8-3 6.6-4.3m-3.4 19v10.5l.6-.2c1.4-3.7 2.6-7.3 3.6-10.9l-3.4 3.9zm.9 51.9v-6.8h5.3v5.8c0 2.1 1.4 3.2 4.2 3.2h11.2l2.8-10 1 .2-.8 9.8h3.4l-.1 4.2h-18.5c-5.7 0-8.5-2.2-8.5-6.4m4.6-17.2-.7-4.9h-.7v6.4zm2.4-46.4h4.8c-.4-1.1-1.1-2.6-2-4.4l.7-.5c2.1 1.3 3.8 2.5 4.9 3.7l-1.9 1.2h5.3v2.5h-11.8zm.4 45 1.8-12.8 2.7.3-1.2 9.4h4.2v-1h2.7c0 6.4-.3 12-1 16.9l-2.8-.4.2-1.6-4.4-5.4.3-.5 4.4 4.1c.3-2.3.5-5.6.6-10.1h-4.4l-.2 1.4zm1.2-39.7h8.6v2.1H688zm0 4.7h8.6v2.2H688zm.8 45.8.7-.5c3.1 2.4 5.6 4.8 7.5 7.3l-5.5 2.3c-.6-2.8-1.5-5.9-2.7-9.1m5.5-33.1v-5.1h-4.2v5.1zm12.9-27 .6-3H698c4 1.1 7.1 2.1 9.2 3m-4.2 51.4-.8-5.6H701v7.6zm7.7 6.8-5.3-9.3.4-.4 4.9 6v-49.7h3.6V535h-3.6zm-4.2 3.8.9-.5c1.7 1.4 3.3 3.1 4.8 5s2.7 3.8 3.6 5.6l-5.3 2.6c-.8-4.4-2.2-8.6-4-12.7m33.6-71.8 1.2.2-.2 4h13.6c-.7-1.7-1.6-3.5-2.8-5.2l1-.9c4.1 1.6 6.9 3 8.5 4.2l-3.3 1.9h15.2l.4-2.1 6.7 2.1-6.4 6.3 3.6 1.8-4.4 3.2c-3.2-2.8-7.2-5.5-12.1-8.1l.5-.6h-12.9l3.8 2.3c-1.7.8-3.3 1.5-4.9 2.1l2.6 2.5c-1.3 3.3-3 6.7-4.9 10.3l2.9-.6.6-2.5 2.8 2.8c-2.2 4.9-4.3 8.9-6.4 12l4-1.3-.5-3.7.4-.5c1.1 2.1 2.1 4.5 2.9 7v-8.1h3.1v1h4.2v-1h3.2v7.2l.8-.3c1.4-3.7 2.6-7.3 3.6-10.9l-3.4 3.9-1.1-4.6 1-.2c.9-3 1.8-7.2 2.7-12.7l3.3 3.1c-1.2 2.8-2.8 5.9-4.9 9.3l2.9-.6.6-2.5 2.8 2.8c-2.2 4.9-4.3 8.9-6.4 12l4-1.3-.4-3.7.4-.5c1.5 3 2.6 5.3 3.2 6.8v-17.6h2.9v38.5h-2.9v-11.7c-1.5 2.2-3.2 4.3-5.2 6.2v1.1h4.5v2.2H768c1.3 3.8 3 7.9 5.3 12.2l-3 3.1c-.7-2.1-1.4-5-2.1-8.8l-3.7 8.7-2.4-3.7 1.5-1.5v-10h-1.3v-2.2h1.4v-12.2h2.7v9.8q1.95-4.35 3-7.8l2.2 1.7v-6.5l-2.7 2.2-.4-5.3-5 5.4-1-3.1v2.5h-3.2v-1.7h-4.2v1.7H752v-1.6l-2.4 2.2-.3-5-5 5.5-.8-2.7v28l1.7-1.9v-9H744v-2.2h1.2v-12.2h2.7v9.8q1.5-3 2.7-7.8l1.4 1.4v-1.8h6.3l.1-1.3 3.2.2-1 12.5-3.2-.2.7-8.9h-5.6l.7.7c-1.5 2.4-3.3 4.5-5.3 6.4v1.2h4v2.2h-2.8c.7 2.5 1.6 4.8 2.7 7.1v-1.5h6.5v2.2h-6.2l2.2 4.4-3.1 3.1c-.7-2.4-1.4-5.5-2.1-9.4l-3.8 9.3-1.8-2.8v3.9h-1.2q-.3 2.85-1.2 5.4c-.6 1.7-1.4 4-2.6 6.8l-4.7-4.5c2.6-2.3 5-4.9 7.3-7.7h-.8v-5.7l-3.4-12.8c-.5 5.1-1.1 9.5-1.9 13.1s-2 7.1-3.4 10.8v6.5c14 1.5 30.2 2.6 48.7 3.1l-3.3 7.9c-10.7-1.2-20.1-2.7-28.2-4.4s-14.8-3.6-19.8-5.6c-.8 3.8-1.9 7-3.2 9.7l-3.7-6.9c1.1-.7 2.5-2 4.2-3.7v-48.4h-3.8v-3.1h3.8V493h5.4v45.2c1.2-5.6 2-12.3 2.5-20 .4-7.7.7-21.1.7-40.2l-1.3.3-.3-.6c2.1-.9 4.1-1.9 6.1-3l-5.7-1.8c2.2-3 4.4-6.3 6.4-9.9m-15.7 5.7 1-.6c3.5 4.1 6.1 8.2 7.8 12.2l-5.6 4.9c-.4-4.6-1.5-10.1-3.2-16.5m13.7 8.8v1.4h2.3v-1.4h3.1v9.9l.7-.1c.8-2.9 1.7-7.2 2.6-12.8q-4.5 1.65-10.2 3zm2.3 46.6v-11.7h-3.1l-.2 2.6zm0-14.2v-13.2h-2.5c-.1 6.1-.3 10.5-.5 13.2zm0-15.7v-12.6h-2.3l-.1 12.6zm6.5-24.4h-6.1l-.5 4.3c2.6-1.6 4.8-3 6.6-4.3m-3.4 19v10.5l.6-.2c1.4-3.7 2.6-7.3 3.6-10.9l-3.4 3.9zm.9 51.9v-6.8h5.3v5.8c0 2.1 1.4 3.2 4.2 3.2h11.2l2.8-10 1 .2-.8 9.8h3.4l-.1 4.2h-18.5c-5.7 0-8.5-2.2-8.5-6.4m4.6-17.2-.7-4.9h-.7v6.4zm2.4-46.4h4.8c-.4-1.1-1.1-2.6-2-4.4l.7-.5c2.1 1.3 3.8 2.5 4.9 3.7l-1.9 1.2h5.3v2.5h-11.8zm.4 45 1.8-12.8 2.7.3-1.2 9.4h4.2v-1h2.7c0 6.4-.3 12-1 16.9l-2.8-.4.2-1.6-4.4-5.4.3-.5 4.4 4.1c.3-2.3.5-5.6.6-10.1h-4.4l-.2 1.4zm1.2-39.7h8.6v2.1H753zm0 4.7h8.6v2.2H753zm.8 45.8.7-.5c3.1 2.4 5.6 4.8 7.5 7.3l-5.5 2.3c-.6-2.8-1.5-5.9-2.7-9.1m5.5-33.1v-5.1h-4.2v5.1zm12.9-27 .6-3H763c4 1.1 7.1 2.1 9.2 3m-4.2 51.4-.8-5.6H766v7.6zm7.7 6.8-5.3-9.3.4-.4 4.9 6v-49.7h3.6V535h-3.6zm-4.2 3.8.9-.5c1.7 1.4 3.3 3.1 4.8 5s2.7 3.8 3.6 5.6l-5.3 2.6c-.8-4.4-2.2-8.6-4-12.7m19.1-52h8.2v3h10.1c1.8-4.5 3.3-9.5 4.6-15H789v-3h55.2v3h-27.8l5.9 3.1c-3.5 4.6-7.1 8.6-10.7 11.9h22.6v-3h8.4v72h-8.4v-5.5h-35.4v5.5h-8.2zm15 63.5v-57.5h-6.8v57.5zm15-41.9v-15.6h-8.1v15.6zm0 19.8v-16.8h-8.1v16.8zm0 22.1v-19.1h-8.1v19.1zm13.6 0v-57.5h-6.6v57.5zm-616 122.6v-53.8h-2.9c-.6 14.2-1.8 26.9-3.7 38-1.9 11.2-4.4 22-7.7 32.6l-1.3-.3c1.8-9.9 3.1-20.2 4-30.9s1.4-23.8 1.7-39.4h-3.7v-3h3.7l.1-17.3h7.3c0 6-.1 11.8-.3 17.3h2.8v-3.6h6.5v57.8c0 4.2 1.2 6.6 3.5 7.1 3.6-10.1 6.2-20.9 7.9-32.4h-9.5v-3h9.9l.8-6.7 7.4 1.1-1.2 5.6h11.3v3h-12l-1 4c5.1 4 9.2 8.1 12.5 12.3l3.2-35.8 1.3.3-1.7 51.7h2.6v9.3h-32c-6.4 0-9.5-4.7-9.5-13.9m8.8-66.1h5.5v2.4h5.3q.75-2.55 1.2-5.4h-14.5v-3h33.3v3h-16.6l3.4 1.6c-1.3 1.3-3 2.6-5 3.8h10.7v-2.4h5.5v29.6h-5.5v-5.6l-3-8.4v10.9H243v-21.1h-3v21.1h-4.5v-21.1h-3v24.2H227zm14.4 43.4c-2.8 10.1-6.8 19.2-11.9 27.3h23.3l1.2-13-5.2 5.7c-1.7-6.8-4.2-13.4-7.4-20m8.9-24.6v-13.4h-3v7.7zm23.9 14.2c-1.9 5.5-3.3 9.6-4.4 12.4l-1.2-.6c3.5-15.9 6.1-33.5 7.6-52.8l7.9 1.9-.9 5.1h5.1v3.9h8.4v-3.9h5.5v21.3q3.15-13.5 4.5-28.8l6 2.1-1.3 5.4h3.6l.8-4 6.4 3.5c-2.1 6.7-4.5 13.6-7.4 20.6 3.1 4.9 6.8 9.8 10.9 14.9l-3.9 9.1-1.7-3.1v41h-5.6v-5h-4.3v5h-5.6v-41.6l-2.4 4v23.6h-5.5v-6h-8.4v14h-5.9v-72.1c-1.3 6.5-3 13.1-5 19.8h2.6v59.3h-5.8zm15.9-7.1v-20h-2.3v20zm0 32.1v-29.1h-2.3v29.1zm7.1-32.1v-20h-2.3v20zm0 32.1v-29.1h-2.3v29.1zm13.1-39.7-2.6-7.4c-1.6 4.6-3.4 9.1-5.5 13.4v16.1c3-7.2 5.7-14.6 8.1-22.1m-.1 19.1v3.9h4.3v-3.9h4.2c-2.3-4.4-4.3-8.8-6.2-13.3-1.8 4.1-4.1 8.5-6.8 13.3zm1.3-23.5c1.2-4.2 2.2-8.2 2.9-11.9h-3.8l-2.1 6.8zm3 59.1v-28.7h-4.3v28.7zm27.4-80.1 7.9 2.5-.9 4.7c5.6-2.7 10.8-6 15.7-10l4.8 7.4c-3.8 1.3-8.5 2.5-14 3.6 2.9 2.9 5.2 6.1 6.9 9.4l-5.9 5c-.7-5.5-1.6-10.3-2.5-14.2l-5.4.9-.5 2.1c2.8 2.8 5 5.8 6.6 8.9l-3.2 2.9 4.3 3.2-1.9 4.9h12.5v3H361v10.9h5.6v3H360v22.2l2-1.3v-16.6h4.4v22c2.1-6.9 3.6-14.1 4.3-21.5l4.8 3.4v-10.3l-5.9 5.4-2.8-8.5 3.7-1.2c2.9-5.1 5.7-11 8.5-17.9l-8.8 8.1-2.8-7.9 4-1c2-4.5 3.8-9.5 5.4-15.2-1.9.5-4.6 1-8.1 1.6l-.5-1.2c5.5-3.1 10.2-6.7 14.2-10.7l5 7c-2.9 1.1-5.9 2.1-8.8 2.8l3.7 3.7c-2.3 3.8-5.1 7.6-8.6 11.5l6.4-1.6 1.9-5.1 4.6 5.8c-1.3 2.5-2.9 5.1-4.7 7.7 2.9 5.3 5.4 11.1 7.4 17.2l-5.3 4.5c-.2-4.5-.5-8.5-1-11.9l-5 4.5h2.6v45.4h-5.1v-4.9l-4.8-11c-2.2 5.1-4.7 9.9-7.6 14.4l-1.1-.7c1.4-3.5 2.5-6.4 3.2-8.8H362v-7.2l-12.6 15.5-3-7.2 1.7-1.1v-25.6h5.1v22.3l2-1.3v-25.3h-7.5v-3h7.4V630h-2.6c-1.9 4.4-4.2 8.6-6.9 12.7v42.1h-6v-50.3c-1.8 4.4-3.6 8.5-5.5 12.4l-1.3-.3c4.8-15.1 7.8-32.1 9.1-50.9m5.5 14c-1.2 5.3-2.7 10.6-4.5 15.7h2.7v13.8c2-5.8 3.5-12.1 4.4-19l-1.4 1.3c-.1-4.3-.5-8.2-1.2-11.8m18.1-5.1 5.6 4.7c-2.7 5.1-6.2 10.2-10.5 15.2l-.8-.4q3.3-8.1 5.7-19.5m10 69.7v-19.2c-1.3 4.5-2.7 8.7-4.3 12.6zm7.3-40.9c-.3-1.7-.7-4.2-1.4-7.5-2.6 3.8-5.4 7.4-8.5 10.8zm-1 15.3 1.1-.5q3.15 7.95 7.2 22.5l-5.9 7c-.5-8.9-1.3-18.6-2.4-29m20.3-40.1-5 1.5-.4-1c10.7-4.8 19.7-10.6 26.8-17.5l7.3 4.8-2.2 1.3c7.7 2.2 16.8 4.1 27.3 5.8l-3 7.5-1.9-.7v1.8h-8.4v5.8h2.5v-1.5h5.4v14.8h-5.4v-1.9h-2.5v7.4h8.9v3h-18.3v3h-5.6v-35.2h5.6v1.6H448c-7.9-3.2-14.9-6.7-20.8-10.6q-8.7 4.8-21.6 9h2.1v1.6h17.8v3h-8.4v5.8h2.5v-1.5h5.4v14.8h-5.4v-1.9h-2.5v7.4h8.4v3h-17.8v4.5h-5.6zm-4.4 67.3 3.9-2.1V648h5.8v22.7l4.1-2.1v-26.7h5.9v7.8h8.4v3h-8.4v12.7l9.1-4.8.7 1.1-25.5 23.2zm14.3-58v-5.8h-4.3v5.8zm7.6 8.4v-5.4h-11.9v5.4zm-7.6 10.4v-7.4h-4.3v7.4zm23.5 29 3.1 3.7c-.1-2.1-.3-4.6-.8-7.4-4 3-8.6 5.7-13.7 8.1l-.4-1.1q3.9-3.45 6.6-6.3c1.8-1.9 3.4-3.9 4.5-5.9l2.5 2.9-1.3-5.4c-4.2 1.5-8.3 2.8-12.3 3.8l-.3-1c6.1-2.8 11.2-5.9 15.4-9.4h-13.1v-3h27.1v3h-10.3l3.3 2.7-4.6 1.9c.9 3.3 1.6 6.5 2 9.6 2.2-2.8 4.1-6.1 5.6-9.9l4.7 5.3c-2.9 2.3-5.5 4.1-7.6 5.2 2.5 4.9 5.9 10 10.1 15.2l-5.9 4.8q-3.45-10.8-5.1-19.5l-1.5.7c.3 3.2.5 6.1.5 8.6q0 6.3-1.2 12.6l-5.6-.6.6-3-4.7-6.3c-3.7 2.6-8.6 5.5-14.5 8.6l-.4-1.2c6.7-4.9 12.4-10.5 17.3-16.7m2-47.8v-5.8h-4.3v5.8zm7.6 8.4v-5.4h-11.9v5.4zm-7.6 10.4v-7.4h-4.3v7.4zm.8 41.4q.45-3.6.3-7.2l-4.5 3.4zm34.2-66c-2.5 2.5-5.1 4.8-7.9 7l-.7-1c4.8-6.7 8.8-14.8 11.9-24.3l8.2 4.2c-2.3 3.5-5.1 7.1-8.5 11h3.9v24.8h-6.9zm-5.9 25.6h7v3h8v-3h6.6v36.7h-6.6v-4.5h-8v12.5h-7zm15 29.2v-23.2h-8v23.2zm7.4-59.1h-6.3v-3h6.8c.5-3.2 1-6.8 1.3-10.8l7.7 1.2q-.9 4.8-2.1 9.6h4.8v-3.1h6.3v18.9q0 3.9 2.7 3.9h3.1l3.2-21.2 1 .2-1.4 21h2.5v8.3h-10.1c-4.9 0-7.3-3.2-7.3-9.5v-15.5h-5.7c-2.9 9.7-7 18.8-12.5 27.3l-1.1-.5c3-8.5 5.4-17.4 7.1-26.8m3.6 63.1v-38.2h6.8v22.5c4.1-5.7 7.4-12.2 10.1-19.4l5.8 6.4c-4.9 5.9-10.2 11-15.9 15.2v9.9c0 2.5.4 4.4 1.2 5.5s2 1.7 3.6 1.7h8.7l3.4-26.6 1.3.2-1.6 26.4h2.6v8.8h-16.9c-6.1 0-9.1-4.2-9.1-12.4m43.6-4.7c.8-1 1.9-1.5 3.2-1.5s2.4.5 3.1 1.4 1 2.4 1 4.5c0 3-.6 5.9-1.9 8.6-1.2 2.7-2.8 5.1-4.6 7.1l-.8-.4c1.3-1.8 2.2-3.7 2.8-5.6s.9-3.8.9-5.5h-.5c-2.9 0-4.4-1.4-4.4-4.3.1-1.9.5-3.3 1.2-4.3m24 10.3 3.5-4.3v-36.5h5.8v7.7h7.9v3h-7.9v18.7l10-12.3v-18.6h5.8v7.2h7.3v3h-7.3v15l8.9-12.3.3.5-11.8 31.5-6.2-7.6 3-4.1V655l-13.1 29.1zm2.9-77.8h6v2.2h4.3c.7-2.3 1.3-4.9 1.7-7.9l6.6 2.7c-1.8 1.9-3.9 3.7-6.3 5.2h12.3v-2.2h6v35.1h-6v-3.3h-18.6v3.3h-6zm15.4 19.3c-2.9 3.1-6 5.9-9.4 8.5v1h18.6v-23.6H583l3.5 3.1c-1.5 2.6-3.2 5.2-5.2 7.8 1.9 1.7 3.8 3.7 5.6 5.8l-4.4 5.1c-1.4-3-2.7-5.6-4-7.7m-2.2-3.4c-1.9-2.6-3.8-4.9-5.8-6.9l.4-.7 6.9 4.8c1.1-2.1 2.2-4.7 3.5-7.9h-12.2v21c2.9-3.6 5.3-7.1 7.2-10.3m18.4 40c1.8-10.6 3-22.7 3.6-36.2H595v-3.1h3.4c.3-5.7.4-12.5.4-20.5h7.9c0 7.6-.2 14.4-.7 20.5h3.6v-3.5h7.1c0 23.6-1 47.7-3 72.2l-7.1-.6.8-11-5.3-28.7c-2.8 14.1-7.3 27.9-13.4 41.2l-1.1-.5c2.9-9.3 5.3-19.2 7.1-29.8m13.5 5.8c.9-14.4 1.3-28.4 1.4-42h-3.9c-.6 7.5-1.6 14.9-2.9 22.1zm47.1 19.4h-4.8v-4h-15.2v9h-6.2v-42.7l-3.8 2.9-.6-.5c3.8-4.6 6.6-9.5 8.5-14.8h-4.9v-3h6.3c-.3-2.4-.9-5.5-1.8-9.4l.6-.4c2.5 2.7 4.6 5.7 6.1 8.8l-2 1h2.6v-12l-8.3.7-.6 9.5-6.5-3.7c2.5-6.9 4.6-14.6 6.2-23.1l1.2.3.1 5.9h9c-.7-3.8-1.7-7.7-3.2-11.7l.9-.5q5.4 4.2 9 8.7l-4.5 3.5h11.5l.2-4.2 7.6 1.1-7.3 23-1.2-.3.2-4.4c-1.5 2.5-3.5 4.9-5.9 7.2h9.6v3h-7.9q5.25 4.8 10.5 7.8l-4 4.1v32.9c4.1-16.2 6.6-35.2 7.5-57.1H660v-3.1h4.3q.3-9.15.3-19.5h7.1q0 10.2-.6 19.5h3.5v-3.5h6.8c0 24.5-1 49.3-3 74.2l-6.8-.6.8-11.3-5-28.7c-2.8 14.4-7 28.1-12.5 41.1l-1.1-.5zm-15.2-50.1h-4.5l3.2 2.2c-2.9 3.7-5.7 6.7-8.3 9h4.8v3h15.2v-3h4.1c-2-3-4-6.7-5.9-11.2h-2.9v12.7h-5.7zm7.3-22.4h-15.3l-.2 6.9c5-1.7 10.1-4 15.5-6.9m-7.3 49.7v-10h-4.8v10zm0 15.7v-12.6h-4.8v12.6zm6.8-46c1.6-3.9 2.7-8 3.4-12.2l4.1 3.4.4-10.6h-4.1l3 5-7.9 1.6v12.8zm3.6 30.3v-10h-4.7v10zm0 15.7v-12.6h-4.7v12.6zm22.7-11.9c.9-15.1 1.3-29.6 1.4-43.4h-3.7c-.6 7.9-1.6 15.6-2.9 23.3zm26.2 4.4c.6-7.9 1-19.2 1.2-33.7l-4.7 49.1-5.5-2.8 9.2-49.2-4.8 5.8c-.7-5.8-2-11.5-4.1-17l.9-.8c3.5 3.2 6.3 6.4 8.4 9.7l.7-3.9.1-16.5-4.7 5c-.7-5.1-2.1-10.2-4.3-15.2l.9-.7c3.5 2.9 6.2 5.8 8.1 8.5v-6.7h5.7v2.3h4.7v-2.3h5.1v23.9h-1.6l3.4 2.1c-1.6 4.3-3.8 8.5-6.7 12.7h6.4v2H716v17.6h1.6v2H716v22.5c1.1-7.4 1.9-17 2.3-28.9s.7-29.8.7-53.9h5.7v2.3h4.7v-2.3h5.1v23.9h-1.6l2.8 1.7v-15.6h3.7v42.5h-3.7v-11.8h-1.5v17.6h1.3v2h-1.3v27.3h-4v-27.3h-2q-.75 8.4-2.4 15.3c-1.1 4.6-2.7 9.1-4.6 13.4l-.7-.5c1.1-4.2 2-8.5 2.6-12.8s1-9.5 1.3-15.4h-1.7v-2h1.8c.2-5 .3-10.9.3-17.6h-1.1c-.7 11.1-1.6 20.5-2.9 28.2s-2.9 14.8-4.9 21.3l-1.1-.4.8-4.6h-3.7v-24.9H710c-.5 5.7-1.4 10.9-2.5 15.5s-2.7 9-4.6 13.2l-.6-.5c1.1-4.2 2-8.5 2.6-12.8s1-9.5 1.3-15.4h-1.7v-2h1.8c.2-5 .3-10.9.3-17.6h-1.1c-.7 11.1-1.7 20.4-2.9 28.1-1.3 7.7-3 14.8-5 21.4l-1-.4c1.2-6.4 2.2-13.5 2.8-21.4m11.8-48h-4.9l-.1 3.6c2.3 3.3 4 6.4 5.2 9.4l-4 3.5c-.2-3.2-.6-6.6-1.3-10.3l-.5 12.1h5.2c1.5-5.5 2.4-10.4 2.7-14.8h-2.3zm0-2.7v-12.7h-4.7l-.2 12.7zm.7 40.6v-17.6h-1.1c0 6.4-.2 12.3-.6 17.6zm17.5-37.9h-4.9l-.1 3.6c2.1 2.9 3.9 6.1 5.2 9.4l-3.9 3.5c-.2-3.7-.7-7.4-1.4-11l-.5 12.8h5.2c1.4-4.9 2.3-9.9 2.7-14.8h-2.3zm0-2.7v-12.7h-4.7l-.2 12.7zm.8 40.6v-17.6H729c0 6.4-.2 12.3-.6 17.6zm5.5-19.6v-11.2c-1.5 3.7-3.6 7.5-6.1 11.2zm4.9 42-5-25.9.6-.3 4.4 15.6v-72.1h5.5v90h-5.5zm17.5-78.1h5.9v3h2.8v-3h5.5v68.4c.7-6.9 1.2-15.5 1.5-25.6s.5-23.6.5-40.3h6.5v2.4h10.7c-.8-4-2.1-8.3-4-12.8l.8-.6c3.9 3.1 7.3 6.7 10.2 10.7l-4.6 2.7h17.2v3h-30.3c-.1 14.6-.4 26.4-1 35.5-.6 9-1.7 16.8-3.1 23.3s-3.5 13.2-6.1 20l-.9-.3q1.65-7.8 2.4-15.3h-5.2v-3.2H764v12.6h-5.9zm8.7 64.8v-58.8H764v58.8zm32.7 15.3c-1.1-1.5-1.7-4-1.7-7.4v-34l-14.6 45-5.6-6.6 4.1-8.4v-48.3h5.1v37.9l1.6-3.2v-45.2h5.2v13.9h3.2v3h-3.2v17.7l4.2-8.6v-26h5.3v27c1.2-6.3 2.3-14.2 3.4-23.9l5.2 4.2c-2 7.2-4.9 14.9-8.6 23.2v29.4c0 2.9 1 4.3 2.9 4.3l3.8-41.5 1 .2-1.3 41.3h2.1v8.3h-7c-2.3 0-4-.8-5.1-2.3m25.9-50.3v-12.5h1.9l1.4-9.8H822v-3.1h7l1.2-10.7 6.9 1.2-1.9 9.5h9.1v3.1h-9.7l-3.1 13h6.6v-3.2l5.6-.2v41.9l.8 1.2c1.3-6.1 2.3-12.4 2.8-18.7l4.7 3c-1.6 5.5-4 11-7.1 16.3 3.1 4.9 5.9 10.1 8.5 15.7l-5.4 5.6c-1-7-2.4-13.8-4.3-20.5v21.8h-5.6v-5.6l-7.1-16.1v23.7h-5.6v-43.2l-3.4 10.5-.9-.3c1.3-6.1 2.7-13.6 4.3-22.6m12.7 5.7v-12H831v12zm0 15.7v-12.7H831v12.7zm0 19.4v-16.4H831v4.7zm7.3-34.4h16.3v3h-16.3zm20.7 24.4c-3.2 8.9-7.3 17.5-12.2 25.7l-.8-.7c3.3-8.2 5.9-14.9 7.7-20.1l-2.6 2.4c-.9-3.9-2.1-7.5-3.8-11l.4-.5.8.7c2.1-5.3 3.6-10.7 4.4-16.2l3.7 2.2c-1.1-9.3-2-20.8-2.8-34.5H846v-3h14.7l-.6-10.8 6-.7.7 11.5h4.8c-.9-3.9-1.9-7.1-3.1-9.6l.9-.7q4.35 3.15 7.2 6.6l-3.7 3.7h3.6v3H867q.75 13.05 1.8 24c1.1-7.6 1.9-14.3 2.4-20l5.9 3.6c-2.4 12.7-4.7 23-6.8 30.9 1.1 8.2 2.2 14.9 3.5 20.2l3.1-29.2.9.3-1.9 36.1 1.8 4.9-4.7 6.7q-4.2-9.9-6.9-25.5m-19-48.2h4.5v2h4.4v-2h4.1v19.4H856v-2.8h-4.4v4.8h-4.5zm1.9 45.6.4-.5.7.9c1.7-5.5 2.9-11.3 3.5-17.2l4.3 2.9c-1.5 4.7-3.9 9.6-7.3 14.9q3.75 5.25 7.2 11.4l-4 3.8q-1.8-8.55-4.8-16.2m7-31.7v-9.2h-4.4v9.2zm5.4 37.4c.9-3 2.1-6.9 3.4-11.7l-1-7.4c-1.7 4.4-4.3 8.8-7.7 13.1 1.4 1.3 3.1 3.3 5.3 6m44.5-3.5c-1.2-1.1-1.8-2.6-1.8-4.4 0-1.9.7-3.9 2.2-5.9 1.4-2 3.2-3.6 5.3-5s4.2-2.2 6.1-2.5c.3-.1.8-.1 1.3-.1.9 0 1.6.1 2.2.3l-6.4-48.3 3.7-.4c1.1 2.5 2.4 4.7 3.7 6.6s3.1 4.2 5.3 6.9c2.7 3.3 4.8 6.2 6 8.5s2 4.9 2 7.8c0 4.3-1.6 9.4-4.9 15.4l-1-.3c2.1-4.9 3.1-8.8 3.1-11.9q0-3.75-1.5-6c-1-1.5-2.7-3.4-5-5.6q-3.75-3.6-5.7-6l5.1 38.2v.1c.3 2.1-.4 4.3-1.9 6.5s-3.5 4.1-6 5.5c-2.5 1.5-4.8 2.2-7.1 2.2-1.9.1-3.5-.5-4.7-1.6m21.1 21.2q-2.1-1.8-2.1-4.5c0-2 .9-3.9 2.5-5.8 1.7-1.8 3.8-3.3 6.2-4.4s4.7-1.6 6.8-1.6c1.4 0 2.6.3 3.7.8l2.9-48.7 40.8-5-3 53.7v.4c-.1 1.9-1 3.8-2.7 5.5q-2.4 2.55-6 4.2c-2.4 1.1-4.7 1.6-6.9 1.6-2.3 0-4.2-.6-5.5-1.9-1.4-1.3-2-2.8-1.8-4.6.2-1.9 1.1-3.8 2.8-5.5q2.55-2.7 6-4.2c2.4-1.1 4.5-1.6 6.5-1.6q2.4 0 4.2.9l1.2-21.8-33.4 4.4-1.6 28.5c-.1 1.9-.9 3.8-2.5 5.5-1.6 1.8-3.5 3.2-5.8 4.3s-4.5 1.6-6.5 1.6c-2.5 0-4.4-.6-5.8-1.8m56.1-51.3.5-8.6-33.4 4.1-.5 8.6zm40.6-21.9 53.9 12.1-1.4 7-28.2-6.4v5.1h3.8l13.5 50.4h19.8v4.7H1008v-4.7h21l13.5-50.4h2.6v-5.7l-22.9-5.2-6.8 32.4h-5.6c-3.1-9.7-4.7-20.1-4.7-31 0-6.1 1-11.2 3-15.2s4.6-6.8 7.9-8.3l10.3 3zm-10.3 32.9 9.3-44-4-1c-2.5 1.9-4.5 4.8-5.8 8.6-1.4 3.8-2 7.9-2 12.1-.1 9 .7 17.1 2.5 24.3m0-14.3c-.3-.3-.4-.6-.4-.9s.1-.6.4-.8.6-.4 1-.4c.3 0 .5.1.8.4.2.2.4.5.4.8s-.1.6-.4.9c-.2.3-.5.4-.8.4-.4 0-.8-.2-1-.4m.7-4.7q-.3-.3-.3-.9c0-.3.1-.6.4-.8s.6-.4.9-.4.6.1.8.4c.2.2.4.5.4.8 0 .4-.1.7-.4.9-.2.2-.5.3-.8.3-.4 0-.7-.1-1-.3m.5-5.3q0-.45.3-.9c.2-.2.6-.3 1-.3.3 0 .5.1.8.3.2.2.4.5.4.9q0 .6-.3.9c-.2.2-.5.4-.8.4-1 0-1.4-.5-1.4-1.3m44.2 59.6-3.5-13h-19.2l-3.4 13zm-4.2-15.9-3-11.4h-11.7l-3 11.4zm-3.8-14.3-3.7-14.2h-2.7l-3.7 14.2zm24.2 14.2c-1.6 5.4-4 9.8-7.2 13l-7.1-25.6 16.7-6.1c0 7.1-.8 13.3-2.4 18.7m-6.1 5.8c1.1-1.9 2.1-4.3 2.9-7.2.8-3 1.2-5.8 1.3-8.5l-7.4 2.8zm-869.1 55.2 6.8-1.5 7.9 41.6 7.8-41.3 3.4.5-10.8 54.6h-3.6zm28.8 49.8c-1.9-3.2-2.9-8.1-2.9-14.6 0-6.1 1-10.8 3.1-13.9s4.7-4.7 8.1-4.7c3 0 5.4 1.4 7.3 4.2q2.7 4.2 2.7 13.2c0 7.6-1 12.9-2.9 16-2 3.1-4.5 4.6-7.5 4.6-3.3.1-5.9-1.6-7.9-4.8m11.9.5c.7-1.4 1.1-3.8 1.1-7.4 0-7.5-.4-13.5-1.3-17.8s-2.4-6.5-4.5-6.5c-1.7 0-2.9.7-3.6 2-.8 1.4-1.1 3.6-1.1 6.8 0 16.6 2.1 24.9 6.2 24.9 1.4.1 2.5-.6 3.2-2m15.7-33.5 5.6 29.8 6.4-29.6 3.3.4-10.8 45c-1.2 5.3-2.9 9.2-5 11.9l-6.1-4.9c2.5-1.1 4.7-2.9 6.5-5.2s3-5.1 3.7-8.3l.5-2h-2.4l-6.9-36zm24.4 1.4c1.5-1.1 3.3-1.7 5.3-1.7 2.2 0 4 .7 5.4 2s2 3.2 2 5.7v29.7h-5.5V770c-.7 1.7-1.7 3-2.9 4s-2.6 1.5-4.3 1.5-3.1-.6-4.1-1.7-1.5-3-1.5-5.5c0-2.7.5-5 1.5-7s2.3-3.6 3.8-4.7 3.2-1.7 4.9-1.7c.8 0 1.7.2 2.5.5V746c0-2.4-.2-4.2-.6-5.2s-1.1-1.6-2-1.6q-1.65 0-2.7 2.1c-.7 1.4-1.3 3.6-1.8 6.7l-4.3-3.7c1.4-2.4 2.8-4.1 4.3-5.3m2.3 33.7c1 0 1.9-.5 2.8-1.4.9-1 1.6-2.2 2.1-3.7v-8.9c-.9-1.4-2.1-2.1-3.4-2.1-1.2 0-2.3.8-3.1 2.4s-1.2 4-1.2 7.1c0 4.4 1 6.6 2.8 6.6m32.3-32.9q2.7 2.85 2.7 7.5c0 3.6-.8 6.5-2.4 8.5s-3.7 3.2-6.2 3.5l-1.7 4.4c4.5 1.8 7.7 4 9.7 6.6 1.9 2.6 2.9 5.3 2.9 8.3q0 4.65-1.8 8.4c-1.2 2.5-2.8 4.6-4.8 6.1s-4.2 2.3-6.6 2.3c-3 0-5.3-.8-6.8-2.3s-2.3-3.7-2.3-6.6c0-2.2.6-4.5 1.9-6.8s3.3-4.9 6.1-7.8l1.1.7c-1.4 1.9-2.4 3.7-3 5.6-.7 1.8-1 3.8-1 5.9 0 2.4.6 4.5 1.7 6.2q1.65 2.7 4.8 2.7c1.1 0 2.3-.5 3.4-1.4s2.1-2.2 2.8-3.9 1.1-3.6 1.1-5.7c0-3.2-1.2-5.8-3.6-8s-6.4-4-12-5.5l2-6.2 2.1.6 1.3-3.5c-2.3-.2-4.2-1.2-5.6-2.9-1.5-1.7-2.2-4-2.2-6.9 0-3.8 1-6.9 2.9-9 1.9-2.2 4.3-3.2 7.3-3.2 1.7 0 3.3.4 4.8 1.3.9-2.4 2-4.7 3.2-6.8l3.8 3.8c-2.2 1-4.1 2.4-5.6 4.1m-2.3 10.2c0-3.2-.5-5.8-1.4-7.8-1-2.1-2.2-3.1-3.8-3.1q-1.8 0-2.7 2.1t-.9 6c0 3 .4 5.5 1.2 7.4s2.1 2.8 3.7 2.8c2.6 0 3.9-2.4 3.9-7.4m12.6 22.2c-1.7-2.2-2.5-6.3-2.5-12.2 0-4.8.5-8.9 1.4-12.2.9-3.4 2.2-5.9 3.7-7.7 1.6-1.7 3.3-2.6 5.1-2.6 2.4 0 4.5 1.4 6.1 4.2s2.5 6.9 2.5 12.2h-13.2c-.1 2.3-.2 4.1-.2 5.5 0 4.5.5 7.9 1.4 10.2s2.2 3.4 3.8 3.4c3.1 0 5.5-1.7 7-5.2l1.1.5c-2 5-5.3 7.5-9.7 7.5-2.6-.3-4.8-1.4-6.5-3.6m11.6-20.6c-.1-3.8-.4-6.8-1-9-.6-2.1-1.4-3.2-2.5-3.2s-2.1 1.1-2.9 3.2c-.8 2.2-1.5 5.1-1.9 8.9h8.3zm20.7 20.5c.8-.8 1.2-2 1.2-3.5 0-2.5-1.3-5.6-4-9.2l-4.7-6.5q-1.2-1.8-2.1-4.2c-.5-1.5-.8-2.9-.8-4.1 0-2.1.7-3.9 2.2-5.2s3.3-2 5.5-2c1.3 0 2.7.2 4.1.7q2.1.75 3.9 2.1l-3.6 5.3c-.5-2-1.2-3.5-2.1-4.6s-1.9-1.6-3.1-1.6c-1 0-1.8.3-2.3.9-.6.6-.9 1.4-.9 2.3 0 1.1.3 2.4 1 3.8.6 1.4 1.5 2.8 2.5 4.2l4.8 6.6c1.4 1.8 2.3 3.5 2.9 5s.9 3 .9 4.6c0 2.8-.8 4.9-2.5 6.5s-3.7 2.3-6 2.3c-3.8 0-7.1-2.3-10-6.8l3.9-5.1c1.3 6.4 3.4 9.7 6.4 9.7 1.1 0 2-.4 2.8-1.2m23.2-51.9h19.7v2.2H387v21.8h12.3v2.2H387v26.3h14.5v2.2H381zm26.7 17 5.8 14.7 5.2-14.4 3.4.9-7 17.4 7 17.9-4.1 1.7-5.8-14.6-5.2 14.3-3.4-.9 7.1-17.3-7.1-18zm19.5 3.1h-3.3v-2.2h3.3v-11h5.5v11h5.9v2.2h-5.9v24.1c0 3 .2 5.1.6 6.5s1.1 2 2.1 2c1.1 0 2.4-1 3.7-3.1l.9 1c-.8 1.6-1.7 2.7-2.6 3.5s-2 1.2-3.2 1.2c-2.1 0-3.8-.8-5.1-2.5s-1.9-4.1-1.9-7.4zm21.7-2.2v5.9c1.4-4.4 3.3-6.6 5.8-6.6 1.1 0 2.1.3 2.9.9l-1.8 5.7c-.4-.8-.8-1.4-1.3-1.8s-1.1-.6-1.6-.6q-2.25 0-3.9 5.1v28.1h-5.5v-36.7zm15.3.9c1.5-1.1 3.3-1.7 5.3-1.7 2.2 0 4 .7 5.4 2s2 3.2 2 5.7v29.7h-5.5V770c-.7 1.7-1.7 3-2.9 4s-2.6 1.5-4.3 1.5-3.1-.6-4.1-1.7-1.5-3-1.5-5.5c0-2.7.5-5 1.5-7s2.3-3.6 3.8-4.7 3.2-1.7 4.9-1.7c.8 0 1.7.2 2.5.5V746c0-2.4-.2-4.2-.6-5.2s-1.1-1.6-2-1.6q-1.65 0-2.7 2.1c-.7 1.4-1.3 3.6-1.8 6.7l-4.3-3.7c1.4-2.4 2.7-4.1 4.3-5.3m2.3 33.7c1 0 1.9-.5 2.8-1.4.9-1 1.6-2.2 2.1-3.7v-8.9c-.9-1.4-2.1-2.1-3.4-2.1-1.2 0-2.3.8-3.1 2.4s-1.2 4-1.2 7.1c-.1 4.4.9 6.6 2.8 6.6m19.2-2.1c-1.9-3.2-2.9-8.1-2.9-14.6 0-6.1 1-10.8 3.1-13.9s4.7-4.7 8.1-4.7c3 0 5.4 1.4 7.3 4.2q2.7 4.2 2.7 13.2c0 7.6-1 12.9-2.9 16-2 3.1-4.5 4.6-7.5 4.6-3.4.1-6-1.6-7.9-4.8m11.9.5c.7-1.4 1.1-3.8 1.1-7.4 0-7.5-.4-13.5-1.3-17.8s-2.4-6.5-4.5-6.5c-1.7 0-2.9.7-3.6 2-.8 1.4-1.1 3.6-1.1 6.8 0 16.6 2.1 24.9 6.2 24.9 1.4.1 2.4-.6 3.2-2m18.2-33v5.9c1.4-4.4 3.3-6.6 5.8-6.6 1.1 0 2.1.3 2.9.9l-1.8 5.7c-.4-.8-.8-1.4-1.3-1.8s-1.1-.6-1.6-.6q-2.25 0-3.9 5.1v28.1h-5.5v-36.7zm25.1 36.7v-5.1c-.7 1.7-1.6 3.1-2.9 4.2-1.2 1.1-2.7 1.6-4.4 1.6-2.3 0-4.1-1.1-5.3-3.2-1.3-2.2-1.9-5.8-1.9-10.9 0-5.4.5-9.8 1.6-13.5 1.1-3.6 2.5-6.3 4.3-8 1.7-1.7 3.6-2.6 5.6-2.6 1 0 2 .2 3.1.7v-21.4h5.5v58.1h-5.6zm-5.4-1.4c1 0 2-.7 3-2q1.5-2.1 2.4-4.5v-25c-.5-.9-1.1-1.6-1.7-2.1-.6-.4-1.4-.7-2.2-.7-1.2 0-2.2.5-3 1.6-.7 1.1-1.3 3.2-1.7 6.3s-.6 7.7-.6 13.6c0 8.5 1.2 12.8 3.8 12.8m18.6-44.2c-.5-.5-.8-1.3-.8-2.4 0-1.4.3-2.5.8-3.2s1.3-1.1 2.4-1.1q3 0 3 3c0 2.9-1 4.4-3.1 4.4-1 .2-1.8-.1-2.3-.7m5.1 8.9v36.7h-5.5v-36.7zm20.1 3.8c-.5-1.6-1.3-2.4-2.3-2.4s-1.9.7-2.8 2-1.6 2.8-2.1 4.4v28.9h-5.5v-36.7h5.5v4.8c.6-1.7 1.5-3 2.7-4s2.6-1.5 4.3-1.5c4.3 0 6.5 3.7 6.5 11.2v26.3h-5.5v-26.1c0-3.1-.3-5.3-.8-6.9M597 739c1.5-1.1 3.3-1.7 5.3-1.7 2.2 0 4 .7 5.4 2s2 3.2 2 5.7v29.7h-5.5V770c-.7 1.7-1.7 3-2.9 4s-2.6 1.5-4.3 1.5-3.1-.6-4.1-1.7-1.5-3-1.5-5.5c0-2.7.5-5 1.5-7s2.3-3.6 3.8-4.7 3.2-1.7 4.9-1.7c.8 0 1.7.2 2.5.5V746c0-2.4-.2-4.2-.6-5.2s-1.1-1.6-2-1.6q-1.65 0-2.7 2.1c-.7 1.4-1.3 3.6-1.8 6.7l-4.3-3.7c1.4-2.4 2.8-4.1 4.3-5.3m2.3 33.7c1 0 1.9-.5 2.8-1.4.9-1 1.6-2.2 2.1-3.7v-8.9c-.9-1.4-2.1-2.1-3.4-2.1-1.2 0-2.3.8-3.1 2.4s-1.2 4-1.2 7.1c0 4.4.9 6.6 2.8 6.6m17.9-43.5c-.5-.5-.8-1.3-.8-2.4 0-1.4.3-2.5.8-3.2s1.3-1.1 2.4-1.1q3 0 3 3c0 2.9-1 4.4-3.1 4.4-1 .2-1.8-.1-2.3-.7m5.1 8.9v36.7h-5.5v-36.7zm12.9 0v5.9c1.4-4.4 3.3-6.6 5.8-6.6 1.1 0 2.1.3 2.9.9L642 744c-.4-.8-.8-1.4-1.3-1.8s-1.1-.6-1.6-.6q-2.25 0-3.9 5.1v28.1h-5.5v-36.7zm13 34.1c-1.7-2.2-2.5-6.3-2.5-12.2 0-4.8.5-8.9 1.4-12.2.9-3.4 2.2-5.9 3.7-7.7 1.6-1.7 3.3-2.6 5.1-2.6 2.4 0 4.5 1.4 6.1 4.2s2.5 6.9 2.5 12.2h-13.2c-.1 2.3-.2 4.1-.2 5.5 0 4.5.5 7.9 1.4 10.2s2.2 3.4 3.8 3.4c3.1 0 5.5-1.7 7-5.2l1.1.5c-2 5-5.3 7.5-9.7 7.5-2.6-.3-4.8-1.4-6.5-3.6m11.6-20.6c-.1-3.8-.4-6.8-1-9-.6-2.1-1.4-3.2-2.5-3.2s-2.1 1.1-2.9 3.2c-.8 2.2-1.5 5.1-1.9 8.9h8.3zm20.7 20.5c.8-.8 1.2-2 1.2-3.5 0-2.5-1.3-5.6-4-9.2l-4.7-6.5q-1.2-1.8-2.1-4.2c-.5-1.5-.8-2.9-.8-4.1 0-2.1.7-3.9 2.2-5.2s3.3-2 5.5-2c1.3 0 2.7.2 4.1.7q2.1.75 3.9 2.1l-3.6 5.3c-.5-2-1.2-3.5-2.1-4.6s-1.9-1.6-3.1-1.6c-1 0-1.8.3-2.3.9-.6.6-.9 1.4-.9 2.3 0 1.1.3 2.4 1 3.8.6 1.4 1.5 2.8 2.5 4.2l4.8 6.6c1.4 1.8 2.3 3.5 2.9 5s.9 3 .9 4.6c0 2.8-.8 4.9-2.5 6.5s-3.7 2.3-6 2.3c-3.8 0-7.1-2.3-10-6.8l3.9-5.1c1.3 6.4 3.4 9.7 6.4 9.7 1.1 0 2-.4 2.8-1.2m-464.2 67.2 3.1-22.5h5.5l-6.6 47.6c-.3 2.2-.5 4-.5 5.1 0 1.3.3 1.9.9 1.9q.45 0 1.2-.6c.5-.4 1.1-1 1.6-1.9l.7.5c-2.1 4-4.2 5.9-6.3 5.9-2.4 0-3.6-2-3.6-5.9 0-.5.1-1.3.2-2.4-1.1 2.5-2.3 4.5-3.7 6s-2.9 2.3-4.5 2.3c-3 0-4.4-2.7-4.4-8 0-1.1 0-1.9.1-2.5.3-4 1-8.1 2.1-12.4 1.1-4.2 2.6-7.8 4.4-10.8 1.8-2.9 4-4.4 6.4-4.4 1.3.2 2.5.8 3.4 2.1m-9.3 32.5q1.2 0 3-2.7c1.2-1.8 2.2-3.8 3.1-6.1l3.1-22.3c-.6-1-1.4-1.5-2.2-1.5-1.6 0-3 1.8-4.3 5.3s-2.3 7.6-3.1 12.2-1.2 8.3-1.2 11 .5 4.1 1.6 4.1m34.4-32.4.2-1.3h5.5l-3.7 26.3c-.3 2.2-.5 4-.5 5.1 0 1.3.3 1.9.9 1.9q.45 0 1.2-.6c.5-.4 1.1-1 1.6-1.9l.7.5c-2.1 4-4.2 5.9-6.3 5.9-2.4 0-3.6-2-3.6-5.9 0-.5.1-1.3.2-2.4-1.1 2.5-2.3 4.5-3.7 6s-2.9 2.3-4.5 2.3c-3 0-4.4-2.7-4.4-8 0-1.1 0-1.9.1-2.5.3-4 1-8.1 2.1-12.4 1.1-4.2 2.6-7.8 4.4-10.8 1.8-2.9 4-4.4 6.4-4.4 1.2.2 2.4.9 3.4 2.2m-9.5 32.4q1.2 0 3-2.7c1.2-1.8 2.2-3.8 3.1-6.1l3.1-22.2c-.6-1-1.4-1.6-2.2-1.6-1.6 0-3 1.8-4.3 5.3s-2.3 7.6-3.1 12.2-1.2 8.3-1.2 11c.1 2.7.6 4.1 1.6 4.1m27.9-33.7-.7 4.8c.8-1.7 1.8-3 3-4q1.8-1.5 4.2-1.5c3.5 0 5.2 2.4 5.2 7.2q0 1.95-.3 3.9l-2.2 15.9c-.4 2.7-.5 4.4-.5 5.2 0 1.2.3 1.9.9 1.9.4 0 .8-.2 1.3-.6s1.1-1 1.6-1.9l.6.5c-2.1 4-4.2 5.9-6.2 5.9-2.4 0-3.7-2-3.7-6.1 0-1.2.1-2.5.3-3.8l2.3-16.9c.3-1.9.4-3.4.4-4.4 0-3.1-.7-4.6-2.1-4.6-.9 0-1.8.7-2.8 2s-1.8 2.8-2.4 4.4l-4.1 28.9h-5.5l5.1-36.7h5.6zm22.7 33.1c.8-1.4 1.1-2.9 1.1-4.6 0-1-.2-2.2-.5-3.4s-.8-2.7-1.4-4.4l-2.5-6.7c-1.1-2.8-1.7-5.2-1.7-7.3 0-1.1.3-2.3.9-3.4s1.6-2.1 2.8-2.8c1.2-.8 2.7-1.1 4.4-1.1 2.2 0 4.1 1 5.6 2.9l-2.7 3.8q-.3-2.55-1.2-3.6c-.6-.8-1.3-1.1-2.1-1.1-1.7 0-2.6 1.2-2.6 3.6q0 3 1.8 7.5l2.7 6.6c1.4 3.2 2 5.8 2 8 0 2.1-.5 3.9-1.4 5.5s-2.1 2.8-3.5 3.7c-1.5.9-3 1.3-4.6 1.3-3.1 0-5.4-2.3-6.9-6.8l3.7-3.6c0 2.9.3 4.9.8 6.2s1.2 1.9 2.1 1.9c1.4-.1 2.4-.8 3.2-2.2m25.4-1.7c0 1.3.3 1.9.9 1.9.4 0 .8-.2 1.3-.6s1.1-1 1.6-1.9l.6.5c-2.1 4-4.2 5.9-6.3 5.9-2.4 0-3.6-2-3.6-6.1 0-1.2.1-2.5.3-3.8l6.8-48.8h5.5l-6.7 47.6c-.3 2.4-.4 4.1-.4 5.3m9.2-17.1c1.1-4.2 2.6-7.7 4.7-10.6s4.5-4.4 7.4-4.4c1.5 0 2.8.5 3.7 1.4q1.5 1.5 1.5 3.9c0 2.7-1.3 5.6-3.8 8.7-2.5 3.2-5.6 5.9-9.3 8.2-.2 1.9-.3 3.5-.3 5 0 5.5 1.2 8.2 3.7 8.2 1.1 0 2.2-.5 3.3-1.4s2-2.2 2.9-3.9l.9.5c-1.2 2.4-2.5 4.3-3.9 5.5s-3 1.9-4.9 1.9c-2.3 0-4.1-1-5.5-2.9-1.4-2-2.1-4.8-2.1-8.6.1-3.5.7-7.4 1.7-11.5m14.2-11.6c-.5-.5-1.1-.8-1.8-.8q-2.85 0-4.8 5.1c-1.3 3.4-2.3 7.3-3 11.9 2.9-2 5.4-4.3 7.3-6.9 2-2.6 3-5 3-7.1.1-.9-.2-1.7-.7-2.2m11.8 30.4c.8-1.4 1.1-2.9 1.1-4.6 0-1-.2-2.2-.5-3.4s-.8-2.7-1.4-4.4l-2.5-6.7c-1.1-2.8-1.7-5.2-1.7-7.3 0-1.1.3-2.3.9-3.4s1.6-2.1 2.8-2.8c1.2-.8 2.7-1.1 4.4-1.1 2.2 0 4.1 1 5.6 2.9l-2.7 3.8q-.3-2.55-1.2-3.6c-.6-.8-1.3-1.1-2.1-1.1-1.7 0-2.6 1.2-2.6 3.6q0 3 1.8 7.5l2.7 6.6c1.4 3.2 2 5.8 2 8 0 2.1-.5 3.9-1.4 5.5s-2.1 2.8-3.5 3.7c-1.5.9-3 1.3-4.6 1.3-3.1 0-5.4-2.3-6.9-6.8l3.7-3.6c0 2.9.3 4.9.8 6.2s1.2 1.9 2.1 1.9c1.4-.1 2.4-.8 3.2-2.2m55.1 4.2-1.9-41.5-13.4 40.9h-3.6l-1.9-40.7-13.5 41-3.4-.5 16.5-48.8-.2-5.4 5.9-1.1 2.7 38.6 10.7-32.1-.2-5.5 5.8-1.1 3.8 54.6zm13.4-3.1c-1.2-2.1-1.8-5.2-1.8-9.4 0-3.8.4-7.7 1.3-11.6s2.3-7.2 4.3-9.9c1.9-2.7 4.4-4 7.4-4 4.8 0 7.3 3.8 7.3 11.3 0 4.1-.5 8.2-1.4 12.3-1 4.1-2.4 7.5-4.4 10.3s-4.5 4.1-7.6 4.1c-2.2.1-3.9-1-5.1-3.1m9.9-3.9c1-3.3 1.8-7.1 2.3-11.3s.7-7.5.7-10c0-5.3-.9-7.9-2.6-7.9-1.6 0-2.9 1.7-3.9 5-1.1 3.3-1.8 7.1-2.3 11.3s-.7 7.6-.7 10.1c0 5.1.9 7.7 2.6 7.7 1.6.1 2.9-1.5 3.9-4.9m20.6-30.3-.7 4.8c.8-1.7 1.8-3 3-4q1.8-1.5 4.2-1.5c3.5 0 5.2 2.4 5.2 7.2q0 1.95-.3 3.9l-2.2 15.9c-.4 2.7-.5 4.4-.5 5.2 0 1.2.3 1.9.9 1.9.4 0 .8-.2 1.3-.6s1.1-1 1.6-1.9l.6.5c-2.1 4-4.2 5.9-6.2 5.9-2.4 0-3.7-2-3.7-6.1 0-1.2.1-2.5.3-3.8l2.3-16.9c.3-1.9.4-3.4.4-4.4 0-3.1-.7-4.6-2.1-4.6-.9 0-1.8.7-2.8 2s-1.8 2.8-2.4 4.4l-4.1 28.9h-5.5l5.1-36.7h5.6zm31.2 1.2 3.1-22.5h5.5l-6.6 47.6c-.3 2.2-.5 4-.5 5.1 0 1.3.3 1.9.9 1.9q.45 0 1.2-.6c.5-.4 1.1-1 1.6-1.9l.7.5c-2.1 4-4.2 5.9-6.3 5.9-2.4 0-3.6-2-3.6-5.9 0-.5.1-1.3.2-2.4-1.1 2.5-2.3 4.5-3.7 6s-2.9 2.3-4.5 2.3c-3 0-4.4-2.7-4.4-8 0-1.1 0-1.9.1-2.5.3-4 1-8.1 2.1-12.4 1.1-4.2 2.6-7.8 4.4-10.8 1.8-2.9 4-4.4 6.4-4.4 1.3.2 2.5.8 3.4 2.1m-9.3 32.5q1.2 0 3-2.7c1.2-1.8 2.2-3.8 3.1-6.1l3.1-22.3c-.6-1-1.4-1.5-2.2-1.5-1.6 0-3 1.8-4.3 5.3s-2.3 7.6-3.1 12.2-1.2 8.3-1.2 11 .5 4.1 1.6 4.1m19.9-19.4c1.1-4.2 2.6-7.7 4.7-10.6s4.5-4.4 7.4-4.4c1.5 0 2.8.5 3.7 1.4q1.5 1.5 1.5 3.9c0 2.7-1.3 5.6-3.8 8.7-2.5 3.2-5.6 5.9-9.3 8.2-.2 1.9-.3 3.5-.3 5 0 5.5 1.2 8.2 3.7 8.2 1.1 0 2.2-.5 3.3-1.4s2-2.2 2.9-3.9l.9.5c-1.2 2.4-2.5 4.3-3.9 5.5s-3 1.9-4.9 1.9c-2.3 0-4.1-1-5.5-2.9-1.4-2-2.1-4.8-2.1-8.6.1-3.5.6-7.4 1.7-11.5m14.1-11.6c-.5-.5-1.1-.8-1.8-.8q-2.85 0-4.8 5.1c-1.3 3.4-2.3 7.3-3 11.9 2.9-2 5.4-4.3 7.3-6.9 2-2.6 3-5 3-7.1.1-.9-.1-1.7-.7-2.2m11.9 30.4c.8-1.4 1.1-2.9 1.1-4.6 0-1-.2-2.2-.5-3.4s-.8-2.7-1.4-4.4l-2.5-6.7c-1.1-2.8-1.7-5.2-1.7-7.3 0-1.1.3-2.3.9-3.4s1.6-2.1 2.8-2.8c1.2-.8 2.7-1.1 4.4-1.1 2.2 0 4.1 1 5.6 2.9l-2.7 3.8q-.3-2.55-1.2-3.6c-.6-.8-1.3-1.1-2.1-1.1-1.7 0-2.6 1.2-2.6 3.6q0 3 1.8 7.5l2.7 6.6c1.4 3.2 2 5.8 2 8 0 2.1-.5 3.9-1.4 5.5s-2.1 2.8-3.5 3.7c-1.5.9-3 1.3-4.6 1.3-3.1 0-5.4-2.3-6.9-6.8l3.7-3.6c0 2.9.3 4.9.8 6.2s1.2 1.9 2.1 1.9c1.4-.1 2.4-.8 3.2-2.2m39.5 1.4c-2.2 1.9-4.5 2.9-6.9 2.9-3.1 0-5.5-1.5-7.2-4.6-1.7-3-2.6-7.6-2.6-13.8 0-5.7.7-11.4 2-17.3 1.4-5.8 3.5-10.8 6.5-14.8q4.5-6 11.4-6c3.4 0 6.2 1.4 8.3 4.1l-3.9 5.8c-.3-2.7-.9-4.7-1.9-6s-2.1-2-3.5-2c-2.9 0-5.2 2.4-7.1 7.3s-3.2 10.4-4.1 16.6c-.8 6.2-1.2 11.4-1.2 15.5 0 8.3 1.7 12.5 5.1 12.5 1.6 0 3.3-.8 5-2.3s3.4-3.9 5-7.1l.9.4c-1.6 3.9-3.6 6.8-5.8 8.8m11.7-.3c-1.2-2.1-1.8-5.2-1.8-9.4 0-3.8.4-7.7 1.3-11.6s2.3-7.2 4.3-9.9c1.9-2.7 4.4-4 7.4-4 4.8 0 7.3 3.8 7.3 11.3 0 4.1-.5 8.2-1.4 12.3-1 4.1-2.4 7.5-4.4 10.3s-4.5 4.1-7.6 4.1c-2.2.1-3.9-1-5.1-3.1m10-3.9c1-3.3 1.8-7.1 2.3-11.3s.7-7.5.7-10c0-5.3-.9-7.9-2.6-7.9-1.6 0-2.9 1.7-3.9 5-1.1 3.3-1.8 7.1-2.3 11.3s-.7 7.6-.7 10.1c0 5.1.9 7.7 2.6 7.7 1.5.1 2.8-1.5 3.9-4.9m20.5-30.3-.7 4.8c.8-1.7 1.8-3 3-4q1.8-1.5 4.2-1.5c3.5 0 5.2 2.4 5.2 7.2q0 1.95-.3 3.9l-2.2 15.9c-.4 2.7-.5 4.4-.5 5.2 0 1.2.3 1.9.9 1.9.4 0 .8-.2 1.3-.6s1.1-1 1.6-1.9l.6.5c-2.1 4-4.2 5.9-6.2 5.9-2.4 0-3.7-2-3.7-6.1 0-1.2.1-2.5.3-3.8l2.3-16.9c.3-1.9.4-3.4.4-4.4 0-3.1-.7-4.6-2.1-4.6-.9 0-1.8.7-2.8 2s-1.8 2.8-2.4 4.4l-4.1 28.9H581l5.1-36.7h5.5zm24.8 0-.7 4.8c.8-1.7 1.8-3 3-4q1.8-1.5 4.2-1.5c3.5 0 5.2 2.4 5.2 7.2q0 1.95-.3 3.9l-2.2 15.9c-.4 2.7-.5 4.4-.5 5.2 0 1.2.3 1.9.9 1.9.4 0 .8-.2 1.3-.6s1.1-1 1.6-1.9l.6.5c-2.1 4-4.2 5.9-6.2 5.9-2.4 0-3.7-2-3.7-6.1 0-1.2.1-2.5.3-3.8l2.3-16.9c.3-1.9.4-3.4.4-4.4 0-3.1-.7-4.6-2.1-4.6-.9 0-1.8.7-2.8 2s-1.8 2.8-2.4 4.4l-4.1 28.9h-5.5l5.1-36.7h5.6zm20.9 29.9c0 1.2.1 2.1.4 2.8s.6 1 1.1 1c.7 0 1.7-.9 2.8-2.7s2.1-3.7 3-5.9l3.5-25.1h5.5l-3.7 26.3c-.3 2.2-.5 4-.5 5.1 0 1.3.3 1.9.9 1.9q.45 0 1.2-.6c.5-.4 1.1-1 1.6-1.9l.7.5c-2.1 4-4.2 5.9-6.3 5.9q-3.6 0-3.6-6c0-.9 0-1.6.1-2.1-1 2.4-2.2 4.3-3.6 5.9-1.4 1.5-2.9 2.3-4.4 2.3-1.3 0-2.3-.6-3.1-1.7s-1.1-2.9-1.1-5.3c0-1 .1-2.2.2-3.5l3.7-26.8h5.5l-3.9 27.8zm26.9 3.2c.8-1.4 1.1-2.9 1.1-4.6 0-1-.2-2.2-.5-3.4s-.8-2.7-1.4-4.4l-2.5-6.7c-1.1-2.8-1.7-5.2-1.7-7.3 0-1.1.3-2.3.9-3.4s1.6-2.1 2.8-2.8c1.2-.8 2.7-1.1 4.4-1.1 2.2 0 4.1 1 5.6 2.9l-2.7 3.8q-.3-2.55-1.2-3.6c-.6-.8-1.3-1.1-2.1-1.1-1.7 0-2.6 1.2-2.6 3.6q0 3 1.8 7.5l2.7 6.6c1.4 3.2 2 5.8 2 8 0 2.1-.5 3.9-1.4 5.5s-2.1 2.8-3.5 3.7c-1.5.9-3 1.3-4.6 1.3-3.1 0-5.4-2.3-6.9-6.8l3.7-3.6c0 2.9.3 4.9.8 6.2s1.2 1.9 2.1 1.9c1.5-.1 2.5-.8 3.2-2.2m21.8-18.8c1.1-4.2 2.6-7.7 4.7-10.6s4.5-4.4 7.4-4.4c1.5 0 2.8.5 3.7 1.4q1.5 1.5 1.5 3.9c0 2.7-1.3 5.6-3.8 8.7-2.5 3.2-5.6 5.9-9.3 8.2-.2 1.9-.3 3.5-.3 5 0 5.5 1.2 8.2 3.7 8.2 1.1 0 2.2-.5 3.3-1.4s2-2.2 2.9-3.9l.9.5c-1.2 2.4-2.5 4.3-3.9 5.5s-3 1.9-4.9 1.9c-2.3 0-4.1-1-5.5-2.9-1.4-2-2.1-4.8-2.1-8.6.1-3.5.6-7.4 1.7-11.5m14.1-11.6c-.5-.5-1.1-.8-1.8-.8q-2.85 0-4.8 5.1c-1.3 3.4-2.3 7.3-3 11.9 2.9-2 5.4-4.3 7.3-6.9 2-2.6 3-5 3-7.1.1-.9-.1-1.7-.7-2.2m14.2-.5-3.4 24.1c-.4 2.7-.5 4.4-.5 5.2 0 1.2.3 1.9.9 1.9.4 0 .8-.2 1.3-.6s1.1-1 1.6-1.9l.6.5c-2.1 4-4.2 5.9-6.2 5.9-2.4 0-3.7-2-3.7-6.1 0-1.2.1-2.5.3-3.8l3.5-25.3h-3.3l.3-2.2h3.3l1.5-11h5.5l-1.5 11h5.1l-.3 2.2h-5zm23.2-20.5h5.9l-7.6 55h-5.9zm16.1 18.3-.7 4.8c.8-1.7 1.8-3 3-4q1.8-1.5 4.2-1.5c3.5 0 5.2 2.4 5.2 7.2q0 1.95-.3 3.9l-2.2 15.9c-.4 2.7-.5 4.4-.5 5.2 0 1.2.3 1.9.9 1.9.4 0 .8-.2 1.3-.6s1.1-1 1.6-1.9l.6.5c-2.1 4-4.2 5.9-6.2 5.9-2.4 0-3.7-2-3.7-6.1 0-1.2.1-2.5.3-3.8l2.3-16.9c.3-1.9.4-3.4.4-4.4 0-3.1-.7-4.6-2.1-4.6-.9 0-1.8.7-2.8 2s-1.8 2.8-2.4 4.4l-4.1 28.9H743l5.1-36.7h5.5zm27.9 32.7c1.2-.9 2.2-2.3 3.2-4l.8.8c-1.2 2.3-2.6 4.2-4.3 5.7-1.6 1.5-3.4 2.2-5.3 2.2-2.2 0-3.9-.9-5.2-2.8-1.3-1.8-1.9-4.6-1.9-8.3 0-3.9.6-8 1.7-12.2s2.8-7.7 4.9-10.6c2.2-2.8 4.7-4.3 7.7-4.3 1.4 0 2.5.4 3.5 1.1s1.9 1.9 2.7 3.5l-4 4.3c-.1-2.5-.3-4.3-.8-5.3-.5-1.1-1.1-1.6-2-1.6-1.6 0-3 1.5-4.2 4.6s-2.2 6.7-2.8 10.8-1 7.6-1 10.4c0 4.7 1.2 7 3.6 7 1.1.1 2.2-.4 3.4-1.3m8.2 1.5c-1.2-2.1-1.8-5.2-1.8-9.4 0-3.8.4-7.7 1.3-11.6s2.3-7.2 4.3-9.9 4.4-4 7.4-4c4.8 0 7.3 3.8 7.3 11.3 0 4.1-.5 8.2-1.4 12.3-1 4.1-2.4 7.5-4.4 10.3s-4.5 4.1-7.6 4.1c-2.3.1-3.9-1-5.1-3.1m9.9-3.9c1-3.3 1.8-7.1 2.3-11.3s.7-7.5.7-10c0-5.3-.9-7.9-2.6-7.9-1.6 0-2.9 1.7-3.9 5-1.1 3.3-1.8 7.1-2.3 11.3s-.7 7.6-.7 10.1c0 5.1.9 7.7 2.6 7.7 1.5.1 2.8-1.5 3.9-4.9m20.6-30.3-.7 4.8c.8-1.7 1.8-3 3-4q1.8-1.5 4.2-1.5c3.5 0 5.2 2.4 5.2 7.2q0 1.95-.3 3.9l-2.2 15.9c-.4 2.7-.5 4.4-.5 5.2 0 1.2.3 1.9.9 1.9.4 0 .8-.2 1.3-.6s1.1-1 1.6-1.9l.6.5c-2.1 4-4.2 5.9-6.2 5.9-2.4 0-3.7-2-3.7-6.1 0-1.2.1-2.5.3-3.8l2.3-16.9c.3-1.9.4-3.4.4-4.4 0-3.1-.7-4.6-2.1-4.6-.9 0-1.8.7-2.8 2s-1.8 2.8-2.4 4.4l-4.1 28.9h-5.5l5.1-36.7h5.6zm24.8 0-.7 4.8c.8-1.7 1.8-3 3-4q1.8-1.5 4.2-1.5c3.5 0 5.2 2.4 5.2 7.2q0 1.95-.3 3.9l-2.2 15.9c-.4 2.7-.5 4.4-.5 5.2 0 1.2.3 1.9.9 1.9.4 0 .8-.2 1.3-.6s1.1-1 1.6-1.9l.6.5c-2.1 4-4.2 5.9-6.2 5.9-2.4 0-3.7-2-3.7-6.1 0-1.2.1-2.5.3-3.8l2.3-16.9c.3-1.9.4-3.4.4-4.4 0-3.1-.7-4.6-2.1-4.6-.9 0-1.8.7-2.8 2s-1.8 2.8-2.4 4.4l-4.1 28.9h-5.5l5.1-36.7h5.6zm20.8 29.9c0 1.2.1 2.1.4 2.8s.6 1 1.1 1c.7 0 1.7-.9 2.8-2.7s2.1-3.7 3-5.9l3.5-25.1h5.5l-3.7 26.3c-.3 2.2-.5 4-.5 5.1 0 1.3.3 1.9.9 1.9q.45 0 1.2-.6c.5-.4 1.1-1 1.6-1.9l.7.5c-2.1 4-4.2 5.9-6.3 5.9q-3.6 0-3.6-6c0-.9 0-1.6.1-2.1-1 2.4-2.2 4.3-3.6 5.9-1.4 1.5-2.9 2.3-4.4 2.3-1.3 0-2.3-.6-3.1-1.7s-1.1-2.9-1.1-5.3c0-1 .1-2.2.2-3.5l3.7-26.8h5.5l-3.9 27.8c.1 1 0 1.7 0 2.1m27 3.2c.8-1.4 1.1-2.9 1.1-4.6 0-1-.2-2.2-.5-3.4s-.8-2.7-1.4-4.4l-2.5-6.7c-1.1-2.8-1.7-5.2-1.7-7.3 0-1.1.3-2.3.9-3.4s1.6-2.1 2.8-2.8c1.2-.8 2.7-1.1 4.4-1.1 2.2 0 4.1 1 5.6 2.9l-2.7 3.8q-.3-2.55-1.2-3.6c-.6-.8-1.3-1.1-2.1-1.1-1.7 0-2.6 1.2-2.6 3.6q0 3 1.8 7.5l2.7 6.6c1.4 3.2 2 5.8 2 8 0 2.1-.5 3.9-1.4 5.5s-2.1 2.8-3.5 3.7c-1.5.9-3 1.3-4.6 1.3-3.1 0-5.4-2.3-6.9-6.8l3.7-3.6c0 2.9.3 4.9.8 6.2s1.2 1.9 2.1 1.9c1.4-.1 2.4-.8 3.2-2.2" style="fill:#fbfbfb"/></svg>