<svg xmlns="http://www.w3.org/2000/svg" viewBox="0 0 1280 960"><path d="m990.1 176.2 1.5.1a486.2 486.2 0 0 1-.4 43.7l-6.4-8.8c2.6-11.6 4.4-23.3 5.3-35zm10.8-19.8v21.2a103 103 0 0 1 8.3 17.8l-3.9 5.5h8.5c.9-9.4 1.5-19.3 1.7-29.5h-10.3v-3h10.4l.1-12.1h7.6l-.2 12.1h5.5v-1.7h7.5v34.2h4v3H1023a215 215 0 0 0 18.7 37.1l-7.1 8.4a225 225 0 0 1-12.9-45.5h-2.3c-1.6 9.2-3.9 18.2-6.9 27a82.2 82.2 0 0 1-9.7 20l-1-.6c5.8-10.5 9.7-26 11.8-46.4h-10.9v-3h1.7c-1-6.6-2.1-12.6-3.4-18v65.9h-7v-92.3l6.9-.1zm27.8 44.5v-29.5h-5.7c-.5 9.9-1.5 19.7-3.1 29.5h8.8zm54.2-30.7V192h21.6v3h-21.6v53.3h-8V241l-7.6-26.8a186 186 0 0 1-16.3 34.7l-1.3-.5c6.2-15.2 10.5-31 13-47.2l8 1.9a80 80 0 0 1-2.7 8.8l6.8 17V195h-14.2l-.9 8.1-7.3-.5 3.7-40.2 7.9.6-.4 3.7c10.9-2.5 21.5-5.8 31.9-9.9l4.1 7.3a426.1 426.1 0 0 1-36.2 4.7L1061 192h14v-21.8h7.9zm6.5 31.7c3.2 5.9 6 12 8.5 18.2a669 669 0 0 1 8.7 22.8l-9.3 3.7a355.2 355.2 0 0 0-9.1-44.3l1.2-.4zm-950.7-41.2c3.2 3.7 5.9 7.8 7.8 12.3l-5.6 4.9c-.6-5.6-1.7-11.1-3.2-16.6l1-.6zm23.3 85.7c-6.9-1.3-13.8-3.2-20.4-5.7-.6 3.3-1.4 6.5-2.5 9.6l-3.7-6.9a57 57 0 0 0 4.2-5.5v-46.8h-3.8V188h3.8v-2.4h5.4v44.9c1.1-6.8 1.9-13.7 2.3-20.6.5-8 .8-21.1.9-39.3l-1.3.3-.3-.6a69 69 0 0 0 6.1-3l-5.7-1.8c2.5-3.1 4.7-6.4 6.5-9.8l1.2.2-.2 4H168c-1-1.9-2.2-3.6-3.6-5.2l1-.9c4.6 1.5 7.7 2.9 9.5 4.2l-3.3 1.9h15.3l.4-2.1 6.7 2.1-6.4 6.3 3.6 1.8-4.4 3.2a60.9 60.9 0 0 0-12.1-8.1l.5-.6h-12.9l3.8 2.3-4.9 2.1 2.6 2.5c-1.5 3.5-3.1 7-4.9 10.3l2.9-.6.6-2.5 2.5 3.8a78.8 78.8 0 0 1-6.1 11l3.9-1.3-.4-3.7.4-.5c1.2 2.2 2.2 4.6 2.9 7v-8.1h3.1v1h4.2v-1h3.2v7.3l.8-.3a126 126 0 0 0 3.6-10.9l-3.4 3.9-1.1-4.6 1-.2c1.2-4.2 2.1-8.4 2.7-12.8l3.3 3.1a82.5 82.5 0 0 1-4.9 9.3l2.9-.6.6-2.5 2.5 3.8a78.8 78.8 0 0 1-6.1 11l4-1.3-.4-3.7.4-.5 1.2 2.6a25 25 0 0 1 1.5 3.8V175h2.9v39h-2.9v-11c-1.4 1.9-3 3.6-4.7 5.1v1.1h4.5v2.2h-2.9c1.4 4.2 3.2 8.3 5.3 12.2l-2.5 3.1c-1.1-3-1.9-6-2.5-9.1l-3.8 9-2.4-3.7 1.5-1.5v-10h-1.3v-2.3h1.4V197h2.7v9.6c1.3-2.5 2.4-5.1 3.2-7.7l1.5 2.4v-6.9l-2.2 2.4-.4-5.7-5 5.4-1-3.1v2.5h-3.2v-1.7h-4.2v1.7h-3.1v-1.6l-2.4 2.6-.3-5.4-5 5.5-.8-2.7v15h1.7V197h2.7v9.1a37 37 0 0 0 2.8-7.2l2.1 3.6c-1.4 2-3 3.8-4.9 5.4v1.3h4v2.2h-2.8a47 47 0 0 0 2.7 7.1V217h6.5v2.2h-6.2l2.2 4.4-2.5 3.1a65 65 0 0 1-2.6-9.6l-3.9 9.5-1.8-2.8v3.9h-1.2c-.2 1.8-.6 3.6-1.1 5.4-.6 1.7-1.4 4-2.6 6.9l-4.7-4.5c2.6-2.4 5.1-5 7.3-7.7h-.8v-5.9l-3.4-13.6c-.3 4.9-1 9.7-2 14.5-.8 3.5-2 7-3.4 10.3v6.6c14.5 1.6 30.8 2.6 48.9 3l-3.3 7.9a286 286 0 0 1-28.8-4.2zm-10.5-76.3v1.2h2.3v-1.2h3.1v9.9l.7-.1c.8-3 1.7-7.2 2.6-12.9a98.3 98.3 0 0 1-10.2 3l1.5.1zm-1 37.2 3.2 8.1v-9.5h-3.2l-.1 1.6.1-.2zm3.3-4.6V190h-2.5c-.1 3.7-.2 7.9-.5 12.6l3 .1zm0-15.8v-12.3h-2.3l-.1 12.3h2.4zm6.5-24.5h-6.1l-.5 4.3c2.2-1.3 4.4-2.7 6.6-4.3zm-2.8 29.4a126 126 0 0 0 3.6-10.9l-3.4 3.9-.8-3.3V192l.6-.2zm1.1 28.6v-9h-1.7v10.9l1.7-1.9zm-.8 6.4h5.3v5.8c0 2.1 1.7 3.2 5.2 3.2h10.3l2.9-9 1 .2-1 8.8h3.4l-.1 4.2h-18.6c-5.7 0-8.5-2.1-8.5-6.4l.1-6.8zm4.7-10.6-.8-4.8h-.7v6.4l1.5-1.6zm2.3-46.4h4.8c-.6-1.5-1.2-3-2-4.4l.7-.5a18 18 0 0 1 4.9 4.2l-1.5.7h4.9v2.5h-11.9l.1-2.5zm2.6 32.3 2.7.2-1.3 9.5h3.9v-1h2.7c0 5.7-.3 11.4-1 17l-2.5-.4 4.4 3.9-5.4 3a40.4 40.4 0 0 0-4-9.2l1-.5a49 49 0 0 1 3.7 2.6l.2-1.5-4.4-5.4.3-.5 4.4 4.1c.3-2.3.5-5.6.6-10.1h-4.3l-.2 1.3-2.7-.2 1.9-12.8zm-1.5-3.5h5.8l.1-1.3 3.2.2-1 12.5-3.2-.2.7-8.9h-5.6v-2.3zm.5-23.5h8.6v2.1h-8.6v-2.1zm0 4.7h8.6v2.2h-8.6v-2.2zm6.3 12.5v-4.7h-4.2v4.7h4.2zm13-26.9.6-3h-9.8c3.1.9 6.2 1.9 9.2 3zm-4.1 51.5-.9-5.5h-1.2v7.6l2.1-2.1zm2.2-2.8 5.4 6.1v-50h3.6v57.6h-3.6V224l-5.7-9.3.3-.6zm2.1 13a38.6 38.6 0 0 1 8.5 10.6l-5.3 2.7c-.8-4.4-2.2-8.7-4-12.8l.8-.5zm41.3 19.3c-6.9-1.3-13.7-3.2-20.4-5.7-.6 3.3-1.4 6.5-2.5 9.6l-3.7-6.9a57 57 0 0 0 4.2-5.5v-46.8H201V188h3.8v-2.4h5.4v44.9c1.1-6.8 1.9-13.7 2.3-20.6.5-8 .8-21.1.9-39.3l-1.3.3-.3-.6a69 69 0 0 0 6.1-3l-5.7-1.8c2.5-3.1 4.7-6.4 6.5-9.8l1.2.2-.2 4h13.5a32 32 0 0 0-3.6-5.2l1-.9c4.6 1.5 7.7 2.9 9.5 4.2l-3.3 1.9H252l.4-2.1 6.7 2.1-6.4 6.3 3.6 1.8-4.4 3.2a60.9 60.9 0 0 0-12.1-8.1l.5-.6h-13l3.8 2.3-4.9 2.1 2.6 2.5c-1.5 3.5-3.1 7-4.9 10.3l2.9-.6.6-2.5 2.5 3.8a78.8 78.8 0 0 1-6.1 11l3.9-1.3-.4-3.7.4-.5c1.2 2.2 2.2 4.6 2.9 7v-8.1h3.1v1h4.3v-1h3.2v7.3l.8-.3a126 126 0 0 0 3.6-10.9l-3.4 3.9-1.1-4.6 1-.2c1.2-4.2 2.1-8.4 2.7-12.8l3.3 3.1a82.5 82.5 0 0 1-4.9 9.3l2.9-.6.6-2.5 2.5 3.8a78.8 78.8 0 0 1-6.1 11l4-1.3-.4-3.7.4-.5 1.2 2.6a25 25 0 0 1 1.5 3.8V175h2.9v39h-2.9v-11c-1.4 1.9-3 3.6-4.7 5.1v1.1h4.5v2.2h-2.9c1.4 4.2 3.2 8.3 5.3 12.2l-2.5 3.1c-1.1-3-1.9-6-2.5-9.1l-3.8 9-2.4-3.6 1.5-1.5v-10H241v-2.3h1.4V197h2.7v9.6c1.3-2.5 2.4-5.1 3.2-7.7l1.5 2.4v-6.9l-2.2 2.4-.4-5.7-5 5.4-1-3.1v2.5H238v-1.7h-4.2v1.7h-3.1v-1.6l-2.4 2.6-.3-5.4-5 5.5-.8-2.7v15h1.7V197h2.7v9.1a37 37 0 0 0 2.8-7.2l2.1 3.6c-1.4 2-3 3.8-4.9 5.4v1.3h4v2.2h-2.8a47 47 0 0 0 2.7 7.1V217h6.5v2.2h-6.2l2.2 4.4-2.5 3.1a65 65 0 0 1-2.6-9.6l-3.9 9.5-1.8-2.8v3.9H221c-.2 1.8-.6 3.6-1.2 5.4-.6 1.7-1.4 4-2.6 6.9l-4.7-4.5c2.6-2.4 5.1-5 7.3-7.7h-.8v-5.9l-3.4-13.6c-.3 4.9-1 9.7-2 14.5-.8 3.5-1.9 7-3.3 10.3v6.6c14.5 1.6 30.8 2.6 48.9 3l-3.3 7.9a292.5 292.5 0 0 1-28.7-4.2zm-23.3-85.7c3.2 3.7 5.9 7.8 7.8 12.3l-5.6 4.9c-.6-5.6-1.7-11.1-3.2-16.6l1-.6zm12.8 9.4v1.2h2.3v-1.2h3.1v9.9l.7-.1c.8-3 1.7-7.2 2.6-12.9a98.3 98.3 0 0 1-10.2 3l1.5.1zm-.9 37.2 3.2 8.1v-9.5h-3.2l-.1 1.6.1-.2zm3.2-4.6V190h-2.5c-.1 3.7-.2 7.9-.5 12.6l3 .1zm0-15.8v-12.3h-2.3l-.1 12.3h2.4zm6.5-24.5h-6.1l-.5 4.3c2.3-1.3 4.5-2.7 6.6-4.3zm-2.8 29.4a126 126 0 0 0 3.6-10.9l-3.4 3.9-.8-3.3V192l.6-.2zm1.1 28.6v-9h-1.7v10.9l1.7-1.9zm-.8 6.4h5.3v5.8c0 2.1 1.7 3.2 5.2 3.2h10.3l2.9-9 1 .2-1 8.8h3.4l-.1 4.2h-18.6c-5.7 0-8.5-2.1-8.5-6.4l.1-6.8zm4.7-10.6-.8-4.8h-.7v6.4l1.5-1.6zm2.3-46.4h4.8c-.6-1.5-1.2-3-2-4.4l.7-.5a18 18 0 0 1 4.9 4.2l-1.5.7h4.9v2.5H230v-2.5zm2.6 32.3 2.7.2-1.3 9.5h4v-1h2.7c0 5.7-.3 11.4-1 17l-2.5-.4 4.4 3.9-5.4 3c-.4-1.5-1-3-1.7-4.5l-2.4-4.7 1-.5a49 49 0 0 1 3.7 2.6l.2-1.5-4.4-5.4.3-.5 4.4 4.1c.3-2.3.5-5.6.6-10.1h-4.2l-.2 1.3-2.7-.2 1.8-12.8zm-1.5-3.5h5.9l.1-1.3 3.2.2-1 12.6-3.2-.2.7-8.9h-5.6l-.1-2.4zm.5-23.5h8.6v2.1h-8.6v-2.1zm0 4.7h8.6v2.2h-8.6v-2.2zm6.4 12.5v-4.7h-4.2v4.7h4.2zm12.9-26.9.6-3h-9.8c3.1.9 6.2 1.9 9.2 3zm-4.1 51.5-.9-5.5h-1.2v7.6l2.1-2.1zm2.2-2.8 5.4 6.1v-50h3.5v57.6h-3.6V224l-5.7-9.3.4-.6zm2.1 13a33.1 33.1 0 0 1 8.5 10.6l-5.3 2.6c-.8-4.4-2.2-8.7-4-12.8l.8-.4zm70.5-51.6v73.3h-8.7v-6h-35.1v6h-8.3v-73.3h8.3v3h10c2-4.9 3.6-9.9 4.8-15h-24.8v-3h55.4v3h-27.9l5.3 3.1a90 90 0 0 1-10.2 11.9h22.5v-3h8.7zm-37.2 64.2v-58.2h-6.7v58.2h6.7zm15.1-42.6v-15.7h-8.1v15.7h8.1zm0 19.9v-16.9h-8.1V217h8.1zm0 22.7V220h-8.1v19.7h8.1zm13.3 0v-58.2h-6.3v58.2h6.3zM131.9 101.1v17a7 7 0 0 1 1.9-2.7c.8-.7 1.8-1 2.9-1 3.1 0 4.7 3 4.7 9.1.1 2.9-.3 5.8-1.1 8.7a12 12 0 0 1-2.8 5.2c-.9 1-2.2 1.6-3.6 1.7a5 5 0 0 1-2.1-.5h-3.4v-37.4l3.5-.1zm2.4 36.8c.8 0 1.5-.4 1.9-1 .7-1.2 1-2.6 1.1-4 .3-2.9.4-5.9.4-8.8 0-5.5-.8-8.2-2.5-8.2-.8.1-1.5.6-1.9 1.3a8 8 0 0 0-1.5 2.9v16.2c.5.9 1.5 1.5 2.5 1.6zm11.2-32.3c.4-.5.9-.7 1.5-.7.9-.2 1.8.5 2 1.4v.6c0 1.9-.7 2.8-2 2.8-.5 0-1.1-.2-1.5-.5-.4-.4-.6-1-.5-1.5 0-.7.2-1.5.5-2.1zm3.3 9.3v23.6h-3.6v-23.6h3.6zm7.6.6a6 6 0 0 1 3.4-1.1c1.3-.1 2.5.4 3.5 1.3a5 5 0 0 1 1.3 3.7v19.1H161v-3a6 6 0 0 1-1.9 2.6 4 4 0 0 1-2.8 1c-1 0-2-.4-2.6-1.1-.7-1-1.1-2.3-.9-3.5 0-1.6.3-3.1.9-4.5a8 8 0 0 1 2.5-3c.9-.7 2-1.1 3.2-1.1.6 0 1.1.1 1.6.3v-6a10 10 0 0 0-.4-3.4c-.1-.6-.7-1-1.3-1-.8.1-1.5.6-1.7 1.3a13 13 0 0 0-1.1 4.3l-2.8-2.4a8.5 8.5 0 0 1 2.7-3.5zm4.6-11.6 2.2 1.9-7 5.9-.6-.7 5.4-7.1zm-3.2 33.3c.7 0 1.4-.4 1.8-.9.6-.7 1.1-1.5 1.4-2.4v-5.7a2.7 2.7 0 0 0-2.2-1.4c-.8 0-1.5.5-2 1.6-.6 1.4-.9 3-.8 4.6 0 2.8.7 4.2 1.8 4.2zm19.5-19.9c-.4-1-.8-1.5-1.5-1.5-.8.1-1.4.6-1.8 1.3-.6.9-1 1.8-1.4 2.9v18.6H169V115h3.6v3.1c.4-1 .9-1.9 1.7-2.6s1.8-1 2.8-1c2.8 0 4.2 2.4 4.2 7.2v16.9h-3.5v-16.8c.1-1.6-.1-3.1-.5-4.5zm8.2 24.4a27 27 0 0 1 3.9-5l.7.4a12.4 12.4 0 0 0-2.5 7.4 8 8 0 0 0 1.1 4c.9 1.6 3 2.2 4.7 1.3l.6-.5c.8-.7 1.4-1.6 1.8-2.5.5-1.2.7-2.4.7-3.6 0-2-.8-3.9-2.3-5.1a18.5 18.5 0 0 0-7.7-3.5l1.3-4 1.4.4.9-2.3a5.2 5.2 0 0 1-3.6-1.9 6.5 6.5 0 0 1-1.4-4.4c-.1-2.1.5-4.2 1.9-5.8a6 6 0 0 1 4.7-2.1c1.1 0 2.1.3 3.1.8.5-1.5 1.2-3 2.1-4.4l2.5 2.5a9.5 9.5 0 0 0-3.6 2.7 6.6 6.6 0 0 1 1.7 4.8c.1 1.9-.4 3.9-1.6 5.5a6.1 6.1 0 0 1-4.1 2.3l-1.1 2.8c2.4.8 4.6 2.3 6.3 4.3a8.7 8.7 0 0 1 1.9 5.4 14 14 0 0 1-1.1 5.4 9.8 9.8 0 0 1-3.1 3.9 7.2 7.2 0 0 1-4.2 1.5 6 6 0 0 1-4.4-1.5 5.5 5.5 0 0 1-1.4-4.2 6 6 0 0 1 .8-4.6zm8.4-19.1c.1-1.7-.3-3.4-.9-5-.6-1.3-1.4-2-2.4-2-.8 0-1.5.6-1.8 1.4a8.2 8.2 0 0 0-.6 3.8c-.1 1.6.2 3.2.8 4.7a2.5 2.5 0 0 0 2.4 1.8c1.7 0 2.5-1.5 2.5-4.7zm10.8-21.5v17a7 7 0 0 1 1.9-2.7c.8-.7 1.8-1 2.9-1 3.1 0 4.7 3 4.7 9.1.1 2.9-.3 5.8-1.1 8.7a12 12 0 0 1-2.8 5.2c-.9 1-2.2 1.6-3.6 1.7a5 5 0 0 1-2.1-.5h-3.4v-37.4l3.5-.1zm2.4 36.8c.8 0 1.5-.4 1.9-1 .7-1.2 1-2.6 1.1-4 .3-2.9.4-5.9.4-8.8 0-5.5-.8-8.2-2.5-8.2-.8.1-1.5.6-1.9 1.3-.6.9-1.1 1.8-1.5 2.9v16.2c.5.9 1.5 1.5 2.5 1.6zm11.3-32.3c.4-.5.9-.7 1.5-.7.9-.2 1.8.5 2 1.4v.6c0 1.9-.7 2.8-2 2.8-.5 0-1.1-.2-1.5-.5-.4-.4-.6-1-.5-1.5-.1-.7.1-1.5.5-2.1zm3.2 9.3v23.6H218v-23.6h3.6zm7.6.6a6 6 0 0 1 3.4-1.1c1.3-.1 2.5.4 3.5 1.3a5 5 0 0 1 1.3 3.7v19.1h-3.6v-3c-.4 1-1 1.8-1.8 2.5s-1.7 1-2.8 1c-1 0-2-.4-2.6-1.1-.7-1-1.1-2.3-1-3.5 0-1.6.3-3.1 1-4.5a8 8 0 0 1 2.5-3c.9-.7 2-1.1 3.2-1.1.5 0 1.1.1 1.6.3v-6a10 10 0 0 0-.4-3.4c-.1-.6-.7-1-1.3-1-.7 0-1.3.4-1.7 1.3a13 13 0 0 0-1.1 4.3l-2.8-2.4a9.7 9.7 0 0 1 2.6-3.4zm4.6-11.6 2.2 1.9-7 5.9-.6-.7 5.4-7.1zm-3.1 33.3c.7 0 1.4-.4 1.8-.9.6-.7 1.1-1.5 1.4-2.4v-5.7a2.7 2.7 0 0 0-2.2-1.4c-.8 0-1.5.5-2 1.6-.6 1.4-.9 3-.8 4.6 0 2.8.6 4.2 1.8 4.2zm19.4-19.9c-.4-1-.9-1.5-1.5-1.5-.8.1-1.5.6-1.8 1.3-.6.9-1 1.8-1.4 2.9v18.6h-3.6V115h3.6v3.1c.4-1 1-1.9 1.7-2.6.8-.7 1.8-1 2.8-1 2.8 0 4.2 2.4 4.2 7.2v16.9h-3.5v-16.8c.1-1.6-.1-3.1-.5-4.5zm8.2 24.4a27 27 0 0 1 3.9-5l.7.4a12.4 12.4 0 0 0-2.5 7.4 8 8 0 0 0 1.1 4 3.4 3.4 0 0 0 5.3.8c.8-.7 1.4-1.6 1.8-2.5.5-1.2.7-2.4.7-3.6 0-2-.8-3.9-2.3-5.1a18.5 18.5 0 0 0-7.7-3.5l1.3-4 1.4.4.9-2.3a5.2 5.2 0 0 1-3.6-1.9 6.5 6.5 0 0 1-1.4-4.4c-.1-2.1.5-4.2 1.9-5.8a6 6 0 0 1 4.7-2.1c1.1 0 2.1.3 3.1.8.5-1.5 1.2-3 2-4.4l2.5 2.5a9.5 9.5 0 0 0-3.6 2.7 6.6 6.6 0 0 1 1.7 4.8c.1 1.9-.4 3.9-1.6 5.5a6.1 6.1 0 0 1-4.1 2.3l-1.2 2.8c2.4.8 4.6 2.3 6.3 4.3a8.7 8.7 0 0 1 1.9 5.4 14 14 0 0 1-1.1 5.4 9.8 9.8 0 0 1-3.1 3.9 7.2 7.2 0 0 1-4.2 1.5 6 6 0 0 1-4.4-1.5 6 6 0 0 1-1.5-4.2c-.1-1.8.3-3.3 1.1-4.6zm8.4-19.1c.1-1.7-.3-3.4-.9-5-.6-1.3-1.4-2-2.4-2-.8 0-1.5.6-1.8 1.4a8.2 8.2 0 0 0-.6 3.8c-.1 1.6.2 3.2.8 4.7a2.5 2.5 0 0 0 2.4 1.8c1.7 0 2.5-1.5 2.5-4.7zm15.4-5.3c-.4-1-.9-1.5-1.5-1.5s-1.2.4-1.7 1.2c-.6.9-1 1.8-1.3 2.8v18.6H274v-23.6h3.6v3.1c.3-1 .9-1.9 1.7-2.6.7-.7 1.7-1 2.7-1 2 0 3.3 1.2 4 3.5.4-1 1.1-1.8 1.9-2.5s1.8-1 2.8-1c2.9 0 4.3 2.4 4.3 7.1v16.9h-3.6v-16.8c0-3.9-.7-5.8-2-5.8-.7.1-1.3.4-1.7 1-.6.7-1 1.4-1.3 2.2.1.8.2 1.7.1 2.6v16.9h-3.6v-16.9c-.1-1.3-.3-2.8-.8-4.2zm17.5-11.7c.4-.5.9-.7 1.5-.7.9-.2 1.8.5 2 1.4v.6c0 1.9-.7 2.8-2 2.8-.5 0-1.1-.2-1.5-.5-.4-.4-.6-1-.5-1.5-.1-.7.1-1.5.5-2.1zm3.3 9.3v23.6h-3.6v-23.6h3.6zm7.5.6a6 6 0 0 1 3.4-1.1c1.3-.1 2.5.4 3.5 1.3a5 5 0 0 1 1.3 3.7v19.1H315v-3a6 6 0 0 1-1.9 2.6 4 4 0 0 1-2.8 1c-1 .1-2-.4-2.6-1.1-.7-1-1.1-2.3-1-3.5 0-1.6.3-3.1 1-4.5a8 8 0 0 1 2.5-3c.9-.7 2-1.1 3.2-1.1.6 0 1.1.1 1.6.3v-6a10 10 0 0 0-.4-3.4c-.1-.6-.7-1-1.3-1-.8.1-1.5.6-1.7 1.3a13 13 0 0 0-1.1 4.3l-2.8-2.4c.7-1.4 1.6-2.6 2.7-3.5zm1.3-11.6 5.5 7.1-.6.7-7-5.9 2.1-1.9zm.2 33.3c.7 0 1.4-.4 1.8-.9.6-.7 1.1-1.5 1.4-2.4v-5.7a2.8 2.8 0 0 0-2.2-1.4c-.8 0-1.5.5-2 1.6-.6 1.4-.9 3-.8 4.6 0 2.8.6 4.2 1.8 4.2zm19.4-19.9c-.4-1-.8-1.5-1.5-1.5-.8.1-1.5.6-1.8 1.3-.6.9-1 1.8-1.4 2.9v18.6H323V115h3.6v3.1c.4-1 .9-1.9 1.7-2.6.8-.7 1.8-1 2.8-1 2.8 0 4.2 2.4 4.2 7.2v16.9h-3.5v-16.8c.1-1.6-.1-3.1-.5-4.5zM269 381.5l1.1-4 9.9 3.9-21.3 47.3c2.2 6.5 4.1 12.6 5.6 18.2l-9.7 6.6a362.6 362.6 0 0 0-9.3-54.8l1.1-.7c4.2 8.8 7.9 17.9 11.1 27.1l10.7-40.6h-31v-3H269zm41.5 31.8a242.4 242.4 0 0 0 18.6-34.4l1.2.2a229 229 0 0 1-14.8 38.4 186 186 0 0 1-23 35.3l-5.9-8.9a208 208 0 0 0 23.9-30.6zm-2.8-19.4-8.3 5.9c-1.9-8.3-5-16.4-9.1-23.8l1.8-.7a79.9 79.9 0 0 1 15.6 18.6zm45.8 51.3-6.9-26.2c-.7 8.3-1.7 16.8-3 25.5l-7.9-4.2c4.2-10.5 7.6-21.3 10.4-32.3l1.3.3-.4 6.4 6.6 17.6v-42.1h-13.9v-3h13.9v-14.7h9.4v14.6h13.9v3H363v65.6h-9.4v-10.5h-.1zm16.4-37.7a216 216 0 0 1 10.9 33.3l-8.2 3.6a367 367 0 0 0-3.8-36.2l1.1-.7zm57.1-4.2v3h-37.2v-3H427zm24.8 10.7a116 116 0 0 1-5.7 25.6 93.4 93.4 0 0 1-9.1 17.8l-1-.2c2.1-5.6 3.9-11.4 5.2-17.2 1.2-5.7 2.2-13.8 2.9-24.3.7-10.6 1.1-24.9 1-43.1h8.7a317 317 0 0 1-2 41.4zm9.1 28.3v-69.8h7.7V421c4.3-13.5 7.7-27.3 10.4-41.2l1.2.2a527.6 527.6 0 0 1-5.7 39.5 297.2 297.2 0 0 1-8.9 36.1l-7.9-5.9c1.3-2.7 2.3-5.2 3.2-7.4zm26.3 5.4h6v-35.8h7.8v3.3h30.5v-3.3h7.8v35.8h6v3.1h-58.2v-3.1h.1zm33.8-68.9c2.3-6.6 4.1-12.8 5.6-18.7l8.1 3.4a88.2 88.2 0 0 1-12 15.2h18.7v3H521v9.2h17.4v3H521v9.6h22.4v3h-54.2v-3h22.4v-9.6h-17.3v-3h17.4v-9.2h-20.4v-3l29.7.1zm-20.9-18.5a37 37 0 0 1 11.9 14.4l-8 3.1a74 74 0 0 0-5-16.6l1.1-.9zm7.1 87.4v-29.4H501v29.4h6.2zm12 0v-29.4h-5.8v29.4h5.8zm12.3 0v-29.4h-6.2v29.4h6.2zm41.2-37.4a104.6 104.6 0 0 1-6.9 26.5c-2.9 6.2-6.7 12-11.3 17l-1-.2a94.5 94.5 0 0 0 7.6-19.3c1.9-6.8 3.5-16 4.6-27.5s1.8-26.7 2-45.3h9.7a565.5 565.5 0 0 1-4.7 48.8zm11.7-48.8h8.7v70.8c0 5.5 1.5 8.2 4.5 8.2h1.9l6.5-54.3 1.3.3-2.4 54h2.7l-.1 10.3h-13.1c-6.7 0-10-5.3-10-16v-73.3zm-265.7-39.1c-.4-1-.9-1.5-1.6-1.5-.7.1-1.4.6-1.7 1.2-.6.9-1 1.8-1.3 2.8v18.6h-3.6V320h3.6v3c.3-1 .9-1.9 1.7-2.6.7-.7 1.7-1 2.7-1 2 0 3.3 1.2 4 3.5.4-1 1.1-1.8 1.9-2.5s1.8-1 2.8-1c2.8 0 4.3 2.4 4.3 7.1v16.9h-3.6v-16.7c0-3.9-.7-5.8-2-5.8a2 2 0 0 0-1.7 1c-.6.7-1 1.4-1.3 2.2.1.8.2 1.7.1 2.6v16.9h-3.6v-16.8c0-1.5-.2-3-.7-4.4zm20-1.8a6 6 0 0 1 3.4-1.1c1.3-.1 2.5.4 3.5 1.3a5 5 0 0 1 1.3 3.7v19.1h-3.6v-3a6 6 0 0 1-1.9 2.6 4 4 0 0 1-2.8 1c-1 0-2-.4-2.6-1.1-.7-1-1.1-2.3-1-3.5 0-1.6.3-3.1 1-4.5a8 8 0 0 1 2.5-3c.9-.7 2-1.1 3.2-1.1.6 0 1.1.1 1.6.3v-6a10 10 0 0 0-.4-3.4c-.1-.6-.7-1-1.3-1-.8.1-1.5.6-1.7 1.3a13 13 0 0 0-1.1 4.3L336 324c.7-1.3 1.6-2.5 2.7-3.4zm-1.8-11.7 4.8 4.1 4.8-4.1.7.7-5.5 7.2-5.5-7.2.7-.7zm3.3 33.3c.7 0 1.4-.4 1.8-.9.6-.7 1.1-1.5 1.4-2.4v-5.7a2.7 2.7 0 0 0-2.2-1.4c-.8 0-1.5.5-2 1.6-.6 1.4-.9 3-.8 4.6 0 2.8.6 4.3 1.8 4.2zm19.5-19.8c-.4-1-.8-1.5-1.5-1.5s-1.3.5-1.9 1.4c-.6 1-1.1 2-1.4 3.1v18.2h-3.6v-37.3h3.5v17.1c.3-1.1.9-2 1.8-2.8.8-.7 1.8-1.1 2.9-1.1 2.8 0 4.2 2.4 4.2 7.1v16.9h-3.6v-16.8c.2-1.4 0-2.9-.4-4.3zm8.4 14.5V320h3.6v16.8c-.1 1.5.1 2.9.5 4.3.4 1 .9 1.5 1.5 1.5.8-.1 1.5-.6 1.8-1.2.6-.9 1.1-1.8 1.4-2.8V320h3.6v23.6h-3.6v-3.2c-.4 1-.9 1.9-1.7 2.6-.8.7-1.8 1-2.8 1-2.9 0-4.3-2.4-4.3-7.1zm7.8-27.9 2.2 2-7 5.9-.6-.7 5.4-7.2zm12.9-2.7v37.3h-3.6v-37.3h3.6zm4.5 30.6V320h3.6v16.8c-.1 1.5.1 2.9.5 4.3.4 1 .9 1.5 1.5 1.5.8-.1 1.5-.6 1.8-1.2.6-.9 1.1-1.8 1.4-2.8V320h3.6v23.6h-3.6v-3.2c-.4 1-.9 1.9-1.7 2.6-.8.7-1.8 1-2.8 1-2.9 0-4.3-2.4-4.3-7.1zm4.5-27.9 5.5 7.1-.6.7-7-5.9 2.1-1.9zm136.5 37.7a27 27 0 0 1 3.9-5l.7.5a12.4 12.4 0 0 0-2.5 7.4 8 8 0 0 0 1.1 4c.9 1.6 3 2.2 4.6 1.3l.6-.5c.8-.7 1.4-1.6 1.8-2.5.5-1.2.7-2.4.7-3.6.1-2-.8-3.9-2.3-5.2a18.5 18.5 0 0 0-7.7-3.5l1.3-4 1.4.5.8-2.3a5.2 5.2 0 0 1-3.6-1.9 6.6 6.6 0 0 1-1.4-4.5c-.1-2.1.5-4.2 1.9-5.8a6 6 0 0 1 7.8-1.2c.5-1.5 1.2-3 2-4.4l2.5 2.5a9.5 9.5 0 0 0-3.6 2.7 6.6 6.6 0 0 1 1.7 4.8c.1 1.9-.4 3.9-1.6 5.5a6.1 6.1 0 0 1-4.1 2.3l-1.2 2.8c2.4.8 4.6 2.3 6.3 4.3a8.7 8.7 0 0 1 1.9 5.4 14 14 0 0 1-1.1 5.4 9.8 9.8 0 0 1-3.1 3.9 7.2 7.2 0 0 1-4.2 1.5 6 6 0 0 1-4.4-1.5 6 6 0 0 1-1.5-4.2 10 10 0 0 1 1.3-4.7zm8.4-19.1c.1-1.7-.3-3.4-.9-5-.6-1.3-1.4-2-2.4-2-.8 0-1.5.6-1.8 1.4a8.2 8.2 0 0 0-.6 3.8c-.1 1.6.2 3.2.8 4.7a2.5 2.5 0 0 0 2.4 1.8c1.6.1 2.5-1.5 2.5-4.7zm10-7a6 6 0 0 1 3.4-1.1c1.3-.1 2.5.4 3.5 1.3a5 5 0 0 1 1.3 3.7v19.1h-3.6v-3a6 6 0 0 1-1.9 2.6 4 4 0 0 1-2.8 1c-1 0-2-.4-2.6-1.1-.7-1-1.1-2.3-1-3.5 0-1.6.3-3.1 1-4.5a8 8 0 0 1 2.5-3c.9-.7 2-1.1 3.2-1.1.6 0 1.1.1 1.6.3v-6a10 10 0 0 0-.4-3.4c-.1-.6-.7-1-1.3-1-.8.1-1.5.6-1.7 1.3a13 13 0 0 0-1.1 4.3L550 324c.7-1.3 1.6-2.5 2.7-3.4zm1.4-11.6 5.5 7.1-.7.7-7-5.9 2.2-1.9zm.1 33.2c.7 0 1.4-.4 1.8-.9.6-.7 1.1-1.5 1.4-2.4v-5.7a2.7 2.7 0 0 0-2.2-1.4c-.8 0-1.5.5-2 1.6-.6 1.4-.9 3-.8 4.6 0 2.8.6 4.3 1.8 4.2zM569 320v3.8c.9-2.8 2.1-4.3 3.7-4.3.7 0 1.3.2 1.8.6l-1.2 3.7-.8-1.1c-.3-.3-.7-.4-1.1-.4-1 0-1.8 1.1-2.5 3.3v18.1h-3.6V320h3.7zM146.3 642c4.3 1.2 8.9 2.3 13.6 3.3v-47.5h7.7v3.1h2.8v-35.3h8.2v15.7H192v3h-13.4V601h3.7v-3.1h7.7v48h-7.7V641h-14.8v4.9H162c10.1 2 20.3 3.4 30.6 4.1l-2.3 8.8a164.5 164.5 0 0 1-45.4-13.5c-2.3 4.9-4.9 9.7-7.8 14.4l-1.1-.5c1.8-4.2 3.7-9.4 5.6-15.5l-5.9-3.7.6-.9 6.1 2c3.1-10.5 5.4-21.2 7.1-32h-5l-1.6 3.3-6.4-2.2c4.7-10.4 8.6-21.1 11.8-32h-11.2v-3h12l1-3.5 7.5 2.1a226 226 0 0 1-11.7 32.3h4.1l.3-2.3 8 1.2c-3 12.5-7 24.9-12 37zm36-4.2v-33.9h-14.7v33.9h14.7zm-37.9-89.2V525h3.6v21.5c.1 3-.4 6.1-1.5 8.9a18.6 18.6 0 0 1-4.8 6.3l-.4-.8c2.1-2.5 3.1-6.6 3.1-12.3zm.3-32.8c.4-.5.9-.7 1.5-.7.9-.2 1.8.5 2 1.4v.5c0 1.9-.7 2.8-2 2.8-.5 0-1.1-.2-1.5-.5-.4-.4-.6-1-.5-1.5 0-.7.1-1.4.5-2zm8.3 0c.4-.5.9-.7 1.5-.7.9-.2 1.8.5 2 1.4v.6c0 1.9-.7 2.8-2 2.8-.5 0-1.1-.1-1.5-.5s-.6-1-.5-1.5c0-.8.1-1.5.5-2.1zm3.3 9.2v23.6h-3.6V525h3.6zm7.6.7a6 6 0 0 1 3.4-1.1c1.3-.1 2.5.4 3.5 1.3a5 5 0 0 1 1.3 3.7v19.1h-3.6v-3a6 6 0 0 1-1.9 2.6 4 4 0 0 1-2.8 1c-1 0-2-.4-2.6-1.1-.7-1-1.1-2.3-.9-3.5 0-1.6.3-3.1.9-4.5a8 8 0 0 1 2.5-3c.9-.7 2-1.1 3.2-1.1.6 0 1.1.1 1.6.3v-6a10 10 0 0 0-.4-3.4c-.1-.6-.7-1-1.3-1-.8.1-1.5.6-1.7 1.3a13 13 0 0 0-1.1 4.3l-2.8-2.4a8.5 8.5 0 0 1 2.7-3.5zm1.3-11.6 5.5 7.1-.7.7-7-5.9 2.2-1.9zm.1 33.2c.7 0 1.4-.4 1.8-.9.6-.7 1.1-1.5 1.4-2.4v-5.7a2.5 2.5 0 0 0-2.2-1.3c-.8 0-1.5.5-2 1.5-.6 1.4-.9 3-.8 4.6 0 2.8.6 4.2 1.8 4.2zm19.5-19.8c-.4-1-.8-1.5-1.5-1.5-.8.1-1.4.6-1.8 1.2-.6.9-1 1.8-1.4 2.9v18.6h-3.6V525h3.6v3.1c.3-1 .9-1.9 1.7-2.6.8-.7 1.8-1 2.8-1 2.8 0 4.2 2.4 4.2 7.2v16.9h-3.5v-16.7c.1-1.5-.1-3-.5-4.4zm645 112.6c.8-6 1.4-14.7 1.9-26.2s.8-27.2.8-47.4h9.7v2h38.3v3h-38.3c-.1 12.4-.5 23.9-1.3 34.4h41.7v3H871v35.5c0 4 1.4 5.9 4.3 5.9l5.8-36.5 1.1.2-2.7 36.3h2v8.4h-9.3c-6.2 0-9.3-3.8-9.3-11.5V609h-4.3a109.7 109.7 0 0 1-21 51l-1.2-.3c3.7-7.7 6.6-15.7 8.7-24 2.2-8.8 3.7-17.8 4.5-26.8h-8.9a157.1 157.1 0 0 1-5 29.9c-2 7-4.8 13.7-8.3 20l-1-.2a159 159 0 0 0 3.4-18.5zm47.2-55.3v3h-31.9v-3H877zm-47.4-60.1 3.6 19.1 4.1-18.9 2.1.2-7 29c-.5 2.8-1.6 5.4-3.2 7.7l-3.9-3.2c1.7-.8 3.1-2 4.2-3.6 1.2-1.7 2-3.6 2.4-5.6l.2-.8h-1.5l-4.4-23.2 3.4-.7zm12.7 17.3v-17h3.6v16.8c-.1 1.5.1 2.9.5 4.3.3 1 .9 1.5 1.5 1.5.8-.1 1.5-.6 1.8-1.3.6-.9 1.1-1.8 1.4-2.8V525h3.6v23.6h-3.6v-3.2c-.4 1-1 1.9-1.7 2.6-.8.7-1.8 1-2.8 1-2.9.1-4.3-2.3-4.3-7zm19.9-16.3a6 6 0 0 1 3.4-1.1c1.3-.1 2.5.4 3.5 1.3a5 5 0 0 1 1.3 3.7v19.1h-3.6v-3c-.4 1-1 1.9-1.8 2.6a4 4 0 0 1-2.8 1c-1 .1-2-.4-2.6-1.1-.7-1-1.1-2.3-1-3.5 0-1.6.3-3.1 1-4.5a8 8 0 0 1 2.5-3c.9-.7 2-1.1 3.2-1.1.5 0 1.1.1 1.6.3v-6a10 10 0 0 0-.4-3.4c-.1-.6-.7-1-1.3-1-.8.1-1.5.6-1.7 1.3a13 13 0 0 0-1.1 4.3l-2.8-2.4a9.2 9.2 0 0 1 2.6-3.5zm4.7-11.6 2.2 2-7 5.9-.7-.7 5.5-7.2zm-3.2 33.2c.7 0 1.4-.4 1.8-.9.6-.7 1.1-1.5 1.4-2.4v-5.7a2.4 2.4 0 0 0-2.2-1.3c-.8 0-1.5.5-2 1.5-.6 1.4-.9 3-.8 4.6 0 2.8.6 4.2 1.8 4.2zm19.5-19.8c-.3-1-.8-1.5-1.5-1.5-.8.1-1.5.6-1.8 1.2-.6.9-1 1.8-1.3 2.9v18.6H875V525h3.6v3.1c.3-1 .9-1.9 1.7-2.6.8-.7 1.8-1 2.8-1 2.8 0 4.2 2.4 4.2 7.2v16.9h-3.5v-16.7c0-1.5-.2-3-.6-4.4zM208.1 775.2h.9l.6 7.9h4.6a75 75 0 0 0-3.3-13.2l.8-.7c3.7 3.4 6.8 7.3 9.3 11.6l-4 2.3h5.9l.3-5 7.1.9-7 25.4h2.9v3h-7.1V864h-7.6v-10.4l-6.8-33.8.9-.9 5.9 19.7v-31.1h-7.1v-3h17.3l1.1-18.3h-13.1l.1 5.3-.3 9.3-7.9-1.7c2.1-6.2 4.3-14.1 6.5-23.9zm17.8 42.3h12.3c-.1-1.9-.2-4.3-.5-7.1l5.3-1 1.2-9.3h-8.7l.1 7.8-7.7-1.7c1.7-9.4 3.2-19.8 4.6-31.1h1.1l1 8.1h5.9c-.8-4.5-1.9-8.9-3.4-13.2l.8-.7c3.7 3 6.9 6.6 9.4 10.6l-4.5 3.3h8.2l.3-5 7.3.9-7.6 31.2-1.4-.2.6-11.2-5.5 11.1c.3 1.7.5 4.2.8 7.5h10v3h-9.8a188.2 188.2 0 0 1-3.4 44.5l-7.7-1.3 1.3-6.6-5.3-30.2.9-.8 5.7 21.4c.8-7.3 1.2-14.6 1.2-22l-.1-5h-12.5l.1-3zm9.7-20.5h9.1l.4-3.4 5.5 1.8.5-9.2H235l.6 10.8zm32.7-19.8h7v3h3.9v-3h6.7v74.3h-6.7v-3.2h-3.9v9.7h-7v-80.8zm10.9 68.1v-62h-3.9v62h3.9zm43.4-53.1V864h-7.2v-6.4l-5.6-20.4h-1.3V862h-6.3v-24.8H297v-3h5.1v-13.6h-4v-3h6.7c2.5-5.5 4.6-11.2 6.1-17l4.4 3.9v-6.2h-19.7V864h-6.8v-71.8h6.8v3.1h3.8c1-3.7 1.9-7.8 2.8-12.3h-14.4v-3h15.1l1.6-10.8 7.8 2.5c-1.7 4.2-2.8 6.9-3.5 8.3h14.4v3h-15.7c-1.9 4.3-3.9 8.4-6 12.3h13.9v-3.1h7.2zm-25.4 9.3c3 2.6 5.7 5.6 7.8 9l-5.1 4.5c-.6-4.5-1.8-8.9-3.3-13.2l.6-.3zm15.4 16.1v3h-4.2v13.5h5.3v3h-3.1l4.7 10.5v-41c-2.8 3.8-5.9 7.5-9.1 10.9l6.4.1zm-95.2-65.2a6 6 0 0 1-4.2 1.8 5.8 5.8 0 0 1-4.1-2 15.9 15.9 0 0 1-3.1-6.4c-.9-3.6-1.3-7.3-1.2-11 0-5.7.9-9.9 2.6-12.6 1.7-2.7 4-4.1 6.8-4.1a8 8 0 0 1 3.4.7c1.1.4 2.1 1.1 2.9 1.9l-2.1 3.7c-.3-1.4-1-2.7-2.1-3.6a4 4 0 0 0-2.9-1.2c-1 0-2 .5-2.6 1.3a9 9 0 0 0-1.3 4.2c-.3 2.5-.4 5-.4 7.6 0 7.2.4 12.2 1.3 15.2.9 2.9 2.2 4.4 3.9 4.4 1.2-.1 2.2-.6 3-1.4 1.2-1.2 2-2.7 2.6-4.3l.7.2c-.6 2-1.7 4-3.2 5.6zm14.8-19.8c-.4-1-.8-1.5-1.5-1.5s-1.3.5-1.9 1.4c-.6 1-1.1 2-1.4 3.1v18.2H224v-37.3h3.6v17.1c.3-1.1.9-2 1.8-2.8.8-.7 1.8-1.1 2.9-1 2.8 0 4.2 2.4 4.2 7.1v16.9h-3.6V737c-.1-1.6-.2-3-.7-4.4zm8.5 14.4v-16.9h3.6v16.8c-.1 1.5.1 2.9.5 4.3.3 1 .9 1.5 1.5 1.5.8-.1 1.5-.6 1.8-1.2.6-.9 1.1-1.8 1.4-2.8v-18.6h3.6v4.5a9 9 0 0 0 3.5-4.2c-1.1-.5-1.6-1.2-1.6-2 0-.7.3-1.4.7-2 .4-.6 1-1 1.7-1 .5 0 1 .2 1.4.5s.7.8.7 1.4a7 7 0 0 1-.9 2.8 9.6 9.6 0 0 1-2.4 2.9c-.9.9-2 1.6-3.2 2.1v18.6h-3.6v-3.2c-.4 1-.9 1.9-1.7 2.6-.8.7-1.8 1-2.8 1-2.8.1-4.2-2.3-4.2-7.1zm3.2-25c.5-.3 1.1-.4 1.7-.4.7 0 1.3.2 1.9.6.4.3.9.4 1.4.5.7 0 1.3-.2 1.9-.6l.4.7c-.4.4-.8.8-1.3 1a3 3 0 0 1-1.6.4c-.7 0-1.3-.3-1.9-.6a3 3 0 0 0-1.5-.5c-.7 0-1.3.2-1.9.6l-.4-.7c.3-.4.8-.8 1.3-1zm21.4-.9-.7-1.8 3.5-1.4 11.2 28.5v-27.9h1.9v35.1h-3.4l-10.6-27.7v27.7h-1.9v-32.5zm21.8 29.9a19.2 19.2 0 0 1-1.9-9.4c0-4 .7-6.9 2-8.9 1.1-1.9 3-3 5.2-3 1.9 0 3.7 1 4.7 2.7 1.2 1.8 1.8 4.6 1.8 8.5 0 4.9-.6 8.3-1.9 10.3a5.5 5.5 0 0 1-7.4 2.4 6.3 6.3 0 0 1-2.5-2.6zm4.5-34.7 5.8 7.6-.8.8-5.1-4.4-5.1 4.4-.8-.8 6-7.6zm1.1 36.4a2 2 0 0 0 2-1.3c.6-1.5.8-3.1.7-4.7.1-3.8-.2-7.7-.8-11.4-.5-2.8-1.5-4.2-2.9-4.2-1-.1-1.9.5-2.3 1.3a9.5 9.5 0 0 0-.7 4.4c0 10.6 1.3 15.9 4 15.9zm18.4-20.1c-.4-1-.9-1.5-1.5-1.5-.7.1-1.4.6-1.7 1.2-.6.9-1 1.8-1.3 2.8v18.6H303v-23.6h3.6v3.1c.3-1 .9-1.9 1.7-2.6.7-.6 1.7-1 2.7-1 2 0 3.3 1.2 4 3.5.4-1 1.1-1.8 1.9-2.5s1.8-1 2.8-1c2.8 0 4.3 2.4 4.3 7.1v16.9h-3.6v-16.8c0-3.9-.7-5.8-2-5.8-.7.1-1.3.4-1.7 1-.6.7-1 1.4-1.3 2.2.1.8.2 1.7.1 2.6v16.9h-3.6v-16.9a31 31 0 0 0-.8-4.2z" style="fill:#750000"/><path d="M124.8 166.4v4h-11v55.2h-4v-59.2h15zM343.1 204l8.7 4.9c-2.2 7.3-5 14.5-8.3 21.4 4.8 1.3 9.3 2.4 13.5 3.3v-31.7h-22.4v-3h52.2v3h-21.4v13h17.5v3h-17.5v17.6c8.2 1.6 16.1 3.1 23.8 4.4l-4.8 8.4c-9.1-2.9-16.9-5.7-23.3-8.2-6.3-2.5-12.4-5.3-18.4-8.4-2.9 5.8-6.1 11.5-9.8 16.9l-1.1-.2c5.3-14.4 9.1-29.3 11.3-44.4zm37.3-45.6v34.2h-8.6v-4.7h-22.2v4.7H341v-34.2h8.5v2h22.2v-2h8.7zm-8.6 14v-8.9h-22.2v8.9h22.2zm0 12.6v-9.5h-22.2v9.5h22.2zm35.4-25.3 1.3.3-.4 7.9h15.5c-1-4.6-2.6-9-4.6-13.2l.9-.7c4.7 2.9 8.8 6.5 12.3 10.6l-5.7 3.3H445l.3-5 8.5.9-8.9 31.2-1.5-.2 1.5-23.9H408c-.5 8-1 15.2-1.6 21.7l-8.4-1.7c3.2-9.2 6.3-19.7 9.2-31.2zm-7.3 42.6h22.7c-.3-2.9-.7-5.3-1-7.1l5.6-.9 4.4-9.4h-19.4v-3H433l1.6-3.4 8.3 3.7-13.2 12.8c.4 2.3.7 4.8.9 7.3h21.5v3h-21.2c.4 4.2.6 8.5.6 12.8a110 110 0 0 1-4.4 31.8l-7.7-2.3 1.4-5.5-7.9-30.3 1-.8 8.5 23a108 108 0 0 0 .5-28.7h-23v-3zm75.5-7.1h4.8v53.5h-6.6v-48c-2.6 7.5-6 16.2-10.1 26l-1.3-.3c6.7-18.8 11-41.9 13.1-69.4l8.5 1.4a226 226 0 0 1-8.4 36.8zm14.4-12.3 7 1.7v-4.9h-14.6v-3h14.6v-20.3h7.6v20.3h14.9v3h-12.6c2.1 11 4.1 21 6.2 30.1 2 9.1 4.3 18 6.9 26.6l-7.2 5.5-1.9-12.6-.8-5.9h-5.4v25.4h-7.6v-25.4h-5.4v-3h5.4v-30a307.6 307.6 0 0 1-14.5 50.6l-1.2-.2c4.1-19.1 7-38.5 8.6-57.9zm19.8 37.4c-1.6-12.2-3-25.8-4.1-40.6h-1v40.6h5.1zm34.5-39.1v21.9l8.1-31.4.9.7-12.5 78.3-6.8-7.6 3.8-14.8v-40.6h-9.2v-3h9.2v-3.4l6.5-.1zm-8.9-23.6c4.9 4 9.1 8.8 12.5 14.2l-7.2 5.8a87.8 87.8 0 0 0-6.2-19.4l.9-.6zm27.9 63.3c-2.7-7-4.9-14.2-6.6-21.6h-1.8v-1.7c-.7 1.7-1.9 4-3.4 7.1l-1.3-.4a119 119 0 0 0 4.5-20.5c1.1-9.1 1.6-18.3 1.5-27.5h8v2h6.2v-2h7.1v20.8c0 4.2 1 6.3 3 6.3h4.4v7.3h-7.1c-5 0-7.4-4.1-7.4-12.4v-17.1h-6.3c-.8 12.1-3.7 23.9-8.5 34.9h17.3l.9-3.1 8.3 3.4c-3.5 8.3-7.5 16.3-12 24.1 4.4 7.4 9.3 14.5 14.6 21.3l-7.7 7.4c-4.4-8-8.1-15.4-11-22.3a130.3 130.3 0 0 1-19 22.3l-1-1.5c6.7-8 12.6-17.1 17.3-26.8zm2.9-6.5c2.2-4.9 4.1-9.9 5.6-15.1h-13.3c2.8 5.9 5.4 10.9 7.7 15.1zm45.6-33.2v26.7l9.1-30.4.9.7-2.2 11.6h9.3v-33.4h7.8v33.4h12.2v3h-12.3v55.9h-7.8v-55.9h-9.9L607.8 251l-6.8-8 3.8-12.8v-42.6h-9.2v-3h9.2v-3.4h6.8zm-9.2-23.6c4.9 4 9.1 8.8 12.5 14.2l-7.2 5.8a87.8 87.8 0 0 0-6.2-19.4l.9-.6zm74.1 47.6a109.4 109.4 0 0 1-5.5 26.2 84.2 84.2 0 0 1-9.7 17.3l-1-.2c2.6-5.8 4.7-11.9 6.3-18 1.3-5.2 2.4-13.5 3.3-24.8.9-11.3 1.4-27.7 1.6-49.3h7c0 20.8-.7 37.1-2 48.8zm-15.6-31.7h6.7v41.8h-6.7v-41.8zm19-15.1h34.2v3h-13.6v13.8h5v-3.3h7.5v56.5h-7.5v-5l-5-21.5v46.9h-7.2v-70.6h-4.8v50.2h-7.2v-56.5h7.2v3.3h4.8v-13.8h-13.5l.1-3zm25.7 51.5v-31.7h-5v18.2l5 13.5zm24.3 26.8v-41.6h-3.8V192h52.2v3.1h-26.4v20.3l3-2.9.9.7-3.9 5.5v29a131 131 0 0 0 11-21.4c-2.4-6.4-4.4-13-5.9-19.8h-3.1v-3.1h16.4l.9-3.7 6.7 4c-2.6 7.3-5.7 14.4-9.1 21.4 3.4 5.9 7.2 11.6 11.3 17l-6.4 7.4a234 234 0 0 1-8.5-17.8c-3.9 6.8-8.5 13.1-13.8 18.8l-.9-.5.9-1.3h-6.5v-20L730.3 249l-5.8-7 5.4-5.3zm42-80.3v31.3h-8.6V184H741v3.7h-8.5v-31.3h8.5v2h22.2v-2h8.7zM744.8 204v-8.9H737v8.9h7.8zm0 11.6v-8.5H737v8.5h7.8zm0 6.7v-3.5H737v11.1l7.8-7.6zm18.4-52.6v-8.1H741v8.1h22.2zm0 11.2v-8.1H741v8.1h22.2zm2.3 38.6c1.5-4.2 2.9-8.6 3.9-12.9h-10.5c2 4.2 4.2 8.5 6.6 12.9zm32.9-58.1h6v-2h6.8v38.4h9.6c1.1-8.7 1.9-17.2 2.2-25.5h-9.5v-3h9.7l.2-12.9h8.3c0 4.9-.1 9.2-.4 12.9h11.1v3h-11.2a246 246 0 0 1-3.3 25.5h16.6v3h-14a250 250 0 0 0 15.5 40.1l-6.7 8.4c-2.4-9-4.4-17.1-6-24.6s-2.8-15.4-3.8-24h-2.1a140.9 140.9 0 0 1-16.2 44.5v3.4h-6.8v-8.5l-6-26 .8-.9 5.2 14.6v-20.1H797c-.4 8.2-1.4 16.3-3 24.3a96.5 96.5 0 0 1-5.1 16.6l-.9-.2c1-5.8 1.8-11.6 2.3-17.5s.9-14.4 1.2-25.4c.3-11.1.4-26.5.4-46.3h6.6l-.1 2.2zm6 43.4v-17.3H798l-.7 17.3h7.1zm0-20.3v-20.1h-6c0 7.3-.1 14-.3 20.1h6.3zm16 16.4h-9.2v40.9c4.2-13.4 7.3-27.1 9.2-40.9zm34.6-20a47.4 47.4 0 0 1 11.2 9.9l-5.5 8.5c-1.3-6.1-3.6-12-6.8-17.5l1.1-.9zm18-16.6 1.1.2-1.8 17.3 8.2-3.2c-.5-5-1.1-12.1-1.7-21.4l8-1.8c.4 7.2.9 13.9 1.5 20.2l11.3-4.4c-1.2-3.9-2.7-8.1-4.6-12.6l1.2-1.3c2.7 2.7 5.3 5.7 7.8 8.7 2 2.5 3.8 5.2 5.4 8l-7.5 6.9-1.4-6.4-11.7 4.6c.6 5.8 1.1 10.2 1.6 13.4l16-6.1.8 3.3-3.8 1.5 4.9 6.2c-3.6 7.1-7.7 13.9-12.2 20.5a64.2 64.2 0 0 0 7.9 16.5l5.3-31.1 1.2.3-3.4 34.8 2.4 2.6-4.4 7.7a58.5 58.5 0 0 1-15-22.7 213.8 213.8 0 0 1-20.9 22.7l-.9-1.4c7.4-8.5 14-17.7 19.7-27.4a152 152 0 0 1-4.8-21l-11 4.3-.8-3.3 11.2-4.3a262 262 0 0 1-1.7-13.6l-8.8 3.4-.1-.4-6.6 64.9-8.8-5.3 16.4-80.3zm-7.3-1.7c1.6 1.8 3.1 3.7 4.3 5.8l-5 8.4a79.2 79.2 0 0 0-6.8-19.5l1.2-.9c2.2 1.9 4.3 4 6.3 6.2zm27.9 46.9c2.8-5.7 5.3-11.5 7.5-17.5l-10.2 4c.7 5 1.6 9.5 2.7 13.5zm50.9-37v26c3.7-14.1 6.3-28.4 8-42.9l8.3 1.5c-1.6 6.6-3.4 12.8-5.2 18.4h11.7v-3.1h7.8a732 732 0 0 1-4.6 76.5l-7.6-.9.7-7-16.3-25.5.8-1 16.1 20.3a713 713 0 0 0 3.1-56.2h-12.6l-3.6 9.9a73.3 73.3 0 0 1 10.5 17.4l-7.2 5.8c-.8-7-2.3-14-4.2-20.8-2.4 5.8-4.3 10-5.6 12.9v36h-6.7v-4.2h-8.4v10.2H922v-73.3h6.5v3h1.2a374 374 0 0 0 2.5-18.5l7.9 2a184.6 184.6 0 0 1-8.5 16.4h6.2v-3l6.7.1zm-6.7 29.4v-23.4h-8.4v23.4h8.4zm0 30.6v-27.6h-8.4v27.6h8.4zm181.3 10.5c-3.5-3.2-3.7-8.6-.5-12s8.6-3.7 12-.5a8.4 8.4 0 0 1 .5 12 8.4 8.4 0 0 1-12 .5zm1.9-1.9a5.7 5.7 0 0 0 8.2.4c2.4-2.2 2.6-5.8.4-8.2s-5.8-2.6-8.2-.4a6 6 0 0 0-1.9 4.3 5 5 0 0 0 1.5 3.9zm26.7 7.7v-4h11v-55.2h4v59.2h-15zM124.8 371.5v4h-11v55.2h-4v-59.2h15zm14.1 56.2a67 67 0 0 1 4-11.4l1.3 1a56 56 0 0 0-2.1 12.9c-.1 2.5.6 4.9 2 6.9a7.3 7.3 0 0 0 5.9 2.5h26v10.3h-29.3c-2.6 0-5-1.2-6.6-3.3a14.5 14.5 0 0 1-2.6-9.1c.1-3.3.6-6.6 1.4-9.8zM174 379v3h-5.8l-14.8 16.1-.7-.9 9.9-15.1h-21.3v-3H174v-.1zm33 33.3c-3.3 6.9-7 13.7-11.1 20.1l1.7 3.6-6.5 5.4a46.7 46.7 0 0 1-6.4-25.9c0-8.4 1.2-15.4 3.7-21 2.4-5.6 5.6-9.6 9.6-12.2 3.8-2.5 8.3-3.9 12.9-3.9 5.4-.1 10.7 2.2 14.2 6.2 3.7 4.2 5.6 10.8 5.6 20a61.4 61.4 0 0 1-23.9 48.5l-1.1-1.1a44 44 0 0 0 12-19.8 90 90 0 0 0 3.8-26.8c0-8.4-.9-14.5-2.8-18.3s-4.8-5.8-8.7-5.8a15 15 0 0 0-7.9 2.4c-2.6 1.6-4.9 4.8-6.8 9.4s-2.9 11.1-2.9 19.3c-.2 5.8.7 11.6 2.5 17.2a228.8 228.8 0 0 0 13.2-44.2l7.7 4.1c-2.5 8-5.4 15.5-8.8 22.8zm447.5-.4.8-2.9 7.1 2a276.1 276.1 0 0 1-14-39.1c-2 4.5-4.1 8.9-6.3 13.2a67 67 0 0 1 9.8 15.9l-7.2 7.2a137 137 0 0 0-3.7-21.1 220.8 220.8 0 0 1-22 33.6l-.9-.5a236.3 236.3 0 0 0 23.5-60.4l10.7 2.3-2.8 6.9c7 15.6 15.6 30.4 25.6 44.3l-8.3 7.4-3.7-8.1a290.2 290.2 0 0 1-15 42.2l-7.9-2.4c5.4-12.1 9.9-24.7 13.5-37.4h-23.3v-3l24.1-.1zm50.3-15c1.3-8.7 2-17.6 2-26.4h-17.1v-3h44.6v3h-17.1c-.1 8.9-1.1 17.7-3 26.4h23.9v3h-21.3c6 15.7 13.5 30.8 22.4 45.2l-10.3 9.4c-3.3-9.8-6-18.9-8.1-27.3-2.2-9-4-18.1-5.2-27.3h-1.9a126.7 126.7 0 0 1-11.1 30.3c-4.4 8.6-9.8 16.6-16.3 23.7l-1-.6a150.4 150.4 0 0 0 19.1-53.4H686v-3h18.8zm94.6-33.4v41h-8.2v-4.3h-9.7v16.5h24v3h-24v34.2h-8.2v-34.2h-24v-3h24v-16.5h-9.7v4.3h-8.2v-41h8.2v3.3h27.7v-3.3h8.1zm-8.3 17.7v-11.4h-27.7v11.4h27.7zm0 15.9v-12.8h-27.7v12.9l27.7-.1zm45.6 47.6v-83.1h9.4v33.5h18.7v3h-18.7v46.6h22.5v3.1h-52.2v-3.1h20.3zm43.4-58.7a47.4 47.4 0 0 1 11.2 9.9l-5.5 8.5c-1.3-6.1-3.7-12-6.8-17.5l1.1-.9zm20.4-15.5.9.7-11.5 84.5-6.8-7.6 17.4-77.6zm-15.1-7c3.7 3.1 6.9 6.6 9.7 10.4l-6 7.2c-1-5.8-2.6-11.4-4.9-16.8l1.2-.8zm28.6 63.3c-3-7.3-5.5-14.7-7.4-22.4h-2v-2.8l-3.6 8.2-1.6-.2c1.9-6.4 3.3-12.9 4.2-19.6 1-8.8 1.5-17.7 1.6-26.6h7.8l-.2 2h8.1v-2h7.4v17.8c0 4.9 1.3 7.3 4 7.3h3.9v8.2h-6.8c-5.7 0-8.5-4.4-8.5-13.2v-15.1h-8.4a130.6 130.6 0 0 1-7.7 32.9H924l.9-3.1 8.9 3.4c-3.7 8.5-7.9 16.7-12.7 24.6 4.7 7.2 9.9 14.2 15.5 20.8l-8.3 7.4c-4.2-7-8.1-14.1-11.5-21.5a120.4 120.4 0 0 1-18.8 21.5l-1.1-1.5c6.7-7.9 12.5-16.7 17.1-26.1zm3.2-6.7c2.2-5.2 4.2-10.4 5.9-15.7h-14.7a368 368 0 0 0 8.8 15.7zm69.7-54.6 1.8-3.4 8.9 4.1-20.9 23c1.2 9.1 1.8 18.2 1.8 27.3.1 12.9-1.4 25.8-4.4 38.4l-7.7-2.3 1.3-6.1-8.8-36.7 1-.8 9.3 28.7c.9-7 1.3-14.1 1.3-21.2 0-9.1-.7-18.3-1.9-27.3l6.2-1 10.4-19.7h-34v-3h35.7zm26.8 82.5c-3.4-3.2-3.7-8.6-.5-12s8.6-3.7 12-.5a8.5 8.5 0 0 1 .5 12 8.6 8.6 0 0 1-6.2 2.7c-2.2.2-4.2-.6-5.8-2.2zm1.9-1.8a5.4 5.4 0 0 0 7.7.1 5.7 5.7 0 0 0 1.7-4.1c0-3-2.4-5.4-5.4-5.4s-5.4 2.4-5.4 5.4c-.2 1.5.4 3 1.4 4zm26.7 7.6v-4h11v-55.2h4v59.2h-15zm-907-144a17 17 0 0 1 2.3-3.6l.4.2a10.2 10.2 0 0 0-1.9 5.6c1.6 0 2.5.7 2.5 2.1.1.8-.2 1.5-.6 2.2-.4.5-1 .8-1.6.8s-1.2-.2-1.6-.7c-.4-.7-.6-1.5-.5-2.3.1-1.4.4-2.9 1-4.3zm8.6 4.4c.1.8-.2 1.5-.6 2.2-.4.5-1 .8-1.6.8s-1.2-.2-1.6-.7c-.4-.7-.6-1.5-.5-2.3 0-1.5.3-3 .9-4.3a17 17 0 0 1 2.3-3.6l.4.2a10.2 10.2 0 0 0-1.9 5.6c1.8-.1 2.6.7 2.6 2.1zm16.2-4.1H149v-1.7h16.2l-12.9 33.5h12.1v1.6h-17.1l12.8-33.4zm17.1 12.3c-.4-1-.8-1.5-1.5-1.5s-1.3.5-1.9 1.4c-.6 1-1.1 2-1.4 3.1v18.2h-3.6v-37.3h3.6v17.1c.3-1.1.9-2 1.8-2.8.8-.7 1.8-1.1 2.9-1.1 2.8 0 4.2 2.4 4.2 7.1v16.9h-3.6v-16.8c.1-1.4-.1-2.9-.5-4.3zm9.5 19.5c-1.1-1.4-1.6-4.1-1.6-7.9a30 30 0 0 1 .9-7.9c.4-1.8 1.2-3.5 2.4-4.9.8-1 2-1.6 3.3-1.7 1.6 0 2.9.9 3.9 2.7s1.6 4.4 1.6 7.9h-8.5l-.1 3.5a18 18 0 0 0 .9 6.5c.6 1.5 1.4 2.2 2.4 2.2 2 0 3.5-1.1 4.5-3.4l.7.3c-1.3 3.2-3.4 4.8-6.2 4.8-1.6.1-3.2-.7-4.2-2.1zm3.1-32.9 5.5 7.1-.6.7-7-5.9 2.1-1.9zm4.4 19.7c0-1.9-.2-3.9-.6-5.8-.4-1.4-.9-2.1-1.6-2.1s-1.3.7-1.9 2.1c-.6 1.9-1 3.8-1.2 5.8h5.3zm7.3-18c.4-.5.9-.7 1.5-.7.9-.2 1.8.5 2 1.4v.6c0 1.9-.7 2.8-2 2.8-.5 0-1.1-.2-1.5-.5-.4-.4-.6-1-.5-1.5 0-.7.1-1.5.5-2.1zm3.3 9.3v23.6h-3.6V320h3.6zm4.4 26.7a27 27 0 0 1 3.9-5l.7.5a12.4 12.4 0 0 0-2.5 7.4 8 8 0 0 0 1.1 4 3.4 3.4 0 0 0 5.3.8c.8-.7 1.4-1.6 1.8-2.5.5-1.2.7-2.4.7-3.6 0-2-.8-3.9-2.3-5.1a17.9 17.9 0 0 0-7.7-3.5l1.3-4 1.4.5.9-2.3a5.2 5.2 0 0 1-3.6-1.9 6.6 6.6 0 0 1-1.4-4.5c-.1-2.1.5-4.2 1.9-5.8a6 6 0 0 1 7.8-1.2c.5-1.5 1.2-3 2.1-4.4l2.5 2.5a9.5 9.5 0 0 0-3.6 2.7 6.6 6.6 0 0 1 1.7 4.8c.1 1.9-.4 3.9-1.6 5.5a6.1 6.1 0 0 1-4.1 2.3l-1.2 2.8c2.4.8 4.6 2.3 6.3 4.3a8.7 8.7 0 0 1 1.9 5.4 14 14 0 0 1-1.1 5.4 9.8 9.8 0 0 1-3.1 3.9 7.2 7.2 0 0 1-4.2 1.5 5.2 5.2 0 0 1-5.8-5.7 7 7 0 0 1 .9-4.8zm8.4-19.1c.1-1.7-.3-3.4-.9-5-.6-1.3-1.4-2-2.4-2-.8 0-1.5.6-1.8 1.4a8.2 8.2 0 0 0-.6 3.8c-.1 1.6.2 3.2.8 4.7a2.5 2.5 0 0 0 2.4 1.8c1.6.1 2.5-1.5 2.5-4.7zm8.1 14.3c-1.1-1.4-1.6-4.1-1.6-7.9a30 30 0 0 1 .9-7.9c.4-1.8 1.2-3.5 2.4-4.9.8-1 2-1.6 3.3-1.7 1.6 0 2.9.9 3.9 2.7 1.1 1.8 1.6 4.4 1.6 7.9h-8.5l-.1 3.5a18 18 0 0 0 .9 6.5c.6 1.5 1.4 2.2 2.4 2.2 2 0 3.5-1.1 4.5-3.4l.7.3c-1.3 3.2-3.4 4.8-6.2 4.8-1.6.1-3.2-.7-4.2-2.1zm7.5-13.3c0-1.9-.2-3.9-.6-5.8-.4-1.4-.9-2.1-1.6-2.1s-1.3.7-1.9 2.1c-.6 1.9-1 3.8-1.2 5.8h5.3zm158.9-68.9h323.2v3H392.1v-3zm249.8 83.8V320h3.6v21.5c.1 3-.4 6.1-1.5 8.9a18.6 18.6 0 0 1-4.8 6.3l-.4-.8c2.1-2.6 3.1-6.7 3.1-12.4zm.3-32.8c.4-.5.9-.7 1.5-.7.9-.2 1.8.5 2 1.4v.6c0 1.9-.7 2.8-2 2.8-.5 0-1.1-.2-1.5-.5-.4-.4-.6-1-.5-1.5 0-.7.1-1.5.5-2.1zm5.1 1.7h9.4v1.4h-9.4v-1.4zm6.5 7.6v23.6h-3.6V320h3.6zm12.9 2.4c-.3-1-.8-1.5-1.5-1.5-.8.1-1.5.6-1.8 1.2-.6.9-1 1.8-1.3 2.9v18.6h-3.6V320h3.6v3c.3-1 .9-1.9 1.7-2.6s1.8-1 2.8-1c2.8 0 4.2 2.4 4.2 7.2v16.9h-3.5v-16.8a16 16 0 0 0-.6-4.3zm9-1h-2.1V320h2.1v-7.1h3.6v7.1h3.8v1.4h-3.8v15.5a15 15 0 0 0 .4 4.2c.2.9.7 1.3 1.3 1.3s1.5-.7 2.4-2l.5.6c-.4.9-1 1.6-1.7 2.3-.6.5-1.3.8-2 .8a4 4 0 0 1-3.3-1.7 8 8 0 0 1-1.2-4.8v-16.2zm10.7-10.7c.4-.5.9-.7 1.5-.7.9-.2 1.8.5 2 1.4v.6c0 1.9-.7 2.8-2 2.8-.5 0-1.1-.2-1.5-.5-.4-.4-.6-1-.5-1.5-.1-.7.1-1.5.5-2.1zm3.3 9.3v23.6h-3.6V320h3.6zm7.5.6a6 6 0 0 1 3.4-1.1c1.3-.1 2.5.4 3.5 1.3a5 5 0 0 1 1.3 3.7v19.1h-3.6v-3a6 6 0 0 1-1.9 2.5 4 4 0 0 1-2.8 1c-1 0-2-.4-2.6-1.1-.7-1-1.1-2.3-1-3.5 0-1.6.3-3.1 1-4.5a8 8 0 0 1 2.5-3c.9-.7 2-1.1 3.2-1.1.6 0 1.1.1 1.6.3v-6a10 10 0 0 0-.4-3.4c-.1-.6-.7-1-1.3-1-.8.1-1.5.6-1.7 1.3a13 13 0 0 0-1.1 4.3l-2.7-2.5c.6-1.2 1.5-2.4 2.6-3.3zm-1.7-8.2h9.4v1.4h-9.4v-1.4zm3.2 29.8c.7 0 1.4-.4 1.8-.9.6-.7 1.1-1.5 1.4-2.4v-5.7a2.7 2.7 0 0 0-2.2-1.4c-.8 0-1.5.5-2 1.6-.6 1.4-.9 3-.8 4.6 0 2.8.6 4.3 1.8 4.2zm19.5-19.8c-.3-1-.8-1.5-1.5-1.5-.8.1-1.4.6-1.8 1.2-.6.9-1 1.8-1.4 2.9v18.6H710V320h3.6v3c.3-1 .9-1.9 1.7-2.6s1.8-1 2.8-1c2.8 0 4.2 2.4 4.2 7.2v16.9h-3.5v-16.8a16 16 0 0 0-.6-4.3zm37.9-1h-7.5V320h11.2l-8.8 22.1h8.1v1.4h-11.7l8.7-22.1zm9.3-.8a6 6 0 0 1 3.4-1.1c1.3-.1 2.5.4 3.5 1.3a5 5 0 0 1 1.3 3.7v19.1H770v-3c-.4 1-1 1.9-1.8 2.6s-1.7 1-2.8 1c-1 .1-2-.4-2.6-1.1-.7-1-1.1-2.3-1-3.5 0-1.6.3-3.1 1-4.5a8 8 0 0 1 2.5-3c.9-.7 2-1.1 3.2-1.1.5 0 1.1.1 1.6.3v-6a10 10 0 0 0-.4-3.4c-.1-.6-.7-1-1.3-1-.8.1-1.5.6-1.7 1.3a13 13 0 0 0-1.1 4.3l-2.8-2.5a9.7 9.7 0 0 1 2.6-3.4zm-1.8-11.7 4.8 4.1 4.8-4.1.7.7-5.5 7.2-5.4-7.2.6-.7zm3.3 33.3c.7 0 1.4-.4 1.8-.9.6-.7 1.1-1.5 1.4-2.4v-5.7a2.7 2.7 0 0 0-2.2-1.4c-.8 0-1.5.5-2 1.6-.6 1.4-.9 3-.8 4.6 0 2.8.6 4.2 1.8 4.2zm12.4-1.3a19.2 19.2 0 0 1-1.9-9.4c0-4 .7-6.9 2-8.9a6 6 0 0 1 5.2-3c1.9 0 3.7 1 4.7 2.7 1.2 1.8 1.8 4.6 1.8 8.5 0 4.9-.6 8.3-1.9 10.3-.9 1.8-2.8 3-4.8 3a6 6 0 0 1-5.1-3.2zm5.6 1.6c.9 0 1.7-.5 2.1-1.3.6-1.5.8-3.1.7-4.7.1-3.8-.2-7.7-.8-11.5-.5-2.8-1.5-4.2-2.9-4.2-1-.1-1.9.4-2.3 1.3a9.5 9.5 0 0 0-.7 4.4c-.1 10.7 1.2 16 3.9 16zm16.4-.7c.6-.6.8-1.4.8-2.3 0-1.6-.9-3.6-2.6-5.9l-3-4.2a11.3 11.3 0 0 1-1.8-5.3c0-1.3.5-2.5 1.4-3.3a5 5 0 0 1 3.5-1.3c.9 0 1.8.2 2.6.5.9.3 1.8.8 2.5 1.4l-2.3 3.4a8 8 0 0 0-1.3-3c-.5-.6-1.2-1-2-1a2 2 0 0 0-2.1 2.1c0 .8.3 1.7.6 2.4.4 1 1 1.9 1.6 2.7l3.1 4.2a15 15 0 0 1 1.9 3.2c.4 1 .6 2 .6 3 .1 1.6-.5 3.1-1.6 4.2-1 1-2.4 1.5-3.8 1.5-2.4 0-4.6-1.5-6.4-4.4l2.5-3.3c.8 4.1 2.2 6.2 4.1 6.2.6 0 1.3-.3 1.7-.8zm15.2-19.4c-.3-1-.8-1.5-1.5-1.5s-1.3.5-1.9 1.4c-.6 1-1 2-1.3 3.1v18.2h-3.6v-37.3h3.6v17.1c.3-1.1.9-2 1.8-2.8.8-.7 1.8-1.1 2.9-1.1 2.8 0 4.2 2.4 4.2 7.1v16.9H817v-16.8c.1-1.4-.1-2.9-.5-4.3zm11.4-1.8a6 6 0 0 1 3.4-1.1c1.3-.1 2.5.4 3.5 1.3a5 5 0 0 1 1.3 3.7v19.1h-3.6v-3a6 6 0 0 1-1.9 2.6 4 4 0 0 1-2.8 1c-1 0-2-.4-2.6-1.1-.7-1-1.1-2.3-1-3.5 0-1.6.3-3.1 1-4.5a8 8 0 0 1 2.5-3c.9-.7 2-1.1 3.2-1.1.6 0 1.1.1 1.6.3v-6a10 10 0 0 0-.4-3.4c-.1-.6-.7-1-1.3-1-.8.1-1.5.6-1.7 1.3a13 13 0 0 0-1.1 4.3l-2.8-2.5c.7-1.3 1.6-2.5 2.7-3.4zm1.5 21.6c.7 0 1.4-.4 1.8-.9.6-.7 1.1-1.5 1.4-2.4v-5.7a2.7 2.7 0 0 0-2.2-1.4c-.8 0-1.5.5-2 1.6-.6 1.4-.9 3-.8 4.6 0 2.8.6 4.3 1.8 4.2zm19.4-19.8c-.3-1-.8-1.5-1.5-1.5-.8.1-1.4.6-1.8 1.2-.6.9-1 1.9-1.4 2.9v18.6h-3.6V320h3.6v3c.3-1 .9-1.9 1.7-2.6s1.8-1 2.8-1c2.8 0 4.2 2.4 4.2 7.2v16.9h-3.5v-16.8c.1-1.4-.1-2.9-.5-4.3zm8.2 24.3a27 27 0 0 1 3.9-5l.7.5a12.4 12.4 0 0 0-2.5 7.4 8 8 0 0 0 1.1 4c.9 1.6 3 2.2 4.6 1.3l.6-.5c.8-.7 1.4-1.6 1.8-2.5.5-1.2.7-2.4.7-3.6 0-2-.8-3.9-2.3-5.1a18.5 18.5 0 0 0-7.7-3.5l1.3-4 1.3.5.9-2.3a5.2 5.2 0 0 1-3.6-1.9 6.5 6.5 0 0 1-1.4-4.4c-.1-2.1.5-4.2 1.8-5.8a6 6 0 0 1 7.8-1.2c.5-1.5 1.2-3 2.1-4.4l2.5 2.5a9.5 9.5 0 0 0-3.6 2.7 6.6 6.6 0 0 1 1.7 4.8 9 9 0 0 1-1.5 5.5 6.1 6.1 0 0 1-4.1 2.3l-1.2 2.8c2.4.8 4.6 2.3 6.3 4.3a8.7 8.7 0 0 1 1.9 5.4 14 14 0 0 1-1.1 5.4 9.8 9.8 0 0 1-3.1 3.9 7.2 7.2 0 0 1-4.2 1.5 6 6 0 0 1-4.4-1.5 6 6 0 0 1-1.5-4.2c0-2 .4-3.5 1.2-4.9zm8.4-19.1c.1-1.7-.3-3.4-.9-5-.6-1.3-1.4-2-2.4-2-.8 0-1.5.6-1.8 1.4a8.2 8.2 0 0 0-.6 3.8c-.1 1.6.2 3.2.8 4.7a2.5 2.5 0 0 0 2.4 1.8c1.7.1 2.5-1.5 2.5-4.7zm45.6-5.2c-.4-1-.9-1.5-1.6-1.5-.6 0-1.2.4-1.7 1.2-.6.9-1 1.8-1.3 2.8v18.6h-3.6V320h3.6v3c.3-1 .9-1.9 1.7-2.6.7-.7 1.7-1 2.7-1 2 0 3.3 1.2 4 3.5.4-1 1.1-1.8 1.9-2.5.8-.7 1.8-1 2.8-1 2.8 0 4.3 2.4 4.3 7.1v16.9H920v-16.7c0-3.9-.7-5.8-2-5.8a2 2 0 0 0-1.7 1c-.6.7-1 1.4-1.3 2.2l.2 2.6v16.9h-3.6v-16.8c0-1.5-.2-3-.6-4.4zm18 19.5c-1.1-1.4-1.6-4.1-1.6-7.9a30 30 0 0 1 .9-7.9c.4-1.8 1.2-3.5 2.4-5 .8-1 2-1.6 3.3-1.7 1.6 0 2.9.9 3.9 2.7s1.6 4.4 1.6 7.9H931l-.1 3.5a18 18 0 0 0 .9 6.5c.6 1.5 1.4 2.2 2.4 2.2 2 0 3.5-1.1 4.5-3.4l.7.3c-1.3 3.2-3.4 4.8-6.2 4.8-1.6.2-3.2-.6-4.2-2zm6.4-32.9 2.2 2-7 5.9-.7-.7 5.5-7.2zm1.1 19.7c0-1.9-.2-3.9-.6-5.8-.4-1.4-.9-2.1-1.6-2.1s-1.3.7-1.9 2.1c-.6 1.9-1 3.8-1.2 5.8h5.3zm7.3-18c.4-.5.9-.7 1.5-.7.9-.2 1.8.5 2 1.4v.6c0 1.9-.7 2.8-2 2.8-.5 0-1.1-.2-1.5-.5-.4-.4-.6-1-.5-1.5 0-.7.2-1.5.5-2.1zm3.3 9.3v23.6h-3.6V320h3.6zm8.3-13.7v37.3h-3.6v-37.3h3.6zm5.6 35.6c-1.1-1.4-1.6-4.1-1.6-7.9a30 30 0 0 1 .9-7.9c.4-1.8 1.2-3.5 2.4-5 .8-1 2-1.6 3.3-1.7 1.6 0 2.9.9 3.9 2.7s1.6 4.4 1.6 7.9h-8.4l-.1 3.5a18 18 0 0 0 .9 6.5c.6 1.5 1.4 2.2 2.4 2.2 2 0 3.5-1.1 4.5-3.4l.7.3c-1.3 3.2-3.4 4.8-6.2 4.8-1.7.2-3.3-.6-4.3-2zm7.5-13.3c0-1.9-.2-3.9-.6-5.8-.4-1.4-.9-2.1-1.6-2.1s-1.3.7-1.9 2.1c-.6 1.9-1 3.8-1.2 5.8h5.3zm6.7 13.3c-.1-.8.2-1.5.6-2.2a2 2 0 0 1 1.6-.8 2 2 0 0 1 2.1 1.6v.5c0 2-.7 3-2.1 3-1 .2-2-.6-2.2-1.6v-.5zm8.3-32.5c-.1-.8.2-1.5.6-2.2.4-.5 1-.8 1.6-.8s1.2.2 1.6.7c.4.7.6 1.5.5 2.3 0 1.5-.3 3-.9 4.3a17 17 0 0 1-2.3 3.6l-.4-.2c1.2-1.6 1.8-3.6 1.9-5.6-1.8 0-2.6-.7-2.6-2.1zm5.3 0c-.1-.8.2-1.5.6-2.2.4-.5 1-.8 1.6-.8s1.2.2 1.6.7c.4.7.6 1.5.5 2.3 0 1.5-.3 3-.9 4.3a17 17 0 0 1-2.3 3.6l-.4-.2c1.2-1.6 1.8-3.6 1.9-5.6-1.8 0-2.6-.7-2.6-2.1zm-864 267.2v4h-11v55.2h-4v-59.2h15zm89.4-1h15.1v3.1h-9.9c3.1 4.2 5.4 9 6.8 14l-7.2 2.1a152 152 0 0 0-2.7-16.2h-2.8c-1.8 6.7-4 13.3-6.6 19.8H224v3.1h-5.3v24.8l5.1-7.7 1.3.5-15.6 39-8-5.6 10.4-15.8v-35.1h-6.1l-2.3 5.1-.7-.3c2.7-13.5 4.5-27.1 5.4-40.8l8.1 1.8c-1 3.5-1.6 6.2-2.1 8.2zm8.7 69.5c1.5-6.3 2.4-12.8 2.9-19.3.7-7.8 1-17.5 1-29.3h2.2c2.4-10.1 4.1-20.4 5-30.8l8.1 1.8c-.7 2.8-1.5 5.5-2.4 8.1h17.7v3.1h-12c3.1 4.2 5.4 9 6.8 14l-7.2 2.1a152 152 0 0 0-2.7-16.2h-3.6a129 129 0 0 1-8 17.8h2.3v2h8.2v-2h6.8v42.9c0 4.5 1 7.2 3.1 8l4.5-46.6 1.3.3-2 46.5h2.4l-.1 10.3h-8.1c-5.3 0-7.9-5.3-7.9-16v-10l-5.5 4.5c-.6-7.8-1.7-15.6-3.1-23.3a147 147 0 0 1-2.6 21 70.1 70.1 0 0 1-11.1 25.9l-1-.7c2.2-4.6 3.8-9.3 5-14.1zm18.4-16.8v-26.7H233l-.2 7.2c3.5 6.2 6.3 12.7 8.5 19.5zm76.9-53.7v3h-18v72.3h21.4v3h-52.2v-3h21.4v-72.3h-18v-3h45.4zm44 24.6c7 18.1 15.6 35.5 25.7 52l-8.3 8.4c-4.3-10-8-19.4-11-28.2-3.1-9-5.6-18.2-7.6-27.5a176.8 176.8 0 0 1-26.1 55.1l-1.3-.3a201.6 201.6 0 0 0 21.4-92.2h11.5c-.1 11-1.5 22-4.3 32.7zm44.2 30.2 1.1.2a177 177 0 0 1-2.8 29.1l-7.3-5.4c3.6-7.7 6.6-15.7 9-23.9zm6.7-38.4c-.6-4.1-1.4-8.1-2.4-12h-7.8v-3h20.5c-1-3.5-2.6-6.9-4.6-9.9l1.8-.7a46 46 0 0 1 10.6 8.5l-4 2.1h21.9v3h-12.4l5.9 3.2c-3.3 3.3-7 6.2-10.8 8.8h21.3v3h-54.2v-3h14.2zm-8.5 6.7h8.6v2.4h25.3v-2.4h8.8v30.6h-3.6a130.8 130.8 0 0 1 9.6 26l-6.8 4.4c-.8-10.2-2.1-20.3-3.9-30.4h-4V624h-15.1c3.9 6 7.2 12.3 9.8 18.9l-7.5 3.1c-.8-7.4-2-14.7-3.7-22h-8.8v4.3h-8.6l-.1-30.6zm5.6 32.3h6.8v14.5c0 3.8 2.2 5.6 6.6 5.6h12.2l3.4-17.1 1.3.2-1 16.9h3l-.1 7.8h-21.3c-7.3 0-10.9-3.6-10.9-10.9v-17zm11.2-41.2-5.2 2.2h13.5a165 165 0 0 0 4.3-12h-21.3c3.2 2.9 6.2 6.2 8.7 9.8zm17.1 21.3v-7h-25.3v7h25.3zm0 10.9v-7.8h-25.3v7.9l25.3-.1zm31.9-9.9.8.2.1 11c0 11.8-.5 23.6-1.4 35.3l-7.3-5.4c3.4-13.5 6-27.2 7.8-41.1zm-4.3-30.3h20.4v-14.2h9.4v14.2h20.4v3h-20.4V602h17.6v3H489c4.2 9.3 7.6 19 9.9 28.9l-7.8 5.8c-.8-11.7-2.2-23.3-4.1-34.7h-18.1v-3h17.6v-18.2h-20.4v-3zm16.2 32.3v26.7c0 4.4 2.2 6.6 6.6 6.6h12l3.5-26.5 1.3.2-1 26.3h3.1l-.1 9.4h-21.3c-3.7 0-6.4-1.2-8.2-3.5s-2.7-5.8-2.7-10.5V613l6.8.1zm26.1-1.9a291.4 291.4 0 0 1 10.3 39.8l-7 6.4c-1-17.4-2.4-32.7-4.1-45.8l.8-.4zm43.3 13.7v-8.5h1.5c4.2-6.9 7.8-14.2 10.8-21.7-3.1-7.5-5.6-15.2-7.5-23.1h-2.8v-3H572l.8-3.7 8.8 4c-3 8.3-6.5 16.4-10.6 24.2 4.1 6.2 8.6 12.2 13.3 18.1l-8.3 7.4c-3.7-6.6-6.8-12.5-9.3-17.8-3.3 5.5-7.1 10.7-11.3 15.5h5.8v8.5h17v3h-17v25h22.4v3h-54.2v-3h22.4v-25h-17v-3l16.9.1zm-21.3-48.1h6.8v36.7h-6.8v-36.7zm11.9-10.2h6.9v52h-6.9v-52zm24.6 19.8c1.5-4.4 3-9.4 4.3-14.9h-12.4c2.1 4.4 4.8 9.4 8.1 14.9zm31.2 58.1c-.1-1.5.3-3 1.2-4.3.8-1 2-1.6 3.3-1.5 1.2-.1 2.4.4 3.1 1.4a7.9 7.9 0 0 1 1 4.5c0 3-.6 5.9-1.9 8.6-1.2 2.6-2.7 5-4.7 7.1l-.8-.4c2.4-3.2 3.7-7.1 3.7-11.1-3.3.1-4.9-1.4-4.9-4.3zm40.6-73.9h3.8v-2h5.9v37.7h7.7v-21.5h-6.2v-3h6.2v-15.2h7v15.2h6v3h-6v21.5h7.5v-37.6h6v2h3.3v-2h5.9V644H680v-8l-3.3-23.5V659h-6v-8.8l-4.8 5.3-.4-5.3-1.1-13.5-12.7 18.4-3.2-6.7v10.7h-5.9v-8.4l-6.1-23.5c-.6 7.8-1.3 14-2.1 18.6-.8 4.5-1.9 9-3.2 13.3l-.9-.2c.7-9.2 1.3-19.6 1.6-31.2.3-11.6.5-31.3.6-58.9h6.4l-.2 1.8zm3.8 68.5V618H637l-.4 5.7 5.9 15.4zm0-24.1v-20.5H638l-.2 4.7-.7 15.8h5.4zm0-23.5v-18h-3.8l-.6 18h4.4zm8.3 52c2-11.4 3.5-22.8 4.5-34.2h-6.9v35.9l2.4-1.7zm13.5-9-1.2-11.7.9.1a147 147 0 0 1 6.7 20.7v-34.3h-13.2l4.9 2.8a256.2 256.2 0 0 1-9.1 29.8l11-7.4zm15.7-15v-45.9h-3.3v31.6l3.3 14.3zm23.5-50.9v2h9.3v-2h6.4v8h5.7l.3-2.5 5.6 1.3v-8.8h6.9v13.8l2.3 6.4 1.8-7.9 1.3-6 .4-2.1 6.7 2a82 82 0 0 1-9.7 15.7 220 220 0 0 0 12.2 26.6l-4.9 1.8h2.2v42h-7.7v-6h-15.9v6h-7.7V618l-1.9 4.4-.6-.3c3.9-13.9 6.7-28.2 8.3-42.6h-5.4v18.7h-5.4V595h-2.2v13.8h6v3h-6v25.5l5.8-6.5 1 1.1-15.4 29.6-8-5.6 2.9-3.3v-43.9h5.3v38l2.4-2.7v-48.9h-2.2v7.1H697v-33.6h6.5zm9.3 23.4v-18.5h-9.3V592h9.3zm13.8 24.8v3h15.9v-3h2.2c-3-9.6-5.3-19.3-6.8-29.2v29.9H731v-4.7l-5.4-12.7a187 187 0 0 1-6.1 16.7h7.1zm4.3-11v-25.5a227 227 0 0 1-4.8 18.1l4.8 7.4zm11.6 28.1v-11h-15.9v11h15.9zm0 16v-13h-15.9v13h15.9zm18.7-18.2h24V621h8.2v10.7h24v3h-24v24.2h-8.2v-24.2h-24v-3zm16.2-56.1-3-7.7 9-1.5.1 9.2h12c.8-4.2 1.3-7.5 1.6-9.9l8.7 1.8c-1 2.8-2.1 5.5-3.3 8.1h12.8v3H801a100 100 0 0 1-8.2 13.2h10.3v-3.3h8.2v33.9h-8.2V618h-27.7v4.3h-8.2v-33.9h8.2v3.3h15.8c1.5-4.3 2.7-8.7 3.8-13.2h-11.4l.1 9.8-1.2.4-4-10.2h-15.3v-3l14.2.1zm25.8 27.3v-8.1h-27.7v8.1h27.7zm0 12.1v-9.1h-27.7v9.1h27.7zm111.6 4c3.7-13.6 5.5-31.1 5.5-52.5H931a150 150 0 0 1-8.2 52.5h23.1v3h-20.1c8 8.3 15 17.5 21 27.4l-9 9.6a259 259 0 0 0-14.2-37h-2a92.3 92.3 0 0 1-26.6 36.9l-.9-.7a134 134 0 0 0 11.9-17.1 89.6 89.6 0 0 0 8-19.2h-20.3v-3l21.1.1zm-16.7-30a76.6 76.6 0 0 1 15.2 15.5l-7.5 7.8a76.4 76.4 0 0 0-8.8-22.5l1.1-.8zm5.4-20.5c2.6 2.2 5.1 4.6 7.5 7.2 2 2.1 3.7 4.3 5.2 6.8l-7 6.4a79.2 79.2 0 0 0-6.8-19.5l1.1-.9zm74.3.1v3h-3.9v87.3h-7.3v-8.3l-8.4-34.8.9-.9 7.5 22.5v-65.7H958v-3l19.8-.1zm1.1 0h33.2v3h-15l4.2 2c-2.3 4.1-4.9 8-7.7 11.8h9.2V582h7.2v54.5h-6.3c3.8 5.3 7.2 10.9 10.2 16.8l-8.3 6.8c-2.7-10.8-6-21.5-9.9-31.9a88.3 88.3 0 0 1-15.4 31.9l-1.3-.3c2.7-4.9 5-10 6.9-15.3 2.1-6.6 3.6-13.3 4.5-20.2 1.2-10.1 1.8-20.2 1.7-30.4h7.4c.1 10.9-1 21.8-3.4 32.5a215 215 0 0 1 6.8 8.7v-46.9h-15.2v48.2H981V582h6.7v3.3h3.8c1.1-4.5 1.9-9.1 2.5-13.8h-15.2l.1-2.9zm64.2 33.4c1.3-8.7 2-17.6 2-26.4H1028v-3h44.6v3h-17.1c-.1 8.9-1.1 17.7-3 26.4h23.9v3h-21.3c6 15.7 13.5 30.8 22.4 45.2l-10.3 9.4c-3.3-9.8-6-18.9-8.1-27.3-2.2-9-4-18.1-5.2-27.3h-1.9a126.7 126.7 0 0 1-11.1 30.3c-4.4 8.6-9.8 16.6-16.3 23.7l-1-.6a150.4 150.4 0 0 0 19.1-53.4h-18.5v-3h18.9zm53.8 38.9c2.2 0 3.3 1.1 3.3 3.3 0 3.1-1.1 4.7-3.3 4.7s-3.4-1.1-3.4-3.4c0-3 1.1-4.6 3.4-4.6zm11.8-56.3-9.7 47.9-2.5-.1 2-48.8 10.2 1zm9.9 74.3v-4h11v-55.2h4v59.2h-15zM124.8 781.7v4h-11v55.2h-4v-59.2h15zm41.8 27c8 10.3 17.3 19.4 27.8 27.2l-9.3 5.9c-1.5-1.8-3.3-4-5.2-6.6h-19.4l5.4 3.4a97.3 97.3 0 0 1-16.2 15.2l24-6.4c-.9-3.2-1.9-6.3-3-9.3l.8-.4c6 6.8 11.1 14.4 15.2 22.4l-8.2 5.7c-1.7-7.1-3.2-12.9-4.5-17.3L145.6 865l-4.8-8.7 5.6-1.5a96 96 0 0 0 10.4-19.5h-10.5v-1.8c-2.8 2.8-5.9 5.6-9.2 8.3l-.7-.3a135 135 0 0 0 12.6-18.3c3.8-6.7 7.2-13.7 10.2-20.8l1.7.6v-8.5a160.8 160.8 0 0 1-23.9 18l-.8-.9a141.4 141.4 0 0 0 24.7-26.7v-3.4h2.3l3.1-5.1h-25.6v-3h48.6v3h-18.1l5.1 2.2c-2.5 3-4.9 5.7-7.2 8v17.3h-6l5.5 2-2 2.8zm11.1 23.5c-1.2-1.7-2.9-4.4-5-8H155l-7.4 8h30.1zm-6.7-11c-1.6-3-3.4-6.8-5.2-11.2a156 156 0 0 1-8.3 11.2H171zm2.1-34.4c6.9 5 13.4 10.7 19.4 16.9l-9 5.4c-3-7.6-6.8-14.9-11.5-21.6l1.1-.7zm170.4 31.1c.7-4.9 1.3-10 1.8-15.1l9.4.8-3 14.3h6.6v3h-7.4l-.8 3.1a65 65 0 0 1 10.2 10.1l-6 7.4a92.4 92.4 0 0 0-4.7-15.5 162.7 162.7 0 0 1-15.4 38l-1-.2c4.3-14.1 7.5-28.5 9.8-43h-10.4v-3l10.9.1zM350 786h-15.4v-3h16.8c1.9-4.2 3.5-8.6 4.9-13l11.2 3.3c-1.9 3.4-4 6.7-6.1 9.7h25.4v3h-21.5c7.3 6.8 15.3 13 23.8 18.4l-8.3 6.4-4.9-5.8c-.8 4.4-1.7 8.7-2.7 13h15.7v3h-13.2c3.8 12.8 8.7 25.4 14.5 37.4l-8.3 7.3c-1.9-8-3.4-15.4-4.7-22.3s-2.3-14.4-3.1-22.4h-1.6a146.4 146.4 0 0 1-18.3 43.3l-1.2-.3c5.3-13.9 9.1-28.3 11.5-43h-4.8v-3h5.3a309 309 0 0 0 1.8-15l8 .6a134 134 0 0 1-11.3-17.5h-4.1a152.6 152.6 0 0 1-24.5 26.3l-.7-.7c6.1-8.1 11.4-16.6 15.8-25.7zm47.4 8.9h25v3H410l-2 16.9h5.4l.2-4.5 6.6.3c-.8 18.3-2.3 36.2-4.5 53.5l-6.5-1 .9-7.7-10.3-21.6.9-.9 10 16.8c1.1-10.1 1.9-20.7 2.5-31.8h-5.6l-.4 3.3-5.8-.9 2.2-22.3h-6.2v-3.1zm3-19.3h21.2v3h-21.2v-3zm44.8 63h-5.1V864h-7v-25.4H428v-3h5.1v-29.7a304.4 304.4 0 0 1-13.7 50.3l-1.1-.2a404 404 0 0 0 9.1-57.8l5.6 1.6V795h-9.7v-3h9.7v-20.3h7V792h14v3h-11.7c2 11.3 3.9 21.5 5.8 30.4s4 17.7 6.4 26.3l-6.8 5.5-2.5-18.6zm-.4-3a824 824 0 0 1-3.8-40.7h-.9v40.7h4.7zm37.8-48.9c3.9 0 6.8 1 8.9 3 2 2 3.1 4.8 3.1 8.3a27 27 0 0 1-1.4 8.5c-1 2.8-2.3 5.6-3.9 8.1-1.7 2.7-4.2 6.5-7.6 11.2l-1.7 11.7-2.9-.1.5-12.2a134 134 0 0 0 6.8-15.6 33 33 0 0 0 1.9-10.3c0-6.6-1.8-9.9-5.4-9.9-2.2 0-4.1 1.2-5.6 3.7s-2.6 6.2-3.2 11.2l-5.9-5c3.4-8.4 9-12.6 16.4-12.6zm-8.5 63.9c0-3.1 1.1-4.6 3.4-4.6s3.4 1.1 3.3 3.3c0 3.1-1.1 4.7-3.3 4.7-2.2 0-3.4-1.1-3.4-3.4zm28.6-4.6c2.2 0 3.3 1.1 3.3 3.3 0 3.1-1.1 4.7-3.3 4.7s-3.4-1.1-3.4-3.4c-.1-3.1 1.1-4.6 3.4-4.6zm11.8-56.3-9.7 47.9-2.5-.1 2-48.8 10.2 1zm9.8 74.3v-4h11v-55.2h4V864h-15z" style="fill:#040404"/></svg>