<svg xmlns="http://www.w3.org/2000/svg" viewBox="0 0 1280 960"><path d="M129.9 117.1h-2.8V96.4c-.9 1.4-2.1 2.9-2.9 3.7l-2.2-2.3c3.4-3.6 7.1-9.4 8.9-14.6l2.7.9c-1 2.7-2.4 5.6-3.8 8.2v24.8zm3.2 0-1.9-2.4c5.7-4 7.6-12.8 8.2-20.4h-7.8v-2.7h7.9c.1-1.2.1-2.4.1-3.6v-4.5h2.9v5c0 1.1-.1 2.1-.1 3.1h12.8v2.7h-13.1c-.5 8.4-2.7 18.1-9 22.8m17.5-1.1h-2.2c-3.7 0-4.8-1.3-4.8-4.1v-15h2.9V112c0 1 .1 1.4 2.1 1.4h1.9c1.9 0 2.2-1.4 2.3-5.5l2.6.4c-.2 5.4-1.2 7.7-4.8 7.7m.3-25c-.7-.8-1.7-2-2.8-3.2l-.3-.3c-.7-.7-1.4-1.5-1.9-2.1l2-1.5c1.6 1.6 4 4.2 5.2 5.5zm28.8 26.2h-2.6V95c-.5 1-1.2 2-1.8 2.8v1.8h-2.9V113c0 1.6-.4 2.6-1.3 3-1 .4-3.1.6-5.9.6l-.1-2.8h4.2c.5 0 .7-.3.7-.8v-12.5c-2.1 4.8-5.8 10.8-8.7 13.5l-2-2.2c2.8-2.3 6.6-7.9 8.6-12.1h-7.2c.4-1.5.9-3.7 1.3-6l.1-.4c.3-1.6.6-3.2.7-4.5l2.6.2c-.2 1-.4 2.2-.7 3.4l-.1.6c-.3 1.4-.5 2.8-.7 4h6.1v-9.3h-9.1V85h14.2v2.7h-2.6V97h1.9c-.3-.4-.9-.9-1.1-1.2 2.5-3 5-8 6.3-12.5l2.3.7c-.1.5-.3 1-.5 1.6l-.1.3c-.4 1.3-.9 2.6-1.3 3.8h5.1c-.3-1.5-1.2-3.7-1.9-5.3l2.3-.9c.9 1.6 1.8 4.2 2 5.6l-1.9.6h6.7v2.6H187V97h4.8v2.6H187v5h4.8v2.6H187v5.2h5.8v2.7h-13v2.1zm4.6-20.3v-4.7h-4.7v4.7zm0 7.5v-5h-4.7v5zm0 7.7V107h-4.7v5.2h4.7zm-60.4 414.2-2-2.2c2.2-2.2 4.5-5.7 5.5-8.9l2.5.8c-.3 1.1-.9 2.3-1.4 3.2h7.2v2.7h-8.6c-1 1.7-2.3 3.4-3.2 4.4m4.2 22.3-1.6-2.3c.7-.4 1.7-1.5 1.7-2.9v-7.9h-5.1v-2.7h5.1V528h-3.4v-2.7H135v2.7h-4.1v4.8h4.6v2.7h-4.6v8.1l3.9-2.2c.3.8.6 2.1.8 2.6-5.8 3.3-7.3 4.4-7.5 4.6m7.4.7-1.3-2.4c4.8-2.2 6.3-7.7 6.8-13h-4v-11.7h4.6c-.5-1.4-1.8-4.2-3.2-6l2.5-1c1.3 1.8 2.9 4.6 3.3 6.1l-2.4.9h5.1c1-2.1 2.4-5 3-7.1l2.9 1c-.3.7-.7 1.5-1.1 2.3l-.2.3c-.6 1.2-1.2 2.4-1.8 3.4h4.1v11.7h-4.7v10.9c0 .9.1 1.1 1.5 1.1h1.3c1.3 0 1.5-1.1 1.6-4.5l2.6.4c-.2 4.8-1.2 6.8-4.1 6.8h-1.6c-3.2 0-4-1.3-4-3.8v-10.9h-2.7c-.6 6.3-2.4 12.7-8.2 15.5m15.4-18v-6.5h-11.3v6.5zm19.6 17.7h-2.7v-16.5c-1.7 3.9-4.7 8.8-6.8 11l-2-2.4c2.9-2.8 6.6-8.4 8.3-12.7H160v-2.7h7.8v-5.9c-1.2.2-2.4.4-3.8.6l-.4.1c-1 .1-2.1.3-3 .4-.1-.6-.6-1.9-.9-2.3 1.6-.3 3.4-.6 5.2-.9l.4-.1c3.7-.7 7.3-1.6 9.4-2.5l2.1 2.2c-1.7.7-4.1 1.5-6.4 2v6.3h6.8v2.7h-6.8v2.5c1.6 1.2 5.7 5 6.7 6l-1.7 2.4c-1-1.2-3.3-3.8-5-5.5V549zm11.8-9.4h-2.9v-20.3h2.9zm-.2 9.6-.2-3h5.3c.6 0 .9-.3.9-1v-29.5h3v29.5c0 1.7-.7 3-1.7 3.5-1.2.3-3.7.5-7.3.5m-55.4 323.6-.2-2.5c1.5.1 3.4.1 3.9 0 .5 0 .6-.2.6-.6v-3.9c-2.7.2-6 .9-8.2 1.2l-.4-2.6c1.3-.1 3.2-.3 5.2-.6h.4c.2 0 .4 0 .6-.1l.6-.1c.6 0 1.2-.1 1.7-.2V861c1.1-.6 2.4-1.5 3.6-2.3h-10.3v-2.3H137l.6-.1 1.6 1.2c-1.6 1.5-3.6 3.4-5.6 4.5v1.1l6.6-.9v2.4l-6.7 1v4.3c0 1.4-.3 2.2-1.3 2.6s-2.8.3-5.5.3m14-27h-17.4v-2.5h7.8c-.4-1-.9-2.6-1.4-3.6l2.6-.7c.6 1.3 1.3 3 1.7 4.3h6.8v2.5zm-2.3 1.5v7.1c1.5-2.1 2.7-5.1 3.7-8.3l.1-.4c.4-1.3.8-2.6 1.1-3.8l.1-.4c.1-.2.1-.5.2-.7l.1-.4v-.2l.1-.4c0-.3.1-.5.1-.7l2.6.6c-.4 2.3-1.1 4.8-1.7 6.8h10.4v2.6h-2.8c-.7 5.4-2.1 10.5-4 14 1.7 2.9 4.5 6.1 7.2 7.3l-1.6 2.7c-2.9-1.7-5.6-4.6-7.3-7.4-1.9 2.7-4.3 5.8-7.6 7.6l-1.5-2.5c3.2-1.6 5.8-4.7 7.7-7.8-1-2-1.7-4.6-2.3-7.2l-.1-.4c-.1-.3-.1-.6-.2-.9l-.1-.4v-.2l-.1-.4c-.1-.3-.1-.5-.2-.7-.7 1.4-1.4 3-2.3 4.2-.4-.5-1.5-1.8-2-2.3 0 0 0-.1.1-.1l.1-.1H125v-7.2zm-2.3 5.1v-3h-8.3v3zm8.3-2.6v.4c0 .3.1.6.1.9l.1.4c0 .1 0 .2.1.4v.4c.1.3.1.6.2.9l.1.4c.4 2.4 1 4.7 1.9 6.5 1.3-3 2.3-7.1 2.9-11H144h.2c.1.2.2.5.2.7m21.4 1.9c0 5.8-.8 15.9-4 21.4-.5-.4-1.9-1.3-2.5-1.5 3-5.4 3.6-14.7 3.6-20.1v-10.6h29.2v2.7h-26.3zm7.1 21.2h-.5l-.2-2.4c1.8.1 4.2.1 4.8 0 .6 0 .7-.2.7-.7v-3.7H166v-2.4h11.7v-1.9c1.7-.5 4-1.4 5.7-2.2H169v-2.1h17.8l.6-.2 1.8 1.6c-2.3 1.4-5.7 3.2-8.6 4.1v.6h12.2v2.4h-12.2v3.8c0 1.3-.4 2.2-1.5 2.6-1.3.5-3.3.5-6.2.5m15.6-17.2H169v-10.4h19.6v10.4zm-2.8-6.3v-2.1h-14.1v2.1zm0 4.2v-2.3h-14.1v2.3z" style="fill:#888"/><path d="M414.3 91.2h-16.6v-.9h22.8V57.9h2.2v32.3h4.9c4.3-8.2 7.7-17.1 10.4-26.5l2.2 1.4c-3.7 10-7.7 18.3-12 25.1h17.4v.9h-17.2v33.8c0 3 .4 5.1 1.3 6.4.8 1.3 2.1 1.9 3.9 1.9h7l2.8-36.8.6.1-1.7 36.7h3.2l-.1 2.2h-11.9c-2.5 0-4.4-.8-5.5-2.4s-1.8-4.3-1.8-8.1V91.2h-10.8l1.6.7c-2.1 8.8-4.7 17-7.6 24.8-3 7.7-6.6 15.1-10.9 22.1l-.4-.4c7.5-14 12.9-29.8 16.2-47.2m-11.5-26.6.5-.3c3.6 5.7 6.8 12.2 9.5 19.4l-2.2 1.7c-1.8-7.3-4.4-14.3-7.8-20.8m74 37.7-16.5 33.8-1.9-2 5.4-9.7V97.3h-7.6v-.9h7.6V80.7h-5.1c-1 4-2.2 8.1-3.6 12.2l-.4-.3c1.6-5.4 2.8-10.9 3.7-16.6s1.6-11.9 2.2-18.7l2.6.5-1.3 7.9h11.4v.9h-11.6c-.8 4.7-1.8 9.1-2.8 13.1h13.4v.9H466v15.7h6c1.9-6.3 3.5-12.6 4.7-18.9s2.2-12.9 3.1-20l2.4.5c-1.4 9.1-3.1 17.2-5 24.4h1.7v51.1h12.6v-22.3h-9.3v-.9h9.3V90.5h-9.3v-.9h9.3v-17h-10.1v-.9h11.2c-.8-4.7-2.3-9.7-4.3-15l.4-.2c2.3 4.1 4.4 8.9 6.2 14.2l-1.5 1h9.9v.9h-9.7v17h8.8v.9h-8.8v19.8h8.8v.9h-8.8v22.3h10.6v.9H479v3.1h-2.2zm-5-5H466v23.3l10.8-19.3V84c-1.6 5.9-3.6 11.9-6 18.1l-.5-.3zm42.3 9.5 3.1-1.6c3.8-7.6 7.5-16.1 11.1-25.6l-13 5.5-1.1-2.8 2.6-.6c4-7.8 7.2-16 9.6-24.8l2.3 1.2c-3.7 9.5-7.4 17.3-11.2 23.4l11.1-2.8 2.1-5.7 1.8 1.3c-4.7 11.6-9.5 21.7-14.6 30.4l14.6-7.8.5.5-17.5 12.1zm1.7 26.2 19.2-24.2.5.4-17.9 25.9zm31.5-41.9h-14.9v-.9h14.9v-26c-4 .8-8.3 1.6-13 2.2l-.1-.5c8.6-1.8 16.5-4.3 23.6-7.6l1.6 2.5q-3.6 1.2-9.9 2.7V90h13.3v.9h-13.3V137h-2.2zm35.2 22.6c2.9-6.7 5.2-13.7 7.1-21.1h-15v-.9H596v-14h2.2v14.1H613l3.1-21.2h-36.6c-.8 6.2-2 12.5-3.8 18.7l-2.6-.8c2.7-7.7 5-16.5 6.8-26.5l.5.1-.8 7.7h17.7c-1.3-5.5-3-10.7-5.3-15.6l.4-.3c2.7 4.4 5.2 9.4 7.4 15l-1.7.8h18l.8-5.5 2.4.4-5.7 27.3h5.8v.9h-16.3c3.5 8.6 6.6 15.8 9.2 21.6s5.5 11.6 8.8 17.4l-2.4 2.5c-3.4-6.5-6.3-13.1-9-19.8-2.6-6.8-5.1-14-7.3-21.6H598v44.9h-2V92.7h-5.3l1.7.6c-2.5 8-5.3 15.3-8.5 22s-6.9 13.1-11.2 19.1l-.6-.4c4-6.8 7.5-13.6 10.4-20.3m-168.9 85.6h-16V198h22.3v-32.2h3.2V198h4.4c4.1-8.6 7.4-17.5 9.8-26.5l3.3 2.2q-5.85 14.7-12.3 24.3h17.1v1.3h-16.8v33.2c0 2.8.4 4.8 1.3 6.1.8 1.2 2.1 1.8 3.8 1.8h6.5l3-36 .7.1-1.6 35.9h3.1l-.1 3.4h-12c-2.6 0-4.6-.9-5.9-2.6s-1.9-4.5-1.9-8.3v-33.7h-10.7l2.4 1c-2.2 8.8-4.9 17-7.9 24.6-3.1 7.6-6.8 15-11.2 21.9l-.5-.4c7.7-14 13-29.7 16-47m-11-26.7.5-.4c3.7 5.3 7 11.6 9.9 18.6l-3.3 2.6c-1.6-7.1-3.9-14.1-7.1-20.8m74 38-15.8 33.9-2.7-3 5.2-9.1v-27h-7.5v-1.3h7.5V189H459c-1.3 4.3-2.6 8.2-3.9 12l-.6-.3c1.5-5.4 2.7-10.9 3.6-16.7.9-5.7 1.6-11.9 2.2-18.7l3.6.6-1.3 7.8h10.9v1.3h-11.1c-.9 4.3-1.9 8.5-3 12.7h13.1v1.3h-6v15.2h5.7c1.8-6.2 3.2-12.4 4.3-18.5 1.1-6.2 2-12.9 2.9-20.2l3.5.7c-1.4 8.7-3.2 17-5.4 24.8h2.2v50.5h11.7v-22h-8.6v-1.3h8.6v-19.4h-8.6v-1.3h8.6v-16.6h-9.5v-1.3h10.5c-.8-4.9-2.2-9.8-4.1-14.8l.6-.3c2.5 3.8 4.8 8.4 6.8 13.8l-2.2 1.3h10.2v1.3h-9.3v16.6h8.4v1.3h-8.4v19.4h8.4v1.3h-8.4v22h10.2v1.3h-24.9v3.1h-3v-35.3zm-5-5.1h-5.2v21.8l10.3-18v-15.7c-1.7 5.8-3.7 11.4-5.8 16.7l-.6-.4zm42.3 9 3.4-2.1c4.1-7.9 7.5-16.1 10.4-24.7l-12.4 6.7-1.4-4 2.9-.8c3.9-8.6 6.9-17.1 8.9-25.6l3.1 1.9c-3.7 9.2-7.4 17.1-11.2 23.5l10.6-3 1.4-4.3 2.5 1.9c-3.7 9.7-8.2 19-13.7 27.7l12.7-7.6.2.6-15.5 13.4zm1.5 25.9 17.3-27.4v-44.5h3.1v2.9h22v-2.9h3.1v76.4h-3.1v-5.6h-22v5.6h-3.1v-30.4L518 243.3zm30-38.3v-29.5h-9.6v29.5zm0 35.9v-34.7h-9.6V238zm12.4-35.9v-29.5h-9.5v29.5zm0 35.9v-34.7h-9.5V238zm23.9-15.9c2.7-6.8 5-13.8 6.7-21.3h-14v-1.3h21.1v-14.3h3.2v14.3H613l2.6-20.8h-35.8c-.8 6.6-2 12.8-3.4 18.5l-3.6-1.4c2.8-7.4 5.2-16.1 7.2-26l.6.1-.6 7.6h16.8c-1.1-5.4-2.8-10.5-4.9-15.3l.5-.4c2.9 4.1 5.5 8.9 7.9 14.4l-2.4 1.3h17.7l.7-5.5 3.5.5-6.2 27h6v1.3h-16.1c3.2 8.1 6.2 15.1 8.9 21s5.7 11.8 9.1 17.6l-3.6 3.2c-6.2-12.8-11.3-26.7-15.3-41.8h-4v45h-3.2v-45h-5.6l2.3.9c-2.5 8-5.3 15.3-8.5 22.1s-6.9 13.1-11.2 19.1l-.7-.4c4-6.9 7.3-13.7 10-20.4m-168.8 85.4h-15.4v-1.6h21.9v-32.1h4.3v32.1h4c3.8-8.3 6.9-17.1 9.2-26.4l4.5 2.9c-3.9 9.2-8.1 17.1-12.7 23.5h16.8v1.6H429v32.7q0 3.9 1.2 5.7c.8 1.2 2.1 1.8 3.7 1.8h5.9l3.1-35.2.9.1-1.5 35.1h3.1l-.1 4.7h-12.1q-4.2 0-6.3-2.7c-1.4-1.8-2-4.6-2-8.5v-33.6h-10.6l3.3 1.3c-2.2 8.6-4.9 16.8-8.1 24.3-3.1 7.6-7 14.9-11.6 21.9l-.6-.5c7.5-14.1 12.6-29.8 15.6-47.1m-10.4-27 .6-.4c4.1 5.6 7.6 11.6 10.3 18.1l-4.5 3.3c-1.5-7.3-3.6-14.3-6.4-21m73.9 38.5-14.9 33.8-3.6-4 5.1-8.7v-26.6h-7.3V312h7.3v-14.8h-3.9c-1.2 4.1-2.6 8-4.1 11.8l-.7-.3c2.7-10.1 4.5-21.9 5.4-35.5l4.7.7-1.4 7.7h10.3v1.6h-10.6c-1 4.5-2 8.6-3.1 12.2h12.7v1.6h-5.6v15h5.1c1.7-6.1 3-12.1 4.1-18.3 1-6.1 1.9-12.9 2.7-20.2l4.7.8c-1.7 9.5-3.6 17.9-5.9 25.2h2.8v49.9h10.6v-21.8H483V326h7.9v-19.1H483v-1.6h7.9v-16.1h-8.7v-1.6h9.8c-.8-5-2-9.9-3.7-14.7l.7-.5c2.9 4.3 5.4 8.7 7.3 13.3l-2.8 1.8h10.3v1.6h-8.9v16.1h8v1.6h-8V326h8v1.6h-8v21.8h9.8v1.6h-24.4v3h-4v-35zm-4.9-5.4h-4.7v20.2l9.5-16.2v-14.4c-1.7 5.3-3.6 10.4-5.5 15.1l-.6-.5zm64.9 6.2h-20.7v-1.6h20.7v-17h-17.3v-1.6h17.3V274h4.3v25.5h4.4c2.9-7.4 5.3-15.3 7.2-23.8l3.9 2c-2.8 7.7-6.2 15-10.3 21.9H558v1.6h-17.3v17h20.7v1.6h-20.7V354h-4.3zm-15.6-43.1.7-.5c4.1 5.8 7.1 11.3 9.1 16.7l-4 2.7c-1.5-7.2-3.4-13.5-5.8-18.9m60 53.7c2.5-6.8 4.6-14 6.3-21.4h-12.9v-1.6H595v-14.6h4.1v14.6h13.8l2.2-20.4H580c-.6 5.9-1.6 12.1-3 18.4l-4.5-2.1q4.35-10.95 7.5-25.5l.7.1-.5 7.5h15.9c-1-5-2.4-10-4.3-15l.6-.5c3.4 4.4 6.2 9 8.5 13.8l-3.2 1.7h17.6l.6-5.5 4.5.8-6.7 26.7h6.1v1.6H604c3.1 7.7 6 14.5 8.8 20.5 2.7 6 5.8 11.8 9.2 17.6l-4.7 3.9q-4.65-10.35-8.1-20.4c-2.3-6.7-4.4-13.9-6.2-21.5h-3.9v45H595v-45h-5.8l2.8 1.2c-4.9 15.6-11.3 29.3-19.4 41l-.8-.4c3.4-6.9 6.5-13.7 9-20.5M406.2 440c2.3-7.7 4.2-15.8 5.5-24.2h-14.3v-2.2h21.2v-32h5.8v32h3.6c3.3-8.3 6.1-17 8.3-26.3l6.2 4c-3.8 8.2-8.1 15.7-13.1 22.3h16.3v2.2h-15.9v31.8c0 4.6 1.6 6.8 4.7 6.8h5.1l3.4-34 1 .3-1.2 33.8h2.8l-.1 6.6h-12.1c-3.1 0-5.3-1-6.8-2.9s-2.2-4.9-2.2-8.9v-33.4h-10.7l4.8 1.6q-3.45 12.75-8.4 24c-3.3 7.5-7.3 14.7-12.1 21.8l-.8-.5c3.7-7.6 6.7-15.1 9-22.8m-4-51.5.8-.6c4.4 5.2 8 10.9 10.9 17.1l-6.3 4.6c-1.1-7.1-2.9-14.1-5.4-21.1m73.9 39-13.8 33.9-4.9-5.4 4.9-8.1v-26h-7v-2.2h7v-14.1h-3c-1.4 4-2.9 7.9-4.4 11.5l-.9-.3c2.6-9.7 4.3-21.5 5.1-35.6l6.1.9c-.5 3.3-1.1 5.9-1.5 7.7h9.5v2.2h-10c-1 4.1-2.1 7.9-3.2 11.5h12.2v2.2h-5v14.1h4.5c1.6-6 2.8-12 3.7-18.1s1.7-12.8 2.3-20.2l6.3 1.1c-1.7 9.1-3.9 17.7-6.5 25.7h3.6v48.9h9.2v-21.3h-6.9v-2.2h6.9v-18.5h-6.9V413h6.9v-15.5h-7.7v-2.2h8.7c-.5-4.4-1.6-9.2-3.2-14.4l1-.5c3.3 4.1 6 8.3 8 12.6l-3.6 2.3h10.4v2.2h-8.3V413h7.4v2.2h-7.4v18.5h7.4v2.2h-7.4v21.3h9.2v2.2h-23.7v2.9h-5.2v-34.8zm-4.8-5.6h-4v17.9l8.7-14.2v-12.5c-1.5 4.3-3.2 8.7-5.1 13.3l-.7-.5zm43 28.5 11.7-46-5 4.4c-1.2-6.5-3.2-13.2-5.9-20l.9-.7c4.5 5.7 7.9 11 10.2 15.8l3.4-13.6.8.1-10.4 62.9zm17.3-35.2c-1.2 3.7-3.1 8.6-5.6 14.9l-.9-.4c2.4-8 4.3-15.9 5.6-23.7 1.4-7.7 2.4-16 3.2-24.7l6.3 1.1c-1.7 8.7-3.8 17.3-6.4 25.7h3V457h10.9v-21.3h-8.4v-2.2h8.4V415h-8.4v-2h8.4v-15.5h-9.5v-2.2h10.4c-.8-4.7-2.1-9.7-3.9-14.9l.6-.5c3.4 3.8 6.4 8.3 9.1 13.2l-3.6 2.2h11.5v2.2h-9.5V413h8.4v2.2h-8.4v18.5h8.4v2.2h-8.4v21.3h10.4v2.2h-26.4v2.9h-5.2zm53.7 1.9H574V415h20.2v-15h5.8v15h13l1.6-19.8h-33.9c-.4 5.6-1.2 11.6-2.3 18.1l-6-3c3.4-7.7 6-15.9 7.9-24.8l1 .2-.4 7.3h14.6c-.9-5.4-2.1-10.3-3.7-14.6l.8-.5c3.5 3.7 6.6 8 9.4 12.8l-4.3 2.3h17.2l.4-5.4 6.1 1L614 415h6.3v2.2h-15.7c3 7.4 5.9 14 8.6 19.9 2.8 5.9 5.9 11.7 9.4 17.5l-6.4 4.9c-2.9-7.1-5.4-14.1-7.5-20.7q-3.15-10.05-5.4-21.6h-3.2v45.1h-5.8v-45.1h-6l3.5 1.5c-4.9 15.5-11.3 29.2-19.3 41l-.9-.5c6.2-13.6 10.8-27.6 13.7-42.1M405.6 548.2c2.2-7.6 3.9-15.6 5.1-24.2h-13.4v-2.7h20.6v-31.9h7.4v31.9h3.1c2.6-7.2 5.1-15.9 7.4-26.2l7.9 5.1c-4 7.9-8.5 14.9-13.5 21.1H446v2.7h-15.3v31c0 4.1 1.5 6.2 4.5 6.2h4.2l3.7-32.9 1.2.3-1 32.6h2.6l-.1 8.4h-12.2c-6.5 0-9.8-4.1-9.8-12.3v-33.2H413l6 2c-2.4 8.5-5.3 16.4-8.7 23.8q-5.1 11.1-12.6 21.6l-.9-.5c3.7-7.6 6.6-15.2 8.8-22.8m-3.7-51.8 1-.7c4.8 5 8.6 10.3 11.4 16.1l-8 5.8c-.7-6.7-2.2-13.7-4.4-21.2m73.8 39.7L463.2 570l-6.2-6.8 4.8-7.5v-25.5H455v-2.7h6.8V514h-2c-1.9 4.8-3.5 8.5-4.8 11.2l-1.1-.3c2.5-9.9 4-21.8 4.7-35.7l7.6 1.1-1.5 7.5h8.6v2.7H464c-.7 2.7-1.7 6.3-3.2 10.8h11.6v2.7H468v13.5h3.9c2.3-10.7 4.1-23.3 5.2-38l8 1.3q-2.85 13.65-7.2 26.4h4.4v48h7.7v-21h-5.9v-2.7h5.9v-18h-5.9v-2.7h5.9V506h-6.8v-2.7h7.7c-.5-4.7-1.5-9.4-2.9-14.1l1.3-.8q5.55 6 8.7 12l-4.6 3h10.8v2.7h-7.6v14.8h6.8v2.7h-6.8v18h6.8v2.7h-6.8v21h8.6v2.7h-23v2.7h-6.6v-34.6zm-4.6-5.9H468V546l7.7-12.1V523c-1.7 4.5-3.3 8.3-4.7 11.5l-.8-.6zm46.5-16 5.5.7v-7.3h-8.6v-2.7h8.6v-15.4h6.4v15.4h6.6v2.7h-6.6v6.7c3.5 4.1 6.3 8 8.3 11.4l-5.1 6.6c-.6-4.5-1.7-9.3-3.1-14.3v52.6h-6.4V522c-1.7 12.6-4.5 24.2-8.5 34.8l-1-.2c2.3-13.5 3.7-27.6 3.9-42.4m21.9 6.3 5.8 3.3v-9.2h-11.2v-2.7h29.5v2.7h-11.5v55.9h-6.8v-6.1l-6.7-20c-1.9 4.4-4.4 9.2-7.6 14.6l-.7-.2c4.5-12.2 7.5-25 9.2-38.3m-2.3-28.3h23v2.7h-23zm8.2 63.1v-28.6c-1.7 5.5-3.7 10.8-5.9 16.1zm7.9-34.5.9-.3c1.9 4.2 3.7 8.8 5.2 13.7 1.6 4.9 3.1 10.6 4.8 17.1l-7 6.4q-1.2-21.15-3.9-36.9m30.1 4.5h-9.7v-2.7h19.8v-15.3h7.2v15.3h12.1l1.2-19.2h-32.8c-.2 5.6-.8 11.5-1.8 17.8l-7.5-3.9q5.25-11.4 8.4-24l1.2.3-.1 7.1h13.2c-.7-5-1.7-9.7-3.1-14.1l1-.7c4 3.6 7.3 7.6 10.2 11.9l-5.4 3h16.8l.4-5.4 7.6 1.4-8 25.9h6.4v2.7h-15.4c2.8 7 5.6 13.4 8.5 19.3 2.8 5.9 6 11.7 9.5 17.5L615 568c-2.7-7.6-5-14.6-6.8-21.2s-3.4-13.7-4.6-21.5h-2.9v45.2h-7.2v-45.2H587l4.3 2c-4.7 15.2-11.1 28.8-19.1 41l-1-.5c5.7-13.6 9.7-27.8 12.2-42.5m-179 131.2c2-7.3 3.6-15.1 4.8-23.3H397v-5h20V597h9.2v31.1h2.5c2.7-8 5-16.7 6.8-26.1l9.3 5.4c-3.8 7.9-7.9 14.8-12.2 20.7h13.7v5h-14.6v29.5c0 3.9 1.4 5.8 4.2 5.8h2.3l3.6-31.7 2.8.4-.8 31.3h2.3l-.1 9.6h-12.3c-7.1 0-10.7-4.4-10.7-13.2V633h-10.8l7.1 2.2c-2.2 8.3-4.9 16-7.9 23.3-3.1 7.2-6.8 14.3-11.3 21.1l-3.4-1.6c3.1-6.9 5.7-14.1 7.7-21.5m-3.5-52.4 3.2-1.5c2.1 2.6 4 5.5 5.8 8.6s3.2 6.2 4.4 9.4l-8.8 5.8c-.7-7-2.2-14.4-4.6-22.3m74.5 45.1-11.6 29.7-7.5-8.6 5.2-7.6v-23.9h-6.8V634h6.8v-10.9h-1.6c-1.1 3.1-2.4 6-3.8 8.9l-2.7-1.1c2.6-10.1 4.2-21.5 4.8-34.1l9 1.2c-.4 2.4-1 4.8-1.6 7.3h8.2v4.6h-9.4c-1.2 3.8-2.1 6.7-2.8 8.5h11.2v4.7H469V634h3.6q2.85-15.45 4.2-36.9l9.2 1.3c-1.6 9.1-3.8 18.2-6.6 27.4h3.9v45.7h6.8v-18.6h-5.2v-4.6h5.2v-15.5h-5.2v-4.6h5.2v-12.8h-5.9v-4.6h6.8c-.4-4.3-1.3-8.8-2.7-13.6l3.3-1.3c3.2 3.7 5.8 7.8 7.9 12.2l-5.3 2.6h10.4v4.6H498v12.8h5.8v4.6H498v15.5h5.8v4.6H498v18.6h7.6v4.8h-22.2v3h-7.9v-30zm-3.7-10.4H469v13.1l6.4-9.3v-4.9l-1.9 5-2.5-.7zm62 1.5h-9.9v5.9h-9.1V610h9.1v2.7h9.9v-15.9h9.7v15.9h10V610h9v36.2h-9v-5.9h-10v38.8h-9.7zm0-4.7v-18h-9.9v18zm19.7 0v-18h-10v18zm28.3-1.2h-8.3v-5h19.2v-12.9h9v12.9h9.8l1-16.2h-30c-.4 5.4-.9 10.4-1.7 15l-9.3-3.4c3.4-7.7 5.9-15.7 7.6-23.8l3.7.5-.1 6.9h11.1c-.6-4.4-1.6-8.9-2.9-13.3l3.6-1.2c3.6 3.5 6.7 7.3 9.2 11.6l-6.7 2.9h15.8l.4-5.8 9.4 1.4-7.7 25.3h6v5h-13c4.8 13.9 10 26 15.7 36.4l-9.6 5.8c-2.3-7.4-4.3-14.4-5.9-20.9-1.6-6.6-3-13.6-4.1-21.2h-2.2v44.7h-9v-44.7h-7.2l5.5 2.2c-4.1 14.9-9.6 28.3-16.3 40l-3.7-1.1c4.8-13 8.4-26.8 10.7-41.1M407.2 742.7h-10.6v-7.9h8c-1-8-2.6-15.8-4.8-23.1l5.9-2.5c4 6.8 6.9 13.5 8.7 20.2l-9.2 5.4H416v-30.2h11.2v30.2h1.9q3.45-11.1 6-25.8l10.9 5.7c-3.2 7.4-6.8 14.1-10.8 20.2h11.3v7.9h-13.8v27.7q0 2.85.9 4.2c.6.9 1.6 1.3 3 1.3l3.6-30.3 4.7.4-.7 30h2.2l-.1 10.9h-12.4c-7.9 0-11.9-4.7-11.9-14.1v-30.1h-10.5l7.9 2.4c-1.9 7.9-4.2 15.4-7 22.5-2.7 7.1-6.1 14-10 20.7l-6.2-2.8c5.1-12.7 8.8-27 11-42.9m67.7 20.2L464.4 788l-8.9-10.6 5.8-7.7v-22.3h-6.8v-7.2h6.8v-7.7h-1.2l-2.6 6.1-4.8-2c2.6-9.7 4.3-20.5 5-32.3l10.4 1.3-1.6 7h7.6v6.9h-9.6l-1.9 5.8h10.6v7.1h-3.1v7.7h3.2c1.6-11.2 2.6-23 3.2-35.5l10.5 1.3c-1.4 9.8-3.4 19.3-5.9 28.5h3.1v43.1h5.8v-15.8h-4.4v-6.9h4.4v-12.4h-4.4v-6.9h4.4v-10.3h-5v-6.9h5.9c-.6-4.8-1.4-9.1-2.5-13l5.7-1.7c2.9 4 5.3 8.2 7 12.5l-5.9 2.2h9.8v6.9h-5.5v10.3h4.6v6.9h-4.6v12.4h4.6v6.9h-4.6v15.8h6.4v7.2h-21.5v3.3H475v-25.1zm-2.6-15.5h-2.2v10.4l4.8-6.3v-.6l-3.1-.7zm48.9 1.9c-1.2 10-2.8 19.4-4.8 28.3l-5-.9c2.2-12.9 3.4-26.2 3.8-40l6 .6v-3.1h-8.5V727h8.5v-4.6l-5.7 2.4c-.2-4.8-.9-9.8-1.9-15.1l4.1-1.4c1.4 2.8 2.6 5.9 3.5 9.1v-12.7h9V715c1.1-2.5 2-5.1 2.7-7.7l3.3 3.4v-5h9.8v2.7h4.4v-2.7h9.7v71.8h4v8.1h-32.7v-8.1h4.7v-30.2l-3.4 5.4c-.6-2.3-1.5-4.7-2.6-7v42h-9v-38.4zm15-7.6v-25.1c-1.7 2.5-3.7 5-6 7.6v3h5v7.2h-5v2.3c2.3 1.5 4.3 3.2 6 5m14.2-12.7v-13.7H546V729zm0 23.5v-16.7H546v16.7zm0 25.1v-18.3H546v18.3zm29.1-33.9H573v-7.8h18.5v-10.1h11v10.1h7.2l.8-12.8h-26.7c-.2 3.5-.7 7.4-1.4 11.8l-11.5-3q4.35-11.4 6.6-23.4l6.8.7v6.7h8.5c-.5-3.9-1.4-8-2.8-12.3l6.8-1.7c3.4 3.8 6 7.5 7.9 11.2l-7.9 2.8h14.3l.4-6.2 11.3 1.6-7.2 24.6h5.7v7.8h-10.2c3.7 12.9 8 24.8 13 35.6l-11.4 5.9c-1.9-7.4-3.5-14.3-4.9-20.8q-1.95-9.75-3.3-20.7h-1.7v44h-11v-44h-8.3l7 2.6c-3.3 14.2-7.7 27.2-13 38.9l-6.8-1.8c4.1-13.2 7.1-26.5 8.8-39.7m-173.6 108h-9.5v-9.9h7.4c-1-7.6-2.5-15-4.7-22.4l7.8-3.3c3.6 7.6 6.1 14.9 7.6 22l-6.9 3.8h7.7v-29.6h12.6v29.6h1.5c2.3-7.9 4.1-16.5 5.4-25.7l12.1 5.9c-2.9 7.6-6.2 14.2-9.6 19.8h9.5v9.9h-13.2v26.5c0 2.8.7 4.5 2.2 5l3.5-29.1 6.1.5-.6 28.9h2l-.1 12h-12.5c-8.5 0-12.7-5-12.7-14.9v-28.8h-10.6l8.8 2.7c-3.5 15.7-8.6 29.8-15.3 42.4l-8.4-3.7c4.6-12.7 7.9-26.5 9.9-41.6m68.7 23.1-9.8 22-10-12.1 6.1-7.7v-21h-6.8v-9h6.8v-5.4h-.8l-1.7 4.1-6.2-2.7c2.8-10 4.5-20.3 5.1-31l11.6 1.4-1.7 6.9h7.3v8.6h-9.8l-1.3 3.8h10.2v8.8H471v5.4h2.8c1.1-10.2 1.9-21.8 2.4-34.7l11.6 1.3q-.6 4.65-1.8 12.3h4.8c-.5-4.7-1.3-8.9-2.3-12.6l7.5-2.2c2.6 4.1 4.7 8.4 6.3 12.8l-6.4 2h9.4v8.5h-4.7v8.5h3.8v8.6h-3.8v10.3h3.8v8.5h-3.8V884h5.6v9h-21v3.6h-10.5v-21.8zm-1.8-18.8H471v8.6l3.6-4.5v-1.4l-2.2-.4zm13.5 5.8h3.8v-10.3h-3.8V843h3.8v-8.5h-4.4v-6.7c-1 5.5-2 10.6-3.1 15.2h2.5v41.1h5v-13.8h-3.8zm31.5 11.1h-4V863h18v-2.3h-16.2v-9h16.2v-5h-6.4v3.3h-10.1v-36.5h10.1v2.2h26.3v-2.2h10.1V850h-10.1v-3.3h-6.4v5h16.2v9h-16.2v2.3h18v9.9h-4.2c2.4 6 4.3 12.2 5.9 18.6l-11.7 4.7c-.6-8.1-2-15.9-4-23.3h-1.6q2.4 9.15 3.6 18.9l-10.3 4c-.4-8.6-1.1-16.2-2.3-22.9h-1.8c1 6.4 1.6 12.9 1.9 19.5l-11.1 3.6c.7-5.6 1.1-11.1 1.1-16.3 0-3.1-.1-5.3-.2-6.8H527c-.6 8.5-1.9 16.6-3.8 24.3l-11.6-6.7c2.9-5.6 4.9-11.5 6.2-17.6m8.1-46.4 5.5-1.1c1.1 3.1 1.8 5.5 2.2 7.2v-8.3h-8.2v14.3h8.2v-2l-6.5 1.4c-.2-3.5-.6-7.3-1.2-11.5m19.6-1.4 6.2 1.1v-1.9h-8.2l.1 14.3c.7-3.7 1.3-8.2 1.9-13.5m6.2 13.5v-8.1q-1.05 3.9-2.4 8.1zm26.3 14.1h-5.2v-9.9h18v-8h12.6v8h5.2l.6-10.3h-24.4c-.2 3.1-.7 6.3-1.3 9.5l-13-2.6c2.6-7.3 4.5-15 5.9-23.2l9 .9v6.5h6.6c-.5-3.5-1.4-7.4-2.7-11.6l9-2.1c3.1 3.7 5.4 7.4 7 11l-8.6 2.7h13l.4-6.5 12.9 1.7-6.9 24h5.4v9.9h-8.1c2.8 12.1 6.5 23.8 11 35.2l-12.8 5.8c-1.7-7.5-3.1-14.5-4.2-20.9s-2.1-13.1-2.8-20.1h-1.1v43.6h-12.6v-43.6H582l8.1 2.8c-2.8 14-6.3 26.7-10.7 38.2l-9.2-2.4c3.6-12.8 6.2-25.7 7.8-38.6m119.4-726.3c-1.9-2.6-3.2-6.5-3.8-11.7l1.3-1.6c.7 5.7 1.9 9.8 3.6 12.4s3.9 3.8 6.4 3.8c2.1 0 3.8-.9 5.1-2.6s2-4.4 2-8c0-5.3-1.5-10.9-4.5-16.7l-7-13.7c-2.8-5.3-4.1-9.9-4.1-13.6 0-2.9.8-5.2 2.5-6.9s3.6-2.5 5.8-2.5 4.1.8 5.9 2.5 3 4.1 3.5 7.3l-1.3 1.5c-.4-3.5-1.5-6.1-3.2-7.7-1.7-1.7-3.5-2.5-5.5-2.5-1.7 0-3.1.6-4.3 1.8s-1.8 2.9-1.8 5.2q0 5.1 4.5 13.5l7 13.4c1.6 2.9 2.7 5.9 3.5 9s1.2 5.9 1.2 8.5c0 4.4-1 7.6-2.9 9.6s-4.2 3-6.8 3c-2.9-.1-5.2-1.4-7.1-4m35.7-40.1c1.6 0 2.9.6 3.9 1.9q1.5 1.95 1.5 5.7v35.5h-2.2v-7.3c-1.1 2.6-2.3 4.6-3.7 6s-3 2.1-4.6 2.1c-1.5 0-2.7-.6-3.7-1.8q-1.5-1.8-1.5-5.4c0-2.5.5-4.9 1.5-7.3s2.3-4.4 4-5.9 3.3-2.3 5-2.3c1.3 0 2.3.5 3.1 1.5V94.7c0-2.7-.3-4.6-.8-5.8s-1.4-1.8-2.6-1.8c-3.2 0-5.5 3.5-6.8 10.5l-1.7-2.1c2.1-6.1 5-9.2 8.6-9.2m-7.2 41c.5 1.1 1.3 1.6 2.4 1.6 1.4 0 2.8-.8 4.1-2.3 1.4-1.6 2.6-3.6 3.8-6.1v-10.8c-.8-.9-1.8-1.4-3-1.4-1.4 0-2.8.7-4 2.2-1.3 1.4-2.3 3.3-3 5.6-.8 2.3-1.1 4.6-1.1 6.8 0 1.9.3 3.4.8 4.4m26.4-40.1v7.6c1.9-5.7 4.4-8.5 7.6-8.5.5 0 1 .1 1.7.2.7.2 1.2.3 1.6.6l-.8 2.2c-.4-.4-.9-.8-1.5-1.1s-1.2-.5-1.8-.5c-1.3 0-2.6.8-3.7 2.3-1.2 1.6-2.2 3.7-3.1 6.4v32.9h-2.2V87.2zm18.4.9h-4.5v-.9h4.5V74.5h2.2v12.7h6.8v.9h-6.8v29.4c0 7.7 1 11.6 3.1 11.6 1.3 0 2.7-1.6 4.1-4.8l.4.2c-.7 1.9-1.5 3.4-2.3 4.4q-1.2 1.5-2.7 1.5c-1.4 0-2.6-1-3.5-2.9s-1.3-4.8-1.3-8.6zm31.5 38.3c-1.9-2.6-3.2-6.5-3.8-11.7l1.3-1.6c.7 5.7 1.9 9.8 3.6 12.4s3.9 3.8 6.4 3.8c2.1 0 3.8-.9 5.1-2.6s2-4.4 2-8c0-5.3-1.5-10.9-4.5-16.7l-7-13.7c-2.8-5.3-4.1-9.9-4.1-13.6 0-2.9.8-5.2 2.5-6.9s3.6-2.5 5.8-2.5 4.1.8 5.9 2.5 3 4.1 3.5 7.3l-1.3 1.5c-.4-3.5-1.5-6.1-3.2-7.7-1.7-1.7-3.5-2.5-5.5-2.5-1.7 0-3.1.6-4.3 1.8s-1.8 2.9-1.8 5.2q0 5.1 4.5 13.5l7 13.4c1.6 2.9 2.7 5.9 3.5 9s1.2 5.9 1.2 8.5c0 4.4-1 7.6-2.9 9.6s-4.2 3-6.8 3c-2.8-.1-5.2-1.4-7.1-4M838 86.3c1.6 0 2.9.6 3.9 1.9q1.5 1.95 1.5 5.7v35.5h-2.2v-7.3c-1.1 2.6-2.3 4.6-3.7 6s-3 2.1-4.6 2.1c-1.5 0-2.7-.6-3.7-1.8q-1.5-1.8-1.5-5.4c0-2.5.5-4.9 1.5-7.3s2.3-4.4 4-5.9 3.3-2.3 5-2.3c1.3 0 2.3.5 3.1 1.5V94.7c0-2.7-.3-4.6-.8-5.8s-1.4-1.8-2.6-1.8c-3.2 0-5.5 3.5-6.8 10.5l-1.7-2.1c2-6.1 4.9-9.2 8.6-9.2m-7.2 41c.5 1.1 1.3 1.6 2.4 1.6 1.4 0 2.8-.8 4.1-2.3 1.4-1.6 2.6-3.6 3.8-6.1v-10.8c-.8-.9-1.8-1.4-3-1.4-1.4 0-2.8.7-4 2.2-1.3 1.4-2.3 3.3-3 5.6-.8 2.3-1.1 4.6-1.1 6.8 0 1.9.2 3.4.8 4.4m37-37.5c-.7-1.5-1.7-2.2-2.9-2.2-1.4 0-2.9.9-4.2 2.6-1.4 1.7-2.6 4-3.7 6.8v32.6h-2.1V87.2h2.1v8q1.5-4.2 3.6-6.6c1.4-1.6 3.1-2.3 4.9-2.3 1.6 0 2.9.8 4 2.2 1 1.5 1.5 3.9 1.5 7.3v33.7h-2.1V96c0-2.7-.4-4.8-1.1-6.2m23 37.9c.8-1.2 1.3-2.8 1.3-4.9q0-2.85-.9-5.4c-.6-1.8-1.4-3.6-2.4-5.6l-4.4-9c-1.6-3.4-2.4-6.5-2.4-9.4 0-2.2.5-3.9 1.5-5.2q1.5-1.8 3.9-1.8c1.4 0 2.6.5 3.7 1.5s1.9 2.5 2.5 4.5l-1.8 1.9c-.3-2.4-.8-4.2-1.6-5.3s-1.8-1.7-3-1.7q-1.8 0-2.7 1.5t-.9 3.6c0 2.8.8 5.8 2.5 9l4.5 8.9c1 2 1.8 3.8 2.3 5.5s.8 3.5.8 5.6c0 2.9-.6 5.2-1.7 6.8s-2.6 2.3-4.5 2.3-3.6-.9-4.9-2.6c-1.4-1.7-2.4-4.3-3.1-7.8l2.2-1.4c.5 3.7 1.2 6.5 2.1 8.3s2.2 2.7 3.7 2.7c1.4-.2 2.5-.8 3.3-2m26.7-61.2h2.5v28.3h17V66.5h2.4v63H937V95.9h-16.9v33.6h-2.5v-63zm43.1 19.8c1.6 0 2.9.6 3.9 1.9q1.5 1.95 1.5 5.7v35.5h-2.2v-7.3c-1.1 2.6-2.3 4.6-3.7 6s-3 2.1-4.6 2.1c-1.5 0-2.7-.6-3.7-1.8q-1.5-1.8-1.5-5.4c0-2.5.5-4.9 1.5-7.3s2.3-4.4 4-5.9 3.3-2.3 5-2.3c1.3 0 2.3.5 3.1 1.5V94.7c0-2.7-.3-4.6-.8-5.8s-1.4-1.8-2.6-1.8c-3.2 0-5.5 3.5-6.8 10.5l-1.7-2.1c2-6.1 4.9-9.2 8.6-9.2m-7.2 41c.5 1.1 1.3 1.6 2.4 1.6 1.4 0 2.8-.8 4.1-2.3 1.4-1.6 2.6-3.6 3.8-6.1v-10.8c-.8-.9-1.8-1.4-3-1.4-1.4 0-2.8.7-4 2.2-1.3 1.4-2.3 3.3-3 5.6-.8 2.3-1.1 4.6-1.1 6.8 0 1.9.2 3.4.8 4.4m23.5-52.6c0-1.9.5-2.8 1.6-2.8.9 0 1.4.5 1.4 1.4 0 1.9-.5 2.9-1.4 2.9-1 0-1.6-.5-1.6-1.5m2.7 12.5v42.3h-2.1V87.2zm14.1 0v7.6c1.9-5.7 4.4-8.5 7.6-8.5.5 0 1 .1 1.7.2.7.2 1.2.3 1.6.6l-.8 2.2c-.4-.4-.9-.8-1.5-1.1s-1.2-.5-1.8-.5c-1.3 0-2.6.8-3.7 2.3-1.2 1.6-2.2 3.7-3.1 6.4v32.9h-2.2V87.2zm19.7-24.6v66.9h-2.1V62.6zm11.3 12.1c0-1.9.5-2.8 1.6-2.8.9 0 1.4.5 1.4 1.4 0 1.9-.5 2.9-1.4 2.9-1.1 0-1.6-.5-1.6-1.5m2.6 12.5v42.3h-2.1V87.2zm24.8 2.6c-.7-1.5-1.7-2.2-2.9-2.2-1.4 0-2.9.9-4.2 2.6-1.4 1.7-2.6 4-3.7 6.8v32.6h-2.1V87.2h2.1v8q1.5-4.2 3.6-6.6c1.4-1.6 3.1-2.3 4.9-2.3 1.6 0 2.9.8 4 2.2 1 1.5 1.5 3.9 1.5 7.3v33.7h-2.1V96c0-2.7-.4-4.8-1.1-6.2m15.5 35.9q-2.7-4.65-2.7-15c0-5.1.5-9.5 1.4-13.1.9-3.7 2.1-6.4 3.6-8.3s3.2-2.8 5-2.8c2.2 0 4.1 1.5 5.6 4.6s2.3 7.6 2.3 13.5h-15.4l-.2 5.4c0 6.2.7 11 2.1 14.1 1.4 3.2 3.1 4.8 5.3 4.8 1.5 0 2.9-.7 4.1-2s2.3-3.2 3.1-5.8l.5.4c-.9 2.8-2 5-3.4 6.6s-3 2.3-4.8 2.3c-2.5-.1-4.7-1.6-6.5-4.7m13-22.1c-.1-5.2-.6-9.3-1.6-12.1s-2.4-4.3-4.4-4.3c-1.8 0-3.4 1.5-4.7 4.4s-2.2 6.9-2.6 12zm-383 131c-2-2.5-3.3-6.3-4.2-11.3l1.9-2.6c.7 5.6 1.9 9.8 3.7 12.3q2.7 3.9 6.3 3.9c2 0 3.6-.8 4.9-2.5 1.3-1.6 1.9-4.2 1.9-7.7 0-4.6-1.6-10.1-4.8-16.6l-7-13.7c-1.3-2.4-2.2-4.8-2.9-7.2s-1-4.5-1-6.4c0-3 .8-5.3 2.5-7s3.7-2.5 6.1-2.5c2.2 0 4.1.7 5.9 2.2s3.1 3.6 3.8 6.5l-1.8 2.6c-.5-3.5-1.5-6-3.2-7.7-1.6-1.6-3.4-2.4-5.3-2.4-1.6 0-2.9.6-4 1.7s-1.7 2.7-1.7 4.9c0 3.1 1.5 7.6 4.5 13.4l7 13.4q2.4 4.5 3.6 9c.8 3 1.3 5.8 1.3 8.3 0 4.6-1 7.9-3.1 9.9-2 2-4.4 3.1-7.1 3.1-2.9.1-5.3-1.1-7.3-3.6m36.3-40.3c1.9 0 3.3.7 4.4 2s1.6 3.3 1.6 5.9v35.3h-3.1v-6.9c-2.2 5.2-4.9 7.7-8.4 7.7-1.6 0-2.8-.6-3.9-1.8-1-1.2-1.5-3.1-1.5-5.6q0-3.9 1.5-7.5c1-2.4 2.4-4.4 4-5.8 1.7-1.5 3.4-2.2 5.1-2.2 1.1 0 2.1.4 3.1 1.3V203c0-2.7-.3-4.6-.8-5.9-.5-1.2-1.3-1.8-2.5-1.8-1.6 0-2.9.9-3.9 2.6-1.1 1.7-1.9 4.4-2.6 7.8l-2.4-2.5c2.5-5.9 5.6-8.9 9.4-8.9m-7 40.6c.5 1.1 1.3 1.7 2.4 1.7 1.3 0 2.6-.7 4-2.2 1.3-1.4 2.5-3.4 3.5-5.8V218c-.9-1.1-2-1.6-3.1-1.6-1.3 0-2.6.7-3.7 2-1.2 1.3-2.1 3.1-2.8 5.2-.7 2.2-1 4.4-1 6.7-.1 1.9.2 3.5.7 4.6m26.9-39.7v7.6c.8-2.7 1.9-4.8 3.2-6.3s2.7-2.2 4.2-2.2q2.1 0 3.3.9l-1 3.1c-.4-.5-.9-1-1.5-1.3s-1.2-.5-1.8-.5c-1.2 0-2.4.8-3.5 2.2-1.1 1.5-2.1 3.5-2.9 6.1v32.6h-3.1v-42.3h3.1zm17.9 1.3h-4.3v-1.3h4.3v-12.7h3.2v12.7h6.8v1.3h-6.8v29.1c0 7.5 1 11.2 3.1 11.2 1.3 0 2.7-1.5 4.1-4.5l.4.4c-.8 1.9-1.6 3.4-2.4 4.3-.8 1-1.8 1.4-2.9 1.4-1.7 0-3-1-4-2.9s-1.5-4.8-1.5-8.6zm32.5 38.1c-2-2.5-3.3-6.3-4.2-11.3l1.9-2.6c.7 5.6 1.9 9.8 3.7 12.3q2.7 3.9 6.3 3.9c2 0 3.6-.8 4.9-2.5 1.3-1.6 1.9-4.2 1.9-7.7 0-4.6-1.6-10.1-4.8-16.6l-7-13.7c-1.3-2.4-2.2-4.8-2.9-7.2s-1-4.5-1-6.4c0-3 .8-5.3 2.5-7s3.7-2.5 6.1-2.5c2.2 0 4.1.7 5.9 2.2s3.1 3.6 3.8 6.5l-1.8 2.6c-.5-3.5-1.5-6-3.2-7.7-1.6-1.6-3.4-2.4-5.3-2.4-1.6 0-2.9.6-4 1.7s-1.7 2.7-1.7 4.9c0 3.1 1.5 7.6 4.5 13.4l7 13.4q2.4 4.5 3.6 9c.8 3 1.3 5.8 1.3 8.3 0 4.6-1 7.9-3.1 9.9-2 2-4.4 3.1-7.1 3.1-2.9.1-5.4-1.1-7.3-3.6m36.2-40.3c1.9 0 3.3.7 4.4 2s1.6 3.3 1.6 5.9v35.3h-3.1v-6.9c-2.2 5.2-4.9 7.7-8.4 7.7-1.6 0-2.8-.6-3.9-1.8-1-1.2-1.5-3.1-1.5-5.6q0-3.9 1.5-7.5c1-2.4 2.4-4.4 4-5.8 1.7-1.5 3.4-2.2 5.1-2.2 1.1 0 2.1.4 3.1 1.3V203c0-2.7-.3-4.6-.8-5.9-.5-1.2-1.3-1.8-2.5-1.8-1.6 0-2.9.9-3.9 2.6-1.1 1.7-1.9 4.4-2.6 7.8l-2.4-2.5c2.6-5.9 5.6-8.9 9.4-8.9m-6.9 40.6c.5 1.1 1.3 1.7 2.4 1.7 1.3 0 2.6-.7 4-2.2 1.3-1.4 2.5-3.4 3.5-5.8V218c-.9-1.1-2-1.6-3.1-1.6-1.3 0-2.6.7-3.7 2-1.2 1.3-2.1 3.1-2.8 5.2-.7 2.2-1 4.4-1 6.7-.1 1.9.1 3.5.7 4.6m37-36.8c-.7-1.5-1.6-2.3-2.8-2.3-1.4 0-2.7.8-4.1 2.5-1.3 1.7-2.5 3.8-3.4 6.4v32.8h-3v-42.3h3v7.5c.9-2.6 2.1-4.6 3.5-6.1s3.1-2.2 4.9-2.2c1.7 0 3.2.8 4.2 2.4 1.1 1.6 1.6 4.2 1.6 7.8v33h-2.9v-32.8c.1-3-.3-5.1-1-6.7m23.8 37.4c.8-1.1 1.3-2.7 1.3-4.7 0-3.2-1.2-6.8-3.5-11l-4.6-8.7c-.8-1.4-1.4-2.9-1.9-4.6s-.7-3.3-.7-4.9c0-2.3.6-4.1 1.7-5.4s2.6-1.9 4.4-1.9c1.4 0 2.7.5 3.9 1.4s2.1 2.2 2.9 4l-2.2 2.8c-.7-4.7-2.3-7.1-4.9-7.1-1.2 0-2.1.5-2.7 1.4s-.9 2.1-.9 3.5.3 2.9.8 4.5 1.2 3.1 2.1 4.6l4.7 8.6c1.1 2 2 3.8 2.5 5.5s.8 3.5.8 5.6c0 3-.6 5.3-1.9 6.9s-3 2.4-5 2.4c-4 0-6.9-3.3-8.7-9.8l2.7-2.3c.5 3.7 1.3 6.5 2.3 8.3q1.5 2.7 3.9 2.7c1.1-.2 2.2-.7 3-1.8m35.3-60h-11.9v-1.4h27v1.4h-11.8v62h-3.3zm37.1 22.7c-.7-1.5-1.6-2.3-2.8-2.3-1.4 0-2.7.9-4 2.7s-2.4 4-3.3 6.7v32.2h-3.1v-66.9h3.1v32.5c1-2.8 2.1-4.9 3.6-6.4 1.4-1.5 3-2.3 4.8-2.3s3.2.8 4.3 2.3c1.1 1.6 1.6 4.1 1.6 7.7v33h-3.1v-32.8c0-2.7-.4-4.9-1.1-6.4m14.5-15.6c0-1.1.2-1.9.5-2.4s.9-.8 1.5-.8c1.2 0 1.8.6 1.8 1.9 0 2.2-.6 3.3-1.9 3.3s-1.9-.7-1.9-2m3.5 12.6v42.3h-3v-42.3zm24.4 2.9c-.7-1.5-1.6-2.3-2.8-2.3-1.4 0-2.7.8-4.1 2.5-1.3 1.7-2.5 3.8-3.4 6.4v32.8h-3v-42.3h3v7.5c.9-2.6 2.1-4.6 3.5-6.1s3.1-2.2 4.9-2.2c1.7 0 3.2.8 4.2 2.4 1.1 1.6 1.6 4.2 1.6 7.8v33h-2.9v-32.8c.1-3-.3-5.1-1-6.7M698 342.7c-2-2.4-3.6-6-4.7-10.7l2.6-3.7c.7 5.6 2 9.8 3.8 12.3 1.8 2.6 3.9 3.9 6.2 3.9 1.9 0 3.4-.8 4.5-2.3 1.2-1.6 1.8-4 1.8-7.4 0-2.5-.4-5-1.3-7.7s-2.1-5.6-3.7-8.8l-6.9-13.7c-2.6-5.2-3.9-9.7-3.9-13.6 0-3.1.9-5.4 2.6-7.1s3.9-2.5 6.5-2.5c2.2 0 4.1.7 5.9 2s3.1 3.2 4 5.8l-2.2 3.6c-.6-3.4-1.7-5.9-3.2-7.5q-2.25-2.4-5.1-2.4c-1.4 0-2.7.5-3.8 1.6s-1.6 2.6-1.6 4.5c0 3.2 1.5 7.7 4.6 13.4l7 13.4c1.6 3 2.8 6 3.7 9 .8 3 1.3 5.8 1.3 8.3 0 4.6-1.1 8-3.3 10.1s-4.7 3.1-7.5 3.1c-2.9 0-5.3-1.2-7.3-3.6m36.5-40.4c2 0 3.7.7 4.9 2.1s1.8 3.4 1.8 6.1v35h-3.9v-6.6c-1 2.3-2.1 4.1-3.6 5.4-1.4 1.3-3 2-4.8 2-1.7 0-3-.6-4.1-1.8-1-1.2-1.6-3.1-1.6-5.7 0-2.7.5-5.2 1.6-7.7 1.1-2.4 2.5-4.3 4.1-5.8 1.7-1.4 3.4-2.2 5.2-2.2 1.1 0 2.2.4 3.1 1.1v-12.9c0-2.8-.2-4.7-.7-5.9q-.75-1.8-2.4-1.8c-1.5 0-2.7.9-3.7 2.6s-1.8 4.3-2.5 7.8l-3-2.9c2.4-5.9 5.6-8.8 9.6-8.8m-4.2 41.9c1.3 0 2.6-.7 3.8-2.1s2.3-3.2 3.2-5.4v-10.5c-.9-1.1-2-1.7-3.3-1.7s-2.4.6-3.5 1.8c-1 1.2-1.9 2.8-2.5 4.8s-.9 4.2-.9 6.5c-.1 4.4 1 6.6 3.2 6.6m25-41v7.2q2.55-8.1 7.2-8.1.75 0 1.8.3c.6.2 1.2.4 1.6.7l-1.3 4q-.6-.9-1.5-1.5t-1.8-.6c-1.1 0-2.2.6-3.2 1.9s-1.9 3.1-2.7 5.5v32.8h-4v-42.3h3.9zm17.4 1.5h-4.2v-1.5h4.2v-12.7h3.9v12.7h6.8v1.5h-6.8v28.8c0 7.3 1 10.9 3.1 10.9 1.4 0 2.8-1.4 4.2-4.3l.6.6c-.8 1.9-1.7 3.3-2.6 4.2s-1.9 1.4-3.1 1.4c-1.9 0-3.3-1-4.5-2.9-1.1-1.9-1.7-4.8-1.7-8.6v-30.1zm33.5 38c-2-2.4-3.6-6-4.7-10.7l2.6-3.7c.7 5.6 2 9.8 3.8 12.3 1.8 2.6 3.9 3.9 6.2 3.9 1.9 0 3.4-.8 4.5-2.3 1.2-1.6 1.8-4 1.8-7.4 0-2.5-.4-5-1.3-7.7s-2.1-5.6-3.7-8.8l-6.9-13.7c-2.6-5.2-3.9-9.7-3.9-13.6 0-3.1.9-5.4 2.6-7.1s3.9-2.5 6.5-2.5c2.2 0 4.1.7 5.9 2s3.1 3.2 4 5.8l-2.2 3.6c-.6-3.4-1.7-5.9-3.2-7.5q-2.25-2.4-5.1-2.4c-1.4 0-2.7.5-3.8 1.6s-1.6 2.6-1.6 4.5c0 3.2 1.5 7.7 4.6 13.4l7 13.4c1.6 3 2.8 6 3.7 9 .8 3 1.3 5.8 1.3 8.3 0 4.6-1.1 8-3.3 10.1s-4.7 3.1-7.5 3.1-5.2-1.2-7.3-3.6m36.6-40.4c2 0 3.7.7 4.9 2.1s1.8 3.4 1.8 6.1v35h-3.9v-6.6c-1 2.3-2.1 4.1-3.6 5.4-1.4 1.3-3 2-4.8 2-1.7 0-3-.6-4.1-1.8-1-1.2-1.6-3.1-1.6-5.7 0-2.7.5-5.2 1.6-7.7 1.1-2.4 2.5-4.3 4.1-5.8 1.7-1.4 3.4-2.2 5.2-2.2 1.1 0 2.2.4 3.1 1.1v-12.9c0-2.8-.2-4.7-.7-5.9q-.75-1.8-2.4-1.8c-1.5 0-2.7.9-3.7 2.6s-1.8 4.3-2.5 7.8l-3-2.9c2.4-5.9 5.5-8.8 9.6-8.8m-4.3 41.9c1.3 0 2.6-.7 3.8-2.1s2.3-3.2 3.2-5.4v-10.5c-.9-1.1-2-1.7-3.3-1.7s-2.4.6-3.5 1.8c-1 1.2-1.9 2.8-2.5 4.8s-.9 4.2-.9 6.5c0 4.4 1.1 6.6 3.2 6.6m34.8-37.7c-.7-1.6-1.6-2.4-2.8-2.4-1.3 0-2.6.8-3.8 2.4s-2.3 3.6-3.2 6v32.9h-3.9v-42.3h3.9v6.9c1.9-5.2 4.7-7.8 8.3-7.8 4.2 0 6.3 3.6 6.3 10.9v32.3h-3.8v-32.1c0-2.9-.4-5.2-1-6.8m24.4 36.7c.9-1 1.3-2.6 1.3-4.5 0-3.1-1.3-6.8-3.8-10.9l-4.9-8.5c-.8-1.4-1.5-3-2-4.7s-.8-3.3-.8-4.8c0-2.3.6-4.1 1.9-5.5q1.95-2.1 4.8-2.1c1.4 0 2.8.4 4.1 1.3 1.3.8 2.4 2.1 3.4 3.7l-2.8 3.6c-.8-4.7-2.6-7.1-5.1-7.1-1.1 0-2 .4-2.7 1.3-.6.8-.9 1.9-.9 3.2q0 2.1.9 4.5c.6 1.6 1.3 3.1 2.2 4.6l4.9 8.4c1.3 2 2.2 3.8 2.7 5.5.6 1.7.9 3.6.9 5.5 0 3.1-.7 5.4-2.2 7.1-1.4 1.7-3.3 2.5-5.5 2.5-2 0-3.8-.8-5.4-2.3-1.6-1.6-2.9-3.9-4-7l3.1-3.2c.6 3.7 1.4 6.5 2.5 8.3 1 1.8 2.4 2.7 4 2.7 1.5 0 2.5-.5 3.4-1.6m26.7-61h4.2v61.6h19v1.6h-23.2zm30.7 8.3q0-1.65.6-2.7.6-.9 1.8-.9c1.4 0 2.2.8 2.2 2.2 0 2.5-.8 3.7-2.2 3.7-1.6 0-2.4-.7-2.4-2.3m4.3 12.7v42.3h-3.9v-42.3zm24.3 2.1c1.8 2.1 2.7 5 2.7 8.6 0 4.4-.8 7.8-2.5 10.1s-3.9 3.5-6.6 3.8l-2.2 5.9c9.2 4.5 13.9 10.6 13.9 18.3 0 3.2-.6 6.2-1.8 8.9s-2.8 4.8-4.9 6.3c-2 1.5-4.3 2.3-6.8 2.3-3.2 0-5.7-.9-7.2-2.7-1.6-1.8-2.4-4.5-2.4-7.9 0-2.8.7-5.6 2.1-8.5q2.1-4.2 6.9-9.3l.8.6c-2.1 2.8-3.6 5.4-4.6 7.7s-1.4 4.8-1.4 7.4c0 3.1.6 5.7 1.9 7.8s3 3.2 5.3 3.2c1.7 0 3.4-.6 4.9-1.8s2.7-2.9 3.6-5 1.3-4.6 1.3-7.3c0-3.7-1.3-7-4-9.9-2.6-2.8-6.8-5.4-12.6-7.6l1.4-4 2.2.9 2.1-5.2q-3.45-.3-5.7-3.3c-1.5-2-2.2-4.7-2.2-8.1 0-4.4.9-7.9 2.7-10.3 1.8-2.5 4.1-3.7 6.9-3.7 2.1 0 3.9.7 5.5 2.1 1.1-3 2.4-5.6 3.7-7.7l2.8 2.9c-2.4 1.4-4.3 3.3-5.8 5.5m-.9 10.6c0-3.6-.6-6.5-1.7-8.8s-2.6-3.4-4.5-3.4c-1.7 0-3 1-3.9 2.9-.8 2-1.3 4.7-1.3 8.2 0 3.4.5 6.2 1.4 8.4 1 2.2 2.4 3.2 4.3 3.2q5.7 0 5.7-10.5m25.9-9.3c-.7-1.6-1.6-2.4-2.8-2.4-1.3 0-2.6.8-3.8 2.5s-2.2 3.8-3.2 6.4v32.4h-4v-66.9h4v31.9c.9-2.5 2.1-4.5 3.5-5.9s3-2.2 4.8-2.2c4.3 0 6.4 3.6 6.4 10.8v32.3h-4v-32.1c.1-3-.2-5.2-.9-6.8m15.9-1.9h-4.2v-1.5h4.2v-12.7h3.9v12.7h6.8v1.5h-6.8v28.8c0 7.3 1 10.9 3.1 10.9 1.4 0 2.8-1.4 4.2-4.3l.6.6c-.8 1.9-1.7 3.3-2.6 4.2s-1.9 1.4-3.1 1.4c-1.9 0-3.3-1-4.5-2.9-1.1-1.9-1.7-4.8-1.7-8.6v-30.1zM698.4 451.1c-2.1-2.2-3.9-5.6-5.3-10.1l3.7-5.1c.8 5.5 2.1 9.6 3.9 12.1q2.7 3.9 6 3.9c1.7 0 3.1-.7 4.1-2.2 1.1-1.4 1.6-3.7 1.6-6.9 0-2.3-.4-4.7-1.3-7s-2.3-5.4-4.2-9.2l-6.8-13.7c-1.1-2.3-2-4.7-2.7-7.1s-1-4.6-1-6.5c0-3.1.9-5.5 2.6-7.2s4.1-2.6 6.9-2.6c2.2 0 4.1.5 5.9 1.6s3.3 2.6 4.5 4.6l-2.9 5.1c-.7-3.4-1.8-5.8-3.2-7.3s-3.1-2.2-4.9-2.2c-1.3 0-2.4.5-3.4 1.4-.9.9-1.4 2.3-1.4 4.1q0 4.8 4.5 13.2l7 13.4c3.5 6.6 5.2 12.3 5.2 17.1 0 4.9-1.2 8.4-3.6 10.6q-3.6 3.3-8.1 3.3c-2.6 0-5-1.1-7.1-3.3m37.3-40.8c2.3 0 4.1.7 5.5 2.2q2.1 2.25 2.1 6.3v34.7h-5.1v-5.9c-.8 2.1-2 3.8-3.4 5s-3 1.8-4.9 1.8-3.3-.6-4.4-1.9-1.6-3.3-1.6-6.1c0-2.9.5-5.5 1.6-7.9s2.5-4.2 4.3-5.6c1.8-1.3 3.6-2 5.4-2 1 0 2 .3 3 .8v-11.9c0-2.8-.2-4.7-.7-5.9s-1.2-1.8-2.4-1.8c-1.4 0-2.6.8-3.5 2.5s-1.6 4.2-2.2 7.8l-4-3.6c2.5-5.7 5.9-8.5 10.3-8.5m-3.9 41.4c1.2 0 2.4-.6 3.5-1.8s2.1-2.8 2.8-4.8v-10.5q-1.5-2.1-3.6-2.1-2.55 0-4.2 3.3c-1.1 2.2-1.7 5.1-1.7 8.7 0 4.8 1 7.2 3.2 7.2m25.7-40.5v7.1c1.7-5.3 4-7.9 6.9-7.9 1.4 0 2.5.3 3.3 1l-1.7 5.2c-.4-.7-.9-1.3-1.5-1.7q-.9-.6-1.8-.6c-1 0-2 .6-2.9 1.8s-1.7 2.8-2.3 5v32.5h-5.1v-42.3h5.1zm16.7 2.1h-4v-2.1h4v-12.7h5.2v12.7h6.8v2.1h-6.8v28.3c0 3.6.2 6.2.7 7.9s1.3 2.5 2.3 2.5c1.3 0 2.7-1.3 4.2-4l.8.9c-.9 1.9-1.8 3.2-2.8 4.1s-2.1 1.3-3.4 1.3c-2.2 0-3.9-1-5.2-2.9s-1.9-4.8-1.9-8.5v-29.6zm34.9 37.8c-2.1-2.2-3.9-5.6-5.3-10.1l3.7-5.1c.8 5.5 2.1 9.6 3.9 12.1q2.7 3.9 6 3.9c1.7 0 3.1-.7 4.1-2.2 1.1-1.4 1.6-3.7 1.6-6.9 0-2.3-.4-4.7-1.3-7s-2.3-5.4-4.2-9.2l-6.8-13.7c-1.1-2.3-2-4.7-2.7-7.1s-1-4.6-1-6.5c0-3.1.9-5.5 2.6-7.2s4.1-2.6 6.9-2.6c2.2 0 4.1.5 5.9 1.6s3.3 2.6 4.5 4.6l-2.9 5.1c-.7-3.4-1.8-5.8-3.2-7.3s-3.1-2.2-4.9-2.2c-1.3 0-2.4.5-3.4 1.4-.9.9-1.4 2.3-1.4 4.1q0 4.8 4.5 13.2l7 13.4c3.5 6.6 5.2 12.3 5.2 17.1 0 4.9-1.2 8.4-3.6 10.6q-3.6 3.3-8.1 3.3c-2.6 0-5-1.1-7.1-3.3m37.3-40.8c2.3 0 4.1.7 5.5 2.2q2.1 2.25 2.1 6.3v34.7h-5.1v-5.9c-.8 2.1-2 3.8-3.4 5s-3 1.8-4.9 1.8-3.3-.6-4.4-1.9-1.6-3.3-1.6-6.1c0-2.9.5-5.5 1.6-7.9s2.5-4.2 4.3-5.6c1.8-1.3 3.6-2 5.4-2 1 0 2 .3 3 .8v-11.9c0-2.8-.2-4.7-.7-5.9s-1.2-1.8-2.4-1.8c-1.4 0-2.6.8-3.5 2.5s-1.6 4.2-2.2 7.8l-4-3.6c2.5-5.7 5.9-8.5 10.3-8.5m-3.9 41.4c1.2 0 2.4-.6 3.5-1.8s2.1-2.8 2.8-4.8v-10.5q-1.5-2.1-3.6-2.1-2.55 0-4.2 3.3c-1.1 2.2-1.7 5.1-1.7 8.7-.1 4.8 1 7.2 3.2 7.2m34.8-36.7c-.6-1.7-1.5-2.6-2.7-2.6q-1.95 0-3.6 2.4c-1.1 1.6-2.1 3.5-2.8 5.6v33h-5v-42.3h5v6.4c.8-2.2 1.9-4 3.2-5.3 1.4-1.3 3.1-2 5-2 4.6 0 6.8 4 6.8 11.9v31.3h-5v-31.1c0-3.1-.3-5.6-.9-7.3m25.5 35.8c.9-1 1.3-2.5 1.3-4.3q0-4.65-4.2-10.8l-5-7.9c-.9-1.4-1.6-3-2.2-4.7q-.9-2.55-.9-4.8c0-2.4.7-4.3 2.2-5.7s3.3-2.1 5.5-2.1c1.5 0 3 .3 4.4 1q2.1 1.05 3.9 3l-3.4 4.9c-.4-2.3-1.1-4-2.1-5.3-1-1.2-2.1-1.8-3.4-1.8q-1.65 0-2.7 1.2c-.7.8-1 1.8-1 3 0 1.3.3 2.7 1 4.3s1.5 3.2 2.6 4.8l5.2 8c1.4 2 2.4 3.9 3.1 5.7.7 1.7 1 3.5 1 5.4 0 3.1-.9 5.5-2.6 7.2s-3.8 2.6-6.2 2.6c-4.3 0-7.8-2.8-10.5-8.5l3.9-4.6c1.3 7.4 3.6 11.2 6.9 11.2 1.2-.3 2.3-.8 3.2-1.8m29.1.3c-2.1-2.2-3.9-5.6-5.3-10.1l3.7-5.1c.8 5.5 2.1 9.6 3.9 12.1q2.7 3.9 6 3.9c1.7 0 3.1-.7 4.1-2.2 1.1-1.4 1.6-3.7 1.6-6.9 0-2.3-.4-4.7-1.3-7s-2.3-5.4-4.2-9.2l-6.8-13.7c-1.1-2.3-2-4.7-2.7-7.1s-1-4.6-1-6.5c0-3.1.9-5.5 2.6-7.2s4.1-2.6 6.9-2.6c2.2 0 4.1.5 5.9 1.6s3.3 2.6 4.5 4.6l-2.9 5.1c-.7-3.4-1.8-5.8-3.2-7.3s-3.1-2.2-4.9-2.2c-1.3 0-2.4.5-3.4 1.4-.9.9-1.4 2.3-1.4 4.1q0 4.8 4.5 13.2l7 13.4c3.5 6.6 5.2 12.3 5.2 17.1 0 4.9-1.2 8.4-3.6 10.6q-3.6 3.3-8.1 3.3c-2.5 0-5-1.1-7.1-3.3m25.4-15.2c0-5.4.5-10 1.5-13.9 1-3.8 2.4-6.7 4.1-8.7 1.7-1.9 3.6-2.9 5.6-2.9q3.9 0 6.6 4.8c1.8 3.2 2.7 7.8 2.7 13.9h-15.2c-.1 2.5-.2 4.5-.2 6 0 5.6.6 9.8 1.7 12.5 1.1 2.8 2.7 4.1 4.7 4.1q5.1 0 7.8-6.6l1 .5c-2.2 5.8-5.6 8.7-10.3 8.7-6.6.1-10-6.1-10-18.4m16.1-8.9c-.1-4.7-.5-8.3-1.3-10.9q-1.2-3.9-3.3-3.9c-1.4 0-2.7 1.3-3.8 4-1.1 2.6-1.8 6.2-2.2 10.8zm26.2-11.9c-.6-1.7-1.5-2.5-2.7-2.5-1.1 0-2.2.8-3.2 2.2-1 1.5-1.9 3.3-2.6 5.4v33.3H986v-42.3h5.1v6.1c.8-2.1 1.8-3.8 3.1-5 1.3-1.3 2.8-1.9 4.6-1.9 3.4 0 5.6 2.2 6.5 6.7 1.9-4.4 4.6-6.7 8-6.7 4.5 0 6.8 3.9 6.8 11.8v31.3h-5.2v-31.1c0-3.2-.3-5.6-.9-7.3s-1.4-2.5-2.6-2.5c-1.1 0-2.2.6-3.2 1.8s-1.9 2.7-2.6 4.5c.1 1.3.2 2.4.2 3.2v31.3h-5.2v-31.1c-.1-3.1-.4-5.6-1-7.2m29.1-16.8c0-2.8 1-4.2 3.1-4.2 1.9 0 2.9 1 2.9 2.9 0 2.9-1 4.4-3 4.4s-3-1-3-3.1m5.6 12.9v42.3h-5v-42.3zm14.6-24.6v66.9h-5v-66.9zm9 11.7c0-2.8 1-4.2 3.1-4.2 1.9 0 2.9 1 2.9 2.9 0 2.9-1 4.4-3 4.4-2.1 0-3-1-3-3.1m5.5 12.9v42.3h-5v-42.3zm25 2c1.9 2.1 2.9 5 2.9 8.6q0 6.45-2.7 9.9c-1.8 2.3-4 3.6-6.8 4l-2.2 5.6c9.5 4.2 14.2 10.1 14.2 17.6 0 3.4-.6 6.4-1.9 9.3-1.3 2.8-3 5.1-5.2 6.7s-4.7 2.5-7.3 2.5q-4.95 0-7.5-2.7c-1.7-1.8-2.5-4.4-2.5-7.7 0-2.7.7-5.4 2.2-8.2s3.8-5.8 7-9.2l1 .7c-1.9 2.5-3.2 4.8-4 7.1-.8 2.2-1.3 4.6-1.3 7.2 0 2.9.7 5.4 2 7.5s3.1 3.1 5.4 3.1c1.5 0 3-.6 4.4-1.7s2.5-2.7 3.4-4.8c.9-2 1.3-4.4 1.3-6.9 0-3.7-1.3-6.9-4-9.6q-4.05-4.05-13.2-6.9l1.9-5.7 2.3.9 1.8-4.7c-2.5-.2-4.6-1.3-6.2-3.3q-2.4-3-2.4-8.1c0-4.4 1-7.9 3.1-10.4 2-2.5 4.6-3.7 7.7-3.7 2.1 0 3.9.6 5.5 1.8 1-2.6 2.2-5.2 3.7-7.7l3.6 3.6c-2.6 1.3-4.6 3.1-6.2 5.2m-1.8 11.2c0-3.7-.6-6.6-1.7-9-1.1-2.3-2.6-3.5-4.4-3.5-1.6 0-2.7.9-3.5 2.7s-1.2 4.3-1.2 7.6c0 3.4.5 6.2 1.4 8.4 1 2.2 2.4 3.3 4.3 3.3 3.4.1 5.1-3.1 5.1-9.5m26.9-9.3c-.6-1.7-1.5-2.6-2.7-2.6-1.3 0-2.5.8-3.6 2.5s-2.1 3.6-2.8 6v32.5h-5.1v-66.9h5.1v31.3c.8-2.3 1.9-4.1 3.2-5.5 1.4-1.4 3.1-2.1 5-2.1 2.1 0 3.8.9 5 2.7 1.3 1.8 1.9 4.8 1.9 9v31.3h-5.1v-31.1c.1-3-.3-5.4-.9-7.1m16-1.8h-4v-2.1h4v-12.7h5.2v12.7h6.8v2.1h-6.8v28.3c0 3.6.2 6.2.7 7.9s1.3 2.5 2.3 2.5c1.3 0 2.7-1.3 4.2-4l.8.9c-.9 1.9-1.8 3.2-2.8 4.1s-2.1 1.3-3.4 1.3c-2.2 0-3.9-1-5.2-2.9s-1.9-4.8-1.9-8.5v-29.6zm-430.7 146c-2.3-2.1-4.2-5.2-5.9-9.3l4.7-6.7c.8 5.5 2.1 9.6 3.9 12.1q2.7 3.9 6 3.9c1.6 0 2.8-.7 3.7-2 .9-1.4 1.4-3.5 1.4-6.4 0-2-.4-3.9-1.1-5.9-.8-1.9-1.9-4.5-3.5-7.6l-1.3-2.5-6.8-13.7c-1.1-2.3-1.9-4.6-2.5-7q-.9-3.6-.9-6.6c0-3.2.9-5.7 2.7-7.4s4.2-2.6 7.4-2.6c4.1 0 7.6 1.6 10.7 4.7l-3.6 6.7c-1.6-6.1-4.2-9.2-7.8-9.2q-1.65 0-3 1.2c-.8.8-1.3 2-1.3 3.6 0 3.1 1.5 7.4 4.6 13.1l7 13.4c3.6 6.7 5.4 12.4 5.4 16.9 0 5-1.3 8.7-3.8 10.9-2.6 2.2-5.4 3.4-8.7 3.4-2.6.1-5.1-.9-7.3-3m31.7-39c1.8-1.3 3.8-2 6.2-2 2.6 0 4.6.8 6.2 2.3s2.3 3.7 2.3 6.6v34.3h-6.4v-5.4c-.8 1.9-2 3.5-3.3 4.6-1.4 1.1-3 1.7-4.9 1.7-2 0-3.5-.7-4.7-2-1.1-1.3-1.7-3.4-1.7-6.3 0-3.1.6-5.8 1.7-8.1s2.6-4.2 4.4-5.4c1.8-1.3 3.7-1.9 5.7-1.9 1 0 1.9.2 2.9.5v-10.8c0-2.8-.2-4.8-.7-6s-1.2-1.8-2.3-1.8c-1.3 0-2.3.8-3.1 2.4s-1.5 4.2-2 7.7l-5-4.2c1.3-2.9 2.9-4.9 4.7-6.2m2.6 38.9c1.1 0 2.2-.6 3.2-1.7s1.8-2.5 2.5-4.3V543q-1.65-2.4-3.9-2.4c-1.4 0-2.6.9-3.6 2.8s-1.4 4.6-1.4 8.2c0 5 1.1 7.6 3.2 7.6m26.6-40v6.8c1.6-5.1 3.8-7.7 6.7-7.7 1.3 0 2.4.4 3.3 1.1l-2.1 6.6q-.6-1.35-1.5-2.1c-.6-.5-1.2-.7-1.9-.7-1.7 0-3.2 2-4.5 5.8v32.4h-6.4v-42.3h6.4zm16 2.5h-3.8v-2.5h3.8v-12.7h6.4v12.7h6.8v2.5h-6.8v27.8c0 3.4.2 5.9.7 7.5.4 1.6 1.2 2.3 2.4 2.3 1.3 0 2.8-1.2 4.3-3.6l1 1.2c-1 1.8-2 3.1-3 4-1.1.9-2.3 1.3-3.6 1.3-2.5 0-4.4-1-5.9-2.9s-2.2-4.8-2.2-8.5v-29.1zm36.3 37.6c-2.3-2.1-4.2-5.2-5.9-9.3l4.7-6.7c.8 5.5 2.1 9.6 3.9 12.1q2.7 3.9 6 3.9c1.6 0 2.8-.7 3.7-2 .9-1.4 1.4-3.5 1.4-6.4 0-2-.4-3.9-1.1-5.9-.8-1.9-1.9-4.5-3.5-7.6l-1.3-2.5-6.8-13.7c-1.1-2.3-1.9-4.6-2.5-7q-.9-3.6-.9-6.6c0-3.2.9-5.7 2.7-7.4s4.2-2.6 7.4-2.6c4.1 0 7.6 1.6 10.7 4.7l-3.6 6.7c-1.6-6.1-4.2-9.2-7.8-9.2q-1.65 0-3 1.2c-.8.8-1.3 2-1.3 3.6 0 3.1 1.5 7.4 4.6 13.1l7 13.4c3.6 6.7 5.4 12.4 5.4 16.9 0 5-1.3 8.7-3.8 10.9-2.6 2.2-5.4 3.4-8.7 3.4-2.6.1-5-.9-7.3-3m31.7-39c1.8-1.3 3.8-2 6.2-2 2.6 0 4.6.8 6.2 2.3s2.3 3.7 2.3 6.6v34.3H852v-5.4c-.8 1.9-2 3.5-3.3 4.6-1.4 1.1-3 1.7-4.9 1.7-2 0-3.5-.7-4.7-2-1.1-1.3-1.7-3.4-1.7-6.3 0-3.1.6-5.8 1.7-8.1s2.6-4.2 4.4-5.4c1.8-1.3 3.7-1.9 5.7-1.9 1 0 1.9.2 2.9.5v-10.8c0-2.8-.2-4.8-.7-6s-1.2-1.8-2.3-1.8c-1.3 0-2.3.8-3.1 2.4s-1.5 4.2-2 7.7l-5-4.2c1.4-2.9 2.9-4.9 4.7-6.2m2.7 38.9c1.1 0 2.2-.6 3.2-1.7s1.8-2.5 2.5-4.3V543q-1.65-2.4-3.9-2.4c-1.4 0-2.6.9-3.6 2.8s-1.4 4.6-1.4 8.2c-.1 5 1 7.6 3.2 7.6m34.8-35.6q-.9-2.7-2.7-2.7c-1.1 0-2.2.8-3.2 2.2q-1.5 2.25-2.4 5.1v33.3h-6.4v-42.3h6.4v5.5c.7-1.9 1.8-3.5 3.1-4.6 1.4-1.2 3-1.8 5-1.8q7.5 0 7.5 12.9v30.3h-6.3v-30.2c0-3.3-.3-5.9-1-7.7m26.6 34.8c.9-.9 1.4-2.3 1.4-4.1 0-2.9-1.5-6.5-4.6-10.6l-5.4-7.5q-1.5-2.1-2.4-4.8c-.6-1.8-.9-3.3-.9-4.7 0-2.5.8-4.5 2.5-6s3.8-2.3 6.3-2.3c1.5 0 3.1.3 4.7.9s3.1 1.4 4.5 2.5l-4.1 6.1c-.5-2.3-1.3-4-2.4-5.3s-2.2-1.9-3.6-1.9c-1.1 0-2 .3-2.7 1s-1 1.6-1 2.7c0 1.3.4 2.7 1.1 4.4s1.7 3.3 2.9 4.8l5.6 7.6c1.6 2.1 2.7 4 3.4 5.8.7 1.7 1 3.5 1 5.3 0 3.2-1 5.7-2.9 7.5-2 1.8-4.2 2.7-6.9 2.7-4.4 0-8.2-2.6-11.5-7.8l4.5-5.9c1.5 7.4 4 11.2 7.4 11.2 1.1-.2 2.2-.7 3.1-1.6m33.5-54.7c1.1-2.1 2.4-3.6 3.9-4.6s3.2-1.5 5.2-1.5c2.9 0 5.4 1.2 7.4 3.5s3 6.1 3 11.2c0 4.7-.9 8.5-2.7 11.6-1.8 3-4.1 5.1-6.8 6.3l11.5 30.2-6.8 2.5-11-31.9c-1.6-.1-2.8-.4-3.8-.7v31.3h-6.8v-63h6.8v5.1zm6.4 25.8c1.1 0 2.1-.6 3.1-1.8q1.5-1.8 2.4-5.7c.6-2.6.9-5.8.9-9.5 0-8.5-1.9-12.7-5.6-12.7-1.4 0-2.7.6-4 1.8s-2.3 2.8-3.2 4.9v19.4c2 2.4 4.1 3.6 6.4 3.6m20.9 29c-1.9-2.6-2.9-7.3-2.9-14.1 0-5.5.5-10.2 1.6-14.1s2.5-6.9 4.3-8.9 3.8-3 5.9-3c2.8 0 5.2 1.6 7.1 4.8s2.8 7.9 2.8 14.1h-15.2c-.1 2.6-.2 4.7-.2 6.3 0 5.2.5 9.1 1.6 11.7s2.5 3.9 4.4 3.9q5.4 0 8.1-6l1.3.5c-2.3 5.8-6.1 8.6-11.2 8.6-3.2.1-5.7-1.2-7.6-3.8m13.4-23.7c-.1-4.4-.4-7.9-1.1-10.3-.7-2.5-1.7-3.7-2.9-3.7s-2.4 1.2-3.3 3.7c-1 2.5-1.7 5.9-2.2 10.3zm29.8-13.6c2 2.2 3.1 5 3.1 8.6 0 4.2-.9 7.5-2.8 9.8s-4.3 3.7-7.2 4.1l-2 5.1c5.2 2.1 8.9 4.6 11.2 7.6q3.3 4.5 3.3 9.6c0 3.5-.7 6.8-2 9.7s-3.2 5.3-5.5 7-4.8 2.6-7.6 2.6q-5.25 0-7.8-2.7c-1.7-1.8-2.6-4.3-2.6-7.6 0-2.6.7-5.2 2.2-7.9s3.8-5.7 7.1-9l1.3.8c-1.6 2.2-2.7 4.3-3.5 6.4s-1.1 4.4-1.1 6.8c0 2.8.7 5.2 2 7.2s3.2 3.1 5.5 3.1c1.3 0 2.6-.5 4-1.6 1.3-1.1 2.4-2.6 3.2-4.5.8-2 1.3-4.1 1.3-6.5 0-3.7-1.4-6.7-4.2-9.2q-4.2-3.75-13.8-6.3l2.3-7.1 2.4.7 1.5-4.1c-2.6-.2-4.8-1.4-6.5-3.4s-2.5-4.7-2.5-8c0-4.4 1.1-7.9 3.3-10.4s5-3.7 8.4-3.7c2 0 3.8.5 5.5 1.5 1-2.8 2.2-5.4 3.7-7.8l4.4 4.4q-4.05 1.8-6.6 4.8m-2.7 11.8c0-3.7-.6-6.7-1.7-9-1.1-2.4-2.6-3.6-4.4-3.6-1.4 0-2.4.8-3.1 2.5s-1.1 3.9-1.1 6.9c0 3.5.5 6.3 1.4 8.5 1 2.2 2.4 3.3 4.3 3.3 3.1-.1 4.6-2.9 4.6-8.6m12.6 16.5v-30.3h6.4v30.1c0 3.4.3 5.9.9 7.7s1.5 2.7 2.7 2.7c1.1 0 2.2-.8 3.3-2.2 1-1.5 1.9-3.2 2.5-5v-33.3h6.4v42.3h-6.4v-5.7c-.7 1.9-1.8 3.5-3.1 4.7-1.4 1.2-3 1.8-5 1.8-5.1 0-7.7-4.3-7.7-12.8m37.1-54.9v66.9h-6.4v-66.9zm13.5 25.7c1.8-1.3 3.8-2 6.2-2 2.6 0 4.6.8 6.2 2.3s2.3 3.7 2.3 6.6v34.3h-6.4v-5.4c-.8 1.9-2 3.5-3.3 4.6-1.4 1.1-3 1.7-4.9 1.7-2 0-3.5-.7-4.7-2-1.1-1.3-1.7-3.4-1.7-6.3 0-3.1.6-5.8 1.7-8.1s2.6-4.2 4.4-5.4c1.8-1.3 3.7-1.9 5.7-1.9 1 0 1.9.2 2.9.5v-10.8c0-2.8-.2-4.8-.7-6s-1.2-1.8-2.3-1.8c-1.3 0-2.3.8-3.1 2.4s-1.5 4.2-2 7.7l-5-4.2c1.4-2.9 2.9-4.9 4.7-6.2m2.7 38.9c1.1 0 2.2-.6 3.2-1.7s1.8-2.5 2.5-4.3V543q-1.65-2.4-3.9-2.4c-1.4 0-2.6.9-3.6 2.8s-1.4 4.6-1.4 8.2c-.1 5 1 7.6 3.2 7.6m26.5-40v6.8c1.6-5.1 3.8-7.7 6.7-7.7 1.3 0 2.4.4 3.3 1.1l-2.1 6.6q-.6-1.35-1.5-2.1c-.6-.5-1.2-.7-1.9-.7-1.7 0-3.2 2-4.5 5.8v32.4h-6.4v-42.3h6.4zM697.7 667.1q-3.45-3.3-5.4-9.9l6.3-6.4c.7 5.3 1.9 9.3 3.4 11.8 1.6 2.5 3.3 3.8 5.1 3.8 1.3 0 2.4-.6 3.2-1.8s1.2-3 1.2-5.6c0-2-.5-4.1-1.4-6.3s-2.4-5.5-4.6-9.7l-6.5-12.8c-1.1-2.3-2-4.6-2.7-7q-.9-3.6-.9-6.6c0-3.5 1-6.3 3-8.1 2-1.9 4.7-2.8 8.2-2.8 4.7 0 8.5 2.2 11.3 6.5l-5.5 6.1c-1.4-6.2-3.5-9.3-6.5-9.3-1 0-1.8.4-2.5 1.1s-1 1.8-1 3.2q0 4.65 4.2 12.3l6.9 12.9c3.8 7 5.7 12.9 5.7 17.5 0 3.5-.7 6.3-2.1 8.5s-3.2 3.7-5.2 4.6c-2.1.9-4.2 1.4-6.3 1.4-2.8-.1-5.6-1.2-7.9-3.4m32.5-38.4c1.9-1.6 4.2-2.4 7.1-2.4s5.2.8 6.8 2.4c1.7 1.6 2.5 3.9 2.5 6.9v33.8h-7.8v-5c-.8 1.7-1.8 3.2-3.2 4.2-1.3 1.1-2.9 1.6-4.8 1.6q-3.15 0-5.1-2.1c-1.3-1.4-1.9-3.6-1.9-6.7 0-3 .6-5.7 1.8-8s2.7-4.2 4.5-5.5 3.7-2 5.6-2c1 0 2 .2 3.1.7V635c0-2.2-.2-3.7-.5-4.7q-.6-1.5-1.8-1.5c-1.1 0-2.1.8-2.7 2.4-.7 1.6-1.3 4.4-1.8 8.2l-6.7-3.7c1.4-3.1 3-5.4 4.9-7m3.9 37.5c.9 0 1.8-.4 2.6-1.3q1.2-1.35 2.1-3.6v-11c-.8-1.2-1.9-1.8-3.1-1.8q-2.1 0-3.3 2.7c-.8 1.8-1.2 4.4-1.2 7.7.1 4.9 1 7.3 2.9 7.3m27.3-39v7q2.55-7.8 7.5-7.8c1.1 0 2.3.3 3.4 1l-1.9 8.1c-.4-.7-1-1.3-1.6-1.7q-1.05-.6-2.1-.6c-2.1 0-3.9 1.7-5.3 5v31.3h-7.8v-42.3zm16.4 3.6h-3.7v-3.6h3.7v-12.7h7.8v12.7h6.8v3.6h-6.8v26.5q0 4.5.6 6.6c.4 1.4 1.2 2.1 2.2 2.1 1.4 0 2.7-1.1 4-3.2l1.4 1.6c-1.9 4-4.5 5.9-7.7 5.9-2.6 0-4.7-1-6.2-2.9s-2.2-4.8-2.2-8.5v-28.1zm36.6 36.3q-3.45-3.3-5.4-9.9l6.3-6.4c.7 5.3 1.9 9.3 3.4 11.8 1.6 2.5 3.3 3.8 5.1 3.8 1.3 0 2.4-.6 3.2-1.8s1.2-3 1.2-5.6c0-2-.5-4.1-1.4-6.3s-2.4-5.5-4.6-9.7l-6.5-12.8c-1.1-2.3-2-4.6-2.7-7q-.9-3.6-.9-6.6c0-3.5 1-6.3 3-8.1 2-1.9 4.7-2.8 8.2-2.8 4.7 0 8.5 2.2 11.3 6.5l-5.5 6.1c-1.4-6.2-3.5-9.3-6.5-9.3-1 0-1.8.4-2.5 1.1s-1 1.8-1 3.2q0 4.65 4.2 12.3l6.9 12.9c3.8 7 5.7 12.9 5.7 17.5 0 3.5-.7 6.3-2.1 8.5s-3.2 3.7-5.2 4.6c-2.1.9-4.2 1.4-6.3 1.4-2.9-.1-5.6-1.2-7.9-3.4m32.5-38.4c1.9-1.6 4.2-2.4 7.1-2.4s5.2.8 6.8 2.4c1.7 1.6 2.5 3.9 2.5 6.9v33.8h-7.8v-5c-.8 1.7-1.8 3.2-3.2 4.2-1.3 1.1-2.9 1.6-4.8 1.6q-3.15 0-5.1-2.1c-1.3-1.4-1.9-3.6-1.9-6.7 0-3 .6-5.7 1.8-8s2.7-4.2 4.5-5.5 3.7-2 5.6-2c1 0 2 .2 3.1.7V635c0-2.2-.2-3.7-.5-4.7q-.6-1.5-1.8-1.5c-1.1 0-2.1.8-2.7 2.4-.7 1.6-1.3 4.4-1.8 8.2l-6.7-3.7c1.3-3.1 3-5.4 4.9-7m3.9 37.5c.9 0 1.8-.4 2.6-1.3q1.2-1.35 2.1-3.6v-11c-.8-1.2-1.9-1.8-3.1-1.8q-2.1 0-3.3 2.7c-.8 1.8-1.2 4.4-1.2 7.7 0 4.9.9 7.3 2.9 7.3m34.1-33.7c-.6-1.5-1.4-2.2-2.4-2.2-.9 0-1.7.5-2.5 1.6s-1.4 2.4-2 4v33.7h-7.8v-42.3h7.8v5c1.6-3.9 4.2-5.9 7.7-5.9 2.3 0 4.2.9 5.7 2.8 1.4 1.9 2.2 4.9 2.2 9.1v31.3h-7.8v-30.7c0-2.9-.3-5-.9-6.4m27.7 33.5q1.2-1.2 1.2-3.6c0-1.5-.4-3-1.1-4.6s-1.8-3.3-3.1-5.1l-6.3-8.4c-1-1.4-1.7-2.9-2.2-4.6s-.8-3.2-.8-4.6c0-2.7.9-4.8 2.7-6.4s4.1-2.4 6.8-2.4c3.6 0 6.8 1.3 9.5 3.9l-4.7 6.4c-.7-2.3-1.6-4.2-2.7-5.4-1.1-1.3-2.2-1.9-3.3-1.9-.9 0-1.6.3-2.2.9s-.9 1.4-.9 2.3c0 2.1 1.2 4.7 3.5 7.7l6 7.7c1.7 2.2 2.9 4.2 3.8 6 .8 1.9 1.3 3.7 1.3 5.5 0 3.4-1.1 6.1-3.2 8s-4.7 2.8-7.7 2.8c-5 0-8.9-3-11.9-8.9l5.7-5.6c.7 3.6 1.6 6.4 2.8 8.4q1.8 3 4.2 3c.9.1 1.8-.3 2.6-1.1m35.5-40.7-6.9 44.7-5-.9 9.6-56.4-1.1-6.1 8.2-.9 8.1 40.8 7.6-34.4-.7-5.5 8.1-.9 9.6 62.9-9.5 2-5.8-44.5-8.8 43.4h-5.3zm43.5 41.1c-2-2.7-3.1-7.5-3.1-14.4 0-5.6.6-10.4 1.7-14.2s2.7-6.7 4.6-8.6 4.1-2.8 6.5-2.8c3 0 5.5 1.6 7.5 4.9 2 3.2 2.9 8.2 2.9 14.8h-15l-.1 4c0 5.5.5 9.6 1.4 12.3 1 2.7 2.4 4 4.4 4 1.6 0 3.1-.5 4.3-1.4 1.3-.9 2.3-2.2 3.1-3.9l1.6.7c-1.1 2.8-2.6 5-4.5 6.4-1.9 1.5-4.2 2.2-7.1 2.2-3.4 0-6.1-1.3-8.2-4m13.4-24.1c-.1-4.1-.5-7.3-1.1-9.6s-1.5-3.4-2.6-3.4-2 1.1-2.8 3.4c-.8 2.2-1.3 5.5-1.6 9.7h8.1zm28.3 27.2v-4.8q-2.85 5.7-8.1 5.7c-2.8 0-4.9-1.2-6.4-3.7s-2.2-6.6-2.2-12.4c0-6.5.6-11.8 1.8-16s2.8-7.2 4.9-9.1c2-1.9 4.2-2.9 6.6-2.9 1.1 0 2.3.2 3.4.5v-24.4h8v67h-8zm-5.1-2.8c.8 0 1.7-.5 2.6-1.5s1.7-2.3 2.4-3.8v-30.2c-.8-1.6-2-2.4-3.4-2.4-1.3 0-2.3.7-3 2-.8 1.4-1.3 3.8-1.7 7.2q-.6 5.25-.6 14.7c.1 9.4 1.3 14 3.7 14m21.1-49.2c-.8-.8-1.2-1.8-1.2-3.2 0-1.9.4-3.3 1.2-4.3s1.9-1.5 3.4-1.5c2.9 0 4.3 1.4 4.3 4.3 0 3.9-1.5 5.9-4.4 5.9-1.4-.1-2.5-.4-3.3-1.2m7.5 9.7v42.3h-8.1v-42.3zm9.1 40.3c-1.5-1.9-2.2-4.9-2.2-9v-31.3h7.9v30.7c0 5.6 1.1 8.5 3.2 8.5.9 0 1.8-.5 2.6-1.6s1.5-2.4 2-3.9v-33.7h7.8v42.3h-7.8v-5.1c-1.6 4-4.2 5.9-7.7 5.9-2.4 0-4.3-.9-5.8-2.8m43.2-35c-.6-1.4-1.4-2.2-2.4-2.2-.8 0-1.6.5-2.3 1.6-.8 1.1-1.4 2.3-1.9 3.8v33.8h-7.8v-42.3h7.8v5c1.6-3.8 4.1-5.8 7.4-5.8 3.8 0 6.2 2.1 7.3 6.2 1.7-4.1 4.4-6.2 7.9-6.2 2.3 0 4.2.9 5.6 2.7q2.1 2.7 2.1 9v31.3h-7.8v-30.7c0-2.8-.3-4.9-.8-6.3s-1.3-2.1-2.3-2.1c-.8 0-1.5.4-2.3 1.3-.8.8-1.4 1.9-1.9 3.1.1 1.4.2 2.6.2 3.4v31.3h-7.8v-30.7c-.1-2.7-.4-4.8-1-6.2M691.7 764.2l8.4-6.1c.5 5.3 1.4 9.1 2.7 11.6s2.7 3.6 4.2 3.6c1 0 1.9-.5 2.5-1.5.7-1 1-2.6 1-4.8 0-1.6-.5-3.7-1.4-6.1-1-2.5-2.5-5.7-4.6-9.7l-5.9-11.7c-2.6-5-3.9-9.5-3.9-13.7q0-5.7 3.3-9c2.2-2.1 5.2-3.2 9-3.2 5.6 0 9.7 2.9 12.2 8.6l-7.8 5.4c-.5-3.2-1.2-5.6-2-7.1-.9-1.5-1.8-2.2-2.8-2.2q-1.05 0-1.8.9c-.5.6-.8 1.5-.8 2.6 0 3 1.3 6.8 3.8 11.5l6.8 12.2c1.9 3.4 3.3 6.6 4.5 9.8 1.1 3.1 1.7 6 1.7 8.4 0 3.5-.8 6.4-2.3 8.5-1.6 2.2-3.5 3.7-5.8 4.6s-4.6 1.3-6.8 1.3c-7.8.2-12.4-4.5-14.2-13.9m38.3-27c2.1-1.9 4.8-2.8 8.1-2.8 3.2 0 5.7.8 7.5 2.5q2.7 2.55 2.7 7.2v33.4h-9.5V773c-1.7 3.5-4.2 5.3-7.5 5.3-2.2 0-4.1-.8-5.6-2.2-1.5-1.5-2.2-3.9-2.2-7.1 0-2.9.6-5.5 1.8-7.9s2.7-4.3 4.6-5.6c1.9-1.4 3.8-2 5.7-2 1.2 0 2.2.3 3.1.9v-12.9c0-2.8-.5-4.2-1.6-4.2-.9 0-1.6.8-2.2 2.5s-1.1 4.6-1.5 8.8l-8.5-3q1.95-5.55 5.1-8.4m5.3 35.9c1.3 0 2.4-1.2 3.5-3.5v-12.1c-.7-.7-1.4-1-2.2-1-1.2 0-2.1.9-2.8 2.6s-1 4.2-1 7.3c.1 4.5.9 6.7 2.5 6.7m28.3-37.9v7.1c2-5.3 4.8-7.9 8.4-7.9 1.2 0 2.4.3 3.5.9l-1.5 9.8c-1.1-1.1-2.5-1.7-4.1-1.7-2.6 0-4.7 1.3-6.2 4v30.2h-9.6v-42.3h9.5zm16.9 4.9h-3.6v-5h3.6v-12.7h9.5v12.7h6.8v5H790v24.8c0 2.6.2 4.5.6 5.6.4 1.2 1.1 1.8 2 1.8 1.4 0 2.6-.9 3.7-2.7l2.1 2.1c-1 2.2-2.2 3.8-3.8 4.9s-3.3 1.7-5.3 1.7c-2.8 0-4.9-1-6.5-2.9s-2.3-4.8-2.3-8.5zm32 24.1 8.4-6.1c.5 5.3 1.4 9.1 2.7 11.6s2.7 3.6 4.2 3.6c1 0 1.9-.5 2.5-1.5.7-1 1-2.6 1-4.8 0-1.6-.5-3.7-1.4-6.1-1-2.5-2.5-5.7-4.6-9.7l-5.9-11.7c-2.6-5-3.9-9.5-3.9-13.7q0-5.7 3.3-9c2.2-2.1 5.2-3.2 9-3.2 5.6 0 9.7 2.9 12.2 8.6l-7.8 5.4c-.5-3.2-1.2-5.6-2-7.1-.9-1.5-1.8-2.2-2.8-2.2q-1.05 0-1.8.9c-.5.6-.8 1.5-.8 2.6 0 3 1.3 6.8 3.8 11.5l6.8 12.2c1.9 3.4 3.3 6.6 4.5 9.8 1.1 3.1 1.7 6 1.7 8.4 0 3.5-.8 6.4-2.3 8.5-1.6 2.2-3.5 3.7-5.8 4.6s-4.6 1.3-6.8 1.3c-7.8.2-12.4-4.5-14.2-13.9m38.4-27c2.1-1.9 4.8-2.8 8.1-2.8 3.2 0 5.7.8 7.5 2.5q2.7 2.55 2.7 7.2v33.4h-9.5V773c-1.7 3.5-4.2 5.3-7.5 5.3-2.2 0-4.1-.8-5.6-2.2-1.5-1.5-2.2-3.9-2.2-7.1 0-2.9.6-5.5 1.8-7.9s2.7-4.3 4.6-5.6c1.9-1.4 3.8-2 5.7-2 1.2 0 2.2.3 3.1.9v-12.9c0-2.8-.5-4.2-1.6-4.2-.9 0-1.6.8-2.2 2.5s-1.1 4.6-1.5 8.8l-8.5-3q1.95-5.55 5.1-8.4m5.3 35.9c1.3 0 2.4-1.2 3.5-3.5v-12.1c-.7-.7-1.4-1-2.2-1-1.2 0-2.1.9-2.8 2.6s-1 4.2-1 7.3c0 4.5.8 6.7 2.5 6.7m31.4-33c-1 0-2.1 1.1-3.2 3.3v34.1h-9.6v-42.3h9.6v4.4c1.6-3.5 4.1-5.2 7.3-5.2 2.3 0 4.3.9 5.9 2.6s2.3 4.4 2.3 8.1v32.5h-9.6v-31.3c0-4.2-.9-6.2-2.7-6.2m30.9 33.5c.5-.6.8-1.6.8-2.9 0-1.4-.3-2.8-.9-4.1s-1.6-2.8-2.9-4.5l-7.2-9.5c-1-1.3-1.7-2.8-2.2-4.4s-.7-3-.7-4.4c0-3.1 1-5.4 2.9-7.1 1.9-1.6 4.4-2.5 7.5-2.5 4.1 0 7.5 1.5 10 4.6l-5.3 6.7c-1-2.5-2-4.3-3-5.6-1.1-1.3-2.1-1.9-3.1-1.9-.7 0-1.2.2-1.7.7-.4.5-.7 1.1-.7 1.9q0 2.4 3 6l6.6 8.1c3.8 4.6 5.7 8.6 5.7 12.1 0 3.7-1.2 6.5-3.5 8.5s-5.2 3-8.5 3c-5.8 0-9.9-3.4-12.3-10.3l7-5.2q.75 5.1 2.7 8.4 1.8 3.3 3.9 3.3c.7 0 1.4-.3 1.9-.9m27-59.1h11.3v2.2c1.9-2 4.2-3.1 7-3.1 2.9 0 5.2 1 6.8 3s2.4 5.1 2.4 9.4c0 7.7-2.3 13.1-6.8 16 6.4 1.4 9.5 6.9 9.5 16.4q0 10.05-4.5 15c-3 3.3-6.8 5-11.3 5-1.7 0-3.3-.3-5-.9h-9.5v-63zm11.4 6.3v21.6c1.3-.4 2.3-.6 3.1-.6 1.9-2.8 2.8-7.6 2.8-14.7q0-5.1-.6-7.2c-.4-1.4-1-2-1.9-2-1.2 0-2.3 1-3.4 2.9m3.8 53.5c1.1 0 2.1-1 2.9-3.1s1.2-5.6 1.2-10.6c0-5.3-.5-9.2-1.5-11.5s-2.5-3.5-4.5-3.5c-.7 0-1.3.1-2 .4v25.6q1.95 2.7 3.9 2.7m23.2-1c-2.5-3.4-3.8-8.4-3.8-15 0-8.2 1.3-14.2 4-18 2.6-3.9 6.1-5.8 10.4-5.8 8.7 0 13 6.5 13 19.5 0 9-1.3 15.3-3.8 18.9s-5.8 5.4-9.7 5.4c-4.2 0-7.6-1.7-10.1-5m12.9-1.9c.5-2.2.7-6.2.7-12.1 0-6.7-.3-12-.9-15.8s-1.7-5.7-3.1-5.7c-1.1 0-2 1.1-2.5 3.3s-.8 6-.8 11.3c0 6.7.3 12.1 1 16.2s1.8 6.1 3.4 6.1c1 0 1.7-1.1 2.2-3.3m25.7-60.8v66.9h-10.3v-66.9zm21.3 66.9V774c-1.9 2.9-4.4 4.3-7.7 4.3-2.9 0-5.1-1.2-6.7-3.7s-2.3-6.5-2.3-12.2c0-9.9 1.2-17.1 3.7-21.5s5.7-6.6 9.8-6.6c1.1 0 2.2.1 3.2.4v-24.3h10.2v67h-10.2zm-5.7-7.1c.5 1.9 1.2 2.9 2.2 2.9 1.1 0 2.2-1 3.5-3v-31.5c-.6-.9-1.3-1.3-2.1-1.3-1.6 0-2.7 1.8-3.4 5.3s-1 9.4-1 17.6c0 4.7.3 8.1.8 10M695.7 882.7c-2.4-2.4-3.9-6.2-4.5-11.2l9.8-5.8c.5 5.2 1.2 8.9 2.2 11.3s2.2 3.6 3.4 3.6c.8 0 1.5-.4 2.1-1.3.6-.8.9-2.2.9-4.1 0-2.8-2-8-6.1-15.8l-5.7-10.9c-2.6-5-4-9.6-4-13.8 0-4.1 1.2-7.3 3.6-9.5 2.4-2.3 5.6-3.4 9.7-3.4 6.2 0 10.4 3.4 12.7 10.2l-9.5 5c-.7-6.2-2-9.3-3.7-9.3-.5 0-1 .2-1.4.7s-.6 1.2-.6 2.2q0 2.1.9 5.1c.6 2 1.5 3.9 2.6 5.8l6.7 11.7c1.9 3.5 3.5 6.9 4.6 10.1 1.2 3.3 1.8 6.1 1.8 8.6 0 3.6-.8 6.5-2.5 8.6-1.7 2.2-3.7 3.7-6.1 4.6s-4.8 1.3-7.3 1.3c-4-.1-7.1-1.3-9.6-3.7m34.2-37.2c2.2-2.1 5.1-3.2 8.9-3.2 3.4 0 6.1.9 8 2.6s2.9 4.2 2.9 7.5v33h-10.8v-4c-1.6 3.2-3.9 4.9-7.1 4.9-2.3 0-4.3-.8-5.9-2.4s-2.4-4.1-2.4-7.4q0-4.2 1.8-7.8c1.2-2.4 2.8-4.3 4.7-5.7q2.85-2.1 5.7-2.1c1.3 0 2.4.4 3.2 1.1v-13.8c0-1.9-.4-2.8-1.1-2.8s-1.3.8-1.8 2.5-.9 4.7-1.3 9.2l-10.1-2.5c1.3-3.9 3.1-7 5.3-9.1m6.3 34.8c.8 0 1.7-.9 2.6-2.6v-12.8c-.5-.2-1-.4-1.4-.4-2.2 0-3.2 3.1-3.2 9.5-.1 4.2.6 6.3 2 6.3m28.9-37.1v7.2c2.1-5.3 5.1-8 9-8 1.1 0 2.3.3 3.6.8l-1.3 11.2c-1.2-.9-2.7-1.4-4.4-1.4-2.9 0-5.2 1.1-6.8 3.2v29.2h-10.9v-42.3h10.8zm17.2 5.9h-3.4v-5.9h3.4v-12.7h10.8v12.7h6.8v5.9h-6.8v23.5c0 2.3.2 3.9.5 5 .4 1 1 1.5 1.9 1.5.7 0 1.3-.2 1.9-.6s1.2-1 1.6-1.7l2.5 2.4c-1 2.3-2.4 4-4.1 5.3-1.7 1.2-3.7 1.8-5.9 1.8-2.8 0-5.1-1-6.7-2.9-1.7-1.9-2.5-4.8-2.5-8.5zm37.3 33.6c-2.4-2.4-3.9-6.2-4.5-11.2l9.8-5.8c.5 5.2 1.2 8.9 2.2 11.3s2.2 3.6 3.4 3.6c.8 0 1.5-.4 2.1-1.3.6-.8.9-2.2.9-4.1 0-2.8-2-8-6.1-15.8l-5.7-10.9c-2.6-5-4-9.6-4-13.8 0-4.1 1.2-7.3 3.6-9.5 2.4-2.3 5.6-3.4 9.7-3.4 6.2 0 10.4 3.4 12.7 10.2l-9.5 5c-.7-6.2-2-9.3-3.7-9.3-.5 0-1 .2-1.4.7s-.6 1.2-.6 2.2q0 2.1.9 5.1c.6 2 1.5 3.9 2.6 5.8l6.7 11.7c1.9 3.5 3.5 6.9 4.6 10.1 1.2 3.3 1.8 6.1 1.8 8.6 0 3.6-.8 6.5-2.5 8.6-1.7 2.2-3.7 3.7-6.1 4.6s-4.8 1.3-7.3 1.3c-4-.1-7.2-1.3-9.6-3.7m34.1-37.2c2.2-2.1 5.1-3.2 8.9-3.2 3.4 0 6.1.9 8 2.6s2.9 4.2 2.9 7.5v33h-10.8v-4c-1.6 3.2-3.9 4.9-7.1 4.9-2.3 0-4.3-.8-5.9-2.4s-2.4-4.1-2.4-7.4q0-4.2 1.8-7.8c1.2-2.4 2.8-4.3 4.7-5.7q2.85-2.1 5.7-2.1c1.3 0 2.4.4 3.2 1.1v-13.8c0-1.9-.4-2.8-1.1-2.8s-1.3.8-1.8 2.5-.9 4.7-1.3 9.2l-10.1-2.5c1.3-3.9 3.1-7 5.3-9.1m6.3 34.8c.8 0 1.7-.9 2.6-2.6v-12.8c-.5-.2-1-.4-1.4-.4-2.2 0-3.2 3.1-3.2 9.5 0 4.2.7 6.3 2 6.3m31-31c-.6 0-1.3.7-2.1 2v34.2H878v-42.3h10.9v4q2.4-4.8 6.9-4.8 3.45 0 6 2.4c1.6 1.6 2.5 4 2.5 7.3v33.4h-10.9v-31.8c0-2.9-.8-4.4-2.4-4.4m32.4 29.4c0-1.3-.3-2.5-.9-3.7-.6-1.1-1.5-2.5-2.7-4l-7.9-10.3c-1.8-2.4-2.7-5.2-2.7-8.5s1-5.7 3-7.4 4.7-2.6 8-2.6c2.3 0 4.2.4 5.9 1.2 1.6.8 3.1 2.1 4.5 3.8l-5.8 6.9c-1.1-2.5-2.2-4.4-3.2-5.7-1.1-1.3-2-2-2.9-2-1.2 0-1.8.8-1.8 2.2q0 1.8 2.4 4.8l7 8.3c4.1 4.9 6.2 9 6.2 12.4 0 3.9-1.3 6.9-3.8 8.9s-5.6 3.1-9.2 3.1c-6.4 0-10.6-3.7-12.7-11.2l8-4.9c.4 3.2 1.3 6 2.5 8.4 1.3 2.4 2.5 3.6 3.7 3.6q2.4.15 2.4-3.3m26.5-56.2H963v1.7c1.7-1.7 4-2.6 6.8-2.6 3.1 0 5.5 1.1 7.2 3.2s2.6 5.2 2.6 9.4c0 7.6-2.1 12.8-6.3 15.7 5.8 1.9 8.7 7.5 8.7 16.7 0 6.8-1.5 11.8-4.6 15.1s-6.9 4.9-11.6 4.9c-1.7 0-3.3-.3-5-.9h-11.1v-63.2zm13.1 6.4v21c.5-.2 1.3-.4 2.3-.6 1.4-2.6 2.1-7.2 2.1-13.7 0-3.2-.2-5.5-.5-6.8s-.8-1.9-1.5-1.9c-.9-.1-1.7.6-2.4 2m3.1 52.8c.8 0 1.5-1 2-3s.9-5.4.9-10.2c0-5.2-.4-9-1.1-11.2-.8-2.3-1.9-3.4-3.4-3.4-.4 0-.9.1-1.4.3v25.2c.9 1.5 1.9 2.3 3 2.3m32.4-63.1v66.9h-11.7v-66.9zm10.3 26.9c2.2-2.1 5.1-3.2 8.9-3.2 3.4 0 6.1.9 8 2.6s2.9 4.2 2.9 7.5v33h-10.8v-4c-1.6 3.2-3.9 4.9-7.1 4.9-2.3 0-4.3-.8-5.9-2.4s-2.4-4.1-2.4-7.4q0-4.2 1.8-7.8c1.2-2.4 2.8-4.3 4.7-5.7q2.85-2.1 5.7-2.1c1.3 0 2.4.4 3.2 1.1v-13.8c0-1.9-.4-2.8-1.1-2.8s-1.3.8-1.8 2.5-.9 4.7-1.3 9.2l-10.1-2.5c1.3-3.9 3.1-7 5.3-9.1m6.3 34.8c.8 0 1.7-.9 2.6-2.6v-12.8c-.5-.2-1-.4-1.4-.4-2.2 0-3.2 3.1-3.2 9.5-.1 4.2.6 6.3 2 6.3m20.3 1.8c-2.3-2.8-3.5-7.7-3.5-14.7 0-5.3.7-9.9 2.1-13.6s3.2-6.6 5.6-8.5c2.3-1.9 5-2.9 7.8-2.9 2.5 0 4.5.6 6.2 1.9s3.2 3.2 4.5 5.9l-8.2 5c-.7-5.8-1.7-8.6-3.1-8.6-1.1 0-1.9 1.3-2.4 3.8-.5 2.6-.8 6.8-.8 12.6q0 9.3 1.2 13.5t4.5 4.2c1.1 0 2.2-.3 3.3-1s2-1.6 2.7-2.8l2.2 1c-1.1 2.8-2.7 5-4.6 6.4-2 1.4-4.5 2.2-7.7 2.2-4.3-.2-7.5-1.6-9.8-4.4m38.1-63.7v37.1l12.2-15.3 5.5 4.9-8.7 10.2 12.6 28.4-11.3 3.9-8.6-23.7-1.7 2v19.7h-11.7v-67h11.7zM294.4 101.6h3v755h-3z" style="fill:#fbfbfb"/><path d="m313.4 521-62.9 10 62.9 10zm-27.5 335.5 10 63 10-63zm20-754.9-10-62.9-10 62.9z" style="fill:#fbfbfb"/></svg>