<svg xmlns="http://www.w3.org/2000/svg" viewBox="0 0 1280 960"><path d="M203.6 426.8c9.9-6.9 21.1-11.8 32.8-14.5-10.5 9.1-16 20.2-16.6 33.3-15.1.5-30 3.2-44.4 7.9 8-10.3 17.5-19.3 28.2-26.7zm28.7 50.9c-.8-4.8-2.2-9.5-4.2-14-1.9-4.4-4.3-8.5-7.1-12.2-14.9 0-29.7 2-44.1 6.1 13.4 9.7 31.9 16.4 55.4 20.1zm-2.3-50.2c3.5-6.4 8.5-11.7 14.6-15.6 6.3-4 13.6-6.1 21-6 8.2 0 16.4 2.4 24.7 7.3 9.4 5.7 18.1 12.6 26 20.3 9 8.7 22 21.9 39 39.8 24.9 26.3 48.4 50.2 70.3 71.8 22 21.6 48.4 45.4 79.1 71.5l-4.4 8.2c-15-8-28.7-13.9-41.3-17.8s-22.9-5.8-31.1-5.8c-6.3-.1-12.5 1.1-18.4 3.4-7.1 2.9-14 6.4-20.6 10.4-9.2 5.6-18.9 10.3-29 14.2-8.9 3.2-19.5 4.8-32 4.8-30.4 0-52.6-10.9-66.8-32.8s-21.3-51.8-21.3-89.8c0-17.9-1.3-31.2-3.8-39.8-2.4-8.4-6.2-16.3-11.3-23.5 0-7.3 1.8-14.3 5.3-20.6zm16.4 40.7c3.7 9 6.4 21.8 8.2 38.4 3.7 33.7 12 60.7 24.8 81s31.6 30.5 56.3 30.5c8.6.1 17.1-1.2 25.2-3.8 8.6-3 17-6.7 25-11.1 6.9-3.6 13.9-6.8 21.1-9.6 6-2.2 12.4-3.3 18.8-3.2 11.9 0 26.2 2.6 42.9 7.9-31.5-26.3-57.7-49.8-78.6-70.6-20.9-20.8-41.6-42.5-62-65.1-11.9-13-20.9-22.6-27.2-28.8-5.4-5.5-11.5-10.3-18.1-14.3-5.6-3.3-11.9-5.1-18.4-5.1-6-.2-12 1.6-16.9 5-4.5 3.1-8.2 7.4-10.6 12.3-2.4 4.9-3.6 9.3-3.6 13.4 5.3 7.1 9.7 14.9 13.1 23.1zM251 428c6.9-6.7 18-6.5 24.7.4 6.5 6.8 6.5 17.5 0 24.2-6.9 6.7-18 6.5-24.7-.4-6.5-6.7-6.5-17.4 0-24.2zm3.8 20.9c4.7 4.7 12.3 4.7 17 0s4.7-12.3 0-17c-4.7-4.7-12.3-4.7-17 0-2.3 2.3-3.5 5.3-3.5 8.5-.1 3.2 1.2 6.2 3.5 8.5zm.1-12.1c1.3-1.3 3-2 4.8-1.9 3.5 0 6.4 2.9 6.4 6.4.1 1.8-.6 3.5-1.9 4.8-1.2 1.2-2.8 1.9-4.5 1.9-3.6.1-6.6-2.7-6.7-6.2v-.5c0-1.7.7-3.4 1.9-4.5zm83 208.5 64.8-32.7 7 13.4-58.1 22.2c6.8 2 13.2 5.1 19 9l-4.7 8.4c-10.7-7.2-24.4-10.8-41.1-10.8-15.6 0-31.7 3.5-48.4 10.5l-4.1-8.5c16.5-7.7 34.4-11.8 52.5-12.2 3.3.1 7.7.3 13.1.7zM175.3 255l3.2 11.2.9-.4c-.3-5.5-.9-10.8-1.6-15.8l5.8.3c-.6 5-1.6 10-3 14.9l4.1-2 .1-3.6 4.4 2.5c-1.1-3.4-2.7-8.2-4.7-14.4l5.8-2.1 1.6 5.3c.8 2.7 1.8 6.2 3.2 10.7l.9-.4c.3-5.5.3-11.1-.2-16.6l5.9.3c-1.2 5.4-2.7 10.6-4.5 15.8l4.3-2 .1-3.9 5.4 2.7c-1.5 5.1-3.5 10.2-5.8 15l5.8-3.3-1.5-3.3.4-.8c2.5 2.2 4.8 4.7 6.9 7.4l-2.6 5c-1.1-3-1.9-5.2-2.6-6.8l-2.6 5.2c3.1 1.1 6 2.6 8.7 4.5l-3.4 2.9 3.6-1 .6 2.2-3.1.9 3.4 4.4c-1 2.6-2.1 5.2-3.3 7.6 1.8 2.2 3.4 4.1 4.9 5.7l-.9-16 .9-.1 2.8 18.6c.5.5 1.4 1.4 2.6 2.4l-3 5.5c-3.6-3.3-7-6.8-10.1-10.7-3.2 5.5-7.1 10.7-11.4 15.4l-.7-.5c4-5.6 7.3-11.7 9.7-18.1-2.4-3.4-4.6-7.1-6.4-10.8l-4.7 1.3v3.3c3.5 1.9 6.7 4.3 9.5 7.1l-4.2 5.7c-1.5-3.6-3.3-7.1-5.2-10.4-.3 8.4-1.5 16.7-3.4 24.9l-1.1.1c1-9.7.7-19.5-.8-29.2l-3.8 1.1 5 17.5-4.9 1.4-.7-2.4-2.7.8 2 7.2-4.7 1.3-17.2-60 4.7-1.3.6 2.2 2.7-.8-.6-2.2 4.9-1.4zm9.5 52-13.2-46.1-2.7.8 13.2 46.1 2.7-.8zm-1.6-29c.8-4.3 1.3-8.6 1.4-13l-3.1 6.1-2.4-2.9 3 10.4 1.1-.6zm6.3 11.2-.4-2.3c-.1-.5-.2-1.1-.3-1.9s-.3-1.7-.5-2.7l4.6-.7c-1-2.8-1.8-4.9-2.5-6.3l-5.2 9.6-2.2-3.1 2.4 8.6 4.1-1.2zm.3-15c-.7-1.4-1.3-2.5-1.7-3.1l.5-.8c2 1.5 3.9 3.3 5.5 5.3-1.4-3.7-2.9-7.9-4.5-12.4-1.3 4.9-3.1 9.7-5.3 14.2l5.5-3.2zm9 12.4c-1.6-3.3-2.8-6-3.6-8.2l-1.4 3.1 1.2-.2c.1 1.4.1 3.5.2 6.3l3.6-1zm.3-12.8.8-.5c.8-4.3 1.2-8.6 1.4-12.9l-3.6 5.4-2.2-2.2c1.6 4.5 2.8 7.9 3.6 10.2zm4.8 11.3 4.5-1.3c-1.3-2.2-2.7-4.3-4.2-6.4l-1.2 2.5-2.9-3.5c1.4 3.4 2.6 6.3 3.8 8.7zm4.6 8c.8-2.6 1.4-5.1 1.9-7.5l-5.4 1.6c1.5 2.7 2.7 4.7 3.5 5.9zm15.3-51.9 3.2 11.3.9-.4c-.3-5.5-.9-10.7-1.6-15.8l5.8.3c-.6 5-1.6 10-3 14.9l4.1-2 .1-3.6 4.4 2.5c-1.1-3.4-2.7-8.2-4.7-14.4l5.8-2.1 1.6 5.3c.8 2.7 1.8 6.2 3.2 10.7l.9-.4c.3-5.5.3-11.1-.2-16.6l5.9.3c-1.2 5.4-2.7 10.6-4.5 15.8l4.3-2 .1-3.9 5.4 2.7c-1.5 5.1-3.5 10.2-5.8 15l5.7-3.3-1.5-3.3.4-.8c2.5 2.2 4.8 4.7 6.9 7.4l-2.6 5c-1.1-3-1.9-5.3-2.6-6.8l-2.6 5.1c3.1 1.1 6 2.6 8.7 4.5l-3.4 2.9 3.6-1 .6 2.2-3.1.9 3.4 4.4c-1 2.6-2.1 5.1-3.3 7.6 1.8 2.2 3.4 4.1 4.9 5.7l-1-16 .9-.1 2.8 18.6c.5.5 1.4 1.4 2.5 2.4l-3 5.5c-3.6-3.2-7-6.8-10.1-10.5-3.2 5.5-7.1 10.7-11.4 15.4l-.7-.5c4-5.6 7.3-11.7 9.8-18.1-2.4-3.4-4.6-7.1-6.4-10.8l-4.7 1.3v3.3c3.5 1.9 6.7 4.3 9.5 7.1l-4.2 5.7c-1.6-3.6-3.3-7-5.3-10.4-.3 8.4-1.5 16.7-3.4 24.9l-1.1.1c1-9.7.7-19.6-.8-29.2l-3.8 1.1 5 17.5-4.9 1.4-.7-2.4-2.7.8 2.1 7.2-4.7 1.3-17.1-59.9 4.7-1.3.6 2.2 2.7-.8-.6-2.2 5-1.7zm9.5 52-13.2-46.1-2.7.8 13.2 46.1 2.7-.8zm-1.7-29c.8-4.3 1.3-8.6 1.4-13l-3.1 6.1-2.4-2.9 3 10.4 1.1-.6zm6.4 11.2-.4-2.3c-.1-.5-.2-1.1-.3-1.9s-.3-1.7-.5-2.7l4.6-.7c-1-2.8-1.9-4.9-2.5-6.3l-5.1 9.6-2.3-3.1 2.4 8.6 4.1-1.2zm.3-15.1c-.7-1.4-1.3-2.5-1.7-3.1l.5-.8c2 1.5 3.9 3.3 5.5 5.3-1.4-3.7-2.9-7.9-4.5-12.4-1.3 4.9-3.1 9.7-5.3 14.2l5.5-3.2zm9 12.5c-1.6-3.3-2.8-6-3.6-8.2l-1.4 3.1 1.2-.2c.1 1.4.2 3.5.2 6.3l3.6-1zm.3-12.8.8-.5c.8-4.3 1.2-8.6 1.4-12.9l-3.5 5.4-2.2-2.2c1.5 4.5 2.7 7.9 3.5 10.2zm4.8 11.3 4.5-1.3c-1.3-2.2-2.7-4.3-4.2-6.4l-1.2 2.5-2.9-3.5c1.3 3.4 2.6 6.3 3.8 8.7zm4.6 8c.8-2.6 1.4-5.1 1.9-7.5l-5.4 1.6c1.5 2.7 2.6 4.7 3.5 5.9zm15.2-52 3.2 11.3.9-.4c-.3-5.5-.9-10.7-1.6-15.8l5.8.3c-.6 5-1.6 10-3 14.9l4.1-2 .1-3.6 4.4 2.5c-1.1-3.4-2.7-8.2-4.7-14.4l5.8-2 1.6 5.3c.8 2.7 1.8 6.2 3.2 10.7l.9-.4c.3-5.5.3-11.1-.2-16.6l5.9.2c-1.2 5.4-2.7 10.6-4.5 15.8l4.3-2 .1-3.9 5.4 2.7c-1.5 5.1-3.5 10.2-5.8 15l5.7-3.3-1.5-3.3.4-.8c2.5 2.2 4.8 4.7 6.9 7.4l-2.6 5c-1.1-3-1.9-5.2-2.6-6.8l-2.6 5.1c3.1 1.1 6 2.6 8.7 4.4l-3.4 2.9 3.7-1 .6 2.2-3.1.9 3.4 4.4c-1 2.6-2.1 5.1-3.3 7.6 1.8 2.2 3.4 4.1 4.9 5.7l-1-16 .9-.1 2.8 18.6c.5.5 1.4 1.4 2.5 2.4l-3 5.5c-3.6-3.3-7-6.8-10.1-10.7-3.2 5.5-7.1 10.7-11.4 15.4l-.7-.5c4-5.6 7.3-11.7 9.7-18.1-2.4-3.4-4.6-7.1-6.4-10.8l-4.7 1.3v3.3c3.5 1.9 6.7 4.3 9.5 7.1l-4.2 5.7c-1.6-3.6-3.3-7.1-5.3-10.5-.3 8.4-1.4 16.7-3.4 24.9l-1.1.1c1-9.7.7-19.6-.8-29.2L283 265l5 17.5-4.9 1.4-.7-2.4-2.7.8 2 7.1-4.7 1.4-17.1-59.9 4.7-1.3.6 2.2 2.7-.8-.6-2.2 4.9-1.5zm9.5 52-13.2-46.1-2.7.8 13.2 46 2.7-.7zm-1.6-29c.8-4.3 1.3-8.6 1.5-13l-3.1 6.1-2.4-2.9 3 10.5 1-.7zm6.3 11.2-.4-2.3c-.1-.5-.2-1.1-.3-1.9s-.3-1.7-.5-2.7l4.6-.7c-1-2.8-1.9-4.9-2.5-6.3l-5.1 9.6-2.3-3.1 2.5 8.6 4-1.2zm.3-15.1c-.7-1.4-1.3-2.4-1.7-3.1l.5-.8c2 1.5 3.9 3.3 5.5 5.3-1.5-3.7-3-7.9-4.5-12.4-1.3 4.9-3.1 9.7-5.3 14.3l5.5-3.3zm9 12.5c-1.6-3.3-2.8-6-3.6-8.2l-1.4 3.2 1.2-.2c.1 1.4.1 3.5.2 6.3l3.6-1.1zm.3-12.8.8-.5c.8-4.3 1.2-8.6 1.4-12.9l-3.5 5.4-2.2-2.2c1.6 4.5 2.7 7.9 3.5 10.2zm4.8 11.3 4.5-1.3c-1.3-2.2-2.7-4.3-4.2-6.4l-1.2 2.4-2.9-3.5c1.4 3.5 2.6 6.4 3.8 8.8zm4.6 8c.8-2.6 1.4-5.1 1.9-7.5l-5.5 1.6c1.6 2.7 2.8 4.7 3.6 5.9zm122.8 74.9-.5 1.8c4.6-.9 9.1-2.2 13.5-4l1.9 6c-.6 0-2.3.1-5 .1l-3.4 12.2 3.4 1c1.3-3.9 2.5-7.7 3.7-11.5h1c-1.1 8.3-2.8 16.5-4.9 24.6 2.9-7.7 6.1-17.4 9.6-29.2l6.2 1.8c-3.8 10.5-7.1 19.3-10.1 26.3-1.4 14.6-2.2 28.3-2.4 41.1l-6.9 1.7c1.7-11.7 4.3-24.7 7.7-39-2.9 6.6-6.2 13-10 19.1-3.6 5.7-7.5 11.2-11.8 16.4l-.6-.4.4-.7-4.7-1.3 10.9-38.7c-5.6 14-11.3 26.6-17 37.7l-.6-.3 3.9-9.4-4.3-1.2.7-2.4-2.8-.8-2 7.2-5.1-1.4 16.8-60 5.1 1.4-.6 2.2 2.8.8.6-2.2 4.5 1.1zm-18.8 49.3 13-46.1-2.8-.8-13 46.1 2.8.8zm15.6-30.2 2.9 2 1.2-4.2-5.2-1.5-10.3 36.8c4-10.4 7.8-21.5 11.4-33.1zm-1.6 42c4-7.5 7-13.3 8.8-17.3l-3.9 4c.5-3 .9-5.2 1.1-6.8.9-4.9 1.7-9.7 2.4-14.4l-11.2 39.9c1.7-3.4 2.7-5.2 2.8-5.4zm6.3-46.4 3.1-11c-1.4-.1-3.2-.2-5.5-.5l-2.8 10 5.2 1.5zm3.4 9.8c.2 2.7.2 4.9.2 6.8l4.1-12-3.4-.9-1 3.6.1 2.5zm0 17.4c1.6-3.6 2.9-6.8 4.1-9.6l-3.8.7c-.1 2.7-.2 5.7-.3 8.9zm18.6-29.7 1-3.7 4.7 4.2c-4 8.7-8.5 17.2-13.5 25.5l-.7-.4c3.3-8.4 6.1-16.9 8.5-25.6zm25 1.5-.5 1.8c4.6-.9 9.1-2.2 13.5-4l1.9 6c-.6 0-2.3.1-5 .1l-3.4 12.1 3.4 1c1.3-3.9 2.6-7.7 3.7-11.5h1c-1.1 8.3-2.8 16.5-4.9 24.6 2.9-7.7 6.1-17.4 9.6-29.2l6.2 1.8c-3.8 10.5-7.1 19.3-10.1 26.3-1.4 14.6-2.2 28.3-2.4 41.1l-6.9 1.7c1.7-11.7 4.3-24.7 7.7-39-2.9 6.6-6.2 13-10 19.1-3.6 5.7-7.6 11.2-11.8 16.4l-.6-.4.4-.7-4.7-1.3 10.9-38.8c-5.6 14-11.3 26.6-17 37.7l-.6-.3 3.8-9.4-4.3-1.2.7-2.4-2.8-.8-2 7.2-5.1-1.4 16.8-60 5.1 1.4-.6 2.2 2.8.8.6-2.2 4.6 1.3zm-18.8 49.3 12.9-46.1-2.8-.8-12.9 46.1 2.8.8zm15.6-30.3 2.9 2 1.2-4.2-5.2-1.5-10.3 36.8c4-10.4 7.9-21.5 11.4-33.1zm-1.6 42c4-7.5 7-13.3 8.8-17.3l-3.9 4c.5-3 .9-5.2 1.1-6.8.9-5 1.7-9.8 2.4-14.4l-11.2 39.9c1.8-3.4 2.7-5.2 2.8-5.4zm6.3-46.4 3.1-11c-1.4-.1-3.2-.2-5.5-.5l-2.8 10 5.2 1.5zm3.4 9.8c.2 2.7.2 4.9.2 6.8l4.1-12-3.4-1-1 3.6.1 2.6zm0 17.4c1.6-3.6 3-6.8 4.1-9.6l-3.8.7c-.1 2.8-.1 5.8-.3 8.9zm18.6-29.6 1-3.7 4.7 4.2c-4 8.7-8.5 17.2-13.4 25.5l-.7-.4c3.2-8.5 6-17 8.4-25.6zm25 1.4-.5 1.8c4.6-.9 9.1-2.2 13.5-4l1.9 6c-.7 0-2.3.1-5 .1l-3.4 12.2 3.4 1c1.3-3.9 2.5-7.7 3.7-11.5h1c-1.1 8.3-2.8 16.5-4.9 24.6 2.9-7.7 6.1-17.4 9.6-29.2l6.2 1.8c-3.8 10.5-7.1 19.3-10.1 26.3-1.4 14.6-2.2 28.3-2.4 41.1l-6.9 1.7c1.7-11.8 4.3-24.8 7.7-39-2.9 6.6-6.2 13-10 19.1-3.6 5.7-7.6 11.2-11.9 16.4l-.6-.4.3-.7-4.7-1.3 10.9-38.7c-5.6 14-11.3 26.6-17 37.7l-.6-.3 3.8-9.4-4.3-1.2.7-2.4-2.8-.8-2 7.2-5.1-1.4 16.8-60 5.1 1.4-.6 2.2 2.8.8.6-2.2 4.8 1.1zm-18.8 49.3 12.9-46.1-2.8-.8-12.9 46.1 2.8.8zm15.7-30.3 2.9 2 1.2-4.2-5.2-1.5-10.3 36.8c4-10.4 7.8-21.4 11.4-33.1zm-1.7 42c4-7.5 7-13.3 8.8-17.3l-3.9 4c.5-3 .9-5.2 1.1-6.8.9-5 1.7-9.8 2.3-14.4L517.6 434c1.8-3.4 2.7-5.2 2.8-5.4zm6.4-46.3 3.1-11c-1.4-.1-3.2-.2-5.5-.5l-2.8 10 5.2 1.5zm3.3 9.8c.2 2.7.2 4.9.2 6.8l4.1-12-3.4-.9-1 3.6.1 2.5zm0 17.3c1.6-3.6 3-6.8 4.1-9.6l-3.8.7c0 2.8-.1 5.8-.3 8.9zm18.7-29.6 1-3.7 4.7 4.2c-4 8.7-8.5 17.2-13.5 25.4l-.7-.4c3.2-8.4 6-16.9 8.5-25.5z" style="fill:#882233"/><path d="M234 778.6c-1.7 1.9-4.1 2.9-6.7 2.8-3 .1-5.9-1.1-7.9-3.2s-3.1-5.3-3.1-9.5v-38.1h5.4v37c0 8 1.9 12 5.8 12 4.1 0 6.2-3.2 6.2-9.6v-39.4h2.7v38.3c.1 4.6-.7 7.9-2.4 9.7zm16-21.7v-8.2h2.4v8.2h8.1v2.2h-8.1v8.2H250v-8.2h-8.1v-2.2h8.1zm26.4-26.3h3.5v50.1h-5v-41.6l-9 15.9-1.1-.8 11.6-23.6zm15.4 0h18.8v2.4h-13.3v19.6h12v2h-12v26.1h-5.4v-50.1zm37.7.1L317 768.2h9.7v-24.3h5.4v24.3h3.7v4.7h-3.7v7.9h-5.4v-7.9h-14l13.9-43.2 2.9 1zm24.5 18.1c.9-3.1 1.4-6.2 1.5-9.4 0-5.1-1.4-7.6-4.1-7.6-1.6 0-2.9 1-4 3s-1.9 5-2.3 9.1l-4.2-3.6c2.6-6.9 6.5-10.4 11.8-10.4 5.3 0 7.9 2.9 7.8 8.6 0 3.1-.6 6.1-1.8 9-1.2 3-3 6.9-5.4 11.7l-1.9 3.7-5.8 11.8h14.8v6.1h-21l10.1-20.5c1.9-3.7 3.4-7.5 4.5-11.5zm29.4-18.9.9 1.1c-3.3 2.8-6.1 6.2-8.3 10-2.3 4.3-3.8 9-4.3 13.9l-.4 2.7c-.8 1.2-1.3 2.5-1.7 3.8l-.6-1.7c.5-1.8 1.4-3.4 2.6-4.8 1.6-1.9 3.9-3 6.4-3 2.6 0 5.1 1.3 6.6 3.5 1.7 2.4 2.6 5.7 2.6 10.1 0 2.8-.5 5.6-1.5 8.2-.8 2.2-2.2 4.2-4 5.7-1.5 1.3-3.5 2.1-5.5 2.1-3.2.1-6.1-1.5-7.8-4.2-1.9-2.8-2.9-6.5-2.9-11.1 0-8.8 1.5-16 4.5-21.8 3.1-6 7.7-11 13.4-14.5zm-12.3 34.5c-.1 3.8.3 7.5 1.2 11.2.8 2.7 2.1 4 4 4 1.7 0 3-1.4 4-4.1 1.1-3.2 1.6-6.5 1.5-9.9 0-4-.5-7-1.4-8.9s-2.2-2.9-3.8-2.9c-2 0-3.8 1.2-5.4 3.7 0 2.8-.1 5.1-.1 6.9zm32.9-33.8h5.5v2.7c.6-1.1 1.5-2 2.5-2.6 1-.6 2.1-.9 3.3-.8 1.8-.1 3.5.7 4.6 2.1 1.1 1.4 1.7 3.9 1.7 7.5s-.6 6.5-1.7 8.5c-1.2 2.1-2.9 3.8-4.8 5.2 2.6-.1 5.1 1 6.8 2.9 1.7 1.9 2.6 5.1 2.6 9.5.1 3.1-.5 6.2-1.7 9-.9 2.1-2.5 4-4.4 5.2-1.7 1.1-3.8 1.7-5.8 1.7-1.4 0-2.8-.2-4.2-.7H404v-50.2zm5.5 4.6v18.7c1.2-.3 2.4-.6 3.6-.7 2.6-2.1 3.9-6.6 3.9-13.5.1-2.1-.1-4.3-.8-6.3-.3-1.1-1.3-1.8-2.4-1.8-1.7 0-3.1 1.2-4.3 3.6zm4.5 44c1.5 0 2.8-.9 3.9-2.7 1.1-1.8 1.6-4.9 1.6-9.2 0-4.4-.6-7.5-1.9-9.5-1.2-1.9-3.4-3-5.6-2.9-.9 0-1.7.2-2.6.4v21.2c1.5 1.8 3 2.7 4.6 2.7zm16.9-45.4c.5-.7 1.3-1 2.2-1 1.4-.2 2.6.8 2.8 2.1v.7c0 2.7-1 4-2.9 4-.8 0-1.5-.2-2.1-.8-.5-.6-.8-1.4-.8-2.2 0-.9.3-1.9.8-2.8zm4.7 13.3v33.7h-5.1V747l5.1.1zm11.8-.1v5.5c1.2-4.1 3-6.1 5.3-6.1 1 0 1.9.3 2.6.9l-1.6 5.2c-.3-.6-.7-1.2-1.2-1.7-.4-.4-1-.6-1.5-.6-1.4 0-2.6 1.5-3.6 4.7v25.8h-5.1V747h5.1zm24.5 33.7V776c-.6 1.5-1.5 2.8-2.6 3.9-1.1 1-2.6 1.5-4.1 1.5-2.1 0-4-1.1-4.9-3-1.2-2-1.8-5.3-1.8-10-.1-4.2.4-8.3 1.5-12.3.7-2.7 2-5.3 3.9-7.4 2-2.3 5.2-3.1 8-1.8v-19.6h5v53.4h-5zm-5-1.3c.9 0 1.8-.6 2.8-1.9.9-1.3 1.7-2.7 2.2-4.2v-23c-.4-.7-.9-1.4-1.6-1.9-.6-.4-1.3-.6-2-.6-1.1 0-2.1.5-2.7 1.5-.7 1-1.2 2.9-1.6 5.8-.4 4.2-.6 8.3-.6 12.5 0 7.9 1.2 11.8 3.5 11.8z" style="fill:#525252"/><path d="M741.1 193.4c-6 15.3-13.5 30-22.4 43.8l-1.9-.7c5.6-13.6 10.4-27.6 14.1-41.9 3.9-15 7-30.1 9.3-45.4h-38.7v-3.7h39.3l1-7.1 3.2.5c-1.1-5.1-2.9-10.1-5.2-14.8l1.7-1.2c4.6 5 7.8 9.4 9.4 13l-3.1 3.5 9.8 1.7c-4.3 17.8-9.9 35.2-16.5 52.3zm8.5-73.5c4.6 5.1 7.8 9.4 9.4 13l-5.3 6c-1.1-6.1-3.1-12.1-5.8-17.7l1.7-1.3zm45.6 66.9c8.8-13.5 16.5-27.7 23-42.5l1.5.2c-4.7 16.3-10.8 32.2-18.3 47.4-7.8 15.6-17.3 30.2-28.5 43.6l-7.3-11c11-11.5 20.9-24.2 29.6-37.7zm-3.4-24-10.3 7.3c-2.4-10.3-6.2-20.2-11.3-29.4l2.2-.9c9.5 9 16 16.7 19.4 23zm58.1 6.2c.5-5.3.8-12.1 1-20.6-4.7.6-10.9 1.2-18.5 2l-4.6.4-.5-1.9c15-3.3 29.6-7.7 43.9-13.3l7.5 8.4c-3 .6-7.7 1.4-14.3 2.5-.1 7.5-.7 15-1.9 22.4h20.1v3.7H862c-4.4 23.1-14.1 44.9-28.5 63.5l-1.6-.9c4.5-9.5 8.3-19.3 11.4-29.3 3.2-10.9 5.3-22 6.3-33.3h-24V169h24.3zm70.8 36.1v-17.5h-29.4v-3.7h29.4v-2.5h10.2v55.4h-10.2v-3.7h-30.6v-3.7h30.6v-20.6h-28.1v-3.7h28.1zm60.4-7.5c-5.1 13.4-11.6 26.3-19.3 38.4l-1.9-.7c10.5-23.7 17.6-48.6 21.2-74.3h-33.4v16.9h-9.3v-27.2h9.3v6.6h12v-19.6h9.9v19.6h11.9l.9-7.1 12.2 2.7c-3.5 15.2-8 30.1-13.5 44.7zM745 336c7.8 12.9 16.3 25.3 25.5 37.2l-11.5 9.2c-7.3-11.5-13.9-23.4-19.8-35.7-4.3 6.2-9 12.1-14.1 17.7-5.7 6.2-11.8 12.2-18.2 17.7l-1.6-1.1c11.2-13.9 20.9-29 28.9-45-6-13.9-11-28.3-14.9-42.9h-12.1v-3.7h29.4c-1.3-8.4-3.3-16.6-6.1-24.7l2.2-.9c7.7 8.2 12.9 15.3 15.6 21.5l-7.9 4.1h31.2v3.7h-15.4l7.4 2.9c-5 13.9-11.2 27.3-18.6 40zm-6.1-10.1c4.7-10.6 8.6-21.6 11.8-32.7h-29.2c5.4 10.9 11.2 21.8 17.4 32.7zm58.8 21.6 1.7.6c-1.1 11.5-3.2 22.9-6.2 34l-9.2-10.8c5.5-7.4 10.1-15.4 13.7-23.8zm44.8-70.2v38.4h-11.4v-3.5h-27.3v9.3h51v3.7h-51v9.5H841l.2-3.6 11.4.5c-.8 16.6-2.5 33.5-5 50.7l-11.2-1.1.5-3.6-27.5-11.9-3.6 2.9c.3-3.1.4-6.2.4-9.2 0-3.9-.2-7.9-.7-11.8l1.2-.6c3.4 4.5 6 9.5 7.9 14.8l-3.6 2.9 26.7 7.7c1.2-9.4 2.2-20.7 3-33.9h-37v4.3h-11.4v-65.6h11.4v3.7h4.6c2.7-4.8 4.9-9.8 6.7-15l11.8 4.3c-4.7 3.9-9.7 7.5-14.9 10.7H831v-3.7l11.5.1zm-11.4 18v-10.6h-27.3v10.5l27.3.1zm0 13.2V299h-27.3v9.5h27.3zm-14.7 37c4 3.4 7.5 7.4 10.6 11.7l-7.2 6c-.8-4.2-1.8-8.3-3.1-12.3l-1.4-5 1.1-.4zm10.3-2.8 4.5 3.8c2.2 1.9 4.2 3.9 6.1 6.1l-6.1 5.6c-.9-2.8-2.3-6.5-4.1-10.9-.7-1.8-1.2-3.2-1.6-4.1l1.2-.5zm-72.9 80.6c5.4 37.1 11.8 68.7 19.2 94.8l-11.5 6.6c-2.5-16.4-4.6-32.5-6.3-48.2s-3-33.2-4-52.6l-10 1.4v97.3h-9.9v-96.2l-9.7.9c-.1 19-.8 34.7-2.2 46.9-1.4 12.3-3.3 22.2-5.8 29.6-2.3 7.1-5.5 13.8-9.5 20l-1.1-.2c1.9-6.5 3.3-13.1 4.3-19.8 1-7 1.9-16.9 2.5-29.6.6-12.7 1-30 1-52h10.8v2.2c12.9-3 25.6-6.9 38-11.7l7.5 8.4c-4.7.9-9.1 1.7-13.3 2.2zm85.5-11.1v13.5h13v3.7h-13v28.8h15.5v3.7h-41.4v49H804v-4h-7v11.9h-9.3v-99.7h9.3v3.7h7v-3.7h9.3v39.1h14.9v-28.8h-12v-3.7h12v-13.5h11.1zm-35.3 91v-76.6h-7v76.6h7zm9.7 15.6h14.5v-36.1h-12V479h12v-13.6h11V479h13v3.7h-13v36.1h15.5v3.7h-41v-3.7zM916 487.1c-2.5-11-4.7-23-6.5-36.1h-3.1v75.3h-10.1V451h-8.8l6.2 3.7c-3.1 11.9-7 23.5-11.6 34.9-4.6 11.1-9.8 21.9-15.7 32.3l-1.4-.6c8.4-22.8 14.4-46.3 18.1-70.3h-14.8v-3.7h27.9v-23.2c-5.4.7-13 1.4-22.7 2.1l-.5-1.9c16.2-3.3 32.1-7.7 47.6-13.3l7.4 8.4c-6.9 1.2-14.1 2.4-21.8 3.5v24.3h26.5v3.7h-21.5c4 12.1 7.9 23.1 11.8 33 3.9 9.9 8.3 19.7 13.2 29.5l-11.2 8.1c-3.4-11.9-6.5-23.4-9-34.4zm70.2-74.9v33.2c5.7-3 11.1-6.5 16.2-10.4l3.6 2.6c-2.1-7.3-6.1-14.9-12-22.6l1.1-.5c9.5 6.6 16.6 12.8 21.2 18.5l-9.5 5.2 4.6 3.4c-8.5 4.2-17.3 7.9-26.3 10.9 5.3 3.9 9 7.3 11 10.3l-6.2 2.2h24.8v3.7h-20.3v14.4h17.9v3.7h-17.9V500h17.9v3.7h-17.9v15.1h20.3v3.7h-49.5v3.7h-10.7V461l-8.2 1.7-.5-1.2c2-.6 3.6-1.1 5-1.6l3.7-1.1V457h4.8c7.6-2.7 15-5.8 22.2-9.3h-5.3v-35.6h10zM958 429.6c2.9-4.8 5.5-9.9 7.6-15.1l1.6.4c-2.2 12.6-5.8 23.5-10.7 32.7l-8.7-3.4c3.8-4.6 7.1-9.5 10.2-14.6zm28 35.4c-.7-4-1.9-7.9-3.3-11.7-6 2-11.7 3.7-17.4 5.1v6.6H986zm-1.6 53.8v-15.1h-16.3V500h16.2v-13.2h-16.2v-3.7h16.2v-14.4h-19.1v50.1h19.2zM721.7 651c.8-2.2 1.2-6.3 1.2-12.2v-68.3h9.3v69.3c0 6.9-1.2 11.7-3.7 14.5-2.3 2.7-5.7 4.3-9.2 4.2-3.9 0-7.6-1.5-10.3-4.2-3-2.8-5.7-7.1-8.2-13l7.6-7.1c1.6 13.3 4.7 20 9.4 20 1.8.1 3.1-1 3.9-3.2zm30.3-50.5c2.4-1.8 5.4-2.8 8.5-2.7 3.2-.1 6.3 1 8.6 3.2 2.2 2.1 3.2 5.1 3.2 9.1v47.2h-8.8v-7.4c-1 2.4-2.6 4.6-4.6 6.3-1.9 1.6-4.3 2.4-6.8 2.4-2.5.1-4.8-.9-6.5-2.7-1.6-1.8-2.4-4.7-2.4-8.7-.1-3.8.7-7.7 2.4-11.2 1.4-3 3.5-5.6 6.1-7.5 2.3-1.7 5-2.6 7.8-2.7 1.4 0 2.7.3 4 .7v-14.9c0-3.9-.3-6.7-.9-8.3-.4-1.5-1.7-2.5-3.2-2.5-1.7 0-3.2 1.1-4.3 3.3s-2 5.7-2.8 10.6l-6.9-5.8c1.6-3.2 3.8-6.1 6.6-8.4zm3.7 53.6c1.7-.1 3.3-.9 4.4-2.3 1.5-1.7 2.6-3.7 3.4-5.9v-14.1c-1.5-2.2-3.3-3.3-5.3-3.3s-3.6 1.3-5 3.8-2 6.3-2 11.3c0 7 1.5 10.5 4.5 10.5zm32.6-55.8 8.3 41.8 7.8-41.4 5.8.6-13 58h-4.6L780 600l8.3-1.7zm36.5 2.2c2.5-1.8 5.4-2.8 8.5-2.7 3.2-.1 6.2 1 8.5 3.2 2.2 2.1 3.2 5.1 3.2 9.1v47.2h-8.8v-7.4c-1 2.4-2.6 4.6-4.6 6.3-1.9 1.6-4.3 2.4-6.8 2.4-2.5.1-4.8-.9-6.5-2.7-1.6-1.8-2.3-4.7-2.3-8.7-.1-3.8.7-7.7 2.4-11.2 1.4-3 3.5-5.6 6.1-7.5 2.3-1.7 5-2.6 7.8-2.7 1.4 0 2.7.3 4 .7v-14.9c0-3.9-.3-6.7-.9-8.3-.4-1.5-1.7-2.5-3.2-2.5-1.7 0-3.2 1.1-4.3 3.3s-2 5.7-2.8 10.6l-6.9-5.8c1.6-3.2 3.8-6.1 6.6-8.4zm3.7 53.6c1.7-.1 3.3-.9 4.4-2.3 1.5-1.7 2.6-3.7 3.4-5.9v-14.1c-1.5-2.2-3.3-3.3-5.3-3.3s-3.7 1.3-5 3.8c-1.3 2.6-2 6.3-2 11.3 0 7 1.5 10.5 4.5 10.5zm52 .2c-3.1-2.9-5.8-7.1-8.1-12.8l6.5-9.2c1.1 7.6 2.9 13.2 5.4 16.7 2.5 3.6 5.3 5.3 8.2 5.3 2.1 0 4-1 5.2-2.8 1.3-1.9 1.9-4.8 1.9-8.9 0-2.8-.5-5.5-1.5-8.1-1-2.7-2.6-6.2-4.8-10.5l-1.7-3.5-9.4-18.8c-1.5-3.1-2.6-6.3-3.5-9.7-.8-3-1.2-6-1.2-9.1 0-4.5 1.2-7.9 3.7-10.2 2.4-2.4 5.8-3.5 10.2-3.5 5.6 0 11 2.3 14.8 6.5l-5 9.2c-2.2-8.4-5.8-12.6-10.8-12.7-1.5 0-3 .6-4.1 1.7-1.2 1.4-1.9 3.2-1.7 5 0 4.2 2.1 10.3 6.3 18.1l9.7 18.5c5 9.3 7.5 17.1 7.5 23.3 0 6.9-1.8 12-5.3 15.1-3.3 3-7.6 4.7-12 4.7-3.9-.1-7.5-1.6-10.3-4.3zm45.6-55.3v8c1-2.5 2.5-4.7 4.6-6.5 2-1.7 4.5-2.6 7.1-2.5 3.6 0 6.5 1.7 8.5 5.2 2 3.4 3 9.2 3 17.2 0 8.4-.9 15.5-2.6 21.3s-4 10-6.8 12.8c-2.8 2.8-5.8 4.2-8.9 4.2-1.7 0-3.3-.3-4.8-1V689h-8.8v-90h8.7zm6 56.7c1.9 0 3.7-.9 4.8-2.5 1.2-1.7 2.1-5 2.8-9.9.8-7.2 1.1-14.4 1-21.6 0-6.1-.7-10.7-2-13.8-1.3-3.1-3-4.7-5-4.7-1.3 0-2.8.9-4.3 2.6-1.5 1.7-2.7 3.7-3.4 5.8v40c1.7 2.7 3.7 4.1 6.1 4.1zm34.1-55.2c2.5-1.8 5.4-2.8 8.5-2.7 3.2-.1 6.3 1 8.6 3.2 2.1 2.1 3.2 5.1 3.2 9.1v47.2h-8.8v-7.4c-1 2.4-2.6 4.6-4.6 6.3-1.9 1.6-4.3 2.4-6.8 2.4-2.5.1-4.8-.9-6.5-2.7-1.6-1.8-2.4-4.7-2.4-8.7-.1-3.8.7-7.7 2.4-11.2 1.4-3 3.4-5.6 6.1-7.5 2.3-1.7 5-2.6 7.8-2.7 1.4 0 2.7.3 4 .7v-14.9c0-3.9-.3-6.7-.9-8.3-.4-1.5-1.7-2.5-3.2-2.5-1.7 0-3.2 1.1-4.3 3.3-1.1 2.2-2.1 5.7-2.8 10.6l-6.9-5.8c1.6-3.2 3.8-6.1 6.6-8.4zm3.6 53.6c1.7-.1 3.3-.9 4.4-2.3 1.5-1.7 2.6-3.7 3.4-5.9v-14.1c-1.5-2.2-3.3-3.3-5.3-3.3s-3.6 1.3-5 3.8-2 6.3-2 11.3c.1 7 1.6 10.5 4.5 10.5zm36.6-55.1v9.4c2.2-7 5.2-10.5 9.2-10.5 1.7-.1 3.3.5 4.6 1.5l-2.8 9.1c-.5-1.1-1.2-2.1-2.1-2.9-.7-.6-1.6-1-2.6-1-2.4 0-4.5 2.7-6.2 8.1v44.7h-8.8V599h8.7zm29.7 0v9.4c2.1-7 5.2-10.5 9.2-10.5 1.7-.1 3.3.5 4.6 1.5l-2.8 9.1c-.5-1.1-1.2-2.1-2.1-2.9-.7-.6-1.6-1-2.6-1-2.4 0-4.5 2.7-6.2 8.1v44.7h-8.8V599h8.7zm23.7 51.7c-3.1-5.2-4.6-12.9-4.6-23.2 0-9.7 1.6-17.1 4.9-22.1s7.5-7.5 12.8-7.5c4.8 0 8.6 2.2 11.5 6.6 2.9 4.4 4.3 11.4 4.3 21 0 12.1-1.5 20.6-4.7 25.5-3.1 4.9-7.1 7.4-12 7.4-5.1 0-9.2-2.6-12.2-7.7zm13.7 4.1c2.2 0 4.2-1.3 5.1-3.3 1.2-2.2 1.7-6.1 1.7-11.7 0-12-.7-21.4-2-28.3-1.3-6.8-3.7-10.3-7.1-10.3-2.4-.1-4.6 1.1-5.8 3.2-1.2 2.1-1.8 5.7-1.8 10.8 0 26.5 3.3 39.6 9.9 39.6zm21.7-54.8 8.3-1.7 8.6 42.8 7.2-32.4-2-8.7 8.3-1.7 8.4 42.3 7.8-41.9 5.8.6-13 58h-4.6l-8.6-38.6-9 38.6h-4.6l-12.6-57.3zM766.5 821v-23.2c0-8.8-6.8-12.2-14.4-12.2-6.4 0-12 4.1-12 12V813c-.1 2.8.7 5.6 2.2 8h-8.4v-25.6c0-7.1-5-9.8-10.7-9.8s-10.2 3.2-10.2 9.6V816c0 6.1 2.5 11.2 7.5 15.3l1.6-1.6c-3.5-3-5.2-8.2-5.2-14.7v-20.8c.1-2.3 2-4.1 4.2-4h.2c2.9 0 4.1 2.5 4.1 6.1v28.8h22.2V821h-1.4c-1.4-2-2.2-5.5-2.2-9.6v-13.6c0-3.8 2.6-6.8 7.5-6.8s6.6 3.5 6.6 8.5v25.7h16.8c8.9-.2 17.6 1.9 25.5 6l.7-1.3c-7.9-5.5-16.1-8.9-25.8-8.9h-8.8zm124.9-18.5H872v6.4h14.8c3 1.7 4.6 4.5 4.6 6.4 0 3-2.6 7.2-14.7 7.2-11.7 0-14.7-5-14.7-13.4 0-12 5.9-19.8 32.1-22.2l-.2-1.6c-29.7.8-40.5 9.5-40.5 24.7 0 10.8 10.1 15.3 23.3 15.3s17.3-5.3 17.3-9.6c0-2.6-1.6-5-4.1-6.7 11.8.1 21.2 7 24.5 18.3l1.6-.8c-2.2-10.9-10.4-24-24.6-24zm-77.8-33.4c1.3 0 2 .8 2 2.3 0 2.3-2.6 4.8-7.3 5.2 1.1-4.6 3-7.5 5.3-7.5zm65.2 4.1c0 2.8-1 4.6-2.4 4.6-2.3 0-3.1-4.9-3.1-10.8v-8.2c3.1 4.5 5.5 9.9 5.5 14.4zm85.9-52.5H953v5.4h1.3c2.3 1.7 3.4 4.4 3.4 7.8l.1 33.3c0 5.3-2.7 9.4-8.3 9.4-6.4 0-8.3-4.6-8.3-11.2v-29.9c0-4.6.7-8.4 2.8-9.4h1.2v-5.4h-12.3c-5.2 0-9.7 3.7-9.7 11.2v37.2c-.2 7 2.5 13.8 7.5 18.9l1.6-1.6c-3.5-3.7-5.2-10.1-5.2-18.3v-36c0-3.4 2.7-6 7.5-6h2.9c-2.4 1.7-4.1 4.7-4.1 9.6v30.6c0 10.3 6.1 14.4 16.1 14.4 8.2 0 12.2-4.7 12.2-14.2v-34.2c0-2.2-.6-4.4-1.8-6.2h3.1c3.6 0 5 3.8 5 9.4v45.3h8.5v-47.4c0-9.1-5.9-12.7-11.8-12.7zm-60.1-1.2h-9.7v4.2h1.4c1.4 1.7 2.2 4.4 2.2 7.8v45h-2.6v-44.4c0-9-6.8-12.6-14.4-12.6-6.4 0-12 4.6-12 13.6v17.1c-1.5-1.5-3.2-2.8-5-3.8v-16.6c0-7.3-5-10.2-10.7-10.2s-10.2 3.7-10.2 11.2V768c-.2 7 2.5 13.8 7.5 18.9l1.6-1.6c-3.5-3.7-5.2-10.1-5.2-18.3v-37.2c0-3.1 1.8-5.5 4.5-5.5 2.9 0 4.1 2.6 4.1 6.5v50.1h8.5v-31.5c1.8 1.4 3.5 2.9 5 4.6v14.7c0 7.7 1.6 13.5 6.2 13.5 3.5 0 6.1-3.1 6.1-8.3 0-6.1-3.7-13.7-8.5-19.5v-20.9c0-4.8 2.7-8.4 7.5-8.4s6.6 3.6 6.6 8.9v47h15v-50.8c0-2.2-.6-4.4-1.8-6.2h3.4c3.4 0 4.7 2.9 4.7 7v50.1h8.5V730c-.2-7.7-5.6-10.5-12.7-10.5zm-76 0c-3.7 0-5.6 2.8-6.8 5.9-1.5-4.5-4.1-5.9-6.5-5.9-5.2 0-8.9 4.3-8.9 13 0 7.9 2.5 14.5 7.5 22.5l1.6-1.6c-3.6-6.7-5.3-14.3-5.2-21.9 0-4.3 1.4-7.8 3.6-7.8 2.6 0 3.4 4.1 3.4 10h5.7c0-2-.1-3.9-.5-5.9.8-2.6 2.3-4.1 3.6-4.1 2.4 0 3.5 2.4 3.5 5.8v51.3h8v-52.3c-.1-6.3-4.2-9-9-9zM814 797.1c-4.3 0-6.7-2.3-6.7-10.7 0-1.9.1-3.8.4-5.7 6.1-.5 10.3-4.4 10.3-9.7 0-2.6-2.3-3.8-4.6-3.8-3.1 0-5.8 3.4-7.5 9.4h-2.8v-46.9c0-7.3-5-10.2-10.7-10.2s-10.2 3.7-10.2 11.2v37.2c-.2 7 2.5 13.8 7.5 18.9l1.6-1.6c-3.5-3.7-5.2-10.1-5.2-18.3v-37.2c0-3.1 1.8-5.5 4.4-5.5 2.9 0 4.1 2.6 4.1 6.5v50.1H805c-.5 3.5-.8 7-.7 10.5 0 10.7 4.3 14.2 8.9 14.2 6.7 0 10.9-7.5 13-13.8l-1.4-.5c-2.1 3.9-5.6 5.9-10.8 5.9zm-105.2-73c2.9 0 4.1 2.6 4.1 6.5v50.1h15V736c0-7 2.2-12.4 7-12.4 4.6 0 5.9 5.9 5.9 14.2v42.9h14.5V736c0-7 2.2-12.4 7-12.4 4.6 0 5.9 5.9 5.9 14.2v42.9h8v-43.8c0-12.5-5.2-17.4-13.7-17.4-7.3 0-11 5.8-11 17.2v39.9h-2.7v-39.7c0-12.5-5.2-17.4-13.7-17.4-7.3 0-11 5.8-11 17.2v39.9h-2.7v-46.9c0-7.3-5-10.2-10.7-10.2s-10.2 4.3-10.2 13c0 7.9 2.5 14.5 7.5 22.5l1.6-1.6c-3.6-6.7-5.3-14.3-5.2-21.9 0-4.1 1.8-7.4 4.4-7.4zm99.4-27.6c1.9 0 3.2 3.4 3.2 8.3v5c-1.7.6-3.5.9-5.3.8-2.8 0-3.2-2.8-3.2-5.6 0-4.8 2.1-8.5 5.3-8.5zm-2.2 17c1.9 0 3.7-.4 5.4-1.1v1.1h8v-9.6c0-7.8-4.4-10.8-9.4-10.8-6 0-11 4.3-11 13 0 4.5 2.3 7.4 7 7.4z" style="fill:#fbfbfb"/></svg>