<svg xmlns="http://www.w3.org/2000/svg" viewBox="0 0 1280 960"><path d="M353.1 768.6h-6.6v-3h7.1l2.1-13.6 7.3.9-2 12.7h15.5v3h-15.9l-8.9 57.6-7.3-1 8.7-56.6zm9.4 40.1c.9-2.5 2.1-5 3.5-7.3l.8.4a29 29 0 0 0-2.1 10.1c0 2.4.6 4.2 1.9 5.2 1.3 1.1 3.4 1.7 6.3 1.7H384v9.2h-11.1c-4 0-6.9-1-8.8-2.9s-2.8-5.1-2.8-9.5c0-2.4.4-4.7 1.2-6.9zm.3-29.1c6.9.5 13.7 1.6 20.3 3.3l-3.7 8.5-2.7-2.3-5.8 5.1-.7-.4 4.3-6.4a57.2 57.2 0 0 0-11.9-7l.2-.8zm40.3-11h-6.6v-3h7.1l2.1-13.6 7.3.9-2 12.7h15.5v3h-15.9l-8.9 57.6-7.3-1 8.7-56.6zm9.4 40.1c.9-2.5 2.1-5 3.5-7.3l.8.4a29 29 0 0 0-2.1 10.1c0 2.4.6 4.2 1.9 5.2 1.3 1.1 3.4 1.7 6.3 1.7H434v9.2h-11.1c-4 0-6.9-1-8.8-2.9s-2.8-5.1-2.8-9.5c0-2.4.4-4.7 1.2-6.9zm.3-29.1c6.9.5 13.7 1.6 20.3 3.3l-3.7 8.5-2.7-2.3-5.8 5.1-.7-.4 4.3-6.4a57.2 57.2 0 0 0-11.9-7l.2-.8zm46.5-9.8h13.5v29c0 10.1-1.1 20.3-3.2 30.2l-6.4-1.4 1-5.2-6.1-35 1-.3 6.3 25.4c.4-4.7.6-9.4.6-13.9v-25.8h-7.1l-8.6 56.9-6.6-.9 8.5-56h-7.4v-3h7.8l2.3-15.2 6.6.9-2.2 14.3zm17.5-6.4a356 356 0 0 1 10.6 46.8l-8.5 4.5c-.5-16.4-1.7-33.4-3.4-51l1.3-.3zm25.8 20.2c0 6.3.2 13.3.5 20.8l9.4-29.5 1.7.4-10.5 39.3.7 7.6-7 2.9a357.7 357.7 0 0 1-2-62.5l7.7.5a508 508 0 0 0-.5 20.5zm24.4-16.5c5.1 13.7 8.4 28.1 9.7 42.7l-9.8 4.1a228.4 228.4 0 0 0-1.8-45.9l1.9-.9zm26.9 47c2.2 0 3.3 1.1 3.3 3.3 0 3.1-1.1 4.7-3.3 4.7s-3.4-1.1-3.4-3.4c0-3.1 1.1-4.6 3.4-4.6zm11.8-56.1-9.7 47.7-2.5-.1 2-48.6 10.2 1zm36.9 25.6c0 6.3.2 13.3.5 20.8l9.4-29.5 1.7.4-10.5 39.3.7 7.6-7 2.9a357.7 357.7 0 0 1-2-62.5l7.7.5a508 508 0 0 0-.5 20.5zm24.4-16.5c5.1 13.7 8.4 28.1 9.7 42.7l-9.8 4.1a228.4 228.4 0 0 0-1.8-45.9l1.9-.9zm53.3 2.7c2.9 2.4 4.4 6.4 4.4 12.1a43 43 0 0 1-3.8 17 56.6 56.6 0 0 1-11.1 16.7c-4.8 5.1-10.6 9-17 11.7l-.4-1.5a39 39 0 0 0 12.8-12.1 55.5 55.5 0 0 0 9.7-31.8c0-4.5-.7-7.8-2.2-9.7s-3.9-3-6.3-2.8h-19.9v-3h21.2c5.5-.2 9.7 1 12.6 3.4zm34.1 6-1.1 13h11.9v3h-12.1a409 409 0 0 0-.4 15.7c-.1 2.5.1 5 .7 7.5a5.6 5.6 0 0 0 2.3 3.5 9 9 0 0 0 4.8 1h5.2c4.9 0 7.3-6.9 7.3-20.7h1a115 115 0 0 1-.8 15.5c-.5 3.8-1.5 6.7-2.9 8.5s-3.7 2.9-6 2.8h-8.1c-3.9 0-6.7-1.3-8.3-3.9-1.7-2.6-2.5-7-2.5-13.1 0-6 .1-11.6.4-16.7h-9.9v-3H706l.6-8.4.3-4.6h-10v-3h10.3c.7-7.1 1.4-13.5 2.2-19.3l7.7 1c-1 6.6-1.8 12.7-2.3 18.3h14.5v3l-14.9-.1zm38.7-7.2h-6.6v-3h7.1l2.1-13.6 7.3.9-2 12.7h15.5v3h-15.9l-8.9 57.6-7.3-1 8.7-56.6zm9.4 40.1c.9-2.5 2.1-5 3.5-7.3l.8.4a29 29 0 0 0-2.1 10.1c0 2.4.6 4.2 1.9 5.2 1.3 1.1 3.4 1.7 6.3 1.7H784v9.2h-11.1c-4 0-6.9-1-8.8-2.9s-2.8-5.1-2.8-9.5c0-2.4.4-4.7 1.2-6.9zm.3-29.1c6.9.5 13.7 1.6 20.3 3.3l-3.7 8.5-2.7-2.3-5.8 5.1-.7-.4 4.3-6.4a57.2 57.2 0 0 0-11.9-7l.2-.8zm40.3-11h-6.6v-3h7.1l2.1-13.6 7.3.9-2 12.7h15.5v3h-15.9l-8.9 57.6-7.3-1 8.7-56.6zm9.4 40.1c.9-2.5 2.1-5 3.5-7.3l.8.4a29 29 0 0 0-2.1 10.1c0 2.4.6 4.2 1.9 5.2 1.3 1.1 3.4 1.7 6.3 1.7H834v9.2h-11.1c-4 0-6.9-1-8.8-2.9s-2.8-5.1-2.8-9.5c0-2.4.4-4.7 1.2-6.9zm.3-29.1c6.9.5 13.7 1.6 20.3 3.3l-3.7 8.5-2.7-2.3-5.8 5.1-.7-.4 4.3-6.4a57.2 57.2 0 0 0-11.9-7l.2-.8zm46.5-9.8h13.5v29c0 10.1-1.1 20.3-3.2 30.2l-6.4-1.4 1-5.2-6.1-35 1-.3 6.3 25.4c.4-4.7.6-9.4.6-13.9v-25.8h-7.1l-8.6 56.9-6.6-.9 8.5-56h-7.4v-3h7.8l2.3-15.2 6.6.9-2.2 14.3zm17.5-6.4a356 356 0 0 1 10.6 46.8l-8.5 4.5c-.5-16.4-1.7-33.4-3.4-51l1.3-.3zm25.8 20.2c0 6.3.2 13.3.5 20.8l9.4-29.5 1.7.4-10.5 39.3.7 7.6-7 2.9a357.7 357.7 0 0 1-2-62.5l7.7.5a508 508 0 0 0-.5 20.5zm24.4-16.5c5.1 13.7 8.4 28.1 9.7 42.7l-9.8 4.1a228.4 228.4 0 0 0-1.8-45.9l1.9-.9z" style="fill:#525252"/><path d="m266.5 468.6 6.7-57.4h10.1l-6.7 57.4h26.1l6.7-57.4h10.1l-6.7 57.4h18.9L330 486h-18.9l-6.7 58h18.9l-2 17.4h-18.9l-6.1 52.8h-10.1l6.1-52.8h-26.1l-6.1 52.8H250l6-52.8h-18.8l2-17.4H258l6.7-58h-18.8l1.7-17.4h18.9zm27.8 75.4 6.7-58h-26.1l-6.7 58h26.1zm547.2-129.1L1006 452l-4.3 21.2-86.2-19.4v15.4h11.6l41.5 153.7h60v14.5H793.7v-14.5h63.8L899 469.2h7.8v-17.4l-69.6-15.7-20.9 98.6h-17.1a299.3 299.3 0 0 1-14.2-94.3c0-18.7 3-34.3 9.1-46.5a54.2 54.2 0 0 1 23.9-25.7l31.3 9.3-7.8 37.4zm-37.4 65.6c1.2 11.7 3.1 23.3 5.8 34.8l28.7-134-12.2-3.2a56 56 0 0 0-17.8 26.5 106.8 106.8 0 0 0-6.2 36.7c0 14.5.6 27.6 1.7 39.2zm6.1-14.1c.8-.7 1.8-1 2.9-1 1.9 0 3.5 1.6 3.5 3.5 0 1.1-.3 2.1-1 2.9-.6.7-1.5 1.2-2.5 1.2a4 4 0 0 1-4.1-3.9v-.1c.1-1.1.5-2 1.2-2.6zm2.4-14.3a4 4 0 0 1 2.9-1.2c1 0 1.9.4 2.5 1.2a4 4 0 0 1 1 2.6c.1 1-.3 2-1 2.8-.6.7-1.5 1-2.5 1-1.1 0-2.1-.3-2.9-1a3.6 3.6 0 0 1-1.2-2.8c0-1 .4-2 1.2-2.6zm2.3-13.4a4 4 0 0 1 2.9-1.2c1 0 1.9.4 2.5 1.2a4 4 0 0 1 1 2.6c.1 1-.3 2-1 2.8-.6.7-1.5 1-2.5 1-1.1 0-2.1-.3-2.9-1a3.6 3.6 0 0 1-1.2-2.8c0-1 .4-1.9 1.2-2.6zm133.4 184.2-10.4-39.7h-58.6l-10.4 39.7h79.4zm-12.8-48.5-9-34.8h-35.7l-9.3 34.8h54zm-11.3-43.5-11.3-43.5h-8.4l-11.3 43.5h31zm81.2-13.6c0 21.5-2.4 40.5-7.2 57s-12.2 29.8-22 39.9l-21.8-78 51-18.9zm-26.1 74.5a86.2 86.2 0 0 0 8.8-22.2c2.4-8.6 3.7-17.4 3.9-26.2l-22.6 8.7 9.9 39.7z" style="fill:#882233"/><path d="m425.1 374.3 29.6 7.2-7 18.6a775.6 775.6 0 0 0 77.1 131.7l-27 18.6a406 406 0 0 1-10.1-20.9h-64.3l19.1 10.7a389 389 0 0 1-45.2 70.2l68.7-31a969.4 969.4 0 0 0-9.6-40.9l2.3-1.5c17 28.4 31.7 60 44.1 94.8L479 649.5c-4.2-25.9-8.2-47.5-11.9-64.7L383.9 647 370 622.9l17.1-7.9a573.2 573.2 0 0 0 27.5-85.5H386v-8.7h97.4c-6.4-14.3-12.2-28-17.4-41.2h-58a654.3 654.3 0 0 1-48.7 70.5l-2-1.2a696.6 696.6 0 0 0 67.8-174.6zm37.7 96.6a569.1 569.1 0 0 1-18.6-62.6 577.9 577.9 0 0 1-31 62.6h49.6z" style="fill:none;stroke:#fbfbfb;stroke-width:2"/><path d="m664.4 577-14.8 26.4m-15.7 23.5-16.2 19.7m89.6-175.1L694.5 506m-14.2 32.8-15.4 29.6M705.5 421l-6.7-12.2m-12.7-15.3L670.5 379m13.3 56-3.2-18.6m-6.1-18-7.5-16.9m20.8 76.9-20 74.8m-24.9 64.7-28.4 46.4m91.7-11.6-39.4-36m-7.6-96.8V379.3m31.3 272.3-34.2-27.8m-20-95.2V379.3m34.2-.3-3.5 2.6a225.9 225.9 0 0 1 16.8 53.4l21.7-14a184.3 184.3 0 0 0-35-42zm17.4 79.4c-20 74.8-45 139.5-73.4 185.9l3.2 2.3a478.4 478.4 0 0 0 46.7-69.6l.6-8.7a850.4 850.4 0 0 0 42.3-96.9l-19.4-13zm12.5 38L682 627.8l15.1 2 7.2-131.7-3.9-1.7zm-41.3-117.1h-22.9c0 149.4 20 244.5 54.2 272.3l15.7-18.8c-39.4-36-47-132.9-47-253.5zm-44 77.4 3.2 9.3 85.5-21.8-3.2-9.2-85.5 21.7zm-28.2-34.2v8.7h41.2v-8.7h-41.2zm-10.7-43.2v112.2h20.3V379.3h-20.3zm-13 220.4v8.7H613v-8.7h-49.8zM551 479.3v166.8h21.2v-154l-2.3-1.5v-11.3H551zm53.1 0V620h20.3V479.3h-20.3zm-40.9 8.7v8.1H613V488h-49.8z" style="fill:none;stroke:#fbfbfb;stroke-miterlimit:10"/><path d="M315.7 180a117 117 0 0 0-7.8 45.8c0 19.7 2.9 34.3 8.6 43.9s13.7 14.4 23.8 14.4a36 36 0 0 0 22.1-8.3l1.6 1.4a37 37 0 0 1-28.8 13c-7.5.1-14.9-2.3-21-6.8a44.6 44.6 0 0 1-14.7-20.7 96.1 96.1 0 0 1-5.4-34.5c-.1-12.1 1.5-24.1 5-35.6 3.3-10.8 8.6-19.4 15.9-25.9s16.4-9.7 27.3-9.8c13.1 0 23 4.6 29.8 13.9 6.8 9.2 10.2 22 10.2 38.2.1 8.6-1 17.2-3.3 25.5a41.7 41.7 0 0 1-9.1 17.2 17.1 17.1 0 0 1-12.8 6.1c-8.3 0-12.4-6.4-12.4-19.1-1.5 5-3.9 9.7-7.1 13.8a13 13 0 0 1-10.2 5.3c-7.4 0-11.2-7-11.2-21.1a115 115 0 0 1 2.7-21.8c1.4-6.9 4-13.5 7.7-19.4 3.5-5.3 7.7-7.9 12.6-7.9 3.7 0 6.7 1.7 9 5.2l.4-3.4h10.6l-3.6 42.5-.4 9c0 8.5 1.7 12.8 5 12.8 2.9 0 5.3-2.9 7.3-8.7s3-14.7 3-26.7c0-17.5-2.4-31.3-7.1-41.4s-12.3-15.1-22.6-15.1c-11.4-.1-19.9 6-25.1 18.2zm13.3 68.4c.7 2.7 1.8 4.1 3.2 4.1 2 0 4.4-2.4 6.9-7.1 2.6-4.8 4.7-9.9 6.2-15.2l2.9-33.8c-1.6-2.6-3.4-4-5.6-4-3 0-5.6 2.6-7.8 7.6a74 74 0 0 0-5.1 18.4c-1.1 6.5-1.7 13-1.8 19.6-.1 3.5.3 7 1.1 10.4zm105.8-42.2c2.3-15.7 3.5-31.5 3.6-47.3h-30.6v-5.4h79.9v5.4h-30.6c-.1 15.9-2 31.8-5.4 47.3h42.8v5.4h-38.2a485.2 485.2 0 0 0 40.1 81L478 309.5a706.6 706.6 0 0 1-14.6-49c-4-16.1-7.2-32.5-9.4-49h-3.4a229 229 0 0 1-19.9 54.4 194.8 194.8 0 0 1-29.2 42.5l-1.8-1.1a234.6 234.6 0 0 0 20.7-42.8 278 278 0 0 0 13.7-52.9H401v-5.4h33.8zm176.7-24.9v126.9h-15.7v-9.9l-18.2-34.6h-6.8v40.9H558v-40.9h-21v-5.4h21.1V234h-18.3v-5.4h24.8c5-11.8 8.9-23.9 11.9-36.4h-43.6v115.9H518V181.3h14.9v5.6h21.8c2-8.9 3.6-16.9 4.7-23.9h-44.3v-5.4h45.2c1.1-6.5 2-13 2.7-19.4l14.8 4.5-5.9 14.9h42.7v5.4h-44.8c-4 9.3-7.7 17.3-11.2 23.9H596v-5.6h15.5zm-65.1 12.6c7.1 8.8 12.2 16.9 15.5 24.3l-10.3 5.8a151 151 0 0 0-6.8-29l1.6-1.1zm43 34.8v5.4h-18.5v24.3h21.2v5.4h-11l14.8 17.1v-88.6H580l8.3 7.6c-7.7 12.4-14.3 22-20 28.8h21.1zm42.7-42.1c4.2 2.7 8.2 5.8 12 9.1 3 2.6 5.6 5.4 8 8.6l-9.9 15.3a106 106 0 0 0-12.2-31.3l2.1-1.7zm32.2-29.7 2 .4-7.2 71.1h12.1c1.4-8.2 3.2-19.7 5.2-34.7a470 470 0 0 1-13.3 26.6l-1.6-.7a593 593 0 0 0 16.7-80.3l16.6 3.6c-1.6 5.9-3.2 11.2-4.9 15.8h42.3v5.4h-44.1c-1.8 5.4-4 11.1-6.5 17.1l9.4.7-.7 5.4h24.3l.4-5.4 14.8.7-2.7 45.7h5.2v5.4h-5.6L724 267h6.3v5.4h-6.8c-.6 8.8-1.6 20.8-3.1 36.2l-14.8-1.1.7-7-26.8-23.8 1.4-1.6 26 17.5c.5-4.1 1.1-10.8 1.8-20.2h-32.4l-4.1 19.8-12.6-2c4.3-20.2 7.9-39 10.8-56.5h-11.9l-7.9 76.9-15.8-9.6 29.5-144.1zm-13.1-3.2a65 65 0 0 1 7.7 10.4l-9 15.1a143.2 143.2 0 0 0-12.2-34.9l2.2-1.6c3.9 3.4 7.7 7.1 11.3 11zM693.6 267c-1.3-9.5-3.6-18.9-6.6-28.1l2.2-1.6a98.7 98.7 0 0 1 17.3 23.4l-10.1 6.2h12.8l2.5-33.3h-28.3a876.3 876.3 0 0 1-5.9 33.3h16.1v.1zm2.2-38.7c-.9-10.5-2.6-20.9-4.9-31.1l2.2-1.6c3.4 4.3 6.5 8.9 9.3 13.7 2.4 4.1 4.5 8.5 6.2 13l-9.7 6.1H712l2.2-35.6h-24.7a1670 1670 0 0 1-5.2 35.6l11.5-.1zm94-85.7v165.6h-14v-58.3l-16.4 51.7-12.6-11.9 29-51.3v-59.8h-27v-5.4h27v-30.6h14zm13 0h14.9v65c3.1-11.8 7.4-29.9 12.8-54.5l14.8 5.8a493.1 493.1 0 0 1-27.5 58.3v52.4c0 9.8 2.7 14.8 8.1 14.8h6.8l13-88.4 2.3.5-5.2 87.8h5.8l-.2 18.5H820c-11.5 0-17.3-9.5-17.3-28.6l.1-131.6zM909.5 217v-51.1h-25a163.6 163.6 0 0 1 22 36l-13.5 8.6a221.9 221.9 0 0 0-12.4-44.6H874v-5.4h35.5v-17.8H924v17.8h33.5v5.4h-11.7l8.5 5.8a308.4 308.4 0 0 1-26.1 39.6l-1.6-.7c4.4-12 8.5-26.9 12.1-44.6H924v51h37.8v5.4h-30.2c11.4 29.8 23 54.8 34.9 75.1L951.6 309a478 478 0 0 1-22-86.6H924v85.9h-14.5v-85.9H897l9 5.4a305 305 0 0 1-40 80.1l-2-.4a378.7 378.7 0 0 0 26.6-85.1h-21V217h39.9zm-360 260.8h3v3h-3v-3zm12.2 8.7h3v3h-3v-3zm49.8 0h3v3h-3v-3zm-49.8 111.7h3v3h-3v-3zm0 8.7h3v3h-3v-3zm49.8-8.7h3v3h-3v-3zm0 8.7h3v3h-3v-3zm-49.8-111.7h3v3h-3v-3zm49.8 0h3v3h-3v-3zM585.4 421h3v3h-3v-3zm41.2 0h3v3h-3v-3zm-41.2 8.7h3v3h-3v-3zm41.2 0h3v3h-3v-3zm-13 25.5h3v3h-3v-3zm3.2 9.3h3v3h-3v-3zm82.3-31h3v3h-3v-3zm3.2 9.2h3v3h-3v-3zm-20-9.2h3v3h-3v-3zm4 23.4h3v3h-3v-3zm19.5 13.1h3v3h-3v-3zm-42.4 96.8h3v3h-3v-3zm-.5 8.7h3v3h-3v-3zm26.1 74.6h3v3h-3v-3zm15.6-18.9h3v3h-3v-3zm-9-2.9h3v3h-3v-3zm-15.1-2h3v3h-3v-3zm18.3-131.4h3v3h-3v-3zm4.1 1.8h3v3h-3v-3zm-86.7 148.5h3v3h-3v-3zm-3.2-2.4h3v3h-3v-3zm91-223.3h3v3h-3v-3zm-35-42h3v3h-3v-3zm-3.5 2.6h3v3h-3v-3zm-97.2 109h3v3h-3v-3zm2.3 1.5h3v3h-3v-3zm-21.1 154h3v3h-3v-3zm18.8-166.8h3v3h-3v-3zm6.4-100h3v3h-3v-3zm20.3 0h3v3h-3v-3zm39.7 0h3v3h-3v-3zm22.9 0h3v3h-3v-3zM574.7 490h3v3h-3v-3zm20.3 0h3v3h-3v-3zm7.5-12.2h3v3h-3v-3zm20.3 0h3v3h-3v-3zm-52.2 166.8h3v3h-3v-3zm52.2-26.1h3v3h-3v-3zm-20.3 0h3v3h-3v-3zm65.3-87c1 0 1.8.8 1.8 1.8s-.8 1.8-1.8 1.8-1.8-.8-1.8-1.8.8-1.8 1.8-1.8zm12.5 5.5c1 0 1.8.8 1.8 1.8s-.8 1.8-1.8 1.8-1.8-.8-1.8-1.8.8-1.8 1.8-1.8zm14.2-32.8c1 0 1.8.8 1.8 1.8s-.8 1.8-1.8 1.8-1.8-.8-1.8-1.8.8-1.8 1.8-1.8zm-51.6 91.9c1 0 1.8.8 1.8 1.8s-.8 1.8-1.8 1.8-1.8-.8-1.8-1.8.8-1.8 1.8-1.8zm6.7 5.5c1 0 1.8.8 1.8 1.8s-.8 1.8-1.8 1.8-1.8-.8-1.8-1.8.8-1.8 1.8-1.8zm-15.7 23.5c1 0 1.8.8 1.8 1.8s-.8 1.8-1.8 1.8-1.8-.8-1.8-1.8.8-1.8 1.8-1.8zm22.3-3.2c1 0 1.8.8 1.8 1.8s-.8 1.8-1.8 1.8-1.8-.8-1.8-1.8.8-1.8 1.8-1.8zm10.5-26.9c1 0 1.8.8 1.8 1.8s-.8 1.8-1.8 1.8-1.8-.8-1.8-1.8.8-1.8 1.8-1.8zm-30.5-68.2c1 0 1.8.8 1.8 1.8s-.8 1.8-1.8 1.8-1.8-.8-1.8-1.8.8-1.8 1.8-1.8zm22.9-28.7c1 0 1.8.8 1.8 1.8s-.8 1.8-1.8 1.8-1.8-.8-1.8-1.8.8-1.8 1.8-1.8zm21.5-83.5c1 0 1.8.8 1.8 1.8s-.8 1.8-1.8 1.8-1.8-.8-1.8-1.8.8-1.8 1.8-1.8zm18.3-7.5c1 0 1.8.8 1.8 1.8s-.8 1.8-1.8 1.8-1.8-.8-1.8-1.8.8-1.8 1.8-1.8zm-12.8-15.4c1 0 1.8.8 1.8 1.8s-.8 1.8-1.8 1.8-1.8-.8-1.8-1.8.8-1.8 1.8-1.8zm-11.6 4.9c1 0 1.8.8 1.8 1.8s-.8 1.8-1.8 1.8-1.8-.8-1.8-1.8.8-1.8 1.8-1.8z" style="fill:#fbfbfb"/></svg>