<svg xmlns="http://www.w3.org/2000/svg" viewBox="0 0 1280 960"><path d="M262.904 344.48H256v-2.007h6.904V322.08h5.058v20.392h10.839v2.007h-10.839v46.645c0 12.043 1.606 18.064 4.898 18.064 2.087 0 4.335-2.408 6.663-7.225l.723.562c-1.285 3.05-2.57 5.379-3.934 6.904s-2.89 2.328-4.657 2.328c-2.73 0-4.817-1.525-6.422-4.656-1.606-3.051-2.409-7.707-2.409-13.89V344.48zm49.215 2.81c-1.124-2.489-2.65-3.693-4.576-3.693-2.248 0-4.416 1.445-6.503 4.255-2.088 2.81-3.934 6.423-5.38 10.758v51.703h-4.897v-107.26h4.897v52.185c1.526-4.416 3.453-7.868 5.7-10.357 2.249-2.488 4.818-3.693 7.708-3.693s5.218 1.285 6.904 3.774c1.767 2.489 2.57 6.663 2.57 12.444v53.068h-4.898v-52.747c.08-4.496-.482-7.948-1.525-10.437m25.69 57.243c-2.97-4.737-4.415-12.685-4.415-23.764 0-8.35.723-15.576 2.248-21.517s3.452-10.437 6.021-13.487c2.49-3.051 5.219-4.577 8.27-4.577 3.773 0 6.904 2.49 9.473 7.547 2.57 4.978 3.854 12.284 3.854 21.837h-24.567l-.321 8.992c0 9.715 1.043 17.02 3.211 21.998 2.088 4.898 4.897 7.386 8.27 7.386q3.612 0 6.743-3.13c2.088-2.088 3.774-5.059 5.138-8.912l1.044.722c-3.211 9.474-7.868 14.13-14.05 14.13-4.415-.08-7.948-2.408-10.918-7.225m21.034-36.048c-.08-8.109-.883-14.37-2.408-18.867-1.526-4.496-3.693-6.744-6.584-6.744-2.81 0-5.218 2.329-7.145 6.905-2.007 4.576-3.292 10.838-4.014 18.706zm34.201 20.553 13.408-9.795q1.325 12.765 4.335 18.546c3.01 5.78 4.255 5.86 6.824 5.86 1.606 0 2.97-.802 4.015-2.408 1.043-1.606 1.605-4.175 1.605-7.707 0-2.57-.803-5.861-2.328-9.795s-4.014-9.152-7.386-15.575l-9.474-18.867c-4.174-8.028-6.182-15.334-6.182-21.998 0-6.182 1.767-10.918 5.3-14.37s8.349-5.139 14.53-5.139c9.073 0 15.576 4.657 19.51 13.89l-12.605 8.67c-.803-5.218-1.846-8.992-3.211-11.32s-2.89-3.533-4.576-3.533c-1.124 0-2.168.482-2.971 1.445s-1.204 2.329-1.204 4.175c0 4.817 2.007 11 6.101 18.466l10.839 19.67c2.97 5.378 5.379 10.597 7.145 15.655q2.65 7.587 2.65 13.488c0 5.7-1.285 10.276-3.774 13.728s-5.62 5.941-9.233 7.386c-3.693 1.445-7.306 2.168-10.999 2.168-11.962 0-19.428-7.547-22.319-22.64m61.578-43.273q5.058-4.577 13.007-4.577c5.138 0 9.152 1.365 12.042 4.015 2.97 2.73 4.416 6.583 4.416 11.56v53.63h-15.335v-7.225c-2.73 5.7-6.663 8.51-11.962 8.51-3.532 0-6.583-1.204-8.992-3.613-2.408-2.408-3.613-6.182-3.613-11.4 0-4.657.964-8.831 2.89-12.685 1.928-3.854 4.416-6.905 7.467-8.992 3.051-2.168 6.102-3.292 9.153-3.292q2.89 0 5.057 1.446v-20.634c0-4.495-.883-6.824-2.569-6.824-1.445 0-2.649 1.365-3.532 4.015s-1.686 7.386-2.409 14.05l-13.728-4.737c2.087-5.861 4.737-10.277 8.108-13.247m8.51 57.563c2.008 0 3.935-1.846 5.62-5.62V378.36c-1.043-1.044-2.247-1.606-3.452-1.606-1.927 0-3.452 1.365-4.496 4.175-1.043 2.81-1.605 6.664-1.605 11.722.08 7.065 1.364 10.677 3.934 10.677m45.44-60.855v11.4c3.212-8.51 7.628-12.685 13.408-12.685 1.927 0 3.773.482 5.62 1.445l-2.489 15.736c-1.846-1.846-4.014-2.73-6.664-2.73-4.174 0-7.466 2.088-9.955 6.343v48.411H493v-67.92zm27.137 7.948h-5.78v-7.948h5.78V322.08h15.334v20.392h10.838v7.948h-10.838v39.74c0 4.176.321 7.146.963 8.993.643 1.846 1.686 2.81 3.212 2.81 2.248 0 4.175-1.446 5.94-4.336l3.292 3.292c-1.525 3.452-3.532 6.102-6.101 7.948-2.489 1.847-5.38 2.73-8.51 2.73-4.416 0-7.868-1.526-10.437-4.657-2.49-3.05-3.774-7.627-3.774-13.728V350.42zm51.462 38.617 13.407-9.795q1.325 12.765 4.336 18.546c3.01 5.78 4.255 5.86 6.824 5.86 1.606 0 2.97-.802 4.014-2.408s1.606-4.175 1.606-7.707c0-2.57-.803-5.861-2.328-9.795-1.526-3.934-4.015-9.152-7.387-15.575l-9.473-18.867c-4.175-8.028-6.182-15.334-6.182-21.998 0-6.182 1.766-10.918 5.299-14.37 3.532-3.453 8.35-5.139 14.531-5.139 9.072 0 15.575 4.657 19.51 13.89l-12.686 8.67c-.802-5.218-1.846-8.992-3.211-11.32s-2.89-3.533-4.576-3.533c-1.124 0-2.168.482-2.97 1.446-.804.963-1.205 2.328-1.205 4.174 0 4.817 2.007 11 6.102 18.466l10.838 19.67c2.97 5.378 5.379 10.597 7.145 15.655q2.65 7.587 2.65 13.488c0 5.7-1.285 10.276-3.774 13.728s-5.62 5.941-9.232 7.386c-3.693 1.445-7.306 2.168-11 2.168-11.962 0-19.348-7.547-22.238-22.64m61.578-43.273q5.058-4.577 13.006-4.577c5.138 0 9.152 1.365 12.043 4.015 2.97 2.73 4.415 6.583 4.415 11.56v53.63h-15.334v-7.225c-2.73 5.7-6.664 8.51-11.962 8.51-3.533 0-6.584-1.204-8.992-3.613s-3.613-6.182-3.613-11.4c0-4.657.963-8.831 2.89-12.685s4.416-6.905 7.467-8.992c3.05-2.168 6.101-3.292 9.152-3.292q2.89 0 5.058 1.446v-20.634c0-4.495-.883-6.824-2.57-6.824-1.444 0-2.648 1.365-3.532 4.015s-1.686 7.386-2.408 14.05l-13.729-4.737c2.007-5.861 4.737-10.277 8.109-13.247m8.51 57.563c2.007 0 3.934-1.846 5.62-5.62V378.36c-1.044-1.044-2.248-1.606-3.452-1.606-1.927 0-3.452 1.365-4.496 4.175s-1.606 6.664-1.606 11.722c0 7.065 1.285 10.677 3.934 10.677m50.419-53.067c-1.606 0-3.292 1.766-5.058 5.379v54.753h-15.495v-67.92h15.495v7.065c2.569-5.62 6.503-8.35 11.721-8.35q5.66 0 9.394 4.095c2.488 2.73 3.773 7.065 3.773 12.926v52.184h-15.495v-50.258q0-9.875-4.335-9.875m49.696 53.871c.883-1.043 1.284-2.569 1.284-4.736 0-2.329-.481-4.496-1.445-6.584-.963-2.087-2.489-4.415-4.656-7.145l-11.561-15.174c-1.526-2.087-2.73-4.416-3.453-6.985-.802-2.569-1.124-4.897-1.124-6.984 0-4.898 1.526-8.671 4.657-11.32 3.05-2.65 7.065-4.015 11.962-4.015 6.664 0 11.963 2.49 16.057 7.387l-8.51 10.677c-1.525-3.934-3.131-6.984-4.817-8.992-1.686-2.087-3.372-3.13-4.978-3.13-1.043 0-1.926.32-2.649 1.043s-1.124 1.766-1.124 3.131c0 2.489 1.606 5.7 4.737 9.715l10.517 13.006c6.102 7.306 9.072 13.809 9.072 19.348 0 5.861-1.846 10.437-5.62 13.568s-8.35 4.737-13.728 4.737c-9.233 0-15.816-5.46-19.83-16.458l11.24-8.35c.882 5.46 2.247 10.036 4.254 13.488q3.011 5.299 6.262 5.299c1.526 0 2.57-.562 3.453-1.526m47.287-94.896h33.96v2.328h-28.5v42.953h25.69v2.328h-25.69v53.63h-5.46zm55.156 31.793c2.97 0 5.379 1.124 7.065 3.211 1.766 2.168 2.569 5.299 2.569 9.474v56.68h-4.898v-11.159c-3.452 8.27-7.948 12.444-13.407 12.444-2.489 0-4.576-.963-6.182-2.89s-2.489-4.898-2.489-8.992c0-4.175.803-8.189 2.489-12.043q2.408-5.9 6.503-9.393c2.73-2.328 5.46-3.532 8.27-3.532 1.765 0 3.371.642 4.897 2.007v-21.838q0-6.503-1.205-9.393c-.803-1.927-2.167-2.89-4.014-2.89-2.489 0-4.576 1.365-6.262 4.175s-3.05 6.984-4.095 12.604l-3.934-4.014q5.66-14.451 14.693-14.451m-11.08 65.271c.883 1.766 2.168 2.65 3.934 2.65 2.088 0 4.255-1.125 6.343-3.453s4.014-5.379 5.62-9.233v-17.26c-1.446-1.767-3.132-2.57-5.058-2.57-2.088 0-4.095 1.044-6.022 3.212-1.846 2.087-3.372 4.897-4.496 8.35a34.5 34.5 0 0 0-1.686 10.677c.08 3.292.482 5.86 1.365 7.627m57.484-59.009c-.964-2.489-2.248-3.693-3.934-3.693-1.927 0-3.773 1.365-5.62 4.014s-3.452 6.021-4.897 10.036v52.746h-4.898v-67.92h4.898v11.56c1.365-4.013 3.05-7.225 5.058-9.473s4.415-3.372 7.065-3.372c2.248 0 4.094.964 5.62 2.89s2.488 5.139 2.89 9.554c2.97-8.269 7.065-12.444 12.123-12.444 2.569 0 4.656 1.285 6.182 3.774 1.525 2.489 2.328 6.663 2.328 12.444v53.068h-4.898v-52.747c0-4.416-.4-7.868-1.284-10.357-.883-2.489-2.087-3.693-3.773-3.693-1.927 0-3.774 1.204-5.62 3.533s-3.453 5.459-4.898 9.313v53.95h-4.897v-52.746c0-4.496-.482-7.948-1.445-10.437m43.353-25.049c0-1.766.322-3.05.884-3.934.562-.883 1.364-1.284 2.488-1.284 1.927 0 2.89 1.043 2.89 3.05 0 3.533-1.043 5.38-3.05 5.38-2.168 0-3.212-1.124-3.212-3.212m5.62 20.232v67.92h-4.736v-67.92zm22.72-39.42v107.34h-4.736v-107.34Zm17.342 38.858 12.444 62.14 13.729-61.819 2.569.401-17.663 78.037c-1.445 6.342-3.371 11.802-5.86 16.378q-3.734 6.864-9.634 10.597l-4.336-4.014c4.657-2.248 8.51-5.62 11.561-10.276 3.051-4.657 5.299-10.036 6.664-16.218l1.445-6.824h-2.007l-13.408-67.358ZM286.107 554.905h-23.684v-17.662h17.823c-2.248-17.904-5.78-35.165-10.598-51.623l13.006-5.62c8.832 15.093 15.335 30.187 19.43 45.2l-20.473 12.043h23.924v-67.44h24.889v67.44h4.174c5.219-16.459 9.715-35.647 13.488-57.644l24.246 12.685c-7.065 16.458-15.093 31.471-24.085 44.959h25.29v17.662h-30.67v61.82c0 4.254.723 7.385 2.088 9.473 1.365 2.087 3.613 3.05 6.744 3.05l8.028-67.599 10.437.803-1.605 66.797h4.817l-.16 24.245h-27.699c-17.663 0-26.494-10.517-26.494-31.471v-67.037H295.58l17.663 5.459c-4.255 17.662-9.474 34.442-15.575 50.258q-9.153 23.844-22.4 46.244l-13.809-6.262c11.481-28.26 19.67-60.133 24.648-95.78m150.934 45.2-23.443 56.039-19.91-23.684 12.845-17.02v-49.777H391.28v-16.056h15.254v-17.02h-2.569l-5.78 13.648-10.598-4.416c5.86-21.677 9.634-45.682 11.24-72.095l23.282 3.05-3.612 15.656h17.02v15.495H413.92l-4.174 12.845h23.683v15.897h-7.065v17.02h7.226c3.452-24.888 5.78-51.302 7.065-79.321l23.443 2.81c-3.211 21.917-7.547 43.193-13.006 63.665h7.065v96.181h12.845v-35.325h-9.794v-15.415h9.714v-27.698h-9.795V539.17h9.795v-22.881h-11.4v-15.415h13.247c-1.365-10.678-3.212-20.392-5.62-29.143l12.685-3.854q9.875 13.488 15.655 27.939l-13.247 4.978h21.838v15.414h-12.284v22.881h10.276v15.415h-10.276v27.698h10.276v15.415h-10.276v35.325h14.29v16.057h-48.01v7.386h-21.034zm-5.86-34.522h-4.818v23.283l10.598-14.05v-1.445l-6.824-1.606zm108.624-8.27h-14.451v-17.501H566.7v-22.48h24.487v22.48h16.057l1.766-28.501h-59.57c-.563 7.787-1.606 16.538-3.212 26.333l-25.691-6.583c6.583-16.86 11.4-34.282 14.612-52.185l15.093 1.606v14.852h18.867c-1.044-8.67-3.131-17.903-6.262-27.537l15.093-3.854c7.467 8.43 13.408 16.78 17.663 25.049l-17.663 6.262h31.873l.803-13.89 25.29 3.614-16.057 54.834h12.685v17.502h-22.72q12.283 43.113 28.901 79.481l-25.53 13.006c-4.255-16.458-7.868-31.953-10.838-46.404s-5.46-29.866-7.387-46.163h-3.853v98.107H566.62v-98.027h-18.465l15.655 5.78c-7.386 31.713-17.02 60.615-29.063 86.707l-15.254-4.014c9.795-29.464 16.539-59.009 20.312-88.473m131.426-78.037 1.445.161-1.445 16.86h37.573q-4.215-16.86-10.839-30.348l1.205-.803c6.663 8.59 12.524 18.064 17.502 28.501l-5.219 2.57h39.66l1.446-11.883 7.868 1.205-12.525 50.498-1.606-.401 4.416-36.53H670.83c-1.445 13.408-4.014 27.458-7.627 42.15l-7.868-3.372c6.182-16.7 11.481-36.289 15.897-58.608m40.142 162.175-21.677-30.669c-9.474 9.474-20.312 19.028-32.515 28.501l-.964-1.204c21.918-19.028 39.821-39.018 53.63-60.053l4.416 2.57c-1.204-8.993-2.57-16.54-4.014-22.64-15.254 16.217-32.275 30.347-51.222 42.39l-.963-1.446c19.429-14.21 35.165-29.866 47.368-46.966l3.853 2.569c-1.445-5.86-3.372-12.043-5.78-18.466-13.648 9.875-27.056 18.064-40.142 24.487l-.964-.963c20.312-12.284 37.092-25.772 50.178-40.303h-35.325v-2.81h64.227v2.81h-25.69l4.415 3.613-11.882 9.473c6.182 14.612 10.276 29.946 12.203 46.164 9.393-10.437 17.342-22.32 23.925-35.727l7.065 3.854c-6.985 9.634-13.488 17.582-19.67 23.925 11 24.246 21.677 44.317 32.114 60.374l-6.583 4.817c-10.036-20.232-19.028-41.507-26.896-63.826a152 152 0 0 1-9.634 8.83 194 194 0 0 1 1.205 21.517c0 15.816-1.847 32.114-5.62 48.973l-6.824-1.445zm1.043-5.058c2.008-11.48 3.051-22.961 3.051-34.362 0-5.62-.32-11.882-.963-18.867-6.664 8.59-14.612 17.422-23.684 26.494zm84.138-50.66c2.57-23.603 3.934-50.258 3.934-79.963h-12.042v-2.81h24.486c-1.043-5.78-2.488-11.24-4.174-16.458a219 219 0 0 0-6.584-17.02l1.205-.643c6.182 8.59 11.882 18.787 17.02 30.75l-4.978 3.371h19.43v2.81h-27.699c0 7.467-.24 18.466-.803 32.917h18.626v-6.824h5.62c7.788-18.867 13.247-39.5 16.458-61.82l7.386 2.249q-2.408 9.634-5.78 20.713h43.354v2.81h-33.318l4.014 2.248c-1.847 7.386-4.898 16.539-8.992 27.457h35.726v2.81h-22.078l4.416 2.248c-2.168 13.408-4.576 26.333-7.226 38.697h27.859v2.81h-21.837c6.583 24.246 15.334 48.331 26.333 72.417l-7.065 5.62c-7.788-22.079-14.692-48.09-20.874-78.037h-5.219c-6.824 29.705-16.458 56.841-28.902 81.489l-.963-.803c10.838-25.45 18.947-52.345 24.246-80.686h-19.911v-2.81h20.232q3.251-16.619 5.78-40.945h-11.882c-4.978 11.641-10.437 22.72-16.458 33.318l-1.445-.803c10.276-20.633 17.662-42.31 22.078-65.03h-8.992c-4.656 13.648-10.116 26.253-16.217 37.734 0 23.041-.402 43.755-1.205 62.22s-2.328 36.369-4.656 53.79l-6.423-.642 1.445-10.838-17.502-64.388c-3.452 28.661-9.634 55.316-18.465 80.124l-1.445-.803c6.422-21.276 10.918-43.675 13.487-67.279m25.05 42.47q3.01-33.116 3.371-86.706h-18.867c-.642 10.838-1.525 20.312-2.569 28.5z" style="fill:#fbfbfb"/></svg>