<svg xmlns="http://www.w3.org/2000/svg" viewBox="0 0 1280 960" style="enable-background:new 0 0 1280 960" xml:space="preserve"><style>.st0{fill:#888d91}</style><path class="st0" d="M0 479h1280v2H0v-2z"/><path class="st0" d="M670 460h40v20h-40v-20zm180 20h20v-60h-20v60zm0-100v20h20v20h20v-40h-40zm-40 20h20v-20h-20v20zm20-80v60h20v-60h-20zm-320 0h-20v40h20v-40zm60 280h-20v20h20v20h20v-60h-20v20zm-20-20h-20v20h20v-20zm-20 20h-20v40h40v-20h-20v-20zm40-120h-20v40h20v-40zm-120 40h-20v40h40v-20h-20v-20zm-20-60h-20v-20h-20v40h40v-20zm0-60h-20v40h20v-40zm60-40h-20v20h-40v20h60v-40zm60 40h-20v40h20v-40zm-80 80h-20v40h20v-40zm40 20h20v-60h-20v20h-40v20h40v20zm0 60v-60h-20v20h-20v20h20v20h20zm280 0h20v-60h-20v60zm-240-40h-20v40h40v-20h-20v-20zm180 40h20v-40h-20v40zm40-80v-20h-20v60h20v-20h20v-20h-20zm20 0h20v20h20v-40h-40v20zm-140-60h20v-20h-20v20zm140-20h-20v60h20v-60zm-120 0h40v-20h-40v20zm-40 60h-60v20h40v20h20v-40zm-40 60h-20v20h20v20h20v-60h-20v20zm120 20v-20h-20v20h20zm-20-20v-20h-20v20h20zm-40-20h20v-20h-20v20zm0 20h-20v40h60v-20h-40v-20zm40-80v-20h-20v20h20z"/></svg>