<svg xmlns="http://www.w3.org/2000/svg" viewBox="0 0 1280 960"><path d="M0 479h1280v2H0v-2Z" fill="#888d91"/><path d="M220 560h40v40h40v40h-80v-80Zm80-80v80h-40v-80h40Zm80-40v-40h40v120h-40v-40h-80v-40h80Zm-80 120h40v-40h40v120h-40v-40h-40v-40Zm120-240h40v80h-40v-80Zm0 240h40v40h40v40h-80v-80Zm80-80v80h-40v-80h40Zm120-40v80h-40v-40h-80v-40h120ZM500 560h40v-40h40v120h-40v-40h-40v-40Zm160 0v40h80v40H620v-80h40Zm0-40v-40h40v40h-40Zm120-80v40h-80v-40h80Zm-40 80v40h-40v-40h40Zm40 40v40h-40v-40h40Zm40 80v-80h40v80h-40Zm80-200v40h40v40h-40v40h-40V440h40Zm40 0h-40V320h40v120Zm0 0h80v80h-40v-40h-40v-40Zm0 80h40v120h-40V520ZM140 400h40v40h40v40h-80v-80Zm80-80v80h-40v-80h40Zm80-40v-40h40v120h-40v-40h-80v-40h80Zm40-120h40v80h-40v-80Zm40 560h40v40h40v40h-80v-80Zm80-40v40h-40v-40h40Zm0 40h40v-40h40v120h-40v-40h-40v-40Zm200-360v-40h40v40h-40Zm120-80v40h-80v-40h80Zm-40 80v40h-40v-40h40Zm280-80v80h-40v-80h40Zm40 0h-40V160h40v120Zm0 0h80v80h-40v-40h-40v-40Zm0 80h40v120h-40V360Z" fill="#888d91"/></svg>